<svg width="91" height="32" viewBox="0 0 91 32" fill="none" xmlns="http://www.w3.org/2000/svg">
<path d="M0 0V7.2H4V24.1H0V30.9H21.5V24.1H17.4V7.2H21.5V0H0Z" fill="white"/>
<path d="M22.6 7.3V14H25.6V24.1H22.6V30.8H39.4V24.1H36.2V18.3C36.2 15.8 38.1 14 40.5 14C42.4 14 44 15 44 17.1V24.1H40.9V30.8H57.3V24.1H54.6V15.2C54.6 9.5 50.4 7.4 45.3 7.4C41.7 7.4 38.9 8.4 36.5 11.2C36.3 11.4 36.1 11.7 35.9 11.8V7.3H22.6Z" fill="white"/>
<path d="M71.1 7.4C63.6 7.4 56.3 11.1 56.2 19.4C56.2 21.2 56.5 22.7 57.1 24.1V24.2C59.3 29.2 65.1 31.4 71 31.4C75.8 31.4 82.4 30.3 83.9 22.9L84 22.1H75C75 24.6 73.2 25.8 71.2 25.8C67.3 25.8 67 22.5 67 19.4V19.3C67 16.2 67.3 12.9 71.2 12.9C74.3 12.9 74.8 15.6 74.9 18.1L84 17.1C83 8 73.9 7.4 71.6 7.4C71.3 7.4 71.1 7.4 71.1 7.4Z" fill="white"/>
<path d="M83.4 27.1C83.4 29.2 85.1 30.9 87.2 30.9C89.3 30.9 91 29.2 91 27.1C91 25 89.3 23.3 87.2 23.3C85.1 23.3 83.4 25 83.4 27.1Z" fill="white"/>
</svg>
