<svg width="215" height="60" viewBox="0 0 215 60" fill="none" xmlns="http://www.w3.org/2000/svg">
<path d="M95.0588 22.224C92.2188 22.224 90.5628 23.065 88.7428 25.081L88.7848 22.643V15.853H86.1028H80.4258V44.457H86.0378L88.4848 42.103C90.0518 44.164 92.1778 44.957 94.7658 44.957C100.495 44.957 104.262 40.379 104.262 33.485C104.264 27.857 101.506 22.224 95.0588 22.224ZM92.2188 38.406C89.7998 38.406 88.5268 36.683 88.5268 33.447C88.5268 30.338 89.8418 28.53 92.1748 28.53C94.4648 28.53 95.8208 30.422 95.8208 33.489C95.8218 36.683 94.5938 38.406 92.2188 38.406Z" fill="white"/>
<path d="M106.703 22.77H112.794L106.703 28.679V44.461H111.709H115.103V22.77V20.529V15.855H106.703V22.77Z" fill="white"/>
<path d="M137.882 29.035V22.771H119.3V29.035H127.704L118.367 38.069V44.461H138.101V38.111H128.487L137.882 29.035Z" fill="white"/>
<path d="M202.484 15.0391C194.892 15.0391 189.887 20.9241 189.887 29.9181C189.887 37.6081 193.917 44.9061 202.484 44.9061C211.052 44.9061 215.001 37.7761 215.001 29.8771C214.999 22.2241 211.011 15.0391 202.484 15.0391ZM202.484 38.3081C199.388 38.3081 197.904 35.6321 197.904 30.2531C197.904 27.0161 198.078 21.6361 202.484 21.6361C205.582 21.6361 207.022 24.2411 207.022 29.8741C207.022 35.4211 205.498 38.3081 202.484 38.3081Z" fill="white"/>
<path d="M156.237 26.977L160.491 22.771H160.533V15.833H140.935V22.771H144.214H152.179L146.87 28.016L148.255 31.171C148.255 31.171 154.086 30.663 154.575 34.296C154.784 35.858 153.665 37.982 150.851 38.192C147.934 38.412 145.634 37.005 144.092 34.894L138.783 39.121C141.558 43.475 145.822 44.945 150.028 44.945C164.257 44.945 165.602 29.482 156.237 26.977Z" fill="white"/>
<path d="M181.813 24.7399C179.25 23.7149 176.892 24.0649 176.892 24.0649L182.919 15.752H174.259L166.82 25.6479C164.763 28.4639 164.082 31.322 164.082 34.058C164.082 39.981 169.508 44.942 176.196 44.942C182.89 44.942 188.318 39.981 188.318 34.058C188.318 29.433 185.39 26.1679 181.813 24.7399ZM179.494 37.0679C178.693 37.8589 177.659 38.416 176.361 38.416C175.073 38.416 174.026 37.8589 173.23 37.0679C172.437 36.2809 172.034 35.28 172.034 34.069C172.034 32.865 172.437 31.8689 173.23 31.0779C174.026 30.2829 175.073 29.89 176.361 29.89C177.659 29.89 178.693 30.2849 179.494 31.0779C180.292 31.8689 180.685 32.865 180.685 34.069C180.688 35.28 180.292 36.2809 179.494 37.0679Z" fill="white"/>
<path d="M30.271 60.0001C13.581 60.0001 0 46.5411 0 30.0001C0 21.9871 3.146 14.4551 8.866 8.78711L21.47 21.2731C19.119 23.6051 17.824 26.7051 17.824 30.0001C17.824 36.8031 23.409 42.3361 30.271 42.3361C37.135 42.3361 42.72 36.8031 42.72 30.0001C42.72 26.7051 41.426 23.6061 39.074 21.2761L51.678 8.78711C57.394 14.4531 60.544 21.9861 60.544 30.0001C60.542 46.5411 46.962 60.0001 30.271 60.0001Z" fill="#22BCB9"/>
<path d="M39.0743 21.275C36.7213 18.945 33.5953 17.662 30.2703 17.662C26.9443 17.662 23.8183 18.945 21.4673 21.275L8.86328 8.78499C14.5813 3.11799 22.1813 0 30.2683 0C38.3553 0 45.9583 3.121 51.6743 8.789L39.0743 21.275Z" fill="#EB4D44"/>
</svg>
