<svg width="184" height="51" viewBox="0 0 184 51" fill="none" xmlns="http://www.w3.org/2000/svg">
<g clip-path="url(#clip0)">
<path d="M54.7294 0C53.9708 1.58134 53.3229 2.97484 52.6369 4.35058C49.4803 10.6683 46.3516 16.9987 43.1288 23.2822C42.3358 24.8255 42.3116 26.1174 43.1122 27.6835C46.7564 34.8034 50.2936 41.9765 53.8626 49.1318C54.135 49.6776 54.3679 50.2461 54.7103 51H0V0H54.7294ZM45.6974 5.55371H5.55975V45.3714H45.6236C45.2366 44.5287 44.949 43.8523 44.6206 43.1961C42.0367 37.9889 39.491 32.7613 36.8308 27.5934C36.0607 26.0959 36.0671 24.8343 36.8435 23.3647C38.5071 20.2147 40.0511 17.0013 41.6345 13.8081C42.9582 11.1353 44.2667 8.46002 45.6974 5.55371Z" fill="#AE485C"/>
<path d="M26.2738 38.9471L19.851 30.1622H18.5986V38.9471H11.5127V11.3054H22.594C25.6488 11.3054 28.1105 12.0466 29.9765 13.5302C31.8437 15.0151 32.8149 17.3059 32.8938 20.4025C32.8938 25.2976 31.0787 28.3143 27.4499 29.4603L35.008 38.9483H26.2763L26.2738 38.9471ZM18.5986 24.149H22.7098C24.0921 24.149 25.071 23.6236 25.645 22.569C26.2178 21.5156 26.2178 20.4597 25.645 19.4063C25.0722 18.3529 24.0921 17.8262 22.7086 17.8262H18.5973V24.1516L18.5986 24.149Z" fill="#AE485C"/>
<path d="M77.3799 35.7512L72.6959 29.3421H71.782V35.7512H66.6143V15.5923H74.6968C76.9242 15.5923 78.7189 16.133 80.0809 17.2143C81.4428 18.2969 82.1505 19.9683 82.2065 22.2274C82.2065 25.7961 80.8828 27.9981 78.2353 28.8332L83.7492 35.7525H77.3799V35.7512ZM71.7794 24.9585H74.7795C75.7889 24.9585 76.5029 24.5727 76.9204 23.8062C77.3405 23.0371 77.3405 22.268 76.9204 21.4989C76.5004 20.7298 75.7876 20.3465 74.7795 20.3465H71.7807V24.9585H71.7794ZM89.659 15.5911V29.0032C89.659 29.6124 89.8601 30.1264 90.261 30.5554C90.6594 30.9818 91.1393 31.2407 91.7031 31.3384C92.2632 31.4336 92.8321 31.4336 93.4024 31.3384C93.9752 31.242 94.4588 30.9831 94.8598 30.5554C95.2582 30.1264 95.4606 29.6112 95.4606 29.0032V15.5911H100.628V29.0032C100.628 30.0287 100.444 30.964 100.072 31.808C99.7029 32.6533 99.2027 33.3513 98.5726 33.9021C97.9451 34.4529 97.2234 34.9237 96.4152 35.3108C95.6057 35.7017 94.7605 35.9327 93.8733 36.0088C92.9887 36.085 92.0977 36.085 91.2029 36.0088C90.3068 35.9327 89.4566 35.6992 88.6471 35.3108C87.8375 34.9225 87.1235 34.4529 86.5061 33.9021C85.8863 33.3538 85.3962 32.6533 85.0347 31.808C84.672 30.9653 84.4925 30.0287 84.4925 29.0032V15.5911H89.6602H89.659ZM102.372 32.3918L105.599 29.3713C105.981 29.8472 106.459 30.247 107.041 30.5681C107.623 30.8892 108.199 31.1011 108.769 31.1938C109.342 31.2889 109.884 31.3118 110.396 31.2636C110.91 31.2166 111.338 31.0605 111.682 30.794C112.023 30.53 112.203 30.1848 112.224 29.7685C112.243 29.2355 111.908 28.8014 111.223 28.4588C110.54 28.1161 109.721 27.8788 108.767 27.7481C106.998 27.4612 105.516 26.7746 104.327 25.6819C103.138 24.5905 102.543 23.1437 102.543 21.339C102.543 19.4606 103.26 17.9847 104.698 16.9097C106.136 15.8373 107.854 15.303 109.853 15.303C112.691 15.303 114.995 16.3754 116.767 18.519L113.424 21.0826C112.741 20.3617 111.94 19.8731 111.025 19.6155C110.111 19.3591 109.315 19.3782 108.638 19.6726C107.964 19.967 107.615 20.495 107.595 21.2539C107.653 22.1246 108.549 22.7515 110.28 23.1322C111.1 23.282 111.814 23.4444 112.421 23.6145C113.032 23.7871 113.668 24.046 114.334 24.3988C115 24.7504 115.538 25.1578 115.951 25.6223C116.358 26.088 116.689 26.696 116.935 27.446C117.182 28.1948 117.285 29.0451 117.249 29.9932C117.192 31.228 116.749 32.3195 115.92 33.2675C115.093 34.2194 114.092 34.9174 112.923 35.3616C111.752 35.8083 110.527 36.0342 109.253 36.0342C108.015 36.0342 106.784 35.7169 105.567 35.0913C104.35 34.4643 103.289 33.5645 102.375 32.388L102.372 32.3918ZM133.816 21.74C133.796 22.2921 133.613 22.8911 133.259 23.5358C132.906 24.1805 132.398 24.6742 131.731 25.0169C132.969 25.6426 133.796 26.4789 134.213 27.5234C134.633 28.5679 134.757 29.5743 134.585 30.5414C134.033 34.0163 131.635 35.7525 127.388 35.7525H119.134V15.5923H127.246C129.225 15.5923 130.83 16.1482 132.057 17.2574C133.287 18.3667 133.873 19.8617 133.816 21.7425V21.74ZM124.276 23.4787H127.247C128.029 23.4787 128.586 23.1779 128.921 22.5814C129.252 21.9824 129.257 21.3859 128.934 20.7869C128.613 20.1866 128.05 19.8896 127.25 19.8896H124.279V23.4787H124.276ZM124.276 31.2813H127.247C128.218 31.2813 128.899 30.9361 129.291 30.2406C129.681 29.5502 129.678 28.8598 129.279 28.177C128.875 27.4917 128.199 27.1516 127.248 27.1516H124.279V31.2813H124.276ZM146.183 15.5911L153.409 35.7525H147.926L146.611 31.709H141.214L139.956 35.7537H134.47L141.527 15.5936H146.183V15.5911ZM142.356 27.1782H145.385L143.985 21.2857H143.841L142.357 27.1795L142.356 27.1782ZM153.152 32.3918L156.379 29.3713C156.76 29.8472 157.239 30.247 157.821 30.5681C158.404 30.8892 158.979 31.1011 159.552 31.1938C160.122 31.2889 160.665 31.3118 161.177 31.2636C161.691 31.2166 162.119 31.0605 162.463 30.794C162.804 30.53 162.985 30.1848 163.005 29.7685C163.024 29.2355 162.689 28.8014 162.004 28.4588C161.321 28.1161 160.503 27.8788 159.548 27.7481C157.779 27.4612 156.297 26.7746 155.108 25.6819C153.918 24.5905 153.322 23.1437 153.322 21.339C153.322 19.4606 154.04 17.9847 155.477 16.9097C156.916 15.8373 158.634 15.303 160.632 15.303C163.471 15.303 165.775 16.3754 167.546 18.519L164.204 21.0826C163.519 20.3617 162.719 19.8731 161.803 19.6155C160.889 19.3591 160.094 19.3782 159.417 19.6726C158.742 19.967 158.393 20.495 158.373 21.2539C158.432 22.1246 159.328 22.7515 161.059 23.1322C161.878 23.282 162.593 23.4444 163.2 23.6145C163.811 23.7871 164.447 24.046 165.113 24.3988C165.778 24.7504 166.317 25.1578 166.729 25.6223C167.137 26.088 167.467 26.696 167.713 27.446C167.96 28.1948 168.063 29.0451 168.028 29.9932C167.97 31.228 167.527 32.3195 166.699 33.2675C165.871 34.2194 164.87 34.9174 163.7 35.3616C162.529 35.8083 161.304 36.0342 160.03 36.0342C158.792 36.0342 157.561 35.7169 156.344 35.0913C155.129 34.4643 154.068 33.5645 153.153 32.388L153.152 32.3918ZM175.088 20.3732V23.5079H183.285V27.9207H175.088V30.9387H184V35.7525H169.918V15.5923H183.999V20.377L175.085 20.3744L175.088 20.3732Z" fill="white"/>
</g>
<defs>
<clipPath id="clip0">
<rect width="184" height="51" fill="white"/>
</clipPath>
</defs>
</svg>
