<svg width="238" height="48" viewBox="0 0 238 48" fill="none" xmlns="http://www.w3.org/2000/svg">
<path d="M41.0608 30.6885C45.8066 30.6885 49.0813 28.5538 51.1541 24.2245H46.7384C46.2269 25.3513 45.5063 26.1513 44.545 26.5968C43.7645 26.9825 42.6224 27.1301 41.1204 27.1301C37.1245 27.1301 34.7819 25.1742 34.1209 21.3489L34.0011 20.6368H52.1449C52.1151 18.4427 51.8446 16.6636 51.3641 15.3592C50.5529 13.1355 49.2017 11.356 47.3991 10.1114C45.5662 8.86587 43.4038 8.21398 41.0004 8.21398C37.8165 8.21398 35.2028 9.31101 33.0401 11.5051C30.9075 13.6691 29.8556 16.3677 29.8556 19.4809C29.8556 22.7426 30.9072 25.4112 32.9796 27.5464C35.0529 29.6508 37.7856 30.6885 41.0608 30.6885ZM34.0312 17.7609H34.0613L34.2713 17.0193C35.2028 13.5801 37.5154 11.8312 41.0606 11.8312C44.7252 11.8312 46.9782 13.5801 47.759 17.0493L47.9094 17.7906H34.0312V17.7609Z" fill="white"/>
<path d="M29.0201 26.3508H26.0243L17.518 0H11.4189L2.95542 26.3508H0V30.0066H29.0203L29.0201 26.3508ZM7.62795 26.3508L14.4226 3.78581L21.3121 26.3508H7.62795Z" fill="white"/>
<path d="M56.1405 30.0655L61.6077 13.5504L67.0451 30.0655H71.4909L63.7704 8.45042H59.5653L51.8148 30.0655H56.1405Z" fill="white"/>
<path d="M82.6062 8.45042C79.3618 8.45042 76.6879 9.45864 74.4949 11.5336C72.3018 13.6098 71.221 16.189 71.221 19.3619C71.221 22.6532 72.2419 25.2619 74.4052 27.3377C76.5378 29.4427 79.2415 30.4506 82.5761 30.4506C85.9107 30.4506 88.6436 29.4127 90.747 27.3671C92.8799 25.2913 93.9314 22.6524 93.9314 19.3613C93.991 16.1884 92.9097 13.6092 90.7169 11.5331C88.5235 9.45864 85.8502 8.45042 82.6062 8.45042ZM87.8628 24.8173C86.541 26.241 84.7989 26.9528 82.6357 26.9528C80.4429 26.9528 78.6707 26.241 77.379 24.8173C76.0874 23.4242 75.4266 21.6153 75.4266 19.4804C75.4266 17.3166 76.0871 15.5069 77.379 14.1137C78.7008 12.6901 80.4432 11.9485 82.6357 11.9485C84.8285 11.9485 86.6307 12.6606 87.8926 14.084C89.1542 15.4774 89.8149 17.286 89.8149 19.4804C89.786 21.645 89.1244 23.4242 87.8628 24.8173Z" fill="white"/>
<path d="M126.555 8.45042C123.31 8.45042 120.636 9.45864 118.443 11.5336C116.25 13.6098 115.169 16.189 115.169 19.3619C115.169 22.6532 116.191 25.2619 118.354 27.3377C120.486 29.4427 123.19 30.4506 126.524 30.4506C129.859 30.4506 132.592 29.4127 134.695 27.3671C136.828 25.2913 137.879 22.6524 137.879 19.3613C137.939 16.1884 136.858 13.6092 134.666 11.5331C132.472 9.45864 129.799 8.45042 126.555 8.45042ZM131.811 24.8173C130.489 26.241 128.747 26.9528 126.584 26.9528C124.391 26.9528 122.619 26.241 121.328 24.8173C120.036 23.4242 119.374 21.6153 119.374 19.4804C119.374 17.3166 120.035 15.5069 121.328 14.1137C122.65 12.6901 124.391 11.9485 126.584 11.9485C128.777 11.9485 130.579 12.6606 131.841 14.084C133.102 15.4774 133.763 17.286 133.763 19.4804C133.735 21.645 133.073 23.4242 131.811 24.8173Z" fill="white"/>
<path d="M110.096 18.3721C110.875 17.3289 111.263 16.094 111.263 14.6205C111.296 12.8545 110.68 11.3594 109.433 10.1792C108.196 9.00902 106.707 8.43977 104.883 8.43977H98.0874V8.45042H96.3008V30.0063H100.085V30.0195H106.865C108.717 30.0195 110.261 29.4321 111.453 28.2731C112.669 27.0895 113.26 25.618 113.26 23.7816C113.293 22.0159 112.678 20.5216 111.43 19.3406C111.016 18.9487 110.57 18.6304 110.096 18.3721ZM104.897 11.7376C105.758 11.7376 106.429 12.0023 106.895 12.5276C107.389 13.073 107.64 13.7893 107.64 14.6533C107.628 15.5144 107.374 16.2249 106.887 16.763C106.388 17.3 105.738 17.5609 104.897 17.5609H100.085V11.7373H104.897V11.7376ZM108.884 25.9255C108.386 26.4614 107.735 26.7231 106.895 26.7231H100.085V20.8996H106.895C107.756 20.8996 108.427 21.1646 108.892 21.6898C109.387 22.2353 109.638 22.9521 109.638 23.815C109.626 24.6761 109.371 25.3866 108.884 25.9255Z" fill="white"/>
<path d="M235.888 10.494C234.495 9.13984 232.687 8.45322 230.513 8.45322H220.155V30.0091H223.955V22.9804H230.53C232.672 22.9804 234.416 22.3151 235.863 20.9452C237.318 19.5675 238.037 17.8208 237.999 15.7517C237.999 13.5972 237.308 11.8771 235.888 10.494ZM233.22 18.5072C232.592 19.2173 231.694 19.5767 230.549 19.5767H223.955V11.8572H230.549C231.666 11.8572 232.535 12.2088 233.207 12.9332C233.854 13.6467 234.19 14.5813 234.206 15.7122C234.206 16.8445 233.874 17.7855 233.22 18.5072Z" fill="white"/>
<path d="M154.492 8.45042L144.531 24.0366V8.45042H140.716V30.0066H144.892L154.864 14.4037V30.0066H158.669V8.45042H154.492Z" fill="white"/>
<path d="M183.052 24.675L177.052 8.45182H170.972V29.9649H174.84C174.84 29.9649 174.847 15.852 174.84 14.6017L181.037 30.0066H185.044L191.165 14.7043C191.109 15.9414 191.165 29.9649 191.165 29.9649H194.958V8.45182H189.028L183.052 24.675Z" fill="white"/>
<path d="M155.309 3.78609H144.074V5.95045H155.309V3.78609Z" fill="white"/>
<path d="M155.309 0.0792809H144.074V2.2145H155.309V0.0792809Z" fill="white"/>
<path d="M212.355 8.45042L202.394 24.0366V8.45042H198.579V30.0066H202.754L212.727 14.4037V30.0066H216.532V8.45042H212.355Z" fill="white"/>
<path d="M8.72009 44.8739H7.62568V36.5442H2.79109V44.8739H1.69696V35.5839H8.72038L8.72009 44.8739Z" fill="white"/>
<path d="M14.43 45.0008C13.971 45.0008 13.5516 44.9165 13.1715 44.7498C12.7912 44.5829 12.473 44.3248 12.2156 43.978H12.1384C12.1898 44.3845 12.2156 44.77 12.2156 45.1344V48H11.1468V37.9091H12.0152L12.164 38.863H12.2151C12.4898 38.4814 12.8091 38.2063 13.1741 38.0368C13.5388 37.8679 13.9571 37.7827 14.4291 37.7827C15.3649 37.7827 16.0866 38.0982 16.5953 38.7296C17.1039 39.3613 17.3582 40.246 17.3582 41.3853C17.3582 42.5289 17.0996 43.4175 16.5828 44.0509C16.0662 44.6846 15.3487 45.0008 14.43 45.0008ZM14.2756 38.6781C13.5541 38.6781 13.033 38.8756 12.7109 39.2689C12.3888 39.663 12.2236 40.29 12.2156 41.1497V41.3851C12.2156 42.3633 12.3805 43.0631 12.7109 43.4847C13.0418 43.9063 13.5711 44.1175 14.3008 44.1175C14.9102 44.1175 15.3879 43.8738 15.733 43.3869C16.0787 42.9001 16.251 42.2283 16.251 41.3727C16.251 40.5049 16.0787 39.839 15.733 39.3748C15.3879 38.9106 14.902 38.6781 14.2756 38.6781Z" fill="white"/>
<path d="M23.5645 44.8739L23.3519 43.8828H23.3005C22.9486 44.319 22.5978 44.6145 22.2481 44.7689C21.8987 44.9238 21.4616 45.0014 20.9386 45.0014C20.2389 45.0014 19.6909 44.8235 19.2941 44.4674C18.8967 44.1114 18.6984 43.6057 18.6984 42.9491C18.6984 41.5425 19.8379 40.8057 22.1164 40.7377L23.3141 40.699V40.267C23.3141 39.7207 23.1949 39.3171 22.9565 39.0568C22.7181 38.7966 22.3375 38.6657 21.8141 38.6657C21.2261 38.6657 20.5608 38.8439 19.8186 39.1997L19.4905 38.392C19.8382 38.2063 20.2188 38.0601 20.6329 37.9542C21.0467 37.8477 21.4622 37.7951 21.8789 37.7951C22.7195 37.7951 23.3434 37.9794 23.7487 38.3483C24.1545 38.7167 24.3572 39.3078 24.3572 40.1208V44.8739H23.5645ZM21.1503 44.1296C21.8156 44.1296 22.3381 43.9497 22.7175 43.5903C23.0979 43.2298 23.2869 42.7258 23.2869 42.0773V41.4484L22.2189 41.4929C21.3685 41.5226 20.7566 41.6526 20.3803 41.884C20.0051 42.1145 19.8175 42.4737 19.8175 42.9606C19.8175 43.3421 19.9344 43.6321 20.168 43.8312C20.4024 44.031 20.7299 44.1296 21.1503 44.1296Z" fill="white"/>
<path d="M30.6716 37.9091H31.8426L28.7981 41.2705L32.0938 44.8731H30.8447L27.6262 41.3467V44.8731H26.5576V37.9088H27.6268V41.296L30.6716 37.9091Z" fill="white"/>
<path d="M38.1579 38.812H35.8664V44.8739H34.7978V38.812H32.532V37.9091H38.1579V38.812Z" fill="white"/>
<path d="M40.5593 37.9091V42.3258L40.5142 43.4825L40.4949 43.8447L44.3123 37.9091H45.6448V44.8736H44.6466V40.6161L44.6662 39.7773L44.6986 38.9518L40.8874 44.8739H39.5552V37.9091H40.5593Z" fill="white"/>
<path d="M48.8506 37.9091V40.4508C48.8506 41.2643 49.3209 41.6705 50.2606 41.6705C50.6508 41.6705 51.0241 41.6111 51.3808 41.4926C51.737 41.3733 52.1406 41.173 52.591 40.8892V37.9091H53.6591V44.8736H52.591V41.7218C52.1403 42.0269 51.7225 42.242 51.3385 42.3669C50.9545 42.4922 50.5203 42.5546 50.035 42.5546C49.3311 42.5546 48.7799 42.3723 48.3806 42.0078C47.9818 41.6439 47.782 41.1497 47.782 40.5275V37.9091H48.8506Z" fill="white"/>
<path d="M58.9058 45.0008C57.8633 45.0008 57.0402 44.6874 56.4371 44.0604C55.834 43.4337 55.5328 42.563 55.5328 41.4489C55.5328 40.327 55.813 39.4353 56.3727 38.7742C56.9326 38.1133 57.685 37.783 58.629 37.783C59.5134 37.783 60.213 38.0699 60.7282 38.6436C61.243 39.2179 61.5004 39.9748 61.5004 40.9153V41.5817H56.6397C56.661 42.3997 56.8702 43.0205 57.2673 43.4441C57.6643 43.8677 58.2232 44.0794 58.9446 44.0794C59.7039 44.0794 60.4551 43.9223 61.1976 43.6088V44.549C60.8198 44.71 60.4625 44.8255 60.1256 44.8952C59.789 44.9647 59.3823 45.0008 58.9058 45.0008ZM58.6163 38.6657C58.0498 38.6657 57.5982 38.8476 57.2613 39.2123C56.9244 39.5765 56.7257 40.0807 56.6658 40.7245H60.3547C60.3547 40.0589 60.2042 39.5499 59.9039 39.1963C59.6031 38.8425 59.1742 38.6657 58.6163 38.6657Z" fill="white"/>
<path d="M66.1415 45.0008C65.1197 45.0008 64.329 44.6907 63.7693 44.0702C63.2093 43.4494 62.9292 42.5715 62.9292 41.4363C62.9292 40.2715 63.2136 39.3711 63.7824 38.7358C64.3506 38.1004 65.1609 37.7822 66.2124 37.7822C66.5516 37.7822 66.8905 37.8186 67.2293 37.8906C67.5682 37.9629 67.8344 38.0475 68.0275 38.1444L67.6994 39.0403C67.4632 38.947 67.2055 38.8697 66.9268 38.8081C66.6478 38.747 66.4012 38.7162 66.1869 38.7162C64.7533 38.7162 64.0364 39.6185 64.0364 41.4229C64.0364 42.2787 64.2112 42.9351 64.5614 43.392C64.9108 43.8497 65.4294 44.0786 66.1156 44.0786C66.7034 44.0786 67.3068 43.9537 67.9247 43.7038V44.6375C67.4527 44.8798 66.8581 45.0008 66.1415 45.0008Z" fill="white"/>
<path d="M73.7118 37.9091H74.8831L71.8386 41.2705L75.1343 44.8731H73.8855L70.6664 41.3467V44.8731H69.5978V37.9088H70.6664V41.296L73.7118 37.9091Z" fill="white"/>
<path d="M77.4455 37.9091V42.3258L77.4006 43.4825L77.3813 43.8447L81.1987 37.9091H82.5312V44.8736H81.533V40.6161L81.5523 39.7773L81.5847 38.9518L77.7736 44.8739H76.4413V37.9091H77.4455Z" fill="white"/>
<path d="M85.8011 37.9091V42.3258L85.7563 43.4825L85.7367 43.8447L89.5544 37.9091H90.8866V44.8736H89.8887V40.6161L89.9077 39.7773L89.9401 38.9518L86.1292 44.8739H84.797V37.9091H85.8011ZM87.816 36.9883C87.0218 36.9883 86.4431 36.8367 86.0781 36.5339C85.7134 36.2313 85.5094 35.7327 85.4668 35.0374H86.4707C86.5095 35.478 86.6265 35.7851 86.8217 35.9593C87.017 36.1327 87.357 36.2196 87.8424 36.2196C88.2843 36.2196 88.6112 36.1263 88.8238 35.9397C89.0364 35.7531 89.1661 35.4525 89.2132 35.0374H90.2245C90.1728 35.7066 89.956 36.1994 89.5739 36.5145C89.1914 36.8305 88.6056 36.9883 87.816 36.9883Z" fill="white"/>
<path d="M102.667 41.3851C102.667 42.5202 102.377 43.4068 101.798 44.0441C101.219 44.6815 100.418 45.0003 99.3967 45.0003C98.7657 45.0003 98.2061 44.8535 97.7168 44.5613C97.2277 44.2697 96.8497 43.8497 96.5837 43.3035C96.3175 42.7572 96.1847 42.1179 96.1847 41.3848C96.1847 40.2494 96.4719 39.3653 97.0472 38.7316C97.6219 38.0979 98.4203 37.7813 99.4421 37.7813C100.43 37.7813 101.214 38.1057 101.795 38.7534C102.376 39.4025 102.667 40.2796 102.667 41.3851ZM97.2922 41.3851C97.2922 42.2751 97.4721 42.9524 97.8325 43.4183C98.1933 43.8842 98.7235 44.1173 99.4228 44.1173C100.122 44.1173 100.653 43.8847 101.016 43.4208C101.378 42.9575 101.56 42.2784 101.56 41.3848C101.56 40.4993 101.378 39.8272 101.016 39.3675C100.653 38.9081 100.118 38.6778 99.4097 38.6778C98.7101 38.6778 98.1825 38.9047 97.826 39.3582C97.4701 39.8118 97.2922 40.4869 97.2922 41.3851Z" fill="white"/>
<path d="M105.609 37.9091V40.8259H109.562V37.9091H110.63V44.8736H109.562V41.7347H105.609V44.8736H104.54V37.9091H105.609Z" fill="white"/>
<path d="M118.155 44.8739H117.075V38.812H114.957C114.841 40.3202 114.68 41.5162 114.474 42.402C114.268 43.2869 114.001 43.9352 113.672 44.3459C113.344 44.7568 112.926 44.9624 112.42 44.9624C112.188 44.9624 112.003 44.9372 111.866 44.8865V44.1049C111.961 44.1299 112.068 44.143 112.188 44.143C112.682 44.143 113.075 43.629 113.366 42.5992C113.658 41.57 113.879 40.0071 114.029 37.9096H118.155V44.8739Z" fill="white"/>
<path d="M124.76 44.8739L124.548 43.8828H124.496C124.144 44.319 123.793 44.6145 123.444 44.7689C123.095 44.9235 122.657 45.0014 122.134 45.0014C121.434 45.0014 120.886 44.8235 120.489 44.4674C120.092 44.1114 119.894 43.6057 119.894 42.9491C119.894 41.5425 121.033 40.8057 123.312 40.7377L124.509 40.699V40.267C124.509 39.7207 124.39 39.3171 124.152 39.0568C123.914 38.7963 123.533 38.6657 123.009 38.6657C122.422 38.6657 121.756 38.8439 121.014 39.1997L120.685 38.392C121.034 38.2063 121.414 38.0601 121.828 37.9542C122.243 37.8477 122.658 37.7951 123.073 37.7951C123.915 37.7951 124.538 37.9794 124.944 38.3483C125.349 38.7167 125.553 39.3078 125.553 40.1208V44.8739H124.76ZM122.346 44.1296C123.012 44.1296 123.534 43.9497 123.914 43.5903C124.293 43.2301 124.484 42.7258 124.484 42.0773V41.4484L123.415 41.4929C122.565 41.5226 121.952 41.6526 121.577 41.884C121.201 42.1145 121.014 42.4737 121.014 42.9606C121.014 43.3421 121.131 43.6321 121.365 43.8312C121.599 44.0307 121.926 44.1296 122.346 44.1296Z" fill="white"/>
<path d="M128.758 37.9091V42.3258L128.713 43.4825L128.694 43.8447L132.511 37.9091H133.843V44.8736H132.845V40.6161L132.864 39.7773L132.897 38.9518L129.086 44.8739H127.753V37.9091H128.758ZM130.773 36.9883C129.979 36.9883 129.4 36.8367 129.035 36.5339C128.67 36.2313 128.466 35.7327 128.424 35.0374H129.428C129.467 35.478 129.583 35.7851 129.779 35.9593C129.973 36.1324 130.314 36.2196 130.799 36.2196C131.241 36.2196 131.568 36.1263 131.78 35.9397C131.993 35.7531 132.123 35.4525 132.17 35.0374H133.181C133.129 35.7066 132.913 36.1994 132.53 36.5145C132.148 36.8305 131.563 36.9883 130.773 36.9883Z" fill="white"/>
<path d="M137.178 37.9091V40.8259H141.131V37.9091H142.199V44.8736H141.131V41.7347H137.178V44.8736H136.11V37.9091H137.178Z" fill="white"/>
<path d="M143.873 41.8677V40.9021H147.033V41.8677H143.873Z" fill="white"/>
<path d="M151.926 37.9222H152.911V41.2963L155.827 37.9222H156.999L154.051 41.2963L157.249 44.8739H156.014L152.911 41.3478V44.8739H151.926V41.3478L148.83 44.8739H147.6L150.793 41.2963L147.851 37.9222H149.023L151.926 41.2963V37.9222Z" fill="white"/>
<path d="M157.289 37.9091H158.434L159.979 41.8806C160.318 42.7869 160.528 43.4416 160.61 43.8447H160.662C160.718 43.6287 160.834 43.2589 161.012 42.7353C161.19 42.2126 161.773 40.6035 162.761 37.9091H163.906L160.874 45.839C160.573 46.6228 160.223 47.1786 159.821 47.507C159.42 47.8353 158.927 47.9994 158.344 47.9994C158.018 47.9994 157.696 47.9627 157.378 47.8913V47.0464C157.614 47.0971 157.878 47.1223 158.17 47.1223C158.904 47.1223 159.428 46.7158 159.741 45.9023L160.133 44.9112L157.289 37.9091Z" fill="white"/>
<path d="M168.335 45.0008C167.876 45.0008 167.456 44.9165 167.076 44.7498C166.696 44.5826 166.378 44.3248 166.12 43.978H166.043C166.095 44.3845 166.12 44.77 166.12 45.1344V48H165.052V37.9091H165.92L166.069 38.863H166.12C166.395 38.4814 166.715 38.2063 167.08 38.0368C167.444 37.8679 167.863 37.7827 168.335 37.7827C169.27 37.7827 169.993 38.0982 170.501 38.7296C171.01 39.3613 171.264 40.246 171.264 41.3853C171.264 42.5289 171.005 43.4175 170.488 44.0509C169.971 44.6846 169.253 45.0008 168.335 45.0008ZM168.181 38.6781C167.46 38.6781 166.938 38.8756 166.616 39.2689C166.294 39.663 166.129 40.29 166.121 41.1497V41.3851C166.121 42.3633 166.286 43.0631 166.616 43.4847C166.946 43.9063 167.477 44.1175 168.206 44.1175C168.815 44.1175 169.293 43.8738 169.639 43.3869C169.984 42.9001 170.157 42.2283 170.157 41.3727C170.157 40.5049 169.984 39.839 169.639 39.3748C169.293 38.9106 168.807 38.6781 168.181 38.6781Z" fill="white"/>
<path d="M174.2 37.9091V40.8259H178.152V37.9091H179.221V44.8736H178.152V41.7347H174.199V44.8736H173.13V37.9091H174.2Z" fill="white"/>
<path d="M185.826 44.8739L185.613 43.8828H185.561C185.209 44.319 184.858 44.6145 184.509 44.7689C184.159 44.9235 183.722 45.0014 183.199 45.0014C182.5 45.0014 181.951 44.8235 181.554 44.4674C181.157 44.1114 180.959 43.6057 180.959 42.9491C180.959 41.5425 182.098 40.8057 184.377 40.7377L185.574 40.699V40.267C185.574 39.7207 185.455 39.3171 185.217 39.0568C184.979 38.7963 184.598 38.6657 184.074 38.6657C183.486 38.6657 182.821 38.8439 182.079 39.1997L181.751 38.392C182.098 38.2063 182.479 38.0601 182.893 37.9542C183.308 37.8477 183.722 37.7951 184.139 37.7951C184.98 37.7951 185.603 37.9794 186.009 38.3483C186.415 38.7167 186.617 39.3078 186.617 40.1208V44.8739H185.826ZM183.411 44.1296C184.076 44.1296 184.599 43.9497 184.978 43.5903C185.358 43.2301 185.548 42.7258 185.548 42.0773V41.4484L184.48 41.4929C183.629 41.5226 183.017 41.6526 182.642 41.884C182.266 42.1145 182.078 42.4737 182.078 42.9606C182.078 43.3421 182.196 43.6321 182.429 43.8312C182.664 44.0307 182.99 44.1296 183.411 44.1296Z" fill="white"/>
<path d="M194.078 44.8739H192.997V38.812H190.879C190.763 40.3202 190.602 41.5162 190.396 42.402C190.19 43.2869 189.923 43.9352 189.595 44.3459C189.266 44.7568 188.849 44.9624 188.343 44.9624C188.111 44.9624 187.926 44.9372 187.789 44.8865V44.1049C187.883 44.1299 187.991 44.143 188.111 44.143C188.604 44.143 188.997 43.629 189.289 42.5992C189.58 41.57 189.802 40.0071 189.951 37.9096H194.078L194.078 44.8739Z" fill="white"/>
</svg>
