<svg xmlns="http://www.w3.org/2000/svg" xmlns:xlink="http://www.w3.org/1999/xlink" width="88" height="79" viewBox="0 0 88 79"><defs><path id="camera" d="M154 2173.524v-9.735c0-5.8 4.701-10.5 10.5-10.5h3.454c2.256 0 3.42-.199 4.546-.616a7.5 7.5 0 0 0 2.907-1.927c.823-.874 1.46-1.869 2.338-3.946l.809-1.911c.879-2.077 1.515-3.072 2.338-3.946a7.5 7.5 0 0 1 2.908-1.927c1.125-.417 2.29-.616 4.545-.616h15.309c2.255 0 3.42.199 4.545.616a7.5 7.5 0 0 1 2.908 1.926c.822.874 1.459 1.87 2.338 3.946l.81 1.912c.878 2.078 1.515 3.073 2.338 3.947a7.5 7.5 0 0 0 2.907 1.926c1.126.417 2.29.616 4.546.616h3.454c5.799 0 10.5 4.7 10.5 10.5v23.016c0 7.77-.975 11.43-2.805 14.852a19.082 19.082 0 0 1-7.938 7.938c-3.422 1.83-7.082 2.805-14.852 2.805h-32.81c-7.77 0-11.43-.975-14.852-2.805a19.082 19.082 0 0 1-7.938-7.938c-1.83-3.422-2.805-7.082-2.805-14.852"/><path id="b" d="M180 2180.4c0-8.837 7.163-16 16-16s16 7.163 16 16-7.163 16-16 16-16-7.163-16-16z"/></defs><use fill="#fff" fill-opacity="0" stroke="#fff" stroke-linecap="round" stroke-linejoin="round" stroke-miterlimit="50" stroke-width="4" xlink:href="#camera" transform="translate(-152 -2136)"/><use fill="#fff" fill-opacity="0" stroke="#fff" stroke-linecap="round" stroke-linejoin="round" stroke-miterlimit="50" stroke-width="4" xlink:href="#b" transform="translate(-152 -2136)"/></svg>