<svg xmlns="http://www.w3.org/2000/svg" xmlns:xlink="http://www.w3.org/1999/xlink" width="50" height="66" viewBox="0 0 50 66"><defs><path id="hxn4a" d="M941 4138v-43.308c0-2.675.278-3.645.801-4.623a5.452 5.452 0 0 1 2.268-2.268c.978-.523 1.948-.801 4.623-.801h20.59c1.55 0 2.086.056 2.68.193.593.137 1.119.355 1.636.678.517.323.935.662 2.03 1.758l10.743 10.742c1.096 1.096 1.435 1.514 1.758 2.031.323.517.541 1.043.678 1.636.137.594.193 1.13.193 2.68v36.59c0 2.675-.278 3.645-.801 4.623a5.452 5.452 0 0 1-2.268 2.268c-.978.523-1.948.801-4.623.801h-32.616c-2.675 0-3.645-.278-4.623-.801a5.452 5.452 0 0 1-2.268-2.268c-.523-.978-.801-1.948-.801-4.623"/><path id="hxn4b" d="M949 4130a1 1 0 0 1 1-1h26a1 1 0 0 1 0 2h-26a1 1 0 0 1-1-1z"/><path id="hxn4c" d="M949 4136a1 1 0 0 1 1-1h30a1 1 0 0 1 0 2h-30a1 1 0 0 1-1-1z"/><path id="hxn4d" d="M949 4142a1 1 0 0 1 1-1h22a1 1 0 0 1 0 2h-22a1 1 0 0 1-1-1z"/></defs><g><g transform="translate(-940 -4086)"><use fill="#fff" fill-opacity="0" stroke="#000" stroke-linecap="round" stroke-linejoin="round" stroke-miterlimit="50" stroke-width="2" xlink:href="#hxn4a"/></g><g transform="translate(-940 -4086)"><use xlink:href="#hxn4b"/></g><g transform="translate(-940 -4086)"><use xlink:href="#hxn4c"/></g><g transform="translate(-940 -4086)"><use xlink:href="#hxn4d"/></g></g></svg>