<svg xmlns="http://www.w3.org/2000/svg" width="48" height="60" viewBox="6 0 48 60"><path d="M27.125.77c-6.98.835-13.379 4.937-17.133 10.976-2.527 4.078-3.812 9.246-3.433 13.848.425 5.12 2.367 10.023 6.246 15.8 3.836 5.696 9.633 11.864 16.12 17.145l1.06.86 1.183-.965c5.039-4.075 10.035-9.118 13.7-13.825 4.57-5.879 7.448-11.757 8.312-16.925.332-1.997.402-3.696.254-5.454-.657-7.27-4.368-13.597-10.348-17.648C38.48 1.469 32.726.09 27.125.77zm4.02 11.644c1.433.149 2.57.469 3.89 1.09 1.403.664 2.274 1.309 3.399 2.48 1.472 1.54 2.273 2.938 2.882 4.985.426 1.468.52 3.89.184 5.453-.746 3.629-2.973 6.512-6.281 8.152-1.746.86-2.86 1.149-4.82 1.23-1.243.044-1.7.012-2.7-.195-4.48-.918-7.867-4.113-9.094-8.59-.207-.734-.253-1.218-.253-2.894-.012-2.387.171-3.262 1.078-5.11.644-1.331 1.195-2.1 2.273-3.203 2.082-2.113 4.938-3.351 8.063-3.503.16 0 .78.046 1.379.105zm0 0"/></svg>