<?xml version="1.0" encoding="iso-8859-1"?>
<!-- Generator: Adobe Illustrator 19.0.0, SVG Export Plug-In . SVG Version: 6.00 Build 0)  -->
<svg version="1.1" id="Capa_1" xmlns="http://www.w3.org/2000/svg" xmlns:xlink="http://www.w3.org/1999/xlink" x="0px" y="0px"
	 viewBox="0 0 462.961 462.961" style="enable-background:new 0 0 462.961 462.961;" xml:space="preserve">
<path d="M444.219,312.465l-46.329-86.867c-11.06-20.736-32.529-33.618-56.029-33.618h-110.9v-8.5c0-8.547-6.953-15.5-15.5-15.5h-48
	c-8.547,0-15.5,6.953-15.5,15.5v8.5h-19.288c-2.692,0-5.165-1.232-6.786-3.381s-2.126-4.866-1.387-7.454l6.857-24
	c1.037-3.63,4.398-6.165,8.173-6.165h171.931c12.958,0,23.5-10.542,23.5-23.5s-10.542-23.5-23.5-23.5H105.64
	c-23.638,0-44.715,15.008-52.447,37.346l-51.65,149.21c-2.943,8.502-1.638,17.583,3.581,24.912
	c4.847,6.806,12.226,10.911,20.461,11.463c-1.045,2.657-1.625,5.546-1.625,8.569c0,12.958,10.542,23.5,23.5,23.5h392
	c12.958,0,23.5-10.542,23.5-23.5C462.961,324.152,454.904,314.671,444.219,312.465z M166.961,183.48c0-0.276,0.224-0.5,0.5-0.5h48
	c0.276,0,0.5,0.224,0.5,0.5v8.5h-49V183.48z M17.343,306.748c-2.368-3.326-2.96-7.447-1.625-11.305l51.65-149.21
	c5.642-16.3,21.022-27.252,38.272-27.252h205.821c4.687,0,8.5,3.813,8.5,8.5s-3.813,8.5-8.5,8.5H139.53
	c-10.437,0-19.729,7.009-22.596,17.044l-6.857,24c-2.044,7.155-0.646,14.667,3.835,20.607s11.32,9.348,18.761,9.348h209.188
	c17.949,0,34.347,9.839,42.794,25.676l42.306,79.324h-19.68l-37.626-71.324c-5.486-10.286-16.136-16.676-27.794-16.676H124.512
	c-13.869,0-25.956,8.897-30.077,22.14L73.94,311.98H27.494C23.411,311.98,19.711,310.073,17.343,306.748z M390.321,311.98H89.649
	l19.108-61.403c2.159-6.937,8.49-11.597,15.755-11.597h217.349c6.106,0,11.685,3.347,14.542,8.705L390.321,311.98z M439.461,343.98
	h-392c-4.687,0-8.5-3.813-8.5-8.5s3.813-8.5,8.5-8.5h391.984c0.007,0,0.015,0.001,0.022,0.001c0.003,0,0.007-0.001,0.01-0.001
	c4.679,0.009,8.483,3.818,8.483,8.499C447.961,340.167,444.148,343.98,439.461,343.98z"/>
<g>
</g>
<g>
</g>
<g>
</g>
<g>
</g>
<g>
</g>
<g>
</g>
<g>
</g>
<g>
</g>
<g>
</g>
<g>
</g>
<g>
</g>
<g>
</g>
<g>
</g>
<g>
</g>
<g>
</g>
</svg>
