<?xml version="1.0" encoding="iso-8859-1"?>
<!-- Generator: Adobe Illustrator 19.0.0, SVG Export Plug-In . SVG Version: 6.00 Build 0)  -->
<svg version="1.1" id="Capa_1" xmlns="http://www.w3.org/2000/svg" xmlns:xlink="http://www.w3.org/1999/xlink" x="0px" y="0px"
	 viewBox="0 0 463 463" style="enable-background:new 0 0 463 463;" xml:space="preserve">
<path d="M447.5,184h-16c-8.547,0-15.5,6.953-15.5,15.5v8.954l-25,1.563V55h40.5c12.958,0,23.5-10.542,23.5-23.5V15h0.5
	c4.142,0,7.5-3.358,7.5-7.5S459.642,0,455.5,0h-288c-4.142,0-7.5,3.358-7.5,7.5s3.358,7.5,7.5,7.5h0.5v16.5
	c0,12.958,10.542,23.5,23.5,23.5H328v158.954l-23.008,1.438c-10.863-15.257-23.071-30.489-36.8-45.373
	c-5.874-6.368-14.299-10.02-23.118-10.02H23.5C10.542,160,0,170.542,0,183.5v232C0,428.458,10.542,439,23.5,439H24v8.5
	c0,8.547,6.953,15.5,15.5,15.5h27.719c5.194,0,10.015-2.58,12.896-6.902L91.514,439h207.973l11.398,17.098
	c2.881,4.322,7.703,6.902,12.896,6.902H351.5c8.547,0,15.5-6.953,15.5-15.5v-8.594c6.233-0.53,11.998-3.496,16.047-8.335
	c4.458-5.328,6.313-12.305,5.087-19.14c-4.047-22.586-13.755-64.417-35.554-112.848l63.42,3.964v8.954c0,8.547,6.953,15.5,15.5,15.5
	h16c8.547,0,15.5-6.953,15.5-15.5v-112C463,190.953,456.047,184,447.5,184z M431,231h17v17h-17V231z M431,263h17v17h-17V263z
	 M431,199.5c0-0.276,0.224-0.5,0.5-0.5h16c0.276,0,0.5,0.224,0.5,0.5V216h-17v-0.5V199.5z M183,31.5V15h257v16.5
	c0,4.687-3.813,8.5-8.5,8.5h-48h-48h-144C186.813,40,183,36.187,183,31.5z M343,55h33v155.954l-33,2.063V55z M15,415.5v-232
	c0-4.687,3.813-8.5,8.5-8.5h188.932c95.591,93.764,121.136,203.065,130.02,249h-38.906c-0.005,0-0.01,0-0.015,0H87.472
	c-0.007,0-0.014,0-0.021,0H23.5C18.813,424,15,420.187,15,415.5z M67.635,447.777c-0.093,0.14-0.249,0.223-0.416,0.223H39.5
	c-0.276,0-0.5-0.224-0.5-0.5V439h34.486L67.635,447.777z M351.5,448h-27.719c-0.167,0-0.323-0.083-0.416-0.223L317.514,439h33.945
	c0.011,0,0.022,0.001,0.033,0.001c0.011,0,0.021-0.001,0.032-0.001H352v8.5C352,447.776,351.776,448,351.5,448z M371.543,420.945
	c-1.625,1.941-4.015,3.055-6.559,3.055h-7.258c-8.302-43.754-32.105-152.56-124.221-249h11.57c4.642,0,9.049,1.892,12.092,5.189
	c83.217,90.217,108.986,193.618,116.203,233.887C373.815,416.564,373.167,419.004,371.543,420.945z M345.291,283.097
	c-8.504-17.303-18.559-35.244-30.434-53.292L416,223.483v64.033L345.291,283.097z M447.5,312h-16c-0.276,0-0.5-0.224-0.5-0.5v-16
	V295h17v16.5C448,311.776,447.776,312,447.5,312z"/>
<g>
</g>
<g>
</g>
<g>
</g>
<g>
</g>
<g>
</g>
<g>
</g>
<g>
</g>
<g>
</g>
<g>
</g>
<g>
</g>
<g>
</g>
<g>
</g>
<g>
</g>
<g>
</g>
<g>
</g>
</svg>
