<?xml version="1.0" encoding="iso-8859-1"?>
<!-- Generator: Adobe Illustrator 19.0.0, SVG Export Plug-In . SVG Version: 6.00 Build 0)  -->
<svg version="1.1" id="Capa_1" xmlns="http://www.w3.org/2000/svg" xmlns:xlink="http://www.w3.org/1999/xlink" x="0px" y="0px"
	 viewBox="0 0 463 463" style="enable-background:new 0 0 463 463;" xml:space="preserve">
<g>
	<path d="M439.5,88h-416C10.542,88,0,98.542,0,111.5v240C0,364.458,10.542,375,23.5,375h416c12.958,0,23.5-10.542,23.5-23.5v-240
		C463,98.542,452.458,88,439.5,88z M15,351.5v-240c0-4.687,3.813-8.5,8.5-8.5H352v257H23.5C18.813,360,15,356.187,15,351.5z
		 M448,351.5c0,4.687-3.813,8.5-8.5,8.5H367V103h72.5c4.687,0,8.5,3.813,8.5,8.5V351.5z"/>
	<path d="M327.5,128c-4.142,0-7.5,3.358-7.5,7.5v192c0,4.142,3.358,7.5,7.5,7.5s7.5-3.358,7.5-7.5v-192
		C335,131.358,331.642,128,327.5,128z"/>
	<path d="M295.5,128h-248c-4.142,0-7.5,3.358-7.5,7.5v192c0,4.142,3.358,7.5,7.5,7.5h248c4.142,0,7.5-3.358,7.5-7.5v-192
		C303,131.358,299.642,128,295.5,128z M288,320H55V143h233V320z"/>
	<path d="M407.5,280c-17.369,0-31.5,14.131-31.5,31.5s14.131,31.5,31.5,31.5s31.5-14.131,31.5-31.5S424.869,280,407.5,280z
		 M424,311.5c0,1.774-0.289,3.481-0.81,5.084l-20.774-20.774c1.603-0.521,3.309-0.81,5.084-0.81C416.598,295,424,302.402,424,311.5z
		 M391,311.5c0-1.774,0.289-3.481,0.81-5.084l20.774,20.774c-1.603,0.521-3.309,0.81-5.084,0.81C398.402,328,391,320.598,391,311.5z
		"/>
	<path d="M407.5,208c-17.369,0-31.5,14.131-31.5,31.5s14.131,31.5,31.5,31.5s31.5-14.131,31.5-31.5S424.869,208,407.5,208z
		 M424,239.5c0,1.774-0.289,3.48-0.81,5.083l-20.774-20.773c1.603-0.521,3.309-0.81,5.084-0.81C416.598,223,424,230.402,424,239.5z
		 M391,239.5c0-1.774,0.289-3.48,0.81-5.083l20.774,20.773c-1.603,0.521-3.309,0.81-5.084,0.81C398.402,256,391,248.598,391,239.5z"
		/>
	<path d="M391.5,191h32c4.142,0,7.5-3.358,7.5-7.5s-3.358-7.5-7.5-7.5h-32c-4.142,0-7.5,3.358-7.5,7.5S387.358,191,391.5,191z"/>
	<path d="M391.5,167h32c4.142,0,7.5-3.358,7.5-7.5s-3.358-7.5-7.5-7.5h-32c-4.142,0-7.5,3.358-7.5,7.5S387.358,167,391.5,167z"/>
	<path d="M391.5,143h32c4.142,0,7.5-3.358,7.5-7.5s-3.358-7.5-7.5-7.5h-32c-4.142,0-7.5,3.358-7.5,7.5S387.358,143,391.5,143z"/>
</g>
<g>
</g>
<g>
</g>
<g>
</g>
<g>
</g>
<g>
</g>
<g>
</g>
<g>
</g>
<g>
</g>
<g>
</g>
<g>
</g>
<g>
</g>
<g>
</g>
<g>
</g>
<g>
</g>
<g>
</g>
</svg>
