<?xml version="1.0" encoding="iso-8859-1"?>
<!-- Generator: Adobe Illustrator 19.0.0, SVG Export Plug-In . SVG Version: 6.00 Build 0)  -->
<svg version="1.1" id="Capa_1" xmlns="http://www.w3.org/2000/svg" xmlns:xlink="http://www.w3.org/1999/xlink" x="0px" y="0px"
	 viewBox="0 0 463 463" style="enable-background:new 0 0 463 463;" xml:space="preserve">
<g>
	<path d="M106.438,122c-7.444,0-13.5,6.056-13.5,13.5s6.056,13.5,13.5,13.5s13.5-6.056,13.5-13.5S113.882,122,106.438,122z"/>
	<path d="M450.438,192h-104.5v-17h32.5c12.958,0,23.5-10.542,23.5-23.5v-10.564c3.02-1.356,5.754-3.348,7.993-5.884
		c4.459-5.051,6.537-11.782,5.701-18.467l-11.124-88.992C402.541,11.862,389.104,0,373.251,0H47.625
		C31.772,0,18.334,11.862,16.368,27.593L5.244,116.585c-0.836,6.685,1.242,13.416,5.701,18.467S21.825,143,28.562,143h36.991
		L52.169,410.689l-19.983,9.688c-8.048,3.901-13.248,12.202-13.248,21.146V455.5c0,4.142,3.358,7.5,7.5,7.5h392
		c4.142,0,7.5-3.358,7.5-7.5v-16c0-17.369-14.131-31.5-31.5-31.5h-8.5v-17.395c35.913-3.761,64-34.212,64-71.105V207h0.5
		c4.142,0,7.5-3.358,7.5-7.5S454.58,192,450.438,192z M330.938,192h-104.5c-4.142,0-7.5,3.358-7.5,7.5s3.358,7.5,7.5,7.5h0.5v112.5
		c0,36.892,28.087,67.344,64,71.105v17.26c-74.3-3.079-134.483-62.205-138.23-137.145l-6.77-136.778V119.5
		c0-4.687,3.813-8.5,8.5-8.5h104c4.687,0,8.5,3.813,8.5,8.5c0,10.336,6.71,19.128,16,22.266v9.734c0,12.958,10.542,23.5,23.5,23.5
		h24.5V192z M378.438,160h-72c-4.687,0-8.5-3.813-8.5-8.5V143h89v8.5C386.938,156.187,383.125,160,378.438,160z M22.19,125.125
		c-1.636-1.854-2.369-4.226-2.062-6.679l11.124-88.992C32.282,21.214,39.321,15,47.625,15h325.626
		c8.304,0,15.343,6.214,16.373,14.454l11.124,88.992c0.307,2.454-0.426,4.826-2.062,6.679c-1.637,1.854-3.9,2.875-6.373,2.875
		H290.438c-4.687,0-8.5-3.813-8.5-8.5c0-12.958-10.542-23.5-23.5-23.5h-104c-12.958,0-23.5,10.542-23.5,23.5v14.625
		c0,13.264-9.694,24.579-22.069,25.759c-7.023,0.675-13.737-1.55-18.906-6.25c-5.1-4.637-8.025-11.247-8.025-18.134
		c0-4.142-3.358-7.5-7.5-7.5H28.562C26.09,128,23.826,126.979,22.19,125.125z M410.938,439.5v8.5h-377v-6.476
		c0-3.235,1.881-6.237,4.792-7.648l23.98-11.627c2.465-1.195,4.082-3.638,4.219-6.374l12.575-251.492
		c0.124,0.116,0.244,0.235,0.369,0.35c7.285,6.623,16.828,10.263,26.649,10.263c1.253,0,2.513-0.06,3.771-0.179
		c8.445-0.805,16.11-4.469,22.155-10l5.279,106.649C141.975,356.438,211.948,423,297.027,423h97.41
		C403.536,423,410.938,430.402,410.938,439.5z M305.938,408v-17h65v17H305.938z M434.938,319.5c0,31.154-25.346,56.5-56.5,56.5h-80
		c-31.154,0-56.5-25.346-56.5-56.5V207h89v17h-8.5c-4.142,0-7.5,3.358-7.5,7.5s3.358,7.5,7.5,7.5h8.5v4.254l-36.359,21.815
		c-2.43,1.458-3.831,4.162-3.621,6.988c0.201,2.701,5.361,66.473,43.109,93.538c1.306,0.937,2.838,1.405,4.37,1.405
		s3.064-0.468,4.37-1.405c37.749-27.065,42.908-90.837,43.109-93.538c0.21-2.827-1.19-5.53-3.621-6.988l-36.359-21.815V239h8.5
		c4.142,0,7.5-3.358,7.5-7.5s-3.358-7.5-7.5-7.5h-8.5v-17h89V319.5z M330.938,341.939c-17.35-21.739-22.992-54.565-24.522-66.479
		l24.522-14.713V341.939z M345.938,260.747l24.531,14.719c-0.73,5.762-2.42,16.422-5.972,28.403
		c-3.469,11.702-9.275,26.356-18.56,38.034V260.747z"/>
	<path d="M170.438,79h64c4.142,0,7.5-3.358,7.5-7.5s-3.358-7.5-7.5-7.5h-64c-4.142,0-7.5,3.358-7.5,7.5S166.296,79,170.438,79z"/>
	<path d="M170.438,47h64c4.142,0,7.5-3.358,7.5-7.5s-3.358-7.5-7.5-7.5h-64c-4.142,0-7.5,3.358-7.5,7.5S166.296,47,170.438,47z"/>
	<path d="M55.469,100.323C62.535,106.938,72.018,111,82.438,111c21.78,0,39.5-17.72,39.5-39.5c0-10.348-4.005-19.775-10.54-26.825
		c-0.259-0.383-0.554-0.749-0.892-1.089c-0.343-0.345-0.713-0.646-1.101-0.91C102.34,36.062,92.856,32,82.438,32
		c-21.78,0-39.5,17.72-39.5,39.5c0,10.348,4.005,19.775,10.54,26.825c0.259,0.383,0.554,0.749,0.892,1.089
		C54.712,99.758,55.082,100.059,55.469,100.323z M82.438,96c-4.051,0-7.872-0.994-11.242-2.743l33.061-32.879
		c1.71,3.34,2.681,7.119,2.681,11.122C106.938,85.009,95.947,96,82.438,96z M82.438,47c4.051,0,7.872,0.994,11.242,2.743
		L60.619,82.622c-1.71-3.34-2.681-7.119-2.681-11.122C57.938,57.991,68.928,47,82.438,47z"/>
</g>
<g>
</g>
<g>
</g>
<g>
</g>
<g>
</g>
<g>
</g>
<g>
</g>
<g>
</g>
<g>
</g>
<g>
</g>
<g>
</g>
<g>
</g>
<g>
</g>
<g>
</g>
<g>
</g>
<g>
</g>
</svg>
