<?xml version="1.0" encoding="iso-8859-1"?>
<!-- Generator: Adobe Illustrator 19.0.0, SVG Export Plug-In . SVG Version: 6.00 Build 0)  -->
<svg version="1.1" id="Capa_1" xmlns="http://www.w3.org/2000/svg" xmlns:xlink="http://www.w3.org/1999/xlink" x="0px" y="0px"
	 viewBox="0 0 463 463" style="enable-background:new 0 0 463 463;" xml:space="preserve">
<g>
	<path d="M462.965,368.185c0.005-0.052,0.004-0.104,0.008-0.156c0.012-0.176,0.027-0.351,0.027-0.529
		c0-0.137-0.013-0.271-0.021-0.406c-0.002-0.048,0.004-0.095,0.001-0.142l-22.372-305.75C439.409,44.827,425.61,32,409.192,32H295
		v-8.5C295,10.542,284.458,0,271.5,0h-80C178.542,0,168,10.542,168,23.5V32H53.808C37.39,32,23.591,44.827,22.392,61.201
		L0.02,366.952c-0.003,0.047,0.004,0.095,0.001,0.142C0.013,367.229,0,367.363,0,367.5c0,0.179,0.014,0.354,0.027,0.529
		c0.004,0.052,0.003,0.104,0.008,0.156c0.032,0.358,0.094,0.707,0.175,1.049c0.007,0.027,0.007,0.056,0.014,0.083l12.97,51.882
		c2.621,10.48,11.996,17.8,22.799,17.8H40v8.5c0,8.547,6.953,15.5,15.5,15.5h16c8.547,0,15.5-6.953,15.5-15.5V439h289v8.5
		c0,8.547,6.953,15.5,15.5,15.5h16c8.547,0,15.5-6.953,15.5-15.5V439h4.008c10.803,0,20.178-7.32,22.799-17.801l12.97-51.881
		c0.007-0.027,0.007-0.056,0.014-0.083C462.871,368.893,462.933,368.544,462.965,368.185z M447.432,360H375V111h54.211L447.432,360z
		 M103,360V111h49v8.5c0,12.958,10.542,23.5,23.5,23.5h112c12.958,0,23.5-10.542,23.5-23.5V111h49v249H103z M296,111v8.5
		c0,4.687-3.813,8.5-8.5,8.5h-112c-4.687,0-8.5-3.813-8.5-8.5V111H296z M183,23.5c0-4.687,3.813-8.5,8.5-8.5h80
		c4.687,0,8.5,3.813,8.5,8.5V32h-97V23.5z M53.808,47h355.385c8.6,0,15.828,6.719,16.455,15.296L428.114,96H34.886l2.466-33.704
		C37.979,53.719,45.208,47,53.808,47z M33.789,111H88v249H15.568L33.789,111z M72,447.5c0,0.276-0.225,0.5-0.5,0.5h-16
		c-0.275,0-0.5-0.224-0.5-0.5V439h17V447.5z M408,447.5c0,0.276-0.225,0.5-0.5,0.5h-16c-0.275,0-0.5-0.224-0.5-0.5V439h17V447.5z
		 M435.254,417.561c-0.947,3.791-4.339,6.439-8.246,6.439H35.992c-3.907,0-7.299-2.648-8.246-6.438L17.106,375h428.789
		L435.254,417.561z"/>
	<path d="M231.5,248c-26.191,0-47.5,21.309-47.5,47.5s21.309,47.5,47.5,47.5s47.5-21.309,47.5-47.5S257.691,248,231.5,248z
		 M264,295.5c0,6.259-1.783,12.108-4.861,17.073l-44.661-44.743C219.431,264.77,225.262,263,231.5,263
		C249.421,263,264,277.58,264,295.5z M199,295.5c0-6.259,1.783-12.108,4.861-17.073l44.661,44.743
		C243.569,326.23,237.738,328,231.5,328C213.579,328,199,313.42,199,295.5z"/>
	<path d="M143.5,296c-12.958,0-23.5,10.542-23.5,23.5s10.542,23.5,23.5,23.5s23.5-10.542,23.5-23.5S156.458,296,143.5,296z
		 M143.5,328c-4.687,0-8.5-3.813-8.5-8.5s3.813-8.5,8.5-8.5s8.5,3.813,8.5,8.5S148.187,328,143.5,328z"/>
	<path d="M143.5,232c-12.958,0-23.5,10.542-23.5,23.5s10.542,23.5,23.5,23.5s23.5-10.542,23.5-23.5S156.458,232,143.5,232z
		 M143.5,264c-4.687,0-8.5-3.813-8.5-8.5s3.813-8.5,8.5-8.5s8.5,3.813,8.5,8.5S148.187,264,143.5,264z"/>
	<path d="M143.5,168c-12.958,0-23.5,10.542-23.5,23.5s10.542,23.5,23.5,23.5s23.5-10.542,23.5-23.5S156.458,168,143.5,168z
		 M143.5,200c-4.687,0-8.5-3.813-8.5-8.5s3.813-8.5,8.5-8.5s8.5,3.813,8.5,8.5S148.187,200,143.5,200z"/>
	<path d="M319.5,296c-12.958,0-23.5,10.542-23.5,23.5s10.542,23.5,23.5,23.5s23.5-10.542,23.5-23.5S332.458,296,319.5,296z
		 M319.5,328c-4.687,0-8.5-3.813-8.5-8.5s3.813-8.5,8.5-8.5s8.5,3.813,8.5,8.5S324.187,328,319.5,328z"/>
	<path d="M319.5,232c-12.958,0-23.5,10.542-23.5,23.5s10.542,23.5,23.5,23.5s23.5-10.542,23.5-23.5S332.458,232,319.5,232z
		 M319.5,264c-4.687,0-8.5-3.813-8.5-8.5s3.813-8.5,8.5-8.5s8.5,3.813,8.5,8.5S324.187,264,319.5,264z"/>
	<path d="M319.5,215c12.958,0,23.5-10.542,23.5-23.5S332.458,168,319.5,168S296,178.542,296,191.5S306.542,215,319.5,215z
		 M319.5,183c4.687,0,8.5,3.813,8.5,8.5s-3.813,8.5-8.5,8.5s-8.5-3.813-8.5-8.5S314.813,183,319.5,183z"/>
	<path d="M263.5,160h-64c-8.547,0-15.5,6.953-15.5,15.5v32c0,8.547,6.953,15.5,15.5,15.5h64c8.547,0,15.5-6.953,15.5-15.5v-32
		C279,166.953,272.047,160,263.5,160z M264,207.5c0,0.276-0.225,0.5-0.5,0.5h-64c-0.275,0-0.5-0.224-0.5-0.5v-32
		c0-0.276,0.225-0.5,0.5-0.5h64c0.275,0,0.5,0.224,0.5,0.5V207.5z"/>
</g>
<g>
</g>
<g>
</g>
<g>
</g>
<g>
</g>
<g>
</g>
<g>
</g>
<g>
</g>
<g>
</g>
<g>
</g>
<g>
</g>
<g>
</g>
<g>
</g>
<g>
</g>
<g>
</g>
<g>
</g>
</svg>
