<?xml version="1.0" encoding="iso-8859-1"?>
<!-- Generator: Adobe Illustrator 18.0.0, SVG Export Plug-In . SVG Version: 6.00 Build 0)  -->
<!DOCTYPE svg PUBLIC "-//W3C//DTD SVG 1.1//EN" "http://www.w3.org/Graphics/SVG/1.1/DTD/svg11.dtd">
<svg version="1.1" id="Capa_1" xmlns="http://www.w3.org/2000/svg" xmlns:xlink="http://www.w3.org/1999/xlink" x="0px" y="0px"
	 viewBox="0 0 297 297" style="enable-background:new 0 0 297 297;" xml:space="preserve">
<path d="M34.632,203.561c0,22.814,18.492,41.385,41.273,41.516c-9.063,4.464-15.314,13.794-15.314,24.561
	C60.591,284.726,72.864,297,87.95,297s27.361-12.274,27.361-27.362c0-10.762-6.248-20.089-15.303-24.555h105.641
	c-9.055,4.466-15.301,13.793-15.301,24.555c0,15.088,12.274,27.362,27.359,27.362c15.086,0,27.359-12.274,27.359-27.362
	c0-10.762-6.246-20.089-15.301-24.555h22.545c5.555,0,10.057-4.503,10.057-10.058c0-5.554-4.502-10.057-10.057-10.057H76.145
	c-11.799,0-21.4-9.604-21.4-21.407v-16.349c6.254,3.777,13.578,5.955,21.4,5.955h141.563c21.895,0,43.756-16.493,49.768-37.547
	l25.965-90.885c0.867-3.034,0.26-6.299-1.641-8.819c-1.9-2.52-4.875-4-8.029-4H54.745V41.523C54.745,18.627,36.122,0,13.229,0
	C7.675,0,3.173,4.504,3.173,10.058s4.502,10.057,10.057,10.057c11.801,0,21.402,9.604,21.402,21.409V203.561z"/>
<g>
</g>
<g>
</g>
<g>
</g>
<g>
</g>
<g>
</g>
<g>
</g>
<g>
</g>
<g>
</g>
<g>
</g>
<g>
</g>
<g>
</g>
<g>
</g>
<g>
</g>
<g>
</g>
<g>
</g>
</svg>
