<?xml version="1.0" encoding="iso-8859-1"?>
<!-- Generator: Adobe Illustrator 19.0.0, SVG Export Plug-In . SVG Version: 6.00 Build 0)  -->
<svg version="1.1" id="Capa_1" xmlns="http://www.w3.org/2000/svg" xmlns:xlink="http://www.w3.org/1999/xlink" x="0px" y="0px"
	 viewBox="0 0 463 463" style="enable-background:new 0 0 463 463;" xml:space="preserve">
<g>
	<path d="M159.5,336c-26.191,0-47.5,21.309-47.5,47.5s21.309,47.5,47.5,47.5s47.5-21.309,47.5-47.5S185.691,336,159.5,336z
		 M159.5,416c-17.92,0-32.5-14.58-32.5-32.5s14.58-32.5,32.5-32.5s32.5,14.58,32.5,32.5S177.42,416,159.5,416z"/>
	<path d="M423.5,408H415v-8.5c0-8.547-6.953-15.5-15.5-15.5H399V271.5C399,121.794,277.206,0,127.5,0h-13.52
		C51.131,0,0,51.151,0,114.023c0,30.447,11.856,59.069,33.384,80.592l15.177,15.177C33.094,231.808,24,258.61,24,287.5v136
		c0,12.958,10.542,23.5,23.5,23.5h64.228c13.309,10.038,29.856,16,47.772,16c43.836,0,79.5-35.664,79.5-79.5
		c0-17.916-5.962-34.463-16-47.772V175.5c0-12.958-10.542-23.5-23.5-23.5h-40c-28.89,0-55.692,9.094-77.708,24.561l-15.177-15.177
		C53.966,148.735,47,131.9,47,113.98C47,77.047,77.047,47,113.98,47h13.52C251.29,47,352,147.71,352,271.5V384h-0.5
		c-8.547,0-15.5,6.953-15.5,15.5v9.734c-9.29,3.138-16,11.93-16,22.266v24c0,4.142,3.358,7.5,7.5,7.5h128c4.142,0,7.5-3.358,7.5-7.5
		v-8C463,425.72,445.28,408,423.5,408z M152,167.24v9.451c0,4.219-3.264,7.776-7.762,8.458c-10.211,1.548-20.182,4.654-29.635,9.229
		c-20.955,10.143-38.081,27.27-48.225,48.224C59.492,256.832,56,271.937,56,287.5v72c0,4.687-3.813,8.5-8.5,8.5H39v-80.5
		C39,223.576,89.037,171.127,152,167.24z M39,423.5V415h47.522c2.644,6.101,6.035,11.802,10.05,17H47.5
		C42.813,432,39,428.187,39,423.5z M159.5,448c-35.565,0-64.5-28.935-64.5-64.5s28.935-64.5,64.5-64.5s64.5,28.935,64.5,64.5
		S195.065,448,159.5,448z M208,175.5v145.072C194.567,310.195,177.748,304,159.5,304c-43.836,0-79.5,35.664-79.5,79.5
		c0,5.657,0.604,11.174,1.733,16.5H39v-17h8.5c12.958,0,23.5-10.542,23.5-23.5v-72c0-13.281,2.988-26.188,8.88-38.362
		c8.678-17.928,23.331-32.58,41.258-41.258c8.098-3.919,16.626-6.578,25.349-7.901C158.373,198.178,167,188.383,167,176.691V167
		h32.5C204.187,167,208,170.813,208,175.5z M113.98,32C68.776,32,32,68.776,32,113.98c0,21.926,8.527,42.528,24.009,58.01
		l13.925,13.925c-4.251,3.753-8.266,7.767-12.019,12.019L43.99,184.009C25.295,165.318,15,140.463,15,114.023
		C15,59.422,59.402,15,113.98,15h13.52c63.961,0,122.526,23.535,167.498,62.396l-12.057,12.057C241.076,53.654,186.773,32,127.5,32
		H113.98z M294.044,99.563l12.015-12.015c4.532,4.4,8.901,8.966,13.1,13.687l-12.036,12.036
		C302.943,108.531,298.581,103.958,294.044,99.563z M316.73,124.869c0.024-0.023,0.05-0.043,0.073-0.066l12.039-12.039
		C363.366,156.462,384,211.615,384,271.5V384h-17V271.5C367,216.304,348.221,165.416,316.73,124.869z M351.5,399h48
		c0.276,0,0.5,0.224,0.5,0.5v8.5h-49v-8.5C351,399.224,351.224,399,351.5,399z M448,448H335v-16.5c0-4.687,3.813-8.5,8.5-8.5h80
		c13.509,0,24.5,10.991,24.5,24.5V448z"/>
</g>
<g>
</g>
<g>
</g>
<g>
</g>
<g>
</g>
<g>
</g>
<g>
</g>
<g>
</g>
<g>
</g>
<g>
</g>
<g>
</g>
<g>
</g>
<g>
</g>
<g>
</g>
<g>
</g>
<g>
</g>
</svg>
