<svg id="инстаграм" xmlns="http://www.w3.org/2000/svg" width="52" height="52" viewBox="0 0 52 52">
  <defs>
    <style>
      .cls-1 {
        fill: #e4405f;
      }

      .cls-2 {
        fill: #fff;
        fill-rule: evenodd;
      }
    </style>
  </defs>
  <circle id="Прямоугольник_1_копия_7" data-name="Прямоугольник 1 копия 7" class="cls-1" cx="26" cy="26" r="26"/>
  <path class="cls-2" d="M1008,302c-4.35,0-4.89.018-6.6,0.1a11.737,11.737,0,0,0-3.881.744,8.176,8.176,0,0,0-4.679,4.679,11.741,11.741,0,0,0-.744,3.884c-0.078,1.707-.1,2.252-0.1,6.6s0.018,4.89.1,6.6a11.741,11.741,0,0,0,.744,3.884,8.176,8.176,0,0,0,4.679,4.679,11.737,11.737,0,0,0,3.881.744c1.71,0.078,2.25.1,6.6,0.1s4.89-.018,6.6-0.1a11.742,11.742,0,0,0,3.88-.744,7.774,7.774,0,0,0,2.83-1.845,7.87,7.87,0,0,0,1.85-2.834,11.452,11.452,0,0,0,.74-3.884c0.08-1.707.1-2.252,0.1-6.6s-0.02-4.89-.1-6.6a11.452,11.452,0,0,0-.74-3.884,7.87,7.87,0,0,0-1.85-2.834,7.774,7.774,0,0,0-2.83-1.845,11.742,11.742,0,0,0-3.88-.744C1012.89,302.018,1012.35,302,1008,302Zm0,2.883c4.27,0,4.78.016,6.47,0.093a8.88,8.88,0,0,1,2.97.551,5.011,5.011,0,0,1,1.84,1.2,4.937,4.937,0,0,1,1.19,1.84,8.807,8.807,0,0,1,.55,2.971c0.08,1.687.1,2.193,0.1,6.465s-0.02,4.778-.1,6.465a8.8,8.8,0,0,1-.55,2.971,4.937,4.937,0,0,1-1.19,1.84,5.011,5.011,0,0,1-1.84,1.2,8.88,8.88,0,0,1-2.97.551c-1.69.077-2.2,0.093-6.47,0.093s-4.78-.016-6.47-0.093a8.838,8.838,0,0,1-2.966-.551,5.3,5.3,0,0,1-3.037-3.037,8.846,8.846,0,0,1-.551-2.971c-0.077-1.687-.093-2.193-0.093-6.465s0.016-4.778.093-6.465a8.852,8.852,0,0,1,.551-2.971,5.3,5.3,0,0,1,3.037-3.037,8.838,8.838,0,0,1,2.966-.551C1003.22,304.9,1003.73,304.883,1008,304.883Zm0,4.9a8.216,8.216,0,1,0,8.22,8.216A8.214,8.214,0,0,0,1008,309.784Zm0,13.549a5.333,5.333,0,1,1,5.33-5.333A5.327,5.327,0,0,1,1008,323.333Zm10.46-13.874a1.92,1.92,0,1,1-1.92-1.92A1.92,1.92,0,0,1,1018.46,309.459Z" transform="translate(-982 -292)"/>
</svg>

