<svg xmlns="http://www.w3.org/2000/svg" xmlns:xlink="http://www.w3.org/1999/xlink" width="320" height="352" viewBox="0 0 320 352"><defs><path id="v18da" d="M1152 348a4 4 0 0 0 4 4h40a4 4 0 1 0 0-8h-40a4 4 0 0 0-4 4zm-228 4a4 4 0 1 0 0-8 4 4 0 0 0 0 8zm-24-28h320v40a8 8 0 0 1-8 8H908a8 8 0 0 1-8-8zm274 52h12v84h-12zm-16 0h12v100h-12zm-16 0h12v80h-12zm-16 0h12v100h-12zm-16 0h12v88h-12zm-16 0h12v96h-12zm-16 0h12v100h-12zm-16 0h12v84h-12zm-16 0h12v100h-12zm-16 0h12v80h-12zm-16 0h12v100h-12zm-16 0h12v96h-12zm-16 0h12v88h-12zm-16 0h12v94h-12zm-16 0h12v100h-12zm-16 0h12v84h-12zm-2-220c0-17.673 14.327-32 32-32 17.673 0 32 14.327 32 32l192-32v164h16c8.837 0 16 7.163 16 16v16H900v-16c0-8.837 7.163-16 16-16h16zm256 144H932v-6h-5l-5 10h276l-5-10h-5z"/></defs><g><g transform="translate(-900 -124)"><use fill="#262728" xlink:href="#v18da"/></g><g transform="translate(-843 -142)"><g><text fill="#fff" style="line-height:60px" dominant-baseline="text-before-edge" font-family="'Prompt','Prompt'" font-weight="800" font-size="72" transform="translate(932 198)"><tspan>404</tspan></text></g></g></g></svg>