<svg xmlns="http://www.w3.org/2000/svg" xmlns:xlink="http://www.w3.org/1999/xlink" width="96" height="96" viewBox="0 0 96 96"><defs><path id="9j26a" d="M280.357 1027.27c4.065-4.152 7.577-9.177 10.373-14.855 4.256 1.134 8.274 2.644 11.983 4.475a47.82 47.82 0 0 1-22.356 10.38zm0-94.55a47.82 47.82 0 0 1 22.356 10.381c-3.709 1.83-7.727 3.34-11.983 4.475-2.796-5.678-6.308-10.703-10.373-14.856zm12.047 18.551c4.801-1.328 9.32-3.112 13.466-5.285 8.288 8.251 13.576 19.512 14.088 32.004h-21.984c-.242-9.646-2.23-18.73-5.57-26.719zm13.466 62.734c-4.146-2.173-8.665-3.957-13.466-5.286 3.34-7.988 5.328-17.072 5.57-26.718h21.984c-.512 12.492-5.8 23.752-14.088 32.004zm-64.585 2.885c3.71-1.831 7.727-3.34 11.984-4.475 2.795 5.678 6.307 10.703 10.372 14.855a47.82 47.82 0 0 1-22.356-10.38zm45.445-5.417c-3.34 6.526-7.685 12.059-12.73 16.208v-17.651c4.393.116 8.655.611 12.73 1.443zm-29.462 0a73.29 73.29 0 0 1 12.731-1.443v17.65c-5.046-4.148-9.392-9.681-12.731-16.207zm-1.746-59.23A77.053 77.053 0 0 0 270 953.973v24.018h-19.974c.247-9.359 2.219-18.118 5.497-25.746zm0 55.504c-3.278-7.628-5.25-16.388-5.497-25.746H270v24.018c-5.001.125-9.852.72-14.477 1.728zM274 953.972a77.053 77.053 0 0 0 14.477-1.728c3.278 7.628 5.25 16.387 5.497 25.746h-19.974zm14.477 53.775a77.053 77.053 0 0 0-14.477-1.728V982h19.974c-.247 9.358-2.219 18.118-5.497 25.746zm-31.208-59.23c3.34-6.525 7.685-12.058 12.731-16.207v17.65a73.292 73.292 0 0 1-12.731-1.443zm29.462 0a73.29 73.29 0 0 1-12.73 1.444V932.31c5.045 4.149 9.39 9.682 12.73 16.207zm-23.089-15.797c-4.065 4.153-7.577 9.178-10.372 14.856-4.257-1.134-8.275-2.644-11.984-4.475a47.82 47.82 0 0 1 22.356-10.38zm-12.047 76c-4.801 1.328-9.32 3.112-13.466 5.285-8.287-8.252-13.576-19.512-14.088-32.004h21.984c.242 9.646 2.23 18.73 5.57 26.718zm-13.466-62.734c4.146 2.173 8.665 3.957 13.466 5.285-3.34 7.989-5.328 17.073-5.57 26.72H224.04c.512-12.493 5.8-23.754 14.088-32.005z"/></defs><g><g transform="translate(-224 -932)"><use xlink:href="#9j26a"/></g></g></svg>