<svg id="ic_work_48px" xmlns="http://www.w3.org/2000/svg" xmlns:xlink="http://www.w3.org/1999/xlink" viewBox="0 0 44 42" width="44" height="42">
    <defs>
        <style>
            .bags-cl1 {
            fill: url(#linear-gradient);
            }
        </style>
        <linearGradient id="linear-gradient" x2="1" y2="1" gradientUnits="objectBoundingBox">
            <stop offset="0" stop-color="#fff"/>
            <stop offset="1" stop-color="#e1d2f8"/>
        </linearGradient>
    </defs>
    <path id="bagsShape" class="bags-cl1" d="M39.6,41.8H4.4A4.4,4.4,0,0,1,0,37.4L.022,13.2A4.386,4.386,0,0,1,1.3,10.089,4.339,4.339,0,0,1,4.4,8.8h8.8V4.4A4.405,4.405,0,0,1,17.6,0h8.8a4.405,4.405,0,0,1,4.4,4.4V8.8h8.8A4.405,4.405,0,0,1,44,13.2V37.4A4.4,4.4,0,0,1,39.6,41.8ZM17.6,4.4V8.8h8.8V4.4Z"/>
</svg>
