<svg xmlns="http://www.w3.org/2000/svg" xmlns:xlink="http://www.w3.org/1999/xlink" width="26" height="25" viewBox="0 0 26 25"><defs><path id="jy7ua" d="M273.6 113.263h-5.2v-2.631h5.2zm7.8 0h-5.2v-2.631c0-1.454-1.163-2.632-2.6-2.632h-5.2c-1.437 0-2.6 1.178-2.6 2.632v2.631h-5.2c-1.437 0-2.587 1.178-2.587 2.632L258 130.368c0 1.454 1.163 2.632 2.6 2.632h20.8c1.437 0 2.6-1.178 2.6-2.632v-14.473c0-1.454-1.163-2.632-2.6-2.632z"/><linearGradient id="jy7ub" x1="258" x2="284" y1="108" y2="133" gradientUnits="userSpaceOnUse"><stop offset="0" stop-color="#fff"/><stop offset="1" stop-color="#e1d2f8"/></linearGradient></defs><g><g transform="translate(-258 -108)"><use fill="url(#jy7ub)" xlink:href="#jy7ua"/></g></g></svg>