<svg xmlns="http://www.w3.org/2000/svg" xmlns:xlink="http://www.w3.org/1999/xlink" width="44" height="39" viewBox="0 0 44 39"><defs><path id="y3woa" d="M330.889 534.667l3.667-11h26.888l3.667 11zm30.555 12.222a3.662 3.662 0 0 1-3.666-3.667 3.662 3.662 0 0 1 3.666-3.666 3.662 3.662 0 0 1 3.667 3.666 3.662 3.662 0 0 1-3.667 3.667zm-26.888 0a3.662 3.662 0 0 1-3.667-3.667 3.662 3.662 0 0 1 3.667-3.666 3.662 3.662 0 0 1 3.666 3.666 3.662 3.662 0 0 1-3.666 3.667zm30.36-24.42a3.676 3.676 0 0 0-3.472-2.469h-26.888a3.676 3.676 0 0 0-3.472 2.469L326 537.11v19.556c0 1.344 1.1 2.444 2.444 2.444h2.445c1.357 0 2.444-1.1 2.444-2.444v-2.445h29.334v2.445c0 1.344 1.1 2.444 2.444 2.444h2.445c1.356 0 2.444-1.1 2.444-2.444V537.11z"/><linearGradient id="y3wob" x1="326" x2="370" y1="520" y2="559.11" gradientUnits="userSpaceOnUse"><stop offset="0" stop-color="#fff"/><stop offset="1" stop-color="#e1d2f8"/></linearGradient></defs><g><g transform="translate(-326 -520)"><use fill="url(#y3wob)" xlink:href="#y3woa"/></g></g></svg>