<svg xmlns="http://www.w3.org/2000/svg" xmlns:xlink="http://www.w3.org/1999/xlink" width="44" height="47" viewBox="0 0 44 47"><defs><path id="62kwa" d="M738.21 558.775c0-1.95-1.551-3.525-3.473-3.525s-3.474 1.575-3.474 3.525 1.552 3.525 3.474 3.525c1.922 0 3.474-1.575 3.474-3.525zm-20.842 0c0-1.95-1.551-3.525-3.473-3.525s-3.474 1.575-3.474 3.525 1.552 3.525 3.474 3.525c1.922 0 3.473-1.575 3.473-3.525zm25.474 0c0 4.547-3.624 8.225-8.105 8.225-4.088 0-7.445-3.067-8.013-7.05h-4.817c-.567 3.983-3.925 7.05-8.012 7.05-4.481 0-8.106-3.678-8.106-8.225a8.245 8.245 0 0 1 4.273-7.25c-.533-.81-4.91-10.375-4.91-10.375H700v-4.7h8.082l2.2 4.7H744c0 4.336-1.459 8.307-3.879 11.492a8.231 8.231 0 0 1 2.721 6.133zM744 538.8h-18.526V520c10.235 0 18.526 8.413 18.526 18.8z"/><linearGradient id="62kwb" x1="700" x2="744" y1="520" y2="567" gradientUnits="userSpaceOnUse"><stop offset="0" stop-color="#fff"/><stop offset="1" stop-color="#e1d2f8"/></linearGradient></defs><g><g transform="translate(-700 -520)"><use fill="url(#62kwb)" xlink:href="#62kwa"/></g></g></svg>