<svg xmlns="http://www.w3.org/2000/svg" xmlns:xlink="http://www.w3.org/1999/xlink" width="42" height="40" viewBox="0 0 42 40"><defs><path id="i066a" d="M540.678 538.368c3.284 1.54 7.926.452 11.35-2.972 4.125-4.125 4.911-10.016 1.756-13.17-3.166-3.156-9.068-2.37-13.182 1.754-3.424 3.425-4.501 8.067-2.972 11.351a48651.935 48651.935 0 0 0-21.032 21.022l3.047 3.047 14.819-14.818 14.818 14.818 3.048-3.047-14.818-14.819zm-14.614 3.92l6.095-6.099-15.109-15.116c-3.36 3.361-3.36 8.824 0 12.186l9.014 9.028z"/><linearGradient id="i066b" x1="514.53" x2="555.72" y1="520.29" y2="559.4" gradientUnits="userSpaceOnUse"><stop offset="0" stop-color="#fff"/><stop offset="1" stop-color="#e1d2f8"/></linearGradient></defs><g><g transform="translate(-514 -520)"><use fill="url(#i066b)" xlink:href="#i066a"/></g></g></svg>