<svg xmlns="http://www.w3.org/2000/svg" xmlns:xlink="http://www.w3.org/1999/xlink" width="45" height="44" viewBox="0 0 45 44"><defs><path id="fjw1a" d="M891.578 536.583a3.33 3.33 0 0 0 3.346-3.324 3.33 3.33 0 0 0-3.346-3.323 3.33 3.33 0 0 0-3.347 3.323 3.33 3.33 0 0 0 3.347 3.324zM931 532.532c0-8.576-6.994-15.532-15.617-15.532-8.623 0-15.618 6.956-15.618 15.532 0 7.688 5.623 14.056 13.007 15.3v8.73h-17.848v-6.656h2.231v-8.876a2.232 2.232 0 0 0-2.23-2.219h-6.694a2.232 2.232 0 0 0-2.231 2.22v8.875h2.231V561h35.697v-4.438h-6.693v-8.609c7.752-.91 13.765-7.466 13.765-15.421z"/><linearGradient id="fjw1b" x1="886" x2="931" y1="517" y2="561" gradientUnits="userSpaceOnUse"><stop offset="0" stop-color="#fff"/><stop offset="1" stop-color="#e1d2f8"/></linearGradient></defs><g><g transform="translate(-886 -517)"><use fill="url(#fjw1b)" xlink:href="#fjw1a"/></g></g></svg>