<svg xmlns="http://www.w3.org/2000/svg" xmlns:xlink="http://www.w3.org/1999/xlink" width="48" height="46" viewBox="0 0 48 46"><defs><path id="k6hta" d="M1107.444 557.338l3.091-3.087 3.922 3.916-3.091 3.088zM1120 540.636V545h-6.545v-4.364zm-10.91 2.182c0 7.233-5.857 13.091-13.09 13.091s-13.09-5.858-13.09-13.09c0-4.844 2.64-9.055 6.545-11.324V521h13.09v10.495c3.906 2.258 6.546 6.48 6.546 11.323zM1078.546 545H1072v-4.364h6.545zm15.273 15.273h4.364v6.436h-4.364zm-16.254-2.106l3.922-3.916 3.091 3.087-3.922 3.917z"/><linearGradient id="k6htb" x1="1072" x2="1120" y1="521" y2="566.71" gradientUnits="userSpaceOnUse"><stop offset="0" stop-color="#fff"/><stop offset="1" stop-color="#e1d2f8"/></linearGradient></defs><g><g transform="translate(-1072 -521)"><use fill="url(#k6htb)" xlink:href="#k6hta"/></g></g></svg>