<svg xmlns="http://www.w3.org/2000/svg" xmlns:xlink="http://www.w3.org/1999/xlink" viewBox="0 0 39 48" width="39" height="48"><defs><style>.a{fill:url(#a);}</style><linearGradient id="a" x2="1" y2="1" gradientUnits="objectBoundingBox"><stop offset="0" stop-color="#fff"/><stop offset="1" stop-color="#e1d2f8"/></linearGradient></defs><path class="a" d="M19.49,47.667h0L1.907,35.956A4.345,4.345,0,0,1,0,32.36L.022,4.334A4.319,4.319,0,0,1,1.28,1.269,4.273,4.273,0,0,1,4.334,0H34.667A4.338,4.338,0,0,1,39,4.334L38.978,32.36a4.345,4.345,0,0,1-1.906,3.6L19.49,47.666ZM7.4,18.6h0L4.334,21.667,15.167,32.5,34.667,13,31.6,9.934,15.167,26.368,7.4,18.6Z"/></svg>