<?xml version="1.0" encoding="UTF-8"?>
<svg xmlns="http://www.w3.org/2000/svg" xmlns:xlink="http://www.w3.org/1999/xlink" width="46pt" height="46pt" viewBox="0 0 46 46" version="1.1">
<g id="surface1">
<path style=" stroke:none;fill-rule:nonzero;fill:rgb(242, 235, 252);fill-opacity:1;" d="M 11.59375 0.542969 C 9.929688 0.730469 8.40625 1.570312 6.976562 3.070312 C 5.046875 5.09375 3.492188 8.398438 2.78125 11.976562 C 2.410156 13.789062 2.335938 14.585938 2.21875 17.734375 C 2.121094 20.492188 2.238281 27.074219 2.410156 27.96875 C 2.492188 28.417969 2.78125 28.761719 3.121094 28.84375 C 3.265625 28.871094 3.828125 28.769531 4.53125 28.574219 C 7.898438 27.652344 11.367188 27.074219 15.359375 26.785156 L 16.976562 26.65625 L 17.21875 26.386719 C 17.417969 26.171875 17.480469 25.972656 17.570312 25.265625 C 17.726562 24.136719 18.148438 22.523438 18.980469 19.902344 C 20.386719 15.460938 20.675781 13.960938 20.675781 11.054688 C 20.675781 8.21875 20.335938 6.386719 19.476562 4.640625 C 18.707031 3.070312 17.6875 2.03125 16.179688 1.300781 C 15.25 0.847656 14.546875 0.660156 13.335938 0.53125 C 12.398438 0.433594 12.460938 0.433594 11.59375 0.542969 Z M 11.59375 0.542969 "/>
<path style=" stroke:none;fill-rule:nonzero;fill:rgb(242, 235, 252);fill-opacity:1;" d="M 32.605469 0.535156 C 31.523438 0.640625 30.726562 0.859375 29.816406 1.300781 C 27.578125 2.386719 26.242188 4.316406 25.625 7.371094 C 25.335938 8.75 25.230469 10.738281 25.335938 12.382812 C 25.5 14.703125 25.796875 16.066406 27.0625 20.039062 C 27.839844 22.484375 28.261719 24.128906 28.417969 25.269531 C 28.515625 25.972656 28.578125 26.171875 28.777344 26.386719 C 29.023438 26.660156 29.023438 26.660156 30.59375 26.777344 C 34.691406 27.089844 38.089844 27.652344 41.476562 28.574219 C 42.765625 28.933594 43.019531 28.925781 43.34375 28.527344 C 43.632812 28.183594 43.660156 27.96875 43.769531 23.96875 C 43.886719 20.148438 43.785156 15.847656 43.542969 13.90625 C 42.695312 7.082031 39.261719 1.652344 35.191406 0.6875 C 34.402344 0.507812 33.492188 0.453125 32.605469 0.535156 Z M 32.605469 0.535156 "/>
<path style=" stroke:none;fill-rule:nonzero;fill:rgb(242, 235, 252);fill-opacity:1;" d="M 15.097656 32.058594 C 11.628906 32.328125 7.304688 33.152344 4.296875 34.117188 C 3.140625 34.488281 2.988281 34.648438 3.015625 35.488281 C 3.023438 35.832031 3.09375 36.589844 3.175781 37.167969 C 3.90625 42.550781 5.976562 45.144531 9.8125 45.503906 C 12.800781 45.785156 15.359375 44.386719 16.632812 41.757812 C 17.398438 40.175781 17.644531 38.707031 17.5 36.511719 C 17.445312 35.769531 17.382812 34.597656 17.34375 33.902344 C 17.316406 33.207031 17.246094 32.566406 17.199219 32.472656 C 17.082031 32.238281 16.578125 31.960938 16.316406 31.96875 C 16.1875 31.976562 15.648438 32.023438 15.097656 32.058594 Z M 15.097656 32.058594 "/>
<path style=" stroke:none;fill-rule:nonzero;fill:rgb(242, 235, 252);fill-opacity:1;" d="M 29.257812 32.085938 C 28.785156 32.292969 28.714844 32.511719 28.652344 33.855469 C 28.613281 34.523438 28.542969 35.707031 28.496094 36.484375 C 28.390625 38.117188 28.480469 39.21875 28.832031 40.4375 C 29.554688 42.914062 31.332031 44.730469 33.625 45.332031 C 34.519531 45.566406 36.183594 45.59375 37.175781 45.378906 C 39.882812 44.800781 41.601562 42.777344 42.457031 39.148438 C 42.71875 38.035156 43.082031 35.28125 42.992188 35.003906 C 42.875 34.605469 42.566406 34.398438 41.699219 34.117188 C 39.550781 33.429688 36.542969 32.761719 34.105469 32.417969 C 32.957031 32.265625 32.261719 32.195312 30.042969 32.003906 C 29.726562 31.976562 29.4375 32.011719 29.257812 32.085938 Z M 29.257812 32.085938 "/>
</g>
</svg>
