<svg xmlns="http://www.w3.org/2000/svg" xmlns:xlink="http://www.w3.org/1999/xlink" width="24" height="31" viewBox="0 0 24 31"><defs><path id="5hbra" d="M566 128.667h3v-7.556h-3zm0-13.59h3v-4.544h-3zm15 1.5h-18v-7.555h18zm0 16.623h-18v-13.638h18zm0-27.185L563 106c-1.657 0-3 1.352-3 3.022V133.2c0 1.67 1.343 3.022 3 3.022h18c1.657 0 3-1.352 3-3.022v-24.178a2.997 2.997 0 0 0-3-3.007z"/><linearGradient id="5hbrb" x1="560" x2="584" y1="106" y2="136.22" gradientUnits="userSpaceOnUse"><stop offset="0" stop-color="#fff"/><stop offset="1" stop-color="#e1d2f8"/></linearGradient></defs><g><g transform="translate(-560 -106)"><use fill="url(#5hbrb)" xlink:href="#5hbra"/></g></g></svg>