<svg xmlns="http://www.w3.org/2000/svg" xmlns:xlink="http://www.w3.org/1999/xlink" viewBox="0 0 34 42" width="34" height="42"><defs><style>.a{fill:url(#a);}</style><linearGradient id="a" x2="1" y2="1" gradientUnits="objectBoundingBox"><stop offset="0" stop-color="#fff"/><stop offset="1" stop-color="#e1d2f8"/></linearGradient></defs><path class="a" d="M29.75,42.5H4.25A4.255,4.255,0,0,1,0,38.25v-34A4.255,4.255,0,0,1,4.25,0l25.5.022a4.235,4.235,0,0,1,3.005,1.234A4.188,4.188,0,0,1,34,4.25v34A4.255,4.255,0,0,1,29.75,42.5ZM4.25,19.072V38.25h25.5V19.072Zm0-14.822V14.875h25.5V4.25Zm8.5,27.626H8.5V21.25H12.75V31.874Zm0-19.125H8.5V6.375H12.75v6.375Z"/></svg>