<svg xmlns="http://www.w3.org/2000/svg" viewBox="343.8 0 1312.5 2000"><path fill="#887F82" d="M1406.3 0H593.8v312.5h812.5V0zm-62.5 250H656.3V62.5h687.5V250z"/><path fill="#887F82" d="M1437.5 93.8v62.5h156.3v1781.2H406.3V156.3h156.2V93.8H343.8V2000h1312.5V93.8z"/><path fill="#887F82" d="M718.8 125h62.5v62.5h-62.5zm500 0h62.5v62.5h-62.5zm250 1687.5H531.3V281.3h31.2v-62.5h-93.7V1875h1062.5V218.8h-93.8v62.5h31.3z"/><path fill="#3ABCDC" d="M821.7 509.2L718.8 612.1l-40.4-40.5-44.3 44.2 84.7 84.6 147-147.1zm0 442l-102.9 102.9-40.4-40.4-44.3 44.2 84.7 84.6 147-147.1zm0 433l-102.9 102.9-40.4-40.4-44.3 44.2 84.7 84.6 147-147.1zm147.1-852.9h218.8v62.5H968.8zm0 125h406.3v62.5H968.8zm0 312.5h218.8v62.5H968.8zm0 125h406.3v62.5H968.8zm0 312.5h218.8v62.5H968.8zm0 125h406.3v62.5H968.8z"/></svg>