<svg xmlns="http://www.w3.org/2000/svg" viewBox="0 0 2000 2000"><path fill="#887F82" d="M1920.3 610.8C1814.7 365 1635.6 186.3 1387.9 80.4 1263.7 27.5 1134 .7 998.4.7S734 27.5 610.1 80.4C364.3 186 184.3 364.4 78.7 610.8 25.8 734 0 863.4 0 999s25.8 266 78.8 389.2c105.6 246.1 285.6 425.8 531.4 531.4 123.9 52.9 252.6 79.7 388.2 79.7s265.4-27.1 389.2-79.7c248-105.9 427.1-285.6 532.7-531.4 52.9-123.9 79.7-253.6 79.7-389.2s-26.8-264.4-79.7-388.2zm-159.8 830c-78.4 134.6-185.9 241.5-321.6 320.3-134.6 78.4-282 118-440.5 118-119.3 0-233-22.9-341.2-69.9s-201.6-108.8-280.1-186.9c-78.1-78.1-140.5-172.5-186.9-281-46.4-108.2-69-223.2-69-342.2 0-158.5 38.9-305.2 117-439.5 78.5-134.8 186-241.6 320.3-320.4 134.6-79.1 281.4-118.3 439.9-118.3s305.9 39.5 440.5 118c135.3 79.1 242.8 185.9 321.6 320.3 78.8 134.6 118 281 118 439.5.3 158.8-39 306.5-118 442.1z"/><path fill="#3ABCDC" d="M1061.8 990.2V423.9c0-34-29.4-61.1-63.4-61.1-31.7 0-60.1 27.5-60.1 61.1V999c0 1 2.3 5.6 2.3 8.8-2.3 19.6 3.3 35.9 16.3 49.3L1284 1384c21.9 21.9 62.4 21.9 84.3 0 25.2-25.2 23.5-61.8 0-85.3l-306.5-308.5z"/></svg>