<svg xmlns="http://www.w3.org/2000/svg" viewBox="0 447.2 2000 754.5"><path d="M368.5 1201.1c1.4-4 1.9-8.3 4.2-11.8 10.9-17 26.3-30.3 43.1-40.3 23.4-14 47.4-27.5 72.5-37.5 26.8-10.7 55.2-17.5 82.9-25.4 14.9-4.3 29.9-8.3 45-11.2 22.3-4.3 44.6-8 67.1-11.4 20.4-3.1 41-5.9 61.4-8.3 20.1-2.4 40-4.7 60-6.9 80.1-9 160.4-8 240.7-7.6 30.8.2 61.8.2 92.4 2.4 38.6 2.9 77 8 115.6 12.3 22 2.6 43.9 5 65.7 8.7 22.8 3.8 45.7 8.7 68.3 13.3 15.2 3.1 30.3 6.2 45.3 10.2 13.5 3.5 27 7.8 40.1 12.3 16.1 5.5 32 11.1 47.8 17.5 36.5 14.9 70.4 34.1 96.7 64.2 4.8 5.5 11.8 10.9 10.4 19.9h-121.1c-2.2-2.6-4.2-5.5-6.7-7.4-2.8-1.9-6.4-2.4-9.7-3.5-19.6-6.7-38.9-13.8-58.5-19.9-15.4-4.7-31.1-8.3-46.7-12.1-15.6-3.8-31.3-7.8-47.1-10.6-21.3-3.6-42.6-6.6-64-9.3-36.9-4.7-73.5-10.2-110.6-13.3-38.1-3.1-76.5-4.8-114.5-5.2-40.8-.5-81.7 1.6-122.7 2.1-46 .5-92 2.4-137.7 8.5-11.1 1.4-22.5 1-33.6 2.6-27.3 4-54.5 8.5-81.8 13.1-19.9 3.5-39.6 6.9-59.3 11.2-14.9 3.3-29.4 7.6-43.9 12.3-25.4 8-50.7 16.4-76 25.1-2.4.9-4 4.3-6.1 6.6-39.6-.6-79.4-.6-119.2-.6zm1626.8-288.3c0 .5-.2 5-.2 5.5 0 2.9-.9 7.1-1.6 10-13.1 31-43.1 45.2-74.9 36.7-27.5-7.3-48.8-34.4-44.6-64.9 2.6-18.9 12.6-32.4 28-42.2 11.4-7.3 24.2-9.9 37.9-9.2 23.2 1 45 17.1 52.9 39.1.9 2.9 1.7 6.2 2.1 9.3.2 1.6.5 5.5.5 5.9.1 8.1-.1 1.5-.1 9.8zm-36.7-37c-1-.2-2.1.7-2.1 1.7.2 1.2.2 2.4.7 3.5 9 23.5-3.3 52.3-28.9 59.2-1.9.5-4.3 3.6-4.2 5.4.2 1.7 3.1 3.5 5 4.7 1 .7 2.8.3 4.2.2h.2c29.8-1.2 49.7-24.6 42.7-56.1-2-9.3-9.1-16.7-17.6-18.6z"/><path d="M708.9 814.2c4.8-1.2 7.8-1.9 10.6-2.6 11.1-3.1 22.3-4.5 32.9 1 14.4 7.6 19.7 24.6 12.8 40.1-2.6 5.7-1.6 9.3 2.4 13.8 8 9 15.2 18.7 23 27.9 1.6 1.7 4.3 3.8 6.1 3.5 1.9-.3 4-3.3 4.5-5.4 2.4-11.4 4.2-23.2 6.6-34.6 1.4-6.6-.7-11.6-5.5-16.1-11.1-10.4-14.4-23.7-9-34.1 6.2-12.3 21.6-20.4 35.3-18.7 2.1.3 4.2 1.2 5.9.7 2.9-.7 6.9-1.4 8-3.5 1-1.9-.5-6.1-2.1-8.1-11.8-15.1-12.1-26.1-.5-40 9.3-11.2 27-13.8 40.8-6.1 1.6.9 2.9 1.9 4.5 2.4 4 1.4 8 2.6 11.8 3.8 0-3.6-1.2-8 .2-11.1 3.6-8.1 6.7-17.6 13-23.2 14-12.3 29.6-10.6 44.1.7 1.7 1.4 4.2 3.8 5.7 3.5 2.9-.7 6.7-2.4 8-5 2.2-4.8 2.6-10.6 4.5-15.4 6.2-15.9 27.9-21.6 41.4-11.1 8.5 6.7 15.2 14 13.3 26.3-.3 2.6 1.6 7.6 3.1 8 2.6.5 6.6-1 8.8-3.1 19.7-17.1 40.5-15.7 54.8 4.5 3.1 4.3 2.6 11.2 3.8 17 .7 3.1 1.2 6.2 1.9 9.3 3.1-.9 6.7-.9 9.2-2.8 13.5-10 26.6-11.6 41.7-2.6 15.6 9.3 18 33.2 6.4 45-1.9 1.9-3.3 7.4-2.2 8.7 2.1 2.2 6.7 4 9.5 3.1 10-3.5 18-.2 26.1 5 17.6 11.1 19.7 32.7 4.2 46.7-6.1 5.4-7.4 10.6-5 19 3.1 10.6 2.6 22.1 4.2 33.2.5 3.3 2.4 6.4 3.6 9.7 2.4-2.1 5-4 7.1-6.6 8.5-10.4 16.6-21.3 25.4-31.5 3.5-4 5.2-7.8 2.1-12.3-7.6-11.2-5.9-21.5 1.9-31.8 8.3-10.9 19.6-13.7 32.2-11.9 4.7.7 9 3.1 13.7 4.5 1.9.5 4.5 1.2 6.2.3 1-.5 1.2-3.5 1.2-5.4 0-1-.7-2.2-1-3.3-5.7-17.1-.9-29.9 14.5-38.8 11.6-6.7 32.2-2.9 41.5 7.4 1.6 1.7 2.8 4.3 4.7 4.8 2.4.9 6.1 1 8-.3 1.6-1.2 2.2-5.5 1.2-7.4-5.4-10.2-6.6-20.1.5-29.9 8.8-12.1 20.8-17.8 35.3-14.4 10.4 2.4 20.1 7.3 23.7 19 .7 2.2 1.6 4.3 2.6 6.4 3.8 6.7 8.5 7.3 13.7 1.7 17-18.7 42.4-17 56.6 4 5.7 8.5 6.4 17.1.9 25.8-2.2 3.5-4.8 6.4-6.6 10-1.2 2.6-1.2 5.7-1.9 8.7 2.9.2 6.1 1.4 8.5.5 13.8-5.5 27.3-5.4 37.9 5.4 14 14.2 15.6 28 .7 42.7-1.6 1.6-4 2.8-5.2 4.5-1.6 2.6-3.5 6.1-2.8 8.3s4.3 4.2 6.9 5c5.9 2.1 12.6 2.4 18 5.4 18.7 10.2 16.8 42.4-1.7 50.9-9.3 4.3-14.9 23.9-9.5 32.4 1 1.7 5.7 2.9 8 2.2 10-3.5 19.9-7.4 29.4-12.1 2.8-1.4 5.5-6.6 5.2-9.3-2.4-15.2 10.7-29.8 23.9-34.3 14-4.7 29.1 1 38.4 14.4 1.2 1.7 2.2 4 3.8 4.5 3.3 1.2 7.1 2.6 10.2 1.9 1.7-.3 3.3-5 3.5-7.8.5-13.3 8-26 18.2-29.9 15.7-6.1 32.2-3.5 41.2 8 3.5 4.5 4.5 10.7 7.1 16.1 1.4 2.8 3.6 5.2 5.5 7.6 2.2-2.1 5.9-4 6.6-6.6 6.6-23.2 21.8-28 42.4-25.4 13.3 1.6 26 17.8 24.6 32-.9 8.7.5 13.7 10.2 14.9 3.5.5 7.6 4.3 9.2 7.6.9 1.9-2.6 6.4-5 9-26.3 27.3-52.8 54.7-79.2 81.8-11.2 11.6-22.5 23-33.7 34.6-24.9 25.6-50 51-74.9 76.7-5.4 5.5-10.6 4.5-16.1.2-12.8-10.4-24.9-21.3-38.4-30.6-11.1-7.6-23.2-13.8-35.3-19.6-15.2-7.1-30.8-13.8-46.7-19.6-20.2-7.1-40.8-13.5-61.4-19.2-17.6-5-35.6-8.8-53.6-12.8-15.4-3.5-31-6.7-46.5-9.2-22.5-3.5-45-6.6-67.5-9-38.1-4.2-76.1-8.1-114.2-11.2-28-2.2-56.2-3.6-84.4-3.8-58.8-.3-117.7-.2-176.5.9-20.9.3-41.9 3.5-62.6 5.2-18.7 1.6-37.4 2.8-55.9 5-25.4 2.9-50.7 6.6-76.1 10.2-21.6 3.1-43.3 6.4-64.7 10.4-15.2 2.9-30.1 7.1-45.2 10.9-13.8 3.5-27.9 6.9-41.7 11.1-12.8 3.8-25.6 8.1-38.2 13-13.7 5.2-27.2 11.1-40.5 17-27 11.9-51.9 27.2-72.8 48.4-9 9.2-14.5 9.2-23.4.2-29.4-30.1-58.5-60.4-87.7-90.5-11.8-12.1-23.7-24.4-35.5-36.5-20.9-21.5-41.7-42.9-62.5-64.5-2.1-2.2-4.8-6.7-4-8.5 1.6-3.1 5.4-6.4 8.7-6.9 8.7-1.4 11.4-5.4 11.1-14-.7-19.4 10.2-30.3 26.3-32.7 20.8-3.1 34.1 6.1 39.1 24.9.7 2.8 4 4.8 6.1 7.3 2.1-2.1 4.7-3.8 5.9-6.4 2.6-5.2 3.5-11.2 6.6-15.9 7.6-11.9 23.7-15.6 41.4-10 11.8 3.6 18.9 14.7 19.4 28.7.2 3.5 2.4 8.5 5.4 10 4.8 2.6 8.8-.3 11.4-5.7 6.2-12.6 24.7-19.9 38.6-16.1 14.4 4 24.4 17.8 23.4 32.9-.5 6.7 1.2 10.4 8.5 12.3 9.3 2.4 18.2 6.9 27.3 10.4 7.3 2.6 9.7.9 9.3-6.7-.2-3.8-.3-7.4-.2-11.2.2-7.1-2.8-11.9-8.8-15.6-4.2-2.4-8.5-5.2-11.4-8.8-13.8-16.8-5.4-40.7 16.1-45.9 3.6-.9 7.4-1.2 10.9-2.6 2.9-1.2 6.9-3.3 7.4-5.7.5-2.1-2.8-5.7-5.2-7.6-6.7-5.2-12.5-10.6-14-19.7-4.5-24.9 22.5-40.7 41.2-34.3.5.2 1 .5 1.6.5 4.8 0 9.7 0 14.5-.2-2.1-4-3.6-8.3-6.4-11.8-6.4-8.1-7.3-25.1-.9-33.4 13.8-18.3 35.5-20.2 52.6-4.8 9.3 8.3 14 7.3 17.8-4 5-14.9 19.6-22.8 38.2-20.9 12.5 1.2 26.5 15.6 27 28.9.2 4.3-2.8 8.7-3.5 13-.5 3.5.3 7.3.5 10.9 3.3-1 6.9-1.4 9.9-2.9 6.2-3.5 11.4-9.3 18-11.2 23.5-7.1 47.9 11.4 41.2 38.4-1.2 2.1-1.7 4.9-2.9 9.9zm289.3 146.5c0-.3 2.2 0 2.2-.3 42.9 1.4 83.4 1.9 126.3 3.5 19.4.7 19.9 1 21.6-18.2 2.4-28.4-.3-56.2-10.7-83.1-2.6-6.7-5.2-13.5-9-19.6-15.9-25.1-35-47.4-61.6-61.4-17.5-9.2-35.3-18.2-54-24.2-9.7-3.1-22.1-2.6-32 .5-16.3 5.2-31.7 13.1-46.9 21.1-23 12.1-42 29.1-57.1 50.4-12.5 17.8-20.9 37-25.6 58.7-4.2 19.4-6.1 38.6-5 58.3.9 15.7 4.2 18.3 19.7 17.6 28.7-1.2 57.4-2.4 86.2-3.3 15.4-.3 30.7 0 45.9 0zM503.5 965c0 1.4.3 3.8.5 5.2 2.2 16.8 4.2 33 6.6 49.8.9 5.5 3.8 9.3 10 7.4 14-4.3 27.9-9 41.9-13.1 14.4-4.3 28.7-8.3 43.3-11.9 15.1-3.8 30.1-6.9 45.3-10.2 18.5-4 37-8.3 55.5-11.6 19-3.3 38.1-5.4 57.3-8 6.2-.9 9.2-4 6.4-10-4-9.2-7.8-18.5-13-27.2-14.9-25.3-33.4-47.8-55.9-66.3-15.9-13-32.9-25.1-50.7-35.5-15.2-8.8-32.2-15.1-48.8-21.3-9.7-3.6-20.6-8-30.1 1-26.3 24.7-45.3 54.7-56.4 88.6-7.1 21.4-12.9 39.6-11.9 63.1zm988.3 7.1c-1.7-29.6-4.5-56.6-14.7-81.8-10.9-26.8-26.6-50.7-46.9-71.6-9.2-9.5-19-12.8-31-8.5-14.2 5.2-28.7 10-42.2 17-23.5 12.1-45.5 26.5-65.6 44.1-28.4 25.1-48.6 55.7-65.4 88.9-3.3 6.4-.9 10.7 6.1 11.9 15.6 2.4 31.3 4.7 46.9 6.9 7.6 1.2 15.4 2.2 23 3.6 20.2 4 40.7 8 60.9 12.3 13.1 2.8 26.3 6.1 39.3 9.5 9.7 2.6 19.4 5.4 28.9 8.5 15.4 4.8 30.6 9.9 45.9 14.7 5.7 1.7 9-.7 9.5-6.4 1.9-17 3.8-34.2 5.3-49.1zm222.7-9.3c-39.4 0-77.7 6.4-114 21.8-23.9 10.2-45.3 23.7-63.5 42.2-16.1 16.3-14.7 19.4 5.9 29.1 22 10.4 43.4 22.3 64.4 34.8 13.3 8 16.3 8.5 27.5-2.2 9.7-9.5 9.5-11.9-1.2-19.6-.9-.7-1.9-1.4-2.6-2.2-11.6-12.3-13.8-32-5.2-44.5 11.1-15.7 28.5-21.6 45-13.7 6.9 3.3 13 9 18.7 14.4 3.6 3.5 6.2 5.5 10.7 1.2 17-17 33.9-33.6 50.9-50.5 1.9-1.9 2.9-4.5 4.3-6.9-2.6-1.2-5.4-3.5-8-3.6-11.1-.6-22-.3-32.9-.3zm-1439.2-2.9h-3.1c-9.2.5-15.1 2.1-24.9 3.1-1.9 0-4.8 1.6-5.4 3.1-.7 1.6.5 4.5 1.9 5.9 15.6 15.7 31.3 31.5 47.2 46.9 6.9 6.7 12.1 6.2 19.4-.3 20.2-18.3 29.9-16.8 48.3-8.3 11.4 5.2 21.6 24.9 17.8 35.5-3.3 8.8-6.6 17.6-14.5 24.1-2.8 2.2-4.8 8.3-4 11.9 3.3 13.5 17.5 17.6 29.1 10.2 11.8-7.6 24.1-14.5 36.5-21.3 12.3-6.7 25.4-12.1 37.5-19 11.6-6.4 11.8-9 3.3-18.9-28.2-33-65.7-51-106.6-61.1-26.8-6.8-54.8-8-82.5-11.8zm619.4-417.4c.3-52.3 45.7-96.7 101-95.3 60.7 1.6 99.1 41.7 99.7 95.5.7 55.5-42.2 98.1-104.3 97.2-51.9-.7-96.7-43.4-96.4-97.4zm143.3-20c-.7 24.4-11.8 42.4-29.1 57.4-12.3 10.6-26.6 15.2-42.4 17.5-2.8.3-5 4.2-7.6 6.4 2.4 2.4 4.5 6.4 7.4 7.1 21.6 4.8 42.9 5.5 63.2-6.6 46-27.5 51.2-83.6 9.2-118.3-1.9-1.6-5-1.7-7.4-2.6-.3 2.9-1.2 6.1-.7 8.7 2 10.1 4.8 20.1 7.4 30.4zm409.2 194.6c-26.6-.7-49.5-10.2-65.7-31.7-13.3-17.8-18.7-37.9-14.5-60.7 5.2-27.3 20.8-45.9 44.8-57.4 37.5-18.2 85.1-4.3 106.1 30.1 24.9 41.2 8.5 88.9-29.9 110.4-11.4 6.2-24.4 9-40.8 9.3zm57.8-77.5c2.4-32.2-29.4-59.5-62.1-59.9-2.9 0-5.9 2.1-8.8 3.3 2.2 2.2 4 5.2 6.6 6.6 22.8 11.9 36.9 29.1 37.2 56.2.2 14.2-5 25.6-11.8 37.2-1.4 2.4-.3 6.2-.5 9.3 2.9-.3 6.2 0 8.7-1.4 19.9-11.3 31.4-28.1 30.7-51.3zm-956.3 77.5c-36.2 1-68.9-22.8-78.7-56.2-10.4-35.1 2.8-69.9 35.1-89.3 15.2-9.2 31.7-14.2 49.3-12.3 26 2.8 48.1 12.6 63 35.5 10.6 16.3 16.6 33.9 13.5 53.1-4.8 28.9-20.6 50.4-48.1 61.8-10.7 4.3-20.8 5.2-32.4 7.3-1-.1-.7.1-1.7.1zm58.1-78.4c.2-35.3-33.9-60.2-65.6-59.2-2.2 0-4.3 2.1-6.4 3.1 1.6 2.1 2.9 4.7 5 6.1 6.9 4.7 14.7 8.1 20.8 13.5 15.1 13.5 18.5 31.1 17.5 50.9-.7 12.6-6.4 22.1-13.3 31.8-1.7 2.4-2.4 5.9-3.6 8.8 3.5.2 7.6 1.6 10.2 0 21.2-12.1 35.4-29 35.4-55zM62.6 848.6c32.5-.5 60.6 28 59.9 59.5-.9 38.8-29.2 59.5-60.6 59.7C29.1 968-1 946.7 0 904.3c.9-29.4 29.9-57.6 62.6-55.7zm-45.8 56.1c1.6 19 16.4 44.6 42.7 45.9 3.5.2 7.1-2.6 10.7-3.8-2.4-2.6-4.3-6.4-7.4-7.8-18.5-8.3-30.3-31-26-50.4.5-2.4-1.4-5.4-2.2-8.1-3.1.9-8 .9-9 2.9-3.8 7.6-6.6 15.7-8.8 21.3zm1841.5 111.4c-17.1 1.4-31.3-17-31-28.5.3-15.2 14.7-29.6 30.1-29.6 15.2 0 31.1 14.7 31 28.9 0 15.3-14.4 29.2-30.1 29.2zM167 987.2c.3 16.1-11.6 28.5-27.5 28.9-15.7.3-30.1-12.8-30.5-28-.3-15.9 13-29.4 29.6-29.6 16.6-.4 28 11 28.4 28.7zm55 49.7c.2 11.8-11.8 24.1-23.5 24.1-10.9 0-23.4-12.5-23.4-23.5 0-12.3 10.6-22.5 23.4-22.7 13.3-.3 23.3 9.1 23.5 22.1zm1598.6.1c0 12.5-10 23.4-21.6 23.5-11.4.2-25.3-12.3-25.3-22.8-.2-11.8 12.8-23.5 25.3-23.2 12.1.6 21.6 10.4 21.6 22.5zm-89 31.3c.2-9.5 7.3-15.7 17.8-15.6 8.8.2 16.3 7.6 15.9 16.1-.2 9.7-7.6 16.8-17.3 16.8-9.3 0-16.5-7.6-16.4-17.3zm-1483.8 17.2c-9.9-.3-17.3-7.8-16.8-17 .5-8.7 8.5-15.7 17.5-15.7 9.2.2 16.4 7.6 15.9 16.6-.7 10-7.5 16.4-16.6 16.1zm1469.5 9.3c-.2 6.6-5.5 12.1-10.9 11.9s-11.4-6.4-10.7-11.6c.9-6.2 5-9.7 11.2-9.9 6.4.3 10 3.9 10.4 9.6zm-1427.7-9.3c6.1.3 11.2 2.1 11.1 9.3-.2 6.7-4.7 10.4-11.1 11.1-5.7.5-11.2-5-11.1-10.7.4-7.3 5.4-9 11.1-9.7z"/><path d="M999 924.9c-33.2 2.1-62.6-27.3-63-58.8-.5-32.2 27.7-61.6 61.9-61.1 33.9.3 60.7 24.9 62.1 58.7 1.5 32.8-29.8 63.1-61 61.2zm-380.6 38.6c-27.5 0-46.4-19-47.8-45.5-1.2-21.5 22.3-47.1 49.8-46.4 22.7.5 47.2 20.9 46.7 46.9-.4 23.5-19.5 46.7-48.7 45zm758.9 0c-27.3 0-48.1-19.6-48.1-45.3 0-26.8 20.9-44.8 50.5-46.4 19.4-1 46.5 19.9 46 45.7-.3 24.5-19.4 47.9-48.4 46z"/></svg>