<svg xmlns="http://www.w3.org/2000/svg" viewBox="0 95.4 2000 1809.1"><path fill="#887F82" d="M1728.5 944.6l-61.8-105.8c-8.1-13.9-26-18.6-39.9-10.5s-18.6 26-10.5 39.9l39.7 68h-375.8l187.9-321.9 55 94.3c8.1 13.9 26 18.6 39.9 10.5s18.6-26 10.5-39.9l-77-131.9c-7.2-12.3-20.6-20-34.9-20H538.3c-14.3 0-27.7 7.7-34.9 20L271.5 944.6c-8.3 14.3-7.2 31.9 2.9 45l404.9 525c5.8 7.5 14.4 11.4 23.1 11.4 6.2 0 12.5-2 17.8-6.1 12.8-9.8 15.1-28.2 5.3-40.9L352 994.6h395.7L940 1757l-101.8-132c-9.8-12.8-28.2-15.1-40.9-5.3-12.8 9.8-15.1 28.2-5.3 40.9l176 228.2c7.7 10 19.4 15.7 32 15.7s24.3-5.7 32-15.7l693.6-899.3c10.1-13 11.2-30.6 2.9-44.9zm-311.2-359l-187.2 320.7-180.2-320.7h367.4zm-237.4 350.6H820.1L1000 616l179.9 320.2zm-835.9 0l187.9-321.9 187.9 321.9H344zm238.7-350.6h367.4L769.9 906.3 582.7 585.6zM1000 1756.1L807.9 994.6H1192l-192 761.5zm60 .9l192.3-762.4H1648L1060 1757z"/><path fill="#3ABCDC" d="M1000 95.4c-16.1 0-29.2 13.1-29.2 29.2v132.3c0 16.1 13.1 29.2 29.2 29.2s29.2-13.1 29.2-29.2V124.6c0-16.2-13.1-29.2-29.2-29.2zm707.1 228c-11.4-11.4-29.9-11.4-41.3 0l-93.6 93.6c-11.4 11.4-11.4 29.9 0 41.3 5.7 5.7 13.2 8.5 20.6 8.5 7.5 0 14.9-2.9 20.6-8.5l93.6-93.6c11.5-11.4 11.5-29.9.1-41.3zm263.7 677.9h-132.3c-16.1 0-29.2 13.1-29.2 29.2s13.1 29.2 29.2 29.2h132.3c16.1 0 29.2-13.1 29.2-29.2s-13.1-29.2-29.2-29.2zm-1809.3 0H29.2c-16.1 0-29.2 13.1-29.2 29.2s13.1 29.2 29.2 29.2h132.3c16.1 0 29.2-13.1 29.2-29.2s-13.1-29.2-29.2-29.2zM427.7 417l-93.6-93.6c-11.4-11.4-29.9-11.4-41.3 0s-11.4 29.9 0 41.3l93.6 93.6c5.7 5.7 13.2 8.5 20.6 8.5 7.5 0 14.9-2.9 20.6-8.5 11.5-11.4 11.5-29.9.1-41.3z"/></svg>