<svg xmlns="http://www.w3.org/2000/svg" viewBox="0 478 2000 1522"><path fill="#887F82" d="M1755.8 478H244.6C109.7 478 0 587.6 0 722.6v1032.9C0 1890.4 109.7 2000 244.6 2000h1510.9c134.9 0 244.6-109.7 244.6-244.6V723c.3-134.9-109.3-245-244.3-245zm132.9 1277.4c0 73.2-59.6 132.8-132.8 132.8H244.6c-73.2 0-132.8-59.6-132.8-132.8V723c0-73.2 59.6-132.8 132.8-132.8h1510.9c73.2 0 132.8 59.6 132.8 132.8v1032.5l.4-.1z"/><path fill="#3ABCDC" d="M1261.3 1226.2l489.1-438.7c22.8-20.7 24.8-55.9 4.1-79-20.7-22.8-55.9-24.8-79-4.1L1001 1309.8l-131.6-117.6c-.4-.4-.8-.8-.8-1.2-2.9-2.9-5.8-5.4-9.1-7.9L324 703.9c-23.2-20.7-58.3-18.6-79 4.6s-18.6 58.3 4.6 79l494.9 442.4-492.9 461.4c-22.3 21.1-23.6 56.3-2.5 79 11.2 11.6 26.1 17.8 41 17.8 13.7 0 27.3-5 38.1-14.9l500.3-468 135.7 121.2c10.8 9.5 24 14.1 37.2 14.1s26.9-5 37.2-14.5l139.5-125 497.4 472.6c10.8 10.3 24.8 15.3 38.5 15.3 14.9 0 29.4-5.8 40.6-17.4 21.1-22.3 20.3-57.9-2.1-79l-491.2-466.3z"/></svg>