<svg xmlns="http://www.w3.org/2000/svg" viewBox="0 0 2000 2000"><path fill="#3ABCDC" d="M850.1 1425.7l-413.6-413.5 106.1-106.1 307.5 307.5 922.5-922.5 106.1 106z"/><path fill="#887F82" d="M1829.2 820.3c14.8 66.4 22.1 135.3 19.7 206.6-12.3 467.4-403.4 833.9-868.4 821.6s-833.9-401-821.6-868.4 403.4-833.9 868.4-821.6c152.5 4.9 295.2 49.2 415.7 123l115.6-108.2C1408.5 72.4 1226.5 10.9 1032.1 6 481.1-8.8 21.1 426.7 6.3 977.7S427 1988.8 978 2003.5s1011.1-420.7 1025.8-971.7c2.5-115.6-14.8-226.3-46.7-332.1l-127.9 120.6z"/></svg>