<svg xmlns="http://www.w3.org/2000/svg" viewBox="0 0 2000 2000"><path fill="#887F82" d="M1003.1 3.1c-551.9 0-1000 448.1-1000 1000s448.1 1000 1000 1000 1000-448.1 1000-1000S1555 3.1 1003.1 3.1zm0 1931.6c-514.3 0-931.6-417.2-931.6-931.6S491 73.7 1003.1 73.7s931.6 417.2 931.6 931.6-417.3 929.4-931.6 929.4z"/><path fill="#3ABCDC" d="M1003.1 1658.7c-19.9 0-35.3 15.5-35.3 35.3v68.4c0 19.9 15.5 35.3 35.3 35.3s35.3-15.5 35.3-35.3V1694c0-19.8-15.4-35.3-35.3-35.3zm207.5 2.2c-4.4-17.7-24.3-28.7-41.9-24.3s-28.7 24.3-24.3 41.9l17.7 66.2c4.4 15.5 17.7 26.5 33.1 26.5 2.2 0 6.6 0 8.8-2.2 17.7-4.4 28.7-24.3 24.3-41.9l-17.7-66.2zm-525.4-86.1c-15.5-8.8-37.5-4.4-46.4 13.2l-35.3 59.6c-8.8 15.5-4.4 37.5 13.2 46.4 4.4 2.2 11 4.4 17.7 4.4 11 0 24.3-6.6 30.9-17.7l35.3-59.6c6.7-17.6.1-37.4-15.4-46.3zm684.3 11.1c-8.8-15.5-30.9-22.1-46.4-13.2s-22.1 30.9-13.2 46.4l35.3 59.6c6.6 11 17.7 17.7 30.9 17.7 6.6 0 11-2.2 17.7-4.4 15.5-8.8 22.1-30.9 13.2-46.4l-37.5-59.7zm-529.8 50.8c-17.7-4.4-37.5 6.6-41.9 24.3l-17.7 66.2c-4.4 17.7 6.6 37.5 24.3 41.9 2.2 0 6.6 2.2 8.8 2.2 15.5 0 28.7-11 33.1-26.5l17.7-66.2c4.4-17.7-6.6-35.3-24.3-41.9zm554.1-933.8l-492.3 494.5-251.6-251.7c-13.2-13.2-35.3-13.2-48.6 0s-13.2 35.3 0 48.6l275.9 275.9c6.6 6.6 15.5 11 24.3 11s17.7-4.4 24.3-11l516.6-518.8c13.2-13.2 13.2-35.3 0-48.6-13.3-13.2-35.3-13.2-48.6.1zM1257 325.4c24.3 8.8 48.6 19.9 72.8 30.9 4.4 2.2 11 4.4 15.5 4.4 13.2 0 24.3-6.6 30.9-19.9 8.8-17.7 2.2-37.5-15.5-46.4-26.5-13.2-53-24.3-79.5-35.3-17.7-6.6-37.5 2.2-44.2 19.9-6.5 19.9 2.3 39.8 20 46.4z"/><path fill="#887F82" d="M491 491c163.4-163.4 397.4-240.6 626.9-203.1 17.7 2.2 37.5-8.8 39.7-28.7 2.2-19.9-8.8-37.5-28.7-39.7-249.4-39.7-505.5 44.2-686.5 223-309.1 309.1-309.1 812.4 0 1121.4 6.6 6.6 15.5 11 24.3 11s17.7-4.4 24.3-11c13.2-13.2 13.2-35.3 0-48.6-282.6-282.6-282.6-741.8 0-1024.3zm1072.8-48.6c-22.1-22.1-46.4-44.2-72.8-64-15.5-11-37.5-8.8-48.6 6.6-11 15.5-8.8 37.5 6.6 48.6 22.1 17.7 44.2 37.5 66.2 57.4 282.6 282.6 282.6 741.7 0 1024.3-13.2 13.2-13.2 35.3 0 48.6 6.6 6.6 15.5 11 24.3 11s17.7-4.4 24.3-11c311.3-309.1 311.3-812.5 0-1121.5z"/></svg>