<svg xmlns="http://www.w3.org/2000/svg" viewBox="0 0 2000 2000"><path d="M1448.1 0H551.9C247.7 0 0 247.7 0 551.9v896.3C0 1752.7 247.7 2000 551.9 2000h896.3c304.6 0 551.9-247.7 551.9-551.9V551.9c.3-304.2-247.4-551.9-552-551.9zm374.7 1448.1c0 206.6-168.1 374.6-374.6 374.6H551.9c-206.6 0-374.6-168.1-374.6-374.6V551.9c0-206.6 168.1-374.6 374.6-374.6h896.3c206.6 0 374.6 168.1 374.6 374.6v896.2z"/><path d="M1000 484.9c-284 0-515.5 231.1-515.5 515.5 0 284 231.1 515.5 515.5 515.5s515.5-231.1 515.5-515.5-231-515.5-515.5-515.5zm0 853c-186.4 0-337.9-151.4-337.9-337.9S813.6 662.1 1000 662.1s337.9 151.4 337.9 337.9c.4 186.4-151.5 337.9-337.9 337.9zm537-1003.5c-34.1 0-67.8 14-91.9 38.1-24.1 24.1-38.1 57.8-38.1 91.9s14 67.8 38.1 91.9c24.1 24.1 57.8 38.1 91.9 38.1s67.8-14 91.9-38.1c24.1-24.1 38.1-57.8 38.1-91.9s-14-67.8-38.1-91.9c-23.6-24.6-57.3-38.1-91.9-38.1z"/></svg>