<svg xmlns="http://www.w3.org/2000/svg" viewBox="0 122.7 2000 1754.7"><path fill="#3ABCDC" d="M1013.8 190.5h-30c-16.2 0-29.3 13.1-29.3 29.3s13.1 29.3 29.3 29.3h30c16.2 0 29.3-13.1 29.3-29.3s-13.1-29.3-29.3-29.3zm-239.6 44.6h-29.9c-16.2 0-29.3 13.1-29.3 29.3s13.1 29.3 29.3 29.3h29.9c16.2 0 29.3-13.1 29.3-29.3s-13.2-29.3-29.3-29.3zm452.2 0h-29.9c-16.2 0-29.3 13.1-29.3 29.3s13.1 29.3 29.3 29.3h29.9c16.2 0 29.3-13.1 29.3-29.3s-13.1-29.3-29.3-29.3zm-125.8 56.4h-30c-16.2 0-29.3 13.1-29.3 29.3s13.1 29.3 29.3 29.3h30c16.2 0 29.3-13.1 29.3-29.3s-13.1-29.3-29.3-29.3zm-188.7 0H882c-16.2 0-29.3 13.1-29.3 29.3s13.1 29.3 29.3 29.3h29.9c16.2 0 29.3-13.1 29.3-29.3s-13.1-29.3-29.3-29.3zM774.2 561.9h-29.9c-16.2 0-29.3 13.1-29.3 29.3s13.1 29.3 29.3 29.3h29.9c16.2 0 29.3-13.1 29.3-29.3s-13.2-29.3-29.3-29.3zm452.2 0h-29.9c-16.2 0-29.3 13.1-29.3 29.3s13.1 29.3 29.3 29.3h29.9c16.2 0 29.3-13.1 29.3-29.3 0-16.2-13.1-29.3-29.3-29.3zm-125.8 56.4h-30c-16.2 0-29.3 13.1-29.3 29.3s13.1 29.3 29.3 29.3h30c16.2 0 29.3-13.1 29.3-29.3s-13.1-29.3-29.3-29.3zm-188.7 0H882c-16.2 0-29.3 13.1-29.3 29.3s13.1 29.3 29.3 29.3h29.9c16.2 0 29.3-13.1 29.3-29.3 0-16.2-13.1-29.3-29.3-29.3z"/><path fill="#887F82" d="M1968.8 1617.7c4.4-11.8 6.9-24.5 6.9-37.8 0-11-1.7-21.7-4.8-31.7 17.6-13.1 29-33.8 29-57.2v-66.1c0-101.6-83.2-184.2-185.5-184.2h-110.2c21.3-30.2 33.8-67 33.8-106.5v-32.6c0-19.3-13.3-35.5-31.2-40.3 4.4-11.8 6.9-24.5 6.9-37.8 0-11-1.7-21.7-4.8-31.7 17.6-13.1 29-33.8 29-57.2v-66.1c0-101.6-83.2-184.2-185.5-184.2-16.2 0-29.3 13.1-29.3 29.3s13.1 29.3 29.3 29.3c69.9 0 126.9 56.4 126.9 125.6v66.1c0 7.2-6.3 13.1-14.1 13.1-4.7 0-8.8-2-11.6-5.7-6.5-8.5-16.7-13.6-27.4-13.6s-21 5.1-27.4 13.6c-2.8 3.6-6.9 5.7-11.5 5.7-4.7 0-8.8-2-11.6-5.7-6.5-8.5-16.7-13.6-27.4-13.6-10.8 0-21 5.1-27.4 13.6-2.8 3.7-6.9 5.7-11.6 5.7s-8.8-2-11.5-5.6c-6.5-8.6-16.7-13.7-27.4-13.7s-21 5.1-27.4 13.6c-2.8 3.6-6.9 5.7-11.5 5.7s-8.8-2-11.6-5.7c-6.5-8.5-16.7-13.6-27.4-13.6s-20.9 5.1-27.4 13.6c-2.8 3.6-6.8 5.6-11.5 5.6s-8.8-2-11.6-5.7c-6.5-8.5-16.7-13.6-27.4-13.6s-21 5.1-27.4 13.6c-2.8 3.6-6.9 5.7-11.5 5.7-4.7 0-8.8-2-11.5-5.6-6.5-8.6-16.7-13.7-27.4-13.7s-21 5.1-27.4 13.6c-2.8 3.6-6.9 5.7-11.6 5.7s-8.8-2-11.5-5.6c-6.5-8.6-16.7-13.7-27.4-13.7-1.8 0-3.5.2-5.2.5v-60.4c0-48.5-19-92.7-50-125.6h330c16.2 0 29.3-13.1 29.3-29.3s-13.1-29.3-29.3-29.3h-47.6c23.5-31.2 37.5-69.8 37.5-111.6V540c0-19.3-13.3-35.5-31.2-40.3 4.4-11.8 6.9-24.5 6.9-37.8 0-11-1.7-21.7-4.8-31.7 17.6-13.1 29-33.8 29-57.2v-66.1c0-101.6-83.2-184.2-185.5-184.2H762c-102.3 0-185.5 82.6-185.5 184.2V373c0 23.4 11.4 44.1 29 57.2-3.1 10-4.8 20.7-4.8 31.7 0 13.3 2.5 26 6.9 37.8-17.9 4.7-31.2 20.9-31.2 40.3v32.6c0 41.8 14 80.5 37.5 111.6H492.2c-102.3 0-185.5 82.6-185.5 184.2v66.1c0 23.4 11.4 44.1 29 57.2-3.1 10-4.8 20.7-4.8 31.7 0 13.3 2.5 26 6.9 37.8-17.9 4.7-31.2 20.9-31.2 40.3v32.6c0 39.6 12.5 76.3 33.8 106.5h-155C83.2 1240.6 0 1323.3 0 1424.8v66.1c0 23.4 11.4 44.1 29 57.2-3.1 10-4.8 20.7-4.8 31.7 0 13.3 2.5 26 6.9 37.8-17.9 4.7-31.2 20.9-31.2 40.3v32.6c0 103 84.6 186.9 188.5 186.9h469.9c17.8 0 35-2.5 51.4-7.1 16.3 4.6 33.5 7.1 51.3 7.1h469.9c19.2 0 37.8-2.9 55.3-8.2 17.5 5.3 36 8.2 55.2 8.2h469.9c103.9 0 188.5-83.8 188.5-186.9v-32.6c.2-19.3-13.1-35.5-31-40.2zm-841-611.9c11.1-1.2 21.7-4.8 31-10.7 11.5 7.2 24.9 11.1 39 11.1s27.5-3.9 39-11.1c11.5 7.2 24.9 11.1 39 11.1s27.5-3.9 39-11.1c11.5 7.2 24.9 11.1 39 11.1s27.5-3.9 39-11.1c11.5 7.2 24.9 11.1 39 11.1s27.5-3.9 39-11.1c11.5 7.2 24.9 11.1 39 11.1s27.5-3.9 39-11.1c11.5 7.2 24.9 11.1 39 11.1s27.5-3.9 39-11.1c7.7 4.8 16.2 8.1 25.2 9.8 2.3 5.7 3.7 12 3.7 18.5 0 14.3-6.2 27.2-16 36.4H1123c4.1-11.4 6.4-23.6 6.4-36.4-.1-6-.6-11.9-1.6-17.6zm25.8 128.3v-15.7h525.9v15.7c0 44.3-22.9 83.5-57.7 106.5h-283.3c-18.1 0-35.7 2.6-52.3 7.5-16.6-4.8-34.1-7.5-52.2-7.5h-114.3c21.4-30.2 33.9-66.9 33.9-106.5zM654.4 291.5h-18.2c7.7-62.1 61.2-110.3 125.9-110.3h476c64.7 0 118.2 48.2 125.9 110.3h-20.6c-16.2 0-29.3 13.1-29.3 29.3s13.1 29.3 29.3 29.3h21.6V373c0 7.3-6.3 13.1-14.1 13.1-4.7 0-8.8-2-11.5-5.6-6.5-8.6-16.7-13.7-27.4-13.7s-21 5.1-27.4 13.6c-2.8 3.7-6.9 5.7-11.5 5.7-4.7 0-8.8-2-11.5-5.6-6.5-8.6-16.7-13.7-27.4-13.7s-21 5.1-27.4 13.6c-2.8 3.6-6.9 5.7-11.5 5.7-4.7 0-8.8-2-11.5-5.6-6.4-8.6-16.7-13.7-27.5-13.7-10.7 0-21 5.1-27.4 13.6-2.8 3.7-6.9 5.7-11.5 5.7-4.7 0-8.8-2-11.5-5.6-6.5-8.6-16.7-13.7-27.4-13.7s-21 5.1-27.4 13.6c-2.8 3.7-6.9 5.7-11.6 5.7s-8.8-2-11.5-5.6c-6.4-8.6-16.7-13.7-27.5-13.7s-21 5.1-27.4 13.6c-2.8 3.6-6.9 5.7-11.5 5.7-4.7 0-8.8-2-11.5-5.6-6.4-8.6-16.7-13.7-27.5-13.7s-21 5.1-27.4 13.6c-2.8 3.6-6.9 5.7-11.5 5.7-4.7 0-8.8-2-11.5-5.6-6.5-8.6-16.7-13.7-27.4-13.7-10.8 0-21.1 5.1-27.4 13.6-2.8 3.6-6.9 5.7-11.6 5.7-4.7 0-8.8-2-11.5-5.6-6.5-8.6-16.7-13.7-27.4-13.7s-21 5.1-27.4 13.6c-2.8 3.7-6.9 5.7-11.6 5.7-4.7 0-8.8-2-11.6-5.7-6.5-8.5-16.7-13.6-27.4-13.6s-21 5.1-27.4 13.6c-2.8 3.6-6.9 5.7-11.5 5.7-7.8 0-14.1-5.9-14.1-13.1v-22.8h19.2c16.2 0 29.3-13.1 29.3-29.3-.7-16.3-13.9-29.4-30-29.4zm686.2 170.4c0 14.3-6.2 27.2-16 36.4H675.4c-9.8-9.1-16-22-16-36.4 0-6.5 1.3-12.8 3.7-18.5 9-1.7 17.5-5 25.2-9.8 11.5 7.2 24.9 11.1 39 11.1s27.5-3.9 39-11.1c11.5 7.2 24.9 11.1 39 11.1s27.5-3.9 39-11.1c11.5 7.2 24.9 11.1 39 11.1s27.5-3.9 39-11.1c11.5 7.2 24.9 11.1 39 11.1s27.5-3.9 39-11.1c11.5 7.2 24.9 11.1 39 11.1s27.5-3.9 39-11.1c11.5 7.2 24.9 11.1 39 11.1s27.5-3.9 39-11.1c11.5 7.2 24.9 11.1 39 11.1s27.5-3.9 39-11.1c11.5 7.2 24.9 11.1 39 11.1s27.5-3.9 39-11.1c7.7 4.8 16.2 8.1 25.2 9.8 1.8 5.7 3.1 12 3.1 18.5zm-705.5 94.9h729.7v15.7c0 16.1-3.1 31.6-8.6 45.8h-28c-16.2 0-29.3 13.1-29.3 29.3 0 11.3 6.4 21.1 15.8 26-5 3.9-10.4 7.4-15.9 10.5h-222.1c-18.9 0-37.1 2.8-54.2 8.1-17.2-5.2-35.4-8.1-54.3-8.1h-267c-4.2-2.3-8.2-4.9-12.1-7.7 13.9-2.3 24.5-14.3 24.5-28.9 0-16.2-13.1-29.3-29.3-29.3h-30c-3.5 0-6.8.6-9.9 1.8-6-14.7-9.3-30.8-9.3-47.6v-15.6zM365.3 868.4c0-69.3 56.9-125.6 126.9-125.6h476c69.9 0 126.9 56.4 126.9 125.6v66.1c0 7.2-6.3 13.1-14.1 13.1-4.7 0-8.8-2-11.6-5.7-6.5-8.5-16.7-13.6-27.4-13.6s-21 5.1-27.4 13.6c-2.8 3.6-6.9 5.7-11.5 5.7-4.7 0-8.8-2-11.5-5.6-6.5-8.6-16.7-13.7-27.4-13.7-10.8 0-21 5.1-27.4 13.6-2.8 3.7-6.9 5.7-11.6 5.7-4.7 0-8.8-2-11.6-5.7-6.5-8.5-16.7-13.6-27.4-13.6s-21 5.1-27.4 13.6c-2.8 3.6-6.9 5.7-11.6 5.7-4.7 0-8.8-2-11.6-5.7-6.5-8.5-16.7-13.6-27.4-13.6s-20.9 5.1-27.4 13.6c-2.7 3.6-6.8 5.6-11.5 5.6s-8.8-2-11.6-5.7c-6.5-8.5-16.7-13.6-27.4-13.6-10.8 0-21 5.1-27.4 13.6-2.8 3.6-6.9 5.7-11.6 5.7-4.7 0-8.8-2-11.5-5.6-6.5-8.6-16.7-13.7-27.4-13.7s-21 5.1-27.4 13.6c-2.8 3.6-6.9 5.6-11.5 5.6-4.7 0-8.8-2-11.6-5.7-6.5-8.5-16.7-13.6-27.4-13.6-10.8 0-21 5.1-27.4 13.6-2.8 3.6-6.9 5.7-11.5 5.7s-8.8-2-11.6-5.7c-6.5-8.5-16.7-13.6-27.4-13.6s-20.9 5.1-27.4 13.6c-2.8 3.6-6.9 5.7-11.5 5.7s-8.8-2-11.5-5.6c-6.5-8.6-16.7-13.7-27.4-13.7s-21 5.1-27.4 13.6c-2.8 3.6-6.9 5.7-11.5 5.7-7.8 0-14.1-5.9-14.1-13.1l-.5-65.9zm0 250H1095v15.7c0 44.3-22.9 83.5-57.7 106.5H758.1c-16.7 0-32.9 2.2-48.3 6.4-15.4-4.1-31.6-6.4-48.3-6.4H422.9c-34.7-23-57.7-62.2-57.7-106.5l.1-15.7zm24.2-94.9c0-6.5 1.3-12.8 3.7-18.5 9-1.7 17.5-5 25.2-9.8 11.5 7.2 24.9 11.1 39 11.1s27.5-3.9 39-11.1c11.5 7.2 24.9 11.1 39 11.1s27.5-3.9 39-11.1c11.5 7.2 24.9 11.1 39 11.1s27.5-3.9 39-11.1c11.5 7.2 24.9 11.1 39 11.1s27.5-3.9 39-11.1c11.5 7.2 24.9 11.1 39 11.1s27.5-3.9 39-11.1c11.5 7.2 24.9 11.1 39 11.1s27.5-3.9 39-11.1c11.5 7.2 24.9 11.1 39 11.1s27.5-3.9 39-11.1c11.5 7.2 24.9 11.1 39 11.1s27.5-3.9 39-11.1c7.7 4.8 16.2 8.1 25.2 9.8 2.3 5.7 3.7 12 3.7 18.5 0 14.3-6.2 27.2-16 36.4H405.6c-9.9-9.2-16.1-22.1-16.1-36.4zM58.6 1424.8c0-69.3 56.9-125.6 126.9-125.6h437.2c-31 32.9-50 77.1-50 125.6v60.7c-8.2 1.6-15.7 6.2-20.7 12.9-2.8 3.6-6.9 5.7-11.5 5.7-4.7 0-8.8-2-11.6-5.7-6.5-8.5-16.7-13.6-27.4-13.6s-21 5.1-27.4 13.6c-2.8 3.6-6.9 5.7-11.5 5.7s-8.8-2-11.5-5.6c-6.5-8.6-16.7-13.7-27.4-13.7s-21 5.1-27.4 13.6c-2.8 3.7-6.9 5.7-11.6 5.7s-8.8-2-11.6-5.7c-6.5-8.5-16.7-13.6-27.4-13.6s-21 5.1-27.4 13.6c-2.8 3.6-6.9 5.7-11.6 5.7s-8.8-2-11.6-5.7c-6.5-8.5-16.7-13.6-27.4-13.6s-21 5.1-27.4 13.6c-2.8 3.6-6.9 5.7-11.5 5.7-4.7 0-8.8-2-11.6-5.7-6.5-8.5-16.7-13.6-27.4-13.6s-20.9 5.1-27.4 13.6c-2.8 3.6-6.9 5.7-11.5 5.7s-8.8-2-11.6-5.7c-6.5-8.5-16.7-13.6-27.4-13.6s-21 5.1-27.4 13.6c-2.8 3.6-6.9 5.7-11.5 5.7-7.8 0-14.1-5.9-14.1-13.1l-.3-66.2zm544.6 191.5H98.9c-9.8-9.1-16-22-16-36.4 0-6.5 1.3-12.8 3.6-18.5 9-1.7 17.6-5 25.2-9.8 11.5 7.2 24.9 11.1 39 11.1s27.5-3.9 39-11.1c11.5 7.2 24.9 11.1 39 11.1s27.5-3.9 39-11.1c11.5 7.2 24.9 11.1 39 11.1s27.5-3.9 39-11.1c11.5 7.2 24.9 11.1 39 11.1s27.5-3.9 39-11.1c11.5 7.2 24.9 11.1 39 11.1s27.5-3.9 39-11.1c11.5 7.2 24.9 11.1 39 11.1s27.5-3.9 39-11.1c6 3.8 12.6 6.6 19.5 8.5-1.2 6.4-1.9 13-1.9 19.8-.4 12.8 1.8 25 5.9 36.4zm-414.7 202.5c-71.6 0-129.9-57.5-129.9-128.3v-15.7h514v15.7c0 49.6 19.7 94.8 51.6 128.3H188.5zm442.7-394c0-69.3 56.9-125.6 126.9-125.6h476c69.9 0 126.9 56.4 126.9 125.6v66.1c0 7.3-6.3 13.2-14.1 13.2-4.7 0-8.8-2-11.6-5.7-6.5-8.5-16.7-13.6-27.4-13.6s-20.9 5.1-27.4 13.6c-2.8 3.6-6.9 5.7-11.5 5.7s-8.8-2-11.6-5.7c-6.5-8.5-16.7-13.6-27.4-13.6s-21 5.1-27.4 13.6c-2.8 3.7-6.9 5.7-11.6 5.7s-8.8-2-11.5-5.6c-6.5-8.6-16.7-13.7-27.4-13.7s-21 5.1-27.4 13.6c-2.8 3.6-6.9 5.7-11.5 5.7-4.7 0-8.8-2-11.6-5.7-6.5-8.5-16.7-13.6-27.4-13.6s-21 5.1-27.4 13.6c-2.8 3.7-6.9 5.7-11.6 5.7s-8.8-2-11.6-5.7c-6.5-8.5-16.7-13.6-27.4-13.6s-20.9 5.1-27.4 13.6c-2.8 3.6-6.9 5.7-11.5 5.7-4.7 0-8.8-2-11.5-5.6-6.4-8.6-16.7-13.7-27.5-13.7-10.7 0-21 5.1-27.4 13.6-2.8 3.6-6.9 5.7-11.5 5.7-4.7 0-8.8-2-11.6-5.7-6.5-8.5-16.7-13.6-27.4-13.6-10.8 0-21 5.1-27.4 13.6-2.8 3.7-6.9 5.7-11.6 5.7-4.7 0-8.8-2-11.6-5.7-6.5-8.5-16.7-13.6-27.4-13.6s-21 5.1-27.4 13.6c-2.8 3.6-6.9 5.7-11.5 5.7-4.7 0-8.8-2-11.6-5.7-6.5-8.5-16.7-13.6-27.4-13.6s-21 5.1-27.4 13.6c-2.8 3.7-6.9 5.7-11.6 5.7-7.8 0-14.1-5.9-14.1-13.2l-.2-66.1zm705.5 155.1c0 14.3-6.2 27.2-16 36.4H671.5c-9.9-9.1-16.1-22-16.1-36.4 0-6.5 1.3-12.8 3.7-18.5 9-1.7 17.5-5 25.2-9.8 11.5 7.2 24.9 11.1 39 11.1s27.5-3.9 39-11.1c11.5 7.2 24.9 11.1 39 11.1s27.5-3.9 39-11.1c11.5 7.2 24.9 11.1 39 11.1s27.5-3.9 39-11.1c11.5 7.2 24.9 11.1 39 11.1s27.5-3.9 39-11.1c11.5 7.2 24.9 11.1 39 11.1s27.5-3.9 39-11.1c11.5 7.2 24.9 11.1 39 11.1s27.5-3.9 39-11.1c11.5 7.2 24.9 11.1 39 11.1s27.5-3.9 39-11.1c11.5 7.2 24.9 11.1 39 11.1s27.5-3.9 39-11.1c7.7 4.8 16.2 8.1 25.2 9.8 1.9 5.7 3.2 12 3.2 18.5zm24.2 110.6c0 70.7-58.3 128.3-129.9 128.3H761.1c-71.6 0-129.9-57.5-129.9-128.3v-15.7h729.7v15.7zm580.5 0c0 16.1-3.1 31.6-8.6 45.8h-28c-16.2 0-29.3 13.1-29.3 29.3 0 11.3 6.4 21.1 15.8 26-22 17-49.7 27.2-79.8 27.2h-443.6c32-33.5 51.6-78.6 51.6-128.3v-15.7h521.9v15.7zm-547.7-128.8c9.7-1.6 18.8-5 27-10.1 11.5 7.2 24.9 11.1 39 11.1s27.5-3.9 39-11.1c11.5 7.2 24.9 11.1 39 11.1s27.5-3.9 39-11.1c11.5 7.2 24.9 11.1 39 11.1s27.5-3.9 39-11.1c11.5 7.2 24.9 11.1 39 11.1s27.5-3.9 39-11.1c11.5 7.2 24.9 11.1 39 11.1s27.5-3.9 39-11.1c11.5 7.2 24.9 11.1 39 11.1s27.5-3.9 39-11.1c7.7 4.8 16.2 8.1 25.2 9.8 2.3 5.7 3.6 12 3.6 18.5 0 14.3-6.2 27.2-16 36.4h-512.2c4.1-11.4 6.4-23.6 6.4-36.4-.4-6.2-1-12.3-2-18.2zm547.7-70.7c0 7.2-6.3 13.1-14.1 13.1-4.7 0-8.8-2-11.5-5.6-6.5-8.5-16.7-13.7-27.4-13.7s-20.9 5.1-27.4 13.6c-2.8 3.7-6.9 5.7-11.5 5.7-4.7 0-8.8-2-11.5-5.6-6.5-8.5-16.7-13.7-27.4-13.7s-20.9 5.1-27.4 13.6c-2.8 3.6-6.9 5.7-11.5 5.7-4.7 0-8.8-2-11.5-5.6-6.5-8.6-16.7-13.7-27.5-13.7-10.7 0-20.9 5.1-27.4 13.6-2.8 3.6-6.9 5.7-11.5 5.7-4.7 0-8.8-2-11.6-5.7-6.5-8.5-16.7-13.6-27.4-13.6s-21 5.1-27.4 13.6c-2.8 3.7-6.9 5.7-11.6 5.7s-8.8-2-11.5-5.6c-6.5-8.5-16.7-13.7-27.4-13.7s-21 5.1-27.4 13.6c-2.8 3.6-6.9 5.7-11.5 5.7s-8.8-2-11.5-5.6c-6.4-8.6-16.7-13.7-27.5-13.7-10.7 0-20.9 5.1-27.4 13.6-2.8 3.6-6.9 5.7-11.5 5.7-4.7 0-8.8-2-11.5-5.6-6.4-8.6-16.7-13.7-27.5-13.7-.4 0-.8.1-1.2.1v-60c0-48.5-19-92.7-50-125.6h445c64.7 0 118.2 48.2 125.9 110.3h-20.6c-16.2 0-29.3 13.1-29.3 29.3s13.1 29.3 29.3 29.3h21.6v22.8h-.4z"/><path fill="#3ABCDC" d="M1590.3 1308.5h-29.9c-16.2 0-29.3 13.1-29.3 29.3 0 16.2 13.1 29.3 29.3 29.3h29.9c16.2 0 29.3-13.1 29.3-29.3 0-16.2-13.1-29.3-29.3-29.3zm212.7 44.6h-30c-16.2 0-29.3 13.1-29.3 29.3 0 16.2 13.1 29.3 29.3 29.3h30c16.2 0 29.3-13.1 29.3-29.3s-13.1-29.3-29.3-29.3zm-125.8 56.4h-30c-16.2 0-29.3 13.1-29.3 29.3 0 16.2 13.1 29.3 29.3 29.3h30c16.2 0 29.3-13.1 29.3-29.3s-13.1-29.3-29.3-29.3zm-188.7 0h-30c-16.2 0-29.3 13.1-29.3 29.3 0 16.2 13.1 29.3 29.3 29.3h30c16.2 0 29.3-13.1 29.3-29.3s-13.1-29.3-29.3-29.3zm314.5 270.4h-30c-16.2 0-29.3 13.1-29.3 29.3 0 16.2 13.1 29.3 29.3 29.3h30c16.2 0 29.3-13.1 29.3-29.3s-13.1-29.3-29.3-29.3zm-125.8 56.4h-30c-16.2 0-29.3 13.1-29.3 29.3 0 16.2 13.1 29.3 29.3 29.3h30c16.2 0 29.3-13.1 29.3-29.3 0-16.1-13.1-29.3-29.3-29.3zm-188.7 0h-30c-16.2 0-29.3 13.1-29.3 29.3 0 16.2 13.1 29.3 29.3 29.3h30c16.2 0 29.3-13.1 29.3-29.3 0-16.1-13.1-29.3-29.3-29.3z"/></svg>