<svg xmlns="http://www.w3.org/2000/svg" viewBox="0 48 512 416"><path d="M416 48c-44.2 0-80 35.8-80 80 0 11.9 2.6 23.3 7.3 33.4L416 304l72.7-142.6c4.7-10.2 7.3-21.5 7.3-33.4 0-44.2-35.8-80-80-80zm0 128c-26.5 0-48-21.5-48-48s21.5-48 48-48 48 21.5 48 48-21.5 48-48 48zm23.9 151.5l29.1 58.2-73.8 36.9-24.8-123.8 4.2-4.2.4-.4-15.3-30-7.7 7.8-96-64-96 64-64-64L0 400l128 64 128-64 128 64 128-64-54-108-18.1 35.5zm-323.1 95.1L43 385.7 104.8 262l32.6 32.6 4.2 4.2-24.8 123.8zM240 372.2L150.5 417l23.1-115.6 4.1-2.8 62.3-41.5v115.1zm32 0V257.1l62.3 41.5 4.1 2.8L361.5 417 272 372.2z"/></svg>