<svg xmlns="http://www.w3.org/2000/svg" viewBox="0 1179.8 2000 820.2"><path fill="#353535" d="M1736.4 1790.3c-9.1 18.2-18.2 27.3-27.3 45.5-63.6 63.6-127.3 109.1-190.9 136.4l-45.5 18.2c-18.2 0-54.5 0-109.1 9.1-45.5 0-100-9.1-163.6-27.3-63.6-18.2-218.2-72.7-445.5-181.8-227.3-109.1-400-136.4-518.2-90.9 118.2-81.8 300-63.6 554.5 54.5 254.5 118.2 400 181.8 454.5 181.8 109.1 27.3 209.1 27.3 290.9 0l36.4-9.1c18.2-9.1 45.5-27.3 81.8-54.5 27.3-27.3 45.5-45.5 63.6-72.7-72.7 0-163.6 0-254.5-27.3-9.1 0-227.3-81.8-654.5-227.3-318.1-127.3-509-172.8-581.7-136.4S100 1499.4 72.7 1563c-18.2 72.7-18.2 136.4 18.2 200s100 109.1 209.1 136.4c-127.3 9.1-209.1-27.3-254.5-109.1C-9 1708.5-9 1626.7 18.2 1544.8 54.6 1463 109.1 1399.3 200 1363c90.9-36.3 181.8-27.3 281.8 9.1s227.3 81.8 372.7 127.3l509.1 181.8c100 27.3 181.8 54.5 254.5 63.6 45.5 0 90.9 9.1 127.3 9.1 9.1-18.2 18.2-45.5 27.3-81.8 9.1-81.8 0-154.5-36.4-227.3l-27.3-45.5c-27.3-36.4-54.5-72.7-90.9-100-18.2-18.2-54.5-36.4-118.2-63.6-72.7-18.2-145.5-18.2-218.2 0l-27.3 9.1c-72.7 36.4-127.3 63.6-163.6 109.1 36.4-72.7 90.9-118.2 163.6-145.5h9.1c81.8-36.4 172.7-36.4 263.6-9.1 109.1 45.5 190.9 118.2 245.5 236.4 36.4 72.7 45.5 163.6 18.2 254.5-9.1 18.2-18.2 36.4-27.3 54.5 90.9 0 172.7-18.2 236.4-54.5l-72.7 45.5c-54.5 36.4-118.1 54.6-190.8 54.6z"/></svg>