<svg xmlns="http://www.w3.org/2000/svg" viewBox="0 848.3 2000 306.7"><g fill="#353535"><path d="M120 1148.3c-10-6.7-20-10-26.7-13.3-13.3-3.3-26.7-10-40-20 0-3.3-6.7-6.7-20-20-10-13.3-16.7-23.3-20-30-10-20-13.3-33.3-13.3-46.7v-10c0-3.3 0-10 3.3-23.3 6.7-16.7 13.3-30 20-40 0-3.3 10-13.3 23.3-30 6.7-6.7 13.3-10 16.7-13.3 20-10 30-16.7 40-20 13.3-6.7 30-10 43.3-13.3 26.7-3.3 50-6.7 63.3-6.7h13.3c23.3 0 36.7 0 36.7 3.3 16.7 0 43.3 6.7 86.7 20 3.3-3.3 6.7-6.7 10-6.7 3.3-3.3 13.3-6.7 26.7-10 20-3.3 36.7-3.3 50-3.3h6.7c10 0 23.3 3.3 36.7 6.7l3.3-3.3c26.7-6.7 43.3-6.7 53.3-6.7h30c13.3 3.3 26.7 3.3 33.3 6.7 13.3 3.3 30 10 46.7 16.7 20 10 40 20 60 36.7 6.7-3.3 13.3-6.7 13.3-6.7 26.7-10 43.3-20 56.7-23.3 26.7-6.7 43.3-10 50-10 3.3 0 20-3.3 43.3-3.3 10 0 23.3 3.3 43.3 6.7 13.3 3.3 23.3 10 30 13.3 10 3.3 16.7 10 23.3 16.7 6.7 6.7 13.3 13.3 16.7 20 13.3 3.3 20 13.3 20 20 3.3 3.3 6.7 13.3 10 26.7 0 0 3.3 10 3.3 30v3.3c0 6.7-3.3 13.3-6.7 20 0 3.3-6.7 16.7-20 36.7 0 0-6.7 6.7-16.7 20-3.3 3.3-6.7 6.7-13.3 10-16.7 10-26.7 16.7-36.7 20-16.7 6.7-30 10-43.3 13.3-26.7 3.3-46.7 6.7-60 6.7H800c-10 0-30-3.3-63.3-10-30-6.7-53.3-16.7-70-23.3-3.3 0-23.3-10-60-33.3-10 3.3-20 6.7-33.3 10-3.3 3.3-16.7 3.3-40 3.3H520c-10 0-20-3.3-33.3-6.7-6.7 0-13.3-3.3-23.3-10-6.7-3.3-16.7-6.7-23.3-16.7-3.3-3.3-10-10-23.3-20-3.3-3.3-6.7-6.7-10-13.3 0 0-3.3-3.3-13.3-3.3-13.3-6.7-23.3-13.3-33.3-20-3.3 0-10-6.7-20-20-6.7-10-10-20-13.3-26.7 0 0-3.3-6.7-3.3-20v-3.3c0-6.7 0-13.3 3.3-16.7 3.3-6.7 3.3-10 10-16.7-30-10-46.7-13.3-50-13.3-30-10-56.7-13.3-83.3-13.3H200c-10 0-26.7 3.3-50 6.7-13.3 3.3-26.7 6.7-40 13.3-3.3 0-16.7 6.7-40 23.3-16.7 13.3-26.7 23.3-30 30-6.7 6.7-13.3 20-23.3 36.7-3.3 10-6.7 23.3-6.7 36.7v6.7c0 6.7 0 13.3 3.3 23.3C16.6 1052 20 1062 30 1072c0 3.3 6.7 10 23.3 23.3 16.7 13.3 26.7 20 26.7 20 20 10 33.3 13.3 36.7 16.7 16.7 10 36.7 13.3 56.7 13.3l26.7-3.3c23.3-3.3 40-6.7 53.3-13.3 3.3 0 13.3-3.3 30-13.3l16.7-13.3c10-13.3 16.7-20 20-23.3 0 0 3.3-6.7 6.7-23.3v-6.7l-3.3-16.7c0-3.3-3.3-10-10-16.7-10-13.3-16.7-20-20-20-3.3-3.3-10-6.7-20-13.3-16.7-6.7-26.7-10-26.7-10-16.7-3.3-30-6.7-46.7-6.7h-13.3c-6.7 0-20 3.3-40 10-10 3.3-16.7 10-26.7 16.7-6.7 6.7-10 10-10 13.3-3.3 3.3-6.7 10-6.7 16.7v3.3c0 10 3.3 20 10 30 6.7 6.7 16.7 13.3 30 20 16.7 3.3 30 6.7 33.3 6.7h10c20-3.3 30-6.7 30-6.7 16.7-6.7 26.7-13.3 30-20v-6.7c0-3.3-3.3-6.7-3.3-10-6.7-6.7-10-13.3-13.3-13.3 0 0-10-3.3-30-6.7h-10 16.7c6.7 0 13.3 0 20 3.3 6.7 0 10 3.3 13.3 6.7 3.3 0 6.7 3.3 13.3 10v16.7c0 3.3-3.3 6.7-10 16.7 0-3.3-6.7 0-16.7 6.7-16.7 6.7-33.3 10-53.3 10-6.7 0-16.7-3.3-30-6.7-10-3.3-20-6.7-26.7-13.3-6.7-6.7-13.3-10-13.3-13.3-6.7-6.7-10-20-10-33.3v-3.3c0-6.7 3.3-16.7 10-23.3l13.3-13.3c10-6.7 16.7-13.3 26.7-20 13.3-3.3 23.3-6.7 33.3-10 0 0 10-3.3 30-3.3 16.7 3.3 33.3 3.3 46.7 6.7 13.3 3.3 26.7 10 40 20 6.7 6.7 13.3 16.7 26.7 30 3.3 3.3 6.7 10 10 16.7 0 0 3.3 6.7 3.3 23.3v13.3c0 3.3-3.3 10-6.7 26.7-6.7 10-13.3 16.7-20 26.7-3.3 3.3-10 6.7-23.3 16.7-3.3 3.3-10 6.7-23.3 13.3-23.3 6.7-36.7 10-40 10-13.3 3.3-30 3.3-50 3.3-13.4-.7-30.1-4-50.1-7.4zm213.3-206.6c3.3 10 6.7 16.7 6.7 16.7 3.3 6.7 6.7 13.3 16.7 23.3 0 0 6.7 6.7 16.7 13.3 16.7 6.7 23.3 13.3 26.7 13.3 0 0 0-3.3-3.3-10s-3.3-16.7-3.3-30L400 955c0-3.3 3.3-10 10-23.3-23.3-13.3-43.3-23.3-63.3-33.3-3.3 0-3.3 3.3-10 13.3 0 0-3.3 6.7-3.3 16.7v13.3zm30-53.4C380 895 400 905 416.7 915c0-3.3 6.7-10 20-20 16.7-13.3 26.7-20 30-20-6.7-3.3-16.7-3.3-33.3-6.7-16.7 0-33.3 3.3-50 6.7-10 3.3-16.7 6.7-23.3 10-3.4 3.3-.1 3.3 3.2 3.3zm50 123.4c13.3 3.3 26.7 6.7 36.7 6.7 10 0 20 0 26.7-3.3 13.3 0 26.7-3.3 40-6.7L483.3 985c-26.7-20-50-36.7-70-46.7-3.3 3.3-6.7 13.3-10 30V985c6.7 13.3 6.7 23.3 10 26.7zm30 36.6c6.7 6.7 13.3 10 20 13.3 6.7 3.3 13.3 6.7 26.7 10 3.3 3.3 16.7 3.3 36.7 6.7h20c6.7 0 23.3-3.3 50-10l-3.3-3.3c-3.3-3.3-26.7-16.7-66.7-46.7-16.7 3.3-26.7 6.7-26.7 6.7-20 3.3-43.3 3.3-63.3 3.3l-13.3-3.3c6.6 10 16.6 20 19.9 23.3zm20-110c6.7 3.3 33.3 23.3 86.7 60 16.7-6.7 33.3-13.3 46.7-16.7l20-10-30-23.3c-13.3-10-33.3-26.7-60-46.7-16.7-10-30-16.7-46.7-23.3-6.7 3.3-13.3 6.7-16.7 6.7-10 6.7-16.7 10-20 16.7-6.7 6.7-13.3 10-16.7 16.7l36.7 19.9zm173.4 23.4l60-33.3c-10-6.7-20-13.3-30-20-6.7-6.7-20-13.3-40-23.3-26.7-10-50-16.7-70-16.7H530c-20 3.3-30 3.3-30 3.3 3.3 0 3.3 0 6.7 3.3 6.7 0 26.7 10 56.7 30 13.3 13.3 39.9 30 73.3 56.7zm20 110c13.3 10 33.3 20 53.3 30 3.3 0 13.3 6.7 36.7 13.3 30 10 50 13.3 63.3 13.3h13.3c23.3 0 36.7-3.3 43.3-3.3 6.7 0 20-3.3 33.3-6.7 16.7-3.3 26.7-10 33.3-13.3 13.3-6.7 23.3-13.3 30-20l23.3-23.3c6.7-6.7 13.3-20 16.7-40 0 0 3.3-6.7 3.3-20v-10c-3.3-10-6.7-16.7-6.7-20-3.3-10-6.7-20-16.7-33.3-10-13.3-16.7-20-20-23.3-10-6.7-16.7-13.3-20-13.3-10-3.3-20-10-36.7-13.3-6.7 0-20-3.3-40-6.7-20 0-36.7 3.3-50 3.3-20 3.3-33.3 10-43.3 13.3-23.3 10-40 16.7-50 23.3 16.7 10 36.7 23.3 70 43.3 0 0 6.7-3.3 13.3-3.3 13.3-6.7 20-10 23.3-10 13.3-3.3 23.3-3.3 33.3-3.3h6.7c16.7 3.3 26.7 3.3 26.7 6.7 3.3 0 13.3 6.7 23.3 16.7 6.7 10 10 16.7 10 23.3v3.3c0 6.7-3.3 13.3-6.7 23.3-3.3 6.7-10 10-13.3 13.3-6.7 3.3-13.3 10-20 13.3-16.7 6.7-26.7 10-26.7 10-13.3 3.3-26.7 6.7-40 3.3h-6.7l-23.3-3.3c-6.7 0-16.7-3.3-33.3-6.7-26.7-3.3-36.7-6.7-43.3-10-6.7-3.3-23.3-10-43.3-26.7-10-6.7-26.7-20-46.7-36.7-3.3 3.3-6.7 3.3-6.7 3.3-20 10-40 16.7-60 23.3 33.3 23.3 53.3 40 66.7 46.7l40-16.7c6.7-3.3 13.3-6.7 20-10 0 0 3.3 0 10 3.3-6.7 6.7-26.7 16.7-56.7 30l17 13.6zm-10-103.4c23.3 16.7 46.7 33.3 60 43.3l13.3-6.7c23.3-13.3 40-23.3 46.7-26.7h-3.3c-3.3 0-26.7-13.3-63.3-43.3-16.8 10.1-36.8 20.1-53.4 33.4zm113.3 70c10 6.7 20 10 23.3 10 6.7 3.3 20 3.3 40 6.7 20 0 36.7-3.3 53.3-10 6.7-3.3 16.7-10 26.7-16.7 6.7-3.3 10-10 13.3-23.3v-6.7c0-6.7-3.3-13.3-10-23.3-3.3-3.3-10-6.7-16.7-10-16.7-3.3-23.3-3.3-26.7-6.7H850c-3.3 0-13.3 0-26.7 6.7-16.7 6.7-23.3 10-26.7 10 0 0 3.3 0 10 3.3 23.3 10 40 16.7 50 16.7h16.7l3.3 3.3c-3.3 3.3-10 3.3-16.7 3.3h-16.7c-6.7 0-16.7-3.3-30-6.7-16.7-3.3-30-10-33.3-10-6.7 3.3-10 3.3-13.3 6.7-20 10-33.3 16.7-36.7 20l-10 6.7c20.1 13.4 33.4 20 40.1 20z"/><path d="M1823.3 1151.7c-20 0-36.7 0-50-3.3-6.7 0-20-3.3-40-10-13.3-6.7-23.3-10-26.7-13.3-13.3-10-20-16.7-23.3-20-6.7-6.7-13.3-16.7-20-26.7-3.3-16.7-6.7-26.7-6.7-26.7v-13.3c0-16.7 3.3-23.3 3.3-23.3 3.3-6.7 6.7-13.3 10-16.7 13.3-13.3 23.3-23.3 30-26.7 13.3-6.7 26.7-13.3 40-20 13.3-3.3 26.7-6.7 46.7-6.7 20 0 30 0 30 3.3 10 3.3 20 6.7 33.3 10 10 3.3 16.7 10 26.7 20 3.3 0 6.7 6.7 13.3 13.3s10 13.3 10 23.3v3.3c0 13.3-3.3 26.7-10 33.3 0 0-3.3 6.7-13.3 13.3-6.7 6.7-16.7 10-26.7 13.3-13.3 3.3-23.3 3.3-30 3.3-16.7 0-36.7 0-53.3-6.7-10-6.7-16.7-10-20-10-6.7-10-10-16.7-10-16.7v-6.7c0-6.7 0-10 3.3-13.3 6.7-6.7 10-10 13.3-10 3.3-3.3 6.7-3.3 16.7-6.7 6.7 0 13.3-3.3 20-3.3h16.7-10c-20 3.3-30 6.7-30 6.7-3.3 3.3-10 6.7-13.3 13.3-3.3 3.3-3.3 6.7-3.3 10v6.7c3.3 6.7 13.3 13.3 30 23.3 0 0 10 3.3 33.3 6.7h13.3c6.7 0 16.7-3.3 33.3-6.7 6.7-6.7 16.7-13.3 23.3-20 6.7-10 10-20 10-30v-3.3c0-10-3.3-13.3-6.7-20 0-3.3-3.3-6.7-10-13.3-10-6.7-16.7-13.3-26.7-16.7-20-6.7-33.3-10-43.3-10h-13.3c-16.7 0-30 3.3-46.7 6.7 0 0-10 3.3-30 10-10 10-16.7 13.3-20 16.7-3.3 0-10 6.7-20 20-6.7 10-10 16.7-10 16.7l-3.3 13.3v6.7c3.3 16.7 6.7 26.7 6.7 26.7 3.3 3.3 6.7 13.3 20 26.7l20 16.7c16.7 10 26.7 13.3 30 13.3 10 3.3 30 10 53.3 13.3l30 3.3c20 0 40-3.3 60-13.3 3.3 0 16.7-6.7 36.7-16.7 0 0 10-6.7 26.7-20s23.3-23.3 23.3-23.3c10-13.3 13.3-23.3 16.7-30 3.3-10 6.7-20 6.7-23.3v-6.7c-3.3-13.3-3.3-26.7-6.7-36.7-10-20-16.7-33.3-23.3-40-3.3-6.7-13.3-16.7-30-30-23.3-16.7-36.7-23.3-40-23.3-13.3-6.7-26.7-10-40-13.3-26.7-3.3-43.3-6.7-53.3-6.7h-6.7c-23.3 0-53.3 3.3-83.3 13.3-3.3 0-20 6.7-50 16.7 3.3 3.3 6.7 10 10 16.7-3.3 0-3.3 3.3-3.3 10v3.3c0 13.3-3.3 20-3.3 20-3.3 6.7-6.7 16.7-16.7 26.7-10 13.3-16.7 20-20 20-6.7 6.7-20 13.3-33.3 20-10 3.3-13.3 6.7-13.3 6.7-3.3 6.7-6.7 13.3-10 16.7-13.3 13.3-20 20-23.3 20-10 6.7-16.7 13.3-26.7 16.7-10 6.7-16.7 6.7-23.3 10-13.3 3.3-26.7 6.7-33.3 6.7H1450c-23.3 0-36.7-3.3-40-6.7-13.3-3.3-23.3-6.7-33.3-10-36.7 23.3-56.7 36.7-60 36.7-20 10-43.3 16.7-73.3 26.7-33.3 6.7-56.7 10-66.7 10H1160c-16.7 0-36.7-3.3-63.3-6.7-13.3-3.3-26.7-6.7-43.3-13.3-6.7-3.3-20-10-36.7-20-6.7-3.3-10-6.7-13.3-10l-20-20c-10-23.3-16.7-33.3-16.7-40-3.3-10-6.7-16.7-6.7-20v-3.3c0-20 0-33.3 3.3-33.3 0-13.3 3.3-23.3 6.7-26.7 3.3-6.7 6.7-16.7 13.3-26.7 3.3-6.7 10-13.3 20-20 6.7-6.7 16.7-13.3 23.3-16.7 6.7-3.3 16.7-6.7 30-13.3 20-3.3 33.3-6.7 43.3-6.7 26.7 0 40 0 46.7 3.3 6.7 0 23.3 3.3 50 10 13.3 3.3 33.3 13.3 60 23.3 0 0 6.7 3.3 13.3 6.7 23.3-13.3 43.3-26.7 63.3-36.7 20-6.7 33.3-13.3 46.7-16.7 6.7-3.3 20-6.7 33.3-6.7h30c10 0 26.7 3.3 53.3 6.7l3.3 3.3c13.3-3.3 26.7-6.7 40-6.7h6.7c16.7 0 33.3 0 53.3 3.3 13.3 3.3 23.3 6.7 26.7 10 3.3 3.3 10 3.3 10 6.7 43.3-13.3 73.3-20 90-20 0 0 13.3 0 40-3.3h13.3c16.7 0 36.7 3.3 66.7 6.7 13.3 3.3 30 6.7 46.7 13.3 6.7 6.7 20 13.3 40 23.3 3.3 0 6.7 6.7 16.7 13.3 16.7 16.7 23.3 26.7 26.7 30 6.7 10 13.3 23.3 20 43.3 0 13.3 3.3 23.3 3.3 23.3v10c0 13.3-3.3 26.7-13.3 46.7-3.3 6.7-10 16.7-20 30-10 10-20 16.7-20 16.7-13.3 10-26.7 16.7-40 23.3-6.7 3.3-16.7 6.7-30 13.3-23.3 6.9-39.9 10.3-53.3 10.3zm-166.6-230c0-10-3.3-16.7-3.3-16.7-3.3-6.7-6.7-13.3-10-13.3-20 10-40 20-63.3 33.3 6.7 13.3 10 20 10 23.3l3.3 13.3c0 13.3 0 23.3-3.3 30-3.3 6.7-3.3 10-3.3 10 3.3 0 13.3-3.3 30-13.3 10-10 16.7-13.3 16.7-13.3 6.7-10 13.3-16.7 16.7-23.3 0 0 3.3-6.7 6.7-20v-10zm-26.7-43.4c-6.7-3.3-13.3-6.7-23.3-10-16.7-6.7-36.7-10-53.3-6.7-16.7 3.3-30 3.3-36.7 6.7 3.3 0 13.3 6.7 30 16.7l20 20c16.7-10 36.7-16.7 53.3-26.7h10zm-50 100v-16.7c-3.3-16.7-6.7-26.7-10-30-20 13.3-43.3 30-70 50l-33.3 23.3c13.3 3.3 26.7 6.7 40 6.7 6.7 0 16.7 3.3 26.7 3.3s23.3-3.3 36.7-6.7c6.6-6.5 9.9-16.5 9.9-29.9zm-13.3 40l-13.3 3.3c-23.3 0-43.3 0-66.7-3.3-3.3 0-10-3.3-30-6.7-40 30-63.3 46.7-66.7 50l-3.3 3.3c26.7 6.7 43.3 10 50 10h20c20-3.3 33.3-3.3 40-6.7 10-3.3 20-6.7 26.7-10 6.7-3.3 13.3-6.7 20-13.3 6.6-6.6 13.3-16.6 23.3-26.6zm-6.7-110c-3.3-6.7-10-13.3-16.7-16.7-3.3-3.3-10-10-23.3-16.7-3.3-3.3-6.7-3.3-16.7-6.7-16.7 6.7-30 13.3-46.7 23.3-26.7 20-50 36.7-63.3 46.7l-26.7 26.7 20 10c13.3 3.3 30 10 46.7 16.7 53.3-36.7 83.3-56.7 90-60l36.7-23.3zm-213.3 43.4c33.3-26.7 60-43.3 80-56.7 30-20 50-30 56.7-30 0 0 3.3 0 6.7-3.3 0 0-10-3.3-30-6.7h-30c-20 0-43.3 6.7-73.3 16.7-20 10-33.3 20-43.3 23.3-10 6.7-20 13.3-30 20l63.2 36.7zm-3.4 103.3c-30-16.7-50-26.7-56.7-30 3.3-3.3 6.7-3.3 10-3.3 6.7 3.3 13.3 6.7 20 10l36.7 16.7c13.3-10 36.7-23.3 70-46.7-20-6.7-40-13.3-60-23.3 0 0-3.3-3.3-6.7-3.3-20 16.7-36.7 30-50 36.7-20 13.3-36.7 23.3-43.3 26.7-6.7 3.3-16.7 10-36.7 16.7-16.7 6.7-30 6.7-36.7 6.7h-30c-13.3 0-26.7 0-40-6.7-3.3 0-13.3-3.3-30-10-6.7-3.3-16.7-10-20-13.3s-6.7-10-13.3-16.7c-6.7-10-6.7-16.7-6.7-23.3v-3.3c0-6.7 3.3-16.7 10-26.7 10-10 20-16.7 23.3-16.7 3.3-3.3 13.3-3.3 30-6.7h6.7c10 0 23.3 0 36.7 3.3 3.3 0 10 3.3 23.3 10 6.7 3.3 10 3.3 13.3 6.7 30-20 56.7-33.3 70-43.3-13.3-6.7-30-16.7-53.3-23.3-10-3.3-26.7-10-46.7-13.3-13.2-3.6-33.2-3.6-53.2-3.6-23.3 3.3-36.7 3.3-40 6.7-13.3 3.3-26.7 10-36.7 13.3-6.7 0-13.3 6.7-23.3 13.3l-23.3 23.3C976.7 945 973.3 955 970 965c0 3.3-3.3 10-3.3 23.3v10c3.3 13.3 3.3 20 6.7 20 6.7 20 13.3 33.3 20 40 6.7 13.3 16.7 23.3 20 26.7 6.7 6.7 16.7 13.3 30 20 6.7 3.3 16.7 6.7 36.7 13.3 13.3 3.3 26.7 6.7 33.3 6.7 3.3 0 20 3.3 43.3 3.3h13.3c10 0 33.3-6.7 63.3-13.3 20-6.7 33.3-13.3 36.7-13.3 20-10 40-20 53.3-30l20-16.7zm-6.6-96.7c-20-10-36.7-23.3-60-33.3-40 30-63.3 43.3-66.7 43.3h-3.3c6.7 3.3 23.3 13.3 50 26.7l13.3 6.7c16.7-6.7 36.7-20 66.7-43.4zm-76.7 53.4l-10-6.7c-3.3-3.3-16.7-13.3-36.7-23.3-3.3-3.3-6.7-3.3-13.3-6.7-3.3 3.3-16.7 6.7-33.3 13.3-16.7 3.3-26.7 6.7-30 6.7H1120c-6.7 0-13.3 0-16.7-3.3l3.3-3.3h16.6c6.7 0 23.3-6.7 50-16.7 6.7-3.3 10-3.3 10-3.3s-10-3.3-26.7-10c-13.3-3.3-23.3-6.7-26.7-6.7h-13.3c-3.3 0-10 3.3-26.7 6.7-6.7 3.3-13.3 6.7-16.7 10-6.7 10-10 16.7-10 23.3v6.7c3.3 13.3 6.7 20 13.3 23.3 10 6.7 20 13.3 26.7 16.7 16.7 6.7 33.3 10 53.3 10 20-3.3 33.3-3.3 40-6.7 6.7 0 16.7-3.3 26.7-10 .2 0 13.6-6.7 36.9-20z"/></g></svg>