<svg xmlns="http://www.w3.org/2000/svg" viewBox="255.9 0 1488.2 2000"><path d="M1572.7 203.3h-295.9C1238.8 85.3 1128.6 0 998 0S757.1 85.3 719.2 203.3H427.3c-94.7 0-171.4 76.7-171.4 171.4v1453.9c0 94.7 76.7 171.4 171.4 171.4h1145.3c94.7 0 171.4-76.7 171.4-171.4V374.7c.1-94.7-76.7-171.4-171.3-171.4zM998 190.6c56.3 0 102 45.7 102 102s-45.7 102-102 102-102-45.7-102-102 45.6-102 102-102zm447.3 1538.8H554.7c-24.9 0-44.9-20-44.9-44.9V597.6c0-24.9 20-44.9 44.9-44.9h890.6c24.9 0 44.9 20 44.9 44.9v1086.9c0 24.9-20 44.9-44.9 44.9z"/><path d="M643.3 684.1h713.5v121.2H643.3zm0 209h713.5v121.2H643.3zm0 208.9h713.5v121.2H643.3zm0 209h356.3v121.2H643.3z"/></svg>