<svg xmlns="http://www.w3.org/2000/svg" viewBox="1.5 0 1997.1 2000"><path fill="#887F82" d="M1580.6 1238.9c-40.9-42.6-90.3-65.4-142.7-65.4-51.9 0-101.7 22.4-144.4 65l-133.4 133c-11-5.9-21.9-11.4-32.5-16.9-15.2-7.6-29.5-14.8-41.8-22.4-124.9-79.4-238.5-182.8-347.4-316.6-52.8-66.7-88.2-122.8-114-179.8 34.6-31.7 66.7-64.6 97.9-96.2 11.8-11.8 23.6-24.1 35.5-35.9 88.6-88.6 88.6-203.5 0-292.1L642.7 296.3c-13.1-13.1-26.6-26.6-39.3-40.1-25.3-26.2-51.9-53.2-79.4-78.5-40.9-40.5-89.9-62.1-141.4-62.1s-101.3 21.5-143.5 62.1l-.8.8L94.8 323.4c-54 54-84.8 119.9-91.6 196.3-10.1 123.3 26.2 238.1 54 313.2 68.4 184.5 170.5 355.4 322.9 538.6 184.9 220.8 407.3 395.1 661.5 517.9 97.1 46 226.7 100.5 371.5 109.7 8.9.4 18.2.8 26.6.8 97.5 0 179.4-35 243.6-104.7.4-.8 1.3-1.3 1.7-2.1 21.9-26.6 47.3-50.7 73.9-76.4 18.2-17.3 36.7-35.5 54.9-54.5 41.8-43.5 63.7-94.1 63.7-146.1 0-52.3-22.4-102.6-65-144.8l-231.9-232.4zm151.1 444.5c-.4 0-.4.4 0 0-16.5 17.7-33.3 33.8-51.5 51.5-27.4 26.2-55.3 53.6-81.5 84.4-42.6 45.6-92.9 67.1-158.7 67.1-6.3 0-13.1 0-19.4-.4-125.4-8-241.9-57-329.2-98.8-238.9-115.7-448.7-279.9-623-488-143.9-173.5-240.2-333.9-303.9-506.1-39.3-105.1-53.6-187-47.3-264.2 4.2-49.4 23.2-90.3 58.3-125.4l143.9-143.9c20.7-19.4 42.6-30 64.2-30 26.6 0 48.1 16 61.6 29.5l1.3 1.3c25.7 24.1 50.2 49 76 75.6 13.1 13.5 26.6 27 40.1 40.9l115.2 115.2c44.7 44.7 44.7 86.1 0 130.9-12.2 12.2-24.1 24.5-36.3 36.3-35.5 36.3-69.2 70.1-106 103-.8.8-1.7 1.3-2.1 2.1-36.3 36.3-29.5 71.8-21.9 95.8.4 1.3.8 2.5 1.3 3.8 30 72.6 72.2 141 136.3 222.5l.4.4c116.5 143.5 239.3 255.4 374.8 341.1 17.3 11 35 19.8 51.9 28.3 15.2 7.6 29.5 14.8 41.8 22.4 1.7.8 3.4 2.1 5.1 3 14.4 7.2 27.9 10.6 41.8 10.6 35 0 57-22 64.2-29.1l144.4-144.4c14.4-14.4 37.1-31.7 63.7-31.7 26.2 0 47.7 16.5 60.8 30.8l.8.8 232.6 232.6c43.4 43 43.4 87.4.3 132.1z"/><path fill="#3ABCDC" d="M1080.8 475.7c110.6 18.6 211.1 70.9 291.3 151.1 80.2 80.2 132.1 180.7 151.1 291.3 4.6 27.9 28.7 47.3 56.1 47.3 3.4 0 6.3-.4 9.7-.8 31.2-5.1 51.9-34.6 46.9-65.8-22.8-133.8-86.1-255.8-182.8-352.5-96.7-96.7-218.7-160-352.5-182.8-31.2-5.1-60.4 15.6-65.8 46.4-5.5 30.8 14.8 60.8 46 65.8zm916.9 406.5c-37.6-220.3-141.4-420.8-301-580.4S1336.6 38.4 1116.3.8c-30.8-5.5-59.9 15.6-65.4 46.4-5.1 31.2 15.6 60.4 46.9 65.8 196.7 33.3 376.1 126.6 518.8 268.9 142.7 142.7 235.5 322.1 268.9 518.8 4.6 27.9 28.7 47.3 56.1 47.3 3.4 0 6.3-.4 9.7-.8 30.8-4.6 51.9-34.1 46.4-65z"/></svg>