<svg xmlns="http://www.w3.org/2000/svg" viewBox="485.5 99.2 1593.6 2000.1"><path fill="#887F82" d="M1283 99.2c-439.2 0-797.6 358.3-797.6 799.3 0 53.4 5.2 106.8 15.6 158.4 0 3.4 1.8 6.9 1.8 12.1 87.9 394.4 706.3 987.1 732.1 1011.2 13.8 13.8 31 19 48.2 19 17.2 0 34.4-6.9 48.2-19 25.9-25.9 640.8-616.7 728.7-1002.6 0-3.4 1.8-6.9 1.8-10.3 12.1-55.1 17.2-112 17.2-168.8 1.6-441-356.7-799.3-796-799.3zm640.8 942.3v5.2c-65.4 286-494.4 737.3-640.8 883.7-146.4-146.4-577.1-597.8-642.6-890.7 0-3.4 0-5.2-1.8-8.7-8.7-44.8-13.8-89.6-13.8-134.3 0-361.8 294.6-658 656.3-658s658 294.6 658 658c.3 50.1-5 98.3-15.3 144.8z"/><path fill="#3ABCDC" d="M1283 548.9c-148.1 0-267 120.6-267 267s120.6 267 267 267 267-118.9 267-267-118.9-267-267-267zm0 394.4c-70.7 0-127.4-56.9-127.4-127.4s56.9-127.4 127.4-127.4 127.4 56.9 127.4 127.4-56.7 127.4-127.4 127.4z"/></svg>