<svg xmlns="http://www.w3.org/2000/svg" viewBox="16.9 0 1966.3 2000"><path fill="#3ABCDC" d="M700.7 965.9C625 880.4 524.1 833.3 416.4 833.3s-208.6 47.1-284.2 132.6c-153.7 173.7-153.7 456.3 0 630L416.4 1917l284.2-321.1c153.8-173.7 153.8-456.3.1-630zm-49.9 585.8l-234.3 264.7-234.3-264.7c-132.2-149.3-132.2-392.3 0-541.6 62.8-71 146-110.1 234.2-110.1s171.5 39.1 234.3 110.1c132.2 149.3 132.2 392.2.1 541.6z"/><path fill="#887F82" d="M1624.9 816.9L1840.4 574c115.9-130.7 115.9-343.2 0-473.9C1783 35.6 1706.5 0 1624.9 0s-158.1 35.6-215.5 100.2c-115.9 130.7-115.9 343.2 0 473.9l215.5 242.8zm-165.6-672.5c44.5-50.2 103.3-77.8 165.6-77.8s121.1 27.6 165.6 77.8c94.3 106.2 94.3 279.1 0 385.3l-165.6 186.7-165.6-186.7c-94.3-106.2-94.3-279 0-385.3zm294.2 1672.8c-18-4-35.8 7.2-39.8 25.2-3.8 17-11.3 32.6-22.1 46.4-11.4 14.5-8.9 35.4 5.6 46.8 6.1 4.8 13.4 7.1 20.6 7.1 9.9 0 19.7-4.4 26.2-12.7 16.8-21.3 28.8-46.5 34.7-72.9 4-18-7.3-35.8-25.2-39.9zm-687-783.9c-14.4 0-28.5-2.6-41.7-7.7-17.1-6.5-36.4 2.1-43 19.3-6.5 17.2 2.1 36.5 19.3 43 20.9 7.9 42.8 12 65.4 12h11.9c18.4 0 33.3-14.9 33.3-33.3s-14.9-33.3-33.3-33.3h-11.9zm-79.1-210.8c6 0 12.1-1.6 17.6-5 14.8-9.2 31.1-14.8 48.5-16.8 18.3-2 31.5-18.5 29.5-36.8s-18.4-31.4-36.8-29.5c-27.4 3-53.1 11.9-76.5 26.5-15.6 9.7-20.4 30.3-10.6 45.9 6.3 10.2 17.1 15.7 28.3 15.7zM602.1 1933.3h-66.7c-18.4 0-33.3 14.9-33.3 33.3s14.9 33.3 33.3 33.3h66.7c18.4 0 33.3-14.9 33.3-33.3s-14.9-33.3-33.3-33.3zm597.7-600c-2.9 0-5.7.1-8.5.2-18.4.7-32.7 16.3-31.9 34.7.7 17.9 15.5 32 33.3 32h1.4l65.3-.1c18.4 0 33.3-14.9 33.3-33.3s-14.9-33.3-33.3-33.3h-59.6v-.2zM1183.1 800h66.7c18.4 0 33.3-14.9 33.3-33.3s-14.9-33.3-33.3-33.3h-66.7c-18.4 0-33.3 14.9-33.3 33.3s14.9 33.3 33.3 33.3zm409.5 533.3c-18.4 0-33.3 14.9-33.3 33.3s14.9 33.3 33.3 33.3h66.7c18.4 0 33.3-14.9 33.3-33.3s-14.9-33.3-33.3-33.3h-66.7zm119.1-266.6c0-18.4-14.9-33.3-33.3-33.3h-66.7c-18.4 0-33.3 14.9-33.3 33.3s14.9 33.3 33.3 33.3h66.7c18.4 0 33.3-14.9 33.3-33.3zM1392.6 1400h66.7c18.4 0 33.3-14.9 33.3-33.3s-14.9-33.3-33.3-33.3h-66.7c-18.4 0-33.3 14.9-33.3 33.3s14.9 33.3 33.3 33.3zm57.2-600c18.4 0 33.3-14.9 33.3-33.3s-14.9-33.3-33.3-33.3h-66.7c-18.4 0-33.3 14.9-33.3 33.3s14.9 33.3 33.3 33.3h66.7zm-238.1 233.3c-18.4 0-33.3 14.9-33.3 33.3s14.9 33.3 33.3 33.3h66.7c18.4 0 33.3-14.9 33.3-33.3s-14.9-33.3-33.3-33.3h-66.7zm300 33.4c0-18.4-14.9-33.3-33.3-33.3h-66.7c-18.4 0-33.3 14.9-33.3 33.3s14.9 33.3 33.3 33.3h66.7c18.4 0 33.3-14.9 33.3-33.3zm469.2 121c-2.9-18.2-20.1-30.6-38.2-27.6-18.2 2.9-30.6 20-27.6 38.2.9 5.9 1.5 12 1.4 18.4 0 11.2-1.6 22.3-4.7 32.9-5.2 17.7 4.9 36.2 22.6 41.4 3.1.9 6.3 1.3 9.4 1.3 14.4 0 27.7-9.4 32-24 4.9-16.8 7.4-34.1 7.4-51.4 0-9.6-.8-19.4-2.3-29.2zm-578.8 745.6h-66.7c-18.4 0-33.3 14.9-33.3 33.3s14.9 33.3 33.3 33.3h66.7c18.4 0 33.3-14.9 33.3-33.3s-14.9-33.3-33.3-33.3zm-200 0h-66.7c-18.4 0-33.3 14.9-33.3 33.3s14.9 33.3 33.3 33.3h66.7c18.4 0 33.3-14.9 33.3-33.3s-14.9-33.3-33.3-33.3zm366.7-266.6c0-18.4-14.9-33.3-33.3-33.3h-66.7c-18.4 0-33.3 14.9-33.3 33.3s14.9 33.3 33.3 33.3h66.7c18.4 0 33.3-14.9 33.3-33.3zm-200 0c0-18.4-14.9-33.3-33.3-33.3h-66.7c-18.4 0-33.3 14.9-33.3 33.3s14.9 33.3 33.3 33.3h66.7c18.4 0 33.3-14.9 33.3-33.3zm231 266.6h-64.3c-18.4 0-33.3 14.9-33.3 33.3s14.9 33.3 33.3 33.3h65.7l1-33.3v33.3c18.4 0 32.2-14.9 32.2-33.3-.1-18.4-16.2-33.3-34.6-33.3zm117.9-176c7.2 0 14.5-2.3 20.6-7.1 14.5-11.4 17-32.4 5.6-46.8-16.8-21.3-38.4-38.9-62.6-50.9-16.6-8.2-36.5-1.5-44.7 15s-1.5 36.5 15 44.7c15.4 7.6 29.2 18.9 39.9 32.5 6.5 8.2 16.3 12.6 26.2 12.6zm127.1-433c-14.3 6-29.4 9-45.1 9h-7.2c-18.4 0-33.3 14.9-33.3 33.3s14.9 33.3 33.3 33.3h7.2c24.5 0 48.4-4.8 70.8-14.2 17-7.1 25-26.7 17.8-43.6-7-16.9-26.6-24.9-43.5-17.8zM934.3 995.2c17.5-5.8 27-24.6 21.3-42.1-3.8-11.7-5.8-23.9-5.8-36.3 0-5 .3-10.1.9-15 2.3-18.3-10.6-35-28.9-37.2-18.8-2.1-35 10.7-37.2 28.9-.9 7.5-1.4 15.2-1.5 23.1 0 19.6 3.1 38.9 9.1 57.3 4.6 14 17.7 22.9 31.7 22.9 3.4 0 7-.5 10.4-1.6zm-132.2 938.1h-66.7c-18.4 0-33.3 14.9-33.3 33.3s14.9 33.3 33.3 33.3h66.7c18.4 0 33.3-14.9 33.3-33.3s-14.9-33.3-33.3-33.3zm335.3-246.8c12.7 0 24.7-7.2 30.3-19.5 7.6-16.8.3-36.5-16.4-44.2-15.6-7.2-29.8-17.9-40.9-31.2-11.9-14.1-32.9-15.9-47-4.1s-15.9 32.9-4.1 47c17.5 20.8 39.7 37.7 64.2 48.9 4.6 2.1 9.3 3.1 13.9 3.1zm754.1-628.6c-23.8-13.8-49.8-21.9-77.2-24.1-18.3-1.3-34.4 12.2-35.8 30.6s12.3 34.4 30.6 35.8c17.4 1.4 33.9 6.5 49 15.3 5.3 3.1 11 4.5 16.7 4.5 11.5 0 22.7-6 28.9-16.6 9.2-15.8 3.8-36.2-12.2-45.5zm-889.4 875.4h-66.7c-18.4 0-33.3 14.9-33.3 33.3s14.9 33.3 33.3 33.3h66.7c18.4 0 33.3-14.9 33.3-33.3s-14.9-33.3-33.3-33.3zm83.1-438.7c3.3-17.1 10.2-33 20.6-47.1 10.9-14.8 7.7-35.7-7.1-46.6-14.8-10.9-35.7-7.7-46.6 7.1-16.3 22.2-27.2 47.1-32.4 74.1-3.5 18.1 8.4 35.5 26.5 39 2.1.4 4.2.6 6.3.6 15.6 0 29.6-11.1 32.7-27.1z"/><path fill="#887F82" d="M1633.1 500c101.1 0 183.3-82.3 183.3-183.3s-82.3-183.3-183.3-183.3c-101.1 0-183.3 82.3-183.3 183.3S1532 500 1633.1 500zm0-300c64.3 0 116.7 52.3 116.7 116.7s-52.3 116.7-116.7 116.7-116.7-52.3-116.7-116.7S1568.8 200 1633.1 200z"/><path fill="#3ABCDC" d="M416.4 1033.3c-110.3 0-200 89.7-200 200s89.7 200 200 200 200-89.7 200-200-89.7-200-200-200zm0 333.4c-73.5 0-133.3-59.8-133.3-133.3s59.8-133.3 133.3-133.3 133.3 59.8 133.3 133.3c.1 73.5-59.7 133.3-133.3 133.3z"/></svg>