<svg xmlns="http://www.w3.org/2000/svg" viewBox="0 0 2000 2000"><path fill="#3ABCDC" d="M1739.3 1414.3l-186.5 268-131.6-108c-14.2-11.7-35.2-9.6-46.9 4.6-11.7 14.2-9.6 35.3 4.6 46.9l159.5 131c6 4.9 13.5 7.6 21.1 7.6 1.5 0 3-.1 4.6-.3 9.2-1.3 17.5-6.3 22.8-14l207.1-297.6c10.5-15.1 6.8-35.9-8.3-46.4-15.1-10.7-35.9-6.9-46.4 8.2z"/><path fill="#887F82" d="M1033.3 867.4V529.3c0-18.4-14.9-33.3-33.3-33.3s-33.3 14.9-33.3 33.3v338.1c-48 12.5-85.6 50.7-96.5 99.3H633.3c-18.4 0-33.3 14.9-33.3 33.3s14.9 33.3 33.3 33.3h239.3c16.3 55.3 66.9 96 127.3 96 73.5 0 133.3-59.8 133.3-133.3.1-62-42.5-113.7-99.9-128.6zm-33.3 195.2c-36.8 0-66.7-29.9-66.7-66.7s29.9-66.7 66.7-66.7c36.8 0 66.7 29.9 66.7 66.7s-29.9 66.7-66.7 66.7z"/><path fill="#3ABCDC" d="M1000 329.3c18.4 0 33.3-14.9 33.3-33.3v-33.3c0-18.4-14.9-33.3-33.3-33.3s-33.3 14.9-33.3 33.3V296c0 18.4 14.9 33.3 33.3 33.3zm0 1333.3c-18.4 0-33.3 14.9-33.3 33.3v33.3c0 18.4 14.9 33.3 33.3 33.3s33.3-14.9 33.3-33.3V1696c0-18.5-14.9-33.4-33.3-33.4zm700-633.3h33.3c18.4 0 33.3-14.9 33.3-33.3s-14.9-33.3-33.3-33.3H1700c-18.4 0-33.3 14.9-33.3 33.3s14.9 33.3 33.3 33.3zM300 962.6h-33.3c-18.4 0-33.3 14.9-33.3 33.3s14.9 33.3 33.3 33.3H300c18.4 0 33.3-14.9 33.3-33.3s-14.9-33.3-33.3-33.3zm1195-428.3c8.5 0 17.1-3.3 23.6-9.8l23.6-23.6c13-13 13-34.1 0-47.1s-34.1-13-47.1 0l-23.6 23.6c-13 13-13 34.1 0 47.1 6.4 6.6 14.9 9.8 23.5 9.8zM481.5 1467.4l-23.6 23.6c-13 13-13 34.1 0 47.1 6.5 6.5 15 9.8 23.6 9.8 8.5 0 17.1-3.3 23.6-9.8l23.6-23.6c13-13 13-34.1 0-47.1-13.1-13.1-34.2-13.1-47.2 0zM505 453.8c-13-13-34.1-13-47.1 0s-13 34.1 0 47.1l23.6 23.6c6.5 6.5 15 9.8 23.6 9.8 8.5 0 17.1-3.3 23.6-9.8 13-13 13-34.1 0-47.1L505 453.8z"/><path fill="#887F82" d="M2000 1000C2000 448.6 1551.4 0 1000 0S0 448.6 0 1000s448.6 1000 1000 1000c118.3 0 234.3-20.9 345-61.7 65 38.9 140.6 61.7 221.7 61.7 238.9 0 433.3-194.4 433.3-433.3 0-81.1-22.8-156.7-61.7-221.7 40.8-110.7 61.7-226.7 61.7-345zm-720.8 890.6c-90.3 28.3-183.9 42.7-279.2 42.7-514.6 0-933.3-418.7-933.3-933.3S485.4 66.7 1000 66.7s933.3 418.7 933.3 933.3c0 95.2-14.3 188.9-42.7 279.2-2.6-2.9-5.6-5.5-8.2-8.4-5.5-5.8-11-11.6-16.8-17.1-5.2-5-10.6-9.8-16-14.5-5.3-4.6-10.7-9-16.2-13.3-6.1-4.8-12.2-9.4-18.6-13.9-5.4-3.8-11-7.4-16.6-10.9-6.6-4.2-13.3-8.4-20.1-12.2-5.9-3.3-12-6.3-18.1-9.4-6.8-3.4-13.6-6.9-20.5-9.9-6.8-3-13.9-5.5-20.9-8.2-6.6-2.5-13-5.1-19.7-7.2-8.1-2.6-16.5-4.6-24.8-6.8-5.9-1.5-11.7-3.3-17.7-4.6-9.9-2.1-20-3.5-30.1-4.9-4.7-.7-9.3-1.6-14.1-2.1-14.9-1.6-30-2.4-45.4-2.4-238.9 0-433.3 194.4-433.3 433.3 0 15.3.9 30.5 2.4 45.4.5 4.8 1.5 9.5 2.2 14.2 1.4 10 2.8 20.1 4.8 29.9 1.3 6.1 3.1 11.9 4.6 17.9 2.1 8.2 4.1 16.5 6.7 24.5 2.2 6.8 4.8 13.3 7.3 19.9 2.6 6.9 5.1 13.9 8.1 20.7 3.1 7 6.6 13.9 10 20.8 3 6 6 12 9.2 17.9 3.9 6.9 8.1 13.7 12.4 20.4 3.5 5.5 7 11 10.8 16.3 4.5 6.4 9.2 12.6 14.1 18.8 4.3 5.4 8.6 10.7 13.1 15.9 4.8 5.5 9.7 11 14.8 16.3 5.4 5.7 11.1 11.1 16.8 16.5 2.7 2.8 5.3 5.9 8.4 8.5zm287.5 42.7c-74.2 0-143.2-22.3-201-60.3-12.2-8-23.8-16.7-34.8-25.9-2-1.7-3.9-3.6-5.8-5.3-8.3-7.3-16.2-14.9-23.8-22.8-3.3-3.5-6.6-7.1-9.7-10.7-6-6.8-11.7-13.9-17.2-21.1-3-3.9-6-7.8-8.8-11.8-6.8-9.8-13.2-19.9-19-30.3-1.5-2.7-3-5.5-4.4-8.2-5.5-10.5-10.6-21.3-15-32.3-1.7-4.3-3.2-8.7-4.8-13.1-3.2-8.8-6.1-17.7-8.6-26.7-1.3-4.7-2.5-9.4-3.6-14.2-2.2-9.5-4-19.1-5.5-28.8-.6-4.2-1.5-8.5-2-12.8-1.6-14-2.6-28.1-2.6-42.4 0-202.2 164.5-366.7 366.7-366.7 14.3 0 28.4 1 42.4 2.7 4.3.5 8.5 1.3 12.8 2 9.7 1.5 19.3 3.2 28.7 5.5 4.8 1.1 9.5 2.3 14.2 3.7 9 2.5 17.9 5.4 26.6 8.6 4.4 1.6 8.8 3.1 13.1 4.8 11 4.5 21.7 9.5 32.2 15l8.4 4.5c10.4 5.8 20.5 12.1 30.2 18.9 4.1 2.8 7.9 5.9 11.8 8.9 7.2 5.5 14.3 11.1 21.1 17.2 3.6 3.2 7.2 6.4 10.7 9.7 7.9 7.6 15.5 15.5 22.8 23.8 1.7 2 3.6 3.8 5.3 5.8 9.2 11 17.9 22.6 25.9 34.7 38.1 57.8 60.4 126.8 60.4 201-.1 202.1-164.6 366.6-366.7 366.6z"/></svg>