<svg xmlns="http://www.w3.org/2000/svg" viewBox="87.6 0 1824.8 2000"><circle fill="#887F82" cx="454.4" cy="1805.8" r="46.7"/><path fill="#887F82" d="M1807 1490.5c9.5-15.1 14.9-32.9 14.9-52V1422c0-54.2-44.1-98.3-98.3-98.3H1418c-6.6 0-13.1.7-19.4 1.9l54.9-276.6c8.1-40.6 9-80.4 2.7-118.5-10.4-63.3-43.8-138.8-144.2-138.8-14.3 0-26.5 10.3-28.9 24.4l-19.3 113.3c-7.6 44.8-18.1 87.4-31 126.8-35.9 108.9-81.3 164.8-161.7 199.2-38.6 16.5-70 30.7-82.6 36.4h-121v-23.5c0-16.2-13.1-29.3-29.3-29.3H639.5v-31.7c0-16.2-13.1-29.3-29.3-29.3H116.9c-16.2 0-29.3 13.1-29.3 29.3v174.1c0 16.2 13.1 29.3 29.3 29.3s29.3-13.1 29.3-29.3v-144.8h434.6v690.8H146.2v-448.1c0-16.2-13.1-29.3-29.3-29.3s-29.3 13.1-29.3 29.3v477.5c0 16.2 13.1 29.3 29.3 29.3h493.3c16.2 0 29.3-13.1 29.3-29.3V1925h198.6c16.2 0 29.3-13.1 29.3-29.3v-13.8h117l63.1 51.1c52.9 42.9 119.6 66.5 187.7 66.5h179.4c3.8.4 7.6.6 11.5.6h209.6c58.8 0 106.6-47.8 106.6-106.5 0-17.6-4.3-34.3-11.9-48.9 51.7-7.3 91.6-51.8 91.6-105.5 0-21.7-6.5-41.9-17.7-58.8 31.7-16.3 53.4-49.4 53.4-87.4v-16.4c0-37.1-20.5-69.3-50.7-86.1zm-389-108.1h305.7c21.9 0 39.6 17.8 39.6 39.6v16.5c0 21.9-17.8 39.6-39.6 39.6H1418c-21.9 0-39.6-17.8-39.6-39.6v-15.8c1.9-7.1 3.6-13.8 5-19.9 6.7-12.2 19.7-20.4 34.6-20.4zm-98.4 511.1c0 17 4 33 11.1 47.3h-95.4c-54.7 0-108.3-19-150.8-53.4l-71.1-57.6c-5.2-4.2-11.7-6.5-18.5-6.5H867.5v-84.1c0-16.2-13.1-29.3-29.3-29.3s-29.3 13.1-29.3 29.3v127.3H639.5v-568.7h169.3v343.7c0 16.2 13.1 29.3 29.3 29.3s29.3-13.1 29.3-29.3v-290.9h127.4c4.2 0 8.4-.9 12.3-2.7.4-.2 37.6-17.3 87-38.4 96.7-41.3 153-109.4 194.3-234.8 13.9-42.1 25-87.6 33.1-135.3l14.7-86.3c34.4 8 53.4 35.3 61.9 87 5.1 31.1 4.3 64-2.4 97.6l-62.6 315.3-.3 1.8c-.1.5-1.7 11.6-5.5 28.9-3.9 9.2-6.5 19-7.4 29.4-23.2 83-83.1 225.2-220 225.2-16.2 0-29.3 13.1-29.3 29.3s13.1 29.3 29.3 29.3c90.8 0 166.5-46.9 220.9-136-.8 5.1-1.3 10.3-1.3 15.6v16.5c0 28.1 11.8 53.4 30.8 71.4-19 19.3-30.8 45.7-30.8 74.8 0 30.4 12.8 57.8 33.2 77.2-20.3 19.3-33.1 46.7-33.1 77.1zm316.2 47.8h-209.6c-26.4 0-47.9-21.5-47.9-47.9s21.5-47.9 47.9-47.9h209.6c26.4 0 47.9 21.5 47.9 47.9s-21.5 47.9-47.9 47.9zm79.6-154.4h-289.2c-26.4 0-47.9-21.5-47.9-47.9s21.5-47.9 47.9-47.9h289.2c26.4 0 47.9 21.5 47.9 47.9s-21.5 47.9-47.9 47.9zm83.6-194c0 21.9-17.8 39.6-39.6 39.6h-341.3c-21.9 0-39.6-17.8-39.6-39.6v-16.5c0-21.9 17.8-39.6 39.6-39.6h341.4c21.9 0 39.6 17.8 39.6 39.6l-.1 16.5z"/><path fill="#3ABCDC" d="M676.3 423.4c-6.5-20-23.5-34.3-44.3-37.3l-133.4-19.4-59.7-120.9c-9.3-18.9-28.2-30.6-49.2-30.6s-39.9 11.7-49.2 30.6l-59.7 120.9-133.4 19.4c-20.8 3-37.8 17.3-44.3 37.3s-1.2 41.6 13.9 56.3l96.6 94.1-22.8 132.9c-3.6 20.7 4.8 41.3 21.8 53.7 9.6 7 20.9 10.5 32.2 10.5 8.7 0 17.5-2.1 25.6-6.4l119.3-62.7L509 764.6c18.6 9.8 40.8 8.2 57.8-4.2s25.4-32.9 21.8-53.7l-22.8-132.9 96.6-94.1c15-14.7 20.4-36.2 13.9-56.3zM523.4 533.2c-12.9 12.6-18.8 30.8-15.8 48.6L529.5 709l-114.3-60c-16-8.4-35.1-8.4-51.1 0l-114.3 60 21.8-127.3c3.1-17.8-2.8-36-15.8-48.6L163.3 443l127.8-18.6c17.9-2.6 33.3-13.8 41.3-30l57.1-115.8 57.1 115.8c8 16.2 23.4 27.4 41.3 30L615.7 443l-92.3 90.2zm770.2-325c-6.5-20-23.5-34.3-44.3-37.3l-133.4-19.4-59.7-120.9C1046.8 11.7 1028 0 1006.9 0S967 11.7 957.7 30.6L898 151.5l-133.4 19.4c-20.8 3-37.8 17.3-44.3 37.3s-1.2 41.6 13.9 56.3l96.6 94.1L808 491.5c-3.6 20.7 4.8 41.3 21.8 53.7s39.2 14 57.8 4.2l119.3-62.7 119.3 62.7c8.1 4.3 16.9 6.4 25.6 6.4 11.3 0 22.6-3.6 32.2-10.5 17-12.4 25.4-32.9 21.8-53.7L1183 358.7l96.6-94.1c15.1-14.8 20.5-36.3 14-56.4zM1140.7 318c-12.9 12.6-18.8 30.8-15.8 48.6l21.8 127.3-114.3-60.1c-16-8.4-35.1-8.4-51.1 0L867 493.9l21.8-127.3c3.1-17.8-2.8-36-15.8-48.6l-92.5-90.1 127.8-18.6c17.9-2.6 33.3-13.8 41.3-30l57.1-115.8 57.1 115.8c8 16.2 23.5 27.4 41.3 30l127.8 18.6-92.2 90.1zm769 105.4c-6.5-20-23.5-34.3-44.3-37.3L1732 366.7l-59.7-120.9c-9.3-18.9-28.2-30.6-49.2-30.6s-39.9 11.7-49.2 30.6l-59.7 120.9-133.4 19.4c-20.8 3-37.8 17.3-44.3 37.3s-1.2 41.6 13.9 56.3l96.6 94.1-22.8 132.9c-3.6 20.7 4.8 41.3 21.8 53.7s39.2 14 57.8 4.2l119.3-62.7 119.3 62.7c8.1 4.3 16.9 6.4 25.6 6.4 11.3 0 22.6-3.6 32.2-10.5 17-12.4 25.4-32.9 21.8-53.7l-22.8-132.9 96.6-94.1c15.1-14.8 20.4-36.3 13.9-56.4zm-152.8 109.8c-12.9 12.6-18.8 30.8-15.8 48.6l21.8 127.3-114.3-60.1c-8-4.2-16.8-6.3-25.5-6.3s-17.5 2.1-25.5 6.3l-114.4 60 21.8-127.3c3.1-17.8-2.8-36-15.8-48.6l-92.5-90.1 127.8-18.6c17.9-2.6 33.3-13.8 41.3-30l57.2-115.8 57.1 115.8c8 16.2 23.5 27.4 41.3 30l127.8 18.6-92.3 90.2z"/></svg>