<svg xmlns="http://www.w3.org/2000/svg" viewBox="0 686.6 2000 1131.7"><path d="M1721.1 1406.2c66.2 64.8 136.4 125.7 195.9 196.9 26.2 31.6 51.1 64.5 70.2 101.1 26.9 52.4 2.7 109.9-44.3 112.9h-291.3c-75.3 6.4-135.1-23.9-185.5-75.3-40.3-41-77.6-84.7-116.6-127.3-15.8-17.5-32.6-33.6-52.4-46.7-39.6-25.9-74.2-17.8-97.1 23.5-23.2 42.3-28.6 89-30.6 136.1-3 68.5-23.9 86.7-92.7 89.7-147.2 7.1-286.9-15.5-416.9-89.7-114.6-65.5-203.3-157.9-280.5-262.7C228.8 1261.1 113.6 1037 10.1 806.8c-23.2-51.7-6.4-79.6 51.1-80.6 95.1-1.7 190.2-1.7 285.2 0 38.6.7 64.2 22.8 79.3 59.1 51.4 126.3 114.2 246.6 193.2 358.1 21.2 29.6 42.3 59.5 72.9 80.3 33.9 23.2 59.5 15.5 75.3-22.2 10.1-23.9 14.4-49.7 16.8-75.3 7.4-88 8.4-175.7-4.7-263.4-8.1-54.8-39-90-93.4-100.5-27.9-5.4-23.9-15.8-10.1-31.6 23.5-27.5 45.4-44.3 89.4-44.3h329.2c51.7 10.1 63.5 33.6 70.6 85.7l.3 365.9c-.7 20.2 10.1 80 46.4 93.4 29.2 9.4 48.4-13.8 65.8-32.3 79-83.7 135.1-182.4 185.5-284.9 22.2-45 41.3-91.7 60.1-138.4 13.8-34.6 35.3-51.7 74.6-51.1l316.8.3c9.4 0 18.8 0 27.9 1.7 53.4 9.1 68.2 31.9 51.4 84.3-25.9 82-76.6 149.8-126 218.4-52.7 73.2-109.5 143.8-161.9 217.4-48.1 67.3-44.5 100.9 15.3 159.4z"/></svg>