<svg xmlns="http://www.w3.org/2000/svg" xmlns:xlink="http://www.w3.org/1999/xlink" preserveAspectRatio="xMidYMid" width="52" height="52" viewBox="0 0 52 52">
  <defs>
    <style>
      .cls-1 {
        fill: #6996c7;
      }

      .cls-2 {
        fill: #fff;
        filter: url(#color-overlay-1);
        fill-rule: evenodd;
      }
    </style>

    <filter id="color-overlay-1" filterUnits="userSpaceOnUse">
      <feFlood flood-color="#fff"/>
      <feComposite operator="in" in2="SourceGraphic"/>
      <feBlend in2="SourceGraphic" result="solidFill"/>
    </filter>
  </defs>
  <g>
    <circle cx="26" cy="26" r="26" class="cls-1"/>
    <path d="M25.153,35.933 L27.245,35.933 C27.245,35.933 27.877,35.863 28.200,35.514 C28.496,35.194 28.487,34.592 28.487,34.592 C28.487,34.592 28.446,31.777 29.749,31.362 C31.033,30.953 32.683,34.083 34.431,35.287 C35.753,36.198 36.757,35.998 36.757,35.998 L41.432,35.933 C41.432,35.933 43.877,35.782 42.717,33.853 C42.622,33.695 42.042,32.426 39.241,29.819 C36.310,27.090 36.703,27.532 40.234,22.811 C42.384,19.937 43.243,18.182 42.975,17.430 C42.719,16.714 41.137,16.903 41.137,16.903 L35.875,16.936 C35.875,16.936 35.484,16.883 35.195,17.056 C34.912,17.226 34.731,17.622 34.731,17.622 C34.731,17.622 33.897,19.847 32.786,21.739 C30.443,25.731 29.506,25.942 29.123,25.694 C28.231,25.116 28.454,23.373 28.454,22.135 C28.454,18.266 29.039,16.653 27.315,16.236 C26.743,16.097 26.322,16.006 24.859,15.990 C22.981,15.971 21.391,15.996 20.492,16.438 C19.893,16.733 19.431,17.388 19.712,17.426 C20.060,17.472 20.848,17.639 21.266,18.209 C21.805,18.945 21.786,20.598 21.786,20.598 C21.786,20.598 22.096,25.152 21.062,25.718 C20.353,26.106 19.380,25.313 17.291,21.692 C16.220,19.837 15.412,17.786 15.412,17.786 C15.412,17.786 15.256,17.403 14.978,17.198 C14.641,16.949 14.169,16.870 14.169,16.870 L9.168,16.903 C9.168,16.903 8.418,16.924 8.142,17.252 C7.896,17.543 8.122,18.146 8.122,18.146 C8.122,18.146 12.037,27.335 16.471,31.965 C20.537,36.212 25.153,35.933 25.153,35.933 Z" class="cls-2"/>
  </g>
</svg>

