<?xml version="1.0" encoding="utf-8"?><svg xmlns="http://www.w3.org/2000/svg" xmlns:xlink="http://www.w3.org/1999/xlink"><symbol viewBox="0 0 18 14" id="fa-bar-chart" xmlns="http://www.w3.org/2000/svg"><defs><path id="aa" d="M99.623 176.637v4.417h-2.25v-4.417zm3.374-4.417v8.834h-2.25v-8.834zm8.997 9.938v1.105H94V170.01h1.125v12.147zm-5.623-7.73v6.626h-2.25v-6.625zm3.374-3.312v9.938h-2.25v-9.938z"/></defs><g transform="translate(-94 -170)"><use xlink:href="#aa"/><use xlink:href="#aa"/></g></symbol><symbol viewBox="0 0 1000 1000" id="fa-bell" xmlns="http://www.w3.org/2000/svg"><path d="M973.8 822.7c-79.8-82.9-97.2-205.6-114-324.2-25-175.9-53.1-373.5-303.7-399.4V67.3c0-31.9-25.9-57.9-57.9-57.9s-57.9 25.9-57.9 57.9v31.9c-248.6 26-276.5 223.6-301.2 399.4C122.4 617.3 105.1 740 26 822.9c-16 16.8-20.4 41.4-11.3 62.7 9.1 21.3 30.1 35.1 53.2 35.1h358.3c1.3 38.7 33 69.9 72.1 69.9 39.1 0 70.8-31.2 72.1-69.9h361.9c23.2 0 44.2-13.9 53.3-35.2 8.9-21.4 4.3-46.1-11.8-62.8zm-475.7-1.8H158c50.1-96.8 65.7-206.2 79.8-305.9 30.6-215.4 54.4-319 260.2-319 208 0 232.1 103.6 262.9 319 14.3 99.7 29.9 209.1 80.5 305.8H498.1z"/></symbol><symbol viewBox="0 0 14 14" id="fa-cog" xmlns="http://www.w3.org/2000/svg"><defs><path id="ca" d="M102.716 420.6a2.187 2.187 0 0 1-1.59-.647 2.109 2.109 0 0 1-.66-1.561c0-.61.22-1.13.66-1.562a2.187 2.187 0 0 1 1.59-.647c.62 0 1.15.216 1.59.647.44.431.66.952.66 1.562 0 .61-.22 1.13-.66 1.561a2.19 2.19 0 0 1-1.59.647zm6.677-3.352a.278.278 0 0 0-.184-.107l-1.608-.242a5.15 5.15 0 0 0-.36-.845c.105-.144.263-.347.474-.609.211-.261.36-.452.448-.573a.329.329 0 0 0 .07-.199c0-.08-.02-.143-.06-.19-.212-.293-.695-.782-1.45-1.466a.344.344 0 0 0-.22-.086.288.288 0 0 0-.211.077l-1.248.923a5.502 5.502 0 0 0-.79-.319l-.247-1.587a.255.255 0 0 0-.1-.186.336.336 0 0 0-.216-.073h-1.95c-.17 0-.276.08-.317.241-.076.288-.16.823-.255 1.605a5.064 5.064 0 0 0-.799.328l-1.213-.923a.379.379 0 0 0-.228-.086c-.129 0-.406.205-.83.616-.425.412-.714.72-.866.928a.36.36 0 0 0-.079.198c0 .07.03.138.088.207.392.466.706.863.94 1.19-.146.265-.26.53-.343.795l-1.634.241a.265.265 0 0 0-.167.112.328.328 0 0 0-.07.199v1.915c0 .075.023.142.07.203.047.06.109.096.185.107l1.608.233c.082.282.202.567.36.854-.106.144-.264.347-.474.609-.211.262-.36.453-.449.573a.328.328 0 0 0-.008.397c.228.31.711.794 1.45 1.45a.305.305 0 0 0 .219.095.32.32 0 0 0 .22-.078l1.238-.923c.24.12.504.227.791.319l.246 1.587c.006.075.04.137.101.186a.336.336 0 0 0 .216.073h1.95c.17 0 .275-.08.316-.241.076-.288.162-.823.255-1.605a5 5 0 0 0 .8-.328l1.212.932a.434.434 0 0 0 .229.078c.129 0 .404-.205.826-.613.421-.408.711-.719.87-.932a.285.285 0 0 0 .078-.198.33.33 0 0 0-.087-.216 21.584 21.584 0 0 1-.94-1.19c.117-.213.23-.475.342-.785l1.626-.242a.268.268 0 0 0 .175-.112.329.329 0 0 0 .07-.199v-1.915a.323.323 0 0 0-.07-.203z"/></defs><g opacity=".6" transform="translate(-96 -411)"><use xlink:href="#ca"/><use xlink:href="#ca"/></g></symbol><symbol viewBox="0 0 30 24" id="fa-comments" xmlns="http://www.w3.org/2000/svg"><defs><path id="da" d="M187.998 998.35c1.049 1.342 1.573 2.802 1.573 4.382 0 1.58-.524 3.04-1.573 4.382-1.05 1.341-2.48 2.401-4.294 3.18-1.814.778-3.787 1.167-5.918 1.167-.96 0-1.942-.09-2.947-.273a13.962 13.962 0 0 1-4.654 2.183c-.402.102-.882.193-1.44.273h-.05a.516.516 0 0 1-.343-.137.564.564 0 0 1-.192-.358.35.35 0 0 1-.017-.11c0-.04.002-.077.008-.112a.362.362 0 0 1 .034-.102l.041-.085a.75.75 0 0 1 .06-.094.71.71 0 0 1 .066-.085 1.58 1.58 0 0 0 .075-.085c.034-.04.056-.066.067-.077.056-.068.185-.21.385-.426.201-.216.346-.384.436-.503.089-.12.214-.284.376-.495a4.32 4.32 0 0 0 .419-.656 9.42 9.42 0 0 0 .343-.75c-1.384-.819-2.472-1.824-3.264-3.018-.793-1.193-1.19-2.466-1.19-3.819 0-1.58.525-3.04 1.575-4.382 1.048-1.34 2.48-2.4 4.294-3.18 1.813-.778 3.786-1.167 5.918-1.167 2.131 0 4.104.39 5.918 1.168 1.813.778 3.245 1.838 4.294 3.18zm8.002 8.747c0 1.364-.396 2.64-1.189 3.827-.792 1.188-1.88 2.191-3.264 3.01.111.272.226.522.343.75.117.227.257.446.419.656.161.21.287.375.376.494.09.12.235.287.435.503a11.717 11.717 0 0 1 .452.503c.034.04.06.068.076.085a.726.726 0 0 1 .067.086.72.72 0 0 1 .058.093l.042.086a.369.369 0 0 1 .034.102c.005.034.008.07.008.11 0 .04-.006.078-.017.112a.636.636 0 0 1-.217.375.5.5 0 0 1-.369.12 13.768 13.768 0 0 1-1.44-.274 13.967 13.967 0 0 1-4.653-2.182 16.519 16.519 0 0 1-2.947.273c-3.024 0-5.658-.75-7.902-2.25.648.045 1.139.068 1.474.068a17.39 17.39 0 0 0 5.173-.768c1.651-.511 3.124-1.244 4.42-2.199 1.394-1.046 2.466-2.25 3.214-3.614a8.878 8.878 0 0 0 1.121-4.33c0-.876-.128-1.74-.385-2.592 1.44.807 2.578 1.818 3.415 3.034.837 1.217 1.256 2.524 1.256 3.922z"/></defs><use xlink:href="#da" opacity=".8" transform="translate(-166 -994)"/></symbol><symbol viewBox="0 0 18 15" id="fa-diamond" xmlns="http://www.w3.org/2000/svg"><defs><path id="ea" d="M98.7 225.998l2.636 5.737-5.473-5.737zm1.23 0h6.133l-3.066 6.66zm-4.243-1.104l2.53-3.313h2.302l-1.792 3.313zm11.606 1.104h2.838l-5.473 5.737zm-5.5-4.417h2.408l1.792 3.313h-5.992zm3.682 0h2.302l2.53 3.313h-3.04zm-7.539-1.104a.516.516 0 0 0-.448.224l-3.374 4.417a.523.523 0 0 0-.114.358.521.521 0 0 0 .15.35l8.434 8.834a.534.534 0 0 0 .413.172c.17 0 .308-.057.413-.172l8.435-8.835a.522.522 0 0 0 .15-.349.523.523 0 0 0-.115-.358l-3.374-4.417a.516.516 0 0 0-.448-.224z"/></defs><g opacity=".6" transform="translate(-94 -220)"><use xlink:href="#ea"/><use xlink:href="#ea"/></g></symbol><symbol viewBox="0 0 16 12" id="fa-exchange" xmlns="http://www.w3.org/2000/svg"><defs><path id="fa" d="M110.661 275.52a.273.273 0 0 0-.197-.082h-12.09v-1.656a.263.263 0 0 0-.084-.194.273.273 0 0 0-.197-.082.276.276 0 0 0-.202.078l-2.812 2.76a.266.266 0 0 0-.08.199c0 .074.027.138.08.19l2.803 2.76c.07.058.14.086.21.086a.273.273 0 0 0 .198-.082.263.263 0 0 0 .084-.194v-1.656h12.09a.273.273 0 0 0 .197-.082.263.263 0 0 0 .084-.194v-1.657a.263.263 0 0 0-.084-.194zm-2.798-7.45a.334.334 0 0 0-.21-.085.266.266 0 0 0-.281.276v1.656h-12.09a.273.273 0 0 0-.199.082.263.263 0 0 0-.083.194v1.656c0 .075.028.14.083.195a.272.272 0 0 0 .198.082h12.09v1.656c0 .075.028.14.083.194a.272.272 0 0 0 .198.082c.082 0 .15-.026.202-.078l2.812-2.76a.266.266 0 0 0 .079-.199.266.266 0 0 0-.08-.198z"/></defs><g opacity=".6" transform="translate(-95 -268)"><use xlink:href="#fa"/><use xlink:href="#fa"/></g></symbol><symbol viewBox="0 0 1000 1000" id="fa-info" xmlns="http://www.w3.org/2000/svg"><path d="M500 990C229.8 990 10 770.2 10 500S229.8 10 500 10s490 219.8 490 490-219.8 490-490 490zm0-918.7C263.6 71.3 71.3 263.6 71.3 500c0 236.4 192.3 428.7 428.8 428.7 236.4 0 428.7-192.3 428.7-428.8 0-236.3-192.4-428.6-428.8-428.6z"/><path d="M463.2 323.5v-61h60.7v61h-60.7zm0 80.9h60.7v364.4h-60.7V404.4z"/></symbol><symbol viewBox="0 0 18 13" id="fa-newspaper-o" xmlns="http://www.w3.org/2000/svg"><defs><path id="ha" d="M102.997 322.357h-3.374v-3.312h3.374zm-4.499 2.209v1.104h5.624v-1.104zm0-6.626v5.522h5.624v-5.522zm6.748 6.626v1.104h4.499v-1.104zm0-2.209v1.105h4.499v-1.105zm0-2.208v1.104h4.499v-1.104zm0-2.209v1.105h4.499v-1.105zm-9.164 8.67a.545.545 0 0 1-.395.164.545.545 0 0 1-.395-.164.526.526 0 0 1-.167-.388v-8.282h1.124v8.282c0 .15-.056.28-.167.388zm14.62 0a.545.545 0 0 1-.395.164h-13.03c.065-.178.097-.362.097-.552v-9.386h13.496v9.386c0 .15-.056.28-.167.388zM96.25 315.732v1.104H94v9.386c0 .46.165.852.493 1.174.328.322.726.483 1.195.483h14.62c.469 0 .867-.161 1.195-.483.328-.322.492-.714.492-1.174v-10.49z"/></defs><g opacity=".6" transform="translate(-94 -315)"><use xlink:href="#ha"/><use xlink:href="#ha"/></g></symbol><symbol viewBox="0 0 1000 1000" id="fa-ques" xmlns="http://www.w3.org/2000/svg"><path d="M447.5 797.9c0 29 23.5 52.5 52.5 52.5s52.5-23.5 52.5-52.5-23.5-52.5-52.5-52.5-52.5 23.5-52.5 52.5z"/><path d="M500 990C229.8 990 10 770.2 10 500S229.8 10 500 10s490 219.8 490 490-219.8 490-490 490zm0-909.7C268.6 80.3 80.3 268.6 80.3 500c0 231.4 188.3 419.7 419.7 419.7 231.4 0 419.7-188.3 419.7-419.7 0-231.4-188.3-419.7-419.7-419.7z"/><path d="M500 676.9c-19.3 0-35-15.7-35-35v-59.2c0-57.3 43.8-101 82.4-139.6 28.3-28.4 57.6-57.6 57.6-81 0-58.3-47.1-105.8-105-105.8-58.9 0-105 45.4-105 103.4 0 19.3-15.7 35-35 35s-35-15.7-35-35c0-95.6 78.5-173.4 175-173.4s175 78.9 175 175.8c0 52.4-39.7 92.1-78.1 130.5-30.5 30.4-61.9 61.8-61.9 90v59.2c0 19.3-15.7 35.1-35 35.1z"/></symbol><symbol viewBox="0 0 320 512" class="jsvg-inline--fa jfa-sort-down jfa-w-10 jfa-5x" id="fa-sort-down" xmlns="http://www.w3.org/2000/svg"><path d="M41 288h238c21.4 0 32.1 25.9 17 41L177 448c-9.4 9.4-24.6 9.4-33.9 0L24 329c-15.1-15.1-4.4-41 17-41z"/></symbol><symbol viewBox="0 0 16 16" id="fa-support" xmlns="http://www.w3.org/2000/svg"><defs><path id="ka" d="M99.815 363.147a7.818 7.818 0 0 1 3.057-.613c1.066 0 2.086.204 3.058.613a7.92 7.92 0 0 1 2.513 1.647 7.762 7.762 0 0 1 1.678 2.468 7.44 7.44 0 0 1 .624 3.002 7.438 7.438 0 0 1-.624 3.002 7.76 7.76 0 0 1-1.678 2.468 7.923 7.923 0 0 1-2.513 1.647 7.819 7.819 0 0 1-3.058.613 7.818 7.818 0 0 1-3.057-.613 7.921 7.921 0 0 1-2.513-1.647 7.756 7.756 0 0 1-1.678-2.468 7.436 7.436 0 0 1-.624-3.002c0-1.047.208-2.047.624-3.002a7.758 7.758 0 0 1 1.678-2.468 7.921 7.921 0 0 1 2.513-1.647zm6.23 1.268a6.816 6.816 0 0 0-3.173-.777c-1.113 0-2.17.26-3.171.777l1.704 1.673a4.588 4.588 0 0 1 2.935 0zm-9.13 8.963l1.705-1.673a4.355 4.355 0 0 1 0-2.882l-1.705-1.673a6.5 6.5 0 0 0-.79 3.114 6.5 6.5 0 0 0 .79 3.114zm2.786 2.735a6.815 6.815 0 0 0 3.171.777c1.113 0 2.17-.26 3.172-.777l-1.704-1.673a4.588 4.588 0 0 1-2.935 0zm.786-3.507a3.28 3.28 0 0 0 2.385.97 3.28 3.28 0 0 0 2.386-.97c.659-.647.988-1.427.988-2.342 0-.914-.33-1.695-.988-2.342a3.28 3.28 0 0 0-2.386-.97 3.28 3.28 0 0 0-2.385.97c-.659.647-.988 1.428-.988 2.342 0 .915.329 1.695.988 2.342zm6.638-.901l1.704 1.673a6.5 6.5 0 0 0 .791-3.114 6.5 6.5 0 0 0-.79-3.114l-1.705 1.673a4.36 4.36 0 0 1 0 2.882z"/></defs><g opacity=".6" transform="translate(-95 -362)"><use xlink:href="#ka"/><use xlink:href="#ka"/></g></symbol></svg>