<svg width="37" height="37" viewBox="0 0 37 37" fill="none" xmlns="http://www.w3.org/2000/svg">
<circle cx="18.5" cy="18.5" r="18.5" fill="#F7C705"/>
<path d="M28.6073 18.3875C28.6073 17.7553 28.1648 17.2285 27.5748 17.06C27.5537 17.06 27.5537 17.0178 27.5748 17.0178C28.3334 17.0178 28.9445 16.4067 28.9445 15.6481C28.9445 14.8895 28.3334 14.2784 27.5748 14.2784C26.8162 14.2784 25.7204 14.2784 24.7932 14.2995C24.2243 14.3206 23.0864 14.3206 22.3067 14.2995C21.8853 14.2995 21.5903 13.878 21.7167 13.4987C22.1171 12.2976 22.8335 10.085 22.96 9.38964C23.276 7.70386 20.6631 7.19812 20.1363 8.50461C19.6516 9.76894 17.734 13.5409 15.4582 14.9317C15.1843 15.1002 15.0157 15.3952 15.0157 15.7113L14.9946 23.4027C14.9946 23.8452 16.8068 25.1728 19.3777 25.1728H25.2147H26.5633C27.3219 25.1728 27.933 24.5617 27.933 23.8031C27.933 23.1709 27.4905 22.6441 26.9005 22.4755C26.8794 22.4755 26.8794 22.4334 26.9005 22.4334C27.6591 22.4334 28.2702 21.8223 28.2702 21.0637C28.2702 20.4315 27.8277 19.9047 27.2376 19.7361C27.2166 19.7361 27.2166 19.694 27.2376 19.694C27.9962 19.7361 28.6073 19.125 28.6073 18.3875Z" fill="#383C3E"/>
<path d="M12.8663 14.7432H9.93725C9.3683 14.7432 8.92578 15.2068 8.92578 15.7546V23.5092C8.92578 24.0782 9.38937 24.5207 9.93725 24.5207H12.8663C13.4353 24.5207 13.8778 24.0571 13.8778 23.5092V15.7546C13.8778 15.2068 13.4353 14.7432 12.8663 14.7432ZM11.4123 23.0667C10.9698 23.0667 10.6326 22.7085 10.6326 22.287C10.6326 21.8445 10.9909 21.5074 11.4123 21.5074C11.8338 21.5074 12.192 21.8656 12.192 22.287C12.192 22.7085 11.8338 23.0667 11.4123 23.0667Z" fill="#383C3E"/>
</svg>
