<?xml version="1.0" standalone="no"?>
<!DOCTYPE svg PUBLIC "-//W3C//DTD SVG 1.1//EN" "http://www.w3.org/Graphics/SVG/1.1/DTD/svg11.dtd" >
<svg xmlns="http://www.w3.org/2000/svg" xmlns:xlink="http://www.w3.org/1999/xlink" version="1.1">
<metadata>
Created by FontForge 20160407 at Thu Jul 21 13:19:32 2016
 By Jimmy Warting

</metadata>
<defs>
<font id="KievitPro-Bold" horiz-adv-x="556" >
  <font-face 
    font-family="KievitPro-Bold"
    font-weight="700"
    font-stretch="normal"
    units-per-em="1000"
    panose-1="2 0 5 3 5 0 0 2 0 4"
    ascent="760"
    descent="-240"
    x-height="487"
    cap-height="666"
    bbox="-190 -250 1257 933"
    underline-thickness="20"
    underline-position="-133"
    stemh="99"
    stemv="133"
    unicode-range="U+000D-FB04"
  />
<missing-glyph horiz-adv-x="557" 
d="M65 0v666h427v-666h-427zM168 103h221v460h-221v-460z" />
    <glyph glyph-name="IJ" unicode="IJ" horiz-adv-x="655" 
d="M89 0v666h141v-666h-141zM381 -204c-47 0 -77 8 -98 16l22 115c9 -4 29 -9 47 -9c56 0 78 28 78 99v649h142v-668c0 -132 -73 -202 -191 -202z" />
    <glyph glyph-name="ij" unicode="ij" 
d="M140 550c-47 0 -81 37 -81 80c0 42 34 78 81 78s82 -36 82 -78c0 -43 -35 -80 -82 -80zM73 0v487h134v-487h-134zM317 -233c-49 0 -75 7 -87 12l23 103c6 -2 18 -6 38 -6c46 0 60 29 60 104v507h134v-521c0 -121 -47 -199 -168 -199zM417 550c-47 0 -81 37 -81 80
c0 42 34 78 81 78c48 0 82 -36 82 -78c0 -43 -34 -80 -82 -80z" />
    <glyph glyph-name="uniFB00" unicode="ff" horiz-adv-x="658" 
d="M92 0v388h-75v99h75v46c0 116 74 193 205 193c81 0 121 -20 148 -37c31 28 75 43 130 43c71 0 106 -16 118 -23l-31 -100c-8 4 -31 14 -67 14c-55 0 -79 -33 -79 -96v-40h117v-99h-117v-388h-132v388h-159v-388h-133zM225 487h159v50c0 21 2 39 6 56
c-13 10 -36 23 -77 23c-55 0 -88 -26 -88 -100v-29z" />
    <glyph glyph-name="fi" unicode="fi" horiz-adv-x="588" 
d="M90 0v388h-73v99h73v49c0 120 82 196 217 196c97 0 146 -24 179 -43l-47 -98c-22 13 -58 32 -116 32c-64 0 -100 -31 -100 -98v-38h298v-487h-133v388h-165v-388h-133z" />
    <glyph glyph-name="fl" unicode="fl" horiz-adv-x="599" 
d="M90 0v388h-73v99h73v50c0 122 79 195 232 195c88 0 166 -16 205 -30v-702h-133v612c-12 5 -40 11 -81 11c-62 0 -90 -34 -90 -98v-38h102v-99h-102v-388h-133z" />
    <glyph glyph-name="uniFB03" unicode="ffi" horiz-adv-x="878" 
d="M92 0v388h-75v99h75v46c0 116 74 193 205 193c85 0 125 -22 154 -39c37 29 88 45 149 45c97 0 146 -24 179 -43l-47 -98c-22 13 -58 32 -116 32c-63 0 -100 -31 -100 -98v-38h295v-487h-133v388h-162v-388h-132v388h-159v-388h-133zM225 487h159v49c0 20 2 38 8 56
c-14 10 -36 24 -79 24c-55 0 -88 -26 -88 -100v-29z" />
    <glyph glyph-name="uniFB04" unicode="ffl" horiz-adv-x="892" 
d="M92 0v388h-75v99h75v46c0 116 74 193 205 193c84 0 123 -21 152 -40c39 30 95 46 166 46c88 0 166 -16 205 -30v-702h-133v612c-12 5 -40 11 -81 11c-62 0 -90 -34 -90 -98v-38h106v-99h-106v-388h-132v388h-159v-388h-133zM225 487h159v50c0 20 2 39 7 56
c-13 10 -36 23 -78 23c-55 0 -88 -26 -88 -100v-29z" />
    <glyph glyph-name=".notdef" horiz-adv-x="557" 
d="M65 0v666h427v-666h-427zM168 103h221v460h-221v-460z" />
    <glyph glyph-name=".null" horiz-adv-x="0" 
 />
    <glyph glyph-name=".null" horiz-adv-x="0" 
 />
    <glyph glyph-name="CR" unicode="&#xd;" horiz-adv-x="194" 
 />
    <glyph glyph-name="space" unicode=" " horiz-adv-x="194" 
 />
    <glyph glyph-name="exclam" unicode="!" horiz-adv-x="304" 
d="M152 -10c-49 0 -85 38 -85 83c0 44 36 81 85 81c48 0 84 -37 84 -81c0 -45 -36 -83 -84 -83zM98 225l-24 441h156l-25 -441h-107z" />
    <glyph glyph-name="quotedbl" unicode="&#x22;" horiz-adv-x="385" 
d="M64 422l-28 244h132l-14 -244h-90zM232 422l-15 244h132l-28 -244h-89z" />
    <glyph glyph-name="numbersign" unicode="#" horiz-adv-x="526" 
d="M94 88l19 125h-89l16 96h88l12 84h-88l15 96h87l19 121h92l-19 -121h80l19 121h92l-19 -121h83l-16 -96h-81l-12 -84h82l-16 -96h-81l-18 -125h-92l18 125h-80l-19 -125h-92zM217 306h85l13 89h-85z" />
    <glyph glyph-name="dollar" unicode="$" horiz-adv-x="425" 
d="M160 -123v113c-63 7 -108 27 -134 45l45 94c25 -17 73 -42 128 -42c60 0 84 17 84 44c0 39 -71 47 -137 78c-64 31 -109 68 -109 141s46 125 123 142v107h111v-102c55 -6 94 -23 116 -38l-47 -91c-23 16 -67 32 -111 32c-49 0 -72 -16 -72 -43c0 -34 56 -45 111 -67
c72 -29 136 -65 136 -146c0 -82 -48 -134 -133 -150v-117h-111z" />
    <glyph glyph-name="percent" unicode="%" horiz-adv-x="869" 
d="M194 187c-114 0 -170 74 -170 155c0 80 58 157 172 157s170 -71 170 -153c0 -81 -58 -159 -172 -159zM196 268c44 0 57 34 57 74s-16 76 -58 76c-43 0 -58 -31 -58 -72c0 -40 16 -78 59 -78zM674 -12c-114 0 -170 73 -170 155c0 80 58 157 172 157
c113 0 169 -71 169 -154c0 -80 -58 -158 -171 -158zM676 69c44 0 56 34 56 74s-16 76 -58 76c-43 0 -58 -32 -58 -73c0 -39 17 -77 60 -77zM234 0l293 488h110l-292 -488h-111z" />
    <glyph glyph-name="ampersand" unicode="&#x26;" horiz-adv-x="665" 
d="M267 -12c-154 0 -235 80 -235 185c0 89 46 142 137 192c-45 53 -69 98 -69 152c0 98 83 161 198 161c117 0 187 -64 187 -148c0 -74 -50 -124 -142 -178l122 -134c19 35 34 76 42 120l114 -20c-12 -70 -40 -134 -81 -188l116 -130h-162l-43 48c-53 -38 -117 -60 -184 -60
zM283 419c58 36 79 67 79 104c0 34 -25 61 -64 61c-40 0 -67 -26 -67 -64c0 -33 18 -63 52 -101zM277 92c40 0 75 12 105 35l-146 161c-43 -29 -66 -61 -66 -105c0 -55 41 -91 107 -91z" />
    <glyph glyph-name="quotesingle" unicode="'" horiz-adv-x="211" 
d="M60 422l-22 244h135l-22 -244h-91z" />
    <glyph glyph-name="parenleft" unicode="(" horiz-adv-x="347" 
d="M220 -168c-82 89 -179 239 -179 450c0 203 97 358 179 438h126c-66 -73 -162 -222 -162 -435c0 -206 74 -349 162 -453h-126z" />
    <glyph glyph-name="parenright" unicode=")" horiz-adv-x="348" 
d="M1 -168c76 87 163 229 163 442c0 207 -85 356 -163 446h127c85 -87 179 -238 179 -442c0 -211 -99 -364 -179 -446h-127z" />
    <glyph glyph-name="asterisk" unicode="*" horiz-adv-x="493" 
d="M173 285l-87 61l87 103l-130 37l35 95l120 -47l-6 132h110l-7 -132l120 47l36 -95l-131 -37l88 -103l-88 -61l-73 114z" />
    <glyph glyph-name="plus" unicode="+" horiz-adv-x="560" 
d="M224 26v186h-183v102h183v180h114v-180h181v-102h-181v-186h-114z" />
    <glyph glyph-name="comma" unicode="," horiz-adv-x="284" 
d="M72 -145c21 33 41 74 41 107c0 55 -59 57 -59 123c0 44 36 76 81 76c52 0 96 -41 96 -110c0 -68 -34 -143 -74 -196h-85z" />
    <glyph glyph-name="hyphen" unicode="-" horiz-adv-x="330" 
d="M51 228v108h228v-108h-228z" />
    <glyph glyph-name="period" unicode="." horiz-adv-x="284" 
d="M142 -10c-49 0 -89 38 -89 86s40 85 89 85s88 -37 88 -85s-39 -86 -88 -86z" />
    <glyph glyph-name="slash" unicode="/" horiz-adv-x="450" 
d="M27 -90l284 786h129l-284 -786h-129z" />
    <glyph glyph-name="zero" unicode="0" horiz-adv-x="585" 
d="M293 -12c-182 0 -261 132 -261 254s81 257 263 257c181 0 260 -129 260 -253c0 -122 -81 -258 -262 -258zM295 94c77 0 118 55 118 148s-42 151 -120 151s-119 -54 -119 -147s42 -152 121 -152z" />
    <glyph glyph-name="one" unicode="1" horiz-adv-x="368" 
d="M163 0v372l-116 -35l-27 105l173 45h102v-487h-132z" />
    <glyph glyph-name="two" unicode="2" horiz-adv-x="509" 
d="M21 0v60c95 68 274 190 274 271c0 40 -28 63 -79 63c-45 0 -90 -25 -117 -52l-65 83c44 42 118 75 202 75c118 0 201 -44 201 -143c0 -105 -117 -192 -207 -255c6 1 39 4 64 4h184v-106h-457z" />
    <glyph glyph-name="three" unicode="3" horiz-adv-x="458" 
d="M140 -188c-55 0 -88 4 -104 7l20 107c10 -4 42 -9 76 -9c89 0 156 37 156 109c0 74 -70 100 -170 100v96c69 1 152 43 152 107c0 41 -27 64 -80 64c-44 0 -78 -19 -106 -44l-62 84c40 34 103 66 195 66c124 0 191 -64 191 -149s-74 -140 -133 -156v-1
c76 -9 155 -66 155 -165c0 -133 -120 -216 -290 -216z" />
    <glyph glyph-name="four" unicode="4" horiz-adv-x="603" 
d="M334 -177v177h-311v84l326 403h117v-385h104v-102h-104v-177h-132zM166 102h168v213h-2z" />
    <glyph glyph-name="five" unicode="5" horiz-adv-x="455" 
d="M126 -188c-49 0 -82 7 -96 10l25 106c10 -3 35 -10 72 -10c84 0 153 41 153 123c0 87 -65 118 -152 118c-26 0 -53 -2 -70 -6l21 334h329v-102h-209l-8 -123c147 -3 231 -88 231 -214c0 -142 -112 -236 -296 -236z" />
    <glyph glyph-name="six" unicode="6" horiz-adv-x="545" 
d="M278 -12c-176 0 -244 141 -244 292c0 235 159 398 419 398l29 -106c-84 0 -174 -22 -226 -67c-41 -36 -65 -80 -75 -137c31 23 76 39 129 39c118 0 204 -73 204 -202c0 -131 -101 -217 -236 -217zM282 90c58 0 92 47 92 106c0 73 -35 110 -96 110c-47 0 -80 -16 -104 -36
v-12c-3 -91 31 -168 108 -168z" />
    <glyph glyph-name="seven" unicode="7" horiz-adv-x="479" 
d="M150 -201l-111 54l246 526h-265v109h419v-72z" />
    <glyph glyph-name="eight" unicode="8" horiz-adv-x="536" 
d="M268 -12c-148 0 -231 75 -231 178c0 73 46 131 128 176c-76 44 -109 93 -109 159c0 106 95 177 211 177c133 0 216 -64 216 -169c0 -61 -42 -110 -119 -154c87 -46 134 -100 134 -183c0 -117 -96 -184 -230 -184zM268 87c61 0 93 38 93 85c0 40 -28 75 -105 116
c-58 -36 -85 -72 -85 -117c0 -49 36 -84 97 -84zM273 406c52 34 75 66 75 98c0 43 -27 76 -77 76s-79 -32 -79 -73c0 -36 22 -67 81 -101z" />
    <glyph glyph-name="nine" unicode="9" horiz-adv-x="548" 
d="M83 -184l-28 105c83 0 179 24 235 68c43 34 68 76 77 132c-37 -26 -79 -39 -130 -39c-118 0 -206 74 -206 202c0 131 107 215 240 215c179 0 242 -142 242 -292c0 -237 -154 -391 -430 -391zM269 183c40 0 77 12 104 35l1 11c2 91 -29 169 -107 169
c-54 0 -94 -41 -94 -108c0 -69 35 -107 96 -107z" />
    <glyph glyph-name="colon" unicode=":" horiz-adv-x="286" 
d="M143 -10c-49 0 -89 38 -89 87c0 48 40 85 89 85s88 -37 88 -85c0 -49 -39 -87 -88 -87zM143 322c-49 0 -89 38 -89 87c0 48 40 85 89 85s88 -37 88 -85c0 -49 -39 -87 -88 -87z" />
    <glyph glyph-name="semicolon" unicode=";" horiz-adv-x="286" 
d="M75 -145c21 32 41 73 41 107c0 55 -59 57 -59 123c0 44 36 76 81 76c52 0 96 -41 96 -110c0 -70 -36 -144 -74 -196h-85zM143 322c-49 0 -89 38 -89 87c0 48 40 85 89 85s88 -37 88 -85c0 -49 -39 -87 -88 -87z" />
    <glyph glyph-name="less" unicode="&#x3c;" horiz-adv-x="391" 
d="M284 20l-258 228l256 232l71 -72l-173 -157l175 -154z" />
    <glyph glyph-name="equal" unicode="=" horiz-adv-x="478" 
d="M39 119v102h400v-102h-400zM39 306v102h400v-102h-400z" />
    <glyph glyph-name="greater" unicode="&#x3e;" horiz-adv-x="391" 
d="M109 20l-70 73l173 156l-176 155l72 76l257 -227z" />
    <glyph glyph-name="question" unicode="?" horiz-adv-x="413" 
d="M99 223v53c0 61 22 90 69 120c43 28 69 51 69 98c0 51 -32 75 -89 75c-36 0 -64 -13 -86 -24l-46 98c35 19 84 35 156 35c142 0 209 -75 209 -172c0 -83 -50 -127 -94 -157c-43 -29 -72 -44 -72 -86v-40h-116zM158 -10c-49 0 -85 38 -85 83c0 44 36 81 85 81
s84 -37 84 -81c0 -45 -35 -83 -84 -83z" />
    <glyph glyph-name="at" unicode="@" horiz-adv-x="812" 
d="M398 -98c-218 0 -352 143 -352 339c0 197 158 391 381 391c232 0 352 -150 352 -313c0 -141 -82 -239 -203 -239c-72 0 -103 35 -108 86h-3c-25 -47 -71 -84 -132 -84c-64 0 -102 54 -102 119c0 143 80 267 214 267c58 0 114 -15 148 -27l-29 -167c-4 -28 -8 -50 -8 -65
c0 -26 14 -44 36 -44c53 0 98 56 98 147c0 152 -103 237 -264 237c-150 0 -280 -128 -280 -305c0 -161 90 -258 263 -258c58 0 113 15 145 29l32 -79c-37 -15 -112 -34 -188 -34zM374 172c56 0 89 85 108 181l6 28c-10 4 -31 8 -47 8c-63 0 -100 -81 -100 -168
c0 -27 8 -49 33 -49z" />
    <glyph glyph-name="A" unicode="A" horiz-adv-x="680" 
d="M240 238h187l-57 159c-21 57 -30 100 -36 115h-2c-5 -16 -16 -61 -35 -115zM15 0l254 666h136l261 -666h-154l-45 125h-266l-44 -125h-142z" />
    <glyph glyph-name="B" unicode="B" horiz-adv-x="602" 
d="M83 0v666h222c123 0 230 -40 230 -166c0 -86 -46 -134 -118 -153v-2c79 -12 146 -65 146 -160c0 -136 -109 -185 -261 -185h-219zM222 108h74c81 0 124 25 124 89c0 62 -36 94 -118 94h-80v-183zM222 392h65c76 0 109 27 109 86c0 55 -36 80 -106 80h-68v-166z" />
    <glyph glyph-name="C" unicode="C" horiz-adv-x="618" 
d="M385 -12c-227 0 -342 165 -342 346s119 344 344 344c87 0 148 -19 200 -53l-63 -103c-37 24 -78 39 -139 39c-125 0 -192 -100 -192 -223c0 -127 64 -232 194 -232c72 0 116 25 151 51l58 -99c-34 -31 -114 -70 -211 -70z" />
    <glyph glyph-name="D" unicode="D" horiz-adv-x="706" 
d="M83 0v666h201c262 0 381 -132 381 -324s-121 -342 -386 -342h-196zM224 113h66c150 0 226 77 226 225c0 149 -73 215 -231 215h-61v-440z" />
    <glyph glyph-name="E" unicode="E" horiz-adv-x="530" 
d="M83 0v666h384v-116h-245v-150h216v-110h-216v-174h252v-116h-391z" />
    <glyph glyph-name="F" unicode="F" horiz-adv-x="510" 
d="M83 0v666h382v-116h-241v-163h212v-110h-212v-277h-141z" />
    <glyph glyph-name="G" unicode="G" horiz-adv-x="710" 
d="M395 -12c-229 0 -352 166 -352 346c0 181 132 344 363 344c100 0 167 -22 219 -60l-63 -105c-41 30 -90 48 -159 48c-142 0 -210 -96 -210 -223c0 -128 61 -235 201 -235c54 0 95 11 118 26v132h-123v109h258v-318c-47 -32 -124 -64 -252 -64z" />
    <glyph glyph-name="H" unicode="H" horiz-adv-x="745" 
d="M83 0v666h141v-262h298v262h141v-666h-141v288h-298v-288h-141z" />
    <glyph glyph-name="I" unicode="I" horiz-adv-x="324" 
d="M89 0v666h141v-666h-141z" />
    <glyph glyph-name="J" unicode="J" horiz-adv-x="331" 
d="M57 -204c-47 0 -77 8 -98 16l22 115c9 -4 29 -9 47 -9c56 0 78 28 78 99v649h142v-668c0 -132 -73 -202 -191 -202z" />
    <glyph glyph-name="K" unicode="K" horiz-adv-x="630" 
d="M83 0v666h140v-290l227 290h156l-245 -309l256 -357h-167l-227 319v-319h-140z" />
    <glyph glyph-name="L" unicode="L" horiz-adv-x="514" 
d="M85 0v666h142v-552h248v-114h-390z" />
    <glyph glyph-name="M" unicode="M" horiz-adv-x="882" 
d="M41 0l92 666h137l134 -411c16 -48 28 -96 34 -115h2c5 18 19 67 35 115l138 411h136l92 -666h-144l-43 344c-6 49 -10 84 -11 97h-2c-3 -15 -13 -51 -27 -95l-113 -346h-139l-113 345c-13 42 -23 82 -27 96h-2c-1 -15 -4 -54 -9 -98l-43 -343h-127z" />
    <glyph glyph-name="N" unicode="N" horiz-adv-x="742" 
d="M82 0v666h142l240 -345c40 -57 64 -101 70 -112h2c-1 9 -4 54 -4 105v352h128v-666h-129l-259 370c-36 50 -56 87 -64 100h-2c1 -9 4 -47 4 -89v-381h-128z" />
    <glyph glyph-name="O" unicode="O" horiz-adv-x="773" 
d="M390 -12c-223 0 -347 164 -347 344c0 181 121 346 344 346s343 -163 343 -342c0 -181 -117 -348 -340 -348zM387 102c134 0 194 106 194 230s-58 232 -191 232c-134 0 -197 -104 -197 -228c0 -125 61 -234 194 -234z" />
    <glyph glyph-name="P" unicode="P" horiz-adv-x="591" 
d="M81 0v666h219c145 0 255 -67 255 -210c0 -145 -105 -219 -271 -219h-61v-237h-142zM223 344h63c89 0 127 36 127 110c0 67 -37 104 -124 104h-66v-214z" />
    <glyph glyph-name="Q" unicode="Q" horiz-adv-x="773" 
d="M608 -175c-103 0 -186 37 -287 171c-178 28 -278 175 -278 336c0 181 121 346 344 346s343 -163 343 -342c0 -153 -84 -298 -246 -337c38 -50 72 -69 130 -69c38 0 66 16 80 27l45 -93c-20 -16 -66 -39 -131 -39zM387 102c134 0 194 106 194 230s-58 232 -191 232
c-134 0 -197 -104 -197 -228c0 -125 61 -234 194 -234z" />
    <glyph glyph-name="R" unicode="R" horiz-adv-x="620" 
d="M83 0v666h222c156 0 246 -67 246 -192c0 -109 -74 -164 -155 -179v-2c18 -13 42 -39 78 -95l130 -198h-155l-122 190c-52 77 -63 84 -94 84h-9v-274h-141zM224 374h77c75 0 110 34 110 92c0 61 -35 92 -116 92h-71v-184z" />
    <glyph glyph-name="S" unicode="S" horiz-adv-x="516" 
d="M237 -12c-108 0 -177 42 -206 66l60 98c15 -11 66 -50 143 -50c67 0 106 34 106 77c0 59 -71 76 -149 115c-82 40 -143 91 -143 199c0 114 96 185 215 185c109 0 167 -35 195 -56l-57 -99c-23 15 -73 41 -130 41c-54 0 -89 -24 -89 -69c0 -52 53 -69 123 -101
c88 -40 171 -85 171 -208c0 -121 -91 -198 -239 -198z" />
    <glyph glyph-name="T" unicode="T" horiz-adv-x="537" 
d="M198 0v550h-184v116h509v-116h-183v-550h-142z" />
    <glyph glyph-name="U" unicode="U" horiz-adv-x="715" 
d="M363 -12c-193 0 -284 96 -284 270v408h141v-396c0 -114 41 -166 146 -166c99 0 140 60 140 157v405h130v-395c0 -182 -91 -283 -273 -283z" />
    <glyph glyph-name="V" unicode="V" horiz-adv-x="665" 
d="M270 0l-257 666h152l140 -399c18 -51 31 -99 34 -111h2c4 12 18 61 34 111l135 399h142l-248 -666h-134z" />
    <glyph glyph-name="W" unicode="W" horiz-adv-x="914" 
d="M196 0l-179 666h150l84 -348c13 -53 24 -120 24 -122h2c1 2 15 73 28 126l91 344h139l89 -342c14 -55 26 -125 27 -127h2c1 2 10 69 24 123l86 346h135l-182 -666h-130l-96 369c-14 54 -27 122 -27 124h-2c-1 -2 -15 -69 -30 -124l-105 -369h-130z" />
    <glyph glyph-name="X" unicode="X" horiz-adv-x="616" 
d="M19 0l211 342l-201 324h160l126 -208l118 208h142l-192 -322l214 -344h-160l-140 230l-135 -230h-143z" />
    <glyph glyph-name="Y" unicode="Y" horiz-adv-x="598" 
d="M232 0v251l-221 415h157l141 -283h1l140 283h137l-214 -415v-251h-141z" />
    <glyph glyph-name="Z" unicode="Z" horiz-adv-x="571" 
d="M46 0v92l305 459h-292v115h463v-90l-308 -461h317v-115h-485z" />
    <glyph glyph-name="bracketleft" unicode="[" horiz-adv-x="341" 
d="M65 -161v881h250v-99h-123v-683h123v-99h-250z" />
    <glyph glyph-name="backslash" unicode="\" horiz-adv-x="450" 
d="M319 -161l-318 881h129l318 -881h-129z" />
    <glyph glyph-name="bracketright" unicode="]" horiz-adv-x="341" 
d="M26 -161v99h123v683h-123v99h250v-881h-250z" />
    <glyph glyph-name="asciicircum" unicode="^" horiz-adv-x="584" 
d="M44 288l201 378h93l201 -378h-122l-125 241l-125 -241h-123z" />
    <glyph glyph-name="underscore" unicode="_" horiz-adv-x="433" 
d="M-1 -184v103h435v-103h-435z" />
    <glyph glyph-name="grave" unicode="`" horiz-adv-x="500" 
d="M267 541l-140 135h171l83 -135h-114z" />
    <glyph glyph-name="a" unicode="a" horiz-adv-x="502" 
d="M180 -12c-83 0 -147 50 -147 137c0 127 131 173 260 173h17v28c0 47 -21 68 -79 68c-53 0 -95 -23 -124 -46l-58 81c39 36 105 70 197 70c133 0 196 -51 196 -180v-175c0 -66 7 -113 14 -144h-131c-4 12 -7 37 -8 52c-26 -32 -74 -64 -137 -64zM220 85c41 0 69 19 90 43
v88h-17c-78 0 -132 -23 -132 -80c0 -36 29 -51 59 -51z" />
    <glyph glyph-name="b" unicode="b" horiz-adv-x="553" 
d="M263 -12c-98 0 -167 22 -200 39v693h133v-271c25 25 68 50 119 50c122 0 207 -84 207 -252c0 -166 -112 -259 -259 -259zM263 92c74 0 118 55 118 155c0 91 -31 147 -103 147c-36 0 -67 -21 -82 -37v-254c14 -6 35 -11 67 -11z" />
    <glyph glyph-name="c" unicode="c" horiz-adv-x="458" 
d="M282 -12c-156 0 -252 104 -252 255c0 164 109 256 256 256c79 0 126 -24 149 -39l-43 -91c-22 14 -53 29 -102 29c-78 0 -119 -61 -119 -151s39 -156 122 -156c56 0 90 21 105 30l41 -89c-23 -15 -68 -44 -157 -44z" />
    <glyph glyph-name="d" unicode="d" horiz-adv-x="557" 
d="M231 -13c-122 0 -200 92 -200 255c0 156 93 257 218 257c52 0 90 -15 113 -34v255h133v-581c0 -59 7 -107 14 -139h-131c-4 12 -9 38 -10 53c-33 -40 -76 -66 -137 -66zM271 94c39 0 72 24 91 49v220c-21 19 -47 32 -85 32c-68 0 -105 -57 -105 -153
c0 -93 31 -148 99 -148z" />
    <glyph glyph-name="e" unicode="e" horiz-adv-x="519" 
d="M285 -12c-163 0 -255 103 -255 258c0 154 106 253 241 253c138 0 212 -88 212 -240c0 -15 -1 -30 -2 -46h-308c6 -72 43 -126 124 -126c66 0 103 22 127 34l43 -86c-32 -18 -82 -47 -182 -47zM171 303h182c-1 55 -23 100 -84 100c-57 0 -88 -37 -98 -100z" />
    <glyph glyph-name="f" unicode="f" horiz-adv-x="365" 
d="M90 0v388h-73v99h73v50c0 117 68 195 192 195c71 0 106 -16 118 -23l-31 -100c-8 4 -31 14 -67 14c-54 0 -79 -33 -79 -96v-40h116v-99h-116v-388h-133z" />
    <glyph glyph-name="g" unicode="g" horiz-adv-x="537" 
d="M243 -239c-134 0 -214 42 -214 130c0 54 34 93 82 119c-27 16 -43 39 -43 74c0 45 25 74 54 92c-55 30 -86 82 -86 146c0 105 81 177 216 177c32 0 62 -4 87 -12h177v-87h-67c13 -23 20 -50 20 -78c0 -104 -74 -176 -210 -176c-20 0 -40 1 -58 4c-12 -7 -18 -16 -18 -28
c0 -26 28 -31 98 -35c101 -5 229 -6 229 -150c0 -103 -107 -176 -267 -176zM251 -150c81 0 127 31 127 72c0 52 -46 50 -117 55c-23 2 -46 3 -67 7c-25 -18 -38 -39 -38 -68c0 -39 27 -66 95 -66zM253 232c55 0 88 34 88 90c0 57 -33 90 -88 90s-88 -33 -88 -90
c0 -56 33 -90 88 -90z" />
    <glyph glyph-name="h" unicode="h" 
d="M63 0v720h133v-292c25 27 72 71 152 71c107 0 146 -68 146 -158v-341h-133v314c0 49 -17 74 -64 74c-52 0 -91 -48 -101 -61v-327h-133z" />
    <glyph glyph-name="i" unicode="i" horiz-adv-x="280" 
d="M140 550c-47 0 -81 37 -81 80c0 42 34 78 81 78s82 -36 82 -78c0 -43 -35 -80 -82 -80zM73 0v487h134v-487h-134z" />
    <glyph glyph-name="j" unicode="j" horiz-adv-x="275" 
d="M37 -233c-49 0 -75 7 -87 12l23 103c6 -2 18 -6 38 -6c46 0 60 29 60 104v507h134v-521c0 -121 -47 -199 -168 -199zM137 550c-47 0 -81 37 -81 80c0 42 34 78 81 78c48 0 82 -36 82 -78c0 -43 -34 -80 -82 -80z" />
    <glyph glyph-name="k" unicode="k" horiz-adv-x="517" 
d="M63 0v720h133v-430l161 197h145l-180 -217l184 -270h-154l-156 238v-238h-133z" />
    <glyph glyph-name="l" unicode="l" horiz-adv-x="275" 
d="M71 0v720h133v-720h-133z" />
    <glyph glyph-name="m" unicode="m" horiz-adv-x="823" 
d="M65 0v487h130v-60c25 28 68 72 146 72c69 0 107 -31 125 -77c41 46 86 77 156 77c103 0 139 -68 139 -158v-341h-133v314c0 48 -14 74 -58 74c-41 0 -72 -32 -91 -55v-333h-133v314c0 49 -17 74 -57 74c-49 0 -81 -47 -91 -60v-328h-133z" />
    <glyph glyph-name="n" unicode="n" horiz-adv-x="557" 
d="M65 0v487h130v-61c35 41 85 73 155 73c106 0 146 -68 146 -158v-341h-133v314c0 49 -17 74 -65 74c-43 0 -80 -34 -100 -61v-327h-133z" />
    <glyph glyph-name="o" unicode="o" horiz-adv-x="550" 
d="M274 -12c-170 0 -244 129 -244 254s73 257 243 257s247 -128 247 -253c0 -123 -75 -258 -246 -258zM276 89c76 0 103 62 103 153s-32 158 -108 158c-75 0 -100 -63 -100 -154s30 -157 105 -157z" />
    <glyph glyph-name="p" unicode="p" horiz-adv-x="559" 
d="M65 -219v706h130v-51c27 33 69 63 135 63c123 0 198 -92 198 -255c0 -154 -91 -256 -218 -256c-60 0 -95 20 -112 35v-242h-133zM282 91c68 0 105 57 105 153c0 92 -32 149 -97 149c-50 0 -82 -36 -92 -50v-219c17 -15 42 -33 84 -33z" />
    <glyph glyph-name="q" unicode="q" horiz-adv-x="554" 
d="M359 -218v257c-24 -25 -65 -51 -119 -51c-122 0 -207 86 -207 252s113 259 259 259c112 0 177 -26 200 -36v-681h-133zM277 93c42 0 73 27 82 37v254c-9 3 -30 11 -66 11c-76 0 -120 -56 -120 -155c0 -91 32 -147 104 -147z" />
    <glyph glyph-name="r" unicode="r" horiz-adv-x="390" 
d="M65 0v487h133v-66c21 36 61 78 123 78c36 0 55 -7 66 -13l-32 -116c-8 5 -23 11 -51 11c-59 0 -94 -52 -106 -74v-307h-133z" />
    <glyph glyph-name="s" unicode="s" horiz-adv-x="420" 
d="M199 -12c-87 0 -143 26 -173 46l45 93c19 -13 66 -40 120 -40c51 0 80 15 80 44c0 33 -54 42 -123 75c-68 32 -109 70 -109 144c0 91 72 149 182 149c83 0 134 -26 156 -39l-47 -91c-19 12 -57 31 -104 31s-67 -17 -67 -43c0 -33 44 -42 100 -64c77 -32 133 -67 133 -149
c0 -102 -73 -156 -193 -156z" />
    <glyph glyph-name="t" unicode="t" horiz-adv-x="387" 
d="M251 -12c-115 0 -154 59 -154 152v248h-78v99h78v141h132v-141h114v-99h-114v-222c0 -48 12 -69 49 -69c29 0 54 12 64 18l31 -99c-20 -11 -61 -28 -122 -28z" />
    <glyph glyph-name="u" unicode="u" horiz-adv-x="557" 
d="M207 -12c-107 0 -146 69 -146 158v341h133v-314c0 -49 17 -74 65 -74c51 0 90 49 100 61v327h133v-347c0 -62 7 -111 13 -140h-131c-4 13 -9 45 -10 65c-26 -33 -76 -77 -157 -77z" />
    <glyph glyph-name="v" unicode="v" horiz-adv-x="507" 
d="M191 0l-181 487h144l101 -322h2l104 322h135l-180 -487h-125z" />
    <glyph glyph-name="w" unicode="w" horiz-adv-x="743" 
d="M149 0l-138 487h143l74 -310h2l83 310h123l83 -312h2l76 312h133l-139 -487h-120l-100 326h-2l-100 -326h-120z" />
    <glyph glyph-name="x" unicode="x" horiz-adv-x="511" 
d="M16 0l166 252l-160 235h150s85 -129 88 -133l78 133h137l-151 -229l172 -258h-150l-101 156l-92 -156h-137z" />
    <glyph glyph-name="y" unicode="y" horiz-adv-x="517" 
d="M78 -234c-41 0 -65 6 -75 9l19 105c7 -2 18 -5 47 -5c68 0 92 33 111 85l18 50l-183 477h142l110 -321h3l99 321h137l-201 -539c-43 -115 -94 -182 -227 -182z" />
    <glyph glyph-name="z" unicode="z" horiz-adv-x="458" 
d="M39 0v72l212 315h-202v100h364v-77l-211 -310h213v-100h-376z" />
    <glyph glyph-name="braceleft" unicode="{" horiz-adv-x="406" 
d="M259 -161c-58 0 -119 40 -119 124v171c0 62 -36 99 -114 101v100c77 2 114 36 114 101v161c0 85 59 123 120 123h119v-99h-62c-41 0 -50 -26 -50 -68v-146c0 -72 -39 -104 -91 -119v-2c53 -17 91 -52 91 -126v-155c0 -47 7 -67 50 -67h62v-99h-120z" />
    <glyph glyph-name="bar" unicode="|" horiz-adv-x="286" 
d="M85 -250v1000h117v-1000h-117z" />
    <glyph glyph-name="braceright" unicode="}" horiz-adv-x="406" 
d="M26 -161v99h62c42 0 51 26 51 68v157c0 72 38 104 91 119v2c-54 17 -91 52 -91 126v144c0 47 -7 67 -50 67h-63v99h121c58 0 119 -40 119 -124v-160c0 -62 35 -99 114 -101v-100c-78 -2 -114 -36 -114 -101v-172c0 -85 -60 -123 -120 -123h-120z" />
    <glyph glyph-name="asciitilde" unicode="~" horiz-adv-x="585" 
d="M390 165c-99 0 -124 58 -203 58c-45 0 -72 -25 -89 -41l-60 79c26 27 80 71 155 71c91 0 115 -58 203 -58c39 0 72 23 91 41l60 -78c-29 -31 -85 -72 -157 -72z" />
    <glyph glyph-name="uni00A0" unicode="&#xa0;" horiz-adv-x="194" 
 />
    <glyph glyph-name="exclamdown" unicode="&#xa1;" horiz-adv-x="298" 
d="M152 336c-49 0 -84 37 -84 81c0 45 35 82 84 82s84 -37 84 -82c0 -44 -35 -81 -84 -81zM74 -176l25 440h106l25 -440h-156z" />
    <glyph glyph-name="cent" unicode="&#xa2;" horiz-adv-x="458" 
d="M205 -123v120c-111 28 -175 123 -175 246c0 133 71 219 175 246v110h111v-101c62 -5 99 -25 119 -38l-43 -91c-22 14 -53 29 -102 29c-78 0 -119 -61 -119 -151s39 -156 122 -156c56 0 90 21 105 30l41 -89c-20 -13 -56 -36 -123 -42v-113h-111z" />
    <glyph glyph-name="sterling" unicode="&#xa3;" horiz-adv-x="513" 
d="M62 269v97h84c-6 35 -12 73 -12 117c0 116 77 195 217 195c71 0 115 -20 143 -37l-53 -93c-18 10 -42 23 -86 23c-56 0 -82 -36 -82 -99c0 -37 5 -72 11 -106h145v-97h-132v-14c0 -73 -34 -126 -63 -149h234v-106h-404v85c68 34 97 103 97 166c0 6 0 12 -1 18h-98z" />
    <glyph glyph-name="currency" unicode="&#xa4;" horiz-adv-x="622" 
d="M159 -5l-97 74l79 99c-24 34 -36 77 -36 119c0 44 13 87 40 122l-80 101l96 74l78 -105c22 8 48 13 76 13c26 0 49 -4 68 -11l77 103l97 -74l-76 -95c31 -35 45 -83 45 -128c0 -46 -14 -91 -42 -127l72 -91l-97 -74l-71 97c-22 -7 -46 -11 -73 -11c-31 0 -58 5 -81 15z
M315 195c55 0 87 40 87 92c0 53 -34 92 -87 92c-52 0 -87 -40 -87 -92s33 -92 87 -92z" />
    <glyph glyph-name="yen" unicode="&#xa5;" horiz-adv-x="583" 
d="M225 0v85h-162v93h162v58h-162v92h121l-180 338h157l140 -286h2l140 286h137l-175 -338h124v-92h-163v-58h163v-93h-163v-85h-141z" />
    <glyph glyph-name="brokenbar" unicode="&#xa6;" horiz-adv-x="241" 
d="M60 -250v378h117v-378h-117zM60 382v368h117v-368h-117z" />
    <glyph glyph-name="section" unicode="&#xa7;" horiz-adv-x="465" 
d="M192 -152c-69 0 -114 19 -136 34l41 96c15 -10 41 -25 80 -25c48 0 75 26 75 65c0 83 -213 157 -213 314c0 63 37 109 77 134c-19 28 -34 61 -34 101c0 103 82 165 180 165c75 0 116 -21 140 -38l-49 -87c-13 9 -34 24 -76 24c-41 0 -62 -26 -62 -59
c0 -89 210 -163 210 -324c0 -64 -39 -106 -73 -133c19 -27 34 -60 34 -96c0 -118 -92 -171 -194 -171zM276 191c13 13 22 29 22 52c0 45 -71 107 -115 150c-12 -11 -18 -26 -18 -52c0 -45 69 -108 111 -150z" />
    <glyph glyph-name="dieresis" unicode="&#xa8;" horiz-adv-x="500" 
d="M145 542c-43 0 -74 32 -74 72c0 38 31 71 74 71s74 -33 74 -71c0 -40 -31 -72 -74 -72zM355 542c-43 0 -74 32 -74 72c0 38 31 71 74 71s74 -33 74 -71c0 -40 -31 -72 -74 -72z" />
    <glyph glyph-name="copyright" unicode="&#xa9;" horiz-adv-x="836" 
d="M424 135c-126 0 -220 96 -220 224s97 224 222 224c76 0 121 -31 148 -54l-53 -75c-17 13 -44 34 -92 34c-71 0 -115 -58 -115 -127c0 -77 50 -134 118 -134c51 0 82 28 101 44l50 -72c-26 -24 -77 -64 -159 -64zM417 -14c-205 0 -372 167 -372 373s167 373 372 373
c206 0 373 -167 373 -373s-167 -373 -373 -373zM417 63c168 0 291 118 291 296c0 177 -123 296 -291 296c-167 0 -290 -119 -290 -296c0 -178 123 -296 290 -296z" />
    <glyph glyph-name="ordfeminine" unicode="&#xaa;" horiz-adv-x="377" 
d="M135 312c-63 0 -112 36 -112 100c0 40 19 68 46 88c36 25 90 34 152 34v17c0 30 -11 47 -53 47s-73 -21 -89 -33l-45 63c22 19 70 50 145 50c99 0 146 -38 146 -130v-123c0 -46 5 -79 12 -104h-103c-3 8 -6 23 -7 33c-18 -19 -49 -42 -92 -42zM162 386c32 0 50 17 59 27
v59c-43 0 -70 -4 -87 -21c-8 -8 -12 -18 -12 -31c0 -21 15 -34 40 -34z" />
    <glyph glyph-name="guillemotleft" unicode="&#xab;" horiz-adv-x="539" 
d="M152 53l-120 192l120 193h136l-119 -193l119 -192h-136zM374 53l-120 192l120 193h136l-119 -193l119 -192h-136z" />
    <glyph glyph-name="logicalnot" unicode="&#xac;" horiz-adv-x="624" 
d="M470 30v185h-430v103h537v-288h-107z" />
    <glyph glyph-name="uni00AD" unicode="&#xad;" horiz-adv-x="330" 
d="M51 228v108h228v-108h-228z" />
    <glyph glyph-name="registered" unicode="&#xae;" horiz-adv-x="836" 
d="M275 156v417h148c97 0 149 -48 149 -122c0 -66 -42 -100 -96 -111c13 -10 29 -28 50 -62l75 -122h-103l-79 132c-19 31 -28 39 -51 39v-171h-93zM417 -14c-205 0 -372 167 -372 373s167 373 372 373c206 0 373 -167 373 -373s-167 -373 -373 -373zM417 63
c168 0 291 118 291 296c0 177 -123 296 -291 296c-167 0 -290 -119 -290 -296c0 -178 123 -296 290 -296zM368 391h38c40 0 72 12 72 55c0 35 -18 56 -65 56h-45v-111z" />
    <glyph glyph-name="macron" unicode="&#xaf;" horiz-adv-x="500" 
d="M108 562v95h283v-95h-283z" />
    <glyph glyph-name="degree" unicode="&#xb0;" horiz-adv-x="346" 
d="M173 397c-78 0 -143 62 -143 140c0 79 65 141 143 141s143 -62 143 -141c0 -78 -64 -140 -143 -140zM173 472c36 0 61 28 61 65c0 38 -25 66 -61 66s-61 -28 -61 -66c0 -37 25 -65 61 -65z" />
    <glyph glyph-name="plusminus" unicode="&#xb1;" horiz-adv-x="574" 
d="M225 26v186h-184v102h184v180h114v-180h181v-102h-181v-186h-114zM55 -152v103h453v-103h-453z" />
    <glyph glyph-name="twosuperior" unicode="&#xb2;" horiz-adv-x="343" 
d="M25 331v54c77 60 155 117 155 171c0 26 -18 37 -40 37c-28 0 -55 -14 -75 -32l-49 65c31 25 74 47 138 47c91 0 136 -45 136 -105c0 -63 -59 -113 -118 -160c6 2 30 3 48 3h85v-80h-280z" />
    <glyph glyph-name="threesuperior" unicode="&#xb3;" horiz-adv-x="322" 
d="M106 325c-38 0 -71 6 -86 12l20 75c13 -5 40 -10 62 -10c39 0 69 10 69 32c0 25 -34 36 -92 37v60c53 2 83 18 83 40c0 16 -14 25 -38 25s-52 -12 -65 -21l-37 64c24 16 72 34 126 34c75 0 120 -30 120 -79c0 -45 -38 -68 -72 -77v-1c37 -4 85 -27 85 -81
c0 -69 -65 -110 -175 -110z" />
    <glyph glyph-name="acute" unicode="&#xb4;" horiz-adv-x="500" 
d="M145 541l83 135h172l-140 -135h-115z" />
    <glyph glyph-name="uni00B5" unicode="&#xb5;" horiz-adv-x="565" 
d="M62 -209v696h133v-317c0 -43 12 -71 59 -71c49 0 88 39 106 61v327h133v-349c0 -58 6 -110 12 -138h-131c-4 12 -9 45 -10 65c-23 -26 -64 -68 -127 -73c-16 -1 -34 1 -46 6h-3c2 -13 4 -49 4 -100v-107h-130z" />
    <glyph glyph-name="paragraph" unicode="&#xb6;" horiz-adv-x="662" 
d="M243 -177v429c-113 0 -205 81 -205 206s92 208 205 208h385v-104h-75v-739h-115v739h-78v-739h-117z" />
    <glyph glyph-name="periodcentered" unicode="&#xb7;" horiz-adv-x="258" 
d="M129 204c-49 0 -88 38 -88 86s39 86 88 86s88 -38 88 -86s-39 -86 -88 -86z" />
    <glyph glyph-name="cedilla" unicode="&#xb8;" horiz-adv-x="494" 
d="M229 -230c-42 0 -69 9 -82 15l17 60c10 -5 28 -11 51 -11c29 0 48 11 48 34c0 34 -37 40 -71 38l36 97h76l-21 -58c41 -9 71 -38 71 -82c0 -55 -51 -93 -125 -93z" />
    <glyph glyph-name="onesuperior" unicode="&#xb9;" horiz-adv-x="286" 
d="M107 331v248l-73 -18l-22 79l121 26h77v-335h-103z" />
    <glyph glyph-name="ordmasculine" unicode="&#xba;" horiz-adv-x="410" 
d="M205 312c-122 0 -179 88 -179 182s56 184 178 184c120 0 180 -87 180 -181s-58 -185 -179 -185zM206 389c51 0 67 41 67 105s-20 108 -71 108s-65 -41 -65 -105s18 -108 69 -108z" />
    <glyph glyph-name="guillemotright" unicode="&#xbb;" horiz-adv-x="539" 
d="M28 53l120 193l-120 192h136l120 -192l-120 -193h-136zM251 53l119 193l-119 192h135l121 -192l-121 -193h-135z" />
    <glyph glyph-name="onequarter" unicode="&#xbc;" horiz-adv-x="745" 
d="M107 331v248l-73 -18l-22 79l121 26h77v-335h-103zM96 0l408 666h106l-409 -666h-105zM570 0v62h-170v62l175 211h98v-199h52v-74h-52v-62h-103zM497 134c9 1 26 2 43 2h33v91h-1z" />
    <glyph glyph-name="onehalf" unicode="&#xbd;" horiz-adv-x="766" 
d="M107 331v248l-73 -18l-22 79l121 26h77v-335h-103zM96 0l408 666h106l-409 -666h-105zM447 0v54c78 60 156 116 156 171c0 25 -18 36 -41 36c-28 0 -54 -13 -75 -31l-49 64c31 26 74 47 138 47c91 0 137 -44 137 -105c0 -62 -60 -113 -119 -159c7 1 31 2 48 2h85v-79
h-280z" />
    <glyph glyph-name="threequarters" unicode="&#xbe;" horiz-adv-x="782" 
d="M106 325c-38 0 -71 6 -86 12l20 75c13 -5 40 -10 62 -10c39 0 69 10 69 32c0 25 -34 36 -92 37v60c53 2 83 18 83 40c0 16 -14 25 -38 25s-52 -12 -65 -21l-37 64c24 16 72 34 126 34c75 0 120 -30 120 -79c0 -45 -38 -68 -72 -77v-1c37 -4 85 -27 85 -81
c0 -69 -65 -110 -175 -110zM132 0l409 666h106l-409 -666h-106zM607 0v62h-170v62l175 211h97v-199h53v-74h-53v-62h-102zM534 134c9 1 25 2 42 2h34v91h-1z" />
    <glyph glyph-name="questiondown" unicode="&#xbf;" horiz-adv-x="411" 
d="M240 -188c-141 0 -208 75 -208 172c0 82 50 126 94 156c42 30 72 44 72 87v40h116v-54c0 -61 -23 -90 -69 -119c-44 -29 -69 -51 -69 -99c0 -50 31 -74 88 -74c40 0 68 14 86 23l46 -98c-29 -15 -77 -34 -156 -34zM255 336c-49 0 -84 37 -84 81c0 45 35 82 84 82
s84 -37 84 -82c0 -44 -35 -81 -84 -81z" />
    <glyph glyph-name="Agrave" unicode="&#xc0;" horiz-adv-x="680" 
d="M240 238h187l-57 159c-21 57 -30 100 -36 115h-2c-5 -16 -16 -61 -35 -115zM15 0l254 666h136l261 -666h-154l-45 125h-266l-44 -125h-142zM286 717l-140 135h171l83 -135h-114z" />
    <glyph glyph-name="Aacute" unicode="&#xc1;" horiz-adv-x="680" 
d="M240 238h187l-57 159c-21 57 -30 100 -36 115h-2c-5 -16 -16 -61 -35 -115zM15 0l254 666h136l261 -666h-154l-45 125h-266l-44 -125h-142zM267 717l83 135h172l-140 -135h-115z" />
    <glyph glyph-name="Acircumflex" unicode="&#xc2;" horiz-adv-x="680" 
d="M240 238h187l-57 159c-21 57 -30 100 -36 115h-2c-5 -16 -16 -61 -35 -115zM15 0l254 666h136l261 -666h-154l-45 125h-266l-44 -125h-142zM156 718l127 159h102l125 -159h-113l-64 66l-64 -66h-113z" />
    <glyph glyph-name="Atilde" unicode="&#xc3;" horiz-adv-x="680" 
d="M240 238h187l-57 159c-21 57 -30 100 -36 115h-2c-5 -16 -16 -61 -35 -115zM15 0l254 666h136l261 -666h-154l-45 125h-266l-44 -125h-142zM392 722c-60 0 -77 35 -118 35c-24 0 -44 -20 -54 -30l-61 53c19 33 59 75 113 75c61 0 77 -35 118 -35c28 0 47 20 56 31l61 -53
c-20 -34 -60 -76 -115 -76z" />
    <glyph glyph-name="Adieresis" unicode="&#xc4;" horiz-adv-x="680" 
d="M240 238h187l-57 159c-21 57 -30 100 -36 115h-2c-5 -16 -16 -61 -35 -115zM15 0l254 666h136l261 -666h-154l-45 125h-266l-44 -125h-142zM228 718c-43 0 -74 32 -74 72c0 38 31 71 74 71s74 -33 74 -71c0 -40 -31 -72 -74 -72zM438 718c-43 0 -74 32 -74 72
c0 38 31 71 74 71s74 -33 74 -71c0 -40 -31 -72 -74 -72z" />
    <glyph glyph-name="Aring" unicode="&#xc5;" horiz-adv-x="680" 
d="M240 238h187l-57 159c-21 57 -30 100 -36 115h-2c-5 -16 -16 -61 -35 -115zM15 0l254 666h136l261 -666h-154l-45 125h-266l-44 -125h-142zM333 705c-57 0 -110 46 -110 107c0 60 53 106 110 106s110 -46 110 -106c0 -61 -53 -107 -110 -107zM333 761c29 0 46 24 46 51
s-17 50 -46 50s-46 -23 -46 -50s17 -51 46 -51z" />
    <glyph glyph-name="AE" unicode="&#xc6;" horiz-adv-x="859" 
d="M-23 0l378 666h440v-116h-245v-150h216v-110h-216v-174h252v-116h-391v141h-205l-77 -141h-152zM264 251h147v269z" />
    <glyph glyph-name="Ccedilla" unicode="&#xc7;" horiz-adv-x="618" 
d="M315 -230c-42 0 -69 9 -82 15l17 60c10 -5 28 -11 51 -11c29 0 48 11 48 34c0 34 -37 40 -71 38l33 89c-178 31 -268 179 -268 339c0 181 119 344 344 344c87 0 148 -19 200 -53l-63 -103c-37 24 -78 39 -139 39c-125 0 -192 -100 -192 -223c0 -127 64 -232 194 -232
c72 0 116 25 151 51l58 -99c-34 -31 -114 -70 -211 -70h-1l-15 -43c41 -9 71 -38 71 -82c0 -55 -51 -93 -125 -93z" />
    <glyph glyph-name="Egrave" unicode="&#xc8;" horiz-adv-x="530" 
d="M83 0v666h384v-116h-245v-150h216v-110h-216v-174h252v-116h-391zM229 717l-140 135h171l83 -135h-114z" />
    <glyph glyph-name="Eacute" unicode="&#xc9;" horiz-adv-x="530" 
d="M208 717l83 135h172l-140 -135h-115zM83 0v666h384v-116h-245v-150h216v-110h-216v-174h252v-116h-391z" />
    <glyph glyph-name="Ecircumflex" unicode="&#xca;" horiz-adv-x="530" 
d="M97 718l127 159h102l125 -159h-113l-64 66l-64 -66h-113zM83 0v666h384v-116h-245v-150h216v-110h-216v-174h252v-116h-391z" />
    <glyph glyph-name="Edieresis" unicode="&#xcb;" horiz-adv-x="530" 
d="M169 718c-43 0 -74 32 -74 72c0 38 31 71 74 71s74 -33 74 -71c0 -40 -31 -72 -74 -72zM379 718c-43 0 -74 32 -74 72c0 38 31 71 74 71s74 -33 74 -71c0 -40 -31 -72 -74 -72zM83 0v666h384v-116h-245v-150h216v-110h-216v-174h252v-116h-391z" />
    <glyph glyph-name="Igrave" unicode="&#xcc;" horiz-adv-x="324" 
d="M89 0v666h141v-666h-141zM113 717l-140 135h171l83 -135h-114z" />
    <glyph glyph-name="Iacute" unicode="&#xcd;" horiz-adv-x="324" 
d="M89 0v666h141v-666h-141zM94 717l83 135h172l-140 -135h-115z" />
    <glyph glyph-name="Icircumflex" unicode="&#xce;" horiz-adv-x="324" 
d="M89 0v666h141v-666h-141zM-17 718l127 159h102l125 -159h-113l-64 66l-64 -66h-113z" />
    <glyph glyph-name="Idieresis" unicode="&#xcf;" horiz-adv-x="324" 
d="M89 0v666h141v-666h-141zM55 718c-43 0 -74 32 -74 72c0 38 31 71 74 71s74 -33 74 -71c0 -40 -31 -72 -74 -72zM265 718c-43 0 -74 32 -74 72c0 38 31 71 74 71s74 -33 74 -71c0 -40 -31 -72 -74 -72z" />
    <glyph glyph-name="Eth" unicode="&#xd0;" horiz-adv-x="701" 
d="M83 0v289h-65v99h65v278h201c262 0 381 -132 381 -324s-121 -342 -386 -342h-196zM224 113h66c150 0 226 77 226 225c0 149 -73 215 -231 215h-61v-165h105v-99h-105v-176z" />
    <glyph glyph-name="Ntilde" unicode="&#xd1;" horiz-adv-x="742" 
d="M82 0v666h142l240 -345c40 -57 64 -101 70 -112h2c-1 9 -4 54 -4 105v352h128v-666h-129l-259 370c-36 50 -56 87 -64 100h-2c1 -9 4 -47 4 -89v-381h-128zM429 722c-60 0 -77 35 -118 35c-24 0 -44 -20 -54 -30l-61 53c19 33 59 75 113 75c61 0 77 -35 118 -35
c28 0 47 20 56 31l61 -53c-20 -34 -60 -76 -115 -76z" />
    <glyph glyph-name="Ograve" unicode="&#xd2;" horiz-adv-x="773" 
d="M390 -12c-223 0 -347 164 -347 344c0 181 121 346 344 346s343 -163 343 -342c0 -181 -117 -348 -340 -348zM387 102c134 0 194 106 194 230s-58 232 -191 232c-134 0 -197 -104 -197 -228c0 -125 61 -234 194 -234zM340 717l-140 135h171l83 -135h-114z" />
    <glyph glyph-name="Oacute" unicode="&#xd3;" horiz-adv-x="773" 
d="M320 717l83 135h172l-140 -135h-115zM390 -12c-223 0 -347 164 -347 344c0 181 121 346 344 346s343 -163 343 -342c0 -181 -117 -348 -340 -348zM387 102c134 0 194 106 194 230s-58 232 -191 232c-134 0 -197 -104 -197 -228c0 -125 61 -234 194 -234z" />
    <glyph glyph-name="Ocircumflex" unicode="&#xd4;" horiz-adv-x="773" 
d="M209 718l127 159h102l125 -159h-113l-64 66l-64 -66h-113zM390 -12c-223 0 -347 164 -347 344c0 181 121 346 344 346s343 -163 343 -342c0 -181 -117 -348 -340 -348zM387 102c134 0 194 106 194 230s-58 232 -191 232c-134 0 -197 -104 -197 -228
c0 -125 61 -234 194 -234z" />
    <glyph glyph-name="Otilde" unicode="&#xd5;" horiz-adv-x="773" 
d="M390 -12c-223 0 -347 164 -347 344c0 181 121 346 344 346s343 -163 343 -342c0 -181 -117 -348 -340 -348zM387 102c134 0 194 106 194 230s-58 232 -191 232c-134 0 -197 -104 -197 -228c0 -125 61 -234 194 -234zM445 722c-60 0 -77 35 -118 35c-24 0 -44 -20 -54 -30
l-61 53c19 33 59 75 113 75c61 0 77 -35 118 -35c28 0 47 20 56 31l61 -53c-20 -34 -60 -76 -115 -76z" />
    <glyph glyph-name="Odieresis" unicode="&#xd6;" horiz-adv-x="773" 
d="M281 718c-43 0 -74 32 -74 72c0 38 31 71 74 71s74 -33 74 -71c0 -40 -31 -72 -74 -72zM491 718c-43 0 -74 32 -74 72c0 38 31 71 74 71s74 -33 74 -71c0 -40 -31 -72 -74 -72zM390 -12c-223 0 -347 164 -347 344c0 181 121 346 344 346s343 -163 343 -342
c0 -181 -117 -348 -340 -348zM387 102c134 0 194 106 194 230s-58 232 -191 232c-134 0 -197 -104 -197 -228c0 -125 61 -234 194 -234z" />
    <glyph glyph-name="multiply" unicode="&#xd7;" horiz-adv-x="511" 
d="M379 64l-125 124l-120 -119l-76 76l120 120l-121 121l78 78l121 -120l119 119l77 -77l-119 -119l125 -125z" />
    <glyph glyph-name="Oslash" unicode="&#xd8;" horiz-adv-x="773" 
d="M165 -74l-83 59l66 92c-69 65 -105 157 -105 255c0 181 121 346 344 346c62 0 116 -13 162 -35l64 90l84 -60l-64 -90c63 -64 97 -153 97 -247c0 -181 -117 -348 -340 -348c-60 0 -112 12 -157 32zM193 336c0 -57 12 -110 38 -151l251 357c-26 14 -56 22 -92 22
c-134 0 -197 -104 -197 -228zM387 102c134 0 194 106 194 230c0 52 -10 102 -32 141l-250 -351c25 -13 54 -20 88 -20z" />
    <glyph glyph-name="Ugrave" unicode="&#xd9;" horiz-adv-x="715" 
d="M363 -12c-193 0 -284 96 -284 270v408h141v-396c0 -114 41 -166 146 -166c99 0 140 60 140 157v405h130v-395c0 -182 -91 -283 -273 -283zM310 717l-140 135h171l83 -135h-114z" />
    <glyph glyph-name="Uacute" unicode="&#xda;" horiz-adv-x="715" 
d="M291 717l83 135h172l-140 -135h-115zM363 -12c-193 0 -284 96 -284 270v408h141v-396c0 -114 41 -166 146 -166c99 0 140 60 140 157v405h130v-395c0 -182 -91 -283 -273 -283z" />
    <glyph glyph-name="Ucircumflex" unicode="&#xdb;" horiz-adv-x="715" 
d="M180 718l127 159h102l125 -159h-113l-64 66l-64 -66h-113zM363 -12c-193 0 -284 96 -284 270v408h141v-396c0 -114 41 -166 146 -166c99 0 140 60 140 157v405h130v-395c0 -182 -91 -283 -273 -283z" />
    <glyph glyph-name="Udieresis" unicode="&#xdc;" horiz-adv-x="715" 
d="M252 718c-43 0 -74 32 -74 72c0 38 31 71 74 71s74 -33 74 -71c0 -40 -31 -72 -74 -72zM462 718c-43 0 -74 32 -74 72c0 38 31 71 74 71s74 -33 74 -71c0 -40 -31 -72 -74 -72zM363 -12c-193 0 -284 96 -284 270v408h141v-396c0 -114 41 -166 146 -166
c99 0 140 60 140 157v405h130v-395c0 -182 -91 -283 -273 -283z" />
    <glyph glyph-name="Yacute" unicode="&#xdd;" horiz-adv-x="598" 
d="M232 0v251l-221 415h157l141 -283h1l140 283h137l-214 -415v-251h-141zM236 717l83 135h172l-140 -135h-115z" />
    <glyph glyph-name="Thorn" unicode="&#xde;" horiz-adv-x="598" 
d="M81 0v666h142v-108h77c145 0 255 -68 255 -210c0 -145 -105 -220 -271 -220h-61v-128h-142zM223 236h63c89 0 127 36 127 109c0 68 -37 105 -124 105h-66v-214z" />
    <glyph glyph-name="germandbls" unicode="&#xdf;" horiz-adv-x="579" 
d="M378 -12c-75 0 -115 18 -140 32l38 95c17 -11 49 -28 86 -28c45 0 68 17 68 49c0 37 -43 55 -91 86c-41 26 -81 60 -81 119c0 66 41 93 72 122c23 22 41 43 41 84c0 51 -24 81 -79 81c-60 0 -93 -43 -93 -133v-495h-133v497c0 166 105 235 229 235
c138 0 209 -82 209 -179c0 -60 -31 -92 -60 -117c-32 -32 -65 -47 -65 -80c0 -29 29 -43 77 -72c47 -29 99 -64 99 -147c0 -91 -65 -149 -177 -149z" />
    <glyph glyph-name="agrave" unicode="&#xe0;" horiz-adv-x="502" 
d="M180 -12c-83 0 -147 50 -147 137c0 127 131 173 260 173h17v28c0 47 -21 68 -79 68c-53 0 -95 -23 -124 -46l-58 81c39 36 105 70 197 70c133 0 196 -51 196 -180v-175c0 -66 7 -113 14 -144h-131c-4 12 -7 37 -8 52c-26 -32 -74 -64 -137 -64zM220 85c41 0 69 19 90 43
v88h-17c-78 0 -132 -23 -132 -80c0 -36 29 -51 59 -51zM202 541l-140 135h171l83 -135h-114z" />
    <glyph glyph-name="aacute" unicode="&#xe1;" horiz-adv-x="502" 
d="M180 -12c-83 0 -147 50 -147 137c0 127 131 173 260 173h17v28c0 47 -21 68 -79 68c-53 0 -95 -23 -124 -46l-58 81c39 36 105 70 197 70c133 0 196 -51 196 -180v-175c0 -66 7 -113 14 -144h-131c-4 12 -7 37 -8 52c-26 -32 -74 -64 -137 -64zM220 85c41 0 69 19 90 43
v88h-17c-78 0 -132 -23 -132 -80c0 -36 29 -51 59 -51zM182 541l83 135h172l-140 -135h-115z" />
    <glyph glyph-name="acircumflex" unicode="&#xe2;" horiz-adv-x="502" 
d="M180 -12c-83 0 -147 50 -147 137c0 127 131 173 260 173h17v28c0 47 -21 68 -79 68c-53 0 -95 -23 -124 -46l-58 81c39 36 105 70 197 70c133 0 196 -51 196 -180v-175c0 -66 7 -113 14 -144h-131c-4 12 -7 37 -8 52c-26 -32 -74 -64 -137 -64zM220 85c41 0 69 19 90 43
v88h-17c-78 0 -132 -23 -132 -80c0 -36 29 -51 59 -51zM72 542l127 159h102l125 -159h-113l-64 66l-64 -66h-113z" />
    <glyph glyph-name="atilde" unicode="&#xe3;" horiz-adv-x="502" 
d="M180 -12c-83 0 -147 50 -147 137c0 127 131 173 260 173h17v28c0 47 -21 68 -79 68c-53 0 -95 -23 -124 -46l-58 81c39 36 105 70 197 70c133 0 196 -51 196 -180v-175c0 -66 7 -113 14 -144h-131c-4 12 -7 37 -8 52c-26 -32 -74 -64 -137 -64zM220 85c41 0 69 19 90 43
v88h-17c-78 0 -132 -23 -132 -80c0 -36 29 -51 59 -51zM308 546c-60 0 -77 35 -118 35c-24 0 -44 -20 -54 -30l-61 53c19 33 59 75 113 75c61 0 77 -35 118 -35c28 0 47 20 56 31l61 -53c-20 -34 -60 -76 -115 -76z" />
    <glyph glyph-name="adieresis" unicode="&#xe4;" horiz-adv-x="502" 
d="M180 -12c-83 0 -147 50 -147 137c0 127 131 173 260 173h17v28c0 47 -21 68 -79 68c-53 0 -95 -23 -124 -46l-58 81c39 36 105 70 197 70c133 0 196 -51 196 -180v-175c0 -66 7 -113 14 -144h-131c-4 12 -7 37 -8 52c-26 -32 -74 -64 -137 -64zM220 85c41 0 69 19 90 43
v88h-17c-78 0 -132 -23 -132 -80c0 -36 29 -51 59 -51zM144 542c-43 0 -74 32 -74 72c0 38 31 71 74 71s74 -33 74 -71c0 -40 -31 -72 -74 -72zM354 542c-43 0 -74 32 -74 72c0 38 31 71 74 71s74 -33 74 -71c0 -40 -31 -72 -74 -72z" />
    <glyph glyph-name="aring" unicode="&#xe5;" horiz-adv-x="502" 
d="M180 -12c-83 0 -147 50 -147 137c0 127 131 173 260 173h17v28c0 47 -21 68 -79 68c-53 0 -95 -23 -124 -46l-58 81c39 36 105 70 197 70c133 0 196 -51 196 -180v-175c0 -66 7 -113 14 -144h-131c-4 12 -7 37 -8 52c-26 -32 -74 -64 -137 -64zM220 85c41 0 69 19 90 43
v88h-17c-78 0 -132 -23 -132 -80c0 -36 29 -51 59 -51zM249 539c-57 0 -110 46 -110 107c0 60 53 106 110 106s110 -46 110 -106c0 -61 -53 -107 -110 -107zM249 595c29 0 46 24 46 51s-17 50 -46 50s-46 -23 -46 -50s17 -51 46 -51z" />
    <glyph glyph-name="ae" unicode="&#xe6;" horiz-adv-x="795" 
d="M180 -12c-83 0 -147 50 -147 137c0 127 131 173 260 173h19v28c0 42 -19 68 -81 68c-63 0 -106 -33 -124 -46l-58 81c29 26 93 70 197 70c71 0 121 -18 151 -57c40 36 92 57 150 57c139 0 212 -90 212 -242c0 -14 -1 -29 -2 -44h-309c7 -72 43 -126 125 -126
c66 0 103 22 126 34l43 -86c-32 -18 -82 -47 -181 -47c-87 0 -154 32 -197 85c-38 -42 -100 -85 -184 -85zM220 85c51 0 85 28 105 57c-9 23 -14 48 -16 74h-16c-78 0 -132 -23 -132 -80c0 -36 29 -51 59 -51zM446 303h183c-2 55 -24 100 -84 100c-57 0 -89 -37 -99 -100z
" />
    <glyph glyph-name="ccedilla" unicode="&#xe7;" horiz-adv-x="458" 
d="M211 -230c-42 0 -69 9 -82 15l17 60c10 -5 28 -11 51 -11c29 0 48 11 48 34c0 34 -37 40 -71 38l33 91c-111 27 -177 121 -177 246c0 164 109 256 256 256c79 0 126 -24 149 -39l-43 -91c-22 14 -53 29 -102 29c-78 0 -119 -61 -119 -151s39 -156 122 -156
c56 0 90 21 105 30l41 -89c-23 -15 -68 -44 -157 -44h-2l-15 -43c41 -9 71 -38 71 -82c0 -55 -51 -93 -125 -93z" />
    <glyph glyph-name="egrave" unicode="&#xe8;" horiz-adv-x="519" 
d="M285 -12c-163 0 -255 103 -255 258c0 154 106 253 241 253c138 0 212 -88 212 -240c0 -15 -1 -30 -2 -46h-308c6 -72 43 -126 124 -126c66 0 103 22 127 34l43 -86c-32 -18 -82 -47 -182 -47zM171 303h182c-1 55 -23 100 -84 100c-57 0 -88 -37 -98 -100zM225 541
l-140 135h171l83 -135h-114z" />
    <glyph glyph-name="eacute" unicode="&#xe9;" horiz-adv-x="519" 
d="M204 541l83 135h172l-140 -135h-115zM285 -12c-163 0 -255 103 -255 258c0 154 106 253 241 253c138 0 212 -88 212 -240c0 -15 -1 -30 -2 -46h-308c6 -72 43 -126 124 -126c66 0 103 22 127 34l43 -86c-32 -18 -82 -47 -182 -47zM171 303h182c-1 55 -23 100 -84 100
c-57 0 -88 -37 -98 -100z" />
    <glyph glyph-name="ecircumflex" unicode="&#xea;" horiz-adv-x="519" 
d="M93 542l127 159h102l125 -159h-113l-64 66l-64 -66h-113zM285 -12c-163 0 -255 103 -255 258c0 154 106 253 241 253c138 0 212 -88 212 -240c0 -15 -1 -30 -2 -46h-308c6 -72 43 -126 124 -126c66 0 103 22 127 34l43 -86c-32 -18 -82 -47 -182 -47zM171 303h182
c-1 55 -23 100 -84 100c-57 0 -88 -37 -98 -100z" />
    <glyph glyph-name="edieresis" unicode="&#xeb;" horiz-adv-x="519" 
d="M165 542c-43 0 -74 32 -74 72c0 38 31 71 74 71s74 -33 74 -71c0 -40 -31 -72 -74 -72zM375 542c-43 0 -74 32 -74 72c0 38 31 71 74 71s74 -33 74 -71c0 -40 -31 -72 -74 -72zM285 -12c-163 0 -255 103 -255 258c0 154 106 253 241 253c138 0 212 -88 212 -240
c0 -15 -1 -30 -2 -46h-308c6 -72 43 -126 124 -126c66 0 103 22 127 34l43 -86c-32 -18 -82 -47 -182 -47zM171 303h182c-1 55 -23 100 -84 100c-57 0 -88 -37 -98 -100z" />
    <glyph glyph-name="igrave" unicode="&#xec;" horiz-adv-x="280" 
d="M73 0v487h134v-487h-134zM94 541l-140 135h171l83 -135h-114z" />
    <glyph glyph-name="iacute" unicode="&#xed;" horiz-adv-x="280" 
d="M75 541l83 135h172l-140 -135h-115zM73 0v487h134v-487h-134z" />
    <glyph glyph-name="icircumflex" unicode="&#xee;" horiz-adv-x="280" 
d="M-36 542l127 159h102l125 -159h-113l-64 66l-64 -66h-113zM73 0v487h134v-487h-134z" />
    <glyph glyph-name="idieresis" unicode="&#xef;" horiz-adv-x="280" 
d="M36 542c-43 0 -74 32 -74 72c0 38 31 71 74 71s74 -33 74 -71c0 -40 -31 -72 -74 -72zM246 542c-43 0 -74 32 -74 72c0 38 31 71 74 71s74 -33 74 -71c0 -40 -31 -72 -74 -72zM73 0v487h134v-487h-134z" />
    <glyph glyph-name="eth" unicode="&#xf0;" horiz-adv-x="559" 
d="M275 -12c-136 0 -244 91 -244 251c0 159 102 249 224 249c47 0 83 -14 107 -37c-16 56 -45 98 -85 127l-67 -60l-52 54l43 39c-36 12 -79 18 -125 18l27 103c73 0 138 -12 193 -34l68 62l53 -55l-50 -45c104 -71 159 -195 159 -360c0 -179 -82 -312 -251 -312zM277 89
c70 0 109 61 109 210c0 9 -1 25 -1 33c-22 33 -58 56 -112 56c-67 0 -101 -58 -101 -147c0 -94 37 -152 105 -152z" />
    <glyph glyph-name="ntilde" unicode="&#xf1;" horiz-adv-x="557" 
d="M65 0v487h130v-61c35 41 85 73 155 73c106 0 146 -68 146 -158v-341h-133v314c0 49 -17 74 -65 74c-43 0 -80 -34 -100 -61v-327h-133zM334 546c-60 0 -77 35 -118 35c-24 0 -44 -20 -54 -30l-61 53c19 33 59 75 113 75c61 0 77 -35 118 -35c28 0 47 20 56 31l61 -53
c-20 -34 -60 -76 -115 -76z" />
    <glyph glyph-name="ograve" unicode="&#xf2;" horiz-adv-x="550" 
d="M274 -12c-170 0 -244 129 -244 254s73 257 243 257s247 -128 247 -253c0 -123 -75 -258 -246 -258zM276 89c76 0 103 62 103 153s-32 158 -108 158c-75 0 -100 -63 -100 -154s30 -157 105 -157zM229 541l-140 135h171l83 -135h-114z" />
    <glyph glyph-name="oacute" unicode="&#xf3;" horiz-adv-x="550" 
d="M209 541l83 135h172l-140 -135h-115zM274 -12c-170 0 -244 129 -244 254s73 257 243 257s247 -128 247 -253c0 -123 -75 -258 -246 -258zM276 89c76 0 103 62 103 153s-32 158 -108 158c-75 0 -100 -63 -100 -154s30 -157 105 -157z" />
    <glyph glyph-name="ocircumflex" unicode="&#xf4;" horiz-adv-x="550" 
d="M98 542l127 159h102l125 -159h-113l-64 66l-64 -66h-113zM274 -12c-170 0 -244 129 -244 254s73 257 243 257s247 -128 247 -253c0 -123 -75 -258 -246 -258zM276 89c76 0 103 62 103 153s-32 158 -108 158c-75 0 -100 -63 -100 -154s30 -157 105 -157z" />
    <glyph glyph-name="otilde" unicode="&#xf5;" horiz-adv-x="550" 
d="M274 -12c-170 0 -244 129 -244 254s73 257 243 257s247 -128 247 -253c0 -123 -75 -258 -246 -258zM276 89c76 0 103 62 103 153s-32 158 -108 158c-75 0 -100 -63 -100 -154s30 -157 105 -157zM334 546c-60 0 -77 35 -118 35c-24 0 -44 -20 -54 -30l-61 53
c19 33 59 75 113 75c61 0 77 -35 118 -35c28 0 47 20 56 31l61 -53c-20 -34 -60 -76 -115 -76z" />
    <glyph glyph-name="odieresis" unicode="&#xf6;" horiz-adv-x="550" 
d="M170 542c-43 0 -74 32 -74 72c0 38 31 71 74 71s74 -33 74 -71c0 -40 -31 -72 -74 -72zM380 542c-43 0 -74 32 -74 72c0 38 31 71 74 71s74 -33 74 -71c0 -40 -31 -72 -74 -72zM274 -12c-170 0 -244 129 -244 254s73 257 243 257s247 -128 247 -253
c0 -123 -75 -258 -246 -258zM276 89c76 0 103 62 103 153s-32 158 -108 158c-75 0 -100 -63 -100 -154s30 -157 105 -157z" />
    <glyph glyph-name="divide" unicode="&#xf7;" horiz-adv-x="572" 
d="M283 -3c-40 0 -73 32 -73 72s33 72 73 72c41 0 73 -32 73 -72s-32 -72 -73 -72zM283 346c-40 0 -73 32 -73 72s33 72 73 72c41 0 73 -32 73 -72s-32 -72 -73 -72zM40 194v100h491v-100h-491z" />
    <glyph glyph-name="oslash" unicode="&#xf8;" horiz-adv-x="550" 
d="M109 -67l-73 48l56 83c-42 48 -62 113 -62 178c0 125 73 257 243 257c39 0 73 -7 103 -19l58 87l75 -49l-60 -87c48 -49 71 -117 71 -185c0 -123 -75 -258 -246 -258c-43 0 -80 8 -111 22zM276 86c76 0 107 65 107 156c0 31 -5 59 -13 83l-151 -223c16 -10 35 -16 57 -16
zM166 246c0 -27 3 -52 9 -73l145 217c-14 8 -30 12 -49 12c-75 0 -105 -65 -105 -156z" />
    <glyph glyph-name="ugrave" unicode="&#xf9;" horiz-adv-x="557" 
d="M207 -12c-107 0 -146 69 -146 158v341h133v-314c0 -49 17 -74 65 -74c51 0 90 49 100 61v327h133v-347c0 -62 7 -111 13 -140h-131c-4 13 -9 45 -10 65c-26 -33 -76 -77 -157 -77zM232 541l-140 135h171l83 -135h-114z" />
    <glyph glyph-name="uacute" unicode="&#xfa;" horiz-adv-x="557" 
d="M212 541l83 135h172l-140 -135h-115zM207 -12c-107 0 -146 69 -146 158v341h133v-314c0 -49 17 -74 65 -74c51 0 90 49 100 61v327h133v-347c0 -62 7 -111 13 -140h-131c-4 13 -9 45 -10 65c-26 -33 -76 -77 -157 -77z" />
    <glyph glyph-name="ucircumflex" unicode="&#xfb;" horiz-adv-x="557" 
d="M101 542l127 159h102l125 -159h-113l-64 66l-64 -66h-113zM207 -12c-107 0 -146 69 -146 158v341h133v-314c0 -49 17 -74 65 -74c51 0 90 49 100 61v327h133v-347c0 -62 7 -111 13 -140h-131c-4 13 -9 45 -10 65c-26 -33 -76 -77 -157 -77z" />
    <glyph glyph-name="udieresis" unicode="&#xfc;" horiz-adv-x="557" 
d="M173 542c-43 0 -74 32 -74 72c0 38 31 71 74 71s74 -33 74 -71c0 -40 -31 -72 -74 -72zM383 542c-43 0 -74 32 -74 72c0 38 31 71 74 71s74 -33 74 -71c0 -40 -31 -72 -74 -72zM207 -12c-107 0 -146 69 -146 158v341h133v-314c0 -49 17 -74 65 -74c51 0 90 49 100 61v327
h133v-347c0 -62 7 -111 13 -140h-131c-4 13 -9 45 -10 65c-26 -33 -76 -77 -157 -77z" />
    <glyph glyph-name="yacute" unicode="&#xfd;" horiz-adv-x="517" 
d="M78 -234c-41 0 -65 6 -75 9l19 105c7 -2 18 -5 47 -5c68 0 92 33 111 85l18 50l-183 477h142l110 -321h3l99 321h137l-201 -539c-43 -115 -94 -182 -227 -182zM197 541l83 135h172l-140 -135h-115z" />
    <glyph glyph-name="thorn" unicode="&#xfe;" horiz-adv-x="569" 
d="M65 -219v938h133v-280c29 34 68 60 132 60c123 0 198 -92 198 -255c0 -154 -91 -256 -218 -256c-54 0 -91 16 -112 35v-242h-133zM282 91c68 0 105 57 105 153c0 92 -32 149 -97 149c-40 0 -74 -25 -92 -50v-219c20 -18 45 -33 84 -33z" />
    <glyph glyph-name="ydieresis" unicode="&#xff;" horiz-adv-x="517" 
d="M78 -234c-41 0 -65 6 -75 9l19 105c7 -2 18 -5 47 -5c68 0 92 33 111 85l18 50l-183 477h142l110 -321h3l99 321h137l-201 -539c-43 -115 -94 -182 -227 -182zM158 542c-43 0 -74 32 -74 72c0 38 31 71 74 71s74 -33 74 -71c0 -40 -31 -72 -74 -72zM368 542
c-43 0 -74 32 -74 72c0 38 31 71 74 71s74 -33 74 -71c0 -40 -31 -72 -74 -72z" />
    <glyph glyph-name="Amacron" unicode="&#x100;" horiz-adv-x="680" 
d="M240 238h187l-57 159c-21 57 -30 100 -36 115h-2c-5 -16 -16 -61 -35 -115zM15 0l254 666h136l261 -666h-154l-45 125h-266l-44 -125h-142zM192 738v95h283v-95h-283z" />
    <glyph glyph-name="amacron" unicode="&#x101;" horiz-adv-x="502" 
d="M180 -12c-83 0 -147 50 -147 137c0 127 131 173 260 173h17v28c0 47 -21 68 -79 68c-53 0 -95 -23 -124 -46l-58 81c39 36 105 70 197 70c133 0 196 -51 196 -180v-175c0 -66 7 -113 14 -144h-131c-4 12 -7 37 -8 52c-26 -32 -74 -64 -137 -64zM220 85c41 0 69 19 90 43
v88h-17c-78 0 -132 -23 -132 -80c0 -36 29 -51 59 -51zM108 562v95h283v-95h-283z" />
    <glyph glyph-name="Abreve" unicode="&#x102;" horiz-adv-x="680" 
d="M240 238h187l-57 159c-21 57 -30 100 -36 115h-2c-5 -16 -16 -61 -35 -115zM15 0l254 666h136l261 -666h-154l-45 125h-266l-44 -125h-142zM333 706c-82 0 -159 46 -169 151h109c3 -40 23 -65 60 -65c36 0 56 25 60 65h108c-9 -105 -86 -151 -168 -151z" />
    <glyph glyph-name="abreve" unicode="&#x103;" horiz-adv-x="502" 
d="M180 -12c-83 0 -147 50 -147 137c0 127 131 173 260 173h17v28c0 47 -21 68 -79 68c-53 0 -95 -23 -124 -46l-58 81c39 36 105 70 197 70c133 0 196 -51 196 -180v-175c0 -66 7 -113 14 -144h-131c-4 12 -7 37 -8 52c-26 -32 -74 -64 -137 -64zM220 85c41 0 69 19 90 43
v88h-17c-78 0 -132 -23 -132 -80c0 -36 29 -51 59 -51zM249 530c-82 0 -159 46 -169 151h109c3 -40 23 -65 60 -65c36 0 56 25 60 65h108c-9 -105 -86 -151 -168 -151z" />
    <glyph glyph-name="Aogonek" unicode="&#x104;" horiz-adv-x="680" 
d="M561 -230c-72 0 -120 37 -120 99c0 57 41 105 71 131l-45 125h-266l-44 -125h-142l254 666h136l261 -666l-21 -1c-65 -4 -111 -60 -111 -113c0 -29 17 -45 48 -45c17 0 29 4 41 9l17 -62c-15 -8 -40 -18 -79 -18zM240 238h187l-57 159c-21 57 -30 100 -36 115h-2
c-5 -16 -16 -61 -35 -115z" />
    <glyph glyph-name="aogonek" unicode="&#x105;" horiz-adv-x="502" 
d="M374 -230c-71 0 -119 37 -119 99c0 57 41 105 70 131c-4 12 -7 37 -8 52c-26 -32 -74 -64 -137 -64c-83 0 -147 50 -147 137c0 127 131 173 260 173h17v28c0 47 -21 68 -79 68c-53 0 -95 -23 -124 -46l-58 81c39 36 105 70 197 70c133 0 196 -51 196 -180v-175
c0 -64 7 -113 14 -145l-5 -1c-58 -6 -104 -59 -104 -112c0 -29 17 -45 49 -45c16 0 29 4 40 9l17 -62c-15 -8 -39 -18 -79 -18zM220 85c41 0 69 19 90 43v88h-17c-78 0 -132 -23 -132 -80c0 -36 29 -51 59 -51z" />
    <glyph glyph-name="Cacute" unicode="&#x106;" horiz-adv-x="618" 
d="M310 717l83 135h172l-140 -135h-115zM385 -12c-227 0 -342 165 -342 346s119 344 344 344c87 0 148 -19 200 -53l-63 -103c-37 24 -78 39 -139 39c-125 0 -192 -100 -192 -223c0 -127 64 -232 194 -232c72 0 116 25 151 51l58 -99c-34 -31 -114 -70 -211 -70z" />
    <glyph glyph-name="cacute" unicode="&#x107;" horiz-adv-x="458" 
d="M209 541l83 135h172l-140 -135h-115zM282 -12c-156 0 -252 104 -252 255c0 164 109 256 256 256c79 0 126 -24 149 -39l-43 -91c-22 14 -53 29 -102 29c-78 0 -119 -61 -119 -151s39 -156 122 -156c56 0 90 21 105 30l41 -89c-23 -15 -68 -44 -157 -44z" />
    <glyph glyph-name="Ccircumflex" unicode="&#x108;" horiz-adv-x="618" 
d="M199 718l127 159h102l125 -159h-113l-64 66l-64 -66h-113zM385 -12c-227 0 -342 165 -342 346s119 344 344 344c87 0 148 -19 200 -53l-63 -103c-37 24 -78 39 -139 39c-125 0 -192 -100 -192 -223c0 -127 64 -232 194 -232c72 0 116 25 151 51l58 -99
c-34 -31 -114 -70 -211 -70z" />
    <glyph glyph-name="ccircumflex" unicode="&#x109;" horiz-adv-x="458" 
d="M98 542l127 159h102l125 -159h-113l-64 66l-64 -66h-113zM282 -12c-156 0 -252 104 -252 255c0 164 109 256 256 256c79 0 126 -24 149 -39l-43 -91c-22 14 -53 29 -102 29c-78 0 -119 -61 -119 -151s39 -156 122 -156c56 0 90 21 105 30l41 -89
c-23 -15 -68 -44 -157 -44z" />
    <glyph glyph-name="Cdotaccent" unicode="&#x10a;" horiz-adv-x="618" 
d="M385 -12c-227 0 -342 165 -342 346s119 344 344 344c87 0 148 -19 200 -53l-63 -103c-37 24 -78 39 -139 39c-125 0 -192 -100 -192 -223c0 -127 64 -232 194 -232c72 0 116 25 151 51l58 -99c-34 -31 -114 -70 -211 -70zM376 732c-43 0 -74 32 -74 72c0 39 31 71 74 71
s74 -32 74 -71c0 -40 -31 -72 -74 -72z" />
    <glyph glyph-name="cdotaccent" unicode="&#x10b;" horiz-adv-x="458" 
d="M282 -12c-156 0 -252 104 -252 255c0 164 109 256 256 256c79 0 126 -24 149 -39l-43 -91c-22 14 -53 29 -102 29c-78 0 -119 -61 -119 -151s39 -156 122 -156c56 0 90 21 105 30l41 -89c-23 -15 -68 -44 -157 -44zM275 556c-43 0 -74 32 -74 72c0 39 31 71 74 71
s74 -32 74 -71c0 -40 -31 -72 -74 -72z" />
    <glyph glyph-name="Ccaron" unicode="&#x10c;" horiz-adv-x="618" 
d="M324 717l-125 159h113l64 -66l64 66h113l-127 -159h-102zM385 -12c-227 0 -342 165 -342 346s119 344 344 344c87 0 148 -19 200 -53l-63 -103c-37 24 -78 39 -139 39c-125 0 -192 -100 -192 -223c0 -127 64 -232 194 -232c72 0 116 25 151 51l58 -99
c-34 -31 -114 -70 -211 -70z" />
    <glyph glyph-name="ccaron" unicode="&#x10d;" horiz-adv-x="458" 
d="M223 541l-125 159h113l64 -66l64 66h113l-127 -159h-102zM282 -12c-156 0 -252 104 -252 255c0 164 109 256 256 256c79 0 126 -24 149 -39l-43 -91c-22 14 -53 29 -102 29c-78 0 -119 -61 -119 -151s39 -156 122 -156c56 0 90 21 105 30l41 -89
c-23 -15 -68 -44 -157 -44z" />
    <glyph glyph-name="Dcaron" unicode="&#x10e;" horiz-adv-x="706" 
d="M281 717l-125 159h113l64 -66l64 66h113l-127 -159h-102zM83 0v666h201c262 0 381 -132 381 -324s-121 -342 -386 -342h-196zM224 113h66c150 0 226 77 226 225c0 149 -73 215 -231 215h-61v-440z" />
    <glyph glyph-name="dcaron" unicode="&#x10f;" horiz-adv-x="612" 
d="M544 535l36 185h137l-81 -185h-92zM231 -13c-122 0 -200 92 -200 255c0 156 93 257 218 257c52 0 90 -15 113 -34v255h133v-581c0 -59 7 -107 14 -139h-131c-4 12 -9 38 -10 53c-33 -40 -76 -66 -137 -66zM271 94c39 0 72 24 91 49v220c-21 19 -47 32 -85 32
c-68 0 -105 -57 -105 -153c0 -93 31 -148 99 -148z" />
    <glyph glyph-name="Dcroat" unicode="&#x110;" horiz-adv-x="701" 
d="M83 0v289h-65v99h65v278h201c262 0 381 -132 381 -324s-121 -342 -386 -342h-196zM224 113h66c150 0 226 77 226 225c0 149 -73 215 -231 215h-61v-165h105v-99h-105v-176z" />
    <glyph glyph-name="dcroat" unicode="&#x111;" horiz-adv-x="557" 
d="M227 563v99h135v58h133v-58h42v-99h-42v-424c0 -59 7 -107 14 -139h-131c-4 12 -9 38 -10 53c-33 -40 -76 -66 -137 -66c-122 0 -200 92 -200 255c0 156 93 257 218 257c52 0 90 -15 113 -34v98h-135zM271 94c39 0 72 24 91 49v220c-21 19 -47 32 -85 32
c-68 0 -105 -57 -105 -153c0 -93 31 -148 99 -148z" />
    <glyph glyph-name="Emacron" unicode="&#x112;" horiz-adv-x="530" 
d="M83 0v666h384v-116h-245v-150h216v-110h-216v-174h252v-116h-391zM133 738v95h283v-95h-283z" />
    <glyph glyph-name="emacron" unicode="&#x113;" horiz-adv-x="519" 
d="M285 -12c-163 0 -255 103 -255 258c0 154 106 253 241 253c138 0 212 -88 212 -240c0 -15 -1 -30 -2 -46h-308c6 -72 43 -126 124 -126c66 0 103 22 127 34l43 -86c-32 -18 -82 -47 -182 -47zM171 303h182c-1 55 -23 100 -84 100c-57 0 -88 -37 -98 -100zM129 562v95h283
v-95h-283z" />
    <glyph glyph-name="Ebreve" unicode="&#x114;" horiz-adv-x="530" 
d="M83 0v666h384v-116h-245v-150h216v-110h-216v-174h252v-116h-391zM275 706c-82 0 -159 46 -169 151h109c3 -40 23 -65 60 -65c36 0 56 25 60 65h108c-9 -105 -86 -151 -168 -151z" />
    <glyph glyph-name="ebreve" unicode="&#x115;" horiz-adv-x="519" 
d="M285 -12c-163 0 -255 103 -255 258c0 154 106 253 241 253c138 0 212 -88 212 -240c0 -15 -1 -30 -2 -46h-308c6 -72 43 -126 124 -126c66 0 103 22 127 34l43 -86c-32 -18 -82 -47 -182 -47zM171 303h182c-1 55 -23 100 -84 100c-57 0 -88 -37 -98 -100zM271 530
c-82 0 -159 46 -169 151h109c3 -40 23 -65 60 -65c36 0 56 25 60 65h108c-9 -105 -86 -151 -168 -151z" />
    <glyph glyph-name="Edotaccent" unicode="&#x116;" horiz-adv-x="530" 
d="M83 0v666h384v-116h-245v-150h216v-110h-216v-174h252v-116h-391zM274 732c-43 0 -74 32 -74 72c0 39 31 71 74 71s74 -32 74 -71c0 -40 -31 -72 -74 -72z" />
    <glyph glyph-name="edotaccent" unicode="&#x117;" horiz-adv-x="519" 
d="M285 -12c-163 0 -255 103 -255 258c0 154 106 253 241 253c138 0 212 -88 212 -240c0 -15 -1 -30 -2 -46h-308c6 -72 43 -126 124 -126c66 0 103 22 127 34l43 -86c-32 -18 -82 -47 -182 -47zM171 303h182c-1 55 -23 100 -84 100c-57 0 -88 -37 -98 -100zM270 556
c-43 0 -74 32 -74 72c0 39 31 71 74 71s74 -32 74 -71c0 -40 -31 -72 -74 -72z" />
    <glyph glyph-name="Eogonek" unicode="&#x118;" horiz-adv-x="530" 
d="M388 -230c-71 0 -119 37 -119 99c0 56 40 113 84 131h-270v666h384v-116h-245v-150h216v-110h-216v-174h252v-116h-1c-67 0 -112 -57 -112 -114c0 -30 17 -45 49 -45c16 0 29 4 40 9l17 -62c-15 -8 -39 -18 -79 -18z" />
    <glyph glyph-name="eogonek" unicode="&#x119;" horiz-adv-x="519" 
d="M375 -230c-72 0 -120 37 -120 99c0 50 34 99 65 123c-10 -3 -23 -4 -35 -4c-163 0 -255 103 -255 258c0 154 106 253 241 253c152 0 226 -106 210 -286h-308c6 -72 43 -126 124 -126c66 0 103 22 127 34l43 -86l-23 -12c-50 -30 -96 -78 -96 -137c0 -30 17 -45 48 -45
c17 0 29 4 41 9l16 -62c-15 -8 -39 -18 -78 -18zM171 303h182c-1 55 -23 100 -84 100c-57 0 -88 -37 -98 -100z" />
    <glyph glyph-name="Ecaron" unicode="&#x11a;" horiz-adv-x="530" 
d="M222 717l-125 159h113l64 -66l64 66h113l-127 -159h-102zM83 0v666h384v-116h-245v-150h216v-110h-216v-174h252v-116h-391z" />
    <glyph glyph-name="ecaron" unicode="&#x11b;" horiz-adv-x="519" 
d="M218 541l-125 159h113l64 -66l64 66h113l-127 -159h-102zM285 -12c-163 0 -255 103 -255 258c0 154 106 253 241 253c138 0 212 -88 212 -240c0 -15 -1 -30 -2 -46h-308c6 -72 43 -126 124 -126c66 0 103 22 127 34l43 -86c-32 -18 -82 -47 -182 -47zM171 303h182
c-1 55 -23 100 -84 100c-57 0 -88 -37 -98 -100z" />
    <glyph glyph-name="Gcircumflex" unicode="&#x11c;" horiz-adv-x="710" 
d="M208 718l127 159h102l125 -159h-113l-64 66l-64 -66h-113zM395 -12c-229 0 -352 166 -352 346c0 181 132 344 363 344c100 0 167 -22 219 -60l-63 -105c-41 30 -90 48 -159 48c-142 0 -210 -96 -210 -223c0 -128 61 -235 201 -235c54 0 95 11 118 26v132h-123v109h258
v-318c-47 -32 -124 -64 -252 -64z" />
    <glyph glyph-name="gcircumflex" unicode="&#x11d;" horiz-adv-x="537" 
d="M90 542l127 159h102l125 -159h-113l-64 66l-64 -66h-113zM243 -239c-134 0 -214 42 -214 130c0 54 34 93 82 119c-27 16 -43 39 -43 74c0 45 25 74 54 92c-55 30 -86 82 -86 146c0 105 81 177 216 177c32 0 62 -4 87 -12h177v-87h-67c13 -23 20 -50 20 -78
c0 -104 -74 -176 -210 -176c-20 0 -40 1 -58 4c-12 -7 -18 -16 -18 -28c0 -26 28 -31 98 -35c101 -5 229 -6 229 -150c0 -103 -107 -176 -267 -176zM251 -150c81 0 127 31 127 72c0 52 -46 50 -117 55c-23 2 -46 3 -67 7c-25 -18 -38 -39 -38 -68c0 -39 27 -66 95 -66z
M253 232c55 0 88 34 88 90c0 57 -33 90 -88 90s-88 -33 -88 -90c0 -56 33 -90 88 -90z" />
    <glyph glyph-name="Gbreve" unicode="&#x11e;" horiz-adv-x="710" 
d="M395 -12c-229 0 -352 166 -352 346c0 181 132 344 363 344c100 0 167 -22 219 -60l-63 -105c-41 30 -90 48 -159 48c-142 0 -210 -96 -210 -223c0 -128 61 -235 201 -235c54 0 95 11 118 26v132h-123v109h258v-318c-47 -32 -124 -64 -252 -64zM385 706
c-82 0 -159 46 -169 151h109c3 -40 23 -65 60 -65c36 0 56 25 60 65h108c-9 -105 -86 -151 -168 -151z" />
    <glyph glyph-name="gbreve" unicode="&#x11f;" horiz-adv-x="537" 
d="M243 -239c-134 0 -214 42 -214 130c0 54 34 93 82 119c-27 16 -43 39 -43 74c0 45 25 74 54 92c-55 30 -86 82 -86 146c0 105 81 177 216 177c32 0 62 -4 87 -12h177v-87h-67c13 -23 20 -50 20 -78c0 -104 -74 -176 -210 -176c-20 0 -40 1 -58 4c-12 -7 -18 -16 -18 -28
c0 -26 28 -31 98 -35c101 -5 229 -6 229 -150c0 -103 -107 -176 -267 -176zM251 -150c81 0 127 31 127 72c0 52 -46 50 -117 55c-23 2 -46 3 -67 7c-25 -18 -38 -39 -38 -68c0 -39 27 -66 95 -66zM253 232c55 0 88 34 88 90c0 57 -33 90 -88 90s-88 -33 -88 -90
c0 -56 33 -90 88 -90zM267 534c-82 0 -159 46 -169 151h109c3 -40 23 -65 60 -65c36 0 56 25 60 65h108c-9 -105 -86 -151 -168 -151z" />
    <glyph glyph-name="Gdotaccent" unicode="&#x120;" horiz-adv-x="710" 
d="M395 -12c-229 0 -352 166 -352 346c0 181 132 344 363 344c100 0 167 -22 219 -60l-63 -105c-41 30 -90 48 -159 48c-142 0 -210 -96 -210 -223c0 -128 61 -235 201 -235c54 0 95 11 118 26v132h-123v109h258v-318c-47 -32 -124 -64 -252 -64zM385 732
c-43 0 -74 32 -74 72c0 39 31 71 74 71s74 -32 74 -71c0 -40 -31 -72 -74 -72z" />
    <glyph glyph-name="gdotaccent" unicode="&#x121;" horiz-adv-x="537" 
d="M243 -239c-134 0 -214 42 -214 130c0 54 34 93 82 119c-27 16 -43 39 -43 74c0 45 25 74 54 92c-55 30 -86 82 -86 146c0 105 81 177 216 177c32 0 62 -4 87 -12h177v-87h-67c13 -23 20 -50 20 -78c0 -104 -74 -176 -210 -176c-20 0 -40 1 -58 4c-12 -7 -18 -16 -18 -28
c0 -26 28 -31 98 -35c101 -5 229 -6 229 -150c0 -103 -107 -176 -267 -176zM251 -150c81 0 127 31 127 72c0 52 -46 50 -117 55c-23 2 -46 3 -67 7c-25 -18 -38 -39 -38 -68c0 -39 27 -66 95 -66zM253 232c55 0 88 34 88 90c0 57 -33 90 -88 90s-88 -33 -88 -90
c0 -56 33 -90 88 -90zM267 556c-43 0 -74 32 -74 72c0 39 31 71 74 71s74 -32 74 -71c0 -40 -31 -72 -74 -72z" />
    <glyph glyph-name="Gcommaaccent" unicode="&#x122;" horiz-adv-x="710" 
d="M340 -227c14 13 28 30 28 52c0 35 -40 38 -40 80c0 31 28 53 63 53c39 0 73 -26 73 -69c0 -49 -31 -92 -58 -116h-66zM395 -12c-229 0 -352 166 -352 346c0 181 132 344 363 344c100 0 167 -22 219 -60l-63 -105c-41 30 -90 48 -159 48c-142 0 -210 -96 -210 -223
c0 -128 61 -235 201 -235c54 0 95 11 118 26v132h-123v109h258v-318c-47 -32 -124 -64 -252 -64z" />
    <glyph glyph-name="gcommaaccent" unicode="&#x123;" horiz-adv-x="537" 
d="M314 726c-14 -13 -28 -30 -28 -52c0 -35 40 -38 40 -80c0 -31 -28 -53 -63 -53c-39 0 -73 26 -73 69c0 49 31 92 58 116h66zM243 -239c-134 0 -214 42 -214 130c0 54 34 93 82 119c-27 16 -43 39 -43 74c0 45 25 74 54 92c-55 30 -86 82 -86 146c0 105 81 177 216 177
c32 0 62 -4 87 -12h177v-87h-67c13 -23 20 -50 20 -78c0 -104 -74 -176 -210 -176c-20 0 -40 1 -58 4c-12 -7 -18 -16 -18 -28c0 -26 28 -31 98 -35c101 -5 229 -6 229 -150c0 -103 -107 -176 -267 -176zM251 -150c81 0 127 31 127 72c0 52 -46 50 -117 55
c-23 2 -46 3 -67 7c-25 -18 -38 -39 -38 -68c0 -39 27 -66 95 -66zM253 232c55 0 88 34 88 90c0 57 -33 90 -88 90s-88 -33 -88 -90c0 -56 33 -90 88 -90z" />
    <glyph glyph-name="Hcircumflex" unicode="&#x124;" horiz-adv-x="745" 
d="M195 718l127 159h102l125 -159h-113l-64 66l-64 -66h-113zM83 0v666h141v-262h298v262h141v-666h-141v288h-298v-288h-141z" />
    <glyph glyph-name="hcircumflex" unicode="&#x125;" 
d="M101 774l127 159h102l125 -159h-113l-64 66l-64 -66h-113zM63 0v720h133v-292c25 27 72 71 152 71c107 0 146 -68 146 -158v-341h-133v314c0 49 -17 74 -64 74c-52 0 -91 -48 -101 -61v-327h-133z" />
    <glyph glyph-name="Hbar" unicode="&#x126;" horiz-adv-x="762" 
d="M735 562v-99h-64v-463h-140v268h-298v-268h-142v463h-64v99h64v104h142v-104h298v104h140v-104h64zM233 383h298v80h-298v-80z" />
    <glyph glyph-name="hbar" unicode="&#x127;" horiz-adv-x="562" 
d="M69 0v563h-43v99h43v58h133v-58h153v-99h-153v-144c24 27 72 71 152 71c107 0 146 -68 146 -158v-332h-133v305c0 49 -17 74 -65 74c-51 0 -90 -48 -100 -61v-318h-133z" />
    <glyph glyph-name="Itilde" unicode="&#x128;" horiz-adv-x="324" 
d="M89 0v666h141v-666h-141zM219 722c-60 0 -77 35 -118 35c-24 0 -44 -20 -54 -30l-61 53c19 33 59 75 113 75c61 0 77 -35 118 -35c28 0 47 20 56 31l61 -53c-20 -34 -60 -76 -115 -76z" />
    <glyph glyph-name="itilde" unicode="&#x129;" horiz-adv-x="280" 
d="M73 0v487h134v-487h-134zM200 546c-60 0 -77 35 -118 35c-24 0 -44 -20 -54 -30l-61 53c19 33 59 75 113 75c61 0 77 -35 118 -35c28 0 47 20 56 31l61 -53c-20 -34 -60 -76 -115 -76z" />
    <glyph glyph-name="Imacron" unicode="&#x12a;" horiz-adv-x="324" 
d="M89 0v666h141v-666h-141zM19 738v95h283v-95h-283z" />
    <glyph glyph-name="imacron" unicode="&#x12b;" horiz-adv-x="280" 
d="M73 0v487h134v-487h-134zM0 562v95h283v-95h-283z" />
    <glyph glyph-name="Ibreve" unicode="&#x12c;" horiz-adv-x="324" 
d="M89 0v666h141v-666h-141zM160 706c-82 0 -159 46 -169 151h109c3 -40 23 -65 60 -65c36 0 56 25 60 65h108c-9 -105 -86 -151 -168 -151z" />
    <glyph glyph-name="ibreve" unicode="&#x12d;" horiz-adv-x="280" 
d="M73 0v487h134v-487h-134zM141 530c-82 0 -159 46 -169 151h109c3 -40 23 -65 60 -65c36 0 56 25 60 65h108c-9 -105 -86 -151 -168 -151z" />
    <glyph glyph-name="Iogonek" unicode="&#x12e;" horiz-adv-x="324" 
d="M160 -230c-72 0 -120 37 -120 99c0 56 41 110 80 131h-31v666h141v-666l-3 -1c-52 -6 -94 -60 -94 -113c0 -29 17 -45 48 -45c17 0 29 4 41 9l17 -62c-15 -8 -40 -18 -79 -18z" />
    <glyph glyph-name="iogonek" unicode="&#x12f;" horiz-adv-x="280" 
d="M139 -230c-72 0 -120 37 -120 99c0 56 41 110 80 131h-26v487h134v-487l-2 -1c-49 -5 -93 -59 -93 -113c0 -29 17 -45 48 -45c17 0 29 4 41 9l16 -62c-15 -8 -39 -18 -78 -18zM140 550c-47 0 -81 37 -81 80c0 42 34 78 81 78s82 -36 82 -78c0 -43 -35 -80 -82 -80z" />
    <glyph glyph-name="Idotaccent" unicode="&#x130;" horiz-adv-x="324" 
d="M89 0v666h141v-666h-141zM160 732c-43 0 -74 32 -74 72c0 39 31 71 74 71s74 -32 74 -71c0 -40 -31 -72 -74 -72z" />
    <glyph glyph-name="dotlessi" unicode="&#x131;" horiz-adv-x="280" 
d="M73 0v487h134v-487h-134z" />
    <glyph glyph-name="Jcircumflex" unicode="&#x134;" horiz-adv-x="331" 
d="M1 718l127 159h102l125 -159h-113l-64 66l-64 -66h-113zM57 -204c-47 0 -77 8 -98 16l22 115c9 -4 29 -9 47 -9c56 0 78 28 78 99v649h142v-668c0 -132 -73 -202 -191 -202z" />
    <glyph glyph-name="jcircumflex" unicode="&#x135;" horiz-adv-x="275" 
d="M37 -233c-49 0 -75 7 -87 12l23 103c6 -2 18 -6 38 -6c46 0 60 29 60 104v507h134v-521c0 -121 -47 -199 -168 -199zM-38 542l127 159h102l125 -159h-113l-64 66l-64 -66h-113z" />
    <glyph glyph-name="Kcommaaccent" unicode="&#x136;" horiz-adv-x="630" 
d="M284 -227c14 13 28 30 28 52c0 35 -40 38 -40 80c0 31 28 53 63 53c39 0 73 -26 73 -69c0 -49 -31 -92 -58 -116h-66zM83 0v666h140v-290l227 290h156l-245 -309l256 -357h-167l-227 319v-319h-140z" />
    <glyph glyph-name="kcommaaccent" unicode="&#x137;" horiz-adv-x="517" 
d="M219 -227c14 13 28 30 28 52c0 35 -40 38 -40 80c0 31 28 53 63 53c39 0 73 -26 73 -69c0 -49 -31 -92 -58 -116h-66zM63 0v720h133v-430l161 197h145l-180 -217l184 -270h-154l-156 238v-238h-133z" />
    <glyph glyph-name="Lacute" unicode="&#x139;" horiz-adv-x="514" 
d="M91 717l83 135h172l-140 -135h-115zM85 0v666h142v-552h248v-114h-390z" />
    <glyph glyph-name="lacute" unicode="&#x13a;" horiz-adv-x="275" 
d="M72 773l83 135h172l-140 -135h-115zM71 0v720h133v-720h-133z" />
    <glyph glyph-name="Lcommaaccent" unicode="&#x13b;" horiz-adv-x="514" 
d="M223 -227c14 13 28 30 28 52c0 35 -40 38 -40 80c0 31 28 53 63 53c39 0 73 -26 73 -69c0 -49 -31 -92 -58 -116h-66zM85 0v666h142v-552h248v-114h-390z" />
    <glyph glyph-name="lcommaaccent" unicode="&#x13c;" horiz-adv-x="275" 
d="M81 -227c14 13 28 30 28 52c0 35 -40 38 -40 80c0 31 28 53 63 53c39 0 73 -26 73 -69c0 -49 -31 -92 -58 -116h-66zM71 0v720h133v-720h-133z" />
    <glyph glyph-name="Lcaron" unicode="&#x13d;" horiz-adv-x="514" 
d="M281 511l37 185h137l-81 -185h-93zM85 0v666h142v-552h248v-114h-390z" />
    <glyph glyph-name="lcaron" unicode="&#x13e;" horiz-adv-x="321" 
d="M253 535l37 185h136l-80 -185h-93zM71 0v720h133v-720h-133z" />
    <glyph glyph-name="Ldot" unicode="&#x13f;" horiz-adv-x="514" 
d="M85 0v666h142v-552h248v-114h-390zM364 344c-43 0 -74 32 -74 72c0 39 31 71 74 71s74 -32 74 -71c0 -40 -31 -72 -74 -72z" />
    <glyph glyph-name="ldot" unicode="&#x140;" horiz-adv-x="386" 
d="M71 0v720h133v-720h-133zM330 207c-43 0 -74 32 -74 72c0 39 31 71 74 71s74 -32 74 -71c0 -40 -31 -72 -74 -72z" />
    <glyph glyph-name="Lslash" unicode="&#x141;" horiz-adv-x="530" 
d="M93 0v234l-57 -42l-51 71l108 79v324h142v-224l97 72l51 -72l-148 -108v-220h248v-114h-390z" />
    <glyph glyph-name="lslash" unicode="&#x142;" horiz-adv-x="339" 
d="M92 0v247l-66 -45v101l66 45v372h133v-286l80 55v-102l-80 -55v-332h-133z" />
    <glyph glyph-name="Nacute" unicode="&#x143;" horiz-adv-x="742" 
d="M304 717l83 135h172l-140 -135h-115zM82 0v666h142l240 -345c40 -57 64 -101 70 -112h2c-1 9 -4 54 -4 105v352h128v-666h-129l-259 370c-36 50 -56 87 -64 100h-2c1 -9 4 -47 4 -89v-381h-128z" />
    <glyph glyph-name="nacute" unicode="&#x144;" horiz-adv-x="557" 
d="M209 541l83 135h172l-140 -135h-115zM65 0v487h130v-61c35 41 85 73 155 73c106 0 146 -68 146 -158v-341h-133v314c0 49 -17 74 -65 74c-43 0 -80 -34 -100 -61v-327h-133z" />
    <glyph glyph-name="Ncommaaccent" unicode="&#x145;" horiz-adv-x="742" 
d="M314 -227c14 13 28 30 28 52c0 35 -40 38 -40 80c0 31 28 53 63 53c39 0 73 -26 73 -69c0 -49 -31 -92 -58 -116h-66zM82 0v666h142l240 -345c40 -57 64 -101 70 -112h2c-1 9 -4 54 -4 105v352h128v-666h-129l-259 370c-36 50 -56 87 -64 100h-2c1 -9 4 -47 4 -89v-381
h-128z" />
    <glyph glyph-name="ncommaaccent" unicode="&#x146;" horiz-adv-x="557" 
d="M223 -227c14 13 28 30 28 52c0 35 -40 38 -40 80c0 31 28 53 63 53c39 0 73 -26 73 -69c0 -49 -31 -92 -58 -116h-66zM65 0v487h130v-61c35 41 85 73 155 73c106 0 146 -68 146 -158v-341h-133v314c0 49 -17 74 -65 74c-43 0 -80 -34 -100 -61v-327h-133z" />
    <glyph glyph-name="Ncaron" unicode="&#x147;" horiz-adv-x="742" 
d="M318 717l-125 159h113l64 -66l64 66h113l-127 -159h-102zM82 0v666h142l240 -345c40 -57 64 -101 70 -112h2c-1 9 -4 54 -4 105v352h128v-666h-129l-259 370c-36 50 -56 87 -64 100h-2c1 -9 4 -47 4 -89v-381h-128z" />
    <glyph glyph-name="ncaron" unicode="&#x148;" horiz-adv-x="557" 
d="M223 541l-125 159h113l64 -66l64 66h113l-127 -159h-102zM65 0v487h130v-61c35 41 85 73 155 73c106 0 146 -68 146 -158v-341h-133v314c0 49 -17 74 -65 74c-43 0 -80 -34 -100 -61v-327h-133z" />
    <glyph glyph-name="Omacron" unicode="&#x14c;" horiz-adv-x="773" 
d="M245 738v95h283v-95h-283zM390 -12c-223 0 -347 164 -347 344c0 181 121 346 344 346s343 -163 343 -342c0 -181 -117 -348 -340 -348zM387 102c134 0 194 106 194 230s-58 232 -191 232c-134 0 -197 -104 -197 -228c0 -125 61 -234 194 -234z" />
    <glyph glyph-name="omacron" unicode="&#x14d;" horiz-adv-x="550" 
d="M134 562v95h283v-95h-283zM274 -12c-170 0 -244 129 -244 254s73 257 243 257s247 -128 247 -253c0 -123 -75 -258 -246 -258zM276 89c76 0 103 62 103 153s-32 158 -108 158c-75 0 -100 -63 -100 -154s30 -157 105 -157z" />
    <glyph glyph-name="Obreve" unicode="&#x14e;" horiz-adv-x="773" 
d="M390 -12c-223 0 -347 164 -347 344c0 181 121 346 344 346s343 -163 343 -342c0 -181 -117 -348 -340 -348zM387 102c134 0 194 106 194 230s-58 232 -191 232c-134 0 -197 -104 -197 -228c0 -125 61 -234 194 -234zM387 706c-82 0 -159 46 -169 151h109
c3 -40 23 -65 60 -65c36 0 56 25 60 65h108c-9 -105 -86 -151 -168 -151z" />
    <glyph glyph-name="obreve" unicode="&#x14f;" horiz-adv-x="550" 
d="M274 -12c-170 0 -244 129 -244 254s73 257 243 257s247 -128 247 -253c0 -123 -75 -258 -246 -258zM276 89c76 0 103 62 103 153s-32 158 -108 158c-75 0 -100 -63 -100 -154s30 -157 105 -157zM275 530c-82 0 -159 46 -169 151h109c3 -40 23 -65 60 -65
c36 0 56 25 60 65h108c-9 -105 -86 -151 -168 -151z" />
    <glyph glyph-name="Ohungarumlaut" unicode="&#x150;" horiz-adv-x="773" 
d="M222 717l92 135h154l-140 -135h-106zM424 717l92 135h154l-140 -135h-106zM390 -12c-223 0 -347 164 -347 344c0 181 121 346 344 346s343 -163 343 -342c0 -181 -117 -348 -340 -348zM387 102c134 0 194 106 194 230s-58 232 -191 232c-134 0 -197 -104 -197 -228
c0 -125 61 -234 194 -234z" />
    <glyph glyph-name="ohungarumlaut" unicode="&#x151;" horiz-adv-x="550" 
d="M110 541l92 135h154l-140 -135h-106zM312 541l92 135h154l-140 -135h-106zM274 -12c-170 0 -244 129 -244 254s73 257 243 257s247 -128 247 -253c0 -123 -75 -258 -246 -258zM276 89c76 0 103 62 103 153s-32 158 -108 158c-75 0 -100 -63 -100 -154s30 -157 105 -157z
" />
    <glyph glyph-name="OE" unicode="&#x152;" horiz-adv-x="921" 
d="M383 -12c-223 0 -346 164 -346 344c0 181 120 346 343 346c35 0 70 -5 101 -12h377v-116h-245v-150h215v-110h-215v-174h252v-116h-377c-30 -7 -69 -12 -105 -12zM380 102c40 0 70 6 95 17v427c-23 11 -53 18 -92 18c-134 0 -197 -104 -197 -228c0 -125 61 -234 194 -234
z" />
    <glyph glyph-name="oe" unicode="&#x153;" horiz-adv-x="867" 
d="M274 -12c-170 0 -244 129 -244 254s73 257 243 257c79 0 137 -30 175 -76c41 48 100 76 169 76c139 0 212 -90 212 -242c0 -14 -1 -29 -2 -44h-309c6 -73 43 -126 124 -126c67 0 104 22 127 34l43 -86c-32 -18 -82 -47 -181 -47c-81 0 -143 30 -184 77
c-39 -46 -95 -77 -173 -77zM276 89c76 0 103 62 103 153s-32 158 -108 158c-75 0 -100 -63 -100 -154s30 -157 105 -157zM517 303h182c-2 55 -24 100 -84 100c-57 0 -88 -37 -98 -100z" />
    <glyph glyph-name="Racute" unicode="&#x154;" horiz-adv-x="620" 
d="M237 717l83 135h172l-140 -135h-115zM83 0v666h222c156 0 246 -67 246 -192c0 -109 -74 -164 -155 -179v-2c18 -13 42 -39 78 -95l130 -198h-155l-122 190c-52 77 -63 84 -94 84h-9v-274h-141zM224 374h77c75 0 110 34 110 92c0 61 -35 92 -116 92h-71v-184z" />
    <glyph glyph-name="racute" unicode="&#x155;" horiz-adv-x="390" 
d="M149 541l83 135h172l-140 -135h-115zM65 0v487h133v-66c21 36 61 78 123 78c36 0 55 -7 66 -13l-32 -116c-8 5 -23 11 -51 11c-59 0 -94 -52 -106 -74v-307h-133z" />
    <glyph glyph-name="Rcommaaccent" unicode="&#x156;" horiz-adv-x="620" 
d="M278 -227c14 13 28 30 28 52c0 35 -40 38 -40 80c0 31 28 53 63 53c39 0 73 -26 73 -69c0 -49 -31 -92 -58 -116h-66zM83 0v666h222c156 0 246 -67 246 -192c0 -109 -74 -164 -155 -179v-2c18 -13 42 -39 78 -95l130 -198h-155l-122 190c-52 77 -63 84 -94 84h-9v-274
h-141zM224 374h77c75 0 110 34 110 92c0 61 -35 92 -116 92h-71v-184z" />
    <glyph glyph-name="rcommaaccent" unicode="&#x157;" horiz-adv-x="390" 
d="M78 -227c14 13 28 30 28 52c0 35 -40 38 -40 80c0 31 28 53 63 53c39 0 73 -26 73 -69c0 -49 -31 -92 -58 -116h-66zM65 0v487h133v-66c21 36 61 78 123 78c36 0 55 -7 66 -13l-32 -116c-8 5 -23 11 -51 11c-59 0 -94 -52 -106 -74v-307h-133z" />
    <glyph glyph-name="Rcaron" unicode="&#x158;" horiz-adv-x="620" 
d="M251 717l-125 159h113l64 -66l64 66h113l-127 -159h-102zM83 0v666h222c156 0 246 -67 246 -192c0 -109 -74 -164 -155 -179v-2c18 -13 42 -39 78 -95l130 -198h-155l-122 190c-52 77 -63 84 -94 84h-9v-274h-141zM224 374h77c75 0 110 34 110 92c0 61 -35 92 -116 92
h-71v-184z" />
    <glyph glyph-name="rcaron" unicode="&#x159;" horiz-adv-x="390" 
d="M164 541l-125 159h113l64 -66l64 66h113l-127 -159h-102zM65 0v487h133v-66c21 36 61 78 123 78c36 0 55 -7 66 -13l-32 -116c-8 5 -23 11 -51 11c-59 0 -94 -52 -106 -74v-307h-133z" />
    <glyph glyph-name="Sacute" unicode="&#x15a;" horiz-adv-x="516" 
d="M191 717l83 135h172l-140 -135h-115zM237 -12c-108 0 -177 42 -206 66l60 98c15 -11 66 -50 143 -50c67 0 106 34 106 77c0 59 -71 76 -149 115c-82 40 -143 91 -143 199c0 114 96 185 215 185c109 0 167 -35 195 -56l-57 -99c-23 15 -73 41 -130 41
c-54 0 -89 -24 -89 -69c0 -52 53 -69 123 -101c88 -40 171 -85 171 -208c0 -121 -91 -198 -239 -198z" />
    <glyph glyph-name="sacute" unicode="&#x15b;" horiz-adv-x="420" 
d="M143 541l83 135h172l-140 -135h-115zM199 -12c-87 0 -143 26 -173 46l45 93c19 -13 66 -40 120 -40c51 0 80 15 80 44c0 33 -54 42 -123 75c-68 32 -109 70 -109 144c0 91 72 149 182 149c83 0 134 -26 156 -39l-47 -91c-19 12 -57 31 -104 31s-67 -17 -67 -43
c0 -33 44 -42 100 -64c77 -32 133 -67 133 -149c0 -102 -73 -156 -193 -156z" />
    <glyph glyph-name="Scircumflex" unicode="&#x15c;" horiz-adv-x="516" 
d="M80 718l127 159h102l125 -159h-113l-64 66l-64 -66h-113zM237 -12c-108 0 -177 42 -206 66l60 98c15 -11 66 -50 143 -50c67 0 106 34 106 77c0 59 -71 76 -149 115c-82 40 -143 91 -143 199c0 114 96 185 215 185c109 0 167 -35 195 -56l-57 -99c-23 15 -73 41 -130 41
c-54 0 -89 -24 -89 -69c0 -52 53 -69 123 -101c88 -40 171 -85 171 -208c0 -121 -91 -198 -239 -198z" />
    <glyph glyph-name="scircumflex" unicode="&#x15d;" horiz-adv-x="420" 
d="M32 542l127 159h102l125 -159h-113l-64 66l-64 -66h-113zM199 -12c-87 0 -143 26 -173 46l45 93c19 -13 66 -40 120 -40c51 0 80 15 80 44c0 33 -54 42 -123 75c-68 32 -109 70 -109 144c0 91 72 149 182 149c83 0 134 -26 156 -39l-47 -91c-19 12 -57 31 -104 31
s-67 -17 -67 -43c0 -33 44 -42 100 -64c77 -32 133 -67 133 -149c0 -102 -73 -156 -193 -156z" />
    <glyph glyph-name="Scedilla" unicode="&#x15e;" horiz-adv-x="516" 
d="M219 -230c-42 0 -69 9 -82 15l17 60c10 -5 28 -11 51 -11c29 0 48 11 48 34c0 34 -37 40 -71 38l30 83c-94 5 -155 43 -181 65l60 98c15 -11 66 -50 143 -50c67 0 106 34 106 77c0 59 -71 76 -149 115c-82 40 -143 91 -143 199c0 114 96 185 215 185
c109 0 167 -35 195 -56l-57 -99c-23 15 -73 41 -130 41c-54 0 -89 -24 -89 -69c0 -52 53 -69 123 -101c88 -40 171 -85 171 -208c0 -106 -70 -178 -186 -194l-17 -47c41 -9 71 -38 71 -82c0 -55 -51 -93 -125 -93z" />
    <glyph glyph-name="scedilla" unicode="&#x15f;" horiz-adv-x="420" 
d="M179 -230c-42 0 -69 9 -82 15l17 60c10 -5 28 -11 51 -11c29 0 48 11 48 34c0 34 -37 40 -71 38l30 83c-72 4 -119 27 -146 45l45 93c19 -13 66 -40 120 -40c51 0 80 15 80 44c0 33 -54 42 -123 75c-68 32 -109 70 -109 144c0 91 72 149 182 149c83 0 134 -26 156 -39
l-47 -91c-19 12 -57 31 -104 31s-67 -17 -67 -43c0 -33 44 -42 100 -64c77 -32 133 -67 133 -149c0 -87 -53 -139 -142 -152l-17 -47c41 -9 71 -38 71 -82c0 -55 -51 -93 -125 -93z" />
    <glyph glyph-name="Scaron" unicode="&#x160;" horiz-adv-x="516" 
d="M205 717l-125 159h113l64 -66l64 66h113l-127 -159h-102zM237 -12c-108 0 -177 42 -206 66l60 98c15 -11 66 -50 143 -50c67 0 106 34 106 77c0 59 -71 76 -149 115c-82 40 -143 91 -143 199c0 114 96 185 215 185c109 0 167 -35 195 -56l-57 -99c-23 15 -73 41 -130 41
c-54 0 -89 -24 -89 -69c0 -52 53 -69 123 -101c88 -40 171 -85 171 -208c0 -121 -91 -198 -239 -198z" />
    <glyph glyph-name="scaron" unicode="&#x161;" horiz-adv-x="420" 
d="M157 541l-125 159h113l64 -66l64 66h113l-127 -159h-102zM199 -12c-87 0 -143 26 -173 46l45 93c19 -13 66 -40 120 -40c51 0 80 15 80 44c0 33 -54 42 -123 75c-68 32 -109 70 -109 144c0 91 72 149 182 149c83 0 134 -26 156 -39l-47 -91c-19 12 -57 31 -104 31
s-67 -17 -67 -43c0 -33 44 -42 100 -64c77 -32 133 -67 133 -149c0 -102 -73 -156 -193 -156z" />
    <glyph glyph-name="Tcommaaccent" unicode="&#x162;" horiz-adv-x="537" 
d="M211 -227c14 13 28 30 28 52c0 35 -40 38 -40 80c0 31 28 53 63 53c39 0 73 -26 73 -69c0 -49 -31 -92 -58 -116h-66zM198 0v550h-184v116h509v-116h-183v-550h-142z" />
    <glyph glyph-name="tcommaaccent" unicode="&#x163;" horiz-adv-x="387" 
d="M177 -227c14 13 28 30 28 52c0 35 -40 38 -40 80c0 31 28 53 63 53c39 0 73 -26 73 -69c0 -49 -31 -92 -58 -116h-66zM251 -12c-115 0 -154 59 -154 152v248h-78v99h78v141h132v-141h114v-99h-114v-222c0 -48 12 -69 49 -69c29 0 54 12 64 18l31 -99
c-20 -11 -61 -28 -122 -28z" />
    <glyph glyph-name="Tcaron" unicode="&#x164;" horiz-adv-x="537" 
d="M216 717l-125 159h113l64 -66l64 66h113l-127 -159h-102zM198 0v550h-184v116h509v-116h-183v-550h-142z" />
    <glyph glyph-name="tcaron" unicode="&#x165;" horiz-adv-x="394" 
d="M279 545l36 175h137l-81 -175h-92zM251 -12c-115 0 -154 59 -154 152v248h-78v99h78v141h132v-141h114v-99h-114v-222c0 -48 12 -69 49 -69c29 0 54 12 64 18l31 -99c-20 -11 -61 -28 -122 -28z" />
    <glyph glyph-name="Tbar" unicode="&#x166;" horiz-adv-x="537" 
d="M39 295v99h159v156h-184v116h509v-116h-183v-156h158v-99h-158v-295h-142v295h-159z" />
    <glyph glyph-name="tbar" unicode="&#x167;" horiz-adv-x="387" 
d="M39 215v95h58v83h-78v94h78v141h132v-141h114v-94h-114v-83h94v-95h-94v-49c0 -48 12 -69 49 -69c29 0 54 12 64 18l31 -99c-20 -11 -61 -28 -122 -28c-115 0 -154 59 -154 152v75h-58z" />
    <glyph glyph-name="Utilde" unicode="&#x168;" horiz-adv-x="715" 
d="M363 -12c-193 0 -284 96 -284 270v408h141v-396c0 -114 41 -166 146 -166c99 0 140 60 140 157v405h130v-395c0 -182 -91 -283 -273 -283zM416 722c-60 0 -77 35 -118 35c-24 0 -44 -20 -54 -30l-61 53c19 33 59 75 113 75c61 0 77 -35 118 -35c28 0 47 20 56 31l61 -53
c-20 -34 -60 -76 -115 -76z" />
    <glyph glyph-name="utilde" unicode="&#x169;" horiz-adv-x="557" 
d="M207 -12c-107 0 -146 69 -146 158v341h133v-314c0 -49 17 -74 65 -74c51 0 90 49 100 61v327h133v-347c0 -62 7 -111 13 -140h-131c-4 13 -9 45 -10 65c-26 -33 -76 -77 -157 -77zM337 546c-60 0 -77 35 -118 35c-24 0 -44 -20 -54 -30l-61 53c19 33 59 75 113 75
c61 0 77 -35 118 -35c28 0 47 20 56 31l61 -53c-20 -34 -60 -76 -115 -76z" />
    <glyph glyph-name="Umacron" unicode="&#x16a;" horiz-adv-x="715" 
d="M363 -12c-193 0 -284 96 -284 270v408h141v-396c0 -114 41 -166 146 -166c99 0 140 60 140 157v405h130v-395c0 -182 -91 -283 -273 -283zM216 738v95h283v-95h-283z" />
    <glyph glyph-name="umacron" unicode="&#x16b;" horiz-adv-x="557" 
d="M207 -12c-107 0 -146 69 -146 158v341h133v-314c0 -49 17 -74 65 -74c51 0 90 49 100 61v327h133v-347c0 -62 7 -111 13 -140h-131c-4 13 -9 45 -10 65c-26 -33 -76 -77 -157 -77zM137 562v95h283v-95h-283z" />
    <glyph glyph-name="Ubreve" unicode="&#x16c;" horiz-adv-x="715" 
d="M363 -12c-193 0 -284 96 -284 270v408h141v-396c0 -114 41 -166 146 -166c99 0 140 60 140 157v405h130v-395c0 -182 -91 -283 -273 -283zM357 706c-82 0 -159 46 -169 151h109c3 -40 23 -65 60 -65c36 0 56 25 60 65h108c-9 -105 -86 -151 -168 -151z" />
    <glyph glyph-name="ubreve" unicode="&#x16d;" horiz-adv-x="557" 
d="M207 -12c-107 0 -146 69 -146 158v341h133v-314c0 -49 17 -74 65 -74c51 0 90 49 100 61v327h133v-347c0 -62 7 -111 13 -140h-131c-4 13 -9 45 -10 65c-26 -33 -76 -77 -157 -77zM278 530c-82 0 -159 46 -169 151h109c3 -40 23 -65 60 -65c36 0 56 25 60 65h108
c-9 -105 -86 -151 -168 -151z" />
    <glyph glyph-name="Uring" unicode="&#x16e;" horiz-adv-x="715" 
d="M357 715c-57 0 -110 46 -110 107c0 60 53 106 110 106s110 -46 110 -106c0 -61 -53 -107 -110 -107zM357 771c29 0 46 24 46 51s-17 50 -46 50s-46 -23 -46 -50s17 -51 46 -51zM363 -12c-193 0 -284 96 -284 270v408h141v-396c0 -114 41 -166 146 -166
c99 0 140 60 140 157v405h130v-395c0 -182 -91 -283 -273 -283z" />
    <glyph glyph-name="uring" unicode="&#x16f;" horiz-adv-x="557" 
d="M278 539c-57 0 -110 46 -110 107c0 60 53 106 110 106s110 -46 110 -106c0 -61 -53 -107 -110 -107zM278 595c29 0 46 24 46 51s-17 50 -46 50s-46 -23 -46 -50s17 -51 46 -51zM207 -12c-107 0 -146 69 -146 158v341h133v-314c0 -49 17 -74 65 -74c51 0 90 49 100 61v327
h133v-347c0 -62 7 -111 13 -140h-131c-4 13 -9 45 -10 65c-26 -33 -76 -77 -157 -77z" />
    <glyph glyph-name="Uhungarumlaut" unicode="&#x170;" horiz-adv-x="715" 
d="M363 -12c-193 0 -284 96 -284 270v408h141v-396c0 -114 41 -166 146 -166c99 0 140 60 140 157v405h130v-395c0 -182 -91 -283 -273 -283zM192 717l92 135h154l-140 -135h-106zM394 717l92 135h154l-140 -135h-106z" />
    <glyph glyph-name="uhungarumlaut" unicode="&#x171;" horiz-adv-x="557" 
d="M207 -12c-107 0 -146 69 -146 158v341h133v-314c0 -49 17 -74 65 -74c51 0 90 49 100 61v327h133v-347c0 -62 7 -111 13 -140h-131c-4 13 -9 45 -10 65c-26 -33 -76 -77 -157 -77zM114 541l92 135h154l-140 -135h-106zM316 541l92 135h154l-140 -135h-106z" />
    <glyph glyph-name="Uogonek" unicode="&#x172;" horiz-adv-x="715" 
d="M488 -230c-72 0 -120 37 -120 99c0 55 40 106 72 130c-19 -7 -51 -11 -77 -11c-193 0 -284 96 -284 270v408h141v-396c0 -114 41 -166 146 -166c99 0 140 60 140 157v405h130v-395c0 -119 -35 -176 -120 -271c-29 -35 -55 -70 -55 -114c0 -30 17 -45 48 -45
c17 0 29 4 41 9l17 -62c-15 -8 -39 -18 -79 -18z" />
    <glyph glyph-name="uogonek" unicode="&#x173;" horiz-adv-x="557" 
d="M423 -230c-72 0 -120 37 -120 99c0 57 41 105 71 131c-4 13 -9 45 -10 65c-26 -33 -76 -77 -157 -77c-107 0 -146 69 -146 158v341h133v-314c0 -49 17 -74 65 -74c51 0 90 49 100 61v327h133v-347c0 -62 7 -112 13 -141l-5 -1c-59 -7 -104 -59 -104 -112
c0 -29 17 -45 48 -45c17 0 29 4 41 9l16 -62c-15 -8 -39 -18 -78 -18z" />
    <glyph glyph-name="Wcircumflex" unicode="&#x174;" horiz-adv-x="914" 
d="M280 718l127 159h102l125 -159h-113l-64 66l-64 -66h-113zM196 0l-179 666h150l84 -348c13 -53 24 -120 24 -122h2c1 2 15 73 28 126l91 344h139l89 -342c14 -55 26 -125 27 -127h2c1 2 10 69 24 123l86 346h135l-182 -666h-130l-96 369c-14 54 -27 122 -27 124h-2
c-1 -2 -15 -69 -30 -124l-105 -369h-130z" />
    <glyph glyph-name="wcircumflex" unicode="&#x175;" horiz-adv-x="743" 
d="M192 542l127 159h102l125 -159h-113l-64 66l-64 -66h-113zM149 0l-138 487h143l74 -310h2l83 310h123l83 -312h2l76 312h133l-139 -487h-120l-100 326h-2l-100 -326h-120z" />
    <glyph glyph-name="Ycircumflex" unicode="&#x176;" horiz-adv-x="598" 
d="M232 0v251l-221 415h157l141 -283h1l140 283h137l-214 -415v-251h-141zM125 718l127 159h102l125 -159h-113l-64 66l-64 -66h-113z" />
    <glyph glyph-name="ycircumflex" unicode="&#x177;" horiz-adv-x="517" 
d="M78 -234c-41 0 -65 6 -75 9l19 105c7 -2 18 -5 47 -5c68 0 92 33 111 85l18 50l-183 477h142l110 -321h3l99 321h137l-201 -539c-43 -115 -94 -182 -227 -182zM86 542l127 159h102l125 -159h-113l-64 66l-64 -66h-113z" />
    <glyph glyph-name="Ydieresis" unicode="&#x178;" horiz-adv-x="598" 
d="M232 0v251l-221 415h157l141 -283h1l140 283h137l-214 -415v-251h-141zM197 718c-43 0 -74 32 -74 72c0 38 31 71 74 71s74 -33 74 -71c0 -40 -31 -72 -74 -72zM407 718c-43 0 -74 32 -74 72c0 38 31 71 74 71s74 -33 74 -71c0 -40 -31 -72 -74 -72z" />
    <glyph glyph-name="Zacute" unicode="&#x179;" horiz-adv-x="571" 
d="M226 717l83 135h172l-140 -135h-115zM46 0v92l305 459h-292v115h463v-90l-308 -461h317v-115h-485z" />
    <glyph glyph-name="zacute" unicode="&#x17a;" horiz-adv-x="458" 
d="M164 541l83 135h172l-140 -135h-115zM39 0v72l212 315h-202v100h364v-77l-211 -310h213v-100h-376z" />
    <glyph glyph-name="Zdotaccent" unicode="&#x17b;" horiz-adv-x="571" 
d="M46 0v92l305 459h-292v115h463v-90l-308 -461h317v-115h-485zM292 732c-43 0 -74 32 -74 72c0 39 31 71 74 71s74 -32 74 -71c0 -40 -31 -72 -74 -72z" />
    <glyph glyph-name="zdotaccent" unicode="&#x17c;" horiz-adv-x="458" 
d="M39 0v72l212 315h-202v100h364v-77l-211 -310h213v-100h-376zM231 556c-43 0 -74 32 -74 72c0 39 31 71 74 71s74 -32 74 -71c0 -40 -31 -72 -74 -72z" />
    <glyph glyph-name="Zcaron" unicode="&#x17d;" horiz-adv-x="571" 
d="M240 717l-125 159h113l64 -66l64 66h113l-127 -159h-102zM46 0v92l305 459h-292v115h463v-90l-308 -461h317v-115h-485z" />
    <glyph glyph-name="zcaron" unicode="&#x17e;" horiz-adv-x="458" 
d="M179 541l-125 159h113l64 -66l64 66h113l-127 -159h-102zM39 0v72l212 315h-202v100h364v-77l-211 -310h213v-100h-376z" />
    <glyph glyph-name="florin" unicode="&#x192;" horiz-adv-x="474" 
d="M58 -188c-54 0 -89 12 -107 21l34 96c9 -5 27 -14 58 -14c59 0 84 36 91 98l35 321h-103l13 99h102l11 107c14 125 85 192 215 192c63 0 102 -15 129 -32l-43 -90c-14 9 -44 20 -81 20c-60 0 -85 -35 -92 -101l-11 -96h116l-16 -99h-111l-36 -325
c-13 -121 -73 -197 -204 -197z" />
    <glyph glyph-name="Scommaaccent" unicode="&#x218;" horiz-adv-x="516" 
d="M196 -227c14 13 28 30 28 52c0 35 -40 38 -40 80c0 31 28 53 63 53c39 0 73 -26 73 -69c0 -49 -31 -92 -58 -116h-66zM237 -12c-108 0 -177 42 -206 66l60 98c15 -11 66 -50 143 -50c67 0 106 34 106 77c0 59 -71 76 -149 115c-82 40 -143 91 -143 199
c0 114 96 185 215 185c109 0 167 -35 195 -56l-57 -99c-23 15 -73 41 -130 41c-54 0 -89 -24 -89 -69c0 -52 53 -69 123 -101c88 -40 171 -85 171 -208c0 -121 -91 -198 -239 -198z" />
    <glyph glyph-name="scommaaccent" unicode="&#x219;" horiz-adv-x="420" 
d="M153 -227c14 13 28 30 28 52c0 35 -40 38 -40 80c0 31 28 53 63 53c39 0 73 -26 73 -69c0 -49 -31 -92 -58 -116h-66zM199 -12c-87 0 -143 26 -173 46l45 93c19 -13 66 -40 120 -40c51 0 80 15 80 44c0 33 -54 42 -123 75c-68 32 -109 70 -109 144c0 91 72 149 182 149
c83 0 134 -26 156 -39l-47 -91c-19 12 -57 31 -104 31s-67 -17 -67 -43c0 -33 44 -42 100 -64c77 -32 133 -67 133 -149c0 -102 -73 -156 -193 -156z" />
    <glyph glyph-name="uni021A" unicode="&#x21a;" horiz-adv-x="537" 
d="M211 -227c14 13 28 30 28 52c0 35 -40 38 -40 80c0 31 28 53 63 53c39 0 73 -26 73 -69c0 -49 -31 -92 -58 -116h-66zM198 0v550h-184v116h509v-116h-183v-550h-142z" />
    <glyph glyph-name="uni021B" unicode="&#x21b;" horiz-adv-x="387" 
d="M177 -227c14 13 28 30 28 52c0 35 -40 38 -40 80c0 31 28 53 63 53c39 0 73 -26 73 -69c0 -49 -31 -92 -58 -116h-66zM251 -12c-115 0 -154 59 -154 152v248h-78v99h78v141h132v-141h114v-99h-114v-222c0 -48 12 -69 49 -69c29 0 54 12 64 18l31 -99
c-20 -11 -61 -28 -122 -28z" />
    <glyph glyph-name="dotlessj" unicode="&#x237;" horiz-adv-x="275" 
d="M37 -233c-49 0 -75 7 -87 12l23 103c6 -2 18 -6 38 -6c46 0 60 29 60 104v507h134v-521c0 -121 -47 -199 -168 -199z" />
    <glyph glyph-name="circumflex" unicode="&#x2c6;" horiz-adv-x="500" 
d="M73 542l127 159h102l125 -159h-113l-64 66l-64 -66h-113z" />
    <glyph glyph-name="caron" unicode="&#x2c7;" horiz-adv-x="500" 
d="M198 541l-125 159h113l64 -66l64 66h113l-127 -159h-102z" />
    <glyph glyph-name="breve" unicode="&#x2d8;" horiz-adv-x="500" 
d="M250 530c-82 0 -159 46 -169 151h109c3 -40 23 -65 60 -65c36 0 56 25 60 65h108c-9 -105 -86 -151 -168 -151z" />
    <glyph glyph-name="dotaccent" unicode="&#x2d9;" horiz-adv-x="500" 
d="M250 556c-43 0 -74 32 -74 72c0 39 31 71 74 71s74 -32 74 -71c0 -40 -31 -72 -74 -72z" />
    <glyph glyph-name="ring" unicode="&#x2da;" horiz-adv-x="500" 
d="M250 539c-57 0 -110 46 -110 107c0 60 53 106 110 106s110 -46 110 -106c0 -61 -53 -107 -110 -107zM250 595c29 0 46 24 46 51s-17 50 -46 50s-46 -23 -46 -50s17 -51 46 -51z" />
    <glyph glyph-name="ogonek" unicode="&#x2db;" horiz-adv-x="500" 
d="M256 -230c-72 0 -120 37 -120 99c0 57 41 105 71 131h76c-29 -36 -54 -70 -54 -114c0 -30 17 -45 48 -45c17 0 29 4 41 9l16 -62c-15 -8 -39 -18 -78 -18z" />
    <glyph glyph-name="tilde" unicode="&#x2dc;" horiz-adv-x="500" 
d="M309 546c-60 0 -77 35 -118 35c-24 0 -44 -20 -54 -30l-61 53c19 33 59 75 113 75c61 0 77 -35 118 -35c28 0 47 20 56 31l61 -53c-20 -34 -60 -76 -115 -76z" />
    <glyph glyph-name="hungarumlaut" unicode="&#x2dd;" horiz-adv-x="500" 
d="M31 541l92 135h154l-140 -135h-106zM233 541l92 135h154l-140 -135h-106z" />
    <glyph glyph-name="tonos" unicode="&#x384;" horiz-adv-x="500" 
d="M158 541l25 135h150l-65 -135h-110z" />
    <glyph glyph-name="dieresistonos" unicode="&#x385;" horiz-adv-x="500" 
d="M67 542c-43 0 -74 32 -74 72c0 38 31 71 74 71s74 -33 74 -71c0 -40 -31 -72 -74 -72zM433 542c-43 0 -74 32 -74 72c0 38 31 71 74 71s74 -33 74 -71c0 -40 -31 -72 -74 -72zM175 541l24 157h145l-65 -157h-104z" />
    <glyph glyph-name="Alphatonos" unicode="&#x386;" horiz-adv-x="696" 
d="M50 531l25 135h150l-65 -135h-110zM256 238h187l-57 159c-21 57 -30 100 -36 115h-2c-5 -16 -16 -61 -35 -115zM31 0l254 666h136l261 -666h-154l-45 125h-266l-44 -125h-142z" />
    <glyph glyph-name="anoteleia" unicode="&#x387;" horiz-adv-x="258" 
d="M129 204c-49 0 -88 38 -88 86s39 86 88 86s88 -38 88 -86s-39 -86 -88 -86z" />
    <glyph glyph-name="Epsilontonos" unicode="&#x388;" horiz-adv-x="684" 
d="M23 531l25 135h150l-65 -135h-110zM236 0v666h384v-116h-245v-150h216v-110h-216v-174h252v-116h-391z" />
    <glyph glyph-name="Etatonos" unicode="&#x389;" horiz-adv-x="899" 
d="M23 531l25 135h150l-65 -135h-110zM236 0v666h141v-262h298v262h141v-666h-141v288h-298v-288h-141z" />
    <glyph glyph-name="Iotatonos" unicode="&#x38a;" horiz-adv-x="472" 
d="M23 531l25 135h150l-65 -135h-110zM236 0v666h141v-666h-141z" />
    <glyph glyph-name="Omicrontonos" unicode="&#x38c;" horiz-adv-x="868" 
d="M23 531l25 135h150l-65 -135h-110zM484 -12c-223 0 -347 164 -347 344c0 181 121 346 344 346s343 -163 343 -342c0 -181 -117 -348 -340 -348zM481 102c134 0 194 106 194 230s-58 232 -191 232c-134 0 -197 -104 -197 -228c0 -125 61 -234 194 -234z" />
    <glyph glyph-name="Upsilontonos" unicode="&#x38e;" horiz-adv-x="819" 
d="M23 531l25 135h150l-65 -135h-110zM452 0v251l-221 415h157l141 -283h1l140 283h137l-214 -415v-251h-141z" />
    <glyph glyph-name="Omegatonos" unicode="&#x38f;" horiz-adv-x="863" 
d="M23 531l25 135h150l-65 -135h-110zM144 0v109h126c-61 43 -115 136 -115 253c0 190 150 316 327 316s328 -126 328 -316c0 -117 -55 -210 -116 -253h127v-109h-282v103c91 60 131 137 131 254c0 110 -78 207 -188 207s-188 -97 -188 -207c0 -117 41 -194 132 -254v-103
h-282z" />
    <glyph glyph-name="iotadieresistonos" unicode="&#x390;" horiz-adv-x="316" 
d="M-39 542c-43 0 -74 32 -74 72c0 38 31 71 74 71s74 -33 74 -71c0 -40 -31 -72 -74 -72zM327 542c-43 0 -74 32 -74 72c0 38 31 71 74 71s74 -33 74 -71c0 -40 -31 -72 -74 -72zM69 541l24 157h145l-65 -157h-104zM207 -12c-106 0 -140 58 -140 142v357h133v-331
c0 -42 9 -59 34 -59c14 0 28 5 38 12l30 -98c-21 -13 -57 -23 -95 -23z" />
    <glyph glyph-name="Alpha" unicode="&#x391;" horiz-adv-x="680" 
d="M240 238h187l-57 159c-21 57 -30 100 -36 115h-2c-5 -16 -16 -61 -35 -115zM15 0l254 666h136l261 -666h-154l-45 125h-266l-44 -125h-142z" />
    <glyph glyph-name="Beta" unicode="&#x392;" horiz-adv-x="602" 
d="M83 0v666h222c123 0 230 -40 230 -166c0 -86 -46 -134 -118 -153v-2c79 -12 146 -65 146 -160c0 -136 -109 -185 -261 -185h-219zM222 108h74c81 0 124 25 124 89c0 62 -36 94 -118 94h-80v-183zM222 392h65c76 0 109 27 109 86c0 55 -36 80 -106 80h-68v-166z" />
    <glyph glyph-name="Gamma" unicode="&#x393;" horiz-adv-x="491" 
d="M83 0v666h393v-114h-252v-552h-141z" />
    <glyph glyph-name="Delta" unicode="&#x394;" horiz-adv-x="658" 
d="M26 0v72l233 594h134l240 -594v-72h-607zM180 116h287l-107 283c-19 50 -33 103 -37 115h-2c-4 -12 -18 -65 -37 -115z" />
    <glyph glyph-name="Epsilon" unicode="&#x395;" horiz-adv-x="530" 
d="M83 0v666h384v-116h-245v-150h216v-110h-216v-174h252v-116h-391z" />
    <glyph glyph-name="Zeta" unicode="&#x396;" horiz-adv-x="571" 
d="M46 0v92l305 459h-292v115h463v-90l-308 -461h317v-115h-485z" />
    <glyph glyph-name="Eta" unicode="&#x397;" horiz-adv-x="745" 
d="M83 0v666h141v-262h298v262h141v-666h-141v288h-298v-288h-141z" />
    <glyph glyph-name="Theta" unicode="&#x398;" horiz-adv-x="773" 
d="M390 -12c-223 0 -347 164 -347 344c0 181 121 346 344 346s343 -163 343 -342c0 -181 -117 -348 -340 -348zM387 102c134 0 194 106 194 230s-58 232 -191 232c-134 0 -197 -104 -197 -228c0 -125 61 -234 194 -234zM257 281v110h254v-110h-254z" />
    <glyph glyph-name="Iota" unicode="&#x399;" horiz-adv-x="324" 
d="M89 0v666h141v-666h-141z" />
    <glyph glyph-name="Kappa" unicode="&#x39a;" horiz-adv-x="630" 
d="M83 0v666h140v-290l227 290h156l-245 -309l256 -357h-167l-227 319v-319h-140z" />
    <glyph glyph-name="Lambda" unicode="&#x39b;" horiz-adv-x="668" 
d="M15 0l248 666h134l257 -666h-153l-140 399c-18 51 -30 99 -34 111h-2c-3 -12 -16 -61 -33 -111l-135 -399h-142z" />
    <glyph glyph-name="Mu" unicode="&#x39c;" horiz-adv-x="882" 
d="M41 0l92 666h137l134 -411c16 -48 28 -96 34 -115h2c5 18 19 67 35 115l138 411h136l92 -666h-144l-43 344c-6 49 -10 84 -11 97h-2c-3 -15 -13 -51 -27 -95l-113 -346h-139l-113 345c-13 42 -23 82 -27 96h-2c-1 -15 -4 -54 -9 -98l-43 -343h-127z" />
    <glyph glyph-name="Nu" unicode="&#x39d;" horiz-adv-x="742" 
d="M82 0v666h142l240 -345c40 -57 64 -101 70 -112h2c-1 9 -4 54 -4 105v352h128v-666h-129l-259 370c-36 50 -56 87 -64 100h-2c1 -9 4 -47 4 -89v-381h-128z" />
    <glyph glyph-name="Xi" unicode="&#x39e;" horiz-adv-x="612" 
d="M59 0v127h494v-127h-494zM95 282v127h422v-127h-422zM66 539v127h480v-127h-480z" />
    <glyph glyph-name="Omicron" unicode="&#x39f;" horiz-adv-x="773" 
d="M390 -12c-223 0 -347 164 -347 344c0 181 121 346 344 346s343 -163 343 -342c0 -181 -117 -348 -340 -348zM387 102c134 0 194 106 194 230s-58 232 -191 232c-134 0 -197 -104 -197 -228c0 -125 61 -234 194 -234z" />
    <glyph glyph-name="Pi" unicode="&#x3a0;" horiz-adv-x="724" 
d="M83 0v666h559v-666h-141v550h-277v-550h-141z" />
    <glyph glyph-name="Rho" unicode="&#x3a1;" horiz-adv-x="591" 
d="M81 0v666h219c145 0 255 -67 255 -210c0 -145 -105 -219 -271 -219h-61v-237h-142zM223 344h63c89 0 127 36 127 110c0 67 -37 104 -124 104h-66v-214z" />
    <glyph glyph-name="Sigma" unicode="&#x3a3;" horiz-adv-x="535" 
d="M39 0v87l181 259l-164 232v88h424v-115h-261l147 -204l-162 -232h290v-115h-455z" />
    <glyph glyph-name="Tau" unicode="&#x3a4;" horiz-adv-x="537" 
d="M198 0v550h-184v116h509v-116h-183v-550h-142z" />
    <glyph glyph-name="Upsilon" unicode="&#x3a5;" horiz-adv-x="598" 
d="M232 0v251l-221 415h157l141 -283h1l140 283h137l-214 -415v-251h-141z" />
    <glyph glyph-name="Phi" unicode="&#x3a6;" horiz-adv-x="797" 
d="M328 0v70c-182 4 -300 118 -300 270c0 147 118 266 300 271v55h141v-55c183 -5 299 -118 299 -269c0 -152 -113 -268 -299 -272v-70h-141zM460 172c104 1 168 73 168 168c0 97 -65 167 -168 169v-337zM337 172v337c-101 -2 -167 -71 -167 -167c0 -97 68 -169 167 -170z
" />
    <glyph glyph-name="Chi" unicode="&#x3a7;" horiz-adv-x="616" 
d="M19 0l211 342l-201 324h160l126 -208l118 208h142l-192 -322l214 -344h-160l-140 230l-135 -230h-143z" />
    <glyph glyph-name="Psi" unicode="&#x3a8;" horiz-adv-x="780" 
d="M325 0v176c-157 18 -269 110 -269 286v204h141v-200c0 -125 63 -168 138 -173v373h121v-373c73 6 138 55 138 167v206h130v-202c0 -181 -110 -266 -257 -286v-178h-142z" />
    <glyph glyph-name="Omega" unicode="&#x3a9;" horiz-adv-x="764" 
d="M44 0v109h126c-61 43 -115 136 -115 253c0 190 150 316 327 316s328 -126 328 -316c0 -117 -55 -210 -116 -253h127v-109h-282v103c91 60 131 137 131 254c0 110 -78 207 -188 207s-188 -97 -188 -207c0 -117 41 -194 132 -254v-103h-282z" />
    <glyph glyph-name="Iotadieresis" unicode="&#x3aa;" horiz-adv-x="324" 
d="M55 718c-43 0 -74 32 -74 72c0 38 31 71 74 71s74 -33 74 -71c0 -40 -31 -72 -74 -72zM265 718c-43 0 -74 32 -74 72c0 38 31 71 74 71s74 -33 74 -71c0 -40 -31 -72 -74 -72zM89 0v666h141v-666h-141z" />
    <glyph glyph-name="Upsilondieresis" unicode="&#x3ab;" horiz-adv-x="598" 
d="M197 718c-43 0 -74 32 -74 72c0 38 31 71 74 71s74 -33 74 -71c0 -40 -31 -72 -74 -72zM407 718c-43 0 -74 32 -74 72c0 38 31 71 74 71s74 -33 74 -71c0 -40 -31 -72 -74 -72zM232 0v251l-221 415h157l141 -283h1l140 283h137l-214 -415v-251h-141z" />
    <glyph glyph-name="alphatonos" unicode="&#x3ac;" horiz-adv-x="592" 
d="M223 541l25 135h150l-65 -135h-110zM252 -12c-156 0 -223 129 -223 254s67 257 222 257c83 0 132 -47 153 -89h1c4 26 18 66 25 77h136c-19 -29 -38 -80 -55 -144l-26 -96l30 -103c17 -58 43 -115 63 -144h-138c-10 13 -28 54 -33 78h-1c-22 -42 -73 -90 -154 -90z
M261 89c58 0 90 65 104 147c-11 87 -47 164 -106 164c-66 0 -90 -66 -90 -154c0 -89 26 -157 92 -157z" />
    <glyph glyph-name="epsilontonos" unicode="&#x3ad;" horiz-adv-x="462" 
d="M190 541l25 135h150l-65 -135h-110zM255 -12c-131 0 -230 48 -230 146c0 60 46 109 105 117v1c-52 13 -85 54 -85 111c0 83 94 136 222 136c73 0 136 -19 174 -43l-43 -98c-35 21 -85 37 -134 37c-48 0 -79 -18 -79 -51c0 -36 42 -50 93 -50h57l1 -92h-60
c-62 0 -108 -16 -108 -54s34 -54 90 -54c53 0 107 17 144 39l47 -99c-49 -27 -114 -46 -194 -46z" />
    <glyph glyph-name="etatonos" unicode="&#x3ae;" horiz-adv-x="557" 
d="M220 541l25 135h150l-65 -135h-110zM363 -218v532c0 49 -17 74 -65 74c-43 0 -80 -34 -100 -61v-327h-133v348c0 59 -7 108 -15 139h133c4 -12 10 -41 11 -61c35 41 86 73 156 73c106 0 146 -68 146 -158v-559h-133z" />
    <glyph glyph-name="iotatonos" unicode="&#x3af;" horiz-adv-x="316" 
d="M79 541l25 135h150l-65 -135h-110zM207 -12c-106 0 -140 58 -140 142v357h133v-331c0 -42 9 -59 34 -59c14 0 28 5 38 12l30 -98c-21 -13 -57 -23 -95 -23z" />
    <glyph glyph-name="upsilondieresistonos" unicode="&#x3b0;" horiz-adv-x="545" 
d="M98 542c-43 0 -74 32 -74 72c0 38 31 71 74 71s74 -33 74 -71c0 -40 -31 -72 -74 -72zM464 542c-43 0 -74 32 -74 72c0 38 31 71 74 71s74 -33 74 -71c0 -40 -31 -72 -74 -72zM206 541l24 157h145l-65 -157h-104zM273 -12c-137 0 -215 74 -215 214v285h133v-277
c0 -84 30 -121 82 -121c67 0 92 77 92 211c0 65 -14 142 -30 187h136c16 -44 30 -113 30 -187c0 -203 -58 -312 -228 -312z" />
    <glyph glyph-name="alpha" unicode="&#x3b1;" horiz-adv-x="592" 
d="M252 -12c-156 0 -223 129 -223 254s67 257 222 257c83 0 132 -47 153 -89h1c4 26 18 66 25 77h136c-19 -29 -38 -80 -55 -144l-26 -96l30 -103c17 -58 43 -115 63 -144h-138c-10 13 -28 54 -33 78h-1c-22 -42 -73 -90 -154 -90zM261 89c58 0 90 65 104 147
c-11 87 -47 164 -106 164c-66 0 -90 -66 -90 -154c0 -89 26 -157 92 -157z" />
    <glyph glyph-name="beta" unicode="&#x3b2;" horiz-adv-x="569" 
d="M65 -218v715c0 166 110 235 234 235c123 0 208 -67 208 -159c0 -85 -67 -157 -127 -172v-2c76 -8 156 -82 156 -181c0 -138 -82 -227 -236 -227c-49 0 -83 14 -102 30v-239h-133zM275 93c79 0 118 51 118 122c0 75 -57 120 -147 120v91c69 2 124 61 124 126
c0 41 -26 76 -74 76c-61 0 -98 -43 -98 -133v-375c17 -14 41 -26 77 -27z" />
    <glyph glyph-name="gamma" unicode="&#x3b3;" horiz-adv-x="508" 
d="M184 -218v232l-174 473h144l99 -322h3c54 111 86 220 100 322h135c-16 -124 -73 -282 -176 -474v-231h-131z" />
    <glyph glyph-name="delta" unicode="&#x3b4;" horiz-adv-x="559" 
d="M278 -12c-165 0 -250 112 -250 238c0 121 92 211 168 250c-30 36 -52 76 -52 120c0 81 76 136 177 136c75 0 118 -21 143 -38l-49 -87c-13 9 -37 24 -79 24c-31 0 -51 -16 -51 -43c0 -40 41 -73 110 -132c68 -59 136 -124 136 -241c0 -118 -85 -227 -253 -227zM278 393
l-6 6c-55 -28 -103 -94 -103 -169c0 -89 43 -141 111 -141c67 0 109 47 109 121c0 80 -49 125 -111 183z" />
    <glyph glyph-name="epsilon" unicode="&#x3b5;" horiz-adv-x="474" 
d="M261 -12c-131 0 -230 48 -230 146c0 60 46 109 105 117v1c-52 13 -85 54 -85 111c0 83 94 136 222 136c73 0 136 -19 174 -43l-43 -98c-35 21 -85 37 -134 37c-48 0 -79 -18 -79 -51c0 -36 42 -50 93 -50h57l1 -92h-60c-62 0 -108 -16 -108 -54s34 -54 90 -54
c53 0 107 17 144 39l47 -99c-49 -27 -114 -46 -194 -46z" />
    <glyph glyph-name="zeta" unicode="&#x3b6;" horiz-adv-x="397" 
d="M297 -185l-78 66c20 12 43 36 43 60c0 19 -12 34 -40 48l-40 20c-96 49 -149 113 -149 205c0 91 59 191 145 303l73 103h-201v100h373v-77l-155 -202c-56 -73 -97 -143 -97 -203c0 -66 35 -99 98 -131l40 -21c50 -25 82 -59 82 -111c0 -66 -45 -129 -94 -160z" />
    <glyph glyph-name="eta" unicode="&#x3b7;" horiz-adv-x="557" 
d="M363 -218v532c0 49 -17 74 -65 74c-43 0 -80 -34 -100 -61v-327h-133v348c0 59 -7 108 -15 139h133c4 -12 10 -41 11 -61c35 41 86 73 156 73c106 0 146 -68 146 -158v-559h-133z" />
    <glyph glyph-name="theta" unicode="&#x3b8;" horiz-adv-x="555" 
d="M278 -12c-186 0 -239 195 -239 370c0 173 51 374 238 374c186 0 239 -195 239 -370c0 -173 -51 -374 -238 -374zM280 88c71 0 97 109 101 230h-207c5 -121 35 -230 106 -230zM275 632c-68 0 -95 -101 -101 -215h206c-8 114 -39 215 -105 215z" />
    <glyph glyph-name="iota" unicode="&#x3b9;" horiz-adv-x="316" 
d="M207 -12c-106 0 -140 58 -140 142v357h133v-331c0 -42 9 -59 34 -59c14 0 28 5 38 12l30 -98c-21 -13 -57 -23 -95 -23z" />
    <glyph glyph-name="kappa" unicode="&#x3ba;" horiz-adv-x="565" 
d="M73 0v487h130v-181c0 -37 -4 -83 -12 -122h1c34 100 122 221 205 303h154c-62 -54 -128 -121 -186 -192l187 -295h-149l-117 193c-47 -63 -80 -135 -92 -193h-121z" />
    <glyph glyph-name="lambda" unicode="&#x3bb;" horiz-adv-x="534" 
d="M15 0l195 493l-23 64c-15 40 -29 59 -53 59c-18 0 -34 -5 -45 -12l-25 98c22 12 56 23 91 23c73 0 119 -30 157 -137l209 -588h-137l-86 257c-10 32 -21 72 -27 107h-1c-6 -35 -16 -75 -27 -107l-88 -257h-140z" />
    <glyph glyph-name="mu" unicode="&#x3bc;" horiz-adv-x="565" 
d="M62 -218v705h133v-317c0 -43 12 -71 59 -71c49 0 88 39 106 61v327h133v-349c0 -58 6 -110 12 -138h-131c-4 12 -9 45 -10 65c-23 -26 -64 -68 -127 -73c-16 -1 -34 1 -46 6h-3c2 -13 4 -49 4 -100v-116h-130z" />
    <glyph glyph-name="nu" unicode="&#x3bd;" horiz-adv-x="508" 
d="M189 0l-178 487h143l99 -322h3c54 111 86 220 100 322h135c-16 -126 -77 -290 -184 -487h-118z" />
    <glyph glyph-name="xi" unicode="&#x3be;" horiz-adv-x="417" 
d="M306 -185l-79 66c20 12 44 37 44 61c0 23 -12 37 -40 49l-47 21c-80 35 -151 71 -151 186c0 90 55 164 134 178v2c-64 17 -102 71 -102 132c0 57 30 104 72 120v1c-20 -5 -39 -7 -64 -7h-66v96h401v-100h-93c-76 0 -114 -50 -114 -111c0 -55 41 -95 110 -95h49v-99h-67
c-84 0 -122 -46 -122 -102c0 -54 42 -79 107 -108l39 -16c51 -22 82 -60 82 -114c0 -66 -44 -129 -93 -160z" />
    <glyph glyph-name="omicron" unicode="&#x3bf;" horiz-adv-x="550" 
d="M274 -12c-170 0 -244 129 -244 254s73 257 243 257s247 -128 247 -253c0 -123 -75 -258 -246 -258zM276 89c76 0 103 62 103 153s-32 158 -108 158c-75 0 -100 -63 -100 -154s30 -157 105 -157z" />
    <glyph glyph-name="pi" unicode="&#x3c0;" horiz-adv-x="650" 
d="M509 -12c-106 0 -139 58 -139 142v257h-123c0 -118 -11 -278 -27 -387h-134c18 112 31 276 31 387h-93v100h593v-100h-115v-231c0 -42 9 -59 34 -59c15 0 28 5 38 12l31 -98c-22 -13 -58 -23 -96 -23z" />
    <glyph glyph-name="rho" unicode="&#x3c1;" horiz-adv-x="551" 
d="M52 -218v475c0 144 69 242 230 242c142 0 238 -88 238 -251c0 -157 -90 -260 -230 -260c-52 0 -86 16 -105 30v-236h-133zM265 91c67 0 114 54 114 157c0 92 -33 152 -98 152c-67 0 -96 -51 -96 -146v-134c17 -15 42 -29 80 -29z" />
    <glyph glyph-name="sigma1" unicode="&#x3c2;" horiz-adv-x="454" 
d="M310 -185l-79 66c21 12 44 36 44 60c0 19 -13 33 -40 48l-51 26c-87 43 -154 94 -154 230c0 164 109 254 256 254c79 0 126 -24 149 -39l-43 -91c-22 14 -53 29 -102 29c-78 0 -119 -59 -119 -149c0 -61 29 -100 87 -129l64 -34c49 -26 81 -59 81 -111
c0 -66 -44 -129 -93 -160z" />
    <glyph glyph-name="sigma" unicode="&#x3c3;" horiz-adv-x="572" 
d="M274 -12c-170 0 -244 129 -244 248s75 251 254 251h271v-99h-100v-1c37 -27 65 -82 65 -147c0 -117 -75 -252 -246 -252zM276 89c75 0 103 59 103 147s-33 152 -108 152c-74 0 -100 -63 -100 -148s31 -151 105 -151z" />
    <glyph glyph-name="tau" unicode="&#x3c4;" horiz-adv-x="440" 
d="M270 -12c-107 0 -140 58 -140 142v257h-120v100h414v-100h-162v-231c0 -42 9 -59 34 -59c15 0 29 5 38 12l31 -98c-22 -13 -58 -23 -95 -23z" />
    <glyph glyph-name="upsilon" unicode="&#x3c5;" horiz-adv-x="545" 
d="M273 -12c-137 0 -215 74 -215 214v285h133v-277c0 -84 30 -121 82 -121c67 0 92 77 92 211c0 65 -14 142 -30 187h136c16 -44 30 -113 30 -187c0 -203 -58 -312 -228 -312z" />
    <glyph glyph-name="phi" unicode="&#x3c6;" horiz-adv-x="713" 
d="M295 -219v207c-174 3 -265 126 -265 254s91 253 265 257v221h120v-221c173 -4 268 -127 268 -254c0 -128 -95 -254 -268 -258v-206h-120zM415 85c80 2 130 60 130 156c0 95 -50 157 -130 159v-315zM295 87v315c-80 -3 -126 -60 -126 -156s46 -157 126 -159z" />
    <glyph glyph-name="chi" unicode="&#x3c7;" horiz-adv-x="491" 
d="M-6 -218l183 363l-170 342h141l104 -218h1l99 218h132l-170 -337l183 -368h-140l-119 245h-1l-110 -245h-133z" />
    <glyph glyph-name="psi" unicode="&#x3c8;" horiz-adv-x="723" 
d="M299 -219v207c-132 7 -241 76 -241 222v277h133v-266c0 -90 49 -130 113 -132v551h117v-551c66 3 123 75 123 211c0 65 -14 142 -30 187h135c17 -44 31 -113 31 -187c0 -205 -93 -305 -255 -311v-208h-126z" />
    <glyph glyph-name="omega" unicode="&#x3c9;" horiz-adv-x="777" 
d="M231 -12c-126 0 -191 86 -191 228c0 110 27 204 73 271h141c-47 -71 -78 -162 -78 -260c0 -92 23 -133 67 -133c61 0 81 106 86 242h120c5 -136 24 -242 86 -242c44 0 66 41 66 133c0 98 -31 189 -78 260h142c46 -67 73 -161 73 -271c0 -142 -66 -228 -191 -228
c-86 0 -134 49 -158 113h-1c-23 -64 -72 -113 -157 -113z" />
    <glyph glyph-name="iotadieresis" unicode="&#x3ca;" horiz-adv-x="316" 
d="M29 542c-43 0 -74 32 -74 72c0 38 31 71 74 71s74 -33 74 -71c0 -40 -31 -72 -74 -72zM239 542c-43 0 -74 32 -74 72c0 38 31 71 74 71s74 -33 74 -71c0 -40 -31 -72 -74 -72zM207 -12c-106 0 -140 58 -140 142v357h133v-331c0 -42 9 -59 34 -59c14 0 28 5 38 12l30 -98
c-21 -13 -57 -23 -95 -23z" />
    <glyph glyph-name="upsilondieresis" unicode="&#x3cb;" horiz-adv-x="545" 
d="M167 542c-43 0 -74 32 -74 72c0 38 31 71 74 71s74 -33 74 -71c0 -40 -31 -72 -74 -72zM377 542c-43 0 -74 32 -74 72c0 38 31 71 74 71s74 -33 74 -71c0 -40 -31 -72 -74 -72zM273 -12c-137 0 -215 74 -215 214v285h133v-277c0 -84 30 -121 82 -121c67 0 92 77 92 211
c0 65 -14 142 -30 187h136c16 -44 30 -113 30 -187c0 -203 -58 -312 -228 -312z" />
    <glyph glyph-name="omicrontonos" unicode="&#x3cc;" horiz-adv-x="550" 
d="M220 541l25 135h150l-65 -135h-110zM274 -12c-170 0 -244 129 -244 254s73 257 243 257s247 -128 247 -253c0 -123 -75 -258 -246 -258zM276 89c76 0 103 62 103 153s-32 158 -108 158c-75 0 -100 -63 -100 -154s30 -157 105 -157z" />
    <glyph glyph-name="upsilontonos" unicode="&#x3cd;" horiz-adv-x="545" 
d="M217 541l25 135h150l-65 -135h-110zM273 -12c-137 0 -215 74 -215 214v285h133v-277c0 -84 30 -121 82 -121c67 0 92 77 92 211c0 65 -14 142 -30 187h136c16 -44 30 -113 30 -187c0 -203 -58 -312 -228 -312z" />
    <glyph glyph-name="omegatonos" unicode="&#x3ce;" horiz-adv-x="772" 
d="M330 541l25 135h150l-65 -135h-110zM229 -12c-126 0 -191 86 -191 228c0 110 27 204 73 271h141c-47 -71 -78 -162 -78 -260c0 -92 23 -133 67 -133c61 0 81 106 86 242h120c5 -136 24 -242 86 -242c44 0 66 41 66 133c0 98 -31 189 -78 260h142c46 -67 73 -161 73 -271
c0 -142 -66 -228 -191 -228c-86 0 -134 49 -158 113h-1c-23 -64 -72 -113 -157 -113z" />
    <glyph glyph-name="afii10023" unicode="&#x401;" horiz-adv-x="530" 
d="M169 718c-43 0 -74 32 -74 72c0 38 31 71 74 71s74 -33 74 -71c0 -40 -31 -72 -74 -72zM379 718c-43 0 -74 32 -74 72c0 38 31 71 74 71s74 -33 74 -71c0 -40 -31 -72 -74 -72zM83 0v666h384v-116h-245v-150h216v-110h-216v-174h252v-116h-391z" />
    <glyph glyph-name="afii10051" unicode="&#x402;" horiz-adv-x="725" 
d="M170 0v550h-156v116h509v-116h-213v-193c28 37 97 87 187 87c131 0 190 -118 190 -267c0 -226 -125 -381 -271 -381c-30 0 -62 7 -77 15l28 112c9 -4 27 -7 44 -7c75 0 133 106 133 249c0 98 -28 167 -99 167c-59 0 -113 -43 -135 -70v-262h-140z" />
    <glyph glyph-name="afii10052" unicode="&#x403;" horiz-adv-x="491" 
d="M190 717l83 135h172l-140 -135h-115zM83 0v666h393v-114h-252v-552h-141z" />
    <glyph glyph-name="afii10053" unicode="&#x404;" horiz-adv-x="618" 
d="M385 -12c-227 0 -342 162 -342 346c0 183 119 344 344 344c87 0 148 -19 200 -53l-63 -103c-37 24 -78 39 -139 39c-109 0 -175 -78 -187 -173h272v-110h-271c14 -96 78 -172 188 -172c72 0 116 25 151 51l58 -99c-34 -31 -114 -70 -211 -70z" />
    <glyph glyph-name="afii10054" unicode="&#x405;" horiz-adv-x="516" 
d="M237 -12c-108 0 -177 42 -206 66l60 98c15 -11 66 -50 143 -50c67 0 106 34 106 77c0 59 -71 76 -149 115c-82 40 -143 91 -143 199c0 114 96 185 215 185c109 0 167 -35 195 -56l-57 -99c-23 15 -73 41 -130 41c-54 0 -89 -24 -89 -69c0 -52 53 -69 123 -101
c88 -40 171 -85 171 -208c0 -121 -91 -198 -239 -198z" />
    <glyph glyph-name="afii10055" unicode="&#x406;" horiz-adv-x="318" 
d="M83 0v666h141v-666h-141z" />
    <glyph glyph-name="afii10056" unicode="&#x407;" horiz-adv-x="324" 
d="M89 0v666h141v-666h-141zM55 718c-43 0 -74 32 -74 72c0 38 31 71 74 71s74 -33 74 -71c0 -40 -31 -72 -74 -72zM265 718c-43 0 -74 32 -74 72c0 38 31 71 74 71s74 -33 74 -71c0 -40 -31 -72 -74 -72z" />
    <glyph glyph-name="afii10057" unicode="&#x408;" horiz-adv-x="331" 
d="M57 -204c-47 0 -77 8 -98 16l22 115c9 -4 29 -9 47 -9c56 0 78 28 78 99v649h142v-668c0 -132 -73 -202 -191 -202z" />
    <glyph glyph-name="afii10058" unicode="&#x409;" horiz-adv-x="985" 
d="M37 -10l-15 109c75 8 99 89 111 235l27 332h452v-237h87c144 0 254 -67 254 -209c0 -145 -105 -220 -270 -220h-212v550h-187l-18 -252c-16 -220 -88 -308 -229 -308zM612 107h72c89 0 128 37 128 110c0 68 -38 104 -124 104h-76v-214z" />
    <glyph glyph-name="afii10059" unicode="&#x40a;" horiz-adv-x="1002" 
d="M83 0v666h141v-252h264v252h141v-252h87c145 0 255 -64 255 -202c0 -141 -105 -212 -270 -212h-213v298h-264v-298h-141zM629 107h73c89 0 127 36 127 102c0 61 -37 97 -124 97h-76v-199z" />
    <glyph glyph-name="afii10060" unicode="&#x40b;" horiz-adv-x="739" 
d="M170 0v550h-156v116h509v-116h-213v-193c28 37 100 87 189 87c117 0 187 -76 187 -189v-255h-140v227c0 72 -42 105 -98 105c-60 0 -116 -43 -138 -70v-262h-140z" />
    <glyph glyph-name="afii10061" unicode="&#x40c;" horiz-adv-x="638" 
d="M258 717l83 135h172l-140 -135h-115zM83 0v666h140v-275h47l195 275h151l-231 -309c23 -21 46 -54 77 -103c59 -98 80 -139 129 -139h10l-1 -115h-58c-79 0 -114 35 -178 142c-54 88 -75 138 -116 138h-25v-280h-140z" />
    <glyph glyph-name="afii10062" unicode="&#x40e;" horiz-adv-x="592" 
d="M135 -3c-32 0 -56 5 -67 9l19 105c8 -3 22 -5 39 -5c51 0 78 33 102 86l10 25l-202 449h136l135 -309l135 309h136l-225 -500c-53 -119 -107 -169 -218 -169zM308 706c-82 0 -159 46 -169 151h109c3 -40 23 -65 60 -65c36 0 56 25 60 65h108c-9 -105 -86 -151 -168 -151z
" />
    <glyph glyph-name="afii10145" unicode="&#x40f;" horiz-adv-x="716" 
d="M314 -146l-8 146h-223v666h140v-550h269v550h142v-666h-224l-7 -146h-89z" />
    <glyph glyph-name="afii10017" unicode="&#x410;" horiz-adv-x="680" 
d="M240 238h187l-57 159c-21 57 -30 100 -36 115h-2c-5 -16 -16 -61 -35 -115zM15 0l254 666h136l261 -666h-154l-45 125h-266l-44 -125h-142z" />
    <glyph glyph-name="afii10018" unicode="&#x411;" horiz-adv-x="608" 
d="M83 0v666h417v-116h-276v-136h87c144 0 254 -64 254 -202c0 -141 -105 -212 -270 -212h-212zM224 107h72c89 0 128 36 128 102c0 61 -37 97 -124 97h-76v-199z" />
    <glyph glyph-name="afii10019" unicode="&#x412;" horiz-adv-x="602" 
d="M83 0v666h222c123 0 230 -40 230 -166c0 -86 -46 -134 -118 -153v-2c79 -12 146 -65 146 -160c0 -136 -109 -185 -261 -185h-219zM222 108h74c81 0 124 25 124 89c0 62 -36 94 -118 94h-80v-183zM222 392h65c76 0 109 27 109 86c0 55 -36 80 -106 80h-68v-166z" />
    <glyph glyph-name="afii10020" unicode="&#x413;" horiz-adv-x="491" 
d="M83 0v666h393v-114h-252v-552h-141z" />
    <glyph glyph-name="afii10021" unicode="&#x414;" horiz-adv-x="729" 
d="M43 -146l-21 262h55c35 40 51 98 67 218l49 332h425v-550h68l-19 -262h-89l-11 146h-424l-11 -146h-89zM214 116h263v434h-165l-34 -241c-13 -97 -36 -162 -64 -193z" />
    <glyph glyph-name="afii10022" unicode="&#x415;" horiz-adv-x="530" 
d="M83 0v666h384v-116h-245v-150h216v-110h-216v-174h252v-116h-391z" />
    <glyph glyph-name="afii10024" unicode="&#x416;" horiz-adv-x="970" 
d="M37 0l1 115h9c49 0 70 41 129 139c30 49 53 82 76 103l-231 309h152l195 -275h46v275h141v-275h47l195 275h151l-231 -309c23 -21 46 -54 77 -103c58 -98 80 -139 129 -139h10l-1 -115h-58c-79 0 -114 35 -178 142c-54 88 -76 138 -116 138h-25v-280h-141v280h-26
c-40 -2 -61 -50 -114 -138c-64 -107 -99 -142 -178 -142h-59z" />
    <glyph glyph-name="afii10025" unicode="&#x417;" horiz-adv-x="534" 
d="M230 -12c-94 0 -161 24 -209 58l63 102c33 -25 80 -45 149 -45c74 0 119 28 119 92c0 61 -47 96 -125 96h-75v101h59c73 0 118 30 118 88c0 51 -35 82 -100 82c-63 0 -109 -21 -141 -46l-56 98c36 31 101 64 199 64c136 0 237 -59 237 -175c0 -87 -43 -137 -116 -156v-2
c79 -12 143 -68 143 -163c0 -133 -116 -194 -265 -194z" />
    <glyph glyph-name="afii10026" unicode="&#x418;" horiz-adv-x="744" 
d="M83 0v666h131v-356c0 -51 -3 -96 -4 -104h2c6 11 31 54 70 112l237 348h142v-666h-131v385c0 42 3 79 3 88h-2c-7 -13 -28 -49 -64 -100l-255 -373h-129z" />
    <glyph glyph-name="afii10027" unicode="&#x419;" horiz-adv-x="744" 
d="M83 0v666h131v-356c0 -51 -3 -96 -4 -104h2c6 11 31 54 70 112l237 348h142v-666h-131v385c0 42 3 79 3 88h-2c-7 -13 -28 -49 -64 -100l-255 -373h-129zM373 706c-82 0 -159 46 -169 151h109c3 -40 23 -65 60 -65c36 0 56 25 60 65h108c-9 -105 -86 -151 -168 -151z" />
    <glyph glyph-name="afii10028" unicode="&#x41a;" horiz-adv-x="638" 
d="M83 0v666h140v-275h47l195 275h151l-231 -309c23 -21 46 -54 77 -103c59 -98 80 -139 129 -139h10l-1 -115h-58c-79 0 -114 35 -178 142c-54 88 -75 138 -116 138h-25v-280h-140z" />
    <glyph glyph-name="afii10029" unicode="&#x41b;" horiz-adv-x="694" 
d="M37 -10l-15 109c75 8 99 89 111 235l27 332h452v-666h-141v550h-187l-18 -252c-16 -220 -88 -308 -229 -308z" />
    <glyph glyph-name="afii10030" unicode="&#x41c;" horiz-adv-x="882" 
d="M41 0l92 666h137l134 -411c16 -48 28 -96 34 -115h2c5 18 19 67 35 115l138 411h136l92 -666h-144l-43 344c-6 49 -10 84 -11 97h-2c-3 -15 -13 -51 -27 -95l-113 -346h-139l-113 345c-13 42 -23 82 -27 96h-2c-1 -15 -4 -54 -9 -98l-43 -343h-127z" />
    <glyph glyph-name="afii10031" unicode="&#x41d;" horiz-adv-x="745" 
d="M83 0v666h141v-262h298v262h141v-666h-141v288h-298v-288h-141z" />
    <glyph glyph-name="afii10032" unicode="&#x41e;" horiz-adv-x="773" 
d="M390 -12c-223 0 -347 164 -347 344c0 181 121 346 344 346s343 -163 343 -342c0 -181 -117 -348 -340 -348zM387 102c134 0 194 106 194 230s-58 232 -191 232c-134 0 -197 -104 -197 -228c0 -125 61 -234 194 -234z" />
    <glyph glyph-name="afii10033" unicode="&#x41f;" horiz-adv-x="724" 
d="M83 0v666h559v-666h-141v550h-277v-550h-141z" />
    <glyph glyph-name="afii10034" unicode="&#x420;" horiz-adv-x="592" 
d="M83 0v666h218c145 0 255 -67 255 -210c0 -145 -105 -219 -270 -219h-62v-237h-141zM224 344h63c89 0 127 36 127 110c0 67 -37 104 -124 104h-66v-214z" />
    <glyph glyph-name="afii10035" unicode="&#x421;" horiz-adv-x="618" 
d="M385 -12c-227 0 -342 165 -342 346s119 344 344 344c87 0 148 -19 200 -53l-63 -103c-37 24 -78 39 -139 39c-125 0 -192 -100 -192 -223c0 -127 64 -232 194 -232c72 0 116 25 151 51l58 -99c-34 -31 -114 -70 -211 -70z" />
    <glyph glyph-name="afii10036" unicode="&#x422;" horiz-adv-x="537" 
d="M198 0v550h-184v116h509v-116h-183v-550h-142z" />
    <glyph glyph-name="afii10037" unicode="&#x423;" horiz-adv-x="592" 
d="M135 -3c-32 0 -56 5 -67 9l19 105c8 -3 22 -5 39 -5c51 0 78 33 102 86l10 25l-202 449h136l135 -309l135 309h136l-225 -500c-53 -119 -107 -169 -218 -169z" />
    <glyph glyph-name="afii10038" unicode="&#x424;" horiz-adv-x="797" 
d="M328 0v70c-182 4 -300 118 -300 270c0 147 118 266 300 271v55h141v-55c183 -5 299 -118 299 -269c0 -152 -113 -268 -299 -272v-70h-141zM460 172c104 1 168 73 168 168c0 97 -65 167 -168 169v-337zM337 172v337c-101 -2 -167 -71 -167 -167c0 -97 68 -169 167 -170z
" />
    <glyph glyph-name="afii10039" unicode="&#x425;" horiz-adv-x="616" 
d="M19 0l211 342l-201 324h160l126 -208l118 208h142l-192 -322l214 -344h-160l-140 230l-135 -230h-143z" />
    <glyph glyph-name="afii10040" unicode="&#x426;" horiz-adv-x="745" 
d="M594 -146l-11 146h-500v666h140v-550h269v550h142v-550h68l-19 -262h-89z" />
    <glyph glyph-name="afii10041" unicode="&#x427;" horiz-adv-x="657" 
d="M435 0v260c-28 -37 -102 -87 -195 -87c-121 0 -192 78 -192 191v302h140v-274c0 -72 43 -107 103 -107c64 0 121 43 144 70v311h140v-666h-140z" />
    <glyph glyph-name="afii10042" unicode="&#x428;" horiz-adv-x="1046" 
d="M83 0v666h140v-550h226v550h141v-550h225v550h141v-666h-873z" />
    <glyph glyph-name="afii10043" unicode="&#x429;" horiz-adv-x="1068" 
d="M917 -146l-11 146h-823v666h140v-550h226v550h141v-550h225v550h141v-550h69l-19 -262h-89z" />
    <glyph glyph-name="afii10044" unicode="&#x42a;" horiz-adv-x="673" 
d="M159 0v550h-145v116h286v-237h87c145 0 255 -67 255 -209c0 -145 -105 -220 -270 -220h-213zM300 107h73c89 0 127 37 127 110c0 68 -37 104 -124 104h-76v-214z" />
    <glyph glyph-name="afii10045" unicode="&#x42b;" horiz-adv-x="894" 
d="M670 0v666h141v-666h-141zM83 0v666h141v-237h87c144 0 254 -67 254 -209c0 -145 -105 -220 -270 -220h-212zM224 107h72c89 0 128 37 128 110c0 68 -37 104 -124 104h-76v-214z" />
    <glyph glyph-name="afii10046" unicode="&#x42c;" horiz-adv-x="597" 
d="M83 0v666h141v-237h87c144 0 254 -67 254 -209c0 -145 -105 -220 -270 -220h-212zM224 107h72c89 0 128 37 128 110c0 68 -37 104 -124 104h-76v-214z" />
    <glyph glyph-name="afii10047" unicode="&#x42d;" horiz-adv-x="618" 
d="M229 -12c-93 0 -158 21 -208 57l64 103c33 -24 81 -43 146 -43c108 0 176 76 189 173h-270v110h269c-13 95 -76 172 -187 172c-65 0 -110 -22 -143 -47l-58 99c35 29 108 66 204 66c227 0 339 -160 339 -345c0 -182 -120 -345 -345 -345z" />
    <glyph glyph-name="afii10048" unicode="&#x42e;" horiz-adv-x="1101" 
d="M718 -12c-204 0 -325 138 -344 300h-150v-288h-141v666h141v-262h154c28 150 144 274 336 274c224 0 344 -163 344 -342c0 -181 -117 -348 -340 -348zM714 102c135 0 195 106 195 230s-58 232 -191 232c-135 0 -198 -104 -198 -228c0 -125 62 -234 194 -234z" />
    <glyph glyph-name="afii10049" unicode="&#x42f;" horiz-adv-x="624" 
d="M40 0v115h10c44 0 67 37 115 115c20 29 42 57 62 67v2c-83 10 -154 72 -154 175c0 124 90 192 246 192h223v-666h-142v278h-13c-37 -7 -59 -53 -110 -136c-65 -107 -99 -142 -178 -142h-59zM323 374h77v184h-71c-80 0 -116 -30 -116 -91c0 -58 35 -93 110 -93z" />
    <glyph glyph-name="afii10065" unicode="&#x430;" horiz-adv-x="502" 
d="M180 -12c-83 0 -147 50 -147 137c0 127 131 173 260 173h17v28c0 47 -21 68 -79 68c-53 0 -95 -23 -124 -46l-58 81c39 36 105 70 197 70c133 0 196 -51 196 -180v-175c0 -66 7 -113 14 -144h-131c-4 12 -7 37 -8 52c-26 -32 -74 -64 -137 -64zM220 85c41 0 69 19 90 43
v88h-17c-78 0 -132 -23 -132 -80c0 -36 29 -51 59 -51z" />
    <glyph glyph-name="afii10066" unicode="&#x431;" horiz-adv-x="552" 
d="M283 -12c-177 0 -241 147 -241 333c0 206 65 342 267 380l161 30l18 -111l-160 -27c-87 -16 -146 -64 -151 -157c28 28 70 52 129 52c120 0 215 -89 215 -247s-106 -253 -238 -253zM285 89c61 0 96 56 96 150c0 89 -30 153 -96 153c-54 0 -81 -26 -103 -56
c-1 -11 -1 -28 -1 -37c0 -149 39 -210 104 -210z" />
    <glyph glyph-name="afii10067" unicode="&#x432;" horiz-adv-x="520" 
d="M71 0v487h213c97 0 183 -28 183 -124c0 -67 -38 -98 -90 -111v-1c59 -8 110 -45 110 -116c0 -100 -87 -135 -205 -135h-211zM202 95h76c55 0 80 15 80 54s-26 57 -75 57h-81v-111zM202 290h67c51 0 71 18 71 54c0 33 -22 50 -69 50h-69v-104z" />
    <glyph glyph-name="afii10068" unicode="&#x433;" horiz-adv-x="406" 
d="M71 0v487h320v-104h-187v-383h-133z" />
    <glyph glyph-name="afii10069" unicode="&#x434;" horiz-adv-x="595" 
d="M37 -146l-21 250h38c26 20 42 65 51 141l31 242h364v-383h55l-19 -250h-84l-12 146h-307l-11 -146h-85zM182 104h189v279h-130l-18 -157c-7 -59 -21 -98 -41 -122z" />
    <glyph glyph-name="afii10070" unicode="&#x435;" horiz-adv-x="519" 
d="M285 -12c-163 0 -255 103 -255 258c0 154 106 253 241 253c152 0 226 -106 210 -286h-308c6 -72 43 -126 124 -126c66 0 103 22 127 34l43 -86c-32 -18 -82 -47 -182 -47zM171 303h182c-1 55 -23 100 -84 100c-57 0 -88 -37 -98 -100z" />
    <glyph glyph-name="afii10072" unicode="&#x436;" horiz-adv-x="795" 
d="M30 0v97h7c24 0 41 20 83 92c23 38 42 63 62 79l-167 219h143l142 -197h31v197h133v-197h30l142 197h144l-167 -219c19 -16 39 -41 62 -79c42 -72 59 -92 82 -92h8l-1 -97h-56c-63 0 -87 26 -134 105c-42 71 -61 95 -91 96h-19v-201h-133v201h-20c-29 -1 -48 -25 -90 -96
c-48 -79 -72 -105 -135 -105h-56z" />
    <glyph glyph-name="afii10073" unicode="&#x437;" horiz-adv-x="431" 
d="M23 36l46 85c29 -19 72 -31 121 -31c54 0 80 20 80 59s-48 58 -98 58h-38v82h35c48 0 84 19 84 55c0 33 -25 55 -70 55s-83 -12 -110 -29l-43 84c36 23 90 44 156 44c100 0 193 -39 193 -135c0 -67 -38 -98 -90 -111v-1c59 -8 110 -45 110 -116
c0 -100 -90 -145 -208 -145c-70 0 -129 17 -168 46z" />
    <glyph glyph-name="afii10074" unicode="&#x438;" horiz-adv-x="601" 
d="M71 0v487h119v-226c0 -38 -4 -81 -4 -83h2c1 1 23 39 56 88l154 221h132v-487h-119v248c0 37 3 72 3 72h-2c-1 -1 -20 -30 -54 -80l-168 -240h-119z" />
    <glyph glyph-name="afii10075" unicode="&#x439;" horiz-adv-x="601" 
d="M71 0v487h119v-226c0 -38 -4 -81 -4 -83h2c1 1 23 39 56 88l154 221h132v-487h-119v248c0 37 3 72 3 72h-2c-1 -1 -20 -30 -54 -80l-168 -240h-119zM296 530c-82 0 -159 46 -169 151h109c3 -40 23 -65 60 -65c36 0 56 25 60 65h108c-9 -105 -86 -151 -168 -151z" />
    <glyph glyph-name="afii10076" unicode="&#x43a;" horiz-adv-x="535" 
d="M71 0v487h133v-197h31l142 197h143l-166 -219c19 -16 38 -41 61 -79c42 -72 59 -92 83 -92h8l-1 -97h-56c-63 0 -87 26 -135 105c-42 71 -60 95 -90 96h-19l-1 -201h-133z" />
    <glyph glyph-name="afii10077" unicode="&#x43b;" horiz-adv-x="570" 
d="M36 -7l-18 97c48 6 73 51 83 155l24 242h374v-487h-133v383h-131l-13 -164c-13 -162 -78 -226 -186 -226z" />
    <glyph glyph-name="afii10078" unicode="&#x43c;" horiz-adv-x="699" 
d="M34 0l71 487h129l90 -281c11 -31 22 -79 22 -80h2c0 1 12 49 23 80l95 281h129l69 -487h-135l-27 216c-4 40 -7 73 -7 73h-2s-9 -34 -20 -71l-68 -218h-127l-68 218c-10 32 -19 71 -19 71h-2s-2 -39 -6 -73l-30 -216h-119z" />
    <glyph glyph-name="afii10079" unicode="&#x43d;" horiz-adv-x="595" 
d="M71 0v487h133v-183h187v183h133v-487h-133v197h-187v-197h-133z" />
    <glyph glyph-name="afii10080" unicode="&#x43e;" horiz-adv-x="550" 
d="M274 -12c-170 0 -244 129 -244 254s73 257 243 257s247 -128 247 -253c0 -123 -75 -258 -246 -258zM276 89c76 0 103 62 103 153s-32 158 -108 158c-75 0 -100 -63 -100 -154s30 -157 105 -157z" />
    <glyph glyph-name="afii10081" unicode="&#x43f;" horiz-adv-x="585" 
d="M71 0v487h443v-487h-133v381h-177v-381h-133z" />
    <glyph glyph-name="afii10082" unicode="&#x440;" horiz-adv-x="566" 
d="M71 -219v706h131v-51c26 33 68 63 135 63c122 0 198 -92 198 -255c0 -154 -91 -256 -218 -256c-60 0 -96 20 -113 35v-242h-133zM288 91c69 0 106 57 106 153c0 92 -33 149 -98 149c-50 0 -81 -36 -92 -50v-219c17 -15 42 -33 84 -33z" />
    <glyph glyph-name="afii10083" unicode="&#x441;" horiz-adv-x="458" 
d="M282 -12c-156 0 -252 104 -252 255c0 164 109 256 256 256c79 0 126 -24 149 -39l-43 -91c-22 14 -53 29 -102 29c-78 0 -119 -61 -119 -151s39 -156 122 -156c56 0 90 21 105 30l41 -89c-23 -15 -68 -44 -157 -44z" />
    <glyph glyph-name="afii10084" unicode="&#x442;" horiz-adv-x="451" 
d="M158 0v382h-144v105h423v-105h-145v-382h-134z" />
    <glyph glyph-name="afii10085" unicode="&#x443;" horiz-adv-x="512" 
d="M73 -234c-41 0 -65 6 -75 9l19 105c7 -2 18 -5 47 -5c68 0 92 33 111 85l18 50l-183 477h142l110 -321h3l99 321h137l-201 -539c-43 -115 -94 -182 -227 -182z" />
    <glyph glyph-name="afii10086" unicode="&#x444;" horiz-adv-x="787" 
d="M460 -219h-132v235c-18 -13 -47 -28 -94 -28c-123 0 -203 103 -203 255s80 257 203 257c47 0 76 -16 94 -29v249h132v-249c17 13 46 29 93 29c123 0 203 -103 203 -255s-80 -257 -203 -257c-47 0 -76 15 -93 28v-235zM171 245c0 -91 30 -154 91 -154c36 0 57 16 73 32
v242c-16 16 -37 32 -73 32c-61 0 -91 -61 -91 -152zM616 243c0 91 -30 154 -91 154c-36 0 -57 -16 -73 -32v-242c16 -16 37 -32 73 -32c61 0 91 62 91 152z" />
    <glyph glyph-name="afii10087" unicode="&#x445;" horiz-adv-x="511" 
d="M16 0l166 252l-160 235h150s85 -129 88 -133l78 133h137l-151 -229l172 -258h-150l-101 156l-92 -156h-137z" />
    <glyph glyph-name="afii10088" unicode="&#x446;" horiz-adv-x="609" 
d="M466 -146l-12 146h-383v487h133v-381h176v381h133v-383h56l-19 -250h-84z" />
    <glyph glyph-name="afii10089" unicode="&#x447;" horiz-adv-x="561" 
d="M356 0v192c-27 -33 -77 -75 -155 -75c-108 0 -148 69 -148 158v212h133v-184c0 -49 18 -75 66 -75c52 0 94 49 104 62v197h134v-487h-134z" />
    <glyph glyph-name="afii10090" unicode="&#x448;" horiz-adv-x="861" 
d="M71 0v487h133v-381h160v381h133v-381h159v381h134v-487h-719z" />
    <glyph glyph-name="afii10091" unicode="&#x449;" horiz-adv-x="886" 
d="M743 -146l-12 146h-660v487h133v-381h160v381h133v-381h159v381h134v-383h56l-19 -250h-84z" />
    <glyph glyph-name="afii10092" unicode="&#x44a;" horiz-adv-x="561" 
d="M129 0v383h-115v104h247v-158h76c116 0 202 -51 202 -163s-83 -166 -216 -166h-194zM261 95h61c58 0 86 23 86 70s-27 67 -82 67h-65v-137z" />
    <glyph glyph-name="afii10093" unicode="&#x44b;" horiz-adv-x="773" 
d="M567 0v487h134v-487h-134zM71 0v487h133v-158h75c116 0 203 -51 203 -163s-84 -166 -217 -166h-194zM204 95h61c57 0 86 23 86 70s-28 67 -82 67h-65v-137z" />
    <glyph glyph-name="afii10094" unicode="&#x44c;" horiz-adv-x="503" 
d="M71 0v487h133v-158h75c116 0 203 -51 203 -163s-84 -166 -217 -166h-194zM204 95h61c57 0 86 23 86 70s-28 67 -82 67h-65v-137z" />
    <glyph glyph-name="afii10095" unicode="&#x44d;" horiz-adv-x="481" 
d="M179 -8c-66 0 -120 15 -160 45l55 94c25 -18 59 -32 105 -32c69 0 120 41 127 100h-199v89h199c-8 60 -55 102 -125 102c-46 0 -81 -16 -105 -32l-50 93c31 22 83 46 160 46c179 0 264 -117 264 -251c0 -137 -91 -254 -271 -254z" />
    <glyph glyph-name="afii10096" unicode="&#x44e;" horiz-adv-x="832" 
d="M556 -12c-150 0 -224 102 -240 209h-112v-197h-133v487h133v-183h115c21 102 94 195 236 195c169 0 247 -128 247 -253c0 -123 -76 -258 -246 -258zM558 89c76 0 102 62 102 153s-31 158 -107 158s-100 -63 -100 -154s29 -157 105 -157z" />
    <glyph glyph-name="afii10097" unicode="&#x44f;" horiz-adv-x="534" 
d="M29 0v97h7c21 0 38 15 71 67c16 26 34 46 54 54v1c-47 9 -102 50 -102 121c0 97 74 147 202 147h202v-487h-133v186h-24c-30 0 -47 -20 -86 -85c-47 -78 -71 -101 -134 -101h-57zM263 275h67v115h-61c-54 0 -77 -19 -77 -58c0 -38 23 -57 71 -57z" />
    <glyph glyph-name="afii10071" unicode="&#x451;" horiz-adv-x="519" 
d="M159 542c-43 0 -74 32 -74 72c0 38 31 71 74 71s74 -33 74 -71c0 -40 -31 -72 -74 -72zM369 542c-43 0 -74 32 -74 72c0 38 31 71 74 71s74 -33 74 -71c0 -40 -31 -72 -74 -72zM285 -12c-163 0 -255 103 -255 258c0 154 106 253 241 253c138 0 212 -88 212 -240
c0 -15 -1 -30 -2 -46h-308c6 -72 43 -126 124 -126c66 0 103 22 127 34l43 -86c-32 -18 -82 -47 -182 -47zM171 303h182c-1 55 -23 100 -84 100c-57 0 -88 -37 -98 -100z" />
    <glyph glyph-name="afii10099" unicode="&#x452;" horiz-adv-x="561" 
d="M345 -147l-56 79c65 51 96 163 96 298c0 91 -30 147 -100 147c-35 0 -66 -20 -81 -37v-340h-133v563h-43v99h43v58h133v-58h153v-99h-153v-131c25 26 67 50 118 50c116 0 200 -80 200 -252c0 -170 -66 -315 -177 -377z" />
    <glyph glyph-name="afii10100" unicode="&#x453;" horiz-adv-x="406" 
d="M168 541l83 135h172l-140 -135h-115zM71 0v487h320v-104h-187v-383h-133z" />
    <glyph glyph-name="afii10101" unicode="&#x454;" horiz-adv-x="480" 
d="M296 -8c-179 0 -266 116 -266 251c0 136 91 253 271 253c66 0 117 -15 156 -42l-55 -93c-24 16 -54 29 -100 29c-70 0 -120 -41 -127 -100h195v-90h-196c9 -60 56 -102 126 -102c49 0 86 19 110 36l51 -94c-30 -22 -82 -48 -165 -48z" />
    <glyph glyph-name="afii10102" unicode="&#x455;" horiz-adv-x="420" 
d="M199 -12c-87 0 -143 26 -173 46l45 93c19 -13 66 -40 120 -40c51 0 80 15 80 44c0 33 -54 42 -123 75c-68 32 -109 70 -109 144c0 91 72 149 182 149c83 0 134 -26 156 -39l-47 -91c-19 12 -57 31 -104 31s-67 -17 -67 -43c0 -33 44 -42 100 -64c77 -32 133 -67 133 -149
c0 -102 -73 -156 -193 -156z" />
    <glyph glyph-name="afii10103" unicode="&#x456;" horiz-adv-x="280" 
d="M140 550c-47 0 -81 37 -81 80c0 42 34 78 81 78s82 -36 82 -78c0 -43 -35 -80 -82 -80zM73 0v487h134v-487h-134z" />
    <glyph glyph-name="afii10104" unicode="&#x457;" horiz-adv-x="280" 
d="M36 542c-43 0 -74 32 -74 72c0 38 31 71 74 71s74 -33 74 -71c0 -40 -31 -72 -74 -72zM246 542c-43 0 -74 32 -74 72c0 38 31 71 74 71s74 -33 74 -71c0 -40 -31 -72 -74 -72zM73 0v487h134v-487h-134z" />
    <glyph glyph-name="afii10105" unicode="&#x458;" horiz-adv-x="275" 
d="M37 -233c-49 0 -75 7 -87 12l23 103c6 -2 18 -6 38 -6c46 0 60 29 60 104v507h134v-521c0 -121 -47 -199 -168 -199zM137 550c-47 0 -81 37 -81 80c0 42 34 78 81 78c48 0 82 -36 82 -78c0 -43 -34 -80 -82 -80z" />
    <glyph glyph-name="afii10106" unicode="&#x459;" horiz-adv-x="805" 
d="M36 -7l-18 97c48 6 73 51 83 155l24 242h380v-158h76c116 0 202 -51 202 -163s-84 -166 -217 -166h-194v383h-138l-13 -164c-13 -162 -77 -226 -185 -226zM505 95h61c57 0 86 23 86 70s-27 67 -82 67h-65v-137z" />
    <glyph glyph-name="afii10107" unicode="&#x45a;" horiz-adv-x="835" 
d="M71 0v487h133v-167h197v167h133v-167h77c117 0 203 -47 203 -158c0 -113 -84 -162 -217 -162h-196v216h-197v-216h-133zM534 95h63c57 0 86 20 86 66c0 45 -28 62 -82 62h-67v-128z" />
    <glyph glyph-name="afii10108" unicode="&#x45b;" horiz-adv-x="562" 
d="M69 0v563h-43v99h43v58h133v-58h153v-99h-153v-144c24 27 72 71 152 71c107 0 146 -68 146 -158v-332h-133v305c0 49 -17 74 -65 74c-51 0 -90 -48 -100 -61v-318h-133z" />
    <glyph glyph-name="afii10109" unicode="&#x45c;" horiz-adv-x="535" 
d="M196 541l83 135h172l-140 -135h-115zM71 0v487h133v-197h31l142 197h143l-166 -219c19 -16 38 -41 61 -79c42 -72 59 -92 83 -92h8l-1 -97h-56c-63 0 -87 26 -135 105c-42 71 -60 95 -90 96h-19l-1 -201h-133z" />
    <glyph glyph-name="afii10110" unicode="&#x45e;" horiz-adv-x="512" 
d="M73 -234c-41 0 -65 6 -75 9l19 105c7 -2 18 -5 47 -5c68 0 92 33 111 85l18 50l-183 477h142l110 -321h3l99 321h137l-201 -539c-43 -115 -94 -182 -227 -182zM263 530c-82 0 -159 46 -169 151h109c3 -40 23 -65 60 -65c36 0 56 25 60 65h108c-9 -105 -86 -151 -168 -151
z" />
    <glyph glyph-name="afii10193" unicode="&#x45f;" horiz-adv-x="587" 
d="M251 -146l-8 146h-172v487h133v-381h179v381h133v-487h-173l-7 -146h-85z" />
    <glyph glyph-name="afii10050" unicode="&#x490;" horiz-adv-x="491" 
d="M83 0v666h281l11 148h89l19 -262h-259v-552h-141z" />
    <glyph glyph-name="afii10098" unicode="&#x491;" horiz-adv-x="406" 
d="M71 0v487h216l10 146h85l23 -250h-201v-383h-133z" />
    <glyph glyph-name="Wgrave" unicode="&#x1e80;" horiz-adv-x="914" 
d="M196 0l-179 666h150l84 -348c13 -53 24 -120 24 -122h2c1 2 15 73 28 126l91 344h139l89 -342c14 -55 26 -125 27 -127h2c1 2 10 69 24 123l86 346h135l-182 -666h-130l-96 369c-14 54 -27 122 -27 124h-2c-1 -2 -15 -69 -30 -124l-105 -369h-130zM410 717l-140 135h171
l83 -135h-114z" />
    <glyph glyph-name="wgrave" unicode="&#x1e81;" horiz-adv-x="743" 
d="M149 0l-138 487h143l74 -310h2l83 310h123l83 -312h2l76 312h133l-139 -487h-120l-100 326h-2l-100 -326h-120zM323 541l-140 135h171l83 -135h-114z" />
    <glyph glyph-name="Wacute" unicode="&#x1e82;" horiz-adv-x="914" 
d="M391 717l83 135h172l-140 -135h-115zM196 0l-179 666h150l84 -348c13 -53 24 -120 24 -122h2c1 2 15 73 28 126l91 344h139l89 -342c14 -55 26 -125 27 -127h2c1 2 10 69 24 123l86 346h135l-182 -666h-130l-96 369c-14 54 -27 122 -27 124h-2c-1 -2 -15 -69 -30 -124
l-105 -369h-130z" />
    <glyph glyph-name="wacute" unicode="&#x1e83;" horiz-adv-x="743" 
d="M303 541l83 135h172l-140 -135h-115zM149 0l-138 487h143l74 -310h2l83 310h123l83 -312h2l76 312h133l-139 -487h-120l-100 326h-2l-100 -326h-120z" />
    <glyph glyph-name="Wdieresis" unicode="&#x1e84;" horiz-adv-x="914" 
d="M352 718c-43 0 -74 32 -74 72c0 38 31 71 74 71s74 -33 74 -71c0 -40 -31 -72 -74 -72zM562 718c-43 0 -74 32 -74 72c0 38 31 71 74 71s74 -33 74 -71c0 -40 -31 -72 -74 -72zM196 0l-179 666h150l84 -348c13 -53 24 -120 24 -122h2c1 2 15 73 28 126l91 344h139
l89 -342c14 -55 26 -125 27 -127h2c1 2 10 69 24 123l86 346h135l-182 -666h-130l-96 369c-14 54 -27 122 -27 124h-2c-1 -2 -15 -69 -30 -124l-105 -369h-130z" />
    <glyph glyph-name="wdieresis" unicode="&#x1e85;" horiz-adv-x="743" 
d="M264 542c-43 0 -74 32 -74 72c0 38 31 71 74 71s74 -33 74 -71c0 -40 -31 -72 -74 -72zM474 542c-43 0 -74 32 -74 72c0 38 31 71 74 71s74 -33 74 -71c0 -40 -31 -72 -74 -72zM149 0l-138 487h143l74 -310h2l83 310h123l83 -312h2l76 312h133l-139 -487h-120l-100 326
h-2l-100 -326h-120z" />
    <glyph glyph-name="Ygrave" unicode="&#x1ef2;" horiz-adv-x="598" 
d="M232 0v251l-221 415h157l141 -283h1l140 283h137l-214 -415v-251h-141zM256 717l-140 135h171l83 -135h-114z" />
    <glyph glyph-name="ygrave" unicode="&#x1ef3;" horiz-adv-x="517" 
d="M78 -234c-41 0 -65 6 -75 9l19 105c7 -2 18 -5 47 -5c68 0 92 33 111 85l18 50l-183 477h142l110 -321h3l99 321h137l-201 -539c-43 -115 -94 -182 -227 -182zM218 541l-140 135h171l83 -135h-114z" />
    <glyph glyph-name="endash" unicode="&#x2013;" horiz-adv-x="550" 
d="M48 217v103h454v-103h-454z" />
    <glyph glyph-name="emdash" unicode="&#x2014;" horiz-adv-x="870" 
d="M48 217v103h774v-103h-774z" />
    <glyph glyph-name="afii00208" unicode="&#x2015;" horiz-adv-x="870" 
d="M48 217v103h774v-103h-774z" />
    <glyph glyph-name="quoteleft" unicode="&#x2018;" horiz-adv-x="225" 
d="M121 389c-49 0 -91 37 -91 98c0 68 41 141 71 179h83c-17 -23 -37 -61 -37 -94c0 -50 51 -53 51 -111c0 -42 -34 -72 -77 -72z" />
    <glyph glyph-name="quoteright" unicode="&#x2019;" horiz-adv-x="225" 
d="M42 401c16 23 37 61 37 95c0 50 -52 52 -52 111c0 42 34 71 78 71c48 0 91 -37 91 -98c0 -68 -42 -141 -72 -179h-82z" />
    <glyph glyph-name="quotesinglbase" unicode="&#x201a;" horiz-adv-x="253" 
d="M56 -125c16 23 37 61 37 94c0 50 -52 53 -52 111c0 42 34 71 78 71c48 0 91 -36 91 -97c0 -68 -42 -142 -72 -179h-82z" />
    <glyph glyph-name="quotedblleft" unicode="&#x201c;" horiz-adv-x="435" 
d="M116 389c-48 0 -91 37 -91 98c0 68 42 141 72 179h82c-16 -23 -37 -61 -37 -94c0 -50 52 -53 52 -111c0 -42 -34 -72 -78 -72zM331 389c-49 0 -92 37 -92 98c0 68 42 141 72 179h82c-16 -23 -37 -61 -37 -94c0 -50 52 -53 52 -111c0 -42 -34 -72 -77 -72z" />
    <glyph glyph-name="quotedblright" unicode="&#x201d;" horiz-adv-x="435" 
d="M42 401c16 23 37 61 37 95c0 50 -52 52 -52 111c0 42 34 71 78 71c48 0 91 -37 91 -98c0 -68 -42 -141 -72 -179h-82zM256 401c16 23 37 61 37 95c0 50 -52 52 -52 111c0 42 34 71 78 71c48 0 91 -37 91 -98c0 -68 -42 -141 -71 -179h-83z" />
    <glyph glyph-name="quotedblbase" unicode="&#x201e;" horiz-adv-x="440" 
d="M42 -125c16 23 37 61 37 94c0 50 -52 53 -52 111c0 42 34 71 78 71c48 0 91 -36 91 -97c0 -68 -42 -142 -72 -179h-82zM256 -125c16 23 37 61 37 94c0 50 -52 53 -52 111c0 42 34 71 78 71c48 0 91 -36 91 -97c0 -68 -42 -142 -71 -179h-83z" />
    <glyph glyph-name="dagger" unicode="&#x2020;" horiz-adv-x="558" 
d="M236 -170l-34 424l20 126l-72 -9h-110v116h110l72 -9l-15 105v137h144v-137l-14 -105l71 9h110v-116h-110l-71 9l18 -126l-33 -424h-86z" />
    <glyph glyph-name="daggerdbl" unicode="&#x2021;" horiz-adv-x="569" 
d="M207 -169v118l15 105l-72 -9h-110v117h110l72 -10l-19 114l19 114l-72 -9h-110v116h110l72 -9l-15 105v137h144v-137l-14 -105l71 9h110v-116h-110l-71 9l17 -114l-17 -114l71 10h110v-117h-110l-71 9l14 -105v-118h-144z" />
    <glyph glyph-name="bullet" unicode="&#x2022;" horiz-adv-x="438" 
d="M219 111c-97 0 -177 79 -177 176c0 98 80 177 177 177c98 0 177 -79 177 -177c0 -97 -79 -176 -177 -176z" />
    <glyph glyph-name="ellipsis" unicode="&#x2026;" horiz-adv-x="759" 
d="M142 -10c-49 0 -88 38 -88 86c0 47 39 84 88 84s88 -37 88 -84c0 -48 -39 -86 -88 -86zM379 -10c-48 0 -87 38 -87 86c0 47 39 84 87 84c50 0 88 -37 88 -84c0 -48 -38 -86 -88 -86zM617 -10c-48 0 -88 38 -88 86c0 47 40 84 88 84c49 0 88 -37 88 -84
c0 -48 -39 -86 -88 -86z" />
    <glyph glyph-name="perthousand" unicode="&#x2030;" horiz-adv-x="1245" 
d="M194 187c-114 0 -170 74 -170 155c0 80 58 157 172 157s170 -71 170 -153c0 -81 -58 -159 -172 -159zM196 268c44 0 57 34 57 74s-16 76 -58 76c-43 0 -58 -31 -58 -72c0 -40 16 -78 59 -78zM674 -12c-114 0 -170 73 -170 155c0 80 58 157 172 157
c113 0 169 -71 169 -154c0 -80 -58 -158 -171 -158zM676 69c44 0 56 34 56 74s-16 76 -58 76c-43 0 -58 -32 -58 -73c0 -39 17 -77 60 -77zM1049 -12c-114 0 -170 73 -170 155c0 80 58 157 172 157c113 0 170 -71 170 -154c0 -80 -59 -158 -172 -158zM1051 69
c44 0 57 34 57 74s-16 76 -58 76c-43 0 -59 -32 -59 -73c0 -39 17 -77 60 -77zM234 0l293 488h110l-292 -488h-111z" />
    <glyph glyph-name="guilsinglleft" unicode="&#x2039;" horiz-adv-x="320" 
d="M152 53l-120 192l120 193h140l-119 -193l119 -192h-140z" />
    <glyph glyph-name="guilsinglright" unicode="&#x203a;" horiz-adv-x="320" 
d="M28 53l120 193l-120 192h140l120 -192l-120 -193h-140z" />
    <glyph glyph-name="fraction" unicode="&#x2044;" horiz-adv-x="137" 
d="M-190 0l409 666h105l-408 -666h-106z" />
    <glyph glyph-name="uni2070" unicode="&#x2070;" horiz-adv-x="394" 
d="M196 325c-114 0 -165 81 -165 174c0 92 49 174 165 174c115 0 167 -82 167 -174c0 -93 -52 -174 -167 -174zM196 405c34 0 56 29 56 94s-22 94 -56 94c-31 0 -55 -29 -55 -94s24 -94 55 -94z" />
    <glyph glyph-name="uni2074" unicode="&#x2074;" horiz-adv-x="362" 
d="M187 331v62h-170v62l176 212h97v-199h53v-75h-53v-62h-103zM114 465c9 2 26 3 43 3h34v90h-1z" />
    <glyph glyph-name="uni2075" unicode="&#x2075;" horiz-adv-x="314" 
d="M104 325c-35 0 -61 5 -77 10l15 78c14 -5 38 -10 60 -10c34 0 69 10 69 39c0 30 -35 39 -78 39c-20 0 -39 -2 -48 -3l11 189h212v-78h-121l-3 -42c71 -3 135 -31 135 -100c0 -80 -72 -122 -175 -122z" />
    <glyph glyph-name="uni2076" unicode="&#x2076;" horiz-adv-x="352" 
d="M180 325c-100 0 -146 66 -146 154c0 114 90 194 237 194l23 -71c-72 -2 -140 -25 -160 -80c18 11 47 19 74 19c61 0 113 -33 113 -101c0 -74 -64 -115 -141 -115zM180 397c25 0 42 16 42 37c0 27 -20 40 -45 40c-18 0 -36 -4 -46 -12v-7c0 -40 23 -58 49 -58z" />
    <glyph glyph-name="uni2077" unicode="&#x2077;" horiz-adv-x="321" 
d="M150 317l-93 32l109 234h-146v84h267v-49z" />
    <glyph glyph-name="uni2078" unicode="&#x2078;" horiz-adv-x="344" 
d="M172 325c-81 0 -142 33 -142 91c0 38 27 61 69 83c-34 20 -59 45 -59 80c0 59 64 94 133 94c73 0 133 -33 133 -90c0 -31 -27 -54 -63 -74c39 -20 72 -47 72 -87c0 -64 -68 -97 -143 -97zM171 390c27 0 46 13 46 30s-23 29 -52 43c-18 -10 -42 -25 -42 -43s20 -30 48 -30
zM176 542c15 9 36 23 36 39c0 15 -16 27 -37 27c-22 0 -39 -12 -39 -27c0 -18 20 -28 40 -39z" />
    <glyph glyph-name="uni2079" unicode="&#x2079;" horiz-adv-x="353" 
d="M79 324l-23 70c71 2 139 29 158 82c-19 -11 -47 -19 -75 -19c-60 0 -113 33 -113 101c0 74 65 115 141 115c101 0 148 -66 148 -155c0 -114 -87 -194 -236 -194zM171 524c19 0 36 4 46 11v8c0 38 -23 58 -49 58s-42 -17 -42 -37c0 -27 20 -40 45 -40z" />
    <glyph glyph-name="uni207A" unicode="&#x207a;" horiz-adv-x="332" 
d="M124 384v76h-87v76h87v76h84v-76h87v-76h-87v-76h-84z" />
    <glyph glyph-name="uni207B" unicode="&#x207b;" horiz-adv-x="307" 
d="M50 460v74h207v-74h-207z" />
    <glyph glyph-name="uni207D" unicode="&#x207d;" horiz-adv-x="239" 
d="M140 276c-47 40 -101 113 -101 222c0 104 52 179 101 217h99c-46 -36 -94 -117 -94 -217c0 -101 45 -179 94 -222h-99z" />
    <glyph glyph-name="uni207E" unicode="&#x207e;" horiz-adv-x="239" 
d="M0 276c46 39 94 116 94 220c0 99 -47 180 -94 219h99c50 -39 100 -112 100 -218c0 -111 -53 -182 -100 -221h-99z" />
    <glyph glyph-name="uni2080" unicode="&#x2080;" horiz-adv-x="394" 
d="M196 -206c-114 0 -165 81 -165 174c0 92 49 173 165 173c115 0 167 -81 167 -173c0 -93 -52 -174 -167 -174zM196 -127c34 0 56 29 56 95c0 65 -22 93 -56 93c-31 0 -55 -28 -55 -93c0 -66 24 -95 55 -95z" />
    <glyph glyph-name="uni2081" unicode="&#x2081;" horiz-adv-x="286" 
d="M107 -200v248l-73 -19l-22 79l121 27h77v-335h-103z" />
    <glyph glyph-name="uni2082" unicode="&#x2082;" horiz-adv-x="343" 
d="M25 -200v54c77 60 155 116 155 171c0 25 -18 36 -40 36c-28 0 -55 -13 -75 -31l-49 64c31 26 74 47 138 47c91 0 136 -44 136 -105c0 -62 -59 -113 -118 -159c6 1 30 2 48 2h85v-79h-280z" />
    <glyph glyph-name="uni2083" unicode="&#x2083;" horiz-adv-x="322" 
d="M106 -206c-38 0 -71 5 -86 11l20 76c13 -5 40 -11 62 -11c39 0 69 10 69 33c0 25 -34 36 -92 37v60c53 2 83 18 83 39c0 16 -14 25 -38 25s-52 -12 -65 -20l-37 64c24 16 72 33 126 33c75 0 120 -29 120 -78c0 -45 -38 -68 -72 -77v-1c37 -5 85 -27 85 -82
c0 -68 -65 -109 -175 -109z" />
    <glyph glyph-name="uni2084" unicode="&#x2084;" horiz-adv-x="362" 
d="M187 -200v62h-170v62l176 211h97v-199h53v-74h-53v-62h-103zM114 -66c9 1 26 2 43 2h34v91h-1z" />
    <glyph glyph-name="uni2085" unicode="&#x2085;" horiz-adv-x="314" 
d="M104 -206c-35 0 -61 5 -77 10l15 77c14 -4 38 -9 60 -9c34 0 69 10 69 39c0 30 -35 39 -78 39c-20 0 -39 -2 -48 -4l11 189h212v-77h-121l-3 -43c71 -3 135 -30 135 -100c0 -79 -72 -121 -175 -121z" />
    <glyph glyph-name="uni2086" unicode="&#x2086;" horiz-adv-x="352" 
d="M180 -206c-100 0 -146 66 -146 154c0 114 90 193 237 193l23 -70c-72 -2 -140 -25 -160 -80c18 11 47 19 74 19c61 0 113 -33 113 -102c0 -74 -64 -114 -141 -114zM180 -134c25 0 42 15 42 37c0 26 -20 40 -45 40c-18 0 -36 -5 -46 -12v-7c0 -41 23 -58 49 -58z" />
    <glyph glyph-name="uni2087" unicode="&#x2087;" horiz-adv-x="321" 
d="M150 -215l-93 32l109 234h-146v84h267v-48z" />
    <glyph glyph-name="uni2088" unicode="&#x2088;" horiz-adv-x="344" 
d="M172 -206c-81 0 -142 33 -142 91c0 37 27 61 69 82c-34 21 -59 46 -59 81c0 59 64 93 133 93c73 0 133 -32 133 -89c0 -32 -27 -55 -63 -74c39 -20 72 -48 72 -88c0 -64 -68 -96 -143 -96zM171 -141c27 0 46 12 46 30c0 17 -23 28 -52 43c-18 -11 -42 -25 -42 -43
c0 -19 20 -30 48 -30zM176 10c15 10 36 24 36 39c0 16 -16 27 -37 27c-22 0 -39 -11 -39 -27c0 -17 20 -27 40 -39z" />
    <glyph glyph-name="uni2089" unicode="&#x2089;" horiz-adv-x="353" 
d="M79 -207l-23 70c71 1 139 28 158 81c-19 -10 -47 -18 -75 -18c-60 0 -113 33 -113 101c0 74 65 114 141 114c101 0 148 -65 148 -154c0 -114 -87 -194 -236 -194zM171 -8c19 0 36 5 46 12v7c0 39 -23 59 -49 59s-42 -17 -42 -38c0 -26 20 -40 45 -40z" />
    <glyph glyph-name="Euro" unicode="&#x20ac;" horiz-adv-x="587" 
d="M34 358v92h71c33 138 131 228 286 228c91 0 138 -18 176 -43l-56 -104c-23 13 -55 32 -117 32c-73 0 -120 -43 -143 -113h159v-92h-174v-20c0 -13 0 -25 1 -37h173v-92h-156c24 -68 72 -105 140 -105c62 0 99 22 125 41l55 -100c-32 -23 -85 -57 -185 -57
c-132 0 -245 67 -283 221h-72v92h59c-1 10 -1 21 -1 33v24h-58z" />
    <glyph glyph-name="afii61352" unicode="&#x2116;" horiz-adv-x="1155" 
d="M83 0v666h142l240 -345c40 -57 64 -101 70 -112h2c-1 9 -4 54 -4 105v352h128v-666h-129l-259 370c-36 50 -56 87 -64 100h-2c1 -9 4 -47 4 -89v-381h-128zM930 326c-126 0 -188 81 -188 172c0 88 65 174 190 174c124 0 188 -80 188 -171c0 -88 -66 -175 -190 -175z
M932 416c49 0 64 38 64 82s-20 84 -66 84c-47 0 -65 -35 -65 -81c0 -43 20 -85 67 -85z" />
    <glyph glyph-name="uni2117" unicode="&#x2117;" horiz-adv-x="836" 
d="M417 -14c-205 0 -372 167 -372 373s167 373 372 373c206 0 373 -167 373 -373s-167 -373 -373 -373zM417 63c168 0 291 118 291 296c0 177 -123 296 -291 296c-167 0 -290 -119 -290 -296c0 -178 123 -296 290 -296zM285 152v417h151c105 0 155 -63 155 -135
c0 -74 -48 -136 -170 -136h-43v-146h-93zM378 367h43c50 0 76 22 76 64c0 43 -21 66 -71 66h-48v-130z" />
    <glyph glyph-name="trademark" unicode="&#x2122;" horiz-adv-x="739" 
d="M311 370l40 296h83l53 -145c10 -28 17 -57 17 -60h2c1 3 8 31 19 60l52 145h85l39 -296h-85l-13 129c-2 24 -3 50 -3 52h-2c0 -2 -5 -29 -16 -61l-44 -120h-73l-40 119c-10 28 -17 60 -18 62h-2c0 -2 -1 -24 -4 -53l-14 -128h-76zM120 370v228h-87v68h256v-68h-86v-228
h-83z" />
    <glyph glyph-name="uni2126" unicode="&#x2126;" horiz-adv-x="733" 
d="M42 0v107h117c-60 43 -118 138 -118 255c0 193 154 316 325 316s325 -123 325 -316c0 -117 -58 -212 -118 -255h117v-107h-267v103c91 60 131 137 131 254c0 110 -78 207 -188 207s-188 -97 -188 -207c0 -117 41 -194 132 -254v-103h-268z" />
    <glyph glyph-name="partialdiff" unicode="&#x2202;" horiz-adv-x="630" 
d="M268 -11c-129 0 -228 99 -228 213c0 143 106 233 236 233c63 0 127 -16 163 -34c-24 159 -149 193 -288 193l33 122c10 1 22 1 32 1c235 0 374 -130 374 -358c0 -211 -125 -370 -322 -370zM282 105c77 0 139 70 156 177c-27 21 -90 43 -144 43c-68 0 -107 -54 -107 -122
c0 -56 43 -98 95 -98z" />
    <glyph glyph-name="uni2206" unicode="&#x2206;" horiz-adv-x="833" 
d="M50 0l297 701h128l297 -701h-722zM238 125h346l-173 405z" />
    <glyph glyph-name="product" unicode="&#x220f;" horiz-adv-x="899" 
d="M170 -224v805h-109v119h756v-119h-109v-805h-133v805h-272v-805h-133z" />
    <glyph glyph-name="summation" unicode="&#x2211;" horiz-adv-x="658" 
d="M53 -146v87l273 400l-257 350v88h531v-116h-376l238 -318l-256 -376h409v-115h-562z" />
    <glyph glyph-name="minus" unicode="&#x2212;" horiz-adv-x="550" 
d="M86 227v101h369v-101h-369z" />
    <glyph glyph-name="uni2219" unicode="&#x2219;" horiz-adv-x="258" 
d="M129 204c-49 0 -88 38 -88 86s39 86 88 86s88 -38 88 -86s-39 -86 -88 -86z" />
    <glyph glyph-name="radical" unicode="&#x221a;" horiz-adv-x="582" 
d="M210 0l-187 487h141l108 -310h2l168 543h135l-243 -720h-124z" />
    <glyph glyph-name="infinity" unicode="&#x221e;" horiz-adv-x="947" 
d="M243 79c-111 0 -200 71 -200 175c0 105 95 182 203 182c76 0 148 -43 228 -105c80 62 154 105 227 105c110 0 197 -71 197 -175c0 -106 -94 -182 -204 -182c-71 0 -144 41 -225 105c-84 -65 -154 -105 -226 -105zM247 191c33 0 78 26 130 65c-54 41 -95 67 -133 67
c-39 0 -81 -25 -81 -64c0 -42 41 -68 84 -68zM700 191c39 0 79 28 79 66c0 42 -42 66 -84 66c-35 0 -79 -27 -129 -64c56 -43 98 -68 134 -68z" />
    <glyph glyph-name="uni2224" unicode="&#x2224;" horiz-adv-x="258" 
d="M129 204c-49 0 -88 38 -88 86s39 86 88 86s88 -38 88 -86s-39 -86 -88 -86z" />
    <glyph glyph-name="logicaland" unicode="&#x2227;" horiz-adv-x="258" 
d="M129 204c-49 0 -88 38 -88 86s39 86 88 86s88 -38 88 -86s-39 -86 -88 -86z" />
    <glyph glyph-name="integral" unicode="&#x222b;" horiz-adv-x="359" 
d="M34 -234c-43 0 -84 17 -115 38l46 109c28 -13 57 -21 80 -21c51 0 71 47 71 116v575c0 118 75 217 214 217c46 0 83 -16 115 -39l-48 -108c-28 13 -54 21 -78 21c-49 0 -72 -48 -72 -116v-575c0 -118 -73 -217 -213 -217z" />
    <glyph glyph-name="approxequal" unicode="&#x2248;" horiz-adv-x="635" 
d="M117 93l-54 93c37 45 95 78 160 78c93 0 130 -58 197 -58c36 0 78 22 109 58l50 -96c-37 -47 -101 -75 -166 -75c-92 0 -132 58 -196 58c-37 0 -66 -16 -100 -58zM107 301l-54 93c35 44 93 78 160 78c93 0 130 -58 197 -58c35 0 78 22 109 57l50 -95
c-37 -47 -101 -76 -166 -76c-92 0 -132 58 -196 58c-36 0 -65 -15 -100 -57z" />
    <glyph glyph-name="notequal" unicode="&#x2260;" horiz-adv-x="665" 
d="M220 -36l-87 48l68 113h-140v98h200l40 66h-240v98h300l84 138l88 -49l-57 -89h128v-98h-188l-40 -66h228v-98h-288z" />
    <glyph glyph-name="lessequal" unicode="&#x2264;" horiz-adv-x="549" 
d="M516 4l-452 202v92l452 201v-122l-315 -125l315 -125v-123zM64 -153v103h452v-103h-452z" />
    <glyph glyph-name="greaterequal" unicode="&#x2265;" horiz-adv-x="580" 
d="M64 4v123l315 125l-315 125v122l452 -201v-92zM64 -153v103h452v-103h-452z" />
    <glyph glyph-name="dotmath" unicode="&#x22c5;" horiz-adv-x="258" 
d="M129 204c-49 0 -88 38 -88 86s39 86 88 86s88 -38 88 -86s-39 -86 -88 -86z" />
    <glyph glyph-name="lozenge" unicode="&#x25ca;" horiz-adv-x="706" 
d="M303 -2l-254 327l252 350h113l256 -330l-251 -347h-116zM363 126l150 214l-156 202l-151 -214z" />
    <glyph glyph-name="numbersign.case" horiz-adv-x="567" 
d="M96 0l28 186h-109l17 99h106l16 103h-107l16 98h106l28 180h90l-27 -180h98l28 180h91l-27 -180h101l-17 -98h-99l-16 -103h101l-16 -99h-100l-28 -186h-90l28 186h-100l-28 -186h-90zM227 282h103l16 109h-103z" />
    <glyph glyph-name="dollar.case" horiz-adv-x="516" 
d="M313 -118h-106v107c-91 7 -150 43 -176 65l59 97c14 -11 61 -46 132 -50v179c-10 4 -21 9 -31 15c-82 40 -143 90 -143 198c0 95 67 161 159 179v112h106v-109c77 -8 121 -36 145 -53l-56 -98c-20 12 -59 33 -105 39v-167c2 -1 5 -3 8 -4c88 -40 171 -83 171 -206
c0 -99 -61 -168 -163 -190v-114zM342 179c0 29 -18 49 -45 65v-131c28 14 45 37 45 66zM180 495c0 -29 16 -48 42 -63v124c-26 -11 -42 -32 -42 -61z" />
    <glyph glyph-name="percent.case" horiz-adv-x="868" 
d="M207 331c-123 0 -184 82 -184 172c0 88 62 174 184 174c124 0 185 -81 185 -170c0 -90 -62 -176 -185 -176zM208 414c51 0 71 42 71 89c0 48 -23 91 -72 91s-71 -38 -71 -87s23 -93 72 -93zM661 -10c-124 0 -185 83 -185 173c0 87 62 174 185 174s184 -82 184 -171
c0 -90 -62 -176 -184 -176zM662 73c50 0 70 42 70 90c0 47 -23 90 -71 90c-50 0 -72 -38 -72 -87c0 -48 23 -93 73 -93zM176 0l405 666h110l-405 -666h-110z" />
    <glyph glyph-name="parenleft.case" horiz-adv-x="347" 
d="M220 -114c-82 88 -179 239 -179 450c0 203 97 357 179 438h126c-66 -73 -162 -222 -162 -435c0 -207 74 -349 162 -453h-126z" />
    <glyph glyph-name="parenright.case" horiz-adv-x="348" 
d="M1 -114c76 87 163 229 163 442c0 207 -85 356 -163 446h127c85 -87 179 -239 179 -443c0 -210 -99 -363 -179 -445h-127z" />
    <glyph glyph-name="hyphen.case" horiz-adv-x="330" 
d="M51 293v107h228v-107h-228z" />
    <glyph glyph-name="slash.case" horiz-adv-x="450" 
d="M1 -161l318 881h129l-318 -881h-129z" />
    <glyph glyph-name="less.case" horiz-adv-x="425" 
d="M300 -3l-259 247l258 251l73 -75l-179 -174l181 -171z" />
    <glyph glyph-name="equal.case" horiz-adv-x="526" 
d="M54 113v101h418v-101h-418zM54 300v102h418v-102h-418z" />
    <glyph glyph-name="greater.case" horiz-adv-x="425" 
d="M126 -3l-73 75l178 173l-181 172l74 78l260 -247z" />
    <glyph glyph-name="bracketleft.case" horiz-adv-x="341" 
d="M65 -110v881h250v-99h-123v-683h123v-99h-250z" />
    <glyph glyph-name="bracketright.case" horiz-adv-x="341" 
d="M26 -110v99h123v683h-123v99h250v-881h-250z" />
    <glyph glyph-name="braceleft.case" horiz-adv-x="406" 
d="M259 -110c-58 0 -119 41 -119 125v170c0 63 -36 99 -114 101v101c77 1 114 35 114 100v161c0 86 59 123 120 123h119v-99h-62c-41 0 -50 -26 -50 -68v-145c0 -73 -39 -105 -91 -120v-2c53 -17 91 -51 91 -126v-155c0 -46 7 -67 50 -67h62v-99h-120z" />
    <glyph glyph-name="braceright.case" horiz-adv-x="406" 
d="M26 -110v99h62c42 0 51 26 51 69v156c0 73 38 104 91 119v2c-54 17 -91 52 -91 127v144c0 46 -7 66 -50 66h-63v99h121c58 0 119 -40 119 -124v-160c0 -62 35 -99 114 -100v-101c-78 -2 -114 -35 -114 -101v-171c0 -86 -60 -124 -120 -124h-120z" />
    <glyph glyph-name="exclamdown.case" horiz-adv-x="298" 
d="M152 512c-49 0 -84 37 -84 81c0 45 35 83 84 83s84 -38 84 -83c0 -44 -35 -81 -84 -81zM74 0l25 441h106l25 -441h-156z" />
    <glyph glyph-name="guillemotleft.case" horiz-adv-x="539" 
d="M152 152l-120 192l120 193h136l-119 -193l119 -192h-136zM374 152l-120 192l120 193h136l-119 -193l119 -192h-136z" />
    <glyph glyph-name="uni00AD.case" horiz-adv-x="330" 
d="M51 293v107h228v-107h-228z" />
    <glyph glyph-name="guillemotright.case" horiz-adv-x="539" 
d="M28 152l120 192l-120 193h136l120 -193l-120 -192h-136zM251 152l119 192l-119 193h135l121 -193l-121 -192h-135z" />
    <glyph glyph-name="questiondown.case" horiz-adv-x="411" 
d="M240 -12c-141 0 -208 75 -208 172c0 83 50 127 94 157c42 29 72 44 72 86v40h116v-53c0 -61 -23 -90 -69 -120c-44 -28 -69 -51 -69 -98c0 -51 31 -75 88 -75c40 0 68 15 86 24l46 -98c-29 -16 -77 -35 -156 -35zM255 512c-49 0 -84 37 -84 81c0 45 35 83 84 83
s84 -38 84 -83c0 -44 -35 -81 -84 -81z" />
    <glyph glyph-name="endash.case" horiz-adv-x="550" 
d="M48 294v102h454v-102h-454z" />
    <glyph glyph-name="emdash.case" horiz-adv-x="870" 
d="M48 294v102h774v-102h-774z" />
    <glyph glyph-name="perthousand.case" horiz-adv-x="1280" 
d="M207 331c-123 0 -184 82 -184 172c0 88 62 174 184 174c124 0 185 -81 185 -170c0 -90 -62 -176 -185 -176zM208 414c51 0 71 42 71 89c0 48 -23 91 -72 91s-71 -38 -71 -87s23 -93 72 -93zM661 -10c-124 0 -185 83 -185 173c0 87 62 174 185 174s184 -82 184 -171
c0 -90 -62 -176 -184 -176zM662 73c50 0 70 42 70 90c0 47 -23 90 -71 90c-50 0 -72 -38 -72 -87c0 -48 23 -93 73 -93zM1072 -10c-123 0 -184 83 -184 173c0 87 62 174 184 174c124 0 185 -82 185 -171c0 -90 -62 -176 -185 -176zM1073 73c51 0 71 42 71 90
c0 47 -23 90 -72 90s-71 -38 -71 -87c0 -48 23 -93 72 -93zM176 0l405 666h110l-405 -666h-110z" />
    <glyph glyph-name="guilsinglleft.case" horiz-adv-x="320" 
d="M152 152l-120 192l120 193h140l-119 -193l119 -192h-140z" />
    <glyph glyph-name="guilsinglright.case" horiz-adv-x="320" 
d="M28 152l120 192l-120 193h140l120 -193l-120 -192h-140z" />
    <glyph glyph-name="zero.dnom" horiz-adv-x="394" 
d="M196 -6c-114 0 -165 81 -165 174c0 92 49 173 165 173c115 0 167 -81 167 -173c0 -93 -52 -174 -167 -174zM196 73c34 0 56 29 56 95c0 65 -22 93 -56 93c-31 0 -55 -28 -55 -93c0 -66 24 -95 55 -95z" />
    <glyph glyph-name="one.dnom" horiz-adv-x="286" 
d="M107 0v248l-73 -19l-22 79l121 27h77v-335h-103z" />
    <glyph glyph-name="two.dnom" horiz-adv-x="343" 
d="M25 0v54c77 60 155 116 155 171c0 25 -18 36 -40 36c-28 0 -55 -13 -75 -31l-49 64c31 26 74 47 138 47c91 0 136 -44 136 -105c0 -62 -59 -113 -118 -159c6 1 30 2 48 2h85v-79h-280z" />
    <glyph glyph-name="three.dnom" horiz-adv-x="322" 
d="M106 -6c-38 0 -71 5 -86 11l20 76c13 -5 40 -11 62 -11c39 0 69 10 69 33c0 25 -34 36 -92 37v60c53 2 83 18 83 39c0 16 -14 25 -38 25s-52 -12 -65 -20l-37 64c24 16 72 33 126 33c75 0 120 -29 120 -78c0 -45 -38 -68 -72 -77v-1c37 -5 85 -27 85 -82
c0 -68 -65 -109 -175 -109z" />
    <glyph glyph-name="four.dnom" horiz-adv-x="362" 
d="M187 0v62h-170v62l176 211h97v-199h53v-74h-53v-62h-103zM114 134c9 1 26 2 43 2h34v91h-1z" />
    <glyph glyph-name="five.dnom" horiz-adv-x="314" 
d="M104 -6c-35 0 -61 5 -77 10l15 77c14 -4 38 -9 60 -9c34 0 69 10 69 39c0 30 -35 39 -78 39c-20 0 -39 -2 -48 -4l11 189h212v-77h-121l-3 -43c71 -3 135 -30 135 -100c0 -79 -72 -121 -175 -121z" />
    <glyph glyph-name="six.dnom" horiz-adv-x="352" 
d="M180 -6c-100 0 -146 66 -146 154c0 114 90 193 237 193l23 -70c-72 -2 -140 -25 -160 -80c18 11 47 19 74 19c61 0 113 -33 113 -102c0 -74 -64 -114 -141 -114zM180 66c25 0 42 15 42 37c0 26 -20 40 -45 40c-18 0 -36 -5 -46 -12v-7c0 -41 23 -58 49 -58z" />
    <glyph glyph-name="seven.dnom" horiz-adv-x="321" 
d="M150 -15l-93 32l109 234h-146v84h267v-48z" />
    <glyph glyph-name="eight.dnom" horiz-adv-x="344" 
d="M172 -6c-81 0 -142 33 -142 91c0 37 27 61 69 82c-34 21 -59 46 -59 81c0 59 64 93 133 93c73 0 133 -32 133 -89c0 -32 -27 -55 -63 -74c39 -20 72 -48 72 -88c0 -64 -68 -96 -143 -96zM171 59c27 0 46 12 46 30c0 17 -23 28 -52 43c-18 -11 -42 -25 -42 -43
c0 -19 20 -30 48 -30zM176 210c15 10 36 24 36 39c0 16 -16 27 -37 27c-22 0 -39 -11 -39 -27c0 -17 20 -27 40 -39z" />
    <glyph glyph-name="nine.dnom" horiz-adv-x="353" 
d="M79 -7l-23 70c71 1 139 28 158 81c-19 -10 -47 -18 -75 -18c-60 0 -113 33 -113 101c0 74 65 114 141 114c101 0 148 -65 148 -154c0 -114 -87 -194 -236 -194zM171 192c19 0 36 5 46 12v7c0 39 -23 59 -49 59s-42 -17 -42 -38c0 -26 20 -40 45 -40z" />
    <glyph glyph-name="zero.lf" horiz-adv-x="614" 
d="M307 -12c-195 0 -270 172 -270 345c0 174 71 345 269 345c194 0 271 -172 271 -345s-77 -345 -270 -345zM306 94c91 0 128 90 128 239s-37 239 -127 239c-91 0 -128 -90 -128 -239s37 -239 127 -239z" />
    <glyph glyph-name="one.lf" horiz-adv-x="385" 
d="M166 0v549l-128 -38l-28 105l186 50h103v-666h-133z" />
    <glyph glyph-name="two.lf" horiz-adv-x="516" 
d="M24 0v72c128 116 291 265 291 400c0 69 -41 98 -93 98c-60 0 -104 -29 -138 -63l-64 84c49 46 114 87 220 87c144 0 219 -80 219 -190c0 -141 -122 -268 -248 -384c0 0 43 3 73 3h190v-107h-450z" />
    <glyph glyph-name="three.lf" horiz-adv-x="488" 
d="M144 -12c-61 0 -101 9 -114 13l21 106c12 -4 43 -12 89 -12c97 0 156 36 156 105c0 76 -67 102 -184 103v92c100 2 166 43 166 105c0 45 -31 70 -87 70c-50 0 -89 -20 -116 -41l-56 86c36 28 102 63 198 63c131 0 200 -63 200 -153c0 -86 -68 -137 -138 -156v-2
c79 -9 160 -66 160 -166c0 -135 -117 -213 -295 -213z" />
    <glyph glyph-name="four.lf" horiz-adv-x="589" 
d="M331 0v138h-308v90l315 438h125v-424h97v-104h-97v-138h-132zM156 239c15 2 43 3 76 3h100v249h-2z" />
    <glyph glyph-name="five.lf" horiz-adv-x="470" 
d="M121 -12c-52 0 -83 7 -96 11l20 107c10 -3 42 -11 76 -11c93 0 165 37 165 119c0 85 -66 112 -164 112c-25 0 -55 -2 -67 -4l20 344h333v-107h-212l-8 -130c148 -4 240 -75 240 -207c0 -151 -123 -234 -307 -234z" />
    <glyph glyph-name="six.lf" horiz-adv-x="558" 
d="M288 -12c-176 0 -250 141 -250 293c0 239 159 397 418 397l28 -108c-82 0 -168 -19 -219 -60c-42 -34 -68 -78 -80 -138c32 26 78 42 130 42c119 0 211 -78 211 -207c0 -134 -102 -219 -238 -219zM291 90c62 0 94 49 94 110c0 76 -37 113 -99 113c-47 0 -82 -15 -109 -40
v-7c0 -118 46 -176 114 -176z" />
    <glyph glyph-name="seven.lf" horiz-adv-x="479" 
d="M189 -26l-120 41l220 540h-270v111h421v-73z" />
    <glyph glyph-name="eight.lf" horiz-adv-x="528" 
d="M264 -12c-150 0 -232 73 -232 178c0 84 62 139 129 176c-63 37 -109 82 -109 160c0 105 94 176 214 176c128 0 213 -60 213 -168c0 -72 -56 -118 -119 -155c70 -36 135 -89 135 -183c0 -115 -95 -184 -231 -184zM263 88c61 0 93 36 93 84c0 52 -48 86 -104 117
c-43 -28 -83 -62 -83 -118c0 -50 32 -83 94 -83zM268 406c42 27 76 58 76 99c0 43 -26 74 -76 74c-51 0 -80 -31 -80 -71c0 -47 37 -77 80 -102z" />
    <glyph glyph-name="nine.lf" horiz-adv-x="557" 
d="M106 -18l-28 108c84 0 171 23 222 70c38 35 61 78 71 135c-31 -27 -78 -43 -130 -43c-119 0 -211 78 -211 207c0 134 104 219 237 219c178 0 251 -139 251 -293c0 -242 -144 -403 -412 -403zM271 353c47 0 81 15 108 40v7c0 114 -45 176 -112 176c-63 0 -95 -49 -95 -110
c0 -76 37 -113 99 -113z" />
    <glyph glyph-name="exclam.sc" horiz-adv-x="267" 
d="M134 -9c-46 0 -79 35 -79 76c0 40 33 74 79 74c45 0 78 -34 78 -74c0 -41 -33 -76 -78 -76zM83 189l-22 334h146l-21 -334h-103z" />
    <glyph glyph-name="ampersand.sc" horiz-adv-x="569" 
d="M225 -9c-129 0 -196 60 -196 147c0 73 43 115 114 151c-33 38 -53 73 -53 115c0 78 71 129 168 129c102 0 160 -53 160 -119c0 -58 -43 -98 -114 -138l86 -92c15 26 26 56 32 87l104 -18c-10 -54 -34 -104 -68 -146l97 -107h-148l-32 35c-44 -27 -95 -44 -150 -44z
M249 334c43 25 58 48 58 72c0 26 -20 44 -49 44s-49 -17 -49 -45c0 -25 16 -45 40 -71zM237 83c28 0 53 8 74 22l-107 115c-30 -20 -46 -43 -46 -73c0 -40 32 -64 79 -64z" />
    <glyph glyph-name="question.sc" horiz-adv-x="358" 
d="M90 189v30c0 50 21 75 55 97c32 21 50 38 50 66c0 34 -24 49 -66 49c-31 0 -55 -9 -70 -18l-43 89c26 14 68 31 141 31c119 0 175 -61 175 -136c0 -57 -36 -91 -70 -116c-35 -25 -64 -36 -64 -75v-17h-108zM145 -9c-46 0 -79 35 -79 76c0 40 33 74 79 74
c45 0 77 -34 77 -74c0 -41 -32 -76 -77 -76z" />
    <glyph glyph-name="a.sc" horiz-adv-x="584" 
d="M213 188h145l-41 112c-17 47 -31 93 -31 94h-2c0 -1 -14 -48 -30 -94zM15 0l210 523h128l216 -523h-142l-34 91h-214l-32 -91h-132z" />
    <glyph glyph-name="b.sc" horiz-adv-x="516" 
d="M69 0v523h195c103 0 194 -31 194 -133c0 -70 -41 -105 -97 -118v-2c64 -8 119 -49 119 -125c0 -107 -91 -145 -218 -145h-193zM200 96h58c63 0 92 16 92 63c0 44 -28 65 -87 65h-63v-128zM200 310h48c59 0 83 20 83 62c0 39 -26 56 -80 56h-51v-118z" />
    <glyph glyph-name="c.sc" horiz-adv-x="521" 
d="M321 -9c-190 0 -283 126 -283 270c0 145 98 272 288 272c71 0 123 -15 164 -44l-57 -97c-27 18 -56 32 -108 32c-93 0 -145 -65 -145 -158c0 -98 49 -166 146 -166c59 0 93 19 119 38l51 -95c-31 -23 -88 -52 -175 -52z" />
    <glyph glyph-name="d.sc" horiz-adv-x="599" 
d="M69 0v523h179c215 0 313 -102 313 -254c0 -153 -100 -269 -318 -269h-174zM203 105h51c111 0 167 52 167 159c0 109 -54 154 -172 154h-46v-313z" />
    <glyph glyph-name="e.sc" horiz-adv-x="470" 
d="M69 0v523h344v-104h-213v-103h190v-96h-190v-116h218v-104h-349z" />
    <glyph glyph-name="f.sc" horiz-adv-x="447" 
d="M69 0v523h336v-105h-202v-116h180v-100h-180v-202h-134z" />
    <glyph glyph-name="g.sc" horiz-adv-x="595" 
d="M333 -9c-193 0 -295 127 -295 270c0 145 111 272 306 272c90 0 145 -22 181 -46l-56 -98c-27 17 -68 34 -127 34c-108 0 -163 -61 -163 -159c0 -99 49 -168 156 -168c43 0 70 11 81 16v89h-93v94h220v-254c-28 -17 -88 -50 -210 -50z" />
    <glyph glyph-name="h.sc" horiz-adv-x="629" 
d="M69 0v523h134v-199h224v199h132v-523h-132v216h-224v-216h-134z" />
    <glyph glyph-name="i.sc" horiz-adv-x="282" 
d="M74 0v523h134v-523h-134z" />
    <glyph glyph-name="j.sc" horiz-adv-x="295" 
d="M58 -171c-45 0 -72 8 -91 15l20 104c8 -3 25 -8 41 -8c45 0 63 19 63 71v512h135v-527c0 -110 -66 -167 -168 -167z" />
    <glyph glyph-name="k.sc" horiz-adv-x="544" 
d="M69 0v523h133v-230l180 230h144l-191 -242l196 -281h-148l-181 258v-258h-133z" />
    <glyph glyph-name="l.sc" horiz-adv-x="448" 
d="M72 0v523h133v-418h210v-105h-343z" />
    <glyph glyph-name="m.sc" horiz-adv-x="747" 
d="M39 0l76 523h129l101 -310c12 -35 25 -87 25 -87h2s14 52 26 87l106 310h129l74 -523h-135l-31 246c-5 42 -8 77 -8 78h-2c0 -1 -9 -37 -21 -76l-81 -248h-127l-81 248c-11 35 -21 75 -21 76h-2c0 -1 -2 -42 -7 -78l-34 -246h-118z" />
    <glyph glyph-name="n.sc" horiz-adv-x="623" 
d="M69 0v523h133l175 -242c36 -50 59 -92 60 -93h2c0 2 -4 47 -4 87v248h119v-523h-121l-190 262c-36 49 -55 83 -56 85h-2c0 -1 3 -38 3 -77v-270h-119z" />
    <glyph glyph-name="o.sc" horiz-adv-x="650" 
d="M327 -9c-187 0 -289 126 -289 270c0 140 100 272 287 272s287 -125 287 -269s-95 -273 -285 -273zM325 97c103 0 146 76 146 164c0 89 -42 166 -144 166s-147 -76 -147 -163c0 -90 45 -167 145 -167z" />
    <glyph glyph-name="p.sc" horiz-adv-x="510" 
d="M68 0v523h196c123 0 215 -54 215 -172c0 -119 -89 -176 -229 -176h-49v-175h-133zM201 272h48c66 0 99 24 99 78c0 53 -31 75 -95 75h-52v-153z" />
    <glyph glyph-name="q.sc" horiz-adv-x="650" 
d="M502 -145c-89 0 -159 29 -244 144c-142 25 -220 137 -220 262c0 140 100 272 287 272s287 -125 287 -269c0 -121 -67 -231 -200 -263c29 -36 53 -50 95 -50c31 0 55 13 65 21l42 -86c-17 -12 -60 -31 -112 -31zM325 95c104 0 147 76 147 166c0 89 -43 166 -145 166
s-148 -76 -148 -163c0 -92 46 -169 146 -169z" />
    <glyph glyph-name="r.sc" horiz-adv-x="532" 
d="M69 0v523h194c135 0 212 -53 212 -155c0 -89 -61 -128 -122 -141v-1c15 -11 40 -35 69 -81l95 -145h-143l-95 149c-34 49 -46 55 -69 55h-7v-204h-134zM203 294h58c55 0 81 22 81 65c0 44 -26 66 -87 66h-52v-131z" />
    <glyph glyph-name="s.sc" horiz-adv-x="440" 
d="M202 -9c-92 0 -149 30 -173 48l52 93c16 -11 53 -38 114 -38c51 0 81 18 81 48c0 41 -50 49 -121 82c-69 31 -115 72 -115 155c0 100 85 154 185 154c89 0 136 -26 163 -42l-50 -93c-21 14 -59 31 -105 31c-39 0 -67 -14 -67 -44c0 -37 39 -46 102 -72
c72 -31 136 -72 136 -160c0 -103 -75 -162 -202 -162z" />
    <glyph glyph-name="t.sc" horiz-adv-x="475" 
d="M170 0v416h-154v107h443v-107h-155v-416h-134z" />
    <glyph glyph-name="u.sc" horiz-adv-x="602" 
d="M306 -9c-162 0 -241 79 -241 226v306h134v-296c0 -93 29 -129 110 -129c76 0 105 41 105 124v301h123v-292c0 -154 -79 -240 -231 -240z" />
    <glyph glyph-name="v.sc" horiz-adv-x="570" 
d="M225 0l-211 523h144l108 -297c14 -40 27 -85 27 -86h2c0 1 12 46 26 86l103 297h131l-203 -523h-127z" />
    <glyph glyph-name="w.sc" horiz-adv-x="771" 
d="M164 0l-148 523h140l64 -246c12 -46 21 -97 21 -98h2c0 1 11 55 24 103l63 241h127l62 -240c12 -46 22 -103 22 -103h2s11 56 23 99l64 244h125l-149 -523h-123l-70 269c-11 44 -23 98 -23 98h-2s-11 -55 -24 -98l-78 -269h-122z" />
    <glyph glyph-name="x.sc" horiz-adv-x="531" 
d="M19 0l174 269l-165 254h150l95 -155l89 155h132l-159 -254l175 -269h-146l-109 173l-103 -173h-133z" />
    <glyph glyph-name="y.sc" horiz-adv-x="511" 
d="M191 0v197l-181 326h147l106 -210h2l105 210h130l-174 -326v-197h-135z" />
    <glyph glyph-name="z.sc" horiz-adv-x="486" 
d="M41 0v85l239 332h-230v106h391v-84l-240 -334h248v-105h-408z" />
    <glyph glyph-name="exclamdown.sc" horiz-adv-x="267" 
d="M133 381c-45 0 -78 35 -78 75c0 41 33 75 78 75c46 0 80 -34 80 -75c0 -40 -34 -75 -80 -75zM61 0l21 334h102l22 -334h-145z" />
    <glyph glyph-name="mu.sc" horiz-adv-x="747" 
d="M39 0l76 523h129l101 -310c12 -35 25 -87 25 -87h2s14 52 26 87l106 310h129l74 -523h-135l-31 246c-5 42 -8 77 -8 78h-2c0 -1 -9 -37 -21 -76l-81 -248h-127l-81 248c-11 35 -21 75 -21 76h-2c0 -1 -2 -42 -7 -78l-34 -246h-118z" />
    <glyph glyph-name="questiondown.sc" horiz-adv-x="358" 
d="M201 -10c-119 0 -175 61 -175 136c0 57 36 91 70 116s64 36 64 75v17h107v-30c0 -50 -20 -75 -54 -97c-33 -21 -50 -38 -50 -66c0 -34 24 -49 65 -49c32 0 55 9 71 18l42 -89c-26 -14 -68 -31 -140 -31zM213 382c-46 0 -78 34 -78 74c0 41 32 76 78 76s79 -35 79 -76
c0 -40 -33 -74 -79 -74z" />
    <glyph glyph-name="germandbls.sc" horiz-adv-x="878" 
d="M202 -9c-92 0 -149 30 -173 48l52 93c16 -11 53 -38 114 -38c51 0 81 18 81 48c0 41 -50 49 -121 82c-69 32 -115 72 -115 155c0 100 85 154 185 154c89 0 136 -26 163 -42l-50 -93c-21 14 -59 31 -105 31c-39 0 -67 -14 -67 -44c0 -37 39 -46 102 -72
c72 -31 136 -72 136 -160c0 -103 -75 -162 -202 -162zM640 -9c-92 0 -149 30 -173 48l52 93c16 -11 53 -38 114 -38c51 0 81 18 81 48c0 41 -50 49 -121 82c-69 32 -115 72 -115 155c0 100 84 154 184 154c90 0 137 -26 164 -42l-50 -93c-21 14 -60 31 -105 31
c-39 0 -67 -14 -67 -44c0 -37 39 -46 102 -72c72 -31 136 -72 136 -160c0 -103 -75 -162 -202 -162z" />
    <glyph glyph-name="agrave.sc" horiz-adv-x="584" 
d="M213 188h145l-41 112c-17 47 -31 93 -31 94h-2c0 -1 -14 -48 -30 -94zM15 0l210 523h128l216 -523h-142l-34 91h-214l-32 -91h-132zM245 569l-140 135h171l83 -135h-114z" />
    <glyph glyph-name="aacute.sc" horiz-adv-x="584" 
d="M225 569l83 135h172l-140 -135h-115zM213 188h145l-41 112c-17 47 -31 93 -31 94h-2c0 -1 -14 -48 -30 -94zM15 0l210 523h128l216 -523h-142l-34 91h-214l-32 -91h-132z" />
    <glyph glyph-name="acircumflex.sc" horiz-adv-x="584" 
d="M114 570l127 159h102l125 -159h-113l-64 66l-64 -66h-113zM213 188h145l-41 112c-17 47 -31 93 -31 94h-2c0 -1 -14 -48 -30 -94zM15 0l210 523h128l216 -523h-142l-34 91h-214l-32 -91h-132z" />
    <glyph glyph-name="atilde.sc" horiz-adv-x="584" 
d="M213 188h145l-41 112c-17 47 -31 93 -31 94h-2c0 -1 -14 -48 -30 -94zM15 0l210 523h128l216 -523h-142l-34 91h-214l-32 -91h-132zM350 574c-60 0 -77 35 -118 35c-24 0 -44 -20 -54 -30l-61 53c19 33 59 75 113 75c61 0 77 -35 118 -35c28 0 47 20 56 31l61 -53
c-20 -34 -60 -76 -115 -76z" />
    <glyph glyph-name="adieresis.sc" horiz-adv-x="584" 
d="M186 570c-43 0 -74 32 -74 72c0 38 31 71 74 71s74 -33 74 -71c0 -40 -31 -72 -74 -72zM396 570c-43 0 -74 32 -74 72c0 38 31 71 74 71s74 -33 74 -71c0 -40 -31 -72 -74 -72zM213 188h145l-41 112c-17 47 -31 93 -31 94h-2c0 -1 -14 -48 -30 -94zM15 0l210 523h128
l216 -523h-142l-34 91h-214l-32 -91h-132z" />
    <glyph glyph-name="aring.sc" horiz-adv-x="584" 
d="M291 567c-57 0 -110 46 -110 107c0 60 53 106 110 106s110 -46 110 -106c0 -61 -53 -107 -110 -107zM291 623c29 0 46 24 46 51s-17 50 -46 50s-46 -23 -46 -50s17 -51 46 -51zM213 188h145l-41 112c-17 47 -31 93 -31 94h-2c0 -1 -14 -48 -30 -94zM15 0l210 523h128
l216 -523h-142l-34 91h-214l-32 -91h-132z" />
    <glyph glyph-name="ae.sc" horiz-adv-x="728" 
d="M-17 0l311 523h383v-105h-203v-102h179v-96h-179v-115h208v-105h-338v95h-163l-54 -95h-144zM234 193h110v194z" />
    <glyph glyph-name="ccedilla.sc" horiz-adv-x="521" 
d="M267 -230c-42 0 -69 9 -82 15l17 60c10 -5 28 -11 51 -11c29 0 48 11 48 34c0 34 -37 40 -71 38l33 89c-151 23 -225 137 -225 266c0 145 98 272 288 272c71 0 123 -15 164 -44l-57 -97c-27 18 -56 32 -108 32c-93 0 -145 -65 -145 -158c0 -98 49 -166 146 -166
c59 0 93 19 119 38l51 -95c-29 -22 -81 -48 -158 -51l-17 -47c41 -9 71 -38 71 -82c0 -55 -51 -93 -125 -93z" />
    <glyph glyph-name="egrave.sc" horiz-adv-x="470" 
d="M195 569l-140 135h171l83 -135h-114zM69 0v523h344v-104h-213v-103h190v-96h-190v-116h218v-104h-349z" />
    <glyph glyph-name="eacute.sc" horiz-adv-x="470" 
d="M174 569l83 135h172l-140 -135h-115zM69 0v523h344v-104h-213v-103h190v-96h-190v-116h218v-104h-349z" />
    <glyph glyph-name="ecircumflex.sc" horiz-adv-x="470" 
d="M64 570l127 159h102l125 -159h-113l-64 66l-64 -66h-113zM69 0v523h344v-104h-213v-103h190v-96h-190v-116h218v-104h-349z" />
    <glyph glyph-name="edieresis.sc" horiz-adv-x="470" 
d="M136 570c-43 0 -74 32 -74 72c0 38 31 71 74 71s74 -33 74 -71c0 -40 -31 -72 -74 -72zM346 570c-43 0 -74 32 -74 72c0 38 31 71 74 71s74 -33 74 -71c0 -40 -31 -72 -74 -72zM69 0v523h344v-104h-213v-103h190v-96h-190v-116h218v-104h-349z" />
    <glyph glyph-name="igrave.sc" horiz-adv-x="282" 
d="M74 0v523h134v-523h-134zM94 569l-140 135h171l83 -135h-114z" />
    <glyph glyph-name="iacute.sc" horiz-adv-x="282" 
d="M75 569l83 135h172l-140 -135h-115zM74 0v523h134v-523h-134z" />
    <glyph glyph-name="icircumflex.sc" horiz-adv-x="282" 
d="M-36 570l127 159h102l125 -159h-113l-64 66l-64 -66h-113zM74 0v523h134v-523h-134z" />
    <glyph glyph-name="idieresis.sc" horiz-adv-x="282" 
d="M36 570c-43 0 -74 32 -74 72c0 38 31 71 74 71s74 -33 74 -71c0 -40 -31 -72 -74 -72zM246 570c-43 0 -74 32 -74 72c0 38 31 71 74 71s74 -33 74 -71c0 -40 -31 -72 -74 -72zM74 0v523h134v-523h-134z" />
    <glyph glyph-name="eth.sc" horiz-adv-x="599" 
d="M69 0v211h-51v95h51v217h179c215 0 313 -102 313 -254c0 -153 -100 -269 -318 -269h-174zM203 105h51c111 0 167 52 167 159c0 109 -54 154 -172 154h-46v-112h101v-95h-101v-106z" />
    <glyph glyph-name="ntilde.sc" horiz-adv-x="623" 
d="M69 0v523h133l175 -242c36 -50 59 -92 60 -93h2c0 2 -4 47 -4 87v248h119v-523h-121l-190 262c-36 49 -55 83 -56 85h-2c0 -1 3 -38 3 -77v-270h-119zM369 574c-60 0 -77 35 -118 35c-24 0 -44 -20 -54 -30l-61 53c19 33 59 75 113 75c61 0 77 -35 118 -35
c28 0 47 20 56 31l61 -53c-20 -34 -60 -76 -115 -76z" />
    <glyph glyph-name="ograve.sc" horiz-adv-x="650" 
d="M327 -9c-187 0 -289 126 -289 270c0 140 100 272 287 272s287 -125 287 -269s-95 -273 -285 -273zM325 97c103 0 146 76 146 164c0 89 -42 166 -144 166s-147 -76 -147 -163c0 -90 45 -167 145 -167zM278 569l-140 135h171l83 -135h-114z" />
    <glyph glyph-name="oacute.sc" horiz-adv-x="650" 
d="M259 569l83 135h172l-140 -135h-115zM327 -9c-187 0 -289 126 -289 270c0 140 100 272 287 272s287 -125 287 -269s-95 -273 -285 -273zM325 97c103 0 146 76 146 164c0 89 -42 166 -144 166s-147 -76 -147 -163c0 -90 45 -167 145 -167z" />
    <glyph glyph-name="ocircumflex.sc" horiz-adv-x="650" 
d="M148 570l127 159h102l125 -159h-113l-64 66l-64 -66h-113zM327 -9c-187 0 -289 126 -289 270c0 140 100 272 287 272s287 -125 287 -269s-95 -273 -285 -273zM325 97c103 0 146 76 146 164c0 89 -42 166 -144 166s-147 -76 -147 -163c0 -90 45 -167 145 -167z" />
    <glyph glyph-name="otilde.sc" horiz-adv-x="650" 
d="M327 -9c-187 0 -289 126 -289 270c0 140 100 272 287 272s287 -125 287 -269s-95 -273 -285 -273zM325 97c103 0 146 76 146 164c0 89 -42 166 -144 166s-147 -76 -147 -163c0 -90 45 -167 145 -167zM384 574c-60 0 -77 35 -118 35c-24 0 -44 -20 -54 -30l-61 53
c19 33 59 75 113 75c61 0 77 -35 118 -35c28 0 47 20 56 31l61 -53c-20 -34 -60 -76 -115 -76z" />
    <glyph glyph-name="odieresis.sc" horiz-adv-x="650" 
d="M220 570c-43 0 -74 32 -74 72c0 38 31 71 74 71s74 -33 74 -71c0 -40 -31 -72 -74 -72zM430 570c-43 0 -74 32 -74 72c0 38 31 71 74 71s74 -33 74 -71c0 -40 -31 -72 -74 -72zM327 -9c-187 0 -289 126 -289 270c0 140 100 272 287 272s287 -125 287 -269
s-95 -273 -285 -273zM325 97c103 0 146 76 146 164c0 89 -42 166 -144 166s-147 -76 -147 -163c0 -90 45 -167 145 -167z" />
    <glyph glyph-name="oslash.sc" horiz-adv-x="650" 
d="M146 -61l-81 55l54 71c-53 50 -81 121 -81 196c0 140 100 272 287 272c50 0 93 -9 131 -25l53 71l80 -56l-52 -69c49 -50 75 -118 75 -190c0 -144 -95 -273 -285 -273c-48 0 -91 8 -127 23zM180 264c0 -36 7 -69 21 -96l187 247c-17 8 -38 12 -61 12
c-102 0 -147 -76 -147 -163zM325 97c103 0 146 76 146 164c0 33 -6 64 -18 91l-186 -245c16 -6 36 -10 58 -10z" />
    <glyph glyph-name="ugrave.sc" horiz-adv-x="602" 
d="M255 569l-140 135h171l83 -135h-114zM306 -9c-162 0 -241 79 -241 226v306h134v-296c0 -93 29 -129 110 -129c76 0 105 41 105 124v301h123v-292c0 -154 -79 -240 -231 -240z" />
    <glyph glyph-name="uacute.sc" horiz-adv-x="602" 
d="M235 569l83 135h172l-140 -135h-115zM306 -9c-162 0 -241 79 -241 226v306h134v-296c0 -93 29 -129 110 -129c76 0 105 41 105 124v301h123v-292c0 -154 -79 -240 -231 -240z" />
    <glyph glyph-name="ucircumflex.sc" horiz-adv-x="602" 
d="M124 570l127 159h102l125 -159h-113l-64 66l-64 -66h-113zM306 -9c-162 0 -241 79 -241 226v306h134v-296c0 -93 29 -129 110 -129c76 0 105 41 105 124v301h123v-292c0 -154 -79 -240 -231 -240z" />
    <glyph glyph-name="udieresis.sc" horiz-adv-x="602" 
d="M196 570c-43 0 -74 32 -74 72c0 38 31 71 74 71s74 -33 74 -71c0 -40 -31 -72 -74 -72zM406 570c-43 0 -74 32 -74 72c0 38 31 71 74 71s74 -33 74 -71c0 -40 -31 -72 -74 -72zM306 -9c-162 0 -241 79 -241 226v306h134v-296c0 -93 29 -129 110 -129c76 0 105 41 105 124
v301h123v-292c0 -154 -79 -240 -231 -240z" />
    <glyph glyph-name="yacute.sc" horiz-adv-x="511" 
d="M192 569l83 135h172l-140 -135h-115zM191 0v197l-181 326h147l106 -210h2l105 210h130l-174 -326v-197h-135z" />
    <glyph glyph-name="thorn.sc" horiz-adv-x="512" 
d="M68 0v523h133v-78h66c123 0 215 -53 215 -171c0 -120 -89 -177 -229 -177h-52v-97h-133zM201 194h51c66 0 99 24 99 78c0 53 -31 75 -95 75h-55v-153z" />
    <glyph glyph-name="ydieresis.sc" horiz-adv-x="511" 
d="M153 570c-43 0 -74 32 -74 72c0 38 31 71 74 71s74 -33 74 -71c0 -40 -31 -72 -74 -72zM363 570c-43 0 -74 32 -74 72c0 38 31 71 74 71s74 -33 74 -71c0 -40 -31 -72 -74 -72zM191 0v197l-181 326h147l106 -210h2l105 210h130l-174 -326v-197h-135z" />
    <glyph glyph-name="amacron.sc" horiz-adv-x="584" 
d="M213 188h145l-41 112c-17 47 -31 93 -31 94h-2c0 -1 -14 -48 -30 -94zM15 0l210 523h128l216 -523h-142l-34 91h-214l-32 -91h-132zM150 590v95h283v-95h-283z" />
    <glyph glyph-name="abreve.sc" horiz-adv-x="584" 
d="M213 188h145l-41 112c-17 47 -31 93 -31 94h-2c0 -1 -14 -48 -30 -94zM15 0l210 523h128l216 -523h-142l-34 91h-214l-32 -91h-132zM292 558c-82 0 -159 46 -169 151h109c3 -40 23 -65 60 -65c36 0 56 25 60 65h108c-9 -105 -86 -151 -168 -151z" />
    <glyph glyph-name="aogonek.sc" horiz-adv-x="584" 
d="M476 -230c-72 0 -120 37 -120 99c0 57 41 105 71 131l-34 91h-214l-32 -91h-132l210 523h128l216 -523h-11c-64 -3 -109 -61 -109 -114c0 -29 17 -45 48 -45c17 0 29 4 41 9l17 -62c-15 -8 -40 -18 -79 -18zM213 188h145l-41 112c-17 47 -31 93 -31 94h-2
c0 -1 -14 -48 -30 -94z" />
    <glyph glyph-name="cacute.sc" horiz-adv-x="521" 
d="M240 569l83 135h172l-140 -135h-115zM321 -9c-190 0 -283 126 -283 270c0 145 98 272 288 272c71 0 123 -15 164 -44l-57 -97c-27 18 -56 32 -108 32c-93 0 -145 -65 -145 -158c0 -98 49 -166 146 -166c59 0 93 19 119 38l51 -95c-31 -23 -88 -52 -175 -52z" />
    <glyph glyph-name="ccircumflex.sc" horiz-adv-x="521" 
d="M129 570l127 159h102l125 -159h-113l-64 66l-64 -66h-113zM321 -9c-190 0 -283 126 -283 270c0 145 98 272 288 272c71 0 123 -15 164 -44l-57 -97c-27 18 -56 32 -108 32c-93 0 -145 -65 -145 -158c0 -98 49 -166 146 -166c59 0 93 19 119 38l51 -95
c-31 -23 -88 -52 -175 -52z" />
    <glyph glyph-name="cdotaccent.sc" horiz-adv-x="521" 
d="M321 -9c-190 0 -283 126 -283 270c0 145 98 272 288 272c71 0 123 -15 164 -44l-57 -97c-27 18 -56 32 -108 32c-93 0 -145 -65 -145 -158c0 -98 49 -166 146 -166c59 0 93 19 119 38l51 -95c-31 -23 -88 -52 -175 -52zM306 584c-43 0 -74 32 -74 72c0 39 31 71 74 71
s74 -32 74 -71c0 -40 -31 -72 -74 -72z" />
    <glyph glyph-name="ccaron.sc" horiz-adv-x="521" 
d="M254 569l-125 159h113l64 -66l64 66h113l-127 -159h-102zM321 -9c-190 0 -283 126 -283 270c0 145 98 272 288 272c71 0 123 -15 164 -44l-57 -97c-27 18 -56 32 -108 32c-93 0 -145 -65 -145 -158c0 -98 49 -166 146 -166c59 0 93 19 119 38l51 -95
c-31 -23 -88 -52 -175 -52z" />
    <glyph glyph-name="dcaron.sc" horiz-adv-x="599" 
d="M235 569l-125 159h113l64 -66l64 66h113l-127 -159h-102zM69 0v523h179c215 0 313 -102 313 -254c0 -153 -100 -269 -318 -269h-174zM203 105h51c111 0 167 52 167 159c0 109 -54 154 -172 154h-46v-313z" />
    <glyph glyph-name="dcroat.sc" horiz-adv-x="599" 
d="M69 0v211h-51v95h51v217h179c215 0 313 -102 313 -254c0 -153 -100 -269 -318 -269h-174zM203 105h51c111 0 167 52 167 159c0 109 -54 154 -172 154h-46v-112h101v-95h-101v-106z" />
    <glyph glyph-name="emacron.sc" horiz-adv-x="470" 
d="M100 590v95h283v-95h-283zM69 0v523h344v-104h-213v-103h190v-96h-190v-116h218v-104h-349z" />
    <glyph glyph-name="ebreve.sc" horiz-adv-x="470" 
d="M242 558c-82 0 -159 46 -169 151h109c3 -40 23 -65 60 -65c36 0 56 25 60 65h108c-9 -105 -86 -151 -168 -151zM69 0v523h344v-104h-213v-103h190v-96h-190v-116h218v-104h-349z" />
    <glyph glyph-name="edotaccent.sc" horiz-adv-x="470" 
d="M241 584c-43 0 -74 32 -74 72c0 39 31 71 74 71s74 -32 74 -71c0 -40 -31 -72 -74 -72zM69 0v523h344v-104h-213v-103h190v-96h-190v-116h218v-104h-349z" />
    <glyph glyph-name="eogonek.sc" horiz-adv-x="470" 
d="M333 -230c-72 0 -120 37 -120 99c0 56 40 113 85 131h-229v523h344v-104h-213v-103h190v-96h-190v-116h218v-104h-1c-67 0 -111 -57 -111 -114c0 -30 17 -45 48 -45c16 0 29 4 41 9l16 -62c-15 -8 -39 -18 -78 -18z" />
    <glyph glyph-name="ecaron.sc" horiz-adv-x="470" 
d="M189 569l-125 159h113l64 -66l64 66h113l-127 -159h-102zM69 0v523h344v-104h-213v-103h190v-96h-190v-116h218v-104h-349z" />
    <glyph glyph-name="gcircumflex.sc" horiz-adv-x="595" 
d="M146 570l127 159h102l125 -159h-113l-64 66l-64 -66h-113zM333 -9c-193 0 -295 127 -295 270c0 145 111 272 306 272c90 0 145 -22 181 -46l-56 -98c-27 17 -68 34 -127 34c-108 0 -163 -61 -163 -159c0 -99 49 -168 156 -168c43 0 70 11 81 16v89h-93v94h220v-254
c-28 -17 -88 -50 -210 -50z" />
    <glyph glyph-name="gbreve.sc" horiz-adv-x="595" 
d="M333 -9c-193 0 -295 127 -295 270c0 145 111 272 306 272c90 0 145 -22 181 -46l-56 -98c-27 17 -68 34 -127 34c-108 0 -163 -61 -163 -159c0 -99 49 -168 156 -168c43 0 70 11 81 16v89h-93v94h220v-254c-28 -17 -88 -50 -210 -50zM323 558c-82 0 -159 46 -169 151h109
c3 -40 23 -65 60 -65c36 0 56 25 60 65h108c-9 -105 -86 -151 -168 -151z" />
    <glyph glyph-name="gdotaccent.sc" horiz-adv-x="595" 
d="M333 -9c-193 0 -295 127 -295 270c0 145 111 272 306 272c90 0 145 -22 181 -46l-56 -98c-27 17 -68 34 -127 34c-108 0 -163 -61 -163 -159c0 -99 49 -168 156 -168c43 0 70 11 81 16v89h-93v94h220v-254c-28 -17 -88 -50 -210 -50zM323 584c-43 0 -74 32 -74 72
c0 39 31 71 74 71s74 -32 74 -71c0 -40 -31 -72 -74 -72z" />
    <glyph glyph-name="gcommaaccent.sc" horiz-adv-x="595" 
d="M262 -227c14 13 28 30 28 52c0 35 -40 38 -40 80c0 31 28 53 63 53c39 0 73 -26 73 -69c0 -49 -31 -92 -58 -116h-66zM333 -9c-193 0 -295 127 -295 270c0 145 111 272 306 272c90 0 145 -22 181 -46l-56 -98c-27 17 -68 34 -127 34c-108 0 -163 -61 -163 -159
c0 -99 49 -168 156 -168c43 0 70 11 81 16v89h-93v94h220v-254c-28 -17 -88 -50 -210 -50z" />
    <glyph glyph-name="hcircumflex.sc" horiz-adv-x="629" 
d="M137 570l127 159h102l125 -159h-113l-64 66l-64 -66h-113zM69 0v523h134v-199h224v199h132v-523h-132v216h-224v-216h-134z" />
    <glyph glyph-name="hbar.sc" horiz-adv-x="643" 
d="M25 355v95h52v73h133v-73h224v73h133v-73h51v-95h-51v-355h-133v188h-224v-188h-133v355h-52zM210 296h224v59h-224v-59z" />
    <glyph glyph-name="itilde.sc" horiz-adv-x="282" 
d="M74 0v523h134v-523h-134zM200 574c-60 0 -77 35 -118 35c-24 0 -44 -20 -54 -30l-61 53c19 33 59 75 113 75c61 0 77 -35 118 -35c28 0 47 20 56 31l61 -53c-20 -34 -60 -76 -115 -76z" />
    <glyph glyph-name="imacron.sc" horiz-adv-x="282" 
d="M74 0v523h134v-523h-134zM0 590v95h283v-95h-283z" />
    <glyph glyph-name="ibreve.sc" horiz-adv-x="282" 
d="M74 0v523h134v-523h-134zM141 558c-82 0 -159 46 -169 151h109c3 -40 23 -65 60 -65c36 0 56 25 60 65h108c-9 -105 -86 -151 -168 -151z" />
    <glyph glyph-name="iogonek.sc" horiz-adv-x="282" 
d="M139 -230c-72 0 -120 37 -120 99c0 56 41 110 80 131h-25v523h134v-523h-3c-49 0 -93 -61 -93 -114c0 -29 17 -45 48 -45c16 0 29 4 41 9l16 -62c-15 -8 -39 -18 -78 -18z" />
    <glyph glyph-name="dotlessi.sc" horiz-adv-x="282" 
d="M74 0v523h134v-523h-134z" />
    <glyph glyph-name="ij.sc" horiz-adv-x="577" 
d="M74 0v523h134v-523h-134zM339 -171c-45 0 -72 8 -91 15l20 104c8 -3 25 -8 41 -8c45 0 63 19 63 71v512h135v-527c0 -110 -66 -167 -168 -167z" />
    <glyph glyph-name="jcircumflex.sc" horiz-adv-x="295" 
d="M-19 570l127 159h102l125 -159h-113l-64 66l-64 -66h-113zM58 -171c-45 0 -72 8 -91 15l20 104c8 -3 25 -8 41 -8c45 0 63 19 63 71v512h135v-527c0 -110 -66 -167 -168 -167z" />
    <glyph glyph-name="kcommaaccent.sc" horiz-adv-x="544" 
d="M223 -227c14 13 28 30 28 52c0 35 -40 38 -40 80c0 31 28 53 63 53c39 0 73 -26 73 -69c0 -49 -31 -92 -58 -116h-66zM69 0v523h133v-230l180 230h144l-191 -242l196 -281h-148l-181 258v-258h-133z" />
    <glyph glyph-name="lacute.sc" horiz-adv-x="448" 
d="M72 0v523h133v-418h210v-105h-343zM73 569l83 135h172l-140 -135h-115z" />
    <glyph glyph-name="lcommaaccent.sc" horiz-adv-x="448" 
d="M176 -227c14 13 28 30 28 52c0 35 -40 38 -40 80c0 31 28 53 63 53c39 0 73 -26 73 -69c0 -49 -31 -92 -58 -116h-66zM72 0v523h133v-418h210v-105h-343z" />
    <glyph glyph-name="lcaron.sc" horiz-adv-x="457" 
d="M259 368l37 185h137l-81 -185h-93zM72 0v523h133v-418h210v-105h-343z" />
    <glyph glyph-name="ldot.sc" horiz-adv-x="448" 
d="M72 0v523h133v-418h210v-105h-343zM330 257c-43 0 -74 32 -74 72c0 39 31 71 74 71s74 -32 74 -71c0 -40 -31 -72 -74 -72z" />
    <glyph glyph-name="lslash.sc" horiz-adv-x="456" 
d="M80 0v167l-43 -29l-46 71l89 62v252h134v-164l80 56l47 -72l-127 -87v-151h210v-105h-344z" />
    <glyph glyph-name="nacute.sc" horiz-adv-x="623" 
d="M244 569l83 135h172l-140 -135h-115zM69 0v523h133l175 -242c36 -50 59 -92 60 -93h2c0 2 -4 47 -4 87v248h119v-523h-121l-190 262c-36 49 -55 83 -56 85h-2c0 -1 3 -38 3 -77v-270h-119z" />
    <glyph glyph-name="ncommaaccent.sc" horiz-adv-x="623" 
d="M254 -227c14 13 28 30 28 52c0 35 -40 38 -40 80c0 31 28 53 63 53c39 0 73 -26 73 -69c0 -49 -31 -92 -58 -116h-66zM69 0v523h133l175 -242c36 -50 59 -92 60 -93h2c0 2 -4 47 -4 87v248h119v-523h-121l-190 262c-36 49 -55 83 -56 85h-2c0 -1 3 -38 3 -77v-270h-119z
" />
    <glyph glyph-name="ncaron.sc" horiz-adv-x="623" 
d="M258 569l-125 159h113l64 -66l64 66h113l-127 -159h-102zM69 0v523h133l175 -242c36 -50 59 -92 60 -93h2c0 2 -4 47 -4 87v248h119v-523h-121l-190 262c-36 49 -55 83 -56 85h-2c0 -1 3 -38 3 -77v-270h-119z" />
    <glyph glyph-name="omacron.sc" horiz-adv-x="650" 
d="M327 -9c-187 0 -289 126 -289 270c0 140 100 272 287 272s287 -125 287 -269s-95 -273 -285 -273zM325 97c103 0 146 76 146 164c0 89 -42 166 -144 166s-147 -76 -147 -163c0 -90 45 -167 145 -167zM184 590v95h283v-95h-283z" />
    <glyph glyph-name="obreve.sc" horiz-adv-x="650" 
d="M327 -9c-187 0 -289 126 -289 270c0 140 100 272 287 272s287 -125 287 -269s-95 -273 -285 -273zM325 97c103 0 146 76 146 164c0 89 -42 166 -144 166s-147 -76 -147 -163c0 -90 45 -167 145 -167zM325 558c-82 0 -159 46 -169 151h109c3 -40 23 -65 60 -65
c36 0 56 25 60 65h108c-9 -105 -86 -151 -168 -151z" />
    <glyph glyph-name="ohungarumlaut.sc" horiz-adv-x="650" 
d="M327 -9c-187 0 -289 126 -289 270c0 140 100 272 287 272s287 -125 287 -269s-95 -273 -285 -273zM325 97c103 0 146 76 146 164c0 89 -42 166 -144 166s-147 -76 -147 -163c0 -90 45 -167 145 -167zM154 569l92 135h154l-140 -135h-106zM356 569l92 135h154l-140 -135
h-106z" />
    <glyph glyph-name="oe.sc" horiz-adv-x="789" 
d="M328 -9c-189 0 -290 126 -290 270c0 140 100 272 286 272c36 0 64 -4 89 -10h320v-105h-202v-102h179v-96h-179v-115h208v-105h-328c-23 -5 -51 -9 -83 -9zM325 97c35 0 59 6 77 15v297c-17 10 -40 18 -75 18c-102 0 -148 -76 -148 -163c0 -90 46 -167 146 -167z" />
    <glyph glyph-name="racute.sc" horiz-adv-x="532" 
d="M197 569l83 135h172l-140 -135h-115zM69 0v523h194c135 0 212 -53 212 -155c0 -89 -61 -128 -122 -141v-1c15 -11 40 -35 69 -81l95 -145h-143l-95 149c-34 49 -46 55 -69 55h-7v-204h-134zM203 294h58c55 0 81 22 81 65c0 44 -26 66 -87 66h-52v-131z" />
    <glyph glyph-name="rcommaaccent.sc" horiz-adv-x="532" 
d="M221 -227c14 13 28 30 28 52c0 35 -40 38 -40 80c0 31 28 53 63 53c39 0 73 -26 73 -69c0 -49 -31 -92 -58 -116h-66zM69 0v523h194c135 0 212 -53 212 -155c0 -89 -61 -128 -122 -141v-1c15 -11 40 -35 69 -81l95 -145h-143l-95 149c-34 49 -46 55 -69 55h-7v-204h-134z
M203 294h58c55 0 81 22 81 65c0 44 -26 66 -87 66h-52v-131z" />
    <glyph glyph-name="rcaron.sc" horiz-adv-x="532" 
d="M211 569l-125 159h113l64 -66l64 66h113l-127 -159h-102zM69 0v523h194c135 0 212 -53 212 -155c0 -89 -61 -128 -122 -141v-1c15 -11 40 -35 69 -81l95 -145h-143l-95 149c-34 49 -46 55 -69 55h-7v-204h-134zM203 294h58c55 0 81 22 81 65c0 44 -26 66 -87 66h-52v-131
z" />
    <glyph glyph-name="sacute.sc" horiz-adv-x="440" 
d="M157 569l83 135h172l-140 -135h-115zM202 -9c-92 0 -149 30 -173 48l52 93c16 -11 53 -38 114 -38c51 0 81 18 81 48c0 41 -50 49 -121 82c-69 31 -115 72 -115 155c0 100 85 154 185 154c89 0 136 -26 163 -42l-50 -93c-21 14 -59 31 -105 31c-39 0 -67 -14 -67 -44
c0 -37 39 -46 102 -72c72 -31 136 -72 136 -160c0 -103 -75 -162 -202 -162z" />
    <glyph glyph-name="scircumflex.sc" horiz-adv-x="440" 
d="M46 570l127 159h102l125 -159h-113l-64 66l-64 -66h-113zM202 -9c-92 0 -149 30 -173 48l52 93c16 -11 53 -38 114 -38c51 0 81 18 81 48c0 41 -50 49 -121 82c-69 31 -115 72 -115 155c0 100 85 154 185 154c89 0 136 -26 163 -42l-50 -93c-21 14 -59 31 -105 31
c-39 0 -67 -14 -67 -44c0 -37 39 -46 102 -72c72 -31 136 -72 136 -160c0 -103 -75 -162 -202 -162z" />
    <glyph glyph-name="scedilla.sc" horiz-adv-x="440" 
d="M186 -230c-42 0 -69 9 -82 15l17 60c10 -5 28 -11 51 -11c29 0 48 11 48 34c0 34 -37 40 -71 38l32 86c-80 4 -130 30 -152 47l52 93c16 -11 53 -38 114 -38c51 0 81 18 81 48c0 41 -50 49 -121 82c-69 31 -115 72 -115 155c0 100 85 154 185 154c89 0 136 -26 163 -42
l-50 -93c-21 14 -59 31 -105 31c-39 0 -67 -14 -67 -44c0 -37 39 -46 102 -72c72 -31 136 -72 136 -160c0 -87 -53 -142 -146 -157l-18 -51c41 -9 71 -38 71 -82c0 -55 -51 -93 -125 -93z" />
    <glyph glyph-name="scaron.sc" horiz-adv-x="440" 
d="M171 569l-125 159h113l64 -66l64 66h113l-127 -159h-102zM202 -9c-92 0 -149 30 -173 48l52 93c16 -11 53 -38 114 -38c51 0 81 18 81 48c0 41 -50 49 -121 82c-69 31 -115 72 -115 155c0 100 85 154 185 154c89 0 136 -26 163 -42l-50 -93c-21 14 -59 31 -105 31
c-39 0 -67 -14 -67 -44c0 -37 39 -46 102 -72c72 -31 136 -72 136 -160c0 -103 -75 -162 -202 -162z" />
    <glyph glyph-name="tcommaaccent.sc" horiz-adv-x="475" 
d="M182 -227c14 13 28 30 28 52c0 35 -40 38 -40 80c0 31 28 53 63 53c39 0 73 -26 73 -69c0 -49 -31 -92 -58 -116h-66zM170 0v416h-154v107h443v-107h-155v-416h-134z" />
    <glyph glyph-name="tcaron.sc" horiz-adv-x="475" 
d="M185 570l-125 159h113l64 -66l64 66h113l-127 -159h-102zM170 0v416h-154v107h443v-107h-155v-416h-134z" />
    <glyph glyph-name="tbar.sc" horiz-adv-x="475" 
d="M40 207v95h130v114h-154v107h443v-107h-155v-114h130v-95h-130v-207h-134v207h-130z" />
    <glyph glyph-name="utilde.sc" horiz-adv-x="602" 
d="M360 574c-60 0 -77 35 -118 35c-24 0 -44 -20 -54 -30l-61 53c19 33 59 75 113 75c61 0 77 -35 118 -35c28 0 47 20 56 31l61 -53c-20 -34 -60 -76 -115 -76zM306 -9c-162 0 -241 79 -241 226v306h134v-296c0 -93 29 -129 110 -129c76 0 105 41 105 124v301h123v-292
c0 -154 -79 -240 -231 -240z" />
    <glyph glyph-name="umacron.sc" horiz-adv-x="602" 
d="M160 590v95h283v-95h-283zM306 -9c-162 0 -241 79 -241 226v306h134v-296c0 -93 29 -129 110 -129c76 0 105 41 105 124v301h123v-292c0 -154 -79 -240 -231 -240z" />
    <glyph glyph-name="ubreve.sc" horiz-adv-x="602" 
d="M302 558c-82 0 -159 46 -169 151h109c3 -40 23 -65 60 -65c36 0 56 25 60 65h108c-9 -105 -86 -151 -168 -151zM306 -9c-162 0 -241 79 -241 226v306h134v-296c0 -93 29 -129 110 -129c76 0 105 41 105 124v301h123v-292c0 -154 -79 -240 -231 -240z" />
    <glyph glyph-name="uring.sc" horiz-adv-x="602" 
d="M301 567c-57 0 -110 46 -110 107c0 60 53 106 110 106s110 -46 110 -106c0 -61 -53 -107 -110 -107zM301 623c29 0 46 24 46 51s-17 50 -46 50s-46 -23 -46 -50s17 -51 46 -51zM306 -9c-162 0 -241 79 -241 226v306h134v-296c0 -93 29 -129 110 -129c76 0 105 41 105 124
v301h123v-292c0 -154 -79 -240 -231 -240z" />
    <glyph glyph-name="uhungarumlaut.sc" horiz-adv-x="602" 
d="M131 569l92 135h154l-140 -135h-106zM333 569l92 135h154l-140 -135h-106zM306 -9c-162 0 -241 79 -241 226v306h134v-296c0 -93 29 -129 110 -129c76 0 105 41 105 124v301h123v-292c0 -154 -79 -240 -231 -240z" />
    <glyph glyph-name="uogonek.sc" horiz-adv-x="602" 
d="M407 -230c-72 0 -120 37 -120 99c0 54 38 104 70 129c-15 -5 -35 -7 -51 -7c-162 0 -241 79 -241 226v306h134v-296c0 -93 29 -129 110 -129c76 0 105 41 105 124v301h123v-292c0 -111 -40 -158 -102 -231c-29 -35 -55 -70 -55 -114c0 -30 17 -45 48 -45c17 0 29 4 41 9
l17 -62c-15 -8 -40 -18 -79 -18z" />
    <glyph glyph-name="wcircumflex.sc" horiz-adv-x="771" 
d="M208 570l127 159h102l125 -159h-113l-64 66l-64 -66h-113zM164 0l-148 523h140l64 -246c12 -46 21 -97 21 -98h2c0 1 11 55 24 103l63 241h127l62 -240c12 -46 22 -103 22 -103h2s11 56 23 99l64 244h125l-149 -523h-123l-70 269c-11 44 -23 98 -23 98h-2
s-11 -55 -24 -98l-78 -269h-122z" />
    <glyph glyph-name="ycircumflex.sc" horiz-adv-x="511" 
d="M81 570l127 159h102l125 -159h-113l-64 66l-64 -66h-113zM191 0v197l-181 326h147l106 -210h2l105 210h130l-174 -326v-197h-135z" />
    <glyph glyph-name="zacute.sc" horiz-adv-x="486" 
d="M178 569l83 135h172l-140 -135h-115zM41 0v85l239 332h-230v106h391v-84l-240 -334h248v-105h-408z" />
    <glyph glyph-name="zdotaccent.sc" horiz-adv-x="486" 
d="M245 584c-43 0 -74 32 -74 72c0 39 31 71 74 71s74 -32 74 -71c0 -40 -31 -72 -74 -72zM41 0v85l239 332h-230v106h391v-84l-240 -334h248v-105h-408z" />
    <glyph glyph-name="zcaron.sc" horiz-adv-x="486" 
d="M193 569l-125 159h113l64 -66l64 66h113l-127 -159h-102zM41 0v85l239 332h-230v106h391v-84l-240 -334h248v-105h-408z" />
    <glyph glyph-name="scommaaccent.sc" horiz-adv-x="440" 
d="M151 -227c14 13 28 30 28 52c0 35 -40 38 -40 80c0 31 28 53 63 53c39 0 73 -26 73 -69c0 -49 -31 -92 -58 -116h-66zM202 -9c-92 0 -149 30 -173 48l52 93c16 -11 53 -38 114 -38c51 0 81 18 81 48c0 41 -50 49 -121 82c-69 31 -115 72 -115 155c0 100 85 154 185 154
c89 0 136 -26 163 -42l-50 -93c-21 14 -59 31 -105 31c-39 0 -67 -14 -67 -44c0 -37 39 -46 102 -72c72 -31 136 -72 136 -160c0 -103 -75 -162 -202 -162z" />
    <glyph glyph-name="uni021B.sc" horiz-adv-x="475" 
d="M182 -227c14 13 28 30 28 52c0 35 -40 38 -40 80c0 31 28 53 63 53c39 0 73 -26 73 -69c0 -49 -31 -92 -58 -116h-66zM170 0v416h-154v107h443v-107h-155v-416h-134z" />
    <glyph glyph-name="Alphatonos.sc" horiz-adv-x="680" 
d="M240 238h187l-57 159c-21 57 -30 100 -36 115h-2c-5 -16 -16 -61 -35 -115zM15 0l254 666h136l261 -666h-154l-45 125h-266l-44 -125h-142z" />
    <glyph glyph-name="Epsilontonos.sc" horiz-adv-x="530" 
d="M83 0v666h384v-116h-245v-150h216v-110h-216v-174h252v-116h-391z" />
    <glyph glyph-name="Etatonos.sc" horiz-adv-x="745" 
d="M83 0v666h141v-262h298v262h141v-666h-141v288h-298v-288h-141z" />
    <glyph glyph-name="Iotatonos.sc" horiz-adv-x="324" 
d="M89 0v666h141v-666h-141z" />
    <glyph glyph-name="Omicrontonos.sc" horiz-adv-x="773" 
d="M390 -12c-223 0 -347 164 -347 344c0 181 121 346 344 346s343 -163 343 -342c0 -181 -117 -348 -340 -348zM387 102c134 0 194 106 194 230s-58 232 -191 232c-134 0 -197 -104 -197 -228c0 -125 61 -234 194 -234z" />
    <glyph glyph-name="Upsilontonos.sc" horiz-adv-x="598" 
d="M232 0v251l-221 415h157l141 -283h1l140 283h137l-214 -415v-251h-141z" />
    <glyph glyph-name="Omegatonos.sc" horiz-adv-x="764" 
d="M44 0v109h126c-61 43 -115 136 -115 253c0 190 150 316 327 316s328 -126 328 -316c0 -117 -55 -210 -116 -253h127v-109h-282v103c91 60 131 137 131 254c0 110 -78 207 -188 207s-188 -97 -188 -207c0 -117 41 -194 132 -254v-103h-282z" />
    <glyph glyph-name="iotadieresistonos.sc" horiz-adv-x="282" 
d="M74 0v523h134v-523h-134zM38 570c-43 0 -74 32 -74 72c0 38 31 71 74 71s74 -33 74 -71c0 -40 -31 -72 -74 -72zM248 570c-43 0 -74 32 -74 72c0 38 31 71 74 71s74 -33 74 -71c0 -40 -31 -72 -74 -72z" />
    <glyph glyph-name="alphatonos.sc" horiz-adv-x="584" 
d="M213 188h145l-41 112c-17 47 -31 93 -31 94h-2c0 -1 -14 -48 -30 -94zM15 0l210 523h128l216 -523h-142l-34 91h-214l-32 -91h-132z" />
    <glyph glyph-name="epsilontonos.sc" horiz-adv-x="470" 
d="M69 0v523h344v-104h-213v-103h190v-96h-190v-116h218v-104h-349z" />
    <glyph glyph-name="etatonos.sc" horiz-adv-x="629" 
d="M69 0v523h134v-199h224v199h132v-523h-132v216h-224v-216h-134z" />
    <glyph glyph-name="iotatonos.sc" horiz-adv-x="282" 
d="M74 0v523h134v-523h-134z" />
    <glyph glyph-name="upsilondieresistonos.sc" horiz-adv-x="511" 
d="M191 0v197l-181 326h147l106 -210h2l105 210h130l-174 -326v-197h-135zM163 570c-43 0 -74 32 -74 72c0 38 31 71 74 71s74 -33 74 -71c0 -40 -31 -72 -74 -72zM373 570c-43 0 -74 32 -74 72c0 38 31 71 74 71s74 -33 74 -71c0 -40 -31 -72 -74 -72z" />
    <glyph glyph-name="alpha.sc" horiz-adv-x="584" 
d="M213 188h145l-41 112c-17 47 -31 93 -31 94h-2c0 -1 -14 -48 -30 -94zM15 0l210 523h128l216 -523h-142l-34 91h-214l-32 -91h-132z" />
    <glyph glyph-name="beta.sc" horiz-adv-x="516" 
d="M69 0v523h195c103 0 194 -31 194 -133c0 -70 -41 -105 -97 -118v-2c64 -8 119 -49 119 -125c0 -107 -91 -145 -218 -145h-193zM200 96h58c63 0 92 16 92 63c0 44 -28 65 -87 65h-63v-128zM200 310h48c59 0 83 20 83 62c0 39 -26 56 -80 56h-51v-118z" />
    <glyph glyph-name="gamma.sc" horiz-adv-x="421" 
d="M69 0v523h336v-107h-202v-416h-134z" />
    <glyph glyph-name="delta.sc" horiz-adv-x="563" 
d="M168 104h216l-78 196c-18 44 -30 93 -30 94h-2c0 -1 -13 -50 -30 -94zM33 0v81l182 442h127l187 -442v-81h-496z" />
    <glyph glyph-name="epsilon.sc" horiz-adv-x="470" 
d="M69 0v523h344v-104h-213v-103h190v-96h-190v-116h218v-104h-349z" />
    <glyph glyph-name="zeta.sc" horiz-adv-x="486" 
d="M41 0v85l239 332h-230v106h391v-84l-240 -334h248v-105h-408z" />
    <glyph glyph-name="eta.sc" horiz-adv-x="629" 
d="M69 0v523h134v-199h224v199h132v-523h-132v216h-224v-216h-134z" />
    <glyph glyph-name="theta.sc" horiz-adv-x="650" 
d="M327 -9c-187 0 -289 126 -289 270c0 140 100 272 287 272s287 -125 287 -269s-95 -273 -285 -273zM325 97c103 0 146 76 146 164c0 89 -42 166 -144 166s-147 -76 -147 -163c0 -90 45 -167 145 -167zM238 215v96h175v-96h-175z" />
    <glyph glyph-name="iota.sc" horiz-adv-x="282" 
d="M74 0v523h134v-523h-134z" />
    <glyph glyph-name="kappa.sc" horiz-adv-x="544" 
d="M69 0v523h133v-230l180 230h144l-191 -242l196 -281h-148l-181 258v-258h-133z" />
    <glyph glyph-name="lambda.sc" horiz-adv-x="584" 
d="M16 0l209 523h128l216 -523h-142l-110 300c-17 44 -31 93 -31 94h-2c0 -1 -14 -50 -30 -94l-107 -300h-131z" />
    <glyph glyph-name="nu.sc" horiz-adv-x="623" 
d="M69 0v523h133l175 -242c36 -50 59 -92 60 -93h2c0 2 -4 47 -4 87v248h119v-523h-121l-190 262c-36 49 -55 83 -56 85h-2c0 -1 3 -38 3 -77v-270h-119z" />
    <glyph glyph-name="xi.sc" horiz-adv-x="500" 
d="M47 0v109h406v-109h-406zM75 216v104h350v-104h-350zM52 414v109h396v-109h-396z" />
    <glyph glyph-name="omicron.sc" horiz-adv-x="650" 
d="M327 -9c-187 0 -289 126 -289 270c0 140 100 272 287 272s287 -125 287 -269s-95 -273 -285 -273zM325 97c103 0 146 76 146 164c0 89 -42 166 -144 166s-147 -76 -147 -163c0 -90 45 -167 145 -167z" />
    <glyph glyph-name="pi.sc" horiz-adv-x="620" 
d="M69 0v523h482v-523h-133v415h-215v-415h-134z" />
    <glyph glyph-name="rho.sc" horiz-adv-x="510" 
d="M68 0v523h196c123 0 215 -54 215 -172c0 -119 -89 -176 -229 -176h-49v-175h-133zM201 272h48c66 0 99 24 99 78c0 53 -31 75 -95 75h-52v-153z" />
    <glyph glyph-name="sigma1.sc" horiz-adv-x="468" 
d="M39 0v87l135 185l-122 163v88h360v-106h-216l113 -145l-123 -167h244v-105h-391z" />
    <glyph glyph-name="sigma.sc" horiz-adv-x="468" 
d="M39 0v87l135 185l-122 163v88h360v-106h-216l113 -145l-123 -167h244v-105h-391z" />
    <glyph glyph-name="tau.sc" horiz-adv-x="475" 
d="M170 0v416h-154v107h443v-107h-155v-416h-134z" />
    <glyph glyph-name="upsilon.sc" horiz-adv-x="511" 
d="M191 0v197l-181 326h147l106 -210h2l105 210h130l-174 -326v-197h-135z" />
    <glyph glyph-name="phi.sc" horiz-adv-x="708" 
d="M288 0v40c-159 5 -254 100 -254 221c0 118 95 219 254 223v39h133v-39c158 -4 253 -100 253 -221c0 -118 -95 -218 -253 -223v-40h-133zM413 134c81 2 128 54 128 127c0 75 -48 127 -128 129v-256zM296 133v256c-82 -2 -129 -53 -129 -125c0 -75 49 -128 129 -131z" />
    <glyph glyph-name="chi.sc" horiz-adv-x="531" 
d="M19 0l174 269l-165 254h150l95 -155l89 155h132l-159 -254l175 -269h-146l-109 173l-103 -173h-133z" />
    <glyph glyph-name="psi.sc" horiz-adv-x="687" 
d="M282 0v120c-140 20 -237 110 -237 257v146h133v-136c0 -94 46 -149 113 -162v298h116v-300c67 13 112 72 112 159v141h124v-133c0 -152 -94 -248 -228 -269v-121h-133z" />
    <glyph glyph-name="omega.sc" horiz-adv-x="679" 
d="M40 0v105h108c-44 28 -92 99 -92 183c0 145 132 245 284 245s284 -100 284 -245c0 -84 -49 -155 -93 -183h108v-105h-254v98c66 43 96 103 96 182c0 83 -63 147 -141 147c-79 0 -142 -64 -142 -147c0 -79 31 -139 96 -182v-98h-254z" />
    <glyph glyph-name="iotadieresis.sc" horiz-adv-x="282" 
d="M36 570c-43 0 -74 32 -74 72c0 38 31 71 74 71s74 -33 74 -71c0 -40 -31 -72 -74 -72zM246 570c-43 0 -74 32 -74 72c0 38 31 71 74 71s74 -33 74 -71c0 -40 -31 -72 -74 -72zM74 0v523h134v-523h-134z" />
    <glyph glyph-name="upsilondieresis.sc" horiz-adv-x="511" 
d="M153 570c-43 0 -74 32 -74 72c0 38 31 71 74 71s74 -33 74 -71c0 -40 -31 -72 -74 -72zM363 570c-43 0 -74 32 -74 72c0 38 31 71 74 71s74 -33 74 -71c0 -40 -31 -72 -74 -72zM191 0v197l-181 326h147l106 -210h2l105 210h130l-174 -326v-197h-135z" />
    <glyph glyph-name="omicrontonos.sc" horiz-adv-x="650" 
d="M327 -9c-187 0 -289 126 -289 270c0 140 100 272 287 272s287 -125 287 -269s-95 -273 -285 -273zM325 97c103 0 146 76 146 164c0 89 -42 166 -144 166s-147 -76 -147 -163c0 -90 45 -167 145 -167z" />
    <glyph glyph-name="upsilontonos.sc" horiz-adv-x="511" 
d="M191 0v197l-181 326h147l106 -210h2l105 210h130l-174 -326v-197h-135z" />
    </font>
</defs>
</svg>
