<?xml version="1.0" standalone="no"?>
<!DOCTYPE svg PUBLIC "-//W3C//DTD SVG 1.1//EN" "http://www.w3.org/Graphics/SVG/1.1/DTD/svg11.dtd" >
<svg xmlns="http://www.w3.org/2000/svg" xmlns:xlink="http://www.w3.org/1999/xlink" version="1.1">
<metadata>
Created by FontForge 20160407 at Tue Jul 19 21:35:45 2016
 By Jimmy Wärting

</metadata>
<defs>
<font id="KievitPro-Medium" horiz-adv-x="542" >
  <font-face 
    font-family="KievitPro-Medium"
    font-weight="500"
    font-stretch="normal"
    units-per-em="1000"
    panose-1="2 0 5 3 4 0 0 2 0 4"
    ascent="760"
    descent="-240"
    x-height="484"
    cap-height="666"
    bbox="-190 -250 1229 933"
    underline-thickness="20"
    underline-position="-133"
    stemh="81"
    stemv="106"
    unicode-range="U+000D-FB04"
  />
<missing-glyph horiz-adv-x="545" 
d="M72 0v666h401v-666h-401zM156 84h233v498h-233v-498z" />
    <glyph glyph-name="IJ" unicode="IJ" horiz-adv-x="615" 
d="M95 0v666h113v-666h-113zM353 -198c-39 0 -65 7 -80 14l18 93c7 -3 25 -8 43 -8c55 0 78 32 78 108v657h114v-673c0 -123 -63 -191 -173 -191z" />
    <glyph glyph-name="ij" unicode="ij" horiz-adv-x="526" 
d="M133 559c-39 0 -69 31 -69 68s30 68 69 68c40 0 70 -31 70 -68s-30 -68 -70 -68zM80 0v484h107v-484h-107zM296 -232c-42 0 -64 7 -72 10l18 84c6 -2 16 -5 36 -5c50 0 65 35 65 109v518h107v-532c0 -111 -44 -184 -154 -184zM395 559c-39 0 -69 31 -69 68s30 68 69 68
c40 0 69 -31 69 -68s-29 -68 -69 -68z" />
    <glyph glyph-name="uniFB00" unicode="ff" horiz-adv-x="626" 
d="M97 0v403h-79v81h79v53c0 112 72 188 197 188c76 0 114 -20 139 -37c31 28 73 44 128 44c60 0 91 -13 101 -18l-25 -84c-8 3 -30 13 -66 13c-59 0 -88 -37 -88 -108v-51h119v-81h-119v-403h-106v403h-174v-403h-106zM203 484h174v59c0 26 3 47 10 67
c-14 11 -40 26 -86 26c-60 0 -98 -31 -98 -117v-35z" />
    <glyph glyph-name="fi" unicode="fi" horiz-adv-x="565" 
d="M95 0v403h-77v81h77v57c0 115 75 191 204 191c90 0 136 -25 167 -44l-42 -80c-23 14 -59 35 -118 35c-67 0 -105 -37 -105 -111v-48h288v-484h-106v403h-182v-403h-106z" />
    <glyph glyph-name="fl" unicode="fl" horiz-adv-x="574" 
d="M95 0v403h-77v81h77v60c0 119 77 188 211 188c86 0 154 -15 190 -27v-705h-106v631c-13 5 -46 12 -90 12c-69 0 -99 -39 -99 -110v-49h106v-81h-106v-403h-106z" />
    <glyph glyph-name="uniFB03" unicode="ffi" horiz-adv-x="843" 
d="M97 0v403h-79v81h79v53c0 112 72 188 197 188c80 0 118 -22 144 -39c35 30 83 46 143 46c90 0 136 -25 168 -44l-43 -80c-22 14 -59 35 -118 35c-67 0 -105 -37 -105 -111v-48h283v-484h-106v403h-177v-403h-106v403h-174v-403h-106zM203 484h174v57c0 24 4 47 11 67
c-14 11 -39 28 -87 28c-60 0 -98 -31 -98 -117v-35z" />
    <glyph glyph-name="uniFB04" unicode="ffl" horiz-adv-x="857" 
d="M97 0v403h-79v81h79v53c0 112 72 188 197 188c78 0 116 -21 142 -39c37 30 88 46 153 46c85 0 154 -15 189 -27v-705h-106v631c-13 5 -45 12 -90 12c-69 0 -99 -39 -99 -110v-49h114v-81h-114v-403h-106v403h-174v-403h-106zM203 484h174v60c0 24 4 46 10 65
c-14 12 -39 27 -86 27c-60 0 -98 -31 -98 -117v-35z" />
    <glyph glyph-name=".notdef" horiz-adv-x="545" 
d="M72 0v666h401v-666h-401zM156 84h233v498h-233v-498z" />
    <glyph glyph-name=".null" horiz-adv-x="0" 
 />
    <glyph glyph-name=".null" horiz-adv-x="0" 
 />
    <glyph glyph-name="CR" unicode="&#xd;" horiz-adv-x="208" 
 />
    <glyph glyph-name="space" unicode=" " horiz-adv-x="208" 
 />
    <glyph glyph-name="exclam" unicode="!" horiz-adv-x="291" 
d="M145 -9c-41 0 -72 32 -72 71c0 38 31 70 72 70s72 -32 72 -70c0 -39 -31 -71 -72 -71zM103 214l-21 452h126l-21 -452h-84z" />
    <glyph glyph-name="quotedbl" unicode="&#x22;" horiz-adv-x="359" 
d="M65 432l-26 234h114l-13 -234h-75zM219 432l-13 234h114l-26 -234h-75z" />
    <glyph glyph-name="numbersign" unicode="#" horiz-adv-x="512" 
d="M96 96l21 134h-94l14 79h92l14 96h-92l13 79h91l19 126h77l-19 -126h89l20 126h77l-20 -126h90l-14 -79h-88l-13 -96h88l-13 -79h-88l-19 -134h-77l19 134h-89l-20 -134h-78zM205 307h92l15 99h-93z" />
    <glyph glyph-name="dollar" unicode="$" horiz-adv-x="417" 
d="M168 -123v112c-62 6 -107 26 -135 47l39 77c28 -20 75 -43 128 -43c64 0 95 21 95 56c0 45 -71 58 -138 88c-62 30 -113 66 -113 141c0 70 46 121 124 136v105h93v-102c54 -6 93 -25 117 -42l-41 -74c-26 18 -69 35 -115 35c-52 0 -80 -19 -80 -53c0 -40 56 -55 112 -78
c72 -29 141 -64 141 -145c0 -79 -48 -130 -134 -145v-115h-93z" />
    <glyph glyph-name="percent" unicode="%" horiz-adv-x="814" 
d="M186 199c-108 0 -158 74 -158 148c0 72 52 149 160 149c107 0 156 -72 156 -146s-51 -151 -158 -151zM188 265c49 0 66 37 66 82s-20 83 -68 83s-68 -35 -68 -80s21 -85 70 -85zM627 -12c-107 0 -156 74 -156 148c0 73 51 149 158 149c108 0 157 -72 157 -146
s-51 -151 -159 -151zM629 54c49 0 67 37 67 82s-20 83 -68 83c-49 0 -68 -35 -68 -80s21 -85 69 -85zM219 0l290 484h90l-290 -484h-90z" />
    <glyph glyph-name="ampersand" unicode="&#x26;" horiz-adv-x="647" 
d="M264 -12c-148 0 -229 81 -229 184c0 86 44 138 138 190c-50 57 -76 102 -76 158c0 96 79 158 188 158c107 0 177 -61 177 -145c0 -74 -49 -124 -146 -181l146 -157c22 38 39 84 48 134l94 -16c-12 -71 -40 -136 -80 -189l113 -124h-133l-51 55c-53 -42 -118 -67 -189 -67
zM266 408c68 40 95 76 95 120c0 39 -30 71 -76 71c-49 0 -80 -31 -80 -76c0 -36 18 -68 61 -115zM271 75c48 0 89 16 124 45l-167 180c-53 -32 -82 -70 -82 -122c0 -60 46 -103 125 -103z" />
    <glyph glyph-name="quotesingle" unicode="'" horiz-adv-x="200" 
d="M62 432l-21 234h118l-20 -234h-77z" />
    <glyph glyph-name="parenleft" unicode="(" horiz-adv-x="330" 
d="M227 -172c-97 105 -180 260 -180 453c0 187 86 345 180 439h101c-74 -79 -168 -229 -168 -437c0 -197 70 -342 168 -455h-101z" />
    <glyph glyph-name="parenright" unicode=")" horiz-adv-x="330" 
d="M2 -172c80 87 169 234 169 441c0 197 -77 346 -169 451h102c98 -104 180 -260 180 -449c0 -192 -87 -349 -180 -443h-102z" />
    <glyph glyph-name="asterisk" unicode="*" horiz-adv-x="476" 
d="M160 304l-69 49l86 108l-132 39l27 77l127 -48l-6 137h90l-6 -137l127 48l28 -77l-134 -39l87 -108l-69 -49l-78 116z" />
    <glyph glyph-name="plus" unicode="+" horiz-adv-x="566" 
d="M238 23v199h-197v84h197v191h94v-191h193v-84h-193v-199h-94z" />
    <glyph glyph-name="comma" unicode="," horiz-adv-x="255" 
d="M64 -140c23 34 41 74 41 105c0 46 -52 50 -52 108c0 38 30 66 70 66c44 0 82 -35 82 -95c0 -62 -30 -131 -71 -184h-70z" />
    <glyph glyph-name="hyphen" unicode="-" horiz-adv-x="320" 
d="M52 240v88h216v-88h-216z" />
    <glyph glyph-name="period" unicode="." horiz-adv-x="255" 
d="M128 -10c-43 0 -77 33 -77 75s34 74 77 74c42 0 76 -32 76 -74s-34 -75 -76 -75z" />
    <glyph glyph-name="slash" unicode="/" horiz-adv-x="428" 
d="M44 -50l265 733h102l-265 -733h-102z" />
    <glyph glyph-name="zero" unicode="0" horiz-adv-x="578" 
d="M288 -12c-176 0 -253 134 -253 253c0 118 79 255 255 255s254 -132 254 -252c0 -119 -80 -256 -256 -256zM290 75c93 0 140 68 140 166c0 97 -49 168 -142 168c-92 0 -139 -67 -139 -165s48 -169 141 -169z" />
    <glyph glyph-name="one" unicode="1" horiz-adv-x="348" 
d="M162 0v390l-114 -36l-22 85l158 45h83v-484h-105z" />
    <glyph glyph-name="two" unicode="2" horiz-adv-x="496" 
d="M24 0v46c87 67 278 204 278 293c0 43 -28 70 -85 70c-43 0 -90 -22 -121 -54l-55 67c44 43 117 75 189 75c106 0 186 -44 186 -141c0 -107 -138 -211 -221 -273c4 0 36 3 60 3h205v-86h-436z" />
    <glyph glyph-name="three" unicode="3" horiz-adv-x="444" 
d="M136 -188c-51 0 -79 3 -94 6l16 86c9 -2 37 -7 69 -7c93 0 170 44 170 124c0 86 -74 116 -180 116v78c71 1 161 48 161 121c0 46 -30 72 -87 72c-44 0 -79 -18 -111 -47l-51 68c39 37 100 67 179 67c117 0 181 -66 181 -145c0 -83 -74 -142 -134 -158v-1
c79 -10 155 -70 155 -166c0 -134 -120 -214 -274 -214z" />
    <glyph glyph-name="four" unicode="4" horiz-adv-x="584" 
d="M337 -177v177h-311v68l325 416h92v-400h107v-84h-107v-177h-106zM142 84h195v252h-2z" />
    <glyph glyph-name="five" unicode="5" horiz-adv-x="439" 
d="M116 -188c-37 0 -66 5 -79 8l19 86c9 -2 29 -7 64 -7c91 0 170 47 170 140c0 96 -70 132 -163 132c-21 0 -47 -1 -64 -4l21 317h307v-83h-211l-10 -146c155 -2 233 -92 233 -210c0 -134 -106 -233 -287 -233z" />
    <glyph glyph-name="six" unicode="6" horiz-adv-x="529" 
d="M271 -12c-167 0 -233 144 -233 287c0 237 152 403 406 403l23 -86c-93 0 -180 -25 -234 -77c-42 -40 -67 -92 -76 -158c32 27 81 45 135 45c121 0 202 -77 202 -200s-91 -214 -223 -214zM275 72c69 0 106 58 106 120c0 81 -38 126 -110 126c-56 0 -93 -20 -120 -42v-17
c-4 -106 37 -187 124 -187z" />
    <glyph glyph-name="seven" unicode="7" horiz-adv-x="464" 
d="M134 -200l-90 44l259 551h-285v89h406v-63z" />
    <glyph glyph-name="eight" unicode="8" horiz-adv-x="525" 
d="M262 -12c-143 0 -217 81 -217 176c0 71 47 133 133 182c-82 48 -114 98 -114 161c0 102 90 171 197 171c128 0 203 -69 203 -164c0 -63 -43 -112 -124 -159c92 -50 139 -107 139 -185c0 -113 -91 -182 -217 -182zM263 72c69 0 106 44 106 98c0 44 -30 84 -118 132
c-68 -43 -98 -83 -98 -133c0 -56 42 -97 110 -97zM266 398c63 38 90 75 90 110c0 49 -32 87 -91 87c-56 0 -92 -36 -92 -84c0 -39 24 -73 93 -113z" />
    <glyph glyph-name="nine" unicode="9" horiz-adv-x="531" 
d="M74 -185l-22 85c91 0 185 26 244 78c42 38 69 86 77 150c-42 -31 -86 -44 -136 -44c-119 0 -201 79 -201 201c0 123 99 211 226 211c171 0 229 -147 229 -288c0 -237 -150 -393 -417 -393zM259 167c45 0 88 14 120 40l1 18c3 104 -36 187 -122 187
c-60 0 -109 -47 -109 -123c0 -74 38 -122 110 -122z" />
    <glyph glyph-name="colon" unicode=":" horiz-adv-x="259" 
d="M129 -10c-42 0 -76 34 -76 76s34 74 76 74s76 -32 76 -74s-34 -76 -76 -76zM129 342c-42 0 -76 33 -76 75s34 74 76 74s76 -32 76 -74s-34 -75 -76 -75z" />
    <glyph glyph-name="semicolon" unicode=";" horiz-adv-x="259" 
d="M67 -140c23 32 41 72 41 105c0 46 -52 50 -52 108c0 38 30 66 70 66c44 0 82 -35 82 -95c0 -64 -32 -133 -71 -184h-70zM129 342c-42 0 -76 33 -76 75s34 74 76 74s76 -32 76 -74s-34 -75 -76 -75z" />
    <glyph glyph-name="less" unicode="&#x3c;" horiz-adv-x="378" 
d="M281 23l-254 224l253 228l57 -59l-185 -166l186 -164z" />
    <glyph glyph-name="equal" unicode="=" horiz-adv-x="470" 
d="M37 134v85h395v-85h-395zM37 311v84h395v-84h-395z" />
    <glyph glyph-name="greater" unicode="&#x3e;" horiz-adv-x="378" 
d="M98 23l-57 59l185 166l-187 164l58 63l254 -224z" />
    <glyph glyph-name="question" unicode="?" horiz-adv-x="409" 
d="M103 209v58c0 57 19 88 71 121c48 29 81 54 81 111c0 61 -39 90 -104 90c-32 0 -61 -11 -84 -22l-38 80c35 18 81 31 137 31c136 0 203 -74 203 -171c0 -93 -62 -138 -108 -167c-41 -27 -62 -43 -62 -84v-47h-96zM152 -9c-41 0 -72 32 -72 71c0 38 31 70 72 70
s72 -32 72 -70c0 -39 -31 -71 -72 -71z" />
    <glyph glyph-name="at" unicode="@" horiz-adv-x="791" 
d="M385 -95c-213 0 -342 146 -342 336c0 197 156 385 373 385c223 0 341 -158 341 -307c0 -134 -78 -238 -191 -238c-69 0 -103 41 -106 98h-2c-26 -55 -75 -97 -136 -97c-62 0 -98 56 -98 118c0 136 75 266 213 266c51 0 102 -14 134 -24l-27 -155c-6 -33 -11 -60 -11 -78
c0 -31 18 -56 44 -56c59 0 105 67 105 159c0 149 -111 244 -266 244c-151 0 -288 -135 -288 -312c0 -161 95 -268 268 -268c58 0 115 15 147 29l28 -66c-37 -15 -110 -34 -186 -34zM353 160c66 0 106 112 125 207l5 24c-11 4 -36 9 -51 9c-71 0 -115 -90 -115 -184
c0 -28 10 -56 36 -56z" />
    <glyph glyph-name="A" unicode="A" horiz-adv-x="656" 
d="M215 235h216l-69 190c-20 56 -30 92 -38 115h-2c-7 -24 -18 -63 -37 -115zM18 0l254 666h109l259 -666h-123l-52 143h-283l-51 -143h-113z" />
    <glyph glyph-name="B" unicode="B" horiz-adv-x="588" 
d="M89 0v666h201c124 0 225 -43 225 -166c0 -83 -46 -131 -119 -150v-2c81 -13 147 -68 147 -162c0 -136 -105 -186 -256 -186h-198zM200 89h83c97 0 145 30 145 103c0 70 -39 110 -139 110h-89v-213zM200 387h77c87 0 125 31 125 98c0 64 -42 92 -123 92h-79v-190z" />
    <glyph glyph-name="C" unicode="C" horiz-adv-x="617" 
d="M382 -12c-219 0 -334 166 -334 346c0 181 119 344 336 344c86 0 143 -19 194 -52l-53 -83c-38 25 -82 41 -144 41c-140 0 -214 -114 -214 -246c0 -136 71 -255 217 -255c72 0 120 24 156 53l49 -79c-35 -32 -112 -69 -207 -69z" />
    <glyph glyph-name="D" unicode="D" horiz-adv-x="694" 
d="M89 0v666h181c262 0 379 -132 379 -324s-119 -342 -384 -342h-176zM202 91h72c169 0 256 85 256 247c0 164 -83 237 -261 237h-67v-484z" />
    <glyph glyph-name="E" unicode="E" horiz-adv-x="518" 
d="M89 0v666h365v-94h-253v-178h223v-90h-223v-210h260v-94h-372z" />
    <glyph glyph-name="F" unicode="F" horiz-adv-x="501" 
d="M89 0v666h367v-94h-254v-185h223v-91h-223v-296h-113z" />
    <glyph glyph-name="G" unicode="G" horiz-adv-x="709" 
d="M390 -12c-221 0 -342 167 -342 346c0 182 127 344 350 344c94 0 162 -22 215 -61l-53 -84c-46 35 -95 51 -164 51c-157 0 -229 -112 -229 -246c0 -136 69 -257 224 -257c62 0 111 13 138 33v156h-132v90h242v-306c-49 -36 -129 -66 -249 -66z" />
    <glyph glyph-name="H" unicode="H" horiz-adv-x="736" 
d="M89 0v666h113v-271h333v271h113v-666h-113v302h-333v-302h-113z" />
    <glyph glyph-name="I" unicode="I" horiz-adv-x="305" 
d="M95 0v666h113v-666h-113z" />
    <glyph glyph-name="J" unicode="J" horiz-adv-x="309" 
d="M48 -198c-39 0 -65 7 -80 14l18 93c7 -3 25 -8 43 -8c55 0 78 32 78 108v657h114v-673c0 -123 -63 -191 -173 -191z" />
    <glyph glyph-name="K" unicode="K" horiz-adv-x="603" 
d="M89 0v666h112v-306l246 306h127l-255 -311l270 -355h-136l-252 334v-334h-112z" />
    <glyph glyph-name="L" unicode="L" horiz-adv-x="496" 
d="M90 0v666h113v-574h254v-92h-367z" />
    <glyph glyph-name="M" unicode="M" horiz-adv-x="868" 
d="M47 0l91 666h109l148 -430c17 -51 29 -91 37 -118h2c8 26 20 67 38 118l150 430h109l91 -666h-115l-49 385c-6 48 -10 79 -11 95h-2c-5 -18 -14 -50 -29 -94l-133 -386h-110l-135 386c-14 43 -24 76 -30 94h-2c-1 -19 -4 -52 -9 -97l-47 -383h-103z" />
    <glyph glyph-name="N" unicode="N" horiz-adv-x="728" 
d="M87 0v666h113l273 -392c36 -52 58 -91 67 -106h2c-1 11 -4 48 -4 98v400h103v-666h-104l-290 417c-29 40 -49 77 -59 93h-2c1 -10 4 -44 4 -81v-429h-103z" />
    <glyph glyph-name="O" unicode="O" horiz-adv-x="767" 
d="M386 -12c-215 0 -338 163 -338 344c0 182 120 346 335 346c216 0 337 -162 337 -343c0 -182 -119 -347 -334 -347zM383 80c146 0 218 117 218 252c0 136 -70 254 -215 254s-219 -115 -219 -251s72 -255 216 -255z" />
    <glyph glyph-name="P" unicode="P" horiz-adv-x="569" 
d="M88 0v666h195c140 0 246 -66 246 -202c0 -139 -98 -213 -259 -213h-69v-251h-113zM201 340h70c101 0 144 41 144 121c0 72 -40 116 -141 116h-73v-237z" />
    <glyph glyph-name="Q" unicode="Q" horiz-adv-x="767" 
d="M615 -169c-97 0 -176 37 -272 162c-187 17 -295 170 -295 339c0 182 120 346 335 346c216 0 337 -162 337 -343c0 -156 -88 -300 -248 -337c43 -56 81 -81 147 -81c38 0 67 18 80 28l38 -77c-20 -17 -63 -37 -122 -37zM383 80c146 0 218 117 218 252
c0 136 -70 254 -215 254s-219 -115 -219 -251s72 -255 216 -255z" />
    <glyph glyph-name="R" unicode="R" horiz-adv-x="598" 
d="M89 0v666h204c148 0 234 -66 234 -185c0 -110 -77 -166 -169 -177v-2c16 -11 37 -34 74 -90l146 -212h-127l-127 189c-64 92 -75 100 -113 100h-9v-289h-113zM202 373h87c86 0 125 37 125 103s-41 101 -131 101h-81v-204z" />
    <glyph glyph-name="S" unicode="S" horiz-adv-x="509" 
d="M235 -12c-105 0 -172 43 -198 67l51 79c15 -12 64 -54 147 -54c74 0 119 43 119 93c0 69 -73 93 -150 132c-82 40 -149 87 -149 195c0 112 94 178 206 178c104 0 161 -36 186 -55l-49 -80c-23 16 -70 43 -133 43c-60 0 -101 -31 -101 -84c0 -58 53 -81 121 -112
c88 -41 180 -86 180 -212c0 -114 -90 -190 -230 -190z" />
    <glyph glyph-name="T" unicode="T" horiz-adv-x="519" 
d="M203 0v572h-186v94h485v-94h-185v-572h-114z" />
    <glyph glyph-name="U" unicode="U" horiz-adv-x="704" 
d="M356 -12c-188 0 -272 100 -272 266v412h113v-401c0 -124 48 -183 162 -183c108 0 156 68 156 172v412h105v-403c0 -173 -86 -275 -264 -275z" />
    <glyph glyph-name="V" unicode="V" horiz-adv-x="643" 
d="M272 0l-257 666h122l154 -426c18 -52 31 -98 37 -113h2c5 16 18 62 36 113l149 426h113l-248 -666h-108z" />
    <glyph glyph-name="W" unicode="W" horiz-adv-x="896" 
d="M199 0l-180 666h121l97 -391c12 -52 23 -116 24 -120h2c1 4 15 71 28 122l108 389h112l106 -387c14 -53 26 -119 27 -122h2c1 3 10 66 24 120l99 389h109l-183 -666h-103l-111 405c-15 54 -27 123 -28 126h-2c-1 -3 -16 -71 -31 -126l-117 -405h-104z" />
    <glyph glyph-name="X" unicode="X" horiz-adv-x="593" 
d="M22 0l211 343l-201 323h129l141 -230l133 230h116l-194 -322l214 -344h-128l-156 253l-150 -253h-115z" />
    <glyph glyph-name="Y" unicode="Y" horiz-adv-x="579" 
d="M236 0v252l-222 414h126l157 -309h1l157 309h110l-216 -414v-252h-113z" />
    <glyph glyph-name="Z" unicode="Z" horiz-adv-x="566" 
d="M46 0v75l331 499h-316v92h452v-72l-335 -502h345v-92h-477z" />
    <glyph glyph-name="bracketleft" unicode="[" horiz-adv-x="326" 
d="M72 -161v881h228v-80h-126v-721h126v-80h-228z" />
    <glyph glyph-name="backslash" unicode="\" horiz-adv-x="428" 
d="M322 -161l-318 881h102l318 -881h-102z" />
    <glyph glyph-name="bracketright" unicode="]" horiz-adv-x="326" 
d="M26 -161v80h126v721h-126v80h228v-881h-228z" />
    <glyph glyph-name="asciicircum" unicode="^" horiz-adv-x="584" 
d="M52 288l203 378h73l203 -378h-97l-142 268l-142 -268h-98z" />
    <glyph glyph-name="underscore" unicode="_" horiz-adv-x="416" 
d="M-1 -173v84h418v-84h-418z" />
    <glyph glyph-name="grave" unicode="`" horiz-adv-x="500" 
d="M274 541l-137 131h143l87 -131h-93z" />
    <glyph glyph-name="a" unicode="a" horiz-adv-x="489" 
d="M180 -12c-81 0 -142 50 -142 134c0 126 135 169 258 169h19v35c0 58 -25 83 -87 83c-49 0 -89 -19 -124 -49l-50 68c43 39 104 68 185 68c120 0 182 -51 182 -171v-197c0 -57 6 -101 12 -128h-105c-3 13 -7 40 -8 55c-28 -36 -78 -67 -140 -67zM208 70c47 0 82 23 107 54
v97h-19c-89 0 -152 -25 -152 -93c0 -42 34 -58 64 -58z" />
    <glyph glyph-name="b" unicode="b" horiz-adv-x="538" 
d="M251 -12c-83 0 -148 20 -181 38v694h106v-274c27 27 71 50 120 50c126 0 207 -92 207 -251c0 -157 -108 -257 -252 -257zM252 74c90 0 138 71 138 170c0 95 -35 164 -121 164c-38 0 -75 -21 -93 -41v-281c16 -7 42 -12 76 -12z" />
    <glyph glyph-name="c" unicode="c" horiz-adv-x="450" 
d="M271 -12c-149 0 -236 111 -236 254c0 164 105 254 240 254c79 0 125 -27 148 -43l-39 -75c-24 16 -55 34 -107 34c-88 0 -130 -70 -130 -167c0 -96 42 -172 132 -172c58 0 96 25 111 34l35 -73c-20 -16 -67 -46 -154 -46z" />
    <glyph glyph-name="d" unicode="d" 
d="M234 -12c-119 0 -199 91 -199 253c0 154 92 255 215 255c51 0 91 -15 117 -38v262h106v-599c0 -48 7 -92 14 -121h-105c-4 11 -9 37 -10 54c-33 -40 -78 -66 -138 -66zM263 76c41 0 80 24 104 57v240c-25 23 -55 37 -98 37c-78 0 -121 -67 -121 -168
c0 -100 35 -166 115 -166z" />
    <glyph glyph-name="e" unicode="e" horiz-adv-x="506" 
d="M277 -12c-158 0 -242 108 -242 257c0 148 97 251 229 251c130 0 202 -86 202 -228c0 -13 -1 -28 -2 -42h-316c5 -86 43 -155 137 -155c66 0 107 26 129 38l37 -73c-28 -17 -80 -48 -174 -48zM149 302h212c-2 61 -28 113 -99 113c-65 0 -101 -45 -113 -113z" />
    <glyph glyph-name="f" unicode="f" horiz-adv-x="344" 
d="M95 0v403h-77v81h77v59c0 114 66 189 184 189c60 0 91 -13 101 -18l-26 -84c-7 3 -30 13 -65 13c-59 0 -88 -38 -88 -108v-51h118v-81h-118v-403h-106z" />
    <glyph glyph-name="g" unicode="g" horiz-adv-x="523" 
d="M241 -238c-122 0 -204 40 -204 132c0 54 34 94 82 121c-27 15 -43 37 -43 73c0 39 24 67 52 84c-55 30 -86 83 -86 147c0 103 78 177 206 177c29 0 57 -4 81 -12h168v-74h-70c17 -26 27 -57 27 -91c0 -102 -75 -176 -203 -176c-19 0 -38 2 -55 5c-17 -9 -25 -19 -25 -33
c0 -26 29 -34 85 -36c103 -6 239 -3 239 -149c0 -101 -110 -168 -254 -168zM247 -163c87 0 141 35 141 84c0 62 -56 62 -120 66c-26 2 -54 3 -78 7c-34 -22 -51 -49 -51 -83c0 -42 32 -74 108 -74zM248 218c63 0 101 40 101 101c0 62 -38 102 -101 102
c-64 0 -101 -40 -101 -102c0 -61 37 -101 101 -101z" />
    <glyph glyph-name="h" unicode="h" horiz-adv-x="543" 
d="M70 0v720h106v-299c23 27 72 75 154 75c104 0 144 -68 144 -154v-342h-106v320c0 54 -19 85 -74 85c-61 0 -108 -60 -118 -73v-332h-106z" />
    <glyph glyph-name="i" unicode="i" horiz-adv-x="267" 
d="M133 559c-39 0 -69 31 -69 68s30 68 69 68c40 0 70 -31 70 -68s-30 -68 -70 -68zM80 0v484h107v-484h-107z" />
    <glyph glyph-name="j" unicode="j" horiz-adv-x="259" 
d="M30 -232c-42 0 -64 7 -72 10l18 84c6 -2 16 -5 36 -5c50 0 65 35 65 109v518h107v-532c0 -111 -44 -184 -154 -184zM129 559c-39 0 -69 31 -69 68s30 68 69 68c40 0 69 -31 69 -68s-29 -68 -69 -68z" />
    <glyph glyph-name="k" unicode="k" horiz-adv-x="495" 
d="M70 0v720h106v-444l180 208h119l-189 -215l196 -269h-125l-181 255v-255h-106z" />
    <glyph glyph-name="l" unicode="l" horiz-adv-x="260" 
d="M77 0v720h106v-720h-106z" />
    <glyph glyph-name="m" unicode="m" horiz-adv-x="809" 
d="M72 0v484h105v-64c23 28 67 76 147 76c69 0 107 -33 124 -79c39 44 85 79 155 79c100 0 137 -67 137 -154v-342h-106v320c0 53 -15 85 -67 85c-49 0 -87 -38 -108 -64v-341h-106v320c0 54 -19 85 -66 85c-58 0 -98 -59 -108 -72v-333h-107z" />
    <glyph glyph-name="n" unicode="n" horiz-adv-x="545" 
d="M72 0v484h105v-65c39 47 91 77 155 77c104 0 144 -68 144 -154v-342h-106v320c0 54 -19 85 -74 85c-48 0 -91 -37 -117 -73v-332h-107z" />
    <glyph glyph-name="o" unicode="o" horiz-adv-x="540" 
d="M269 -12c-167 0 -234 134 -234 253s65 255 232 255c166 0 239 -133 239 -252c0 -118 -71 -256 -237 -256zM270 72c87 0 123 72 123 169c0 96 -41 172 -128 172c-86 0 -118 -73 -118 -169s37 -172 123 -172z" />
    <glyph glyph-name="p" unicode="p" horiz-adv-x="546" 
d="M72 -219v703h105v-51c26 31 69 63 137 63c120 0 197 -92 197 -253c0 -153 -90 -255 -216 -255c-63 0 -99 23 -116 38v-245h-107zM277 73c78 0 121 68 121 169c0 99 -36 166 -113 166c-57 0 -95 -42 -106 -58v-239c19 -17 48 -38 98 -38z" />
    <glyph glyph-name="q" unicode="q" horiz-adv-x="540" 
d="M362 -218v256c-22 -23 -65 -50 -119 -50c-126 0 -207 93 -207 251c0 157 110 257 252 257c104 0 164 -28 181 -36v-678h-107zM270 75c47 0 85 33 92 42v280c-9 3 -32 13 -74 13c-91 0 -139 -72 -139 -170c0 -96 34 -165 121 -165z" />
    <glyph glyph-name="r" unicode="r" horiz-adv-x="370" 
d="M72 0v484h107v-70c20 34 61 82 125 82c33 0 50 -7 59 -12l-26 -95c-7 4 -20 10 -47 10c-65 0 -102 -67 -111 -85v-314h-107z" />
    <glyph glyph-name="s" unicode="s" horiz-adv-x="415" 
d="M196 -13c-79 0 -133 26 -163 47l39 76c18 -13 64 -40 119 -40s88 20 88 56c0 38 -45 51 -115 83c-71 32 -119 68 -119 145c0 84 65 142 168 142c82 0 131 -30 150 -42l-42 -74c-18 12 -55 33 -105 33c-49 0 -73 -20 -73 -53c0 -39 42 -52 96 -74c78 -32 141 -67 141 -149
c0 -95 -71 -150 -184 -150z" />
    <glyph glyph-name="t" unicode="t" horiz-adv-x="369" 
d="M239 -12c-99 0 -139 54 -139 141v274h-78v81h78v139h106v-139h117v-81h-117v-257c0 -48 13 -70 52 -70c29 0 55 14 64 20l30 -80c-18 -10 -56 -28 -113 -28z" />
    <glyph glyph-name="u" unicode="u" horiz-adv-x="544" 
d="M212 -12c-105 0 -144 68 -144 154v342h106v-320c0 -54 19 -85 74 -85c61 0 107 60 117 73v332h106v-361c0 -53 6 -98 12 -123h-106c-3 12 -8 46 -9 68c-24 -32 -74 -80 -156 -80z" />
    <glyph glyph-name="v" unicode="v" horiz-adv-x="487" 
d="M195 0l-182 484h115l117 -350h2l117 350h109l-179 -484h-99z" />
    <glyph glyph-name="w" unicode="w" horiz-adv-x="723" 
d="M154 0l-140 484h114l87 -334h2l96 334h100l97 -335h2l88 335h106l-141 -484h-96l-108 347h-2l-109 -347h-96z" />
    <glyph glyph-name="x" unicode="x" horiz-adv-x="489" 
d="M19 0l166 252l-158 232h120l100 -150l92 150h110l-151 -227l173 -257h-120l-116 175l-107 -175h-109z" />
    <glyph glyph-name="y" unicode="y" horiz-adv-x="495" 
d="M69 -233c-34 0 -53 4 -63 7l15 85c7 -1 16 -4 43 -4c68 0 93 35 115 96l21 56l-182 477h115l122 -349h3l114 349h110l-202 -541c-39 -104 -85 -176 -211 -176z" />
    <glyph glyph-name="z" unicode="z" horiz-adv-x="442" 
d="M40 0v61l227 341h-215v82h344v-64l-226 -338h229v-82h-359z" />
    <glyph glyph-name="braceleft" unicode="{" horiz-adv-x="384" 
d="M254 -161c-56 0 -115 37 -115 117v184c0 64 -38 103 -112 105v80c73 2 112 38 112 105v174c0 81 57 116 115 116h105v-80h-64c-44 0 -54 -28 -54 -73v-159c0 -73 -40 -105 -94 -120v-2c55 -17 94 -52 94 -127v-169c0 -48 9 -71 53 -71h65v-80h-105z" />
    <glyph glyph-name="bar" unicode="|" horiz-adv-x="285" 
d="M97 -250v1000h91v-1000h-91z" />
    <glyph glyph-name="braceright" unicode="}" horiz-adv-x="384" 
d="M26 -161v80h63c44 0 54 28 54 73v170c0 73 40 105 95 120v2c-56 17 -95 52 -95 127v158c0 48 -8 71 -53 71h-64v80h105c56 0 114 -37 114 -117v-173c0 -64 38 -103 113 -105v-80c-73 -2 -113 -38 -113 -105v-185c0 -81 -57 -116 -114 -116h-105z" />
    <glyph glyph-name="asciitilde" unicode="~" horiz-adv-x="586" 
d="M393 171c-102 0 -132 63 -209 63c-43 0 -70 -22 -89 -40l-50 63c29 28 80 66 145 66c91 0 119 -63 209 -63c37 0 70 20 93 41l49 -63c-33 -33 -86 -67 -148 -67z" />
    <glyph glyph-name="uni00A0" unicode="&#xa0;" horiz-adv-x="208" 
 />
    <glyph glyph-name="exclamdown" unicode="&#xa1;" horiz-adv-x="288" 
d="M146 355c-41 0 -72 32 -72 70c0 39 31 71 72 71s72 -32 72 -71c0 -38 -31 -70 -72 -70zM82 -179l21 453h85l21 -453h-127z" />
    <glyph glyph-name="cent" unicode="&#xa2;" horiz-adv-x="450" 
d="M208 -123v118c-112 26 -173 126 -173 247c0 136 73 222 173 246v108h94v-101c63 -5 101 -28 121 -42l-39 -75c-24 16 -55 34 -107 34c-88 0 -130 -70 -130 -167c0 -96 42 -172 132 -172c58 0 96 25 111 34l35 -73c-18 -14 -56 -39 -123 -45v-112h-94z" />
    <glyph glyph-name="sterling" unicode="&#xa3;" horiz-adv-x="493" 
d="M61 282v79h86c-6 38 -12 80 -12 127c0 111 67 190 201 190c66 0 106 -19 133 -36l-45 -76c-18 11 -43 24 -91 24c-60 0 -87 -42 -87 -109c0 -37 6 -79 12 -120h147v-79h-138c1 -10 2 -21 2 -30c0 -85 -40 -143 -69 -166h245v-86h-386v69c73 38 102 115 102 179
c0 11 -1 22 -2 34h-98z" />
    <glyph glyph-name="currency" unicode="&#xa4;" horiz-adv-x="586" 
d="M133 -8l-76 58l78 99c-28 35 -41 80 -41 122c0 44 15 90 45 126l-80 101l76 58l78 -105c24 10 51 16 83 16c29 0 54 -4 75 -13l77 102l76 -58l-76 -95c34 -36 50 -86 50 -132s-14 -93 -46 -129l71 -92l-76 -58l-71 97c-23 -9 -49 -15 -80 -15c-34 0 -63 7 -88 18z
M296 163c64 0 103 48 103 108c0 61 -40 109 -103 109c-62 0 -104 -48 -104 -109c0 -60 41 -108 104 -108z" />
    <glyph glyph-name="yen" unicode="&#xa5;" horiz-adv-x="555" 
d="M226 0v89h-162v78h162v64h-162v77h131l-192 358h126l157 -310h1l157 310h110l-187 -358h132v-77h-162v-64h162v-78h-162v-89h-111z" />
    <glyph glyph-name="brokenbar" unicode="&#xa6;" horiz-adv-x="212" 
d="M59 -250v378h91v-378h-91zM59 382v368h91v-368h-91z" />
    <glyph glyph-name="section" unicode="&#xa7;" horiz-adv-x="466" 
d="M198 -152c-62 0 -105 19 -127 33l37 79c17 -11 43 -25 82 -25c53 0 79 30 79 73c0 94 -217 185 -217 338c0 63 38 107 73 130c-18 25 -33 58 -33 97c0 102 82 159 168 159c68 0 107 -20 130 -37l-43 -73c-14 10 -34 26 -78 26c-49 0 -72 -34 -72 -70
c0 -98 216 -188 216 -344c0 -63 -41 -105 -71 -130c18 -27 33 -60 33 -93c0 -114 -86 -163 -177 -163zM284 169c16 15 27 34 27 62c0 56 -89 136 -133 183c-15 -13 -24 -30 -24 -63c0 -54 87 -136 130 -182z" />
    <glyph glyph-name="dieresis" unicode="&#xa8;" horiz-adv-x="500" 
d="M150 540c-37 0 -65 29 -65 64c0 34 28 63 65 63s65 -29 65 -63c0 -35 -28 -64 -65 -64zM350 540c-37 0 -65 29 -65 64c0 34 28 63 65 63s65 -29 65 -63c0 -35 -28 -64 -65 -64z" />
    <glyph glyph-name="copyright" unicode="&#xa9;" horiz-adv-x="849" 
d="M431 132c-129 0 -224 100 -224 227c0 129 99 227 225 227c74 0 116 -27 145 -52l-46 -63c-19 16 -47 37 -98 37c-86 0 -133 -73 -133 -147c0 -86 59 -152 137 -152c55 0 88 27 108 44l41 -63c-28 -25 -77 -58 -155 -58zM424 -14c-205 0 -372 167 -372 373
s167 373 372 373c206 0 373 -167 373 -373s-167 -373 -373 -373zM424 52c174 0 302 125 302 307c0 181 -128 307 -302 307c-173 0 -302 -126 -302 -307c0 -182 129 -307 302 -307z" />
    <glyph glyph-name="ordfeminine" unicode="&#xaa;" horiz-adv-x="370" 
d="M137 313c-62 0 -109 38 -109 98c0 38 17 66 42 84c36 28 93 37 156 37v22c0 35 -14 56 -59 56c-42 0 -72 -22 -88 -34l-40 54c21 18 66 48 135 48c90 0 136 -38 136 -124v-138c0 -40 4 -71 10 -94h-84c-3 9 -5 23 -6 34c-19 -20 -50 -43 -93 -43zM155 378
c38 0 60 22 71 34v65c-49 0 -82 -4 -102 -25c-9 -10 -13 -20 -13 -35c0 -25 18 -39 44 -39z" />
    <glyph glyph-name="guillemotleft" unicode="&#xab;" horiz-adv-x="511" 
d="M164 54l-126 191l126 192h109l-125 -192l125 -191h-109zM366 54l-126 191l126 192h110l-125 -192l125 -191h-110z" />
    <glyph glyph-name="logicalnot" unicode="&#xac;" horiz-adv-x="608" 
d="M470 31v194h-430v85h520v-279h-90z" />
    <glyph glyph-name="uni00AD" unicode="&#xad;" horiz-adv-x="320" 
d="M52 240v88h216v-88h-216z" />
    <glyph glyph-name="registered" unicode="&#xae;" horiz-adv-x="849" 
d="M285 147v433h147c95 0 145 -54 145 -125c0 -65 -43 -103 -107 -113c16 -12 32 -30 51 -61l89 -134h-92l-93 144c-20 32 -31 41 -60 41v-185h-80zM424 -14c-205 0 -372 167 -372 373s167 373 372 373c206 0 373 -167 373 -373s-167 -373 -373 -373zM424 52
c174 0 302 125 302 307c0 181 -128 307 -302 307c-173 0 -302 -126 -302 -307c0 -182 129 -307 302 -307zM365 390h42c45 0 86 10 86 63c0 38 -19 63 -73 63h-55v-126z" />
    <glyph glyph-name="macron" unicode="&#xaf;" horiz-adv-x="500" 
d="M111 567v80h277v-80h-277z" />
    <glyph glyph-name="degree" unicode="&#xb0;" horiz-adv-x="346" 
d="M173 406c-75 0 -138 61 -138 136s63 136 138 136s138 -61 138 -136s-62 -136 -138 -136zM173 471c40 0 68 31 68 71s-28 72 -68 72s-68 -32 -68 -72s28 -71 68 -71z" />
    <glyph glyph-name="plusminus" unicode="&#xb1;" horiz-adv-x="574" 
d="M238 23v199h-196v84h196v191h94v-191h193v-84h-193v-199h-94zM62 -135v85h446v-85h-446z" />
    <glyph glyph-name="twosuperior" unicode="&#xb2;" horiz-adv-x="340" 
d="M29 334v45c74 59 161 124 161 184c0 30 -21 43 -48 43c-30 0 -56 -14 -77 -32l-42 53c30 25 70 45 131 45c86 0 126 -41 126 -99c0 -66 -63 -123 -128 -175c4 1 28 2 45 2h100v-66h-268z" />
    <glyph glyph-name="threesuperior" unicode="&#xb3;" horiz-adv-x="315" 
d="M101 328c-33 0 -66 6 -78 11l16 63c12 -4 38 -10 59 -10c47 0 80 15 80 43c0 31 -38 43 -100 44v53c55 1 91 19 91 46c0 19 -18 29 -46 29c-25 0 -54 -13 -67 -23l-33 53c22 16 69 35 120 35c73 0 114 -29 114 -77c0 -44 -35 -68 -72 -77v-1c41 -4 84 -30 84 -82
c0 -68 -63 -107 -168 -107z" />
    <glyph glyph-name="acute" unicode="&#xb4;" horiz-adv-x="500" 
d="M147 541l87 131h144l-138 -131h-93z" />
    <glyph glyph-name="uni00B5" unicode="&#xb5;" horiz-adv-x="557" 
d="M69 -208v692h106v-326c0 -44 11 -79 66 -79c57 0 103 45 126 73v332h106v-365c0 -46 5 -96 10 -119h-105c-3 11 -8 45 -9 67c-23 -26 -69 -74 -141 -77c-20 0 -41 3 -55 11h-3c2 -17 4 -61 4 -105v-104h-105z" />
    <glyph glyph-name="paragraph" unicode="&#xb6;" horiz-adv-x="654" 
d="M251 -177v439c-111 0 -201 78 -201 201c0 122 90 203 201 203h355v-86h-77v-757h-94v757h-89v-757h-95z" />
    <glyph glyph-name="periodcentered" unicode="&#xb7;" horiz-adv-x="241" 
d="M121 216c-43 0 -77 33 -77 75c0 41 34 74 77 74c42 0 76 -33 76 -74c0 -42 -34 -75 -76 -75z" />
    <glyph glyph-name="cedilla" unicode="&#xb8;" horiz-adv-x="497" 
d="M228 -225c-40 0 -63 8 -75 14l14 51c10 -5 28 -11 53 -11c29 0 48 13 48 37c0 35 -36 41 -71 39l36 97h65l-23 -62c42 -7 71 -35 71 -76c0 -55 -51 -89 -118 -89z" />
    <glyph glyph-name="onesuperior" unicode="&#xb9;" horiz-adv-x="272" 
d="M106 334v260l-72 -19l-19 65l112 26h64v-332h-85z" />
    <glyph glyph-name="ordmasculine" unicode="&#xba;" horiz-adv-x="403" 
d="M200 313c-118 0 -170 91 -170 182c0 92 51 184 169 184s174 -90 174 -181c0 -92 -55 -185 -173 -185zM202 379c58 0 78 47 78 116s-24 118 -82 118s-77 -46 -77 -115c0 -70 23 -119 81 -119z" />
    <glyph glyph-name="guillemotright" unicode="&#xbb;" horiz-adv-x="511" 
d="M35 54l125 191l-125 192h109l126 -192l-126 -191h-109zM237 54l125 191l-125 192h109l127 -192l-127 -191h-109z" />
    <glyph glyph-name="onequarter" unicode="&#xbc;" horiz-adv-x="701" 
d="M106 334v260l-72 -19l-19 65l112 26h64v-332h-85zM82 0l413 666h86l-413 -666h-86zM546 0v65h-172v53l177 214h79v-204h54v-63h-54v-65h-84zM459 126c9 1 25 2 44 2h46v108h-1z" />
    <glyph glyph-name="onehalf" unicode="&#xbd;" horiz-adv-x="731" 
d="M106 334v260l-72 -19l-19 65l112 26h64v-332h-85zM82 0l413 666h86l-413 -666h-86zM421 0v45c74 59 160 124 160 184c0 30 -20 43 -47 43c-31 0 -56 -14 -77 -32l-42 53c29 25 69 45 131 45c86 0 126 -41 126 -99c0 -66 -63 -123 -128 -174c4 0 28 1 45 1h99v-66h-267z
" />
    <glyph glyph-name="threequarters" unicode="&#xbe;" horiz-adv-x="744" 
d="M101 328c-33 0 -66 6 -78 11l16 63c12 -4 38 -10 59 -10c47 0 80 15 80 43c0 31 -38 43 -100 44v53c55 1 91 19 91 46c0 19 -18 29 -46 29c-25 0 -54 -13 -67 -23l-33 53c22 16 69 35 120 35c73 0 114 -29 114 -77c0 -44 -35 -68 -72 -77v-1c41 -4 84 -30 84 -82
c0 -68 -63 -107 -168 -107zM125 0l412 666h86l-412 -666h-86zM589 0v65h-172v53l176 214h80v-204h54v-63h-54v-65h-84zM502 126c9 1 25 2 43 2h46v108h-1z" />
    <glyph glyph-name="questiondown" unicode="&#xbf;" horiz-adv-x="406" 
d="M243 -191c-136 0 -203 74 -203 171c0 93 62 138 108 167c42 27 63 43 63 84v47h95v-58c0 -57 -18 -88 -71 -120c-48 -30 -81 -54 -81 -112c0 -61 39 -90 104 -90c37 0 67 13 85 22l37 -80c-27 -14 -72 -31 -137 -31zM257 355c-41 0 -72 32 -72 70c0 39 31 71 72 71
s72 -32 72 -71c0 -38 -31 -70 -72 -70z" />
    <glyph glyph-name="Agrave" unicode="&#xc0;" horiz-adv-x="656" 
d="M215 235h216l-69 190c-20 56 -30 92 -38 115h-2c-7 -24 -18 -63 -37 -115zM18 0l254 666h109l259 -666h-123l-52 143h-283l-51 -143h-113zM284 718l-137 131h143l87 -131h-93z" />
    <glyph glyph-name="Aacute" unicode="&#xc1;" horiz-adv-x="656" 
d="M215 235h216l-69 190c-20 56 -30 92 -38 115h-2c-7 -24 -18 -63 -37 -115zM18 0l254 666h109l259 -666h-123l-52 143h-283l-51 -143h-113zM271 718l87 131h144l-138 -131h-93z" />
    <glyph glyph-name="Acircumflex" unicode="&#xc2;" horiz-adv-x="656" 
d="M215 235h216l-69 190c-20 56 -30 92 -38 115h-2c-7 -24 -18 -63 -37 -115zM18 0l254 666h109l259 -666h-123l-52 143h-283l-51 -143h-113zM159 719l125 156h80l124 -156h-94l-72 74l-70 -74h-93z" />
    <glyph glyph-name="Atilde" unicode="&#xc3;" horiz-adv-x="656" 
d="M215 235h216l-69 190c-20 56 -30 92 -38 115h-2c-7 -24 -18 -63 -37 -115zM18 0l254 666h109l259 -666h-123l-52 143h-283l-51 -143h-113zM378 722c-55 0 -73 37 -113 37c-24 0 -42 -22 -52 -32l-51 46c19 30 54 69 104 69c56 0 74 -37 113 -37c28 0 45 21 54 31l51 -47
c-21 -30 -55 -67 -106 -67z" />
    <glyph glyph-name="Adieresis" unicode="&#xc4;" horiz-adv-x="656" 
d="M215 235h216l-69 190c-20 56 -30 92 -38 115h-2c-7 -24 -18 -63 -37 -115zM18 0l254 666h109l259 -666h-123l-52 143h-283l-51 -143h-113zM223 717c-37 0 -65 29 -65 64c0 34 28 63 65 63s65 -29 65 -63c0 -35 -28 -64 -65 -64zM423 717c-37 0 -65 29 -65 64
c0 34 28 63 65 63s65 -29 65 -63c0 -35 -28 -64 -65 -64z" />
    <glyph glyph-name="Aring" unicode="&#xc5;" horiz-adv-x="656" 
d="M215 235h216l-69 190c-20 56 -30 92 -38 115h-2c-7 -24 -18 -63 -37 -115zM18 0l254 666h109l259 -666h-123l-52 143h-283l-51 -143h-113zM323 704c-54 0 -103 44 -103 101s49 101 103 101s103 -44 103 -101s-49 -101 -103 -101zM323 753c30 0 48 25 48 52
c0 29 -18 53 -48 53s-48 -24 -48 -53c0 -27 18 -52 48 -52z" />
    <glyph glyph-name="AE" unicode="&#xc6;" horiz-adv-x="839" 
d="M-20 0l381 666h414v-94h-253v-178h223v-90h-223v-210h260v-94h-372v159h-219l-88 -159h-123zM240 249h170v308z" />
    <glyph glyph-name="Ccedilla" unicode="&#xc7;" horiz-adv-x="617" 
d="M315 -225c-40 0 -63 8 -75 14l14 51c10 -5 28 -11 53 -11c29 0 48 13 48 37c0 35 -36 41 -71 39l33 89c-177 29 -269 179 -269 340c0 181 119 344 336 344c86 0 143 -19 194 -52l-53 -83c-38 25 -82 41 -144 41c-140 0 -214 -114 -214 -246c0 -136 71 -255 217 -255
c72 0 120 24 156 53l49 -79c-35 -32 -112 -69 -207 -69h-2l-18 -48c42 -7 71 -35 71 -76c0 -55 -51 -89 -118 -89z" />
    <glyph glyph-name="Egrave" unicode="&#xc8;" horiz-adv-x="518" 
d="M89 0v666h365v-94h-253v-178h223v-90h-223v-210h260v-94h-372zM235 718l-137 131h143l87 -131h-93z" />
    <glyph glyph-name="Eacute" unicode="&#xc9;" horiz-adv-x="518" 
d="M222 718l87 131h144l-138 -131h-93zM89 0v666h365v-94h-253v-178h223v-90h-223v-210h260v-94h-372z" />
    <glyph glyph-name="Ecircumflex" unicode="&#xca;" horiz-adv-x="518" 
d="M109 719l125 156h80l124 -156h-94l-72 74l-70 -74h-93zM89 0v666h365v-94h-253v-178h223v-90h-223v-210h260v-94h-372z" />
    <glyph glyph-name="Edieresis" unicode="&#xcb;" horiz-adv-x="518" 
d="M173 717c-37 0 -65 29 -65 64c0 34 28 63 65 63s65 -29 65 -63c0 -35 -28 -64 -65 -64zM373 717c-37 0 -65 29 -65 64c0 34 28 63 65 63s65 -29 65 -63c0 -35 -28 -64 -65 -64zM89 0v666h365v-94h-253v-178h223v-90h-223v-210h260v-94h-372z" />
    <glyph glyph-name="Igrave" unicode="&#xcc;" horiz-adv-x="305" 
d="M95 0v666h113v-666h-113zM112 718l-137 131h143l87 -131h-93z" />
    <glyph glyph-name="Iacute" unicode="&#xcd;" horiz-adv-x="305" 
d="M95 0v666h113v-666h-113zM100 718l87 131h144l-138 -131h-93z" />
    <glyph glyph-name="Icircumflex" unicode="&#xce;" horiz-adv-x="305" 
d="M95 0v666h113v-666h-113zM-12 719l125 156h80l124 -156h-94l-72 74l-70 -74h-93z" />
    <glyph glyph-name="Idieresis" unicode="&#xcf;" horiz-adv-x="305" 
d="M95 0v666h113v-666h-113zM52 717c-37 0 -65 29 -65 64c0 34 28 63 65 63s65 -29 65 -63c0 -35 -28 -64 -65 -64zM252 717c-37 0 -65 29 -65 64c0 34 28 63 65 63s65 -29 65 -63c0 -35 -28 -64 -65 -64z" />
    <glyph glyph-name="Eth" unicode="&#xd0;" horiz-adv-x="681" 
d="M89 0v300h-67v81h67v285h181c262 0 379 -132 379 -324s-119 -342 -384 -342h-176zM202 91h72c169 0 256 85 256 247c0 164 -83 237 -261 237h-67v-194h107v-81h-107v-209z" />
    <glyph glyph-name="Ntilde" unicode="&#xd1;" horiz-adv-x="728" 
d="M87 0v666h113l273 -392c36 -52 58 -91 67 -106h2c-1 11 -4 48 -4 98v400h103v-666h-104l-290 417c-29 40 -49 77 -59 93h-2c1 -10 4 -44 4 -81v-429h-103zM418 722c-55 0 -73 37 -113 37c-24 0 -42 -22 -52 -32l-51 46c19 30 54 69 104 69c56 0 74 -37 113 -37
c28 0 45 21 54 31l51 -47c-21 -30 -55 -67 -106 -67z" />
    <glyph glyph-name="Ograve" unicode="&#xd2;" horiz-adv-x="767" 
d="M386 -12c-215 0 -338 163 -338 344c0 182 120 346 335 346c216 0 337 -162 337 -343c0 -182 -119 -347 -334 -347zM383 80c146 0 218 117 218 252c0 136 -70 254 -215 254s-219 -115 -219 -251s72 -255 216 -255zM344 718l-137 131h143l87 -131h-93z" />
    <glyph glyph-name="Oacute" unicode="&#xd3;" horiz-adv-x="767" 
d="M332 718l87 131h144l-138 -131h-93zM386 -12c-215 0 -338 163 -338 344c0 182 120 346 335 346c216 0 337 -162 337 -343c0 -182 -119 -347 -334 -347zM383 80c146 0 218 117 218 252c0 136 -70 254 -215 254s-219 -115 -219 -251s72 -255 216 -255z" />
    <glyph glyph-name="Ocircumflex" unicode="&#xd4;" horiz-adv-x="767" 
d="M219 719l125 156h80l124 -156h-94l-72 74l-70 -74h-93zM386 -12c-215 0 -338 163 -338 344c0 182 120 346 335 346c216 0 337 -162 337 -343c0 -182 -119 -347 -334 -347zM383 80c146 0 218 117 218 252c0 136 -70 254 -215 254s-219 -115 -219 -251s72 -255 216 -255z
" />
    <glyph glyph-name="Otilde" unicode="&#xd5;" horiz-adv-x="767" 
d="M386 -12c-215 0 -338 163 -338 344c0 182 120 346 335 346c216 0 337 -162 337 -343c0 -182 -119 -347 -334 -347zM383 80c146 0 218 117 218 252c0 136 -70 254 -215 254s-219 -115 -219 -251s72 -255 216 -255zM438 722c-55 0 -73 37 -113 37c-24 0 -42 -22 -52 -32
l-51 46c19 30 54 69 104 69c56 0 74 -37 113 -37c28 0 45 21 54 31l51 -47c-21 -30 -55 -67 -106 -67z" />
    <glyph glyph-name="Odieresis" unicode="&#xd6;" horiz-adv-x="767" 
d="M283 717c-37 0 -65 29 -65 64c0 34 28 63 65 63s65 -29 65 -63c0 -35 -28 -64 -65 -64zM483 717c-37 0 -65 29 -65 64c0 34 28 63 65 63s65 -29 65 -63c0 -35 -28 -64 -65 -64zM386 -12c-215 0 -338 163 -338 344c0 182 120 346 335 346c216 0 337 -162 337 -343
c0 -182 -119 -347 -334 -347zM383 80c146 0 218 117 218 252c0 136 -70 254 -215 254s-219 -115 -219 -251s72 -255 216 -255z" />
    <glyph glyph-name="multiply" unicode="&#xd7;" horiz-adv-x="511" 
d="M383 73l-131 129l-124 -123l-62 62l124 124l-125 125l65 65l125 -125l124 124l62 -63l-123 -123l130 -130z" />
    <glyph glyph-name="Oslash" unicode="&#xd8;" horiz-adv-x="767" 
d="M163 -70l-66 47l64 91c-74 64 -113 161 -113 264c0 182 120 346 335 346c66 0 124 -16 171 -42l64 92l66 -48l-65 -92c66 -64 101 -156 101 -253c0 -182 -119 -347 -334 -347c-60 0 -113 13 -158 35zM167 335c0 -70 19 -136 57 -183l277 402c-31 20 -70 32 -115 32
c-145 0 -219 -115 -219 -251zM383 80c146 0 218 117 218 252c0 63 -16 123 -47 168l-273 -396c28 -15 62 -24 102 -24z" />
    <glyph glyph-name="Ugrave" unicode="&#xd9;" horiz-adv-x="704" 
d="M356 -12c-188 0 -272 100 -272 266v412h113v-401c0 -124 48 -183 162 -183c108 0 156 68 156 172v412h105v-403c0 -173 -86 -275 -264 -275zM312 718l-137 131h143l87 -131h-93z" />
    <glyph glyph-name="Uacute" unicode="&#xda;" horiz-adv-x="704" 
d="M300 718l87 131h144l-138 -131h-93zM356 -12c-188 0 -272 100 -272 266v412h113v-401c0 -124 48 -183 162 -183c108 0 156 68 156 172v412h105v-403c0 -173 -86 -275 -264 -275z" />
    <glyph glyph-name="Ucircumflex" unicode="&#xdb;" horiz-adv-x="704" 
d="M187 719l125 156h80l124 -156h-94l-72 74l-70 -74h-93zM356 -12c-188 0 -272 100 -272 266v412h113v-401c0 -124 48 -183 162 -183c108 0 156 68 156 172v412h105v-403c0 -173 -86 -275 -264 -275z" />
    <glyph glyph-name="Udieresis" unicode="&#xdc;" horiz-adv-x="704" 
d="M251 717c-37 0 -65 29 -65 64c0 34 28 63 65 63s65 -29 65 -63c0 -35 -28 -64 -65 -64zM451 717c-37 0 -65 29 -65 64c0 34 28 63 65 63s65 -29 65 -63c0 -35 -28 -64 -65 -64zM356 -12c-188 0 -272 100 -272 266v412h113v-401c0 -124 48 -183 162 -183
c108 0 156 68 156 172v412h105v-403c0 -173 -86 -275 -264 -275z" />
    <glyph glyph-name="Yacute" unicode="&#xdd;" horiz-adv-x="579" 
d="M236 0v252l-222 414h126l157 -309h1l157 309h110l-216 -414v-252h-113zM239 718l87 131h144l-138 -131h-93z" />
    <glyph glyph-name="Thorn" unicode="&#xde;" horiz-adv-x="568" 
d="M88 0v666h113v-111h82c140 0 246 -66 246 -202c0 -139 -98 -213 -259 -213h-69v-140h-113zM201 229h70c101 0 144 41 144 121c0 71 -40 115 -141 115h-73v-236z" />
    <glyph glyph-name="germandbls" unicode="&#xdf;" horiz-adv-x="565" 
d="M360 -12c-70 0 -109 19 -132 33l35 79c18 -11 48 -29 90 -29c49 0 78 20 78 59c0 43 -42 62 -96 94c-44 27 -88 58 -88 119c0 68 47 95 85 126c27 24 46 46 46 89c0 54 -27 88 -90 88c-65 0 -107 -48 -107 -151v-495h-106v497c0 163 97 235 216 235
c129 0 194 -77 194 -168c0 -69 -38 -103 -74 -131c-35 -30 -66 -46 -66 -78c0 -31 25 -43 79 -74c52 -31 109 -67 109 -147c0 -89 -62 -146 -173 -146z" />
    <glyph glyph-name="agrave" unicode="&#xe0;" horiz-adv-x="489" 
d="M180 -12c-81 0 -142 50 -142 134c0 126 135 169 258 169h19v35c0 58 -25 83 -87 83c-49 0 -89 -19 -124 -49l-50 68c43 39 104 68 185 68c120 0 182 -51 182 -171v-197c0 -57 6 -101 12 -128h-105c-3 13 -7 40 -8 55c-28 -36 -78 -67 -140 -67zM208 70c47 0 82 23 107 54
v97h-19c-89 0 -152 -25 -152 -93c0 -42 34 -58 64 -58zM201 541l-137 131h143l87 -131h-93z" />
    <glyph glyph-name="aacute" unicode="&#xe1;" horiz-adv-x="489" 
d="M180 -12c-81 0 -142 50 -142 134c0 126 135 169 258 169h19v35c0 58 -25 83 -87 83c-49 0 -89 -19 -124 -49l-50 68c43 39 104 68 185 68c120 0 182 -51 182 -171v-197c0 -57 6 -101 12 -128h-105c-3 13 -7 40 -8 55c-28 -36 -78 -67 -140 -67zM208 70c47 0 82 23 107 54
v97h-19c-89 0 -152 -25 -152 -93c0 -42 34 -58 64 -58zM188 541l87 131h144l-138 -131h-93z" />
    <glyph glyph-name="acircumflex" unicode="&#xe2;" horiz-adv-x="489" 
d="M180 -12c-81 0 -142 50 -142 134c0 126 135 169 258 169h19v35c0 58 -25 83 -87 83c-49 0 -89 -19 -124 -49l-50 68c43 39 104 68 185 68c120 0 182 -51 182 -171v-197c0 -57 6 -101 12 -128h-105c-3 13 -7 40 -8 55c-28 -36 -78 -67 -140 -67zM208 70c47 0 82 23 107 54
v97h-19c-89 0 -152 -25 -152 -93c0 -42 34 -58 64 -58zM77 542l125 156h80l124 -156h-94l-72 74l-70 -74h-93z" />
    <glyph glyph-name="atilde" unicode="&#xe3;" horiz-adv-x="489" 
d="M180 -12c-81 0 -142 50 -142 134c0 126 135 169 258 169h19v35c0 58 -25 83 -87 83c-49 0 -89 -19 -124 -49l-50 68c43 39 104 68 185 68c120 0 182 -51 182 -171v-197c0 -57 6 -101 12 -128h-105c-3 13 -7 40 -8 55c-28 -36 -78 -67 -140 -67zM208 70c47 0 82 23 107 54
v97h-19c-89 0 -152 -25 -152 -93c0 -42 34 -58 64 -58zM296 545c-55 0 -73 37 -113 37c-24 0 -42 -22 -52 -32l-51 46c19 30 54 69 104 69c56 0 74 -37 113 -37c28 0 45 21 54 31l51 -47c-21 -30 -55 -67 -106 -67z" />
    <glyph glyph-name="adieresis" unicode="&#xe4;" horiz-adv-x="489" 
d="M180 -12c-81 0 -142 50 -142 134c0 126 135 169 258 169h19v35c0 58 -25 83 -87 83c-49 0 -89 -19 -124 -49l-50 68c43 39 104 68 185 68c120 0 182 -51 182 -171v-197c0 -57 6 -101 12 -128h-105c-3 13 -7 40 -8 55c-28 -36 -78 -67 -140 -67zM208 70c47 0 82 23 107 54
v97h-19c-89 0 -152 -25 -152 -93c0 -42 34 -58 64 -58zM141 540c-37 0 -65 29 -65 64c0 34 28 63 65 63s65 -29 65 -63c0 -35 -28 -64 -65 -64zM341 540c-37 0 -65 29 -65 64c0 34 28 63 65 63s65 -29 65 -63c0 -35 -28 -64 -65 -64z" />
    <glyph glyph-name="aring" unicode="&#xe5;" horiz-adv-x="489" 
d="M180 -12c-81 0 -142 50 -142 134c0 126 135 169 258 169h19v35c0 58 -25 83 -87 83c-49 0 -89 -19 -124 -49l-50 68c43 39 104 68 185 68c120 0 182 -51 182 -171v-197c0 -57 6 -101 12 -128h-105c-3 13 -7 40 -8 55c-28 -36 -78 -67 -140 -67zM208 70c47 0 82 23 107 54
v97h-19c-89 0 -152 -25 -152 -93c0 -42 34 -58 64 -58zM241 542c-54 0 -103 44 -103 101s49 101 103 101s103 -44 103 -101s-49 -101 -103 -101zM241 591c30 0 48 25 48 52c0 29 -18 53 -48 53s-48 -24 -48 -53c0 -27 18 -52 48 -52z" />
    <glyph glyph-name="ae" unicode="&#xe6;" horiz-adv-x="784" 
d="M180 -12c-81 0 -142 50 -142 134c0 126 135 169 258 169h20v35c0 51 -20 83 -88 83c-65 0 -106 -35 -124 -49l-50 68c27 24 85 68 185 68c71 0 121 -21 148 -66c40 41 94 66 155 66c130 0 202 -89 202 -231c0 -13 -1 -25 -2 -39h-316c4 -86 43 -155 136 -155
c67 0 107 26 130 38l37 -73c-29 -17 -80 -48 -174 -48c-85 0 -150 35 -191 90c-39 -46 -100 -90 -184 -90zM208 70c59 0 99 33 123 69c-10 27 -15 54 -17 82h-18c-89 0 -152 -25 -152 -93c0 -42 34 -58 64 -58zM426 302h212c-1 61 -28 113 -98 113c-66 0 -102 -45 -114 -113
z" />
    <glyph glyph-name="ccedilla" unicode="&#xe7;" horiz-adv-x="450" 
d="M206 -225c-40 0 -63 8 -75 14l14 51c10 -5 28 -11 53 -11c29 0 48 13 48 37c0 35 -36 41 -71 39l33 90c-110 26 -173 125 -173 247c0 164 105 254 240 254c79 0 125 -27 148 -43l-39 -75c-24 16 -55 34 -107 34c-88 0 -130 -70 -130 -167c0 -96 42 -172 132 -172
c58 0 96 25 111 34l35 -73c-20 -16 -67 -46 -154 -46l-18 -48c42 -7 71 -35 71 -76c0 -55 -51 -89 -118 -89z" />
    <glyph glyph-name="egrave" unicode="&#xe8;" horiz-adv-x="506" 
d="M277 -12c-158 0 -242 108 -242 257c0 148 97 251 229 251c130 0 202 -86 202 -228c0 -13 -1 -28 -2 -42h-316c5 -86 43 -155 137 -155c66 0 107 26 129 38l37 -73c-28 -17 -80 -48 -174 -48zM149 302h212c-2 61 -28 113 -99 113c-65 0 -101 -45 -113 -113zM224 541
l-137 131h143l87 -131h-93z" />
    <glyph glyph-name="eacute" unicode="&#xe9;" horiz-adv-x="506" 
d="M211 541l87 131h144l-138 -131h-93zM277 -12c-158 0 -242 108 -242 257c0 148 97 251 229 251c130 0 202 -86 202 -228c0 -13 -1 -28 -2 -42h-316c5 -86 43 -155 137 -155c66 0 107 26 129 38l37 -73c-28 -17 -80 -48 -174 -48zM149 302h212c-2 61 -28 113 -99 113
c-65 0 -101 -45 -113 -113z" />
    <glyph glyph-name="ecircumflex" unicode="&#xea;" horiz-adv-x="506" 
d="M99 542l125 156h80l124 -156h-94l-72 74l-70 -74h-93zM277 -12c-158 0 -242 108 -242 257c0 148 97 251 229 251c130 0 202 -86 202 -228c0 -13 -1 -28 -2 -42h-316c5 -86 43 -155 137 -155c66 0 107 26 129 38l37 -73c-28 -17 -80 -48 -174 -48zM149 302h212
c-2 61 -28 113 -99 113c-65 0 -101 -45 -113 -113z" />
    <glyph glyph-name="edieresis" unicode="&#xeb;" horiz-adv-x="506" 
d="M163 540c-37 0 -65 29 -65 64c0 34 28 63 65 63s65 -29 65 -63c0 -35 -28 -64 -65 -64zM363 540c-37 0 -65 29 -65 64c0 34 28 63 65 63s65 -29 65 -63c0 -35 -28 -64 -65 -64zM277 -12c-158 0 -242 108 -242 257c0 148 97 251 229 251c130 0 202 -86 202 -228
c0 -13 -1 -28 -2 -42h-316c5 -86 43 -155 137 -155c66 0 107 26 129 38l37 -73c-28 -17 -80 -48 -174 -48zM149 302h212c-2 61 -28 113 -99 113c-65 0 -101 -45 -113 -113z" />
    <glyph glyph-name="igrave" unicode="&#xec;" horiz-adv-x="267" 
d="M80 0v484h107v-484h-107zM95 541l-137 131h143l87 -131h-93z" />
    <glyph glyph-name="iacute" unicode="&#xed;" horiz-adv-x="267" 
d="M82 541l87 131h144l-138 -131h-93zM80 0v484h107v-484h-107z" />
    <glyph glyph-name="icircumflex" unicode="&#xee;" horiz-adv-x="267" 
d="M-30 542l125 156h80l124 -156h-94l-72 74l-70 -74h-93zM80 0v484h107v-484h-107z" />
    <glyph glyph-name="idieresis" unicode="&#xef;" horiz-adv-x="267" 
d="M34 540c-37 0 -65 29 -65 64c0 34 28 63 65 63s65 -29 65 -63c0 -35 -28 -64 -65 -64zM234 540c-37 0 -65 29 -65 64c0 34 28 63 65 63s65 -29 65 -63c0 -35 -28 -64 -65 -64zM80 0v484h107v-484h-107z" />
    <glyph glyph-name="eth" unicode="&#xf0;" horiz-adv-x="550" 
d="M269 -12c-130 0 -234 94 -234 251c0 158 99 248 221 248c56 0 99 -20 127 -52c-17 70 -49 122 -97 157l-72 -63l-46 50l52 46c-40 15 -87 23 -139 23l22 84c74 0 140 -13 195 -38l70 61l46 -50l-54 -47c99 -72 152 -195 152 -358c0 -173 -78 -312 -243 -312zM271 72
c81 0 130 71 130 230c0 6 -1 21 -1 26c-27 45 -70 75 -137 75c-74 0 -115 -63 -115 -162c0 -105 47 -169 123 -169z" />
    <glyph glyph-name="ntilde" unicode="&#xf1;" horiz-adv-x="545" 
d="M72 0v484h105v-65c39 47 91 77 155 77c104 0 144 -68 144 -154v-342h-106v320c0 54 -19 85 -74 85c-48 0 -91 -37 -117 -73v-332h-107zM322 545c-55 0 -73 37 -113 37c-24 0 -42 -22 -52 -32l-51 46c19 30 54 69 104 69c56 0 74 -37 113 -37c28 0 45 21 54 31l51 -47
c-21 -30 -55 -67 -106 -67z" />
    <glyph glyph-name="ograve" unicode="&#xf2;" horiz-adv-x="540" 
d="M269 -12c-167 0 -234 134 -234 253s65 255 232 255c166 0 239 -133 239 -252c0 -118 -71 -256 -237 -256zM270 72c87 0 123 72 123 169c0 96 -41 172 -128 172c-86 0 -118 -73 -118 -169s37 -172 123 -172zM231 541l-137 131h143l87 -131h-93z" />
    <glyph glyph-name="oacute" unicode="&#xf3;" horiz-adv-x="540" 
d="M218 541l87 131h144l-138 -131h-93zM269 -12c-167 0 -234 134 -234 253s65 255 232 255c166 0 239 -133 239 -252c0 -118 -71 -256 -237 -256zM270 72c87 0 123 72 123 169c0 96 -41 172 -128 172c-86 0 -118 -73 -118 -169s37 -172 123 -172z" />
    <glyph glyph-name="ocircumflex" unicode="&#xf4;" horiz-adv-x="540" 
d="M106 542l125 156h80l124 -156h-94l-72 74l-70 -74h-93zM269 -12c-167 0 -234 134 -234 253s65 255 232 255c166 0 239 -133 239 -252c0 -118 -71 -256 -237 -256zM270 72c87 0 123 72 123 169c0 96 -41 172 -128 172c-86 0 -118 -73 -118 -169s37 -172 123 -172z" />
    <glyph glyph-name="otilde" unicode="&#xf5;" horiz-adv-x="540" 
d="M269 -12c-167 0 -234 134 -234 253s65 255 232 255c166 0 239 -133 239 -252c0 -118 -71 -256 -237 -256zM270 72c87 0 123 72 123 169c0 96 -41 172 -128 172c-86 0 -118 -73 -118 -169s37 -172 123 -172zM325 545c-55 0 -73 37 -113 37c-24 0 -42 -22 -52 -32l-51 46
c19 30 54 69 104 69c56 0 74 -37 113 -37c28 0 45 21 54 31l51 -47c-21 -30 -55 -67 -106 -67z" />
    <glyph glyph-name="odieresis" unicode="&#xf6;" horiz-adv-x="540" 
d="M170 540c-37 0 -65 29 -65 64c0 34 28 63 65 63s65 -29 65 -63c0 -35 -28 -64 -65 -64zM370 540c-37 0 -65 29 -65 64c0 34 28 63 65 63s65 -29 65 -63c0 -35 -28 -64 -65 -64zM269 -12c-167 0 -234 134 -234 253s65 255 232 255c166 0 239 -133 239 -252
c0 -118 -71 -256 -237 -256zM270 72c87 0 123 72 123 169c0 96 -41 172 -128 172c-86 0 -118 -73 -118 -169s37 -172 123 -172z" />
    <glyph glyph-name="divide" unicode="&#xf7;" horiz-adv-x="572" 
d="M284 6c-37 0 -66 28 -66 64c0 35 29 64 66 64c35 0 64 -29 64 -64c0 -36 -29 -64 -64 -64zM284 349c-37 0 -66 29 -66 65c0 35 29 64 66 64c35 0 64 -29 64 -64c0 -36 -29 -65 -64 -65zM38 201v82h495v-82h-495z" />
    <glyph glyph-name="oslash" unicode="&#xf8;" horiz-adv-x="540" 
d="M100 -62l-58 39l55 82c-43 50 -62 118 -62 182c0 119 65 255 232 255c41 0 77 -8 107 -23l59 87l60 -40l-60 -89c50 -49 73 -120 73 -187c0 -118 -71 -256 -237 -256c-47 0 -86 11 -117 28zM270 69c87 0 126 75 126 172c0 41 -8 79 -23 108l-173 -258
c18 -14 41 -22 70 -22zM144 244c0 -37 5 -70 16 -98l168 252c-18 11 -39 17 -63 17c-86 0 -121 -75 -121 -171z" />
    <glyph glyph-name="ugrave" unicode="&#xf9;" horiz-adv-x="544" 
d="M212 -12c-105 0 -144 68 -144 154v342h106v-320c0 -54 19 -85 74 -85c61 0 107 60 117 73v332h106v-361c0 -53 6 -98 12 -123h-106c-3 12 -8 46 -9 68c-24 -32 -74 -80 -156 -80zM234 541l-137 131h143l87 -131h-93z" />
    <glyph glyph-name="uacute" unicode="&#xfa;" horiz-adv-x="544" 
d="M220 541l87 131h144l-138 -131h-93zM212 -12c-105 0 -144 68 -144 154v342h106v-320c0 -54 19 -85 74 -85c61 0 107 60 117 73v332h106v-361c0 -53 6 -98 12 -123h-106c-3 12 -8 46 -9 68c-24 -32 -74 -80 -156 -80z" />
    <glyph glyph-name="ucircumflex" unicode="&#xfb;" horiz-adv-x="544" 
d="M108 542l125 156h80l124 -156h-94l-72 74l-70 -74h-93zM212 -12c-105 0 -144 68 -144 154v342h106v-320c0 -54 19 -85 74 -85c61 0 107 60 117 73v332h106v-361c0 -53 6 -98 12 -123h-106c-3 12 -8 46 -9 68c-24 -32 -74 -80 -156 -80z" />
    <glyph glyph-name="udieresis" unicode="&#xfc;" horiz-adv-x="544" 
d="M172 540c-37 0 -65 29 -65 64c0 34 28 63 65 63s65 -29 65 -63c0 -35 -28 -64 -65 -64zM372 540c-37 0 -65 29 -65 64c0 34 28 63 65 63s65 -29 65 -63c0 -35 -28 -64 -65 -64zM212 -12c-105 0 -144 68 -144 154v342h106v-320c0 -54 19 -85 74 -85c61 0 107 60 117 73
v332h106v-361c0 -53 6 -98 12 -123h-106c-3 12 -8 46 -9 68c-24 -32 -74 -80 -156 -80z" />
    <glyph glyph-name="yacute" unicode="&#xfd;" horiz-adv-x="495" 
d="M69 -233c-34 0 -53 4 -63 7l15 85c7 -1 16 -4 43 -4c68 0 93 35 115 96l21 56l-182 477h115l122 -349h3l114 349h110l-202 -541c-39 -104 -85 -176 -211 -176zM200 541l87 131h144l-138 -131h-93z" />
    <glyph glyph-name="thorn" unicode="&#xfe;" horiz-adv-x="552" 
d="M72 -219v939h107v-286c30 36 72 62 135 62c120 0 197 -92 197 -253c0 -153 -90 -255 -216 -255c-54 0 -92 17 -116 38v-245h-107zM277 73c78 0 121 68 121 169c0 99 -36 166 -113 166c-42 0 -83 -26 -106 -58v-239c24 -22 53 -38 98 -38z" />
    <glyph glyph-name="ydieresis" unicode="&#xff;" horiz-adv-x="495" 
d="M69 -233c-34 0 -53 4 -63 7l15 85c7 -1 16 -4 43 -4c68 0 93 35 115 96l21 56l-182 477h115l122 -349h3l114 349h110l-202 -541c-39 -104 -85 -176 -211 -176zM151 540c-37 0 -65 29 -65 64c0 34 28 63 65 63s65 -29 65 -63c0 -35 -28 -64 -65 -64zM351 540
c-37 0 -65 29 -65 64c0 34 28 63 65 63s65 -29 65 -63c0 -35 -28 -64 -65 -64z" />
    <glyph glyph-name="Amacron" unicode="&#x100;" horiz-adv-x="656" 
d="M215 235h216l-69 190c-20 56 -30 92 -38 115h-2c-7 -24 -18 -63 -37 -115zM18 0l254 666h109l259 -666h-123l-52 143h-283l-51 -143h-113zM185 744v80h277v-80h-277z" />
    <glyph glyph-name="amacron" unicode="&#x101;" horiz-adv-x="489" 
d="M180 -12c-81 0 -142 50 -142 134c0 126 135 169 258 169h19v35c0 58 -25 83 -87 83c-49 0 -89 -19 -124 -49l-50 68c43 39 104 68 185 68c120 0 182 -51 182 -171v-197c0 -57 6 -101 12 -128h-105c-3 13 -7 40 -8 55c-28 -36 -78 -67 -140 -67zM208 70c47 0 82 23 107 54
v97h-19c-89 0 -152 -25 -152 -93c0 -42 34 -58 64 -58zM103 567v80h277v-80h-277z" />
    <glyph glyph-name="Abreve" unicode="&#x102;" horiz-adv-x="656" 
d="M215 235h216l-69 190c-20 56 -30 92 -38 115h-2c-7 -24 -18 -63 -37 -115zM18 0l254 666h109l259 -666h-123l-52 143h-283l-51 -143h-113zM324 710c-77 0 -148 44 -158 147h90c3 -45 27 -74 68 -74s64 29 68 74h89c-9 -103 -80 -147 -157 -147z" />
    <glyph glyph-name="abreve" unicode="&#x103;" horiz-adv-x="489" 
d="M180 -12c-81 0 -142 50 -142 134c0 126 135 169 258 169h19v35c0 58 -25 83 -87 83c-49 0 -89 -19 -124 -49l-50 68c43 39 104 68 185 68c120 0 182 -51 182 -171v-197c0 -57 6 -101 12 -128h-105c-3 13 -7 40 -8 55c-28 -36 -78 -67 -140 -67zM208 70c47 0 82 23 107 54
v97h-19c-89 0 -152 -25 -152 -93c0 -42 34 -58 64 -58zM241 533c-77 0 -148 44 -158 147h90c3 -45 27 -74 68 -74s64 29 68 74h89c-9 -103 -80 -147 -157 -147z" />
    <glyph glyph-name="Aogonek" unicode="&#x104;" horiz-adv-x="656" 
d="M559 -225c-68 0 -110 39 -110 96c0 56 40 103 68 129l-52 143h-283l-51 -143h-113l254 666h109l259 -666l-16 -1c-55 -7 -96 -66 -96 -115c0 -30 17 -46 49 -46c17 0 30 3 42 8l14 -54c-15 -8 -38 -17 -74 -17zM215 235h216l-69 190c-20 56 -30 92 -38 115h-2
c-7 -24 -18 -63 -37 -115z" />
    <glyph glyph-name="aogonek" unicode="&#x105;" horiz-adv-x="489" 
d="M371 -225c-69 0 -110 39 -110 96c0 56 40 103 67 129c-3 13 -7 40 -8 55c-28 -36 -78 -67 -140 -67c-81 0 -142 50 -142 134c0 126 135 169 258 169h19v35c0 58 -25 83 -87 83c-49 0 -89 -19 -124 -49l-50 68c43 39 104 68 185 68c120 0 182 -51 182 -171v-197
c0 -55 6 -101 12 -130l-5 -1c-49 -9 -88 -64 -88 -113c0 -30 17 -46 49 -46c16 0 29 3 41 8l15 -54c-15 -8 -39 -17 -74 -17zM208 70c47 0 82 23 107 54v97h-19c-89 0 -152 -25 -152 -93c0 -42 34 -58 64 -58z" />
    <glyph glyph-name="Cacute" unicode="&#x106;" horiz-adv-x="617" 
d="M324 718l87 131h144l-138 -131h-93zM382 -12c-219 0 -334 166 -334 346c0 181 119 344 336 344c86 0 143 -19 194 -52l-53 -83c-38 25 -82 41 -144 41c-140 0 -214 -114 -214 -246c0 -136 71 -255 217 -255c72 0 120 24 156 53l49 -79c-35 -32 -112 -69 -207 -69z" />
    <glyph glyph-name="cacute" unicode="&#x107;" horiz-adv-x="450" 
d="M216 541l87 131h144l-138 -131h-93zM271 -12c-149 0 -236 111 -236 254c0 164 105 254 240 254c79 0 125 -27 148 -43l-39 -75c-24 16 -55 34 -107 34c-88 0 -130 -70 -130 -167c0 -96 42 -172 132 -172c58 0 96 25 111 34l35 -73c-20 -16 -67 -46 -154 -46z" />
    <glyph glyph-name="Ccircumflex" unicode="&#x108;" horiz-adv-x="617" 
d="M212 719l125 156h80l124 -156h-94l-72 74l-70 -74h-93zM382 -12c-219 0 -334 166 -334 346c0 181 119 344 336 344c86 0 143 -19 194 -52l-53 -83c-38 25 -82 41 -144 41c-140 0 -214 -114 -214 -246c0 -136 71 -255 217 -255c72 0 120 24 156 53l49 -79
c-35 -32 -112 -69 -207 -69z" />
    <glyph glyph-name="ccircumflex" unicode="&#x109;" horiz-adv-x="450" 
d="M104 542l125 156h80l124 -156h-94l-72 74l-70 -74h-93zM271 -12c-149 0 -236 111 -236 254c0 164 105 254 240 254c79 0 125 -27 148 -43l-39 -75c-24 16 -55 34 -107 34c-88 0 -130 -70 -130 -167c0 -96 42 -172 132 -172c58 0 96 25 111 34l35 -73
c-20 -16 -67 -46 -154 -46z" />
    <glyph glyph-name="Cdotaccent" unicode="&#x10a;" horiz-adv-x="617" 
d="M382 -12c-219 0 -334 166 -334 346c0 181 119 344 336 344c86 0 143 -19 194 -52l-53 -83c-38 25 -82 41 -144 41c-140 0 -214 -114 -214 -246c0 -136 71 -255 217 -255c72 0 120 24 156 53l49 -79c-35 -32 -112 -69 -207 -69zM376 739c-37 0 -65 29 -65 64s28 64 65 64
s65 -29 65 -64s-28 -64 -65 -64z" />
    <glyph glyph-name="cdotaccent" unicode="&#x10b;" horiz-adv-x="450" 
d="M271 -12c-149 0 -236 111 -236 254c0 164 105 254 240 254c79 0 125 -27 148 -43l-39 -75c-24 16 -55 34 -107 34c-88 0 -130 -70 -130 -167c0 -96 42 -172 132 -172c58 0 96 25 111 34l35 -73c-20 -16 -67 -46 -154 -46zM268 562c-37 0 -65 29 -65 64s28 64 65 64
s65 -29 65 -64s-28 -64 -65 -64z" />
    <glyph glyph-name="Ccaron" unicode="&#x10c;" horiz-adv-x="617" 
d="M335 717l-123 156h93l72 -74l70 74h94l-126 -156h-80zM382 -12c-219 0 -334 166 -334 346c0 181 119 344 336 344c86 0 143 -19 194 -52l-53 -83c-38 25 -82 41 -144 41c-140 0 -214 -114 -214 -246c0 -136 71 -255 217 -255c72 0 120 24 156 53l49 -79
c-35 -32 -112 -69 -207 -69z" />
    <glyph glyph-name="ccaron" unicode="&#x10d;" horiz-adv-x="450" 
d="M227 540l-123 156h93l72 -74l70 74h94l-126 -156h-80zM271 -12c-149 0 -236 111 -236 254c0 164 105 254 240 254c79 0 125 -27 148 -43l-39 -75c-24 16 -55 34 -107 34c-88 0 -130 -70 -130 -167c0 -96 42 -172 132 -172c58 0 96 25 111 34l35 -73
c-20 -16 -67 -46 -154 -46z" />
    <glyph glyph-name="Dcaron" unicode="&#x10e;" horiz-adv-x="694" 
d="M287 717l-123 156h93l72 -74l70 74h94l-126 -156h-80zM89 0v666h181c262 0 379 -132 379 -324s-119 -342 -384 -342h-176zM202 91h72c169 0 256 85 256 247c0 164 -83 237 -261 237h-67v-484z" />
    <glyph glyph-name="dcaron" unicode="&#x10f;" horiz-adv-x="580" 
d="M522 543l39 177h116l-79 -177h-76zM234 -12c-119 0 -199 91 -199 253c0 154 92 255 215 255c51 0 91 -15 117 -38v262h106v-599c0 -48 7 -92 14 -121h-105c-4 11 -9 37 -10 54c-33 -40 -78 -66 -138 -66zM263 76c41 0 80 24 104 57v240c-25 23 -55 37 -98 37
c-78 0 -121 -67 -121 -168c0 -100 35 -166 115 -166z" />
    <glyph glyph-name="Dcroat" unicode="&#x110;" horiz-adv-x="681" 
d="M89 0v300h-67v81h67v285h181c262 0 379 -132 379 -324s-119 -342 -384 -342h-176zM202 91h72c169 0 256 85 256 247c0 164 -83 237 -261 237h-67v-194h107v-81h-107v-209z" />
    <glyph glyph-name="dcroat" unicode="&#x111;" 
d="M230 569v81h137v70h106v-70h44v-81h-44v-448c0 -48 7 -92 14 -121h-105c-4 11 -9 37 -10 54c-33 -40 -78 -66 -138 -66c-119 0 -199 91 -199 253c0 154 92 255 215 255c51 0 91 -15 117 -38v111h-137zM263 76c41 0 80 24 104 57v240c-25 23 -55 37 -98 37
c-78 0 -121 -67 -121 -168c0 -100 35 -166 115 -166z" />
    <glyph glyph-name="Emacron" unicode="&#x112;" horiz-adv-x="518" 
d="M89 0v666h365v-94h-253v-178h223v-90h-223v-210h260v-94h-372zM135 744v80h277v-80h-277z" />
    <glyph glyph-name="emacron" unicode="&#x113;" horiz-adv-x="506" 
d="M277 -12c-158 0 -242 108 -242 257c0 148 97 251 229 251c130 0 202 -86 202 -228c0 -13 -1 -28 -2 -42h-316c5 -86 43 -155 137 -155c66 0 107 26 129 38l37 -73c-28 -17 -80 -48 -174 -48zM149 302h212c-2 61 -28 113 -99 113c-65 0 -101 -45 -113 -113zM125 567v80
h277v-80h-277z" />
    <glyph glyph-name="Ebreve" unicode="&#x114;" horiz-adv-x="518" 
d="M89 0v666h365v-94h-253v-178h223v-90h-223v-210h260v-94h-372zM274 710c-77 0 -148 44 -158 147h90c3 -45 27 -74 68 -74s64 29 68 74h89c-9 -103 -80 -147 -157 -147z" />
    <glyph glyph-name="ebreve" unicode="&#x115;" horiz-adv-x="506" 
d="M277 -12c-158 0 -242 108 -242 257c0 148 97 251 229 251c130 0 202 -86 202 -228c0 -13 -1 -28 -2 -42h-316c5 -86 43 -155 137 -155c66 0 107 26 129 38l37 -73c-28 -17 -80 -48 -174 -48zM149 302h212c-2 61 -28 113 -99 113c-65 0 -101 -45 -113 -113zM263 533
c-77 0 -148 44 -158 147h90c3 -45 27 -74 68 -74s64 29 68 74h89c-9 -103 -80 -147 -157 -147z" />
    <glyph glyph-name="Edotaccent" unicode="&#x116;" horiz-adv-x="518" 
d="M89 0v666h365v-94h-253v-178h223v-90h-223v-210h260v-94h-372zM273 739c-37 0 -65 29 -65 64s28 64 65 64s65 -29 65 -64s-28 -64 -65 -64z" />
    <glyph glyph-name="edotaccent" unicode="&#x117;" horiz-adv-x="506" 
d="M277 -12c-158 0 -242 108 -242 257c0 148 97 251 229 251c130 0 202 -86 202 -228c0 -13 -1 -28 -2 -42h-316c5 -86 43 -155 137 -155c66 0 107 26 129 38l37 -73c-28 -17 -80 -48 -174 -48zM149 302h212c-2 61 -28 113 -99 113c-65 0 -101 -45 -113 -113zM263 562
c-37 0 -65 29 -65 64s28 64 65 64s65 -29 65 -64s-28 -64 -65 -64z" />
    <glyph glyph-name="Eogonek" unicode="&#x118;" horiz-adv-x="518" 
d="M381 -225c-69 0 -110 39 -110 96c0 55 39 110 80 129h-262v666h365v-94h-253v-178h223v-90h-223v-210h260v-94h-2c-66 0 -109 -56 -109 -116c0 -31 17 -46 49 -46c16 0 29 3 41 8l15 -54c-15 -8 -39 -17 -74 -17z" />
    <glyph glyph-name="eogonek" unicode="&#x119;" horiz-adv-x="506" 
d="M368 -225c-69 0 -110 39 -110 96c0 49 33 98 63 122c-13 -4 -27 -5 -44 -5c-158 0 -242 108 -242 257c0 148 97 251 229 251c130 0 202 -86 202 -228c0 -13 -1 -28 -2 -42h-316c5 -86 43 -155 137 -155c66 0 107 26 129 38l37 -73l-23 -14c-47 -28 -91 -78 -91 -138
c0 -31 17 -46 49 -46c16 0 29 3 41 8l15 -54c-15 -8 -39 -17 -74 -17zM149 302h212c-2 61 -28 113 -99 113c-65 0 -101 -45 -113 -113z" />
    <glyph glyph-name="Ecaron" unicode="&#x11a;" horiz-adv-x="518" 
d="M232 717l-123 156h93l72 -74l70 74h94l-126 -156h-80zM89 0v666h365v-94h-253v-178h223v-90h-223v-210h260v-94h-372z" />
    <glyph glyph-name="ecaron" unicode="&#x11b;" horiz-adv-x="506" 
d="M222 540l-123 156h93l72 -74l70 74h94l-126 -156h-80zM277 -12c-158 0 -242 108 -242 257c0 148 97 251 229 251c130 0 202 -86 202 -228c0 -13 -1 -28 -2 -42h-316c5 -86 43 -155 137 -155c66 0 107 26 129 38l37 -73c-28 -17 -80 -48 -174 -48zM149 302h212
c-2 61 -28 113 -99 113c-65 0 -101 -45 -113 -113z" />
    <glyph glyph-name="Gcircumflex" unicode="&#x11c;" horiz-adv-x="709" 
d="M218 719l125 156h80l124 -156h-94l-72 74l-70 -74h-93zM390 -12c-221 0 -342 167 -342 346c0 182 127 344 350 344c94 0 162 -22 215 -61l-53 -84c-46 35 -95 51 -164 51c-157 0 -229 -112 -229 -246c0 -136 69 -257 224 -257c62 0 111 13 138 33v156h-132v90h242v-306
c-49 -36 -129 -66 -249 -66z" />
    <glyph glyph-name="gcircumflex" unicode="&#x11d;" horiz-adv-x="523" 
d="M94 542l125 156h80l124 -156h-94l-72 74l-70 -74h-93zM241 -238c-122 0 -204 40 -204 132c0 54 34 94 82 121c-27 15 -43 37 -43 73c0 39 24 67 52 84c-55 30 -86 83 -86 147c0 103 78 177 206 177c29 0 57 -4 81 -12h168v-74h-70c17 -26 27 -57 27 -91
c0 -102 -75 -176 -203 -176c-19 0 -38 2 -55 5c-17 -9 -25 -19 -25 -33c0 -26 29 -34 85 -36c103 -6 239 -3 239 -149c0 -101 -110 -168 -254 -168zM247 -163c87 0 141 35 141 84c0 62 -56 62 -120 66c-26 2 -54 3 -78 7c-34 -22 -51 -49 -51 -83c0 -42 32 -74 108 -74z
M248 218c63 0 101 40 101 101c0 62 -38 102 -101 102c-64 0 -101 -40 -101 -102c0 -61 37 -101 101 -101z" />
    <glyph glyph-name="Gbreve" unicode="&#x11e;" horiz-adv-x="709" 
d="M390 -12c-221 0 -342 167 -342 346c0 182 127 344 350 344c94 0 162 -22 215 -61l-53 -84c-46 35 -95 51 -164 51c-157 0 -229 -112 -229 -246c0 -136 69 -257 224 -257c62 0 111 13 138 33v156h-132v90h242v-306c-49 -36 -129 -66 -249 -66zM383 710
c-77 0 -148 44 -158 147h90c3 -45 27 -74 68 -74s64 29 68 74h89c-9 -103 -80 -147 -157 -147z" />
    <glyph glyph-name="gbreve" unicode="&#x11f;" horiz-adv-x="523" 
d="M241 -238c-122 0 -204 40 -204 132c0 54 34 94 82 121c-27 15 -43 37 -43 73c0 39 24 67 52 84c-55 30 -86 83 -86 147c0 103 78 177 206 177c29 0 57 -4 81 -12h168v-74h-70c17 -26 27 -57 27 -91c0 -102 -75 -176 -203 -176c-19 0 -38 2 -55 5c-17 -9 -25 -19 -25 -33
c0 -26 29 -34 85 -36c103 -6 239 -3 239 -149c0 -101 -110 -168 -254 -168zM247 -163c87 0 141 35 141 84c0 62 -56 62 -120 66c-26 2 -54 3 -78 7c-34 -22 -51 -49 -51 -83c0 -42 32 -74 108 -74zM248 218c63 0 101 40 101 101c0 62 -38 102 -101 102
c-64 0 -101 -40 -101 -102c0 -61 37 -101 101 -101zM259 540c-77 0 -148 44 -158 147h90c3 -45 27 -74 68 -74s64 29 68 74h89c-9 -103 -80 -147 -157 -147z" />
    <glyph glyph-name="Gdotaccent" unicode="&#x120;" horiz-adv-x="709" 
d="M390 -12c-221 0 -342 167 -342 346c0 182 127 344 350 344c94 0 162 -22 215 -61l-53 -84c-46 35 -95 51 -164 51c-157 0 -229 -112 -229 -246c0 -136 69 -257 224 -257c62 0 111 13 138 33v156h-132v90h242v-306c-49 -36 -129 -66 -249 -66zM382 739
c-37 0 -65 29 -65 64s28 64 65 64s65 -29 65 -64s-28 -64 -65 -64z" />
    <glyph glyph-name="gdotaccent" unicode="&#x121;" horiz-adv-x="523" 
d="M241 -238c-122 0 -204 40 -204 132c0 54 34 94 82 121c-27 15 -43 37 -43 73c0 39 24 67 52 84c-55 30 -86 83 -86 147c0 103 78 177 206 177c29 0 57 -4 81 -12h168v-74h-70c17 -26 27 -57 27 -91c0 -102 -75 -176 -203 -176c-19 0 -38 2 -55 5c-17 -9 -25 -19 -25 -33
c0 -26 29 -34 85 -36c103 -6 239 -3 239 -149c0 -101 -110 -168 -254 -168zM247 -163c87 0 141 35 141 84c0 62 -56 62 -120 66c-26 2 -54 3 -78 7c-34 -22 -51 -49 -51 -83c0 -42 32 -74 108 -74zM248 218c63 0 101 40 101 101c0 62 -38 102 -101 102
c-64 0 -101 -40 -101 -102c0 -61 37 -101 101 -101zM258 562c-37 0 -65 29 -65 64s28 64 65 64s65 -29 65 -64s-28 -64 -65 -64z" />
    <glyph glyph-name="Gcommaaccent" unicode="&#x122;" horiz-adv-x="709" 
d="M340 -224c14 15 29 34 29 57c0 32 -36 37 -36 75c0 27 23 47 54 47c33 0 63 -24 63 -64c0 -48 -30 -89 -54 -115h-56zM390 -12c-221 0 -342 167 -342 346c0 182 127 344 350 344c94 0 162 -22 215 -61l-53 -84c-46 35 -95 51 -164 51c-157 0 -229 -112 -229 -246
c0 -136 69 -257 224 -257c62 0 111 13 138 33v156h-132v90h242v-306c-49 -36 -129 -66 -249 -66z" />
    <glyph glyph-name="gcommaaccent" unicode="&#x123;" horiz-adv-x="523" 
d="M302 718c-14 -15 -29 -34 -29 -57c0 -32 36 -37 36 -75c0 -27 -23 -47 -54 -47c-33 0 -63 24 -63 64c0 48 30 89 54 115h56zM241 -238c-122 0 -204 40 -204 132c0 54 34 94 82 121c-27 15 -43 37 -43 73c0 39 24 67 52 84c-55 30 -86 83 -86 147c0 103 78 177 206 177
c29 0 57 -4 81 -12h168v-74h-70c17 -26 27 -57 27 -91c0 -102 -75 -176 -203 -176c-19 0 -38 2 -55 5c-17 -9 -25 -19 -25 -33c0 -26 29 -34 85 -36c103 -6 239 -3 239 -149c0 -101 -110 -168 -254 -168zM247 -163c87 0 141 35 141 84c0 62 -56 62 -120 66
c-26 2 -54 3 -78 7c-34 -22 -51 -49 -51 -83c0 -42 32 -74 108 -74zM248 218c63 0 101 40 101 101c0 62 -38 102 -101 102c-64 0 -101 -40 -101 -102c0 -61 37 -101 101 -101z" />
    <glyph glyph-name="Hcircumflex" unicode="&#x124;" horiz-adv-x="736" 
d="M203 719l125 156h80l124 -156h-94l-72 74l-70 -74h-93zM89 0v666h113v-271h333v271h113v-666h-113v302h-333v-302h-113z" />
    <glyph glyph-name="hcircumflex" unicode="&#x125;" horiz-adv-x="543" 
d="M108 777l125 156h80l124 -156h-94l-72 74l-70 -74h-93zM70 0v720h106v-299c23 27 72 75 154 75c104 0 144 -68 144 -154v-342h-106v320c0 54 -19 85 -74 85c-61 0 -108 -60 -118 -73v-332h-106z" />
    <glyph glyph-name="Hbar" unicode="&#x126;" horiz-adv-x="754" 
d="M723 555v-81h-66v-474h-113v290h-333v-290h-113v474h-67v81h67v111h113v-111h333v111h113v-111h66zM211 384h333v90h-333v-90z" />
    <glyph glyph-name="hbar" unicode="&#x127;" horiz-adv-x="546" 
d="M73 0v569h-43v81h43v70h107v-70h157v-81h-157v-153c22 27 72 75 153 75c105 0 144 -68 144 -154v-337h-106v315c0 54 -19 85 -74 85c-61 0 -107 -60 -117 -73v-327h-107z" />
    <glyph glyph-name="Itilde" unicode="&#x128;" horiz-adv-x="305" 
d="M95 0v666h113v-666h-113zM207 722c-55 0 -73 37 -113 37c-24 0 -42 -22 -52 -32l-51 46c19 30 54 69 104 69c56 0 74 -37 113 -37c28 0 45 21 54 31l51 -47c-21 -30 -55 -67 -106 -67z" />
    <glyph glyph-name="itilde" unicode="&#x129;" horiz-adv-x="267" 
d="M80 0v484h107v-484h-107zM189 545c-55 0 -73 37 -113 37c-24 0 -42 -22 -52 -32l-51 46c19 30 54 69 104 69c56 0 74 -37 113 -37c28 0 45 21 54 31l51 -47c-21 -30 -55 -67 -106 -67z" />
    <glyph glyph-name="Imacron" unicode="&#x12a;" horiz-adv-x="305" 
d="M95 0v666h113v-666h-113zM14 744v80h277v-80h-277z" />
    <glyph glyph-name="imacron" unicode="&#x12b;" horiz-adv-x="267" 
d="M80 0v484h107v-484h-107zM-4 567v80h277v-80h-277z" />
    <glyph glyph-name="Ibreve" unicode="&#x12c;" horiz-adv-x="305" 
d="M95 0v666h113v-666h-113zM152 710c-77 0 -148 44 -158 147h90c3 -45 27 -74 68 -74s64 29 68 74h89c-9 -103 -80 -147 -157 -147z" />
    <glyph glyph-name="ibreve" unicode="&#x12d;" horiz-adv-x="267" 
d="M80 0v484h107v-484h-107zM135 533c-77 0 -148 44 -158 147h90c3 -45 27 -74 68 -74s64 29 68 74h89c-9 -103 -80 -147 -157 -147z" />
    <glyph glyph-name="Iogonek" unicode="&#x12e;" horiz-adv-x="305" 
d="M149 -225c-68 0 -110 39 -110 96c0 55 41 106 74 129h-18v666h113v-666l-5 -1c-46 -9 -85 -61 -85 -115c0 -30 17 -46 49 -46c17 0 30 3 42 8l14 -54c-15 -8 -38 -17 -74 -17z" />
    <glyph glyph-name="iogonek" unicode="&#x12f;" horiz-adv-x="267" 
d="M131 -225c-68 0 -110 39 -110 96c0 55 41 106 74 129h-15v484h107v-484l-4 -1c-39 -9 -83 -60 -83 -115c0 -30 17 -46 49 -46c17 0 30 3 42 8l14 -54c-15 -8 -38 -17 -74 -17zM133 559c-39 0 -69 31 -69 68s30 68 69 68c40 0 70 -31 70 -68s-30 -68 -70 -68z" />
    <glyph glyph-name="Idotaccent" unicode="&#x130;" horiz-adv-x="305" 
d="M95 0v666h113v-666h-113zM152 739c-37 0 -65 29 -65 64s28 64 65 64s65 -29 65 -64s-28 -64 -65 -64z" />
    <glyph glyph-name="dotlessi" unicode="&#x131;" horiz-adv-x="267" 
d="M80 0v484h107v-484h-107z" />
    <glyph glyph-name="Jcircumflex" unicode="&#x134;" horiz-adv-x="309" 
d="M1 719l125 156h80l124 -156h-94l-72 74l-70 -74h-93zM48 -198c-39 0 -65 7 -80 14l18 93c7 -3 25 -8 43 -8c55 0 78 32 78 108v657h114v-673c0 -123 -63 -191 -173 -191z" />
    <glyph glyph-name="jcircumflex" unicode="&#x135;" horiz-adv-x="259" 
d="M30 -232c-42 0 -64 7 -72 10l18 84c6 -2 16 -5 36 -5c50 0 65 35 65 109v518h107v-532c0 -111 -44 -184 -154 -184zM-33 542l125 156h80l124 -156h-94l-72 74l-70 -74h-93z" />
    <glyph glyph-name="Kcommaaccent" unicode="&#x136;" horiz-adv-x="603" 
d="M272 -224c14 15 29 34 29 57c0 32 -36 37 -36 75c0 27 23 47 54 47c33 0 63 -24 63 -64c0 -48 -30 -89 -54 -115h-56zM89 0v666h112v-306l246 306h127l-255 -311l270 -355h-136l-252 334v-334h-112z" />
    <glyph glyph-name="kcommaaccent" unicode="&#x137;" horiz-adv-x="495" 
d="M210 -224c14 15 29 34 29 57c0 32 -36 37 -36 75c0 27 23 47 54 47c33 0 63 -24 63 -64c0 -48 -30 -89 -54 -115h-56zM70 0v720h106v-444l180 208h119l-189 -215l196 -269h-125l-181 255v-255h-106z" />
    <glyph glyph-name="Lacute" unicode="&#x139;" horiz-adv-x="496" 
d="M96 718l87 131h144l-138 -131h-93zM90 0v666h113v-574h254v-92h-367z" />
    <glyph glyph-name="lacute" unicode="&#x13a;" horiz-adv-x="260" 
d="M79 776l87 131h144l-138 -131h-93zM77 0v720h106v-720h-106z" />
    <glyph glyph-name="Lcommaaccent" unicode="&#x13b;" horiz-adv-x="496" 
d="M221 -224c14 15 29 34 29 57c0 32 -36 37 -36 75c0 27 23 47 54 47c33 0 63 -24 63 -64c0 -48 -30 -89 -54 -115h-56zM90 0v666h113v-574h254v-92h-367z" />
    <glyph glyph-name="lcommaaccent" unicode="&#x13c;" horiz-adv-x="260" 
d="M78 -224c14 15 29 34 29 57c0 32 -36 37 -36 75c0 27 23 47 54 47c33 0 63 -24 63 -64c0 -48 -30 -89 -54 -115h-56zM77 0v720h106v-720h-106z" />
    <glyph glyph-name="Lcaron" unicode="&#x13d;" horiz-adv-x="496" 
d="M259 519l39 177h117l-80 -177h-76zM90 0v666h113v-574h254v-92h-367z" />
    <glyph glyph-name="lcaron" unicode="&#x13e;" horiz-adv-x="290" 
d="M232 543l39 177h116l-79 -177h-76zM77 0v720h106v-720h-106z" />
    <glyph glyph-name="Ldot" unicode="&#x13f;" horiz-adv-x="496" 
d="M90 0v666h113v-574h254v-92h-367zM337 343c-37 0 -65 29 -65 64s28 64 65 64s65 -29 65 -64s-28 -64 -65 -64z" />
    <glyph glyph-name="ldot" unicode="&#x140;" horiz-adv-x="360" 
d="M77 0v720h106v-720h-106zM309 212c-37 0 -65 29 -65 64s28 64 65 64s65 -29 65 -64s-28 -64 -65 -64z" />
    <glyph glyph-name="Lslash" unicode="&#x141;" horiz-adv-x="507" 
d="M94 0v255l-64 -49l-42 58l106 81v321h114v-238l101 77l43 -59l-144 -109v-245h254v-92h-368z" />
    <glyph glyph-name="lslash" unicode="&#x142;" horiz-adv-x="308" 
d="M92 0v261l-67 -49v86l67 49v373h106v-298l80 60v-88l-80 -60v-334h-106z" />
    <glyph glyph-name="Nacute" unicode="&#x143;" horiz-adv-x="728" 
d="M312 718l87 131h144l-138 -131h-93zM87 0v666h113l273 -392c36 -52 58 -91 67 -106h2c-1 11 -4 48 -4 98v400h103v-666h-104l-290 417c-29 40 -49 77 -59 93h-2c1 -10 4 -44 4 -81v-429h-103z" />
    <glyph glyph-name="nacute" unicode="&#x144;" horiz-adv-x="545" 
d="M215 541l87 131h144l-138 -131h-93zM72 0v484h105v-65c39 47 91 77 155 77c104 0 144 -68 144 -154v-342h-106v320c0 54 -19 85 -74 85c-48 0 -91 -37 -117 -73v-332h-107z" />
    <glyph glyph-name="Ncommaaccent" unicode="&#x145;" horiz-adv-x="728" 
d="M311 -224c14 15 29 34 29 57c0 32 -36 37 -36 75c0 27 23 47 54 47c33 0 63 -24 63 -64c0 -48 -30 -89 -54 -115h-56zM87 0v666h113l273 -392c36 -52 58 -91 67 -106h2c-1 11 -4 48 -4 98v400h103v-666h-104l-290 417c-29 40 -49 77 -59 93h-2c1 -10 4 -44 4 -81v-429
h-103z" />
    <glyph glyph-name="ncommaaccent" unicode="&#x146;" horiz-adv-x="545" 
d="M222 -224c14 15 29 34 29 57c0 32 -36 37 -36 75c0 27 23 47 54 47c33 0 63 -24 63 -64c0 -48 -30 -89 -54 -115h-56zM72 0v484h105v-65c39 47 91 77 155 77c104 0 144 -68 144 -154v-342h-106v320c0 54 -19 85 -74 85c-48 0 -91 -37 -117 -73v-332h-107z" />
    <glyph glyph-name="Ncaron" unicode="&#x147;" horiz-adv-x="728" 
d="M322 717l-123 156h93l72 -74l70 74h94l-126 -156h-80zM87 0v666h113l273 -392c36 -52 58 -91 67 -106h2c-1 11 -4 48 -4 98v400h103v-666h-104l-290 417c-29 40 -49 77 -59 93h-2c1 -10 4 -44 4 -81v-429h-103z" />
    <glyph glyph-name="ncaron" unicode="&#x148;" horiz-adv-x="545" 
d="M226 540l-123 156h93l72 -74l70 74h94l-126 -156h-80zM72 0v484h105v-65c39 47 91 77 155 77c104 0 144 -68 144 -154v-342h-106v320c0 54 -19 85 -74 85c-48 0 -91 -37 -117 -73v-332h-107z" />
    <glyph glyph-name="Omacron" unicode="&#x14c;" horiz-adv-x="767" 
d="M245 744v80h277v-80h-277zM386 -12c-215 0 -338 163 -338 344c0 182 120 346 335 346c216 0 337 -162 337 -343c0 -182 -119 -347 -334 -347zM383 80c146 0 218 117 218 252c0 136 -70 254 -215 254s-219 -115 -219 -251s72 -255 216 -255z" />
    <glyph glyph-name="omacron" unicode="&#x14d;" horiz-adv-x="540" 
d="M132 567v80h277v-80h-277zM269 -12c-167 0 -234 134 -234 253s65 255 232 255c166 0 239 -133 239 -252c0 -118 -71 -256 -237 -256zM270 72c87 0 123 72 123 169c0 96 -41 172 -128 172c-86 0 -118 -73 -118 -169s37 -172 123 -172z" />
    <glyph glyph-name="Obreve" unicode="&#x14e;" horiz-adv-x="767" 
d="M386 -12c-215 0 -338 163 -338 344c0 182 120 346 335 346c216 0 337 -162 337 -343c0 -182 -119 -347 -334 -347zM383 80c146 0 218 117 218 252c0 136 -70 254 -215 254s-219 -115 -219 -251s72 -255 216 -255zM384 710c-77 0 -148 44 -158 147h90c3 -45 27 -74 68 -74
s64 29 68 74h89c-9 -103 -80 -147 -157 -147z" />
    <glyph glyph-name="obreve" unicode="&#x14f;" horiz-adv-x="540" 
d="M269 -12c-167 0 -234 134 -234 253s65 255 232 255c166 0 239 -133 239 -252c0 -118 -71 -256 -237 -256zM270 72c87 0 123 72 123 169c0 96 -41 172 -128 172c-86 0 -118 -73 -118 -169s37 -172 123 -172zM270 533c-77 0 -148 44 -158 147h90c3 -45 27 -74 68 -74
s64 29 68 74h89c-9 -103 -80 -147 -157 -147z" />
    <glyph glyph-name="Ohungarumlaut" unicode="&#x150;" horiz-adv-x="767" 
d="M232 718l92 131h132l-136 -131h-88zM417 718l92 131h132l-136 -131h-88zM386 -12c-215 0 -338 163 -338 344c0 182 120 346 335 346c216 0 337 -162 337 -343c0 -182 -119 -347 -334 -347zM383 80c146 0 218 117 218 252c0 136 -70 254 -215 254s-219 -115 -219 -251
s72 -255 216 -255z" />
    <glyph glyph-name="ohungarumlaut" unicode="&#x151;" horiz-adv-x="540" 
d="M119 541l92 131h132l-136 -131h-88zM304 541l92 131h132l-136 -131h-88zM269 -12c-167 0 -234 134 -234 253s65 255 232 255c166 0 239 -133 239 -252c0 -118 -71 -256 -237 -256zM270 72c87 0 123 72 123 169c0 96 -41 172 -128 172c-86 0 -118 -73 -118 -169
s37 -172 123 -172z" />
    <glyph glyph-name="OE" unicode="&#x152;" horiz-adv-x="905" 
d="M382 -12c-215 0 -338 163 -338 344c0 182 121 346 336 346c34 0 69 -4 100 -12h361v-94h-254v-178h223v-90h-223v-210h261v-94h-365c-29 -8 -65 -12 -101 -12zM380 80c38 0 70 6 96 18v469c-25 12 -56 19 -94 19c-145 0 -219 -115 -219 -251s72 -255 217 -255z" />
    <glyph glyph-name="oe" unicode="&#x153;" horiz-adv-x="864" 
d="M269 -12c-167 0 -234 134 -234 253s65 255 232 255c84 0 144 -37 181 -90c39 57 99 90 172 90c130 0 202 -88 202 -229c0 -13 -1 -27 -2 -41h-316c4 -86 43 -155 136 -155c67 0 108 26 130 38l37 -73c-28 -17 -80 -48 -174 -48c-84 0 -148 35 -185 90
c-39 -54 -96 -90 -179 -90zM270 72c87 0 123 72 123 169c0 96 -41 172 -128 172c-86 0 -118 -73 -118 -169s37 -172 123 -172zM505 302h212c-2 61 -28 113 -99 113c-65 0 -101 -45 -113 -113z" />
    <glyph glyph-name="Racute" unicode="&#x154;" horiz-adv-x="598" 
d="M241 718l87 131h144l-138 -131h-93zM89 0v666h204c148 0 234 -66 234 -185c0 -110 -77 -166 -169 -177v-2c16 -11 37 -34 74 -90l146 -212h-127l-127 189c-64 92 -75 100 -113 100h-9v-289h-113zM202 373h87c86 0 125 37 125 103s-41 101 -131 101h-81v-204z" />
    <glyph glyph-name="racute" unicode="&#x155;" horiz-adv-x="370" 
d="M155 541l87 131h144l-138 -131h-93zM72 0v484h107v-70c20 34 61 82 125 82c33 0 50 -7 59 -12l-26 -95c-7 4 -20 10 -47 10c-65 0 -102 -67 -111 -85v-314h-107z" />
    <glyph glyph-name="Rcommaaccent" unicode="&#x156;" horiz-adv-x="598" 
d="M267 -224c14 15 29 34 29 57c0 32 -36 37 -36 75c0 27 23 47 54 47c33 0 63 -24 63 -64c0 -48 -30 -89 -54 -115h-56zM89 0v666h204c148 0 234 -66 234 -185c0 -110 -77 -166 -169 -177v-2c16 -11 37 -34 74 -90l146 -212h-127l-127 189c-64 92 -75 100 -113 100h-9v-289
h-113zM202 373h87c86 0 125 37 125 103s-41 101 -131 101h-81v-204z" />
    <glyph glyph-name="rcommaaccent" unicode="&#x157;" horiz-adv-x="370" 
d="M78 -224c14 15 29 34 29 57c0 32 -36 37 -36 75c0 27 23 47 54 47c33 0 63 -24 63 -64c0 -48 -30 -89 -54 -115h-56zM72 0v484h107v-70c20 34 61 82 125 82c33 0 50 -7 59 -12l-26 -95c-7 4 -20 10 -47 10c-65 0 -102 -67 -111 -85v-314h-107z" />
    <glyph glyph-name="Rcaron" unicode="&#x158;" horiz-adv-x="598" 
d="M252 717l-123 156h93l72 -74l70 74h94l-126 -156h-80zM89 0v666h204c148 0 234 -66 234 -185c0 -110 -77 -166 -169 -177v-2c16 -11 37 -34 74 -90l146 -212h-127l-127 189c-64 92 -75 100 -113 100h-9v-289h-113zM202 373h87c86 0 125 37 125 103s-41 101 -131 101h-81
v-204z" />
    <glyph glyph-name="rcaron" unicode="&#x159;" horiz-adv-x="370" 
d="M167 540l-123 156h93l72 -74l70 74h94l-126 -156h-80zM72 0v484h107v-70c20 34 61 82 125 82c33 0 50 -7 59 -12l-26 -95c-7 4 -20 10 -47 10c-65 0 -102 -67 -111 -85v-314h-107z" />
    <glyph glyph-name="Sacute" unicode="&#x15a;" horiz-adv-x="509" 
d="M201 718l87 131h144l-138 -131h-93zM235 -12c-105 0 -172 43 -198 67l51 79c15 -12 64 -54 147 -54c74 0 119 43 119 93c0 69 -73 93 -150 132c-82 40 -149 87 -149 195c0 112 94 178 206 178c104 0 161 -36 186 -55l-49 -80c-23 16 -70 43 -133 43
c-60 0 -101 -31 -101 -84c0 -58 53 -81 121 -112c88 -41 180 -86 180 -212c0 -114 -90 -190 -230 -190z" />
    <glyph glyph-name="sacute" unicode="&#x15b;" horiz-adv-x="415" 
d="M154 541l87 131h144l-138 -131h-93zM196 -13c-79 0 -133 26 -163 47l39 76c18 -13 64 -40 119 -40s88 20 88 56c0 38 -45 51 -115 83c-71 32 -119 68 -119 145c0 84 65 142 168 142c82 0 131 -30 150 -42l-42 -74c-18 12 -55 33 -105 33c-49 0 -73 -20 -73 -53
c0 -39 42 -52 96 -74c78 -32 141 -67 141 -149c0 -95 -71 -150 -184 -150z" />
    <glyph glyph-name="Scircumflex" unicode="&#x15c;" horiz-adv-x="509" 
d="M88 719l125 156h80l124 -156h-94l-72 74l-70 -74h-93zM235 -12c-105 0 -172 43 -198 67l51 79c15 -12 64 -54 147 -54c74 0 119 43 119 93c0 69 -73 93 -150 132c-82 40 -149 87 -149 195c0 112 94 178 206 178c104 0 161 -36 186 -55l-49 -80c-23 16 -70 43 -133 43
c-60 0 -101 -31 -101 -84c0 -58 53 -81 121 -112c88 -41 180 -86 180 -212c0 -114 -90 -190 -230 -190z" />
    <glyph glyph-name="scircumflex" unicode="&#x15d;" horiz-adv-x="415" 
d="M42 542l125 156h80l124 -156h-94l-72 74l-70 -74h-93zM196 -13c-79 0 -133 26 -163 47l39 76c18 -13 64 -40 119 -40s88 20 88 56c0 38 -45 51 -115 83c-71 32 -119 68 -119 145c0 84 65 142 168 142c82 0 131 -30 150 -42l-42 -74c-18 12 -55 33 -105 33
c-49 0 -73 -20 -73 -53c0 -39 42 -52 96 -74c78 -32 141 -67 141 -149c0 -95 -71 -150 -184 -150z" />
    <glyph glyph-name="Scedilla" unicode="&#x15e;" horiz-adv-x="509" 
d="M209 -225c-40 0 -63 8 -75 14l14 51c10 -5 28 -11 53 -11c29 0 48 13 48 37c0 35 -36 41 -71 39l31 84c-90 6 -148 44 -172 66l51 79c15 -12 64 -54 147 -54c74 0 119 43 119 93c0 69 -73 93 -150 132c-82 40 -149 87 -149 195c0 112 94 178 206 178
c104 0 161 -36 186 -55l-49 -80c-23 16 -70 43 -133 43c-60 0 -101 -31 -101 -84c0 -58 53 -81 121 -112c88 -41 180 -86 180 -212c0 -103 -74 -175 -191 -188l-18 -50c42 -7 71 -35 71 -76c0 -55 -51 -89 -118 -89z" />
    <glyph glyph-name="scedilla" unicode="&#x15f;" horiz-adv-x="415" 
d="M171 -225c-40 0 -63 8 -75 14l14 51c10 -5 28 -11 53 -11c29 0 48 13 48 37c0 35 -36 41 -71 39l30 83c-65 5 -111 27 -137 46l39 76c18 -13 64 -40 119 -40s88 20 88 56c0 38 -45 51 -115 83c-71 32 -119 68 -119 145c0 84 65 142 168 142c82 0 131 -30 150 -42l-42 -74
c-18 12 -55 33 -105 33c-49 0 -73 -20 -73 -53c0 -39 42 -52 96 -74c78 -32 141 -67 141 -149c0 -83 -54 -136 -144 -147l-18 -50c42 -7 71 -35 71 -76c0 -55 -51 -89 -118 -89z" />
    <glyph glyph-name="Scaron" unicode="&#x160;" horiz-adv-x="509" 
d="M211 717l-123 156h93l72 -74l70 74h94l-126 -156h-80zM235 -12c-105 0 -172 43 -198 67l51 79c15 -12 64 -54 147 -54c74 0 119 43 119 93c0 69 -73 93 -150 132c-82 40 -149 87 -149 195c0 112 94 178 206 178c104 0 161 -36 186 -55l-49 -80c-23 16 -70 43 -133 43
c-60 0 -101 -31 -101 -84c0 -58 53 -81 121 -112c88 -41 180 -86 180 -212c0 -114 -90 -190 -230 -190z" />
    <glyph glyph-name="scaron" unicode="&#x161;" horiz-adv-x="415" 
d="M165 540l-123 156h93l72 -74l70 74h94l-126 -156h-80zM196 -13c-79 0 -133 26 -163 47l39 76c18 -13 64 -40 119 -40s88 20 88 56c0 38 -45 51 -115 83c-71 32 -119 68 -119 145c0 84 65 142 168 142c82 0 131 -30 150 -42l-42 -74c-18 12 -55 33 -105 33
c-49 0 -73 -20 -73 -53c0 -39 42 -52 96 -74c78 -32 141 -67 141 -149c0 -95 -71 -150 -184 -150z" />
    <glyph glyph-name="Tcommaaccent" unicode="&#x162;" horiz-adv-x="519" 
d="M207 -224c14 15 29 34 29 57c0 32 -36 37 -36 75c0 27 23 47 54 47c33 0 63 -24 63 -64c0 -48 -30 -89 -54 -115h-56zM203 0v572h-186v94h485v-94h-185v-572h-114z" />
    <glyph glyph-name="tcommaaccent" unicode="&#x163;" horiz-adv-x="369" 
d="M176 -224c14 15 29 34 29 57c0 32 -36 37 -36 75c0 27 23 47 54 47c33 0 63 -24 63 -64c0 -48 -30 -89 -54 -115h-56zM239 -12c-99 0 -139 54 -139 141v274h-78v81h78v139h106v-139h117v-81h-117v-257c0 -48 13 -70 52 -70c29 0 55 14 64 20l30 -80
c-18 -10 -56 -28 -113 -28z" />
    <glyph glyph-name="Tcaron" unicode="&#x164;" horiz-adv-x="519" 
d="M218 717l-123 156h93l72 -74l70 74h94l-126 -156h-80zM203 0v572h-186v94h485v-94h-185v-572h-114z" />
    <glyph glyph-name="tcaron" unicode="&#x165;" horiz-adv-x="374" 
d="M255 549l39 171h116l-79 -171h-76zM239 -12c-99 0 -139 54 -139 141v274h-78v81h78v139h106v-139h117v-81h-117v-257c0 -48 13 -70 52 -70c29 0 55 14 64 20l30 -80c-18 -10 -56 -28 -113 -28z" />
    <glyph glyph-name="Tbar" unicode="&#x166;" horiz-adv-x="519" 
d="M39 320v81h164v171h-186v94h485v-94h-185v-171h162v-81h-162v-320h-114v320h-164z" />
    <glyph glyph-name="tbar" unicode="&#x167;" horiz-adv-x="369" 
d="M42 227v79h58v100h-78v78h78v139h106v-139h117v-78h-117v-100h97v-79h-97v-81c0 -48 13 -70 52 -70c29 0 55 14 64 20l30 -80c-18 -10 -56 -28 -113 -28c-99 0 -139 54 -139 141v98h-58z" />
    <glyph glyph-name="Utilde" unicode="&#x168;" horiz-adv-x="704" 
d="M356 -12c-188 0 -272 100 -272 266v412h113v-401c0 -124 48 -183 162 -183c108 0 156 68 156 172v412h105v-403c0 -173 -86 -275 -264 -275zM406 722c-55 0 -73 37 -113 37c-24 0 -42 -22 -52 -32l-51 46c19 30 54 69 104 69c56 0 74 -37 113 -37c28 0 45 21 54 31
l51 -47c-21 -30 -55 -67 -106 -67z" />
    <glyph glyph-name="utilde" unicode="&#x169;" horiz-adv-x="544" 
d="M212 -12c-105 0 -144 68 -144 154v342h106v-320c0 -54 19 -85 74 -85c61 0 107 60 117 73v332h106v-361c0 -53 6 -98 12 -123h-106c-3 12 -8 46 -9 68c-24 -32 -74 -80 -156 -80zM327 545c-55 0 -73 37 -113 37c-24 0 -42 -22 -52 -32l-51 46c19 30 54 69 104 69
c56 0 74 -37 113 -37c28 0 45 21 54 31l51 -47c-21 -30 -55 -67 -106 -67z" />
    <glyph glyph-name="Umacron" unicode="&#x16a;" horiz-adv-x="704" 
d="M356 -12c-188 0 -272 100 -272 266v412h113v-401c0 -124 48 -183 162 -183c108 0 156 68 156 172v412h105v-403c0 -173 -86 -275 -264 -275zM213 744v80h277v-80h-277z" />
    <glyph glyph-name="umacron" unicode="&#x16b;" horiz-adv-x="544" 
d="M212 -12c-105 0 -144 68 -144 154v342h106v-320c0 -54 19 -85 74 -85c61 0 107 60 117 73v332h106v-361c0 -53 6 -98 12 -123h-106c-3 12 -8 46 -9 68c-24 -32 -74 -80 -156 -80zM134 567v80h277v-80h-277z" />
    <glyph glyph-name="Ubreve" unicode="&#x16c;" horiz-adv-x="704" 
d="M356 -12c-188 0 -272 100 -272 266v412h113v-401c0 -124 48 -183 162 -183c108 0 156 68 156 172v412h105v-403c0 -173 -86 -275 -264 -275zM352 710c-77 0 -148 44 -158 147h90c3 -45 27 -74 68 -74s64 29 68 74h89c-9 -103 -80 -147 -157 -147z" />
    <glyph glyph-name="ubreve" unicode="&#x16d;" horiz-adv-x="544" 
d="M212 -12c-105 0 -144 68 -144 154v342h106v-320c0 -54 19 -85 74 -85c61 0 107 60 117 73v332h106v-361c0 -53 6 -98 12 -123h-106c-3 12 -8 46 -9 68c-24 -32 -74 -80 -156 -80zM273 533c-77 0 -148 44 -158 147h90c3 -45 27 -74 68 -74s64 29 68 74h89
c-9 -103 -80 -147 -157 -147z" />
    <glyph glyph-name="Uring" unicode="&#x16e;" horiz-adv-x="704" 
d="M351 719c-54 0 -103 44 -103 101s49 101 103 101s103 -44 103 -101s-49 -101 -103 -101zM351 768c30 0 48 25 48 52c0 29 -18 53 -48 53s-48 -24 -48 -53c0 -27 18 -52 48 -52zM356 -12c-188 0 -272 100 -272 266v412h113v-401c0 -124 48 -183 162 -183
c108 0 156 68 156 172v412h105v-403c0 -173 -86 -275 -264 -275z" />
    <glyph glyph-name="uring" unicode="&#x16f;" horiz-adv-x="544" 
d="M272 542c-54 0 -103 44 -103 101s49 101 103 101s103 -44 103 -101s-49 -101 -103 -101zM272 591c30 0 48 25 48 52c0 29 -18 53 -48 53s-48 -24 -48 -53c0 -27 18 -52 48 -52zM212 -12c-105 0 -144 68 -144 154v342h106v-320c0 -54 19 -85 74 -85c61 0 107 60 117 73
v332h106v-361c0 -53 6 -98 12 -123h-106c-3 12 -8 46 -9 68c-24 -32 -74 -80 -156 -80z" />
    <glyph glyph-name="Uhungarumlaut" unicode="&#x170;" horiz-adv-x="704" 
d="M356 -12c-188 0 -272 100 -272 266v412h113v-401c0 -124 48 -183 162 -183c108 0 156 68 156 172v412h105v-403c0 -173 -86 -275 -264 -275zM200 718l92 131h132l-136 -131h-88zM385 718l92 131h132l-136 -131h-88z" />
    <glyph glyph-name="uhungarumlaut" unicode="&#x171;" horiz-adv-x="544" 
d="M212 -12c-105 0 -144 68 -144 154v342h106v-320c0 -54 19 -85 74 -85c61 0 107 60 117 73v332h106v-361c0 -53 6 -98 12 -123h-106c-3 12 -8 46 -9 68c-24 -32 -74 -80 -156 -80zM121 541l92 131h132l-136 -131h-88zM306 541l92 131h132l-136 -131h-88z" />
    <glyph glyph-name="Uogonek" unicode="&#x172;" horiz-adv-x="704" 
d="M481 -225c-68 0 -110 39 -110 96c0 54 40 106 71 130c-22 -9 -56 -13 -86 -13c-188 0 -272 100 -272 266v412h113v-401c0 -124 48 -183 162 -183c108 0 156 68 156 172v412h105v-403c0 -111 -30 -167 -116 -263c-26 -31 -54 -69 -54 -116c0 -31 17 -46 49 -46
c17 0 30 3 42 8l14 -54c-15 -8 -38 -17 -74 -17z" />
    <glyph glyph-name="uogonek" unicode="&#x173;" horiz-adv-x="544" 
d="M419 -225c-68 0 -110 39 -110 96c0 56 40 103 68 129c-3 12 -8 46 -9 68c-24 -32 -74 -80 -156 -80c-105 0 -144 68 -144 154v342h106v-320c0 -54 19 -85 74 -85c61 0 107 60 117 73v332h106v-361c0 -53 6 -100 12 -124l-6 -2c-50 -11 -89 -64 -89 -113
c0 -30 17 -46 49 -46c17 0 30 3 42 8l14 -54c-15 -8 -38 -17 -74 -17z" />
    <glyph glyph-name="Wcircumflex" unicode="&#x174;" horiz-adv-x="896" 
d="M284 719l125 156h80l124 -156h-94l-72 74l-70 -74h-93zM199 0l-180 666h121l97 -391c12 -52 23 -116 24 -120h2c1 4 15 71 28 122l108 389h112l106 -387c14 -53 26 -119 27 -122h2c1 3 10 66 24 120l99 389h109l-183 -666h-103l-111 405c-15 54 -27 123 -28 126h-2
c-1 -3 -16 -71 -31 -126l-117 -405h-104z" />
    <glyph glyph-name="wcircumflex" unicode="&#x175;" horiz-adv-x="723" 
d="M195 542l125 156h80l124 -156h-94l-72 74l-70 -74h-93zM154 0l-140 484h114l87 -334h2l96 334h100l97 -335h2l88 335h106l-141 -484h-96l-108 347h-2l-109 -347h-96z" />
    <glyph glyph-name="Ycircumflex" unicode="&#x176;" horiz-adv-x="579" 
d="M236 0v252l-222 414h126l157 -309h1l157 309h110l-216 -414v-252h-113zM126 719l125 156h80l124 -156h-94l-72 74l-70 -74h-93z" />
    <glyph glyph-name="ycircumflex" unicode="&#x177;" horiz-adv-x="495" 
d="M69 -233c-34 0 -53 4 -63 7l15 85c7 -1 16 -4 43 -4c68 0 93 35 115 96l21 56l-182 477h115l122 -349h3l114 349h110l-202 -541c-39 -104 -85 -176 -211 -176zM87 542l125 156h80l124 -156h-94l-72 74l-70 -74h-93z" />
    <glyph glyph-name="Ydieresis" unicode="&#x178;" horiz-adv-x="579" 
d="M236 0v252l-222 414h126l157 -309h1l157 309h110l-216 -414v-252h-113zM190 717c-37 0 -65 29 -65 64c0 34 28 63 65 63s65 -29 65 -63c0 -35 -28 -64 -65 -64zM390 717c-37 0 -65 29 -65 64c0 34 28 63 65 63s65 -29 65 -63c0 -35 -28 -64 -65 -64z" />
    <glyph glyph-name="Zacute" unicode="&#x179;" horiz-adv-x="566" 
d="M239 718l87 131h144l-138 -131h-93zM46 0v75l331 499h-316v92h452v-72l-335 -502h345v-92h-477z" />
    <glyph glyph-name="zacute" unicode="&#x17a;" horiz-adv-x="442" 
d="M171 541l87 131h144l-138 -131h-93zM40 0v61l227 341h-215v82h344v-64l-226 -338h229v-82h-359z" />
    <glyph glyph-name="Zdotaccent" unicode="&#x17b;" horiz-adv-x="566" 
d="M46 0v75l331 499h-316v92h452v-72l-335 -502h345v-92h-477zM290 739c-37 0 -65 29 -65 64s28 64 65 64s65 -29 65 -64s-28 -64 -65 -64z" />
    <glyph glyph-name="zdotaccent" unicode="&#x17c;" horiz-adv-x="442" 
d="M40 0v61l227 341h-215v82h344v-64l-226 -338h229v-82h-359zM224 562c-37 0 -65 29 -65 64s28 64 65 64s65 -29 65 -64s-28 -64 -65 -64z" />
    <glyph glyph-name="Zcaron" unicode="&#x17d;" horiz-adv-x="566" 
d="M249 717l-123 156h93l72 -74l70 74h94l-126 -156h-80zM46 0v75l331 499h-316v92h452v-72l-335 -502h345v-92h-477z" />
    <glyph glyph-name="zcaron" unicode="&#x17e;" horiz-adv-x="442" 
d="M183 540l-123 156h93l72 -74l70 74h94l-126 -156h-80zM40 0v61l227 341h-215v82h344v-64l-226 -338h229v-82h-359z" />
    <glyph glyph-name="florin" unicode="&#x192;" horiz-adv-x="457" 
d="M42 -188c-50 0 -80 11 -98 21l29 79c10 -5 27 -14 58 -14c69 0 95 48 102 113l38 338h-103l11 81h101l13 117c13 119 81 185 203 185c59 0 95 -15 120 -31l-37 -76c-14 9 -45 22 -84 22c-68 0 -93 -42 -101 -115l-11 -102h114l-14 -81h-109l-38 -344
c-13 -115 -70 -193 -194 -193z" />
    <glyph glyph-name="Scommaaccent" unicode="&#x218;" horiz-adv-x="509" 
d="M198 -224c14 15 29 34 29 57c0 32 -36 37 -36 75c0 27 23 47 54 47c33 0 63 -24 63 -64c0 -48 -30 -89 -54 -115h-56zM235 -12c-105 0 -172 43 -198 67l51 79c15 -12 64 -54 147 -54c74 0 119 43 119 93c0 69 -73 93 -150 132c-82 40 -149 87 -149 195
c0 112 94 178 206 178c104 0 161 -36 186 -55l-49 -80c-23 16 -70 43 -133 43c-60 0 -101 -31 -101 -84c0 -58 53 -81 121 -112c88 -41 180 -86 180 -212c0 -114 -90 -190 -230 -190z" />
    <glyph glyph-name="scommaaccent" unicode="&#x219;" horiz-adv-x="415" 
d="M154 -224c14 15 29 34 29 57c0 32 -36 37 -36 75c0 27 23 47 54 47c33 0 63 -24 63 -64c0 -48 -30 -89 -54 -115h-56zM196 -13c-79 0 -133 26 -163 47l39 76c18 -13 64 -40 119 -40s88 20 88 56c0 38 -45 51 -115 83c-71 32 -119 68 -119 145c0 84 65 142 168 142
c82 0 131 -30 150 -42l-42 -74c-18 12 -55 33 -105 33c-49 0 -73 -20 -73 -53c0 -39 42 -52 96 -74c78 -32 141 -67 141 -149c0 -95 -71 -150 -184 -150z" />
    <glyph glyph-name="uni021A" unicode="&#x21a;" horiz-adv-x="519" 
d="M207 -224c14 15 29 34 29 57c0 32 -36 37 -36 75c0 27 23 47 54 47c33 0 63 -24 63 -64c0 -48 -30 -89 -54 -115h-56zM203 0v572h-186v94h485v-94h-185v-572h-114z" />
    <glyph glyph-name="uni021B" unicode="&#x21b;" horiz-adv-x="369" 
d="M176 -224c14 15 29 34 29 57c0 32 -36 37 -36 75c0 27 23 47 54 47c33 0 63 -24 63 -64c0 -48 -30 -89 -54 -115h-56zM239 -12c-99 0 -139 54 -139 141v274h-78v81h78v139h106v-139h117v-81h-117v-257c0 -48 13 -70 52 -70c29 0 55 14 64 20l30 -80
c-18 -10 -56 -28 -113 -28z" />
    <glyph glyph-name="dotlessj" unicode="&#x237;" horiz-adv-x="259" 
d="M30 -232c-42 0 -64 7 -72 10l18 84c6 -2 16 -5 36 -5c50 0 65 35 65 109v518h107v-532c0 -111 -44 -184 -154 -184z" />
    <glyph glyph-name="circumflex" unicode="&#x2c6;" horiz-adv-x="500" 
d="M86 542l125 156h80l124 -156h-94l-72 74l-70 -74h-93z" />
    <glyph glyph-name="caron" unicode="&#x2c7;" horiz-adv-x="500" 
d="M209 540l-123 156h93l72 -74l70 74h94l-126 -156h-80z" />
    <glyph glyph-name="breve" unicode="&#x2d8;" horiz-adv-x="500" 
d="M250 533c-77 0 -148 44 -158 147h90c3 -45 27 -74 68 -74s64 29 68 74h89c-9 -103 -80 -147 -157 -147z" />
    <glyph glyph-name="dotaccent" unicode="&#x2d9;" horiz-adv-x="500" 
d="M250 562c-37 0 -65 29 -65 64s28 64 65 64s65 -29 65 -64s-28 -64 -65 -64z" />
    <glyph glyph-name="ring" unicode="&#x2da;" horiz-adv-x="500" 
d="M250 542c-54 0 -103 44 -103 101s49 101 103 101s103 -44 103 -101s-49 -101 -103 -101zM250 591c30 0 48 25 48 52c0 29 -18 53 -48 53s-48 -24 -48 -53c0 -27 18 -52 48 -52z" />
    <glyph glyph-name="ogonek" unicode="&#x2db;" horiz-adv-x="500" 
d="M259 -225c-68 0 -110 39 -110 96c0 56 40 103 68 129h64c-26 -33 -53 -69 -53 -116c0 -31 17 -46 49 -46c16 0 29 3 42 8l14 -54c-15 -8 -38 -17 -74 -17z" />
    <glyph glyph-name="tilde" unicode="&#x2dc;" horiz-adv-x="500" 
d="M305 545c-55 0 -73 37 -113 37c-24 0 -42 -22 -52 -32l-51 46c19 30 54 69 104 69c56 0 74 -37 113 -37c28 0 45 21 54 31l51 -47c-21 -30 -55 -67 -106 -67z" />
    <glyph glyph-name="hungarumlaut" unicode="&#x2dd;" horiz-adv-x="500" 
d="M53 541l92 131h132l-136 -131h-88zM238 541l92 131h132l-136 -131h-88z" />
    <glyph glyph-name="tonos" unicode="&#x384;" horiz-adv-x="500" 
d="M168 541l28 131h125l-67 -131h-86z" />
    <glyph glyph-name="dieresistonos" unicode="&#x385;" horiz-adv-x="500" 
d="M84 540c-36 0 -64 29 -64 64c0 34 28 63 64 63c37 0 65 -29 65 -63c0 -35 -28 -64 -65 -64zM415 540c-36 0 -64 29 -64 64c0 34 28 63 64 63c37 0 65 -29 65 -63c0 -35 -28 -64 -65 -64zM185 541l27 143h123l-67 -143h-83z" />
    <glyph glyph-name="Alphatonos" unicode="&#x386;" horiz-adv-x="665" 
d="M61 536l28 131h125l-67 -131h-86zM224 235h216l-69 190c-20 56 -30 92 -38 115h-2c-7 -24 -18 -63 -37 -115zM27 0l254 666h109l259 -666h-123l-52 143h-283l-51 -143h-113z" />
    <glyph glyph-name="anoteleia" unicode="&#x387;" horiz-adv-x="241" 
d="M121 216c-43 0 -77 33 -77 75c0 41 34 74 77 74c42 0 76 -33 76 -74c0 -42 -34 -75 -76 -75z" />
    <glyph glyph-name="Epsilontonos" unicode="&#x388;" horiz-adv-x="650" 
d="M24 536l28 131h125l-67 -131h-86zM220 0v666h365v-94h-253v-178h223v-90h-223v-210h260v-94h-372z" />
    <glyph glyph-name="Etatonos" unicode="&#x389;" horiz-adv-x="868" 
d="M24 536l28 131h125l-67 -131h-86zM220 0v666h113v-271h333v271h113v-666h-113v302h-333v-302h-113z" />
    <glyph glyph-name="Iotatonos" unicode="&#x38a;" horiz-adv-x="431" 
d="M24 536l28 131h125l-67 -131h-86zM220 0v666h113v-666h-113z" />
    <glyph glyph-name="Omicrontonos" unicode="&#x38c;" horiz-adv-x="845" 
d="M24 536l28 131h125l-67 -131h-86zM463 -12c-215 0 -338 163 -338 344c0 182 120 346 335 346c216 0 337 -162 337 -343c0 -182 -119 -347 -334 -347zM460 80c146 0 218 117 218 252c0 136 -70 254 -215 254s-219 -115 -219 -251s72 -255 216 -255z" />
    <glyph glyph-name="Upsilontonos" unicode="&#x38e;" horiz-adv-x="778" 
d="M24 536l28 131h125l-67 -131h-86zM435 0v252l-222 414h126l157 -309h1l157 309h110l-216 -414v-252h-113z" />
    <glyph glyph-name="Omegatonos" unicode="&#x38f;" horiz-adv-x="838" 
d="M24 536l28 131h125l-67 -131h-86zM135 0v90h132c-73 50 -126 153 -126 269c0 193 150 319 321 319c170 0 321 -126 321 -319c0 -116 -54 -219 -127 -269h132v-90h-258v86c93 63 139 148 139 270s-87 230 -207 230c-121 0 -208 -108 -208 -230s47 -207 139 -270v-86h-258z
" />
    <glyph glyph-name="iotadieresistonos" unicode="&#x390;" horiz-adv-x="299" 
d="M-27 540c-36 0 -64 29 -64 64c0 34 28 63 64 63c37 0 65 -29 65 -63c0 -35 -28 -64 -65 -64zM304 540c-36 0 -64 29 -64 64c0 34 28 63 64 63c37 0 65 -29 65 -63c0 -35 -28 -64 -65 -64zM74 541l27 143h123l-67 -143h-83zM197 -12c-93 0 -122 53 -122 131v365h106v-348
c0 -41 8 -60 35 -60c14 0 27 6 36 13l28 -78c-17 -12 -48 -23 -83 -23z" />
    <glyph glyph-name="Alpha" unicode="&#x391;" horiz-adv-x="656" 
d="M215 235h216l-69 190c-20 56 -30 92 -38 115h-2c-7 -24 -18 -63 -37 -115zM18 0l254 666h109l259 -666h-123l-52 143h-283l-51 -143h-113z" />
    <glyph glyph-name="Beta" unicode="&#x392;" horiz-adv-x="588" 
d="M89 0v666h201c124 0 225 -43 225 -166c0 -83 -46 -131 -119 -150v-2c81 -13 147 -68 147 -162c0 -136 -105 -186 -256 -186h-198zM200 89h83c97 0 145 30 145 103c0 70 -39 110 -139 110h-89v-213zM200 387h77c87 0 125 31 125 98c0 64 -42 92 -123 92h-79v-190z" />
    <glyph glyph-name="Gamma" unicode="&#x393;" horiz-adv-x="479" 
d="M89 0v666h373v-92h-260v-574h-113z" />
    <glyph glyph-name="Delta" unicode="&#x394;" horiz-adv-x="635" 
d="M24 0v63l237 603h108l244 -603v-63h-589zM145 94h337l-128 332c-20 51 -36 104 -41 120h-2c-5 -17 -22 -69 -41 -120z" />
    <glyph glyph-name="Epsilon" unicode="&#x395;" horiz-adv-x="518" 
d="M89 0v666h365v-94h-253v-178h223v-90h-223v-210h260v-94h-372z" />
    <glyph glyph-name="Zeta" unicode="&#x396;" horiz-adv-x="566" 
d="M46 0v75l331 499h-316v92h452v-72l-335 -502h345v-92h-477z" />
    <glyph glyph-name="Eta" unicode="&#x397;" horiz-adv-x="736" 
d="M89 0v666h113v-271h333v271h113v-666h-113v302h-333v-302h-113z" />
    <glyph glyph-name="Theta" unicode="&#x398;" horiz-adv-x="767" 
d="M386 -12c-215 0 -338 163 -338 344c0 182 120 346 335 346c216 0 337 -162 337 -343c0 -182 -119 -347 -334 -347zM383 80c146 0 218 117 218 252c0 136 -70 254 -215 254s-219 -115 -219 -251s72 -255 216 -255zM244 289v90h270v-90h-270z" />
    <glyph glyph-name="Iota" unicode="&#x399;" horiz-adv-x="305" 
d="M95 0v666h113v-666h-113z" />
    <glyph glyph-name="Kappa" unicode="&#x39a;" horiz-adv-x="603" 
d="M89 0v666h112v-306l246 306h127l-255 -311l270 -355h-136l-252 334v-334h-112z" />
    <glyph glyph-name="Lambda" unicode="&#x39b;" horiz-adv-x="646" 
d="M18 0l248 666h108l256 -666h-122l-154 426c-19 52 -31 98 -36 113h-2c-5 -16 -18 -62 -36 -113l-149 -426h-113z" />
    <glyph glyph-name="Mu" unicode="&#x39c;" horiz-adv-x="868" 
d="M47 0l91 666h109l148 -430c17 -51 29 -91 37 -118h2c8 26 20 67 38 118l150 430h109l91 -666h-115l-49 385c-6 48 -10 79 -11 95h-2c-5 -18 -14 -50 -29 -94l-133 -386h-110l-135 386c-14 43 -24 76 -30 94h-2c-1 -19 -4 -52 -9 -97l-47 -383h-103z" />
    <glyph glyph-name="Nu" unicode="&#x39d;" horiz-adv-x="728" 
d="M87 0v666h113l273 -392c36 -52 58 -91 67 -106h2c-1 11 -4 48 -4 98v400h103v-666h-104l-290 417c-29 40 -49 77 -59 93h-2c1 -10 4 -44 4 -81v-429h-103z" />
    <glyph glyph-name="Xi" unicode="&#x39e;" horiz-adv-x="588" 
d="M59 0v102h470v-102h-470zM96 298v102h396v-102h-396zM66 564v102h456v-102h-456z" />
    <glyph glyph-name="Omicron" unicode="&#x39f;" horiz-adv-x="767" 
d="M386 -12c-215 0 -338 163 -338 344c0 182 120 346 335 346c216 0 337 -162 337 -343c0 -182 -119 -347 -334 -347zM383 80c146 0 218 117 218 252c0 136 -70 254 -215 254s-219 -115 -219 -251s72 -255 216 -255z" />
    <glyph glyph-name="Pi" unicode="&#x3a0;" horiz-adv-x="711" 
d="M89 0v666h534v-666h-113v572h-308v-572h-113z" />
    <glyph glyph-name="Rho" unicode="&#x3a1;" horiz-adv-x="569" 
d="M88 0v666h195c140 0 246 -66 246 -202c0 -139 -98 -213 -259 -213h-69v-251h-113zM201 340h70c101 0 144 41 144 121c0 72 -40 116 -141 116h-73v-237z" />
    <glyph glyph-name="Sigma" unicode="&#x3a3;" horiz-adv-x="521" 
d="M46 0v73l185 275l-170 244v74h401v-93h-270l156 -221l-174 -259h304v-93h-432z" />
    <glyph glyph-name="Tau" unicode="&#x3a4;" horiz-adv-x="519" 
d="M203 0v572h-186v94h485v-94h-185v-572h-114z" />
    <glyph glyph-name="Upsilon" unicode="&#x3a5;" horiz-adv-x="579" 
d="M236 0v252l-222 414h126l157 -309h1l157 309h110l-216 -414v-252h-113z" />
    <glyph glyph-name="Phi" unicode="&#x3a6;" horiz-adv-x="756" 
d="M322 0v72c-175 3 -291 116 -291 267c0 148 115 265 291 269v58h112v-58c176 -4 291 -117 291 -266c0 -151 -113 -267 -291 -270v-72h-112zM427 156c112 2 186 78 186 183c0 107 -74 183 -186 185v-368zM330 156v368c-112 -2 -186 -77 -186 -182c0 -108 75 -184 186 -186z
" />
    <glyph glyph-name="Chi" unicode="&#x3a7;" horiz-adv-x="593" 
d="M22 0l211 343l-201 323h129l141 -230l133 230h116l-194 -322l214 -344h-128l-156 253l-150 -253h-115z" />
    <glyph glyph-name="Psi" unicode="&#x3a8;" horiz-adv-x="752" 
d="M324 0v193c-161 17 -263 104 -263 278v195h113v-188c0 -137 68 -185 157 -191v379h98v-379c88 7 158 60 158 181v198h104v-192c0 -179 -103 -263 -254 -281v-193h-113z" />
    <glyph glyph-name="Omega" unicode="&#x3a9;" horiz-adv-x="755" 
d="M51 0v90h132c-73 50 -126 153 -126 269c0 193 150 319 321 319c170 0 321 -126 321 -319c0 -116 -54 -219 -127 -269h132v-90h-258v86c93 63 139 148 139 270s-87 230 -207 230c-121 0 -208 -108 -208 -230s47 -207 139 -270v-86h-258z" />
    <glyph glyph-name="Iotadieresis" unicode="&#x3aa;" horiz-adv-x="305" 
d="M52 717c-37 0 -65 29 -65 64c0 34 28 63 65 63s65 -29 65 -63c0 -35 -28 -64 -65 -64zM252 717c-37 0 -65 29 -65 64c0 34 28 63 65 63s65 -29 65 -63c0 -35 -28 -64 -65 -64zM95 0v666h113v-666h-113z" />
    <glyph glyph-name="Upsilondieresis" unicode="&#x3ab;" horiz-adv-x="579" 
d="M190 717c-37 0 -65 29 -65 64c0 34 28 63 65 63s65 -29 65 -63c0 -35 -28 -64 -65 -64zM390 717c-37 0 -65 29 -65 64c0 34 28 63 65 63s65 -29 65 -63c0 -35 -28 -64 -65 -64zM236 0v252l-222 414h126l157 -309h1l157 309h110l-216 -414v-252h-113z" />
    <glyph glyph-name="alphatonos" unicode="&#x3ac;" horiz-adv-x="575" 
d="M230 541l28 131h125l-67 -131h-86zM244 -12c-153 0 -212 133 -212 253c0 119 59 255 211 255c90 0 142 -55 162 -106h1c3 32 20 81 29 94h110c-18 -25 -36 -72 -51 -130l-29 -107l33 -117c15 -54 39 -105 57 -130h-111c-10 14 -32 64 -37 95h-1
c-21 -52 -75 -107 -162 -107zM253 72c68 0 102 72 117 166c-11 92 -51 175 -120 175c-77 0 -105 -74 -105 -169s31 -172 108 -172z" />
    <glyph glyph-name="epsilontonos" unicode="&#x3ad;" horiz-adv-x="446" 
d="M192 541l28 131h125l-67 -131h-86zM246 -12c-123 0 -215 47 -215 145c0 60 49 110 108 118v2c-53 13 -88 51 -88 109c0 85 92 134 205 134c69 0 130 -21 165 -44l-38 -79c-31 21 -81 37 -130 37c-56 0 -90 -22 -90 -62c0 -43 49 -61 106 -61h48v-77h-49
c-67 0 -123 -22 -123 -67c0 -47 36 -68 104 -68c54 0 105 17 140 38l41 -79c-46 -27 -109 -46 -184 -46z" />
    <glyph glyph-name="etatonos" unicode="&#x3ae;" horiz-adv-x="545" 
d="M224 541l28 131h125l-67 -131h-86zM370 -218v538c0 54 -19 85 -74 85c-48 0 -91 -37 -117 -73v-332h-107v363c0 48 -6 92 -13 121h106c4 -11 10 -43 10 -65c39 47 93 77 157 77c104 0 144 -68 144 -154v-560h-106z" />
    <glyph glyph-name="iotatonos" unicode="&#x3af;" horiz-adv-x="299" 
d="M86 541l28 131h125l-67 -131h-86zM197 -12c-93 0 -122 53 -122 131v365h106v-348c0 -41 8 -60 35 -60c14 0 27 6 36 13l28 -78c-17 -12 -48 -23 -83 -23z" />
    <glyph glyph-name="upsilondieresistonos" unicode="&#x3b0;" horiz-adv-x="534" 
d="M109 540c-36 0 -64 29 -64 64c0 34 28 63 64 63c37 0 65 -29 65 -63c0 -35 -28 -64 -65 -64zM440 540c-36 0 -64 29 -64 64c0 34 28 63 64 63c37 0 65 -29 65 -63c0 -35 -28 -64 -65 -64zM210 541l27 143h123l-67 -143h-83zM268 -12c-128 0 -204 74 -204 217v279h106
v-269c0 -100 37 -143 98 -143c68 0 106 65 106 228c0 67 -14 139 -30 184h109c15 -42 30 -108 30 -184c0 -218 -71 -312 -215 -312z" />
    <glyph glyph-name="alpha" unicode="&#x3b1;" horiz-adv-x="575" 
d="M244 -12c-153 0 -212 133 -212 253c0 119 59 255 211 255c90 0 142 -55 162 -106h1c3 32 20 81 29 94h110c-18 -25 -36 -72 -51 -130l-29 -107l33 -117c15 -54 39 -105 57 -130h-111c-10 14 -32 64 -37 95h-1c-21 -52 -75 -107 -162 -107zM253 72c68 0 102 72 117 166
c-11 92 -51 175 -120 175c-77 0 -105 -74 -105 -169s31 -172 108 -172z" />
    <glyph glyph-name="beta" unicode="&#x3b2;" horiz-adv-x="552" 
d="M72 -218v715c0 163 100 235 219 235c117 0 191 -72 191 -156c0 -82 -64 -155 -124 -171v-1c79 -10 156 -88 156 -184c0 -140 -83 -229 -229 -229c-52 0 -87 17 -106 34v-243h-107zM271 75c88 0 129 59 129 139c0 87 -67 137 -168 137v75c71 1 140 62 140 136
c0 45 -30 84 -84 84c-65 0 -109 -48 -109 -151v-386c19 -17 46 -33 92 -34z" />
    <glyph glyph-name="gamma" unicode="&#x3b3;" horiz-adv-x="486" 
d="M187 -218v229l-174 473h115l114 -350h2c61 122 98 239 113 350h108c-17 -124 -73 -278 -174 -471v-231h-104z" />
    <glyph glyph-name="delta" unicode="&#x3b4;" horiz-adv-x="545" 
d="M271 -12c-159 0 -239 112 -239 234s94 215 170 252c-33 36 -58 77 -58 124c0 80 71 134 163 134c68 0 112 -20 135 -37l-43 -73c-14 10 -39 26 -83 26c-37 0 -59 -21 -59 -53c0 -46 47 -83 115 -140c66 -55 141 -122 141 -241c0 -115 -80 -226 -242 -226zM283 399
c-6 4 -12 9 -17 14c-62 -30 -121 -100 -121 -188c0 -94 49 -153 128 -153c78 0 127 53 127 139c0 84 -53 132 -117 188z" />
    <glyph glyph-name="epsilon" unicode="&#x3b5;" horiz-adv-x="452" 
d="M249 -12c-123 0 -215 47 -215 145c0 60 49 110 108 118v2c-53 13 -88 51 -88 109c0 85 92 134 205 134c69 0 130 -21 165 -44l-38 -79c-31 21 -81 37 -130 37c-56 0 -90 -22 -90 -62c0 -43 49 -61 106 -61h48v-77h-49c-67 0 -123 -22 -123 -67c0 -47 36 -68 104 -68
c54 0 105 17 140 38l41 -79c-46 -27 -109 -46 -184 -46z" />
    <glyph glyph-name="zeta" unicode="&#x3b6;" horiz-adv-x="380" 
d="M293 -173l-62 53c19 11 41 35 41 60c0 23 -15 38 -43 51l-43 19c-100 47 -150 110 -150 197c0 91 59 187 138 295l93 136h-209v82h344v-64l-157 -216c-55 -74 -99 -149 -99 -213c0 -68 35 -102 104 -134l42 -20c49 -23 81 -53 81 -105c0 -60 -37 -115 -80 -141z" />
    <glyph glyph-name="eta" unicode="&#x3b7;" horiz-adv-x="545" 
d="M370 -218v538c0 54 -19 85 -74 85c-48 0 -91 -37 -117 -73v-332h-107v363c0 48 -6 92 -13 121h106c4 -11 10 -43 10 -65c39 47 93 77 157 77c104 0 144 -68 144 -154v-560h-106z" />
    <glyph glyph-name="theta" unicode="&#x3b8;" horiz-adv-x="544" 
d="M273 -12c-180 0 -228 201 -228 370s46 374 226 374s228 -201 228 -370s-45 -374 -226 -374zM275 71c84 0 112 123 116 255h-239c5 -132 39 -255 123 -255zM270 649c-82 0 -112 -115 -117 -242h237c-6 126 -40 242 -120 242z" />
    <glyph glyph-name="iota" unicode="&#x3b9;" horiz-adv-x="299" 
d="M197 -12c-93 0 -122 53 -122 131v365h106v-348c0 -41 8 -60 35 -60c14 0 27 6 36 13l28 -78c-17 -12 -48 -23 -83 -23z" />
    <glyph glyph-name="kappa" unicode="&#x3ba;" horiz-adv-x="540" 
d="M78 0v484h104v-200c0 -36 -3 -85 -12 -126h1c37 107 130 228 226 326h126c-64 -58 -128 -125 -185 -193l187 -291h-120l-130 210c-52 -70 -89 -145 -102 -210h-95z" />
    <glyph glyph-name="lambda" unicode="&#x3bb;" horiz-adv-x="514" 
d="M20 0l191 493l-26 72c-18 50 -32 71 -58 71c-18 0 -33 -5 -44 -12l-23 78c18 11 50 23 85 23c61 0 101 -28 137 -129l216 -596h-111l-102 302c-9 27 -18 59 -23 87h-1c-5 -28 -14 -60 -23 -87l-106 -302h-112z" />
    <glyph glyph-name="mu" unicode="&#x3bc;" horiz-adv-x="557" 
d="M69 -218v702h106v-326c0 -44 11 -79 66 -79c57 0 103 45 126 73v332h106v-365c0 -46 5 -96 10 -119h-105c-3 11 -8 45 -9 67c-23 -26 -69 -74 -141 -77c-20 0 -41 3 -55 11h-3c2 -17 4 -61 4 -105v-114h-105z" />
    <glyph glyph-name="nu" unicode="&#x3bd;" horiz-adv-x="486" 
d="M192 0l-178 484h114l114 -350h2c61 122 98 239 113 350h108c-17 -126 -78 -286 -183 -484h-90z" />
    <glyph glyph-name="xi" unicode="&#x3be;" horiz-adv-x="411" 
d="M308 -173l-63 53c20 11 41 35 41 61c0 25 -14 40 -43 51l-51 19c-82 32 -153 73 -153 184c0 91 56 168 135 184v2c-61 17 -100 69 -100 132c0 62 35 116 80 132v1c-22 -4 -40 -5 -66 -5h-73v79h379v-82h-85c-85 0 -127 -57 -127 -126c0 -61 47 -103 122 -103h46v-80h-58
c-99 0 -143 -57 -143 -124c0 -59 42 -86 115 -114l42 -16c51 -19 82 -54 82 -107c0 -60 -37 -115 -80 -141z" />
    <glyph glyph-name="omicron" unicode="&#x3bf;" horiz-adv-x="540" 
d="M269 -12c-167 0 -234 134 -234 253s65 255 232 255c166 0 239 -133 239 -252c0 -118 -71 -256 -237 -256zM270 72c87 0 123 72 123 169c0 96 -41 172 -128 172c-86 0 -118 -73 -118 -169s37 -172 123 -172z" />
    <glyph glyph-name="pi" unicode="&#x3c0;" horiz-adv-x="632" 
d="M495 -12c-92 0 -122 53 -122 131v284h-145c0 -127 -11 -286 -29 -403h-107c19 122 32 282 32 403h-96v81h567v-81h-116v-267c0 -41 8 -60 35 -60c15 0 28 6 37 13l28 -78c-18 -12 -49 -23 -84 -23z" />
    <glyph glyph-name="rho" unicode="&#x3c1;" horiz-adv-x="533" 
d="M56 -218v474c0 144 65 240 217 240c135 0 225 -86 225 -248c0 -157 -93 -260 -230 -260c-52 0 -86 16 -105 32v-238h-107zM256 73c78 0 129 67 129 174c0 99 -36 166 -113 166c-76 0 -109 -57 -109 -161v-146c19 -17 49 -33 93 -33z" />
    <glyph glyph-name="sigma1" unicode="&#x3c2;" horiz-adv-x="444" 
d="M309 -173l-63 53c20 11 42 35 42 60c0 23 -15 37 -43 51l-55 24c-95 42 -155 100 -155 229c0 165 105 252 240 252c79 0 125 -27 148 -43l-39 -75c-24 16 -55 34 -107 34c-88 0 -130 -68 -130 -164c0 -73 35 -117 100 -146l61 -29c49 -23 81 -53 81 -105
c0 -60 -37 -115 -80 -141z" />
    <glyph glyph-name="sigma" unicode="&#x3c3;" horiz-adv-x="560" 
d="M269 -12c-167 0 -234 134 -234 247s67 249 242 249h261v-81h-107v-1c41 -28 75 -92 75 -164c0 -112 -71 -250 -237 -250zM270 72c86 0 123 71 123 163s-42 166 -128 166s-118 -73 -118 -163s37 -166 123 -166z" />
    <glyph glyph-name="tau" unicode="&#x3c4;" horiz-adv-x="424" 
d="M259 -12c-93 0 -122 53 -122 131v284h-126v81h397v-81h-165v-267c0 -41 8 -60 35 -60c15 0 28 6 36 13l29 -78c-18 -12 -49 -23 -84 -23z" />
    <glyph glyph-name="upsilon" unicode="&#x3c5;" horiz-adv-x="534" 
d="M269 -12c-128 0 -204 74 -204 217v279h106v-269c0 -100 37 -143 98 -143c68 0 106 65 106 228c0 67 -14 139 -30 184h109c15 -42 30 -108 30 -184c0 -218 -71 -312 -215 -312z" />
    <glyph glyph-name="phi" unicode="&#x3c6;" horiz-adv-x="676" 
d="M288 -219v207c-168 4 -255 128 -255 253c0 124 87 251 255 255v224h95v-224c167 -4 260 -129 260 -253s-93 -252 -260 -255v-207h-95zM383 68c89 3 148 67 148 172c0 104 -59 171 -148 175v-347zM288 69v347c-89 -4 -143 -68 -143 -172c0 -105 54 -172 143 -175z" />
    <glyph glyph-name="chi" unicode="&#x3c7;" horiz-adv-x="463" 
d="M-2 -218l179 363l-166 339h113l111 -240h1l111 240h105l-166 -336l180 -366h-113l-126 268h-1l-122 -268h-106z" />
    <glyph glyph-name="psi" unicode="&#x3c8;" horiz-adv-x="690" 
d="M296 -219v207c-125 5 -231 75 -231 221v275h106v-264c0 -103 59 -146 128 -148v568h94v-568c69 2 139 64 139 228c0 67 -15 139 -30 184h108c16 -42 30 -108 30 -184c0 -220 -104 -307 -244 -312v-207h-100z" />
    <glyph glyph-name="omega" unicode="&#x3c9;" horiz-adv-x="763" 
d="M226 -12c-114 0 -181 82 -181 226c0 113 27 201 76 270h114c-50 -73 -81 -160 -81 -260c0 -104 30 -148 79 -148c62 0 94 88 99 253h99c5 -165 37 -253 99 -253c49 0 79 44 79 148c0 100 -31 187 -81 260h114c49 -69 76 -157 76 -270c0 -144 -67 -226 -181 -226
c-86 0 -134 57 -155 125h-1c-21 -68 -69 -125 -155 -125z" />
    <glyph glyph-name="iotadieresis" unicode="&#x3ca;" horiz-adv-x="299" 
d="M29 540c-37 0 -65 29 -65 64c0 34 28 63 65 63s65 -29 65 -63c0 -35 -28 -64 -65 -64zM229 540c-37 0 -65 29 -65 64c0 34 28 63 65 63s65 -29 65 -63c0 -35 -28 -64 -65 -64zM197 -12c-93 0 -122 53 -122 131v365h106v-348c0 -41 8 -60 35 -60c14 0 27 6 36 13l28 -78
c-17 -12 -48 -23 -83 -23z" />
    <glyph glyph-name="upsilondieresis" unicode="&#x3cb;" horiz-adv-x="534" 
d="M166 540c-37 0 -65 29 -65 64c0 34 28 63 65 63s65 -29 65 -63c0 -35 -28 -64 -65 -64zM366 540c-37 0 -65 29 -65 64c0 34 28 63 65 63s65 -29 65 -63c0 -35 -28 -64 -65 -64zM269 -12c-128 0 -204 74 -204 217v279h106v-269c0 -100 37 -143 98 -143
c68 0 106 65 106 228c0 67 -14 139 -30 184h109c15 -42 30 -108 30 -184c0 -218 -71 -312 -215 -312z" />
    <glyph glyph-name="omicrontonos" unicode="&#x3cc;" horiz-adv-x="540" 
d="M227 541l28 131h125l-67 -131h-86zM269 -12c-167 0 -234 134 -234 253s65 255 232 255c166 0 239 -133 239 -252c0 -118 -71 -256 -237 -256zM270 72c87 0 123 72 123 169c0 96 -41 172 -128 172c-86 0 -118 -73 -118 -169s37 -172 123 -172z" />
    <glyph glyph-name="upsilontonos" unicode="&#x3cd;" horiz-adv-x="534" 
d="M224 541l28 131h125l-67 -131h-86zM269 -12c-128 0 -204 74 -204 217v279h106v-269c0 -100 37 -143 98 -143c68 0 106 65 106 228c0 67 -14 139 -30 184h109c15 -42 30 -108 30 -184c0 -218 -71 -312 -215 -312z" />
    <glyph glyph-name="omegatonos" unicode="&#x3ce;" horiz-adv-x="760" 
d="M336 541l28 131h125l-67 -131h-86zM225 -12c-114 0 -181 82 -181 226c0 113 27 201 76 270h114c-50 -73 -81 -160 -81 -260c0 -104 30 -148 79 -148c62 0 94 88 99 253h99c5 -165 37 -253 99 -253c49 0 79 44 79 148c0 100 -31 187 -81 260h114c49 -69 76 -157 76 -270
c0 -144 -67 -226 -181 -226c-86 0 -134 57 -155 125h-1c-21 -68 -69 -125 -155 -125z" />
    <glyph glyph-name="afii10023" unicode="&#x401;" horiz-adv-x="518" 
d="M173 717c-37 0 -65 29 -65 64c0 34 28 63 65 63s65 -29 65 -63c0 -35 -28 -64 -65 -64zM373 717c-37 0 -65 29 -65 64c0 34 28 63 65 63s65 -29 65 -63c0 -35 -28 -64 -65 -64zM89 0v666h365v-94h-253v-178h223v-90h-223v-210h260v-94h-372z" />
    <glyph glyph-name="afii10051" unicode="&#x402;" horiz-adv-x="715" 
d="M176 0v572h-159v94h487v-94h-216v-207c29 37 98 94 190 94c133 0 193 -116 193 -272c0 -224 -120 -385 -270 -385c-26 0 -57 7 -70 13l22 91c10 -4 29 -7 48 -7c88 0 155 123 155 279c0 114 -33 189 -114 189c-72 0 -130 -56 -154 -87v-280h-112z" />
    <glyph glyph-name="afii10052" unicode="&#x403;" horiz-adv-x="479" 
d="M201 718l87 131h144l-138 -131h-93zM89 0v666h373v-92h-260v-574h-113z" />
    <glyph glyph-name="afii10053" unicode="&#x404;" horiz-adv-x="617" 
d="M382 -12c-219 0 -334 162 -334 346s119 344 336 344c86 0 143 -19 194 -52l-53 -83c-38 25 -82 41 -144 41c-127 0 -202 -96 -211 -207h300v-90h-299c11 -110 85 -204 213 -204c72 0 120 24 156 53l49 -79c-35 -32 -112 -69 -207 -69z" />
    <glyph glyph-name="afii10054" unicode="&#x405;" horiz-adv-x="509" 
d="M235 -12c-105 0 -172 43 -198 67l51 79c15 -12 64 -54 147 -54c74 0 119 43 119 93c0 69 -73 93 -150 132c-82 40 -149 87 -149 195c0 112 94 178 206 178c104 0 161 -36 186 -55l-49 -80c-23 16 -70 43 -133 43c-60 0 -101 -31 -101 -84c0 -58 53 -81 121 -112
c88 -41 180 -86 180 -212c0 -114 -90 -190 -230 -190z" />
    <glyph glyph-name="afii10055" unicode="&#x406;" horiz-adv-x="299" 
d="M89 0v666h113v-666h-113z" />
    <glyph glyph-name="afii10056" unicode="&#x407;" horiz-adv-x="305" 
d="M95 0v666h113v-666h-113zM52 717c-37 0 -65 29 -65 64c0 34 28 63 65 63s65 -29 65 -63c0 -35 -28 -64 -65 -64zM252 717c-37 0 -65 29 -65 64c0 34 28 63 65 63s65 -29 65 -63c0 -35 -28 -64 -65 -64z" />
    <glyph glyph-name="afii10057" unicode="&#x408;" horiz-adv-x="309" 
d="M48 -198c-39 0 -65 7 -80 14l18 93c7 -3 25 -8 43 -8c55 0 78 32 78 108v657h114v-673c0 -123 -63 -191 -173 -191z" />
    <glyph glyph-name="afii10058" unicode="&#x409;" horiz-adv-x="971" 
d="M38 -10l-13 89c77 6 106 93 119 249l28 338h418v-251h98c140 0 245 -66 245 -202c0 -139 -98 -213 -258 -213h-197v572h-204l-22 -269c-16 -213 -80 -313 -214 -313zM590 89h85c102 0 144 41 144 121c0 72 -40 116 -141 116h-88v-237z" />
    <glyph glyph-name="afii10059" unicode="&#x40a;" horiz-adv-x="975" 
d="M89 0v666h113v-260h280v260h113v-260h98c140 0 245 -64 245 -197c0 -137 -98 -209 -259 -209h-197v313h-280v-313h-113zM595 89h85c101 0 144 41 144 117c0 68 -40 111 -141 111h-88v-228z" />
    <glyph glyph-name="afii10060" unicode="&#x40b;" horiz-adv-x="730" 
d="M176 0v572h-159v94h487v-94h-216v-207c29 37 102 94 194 94c116 0 188 -74 188 -192v-267h-112v245c0 84 -48 122 -112 122c-72 0 -134 -56 -158 -87v-280h-112z" />
    <glyph glyph-name="afii10061" unicode="&#x40c;" horiz-adv-x="609" 
d="M258 718l87 131h144l-138 -131h-93zM89 0v666h112v-284h52l207 284h123l-238 -313c27 -23 54 -61 93 -120c60 -93 84 -140 131 -140h10l-1 -93h-45c-71 0 -104 39 -176 152c-57 87 -81 140 -124 140h-32v-292h-112z" />
    <glyph glyph-name="afii10062" unicode="&#x40e;" horiz-adv-x="570" 
d="M120 -3c-24 0 -44 4 -54 8l15 85c8 -2 20 -4 35 -4c53 0 83 33 111 96l14 32l-201 452h108l148 -336l147 336h109l-228 -514c-50 -111 -104 -155 -204 -155zM296 711c-77 0 -148 44 -158 147h90c3 -45 27 -74 68 -74s64 29 68 74h89c-9 -103 -80 -147 -157 -147z" />
    <glyph glyph-name="afii10145" unicode="&#x40f;" horiz-adv-x="703" 
d="M315 -145l-7 145h-219v666h112v-572h301v572h113v-666h-219l-7 -145h-74z" />
    <glyph glyph-name="afii10017" unicode="&#x410;" horiz-adv-x="656" 
d="M215 235h216l-69 190c-20 56 -30 92 -38 115h-2c-7 -24 -18 -63 -37 -115zM18 0l254 666h109l259 -666h-123l-52 143h-283l-51 -143h-113z" />
    <glyph glyph-name="afii10018" unicode="&#x411;" horiz-adv-x="593" 
d="M89 0v666h394v-94h-281v-166h97c140 0 246 -64 246 -197c0 -137 -99 -209 -259 -209h-197zM202 89h84c102 0 145 41 145 117c0 68 -41 111 -141 111h-88v-228z" />
    <glyph glyph-name="afii10019" unicode="&#x412;" horiz-adv-x="588" 
d="M89 0v666h201c124 0 225 -43 225 -166c0 -83 -46 -131 -119 -150v-2c81 -13 147 -68 147 -162c0 -136 -105 -186 -256 -186h-198zM200 89h83c97 0 145 30 145 103c0 70 -39 110 -139 110h-89v-213zM200 387h77c87 0 125 31 125 98c0 64 -42 92 -123 92h-79v-190z" />
    <glyph glyph-name="afii10020" unicode="&#x413;" horiz-adv-x="479" 
d="M89 0v666h373v-92h-260v-574h-113z" />
    <glyph glyph-name="afii10021" unicode="&#x414;" horiz-adv-x="712" 
d="M40 -145l-16 239h53c45 42 63 102 78 234l40 338h403v-572h69l-21 -239h-73l-10 145h-437l-12 -145h-74zM194 94h291v478h-191l-30 -263c-13 -115 -37 -180 -70 -215z" />
    <glyph glyph-name="afii10022" unicode="&#x415;" horiz-adv-x="518" 
d="M89 0v666h365v-94h-253v-178h223v-90h-223v-210h260v-94h-372z" />
    <glyph glyph-name="afii10024" unicode="&#x416;" horiz-adv-x="929" 
d="M30 0l2 93h8c48 0 72 47 131 140c39 59 66 97 93 120l-238 313h123l207 -284h52v284h113v-284h52l207 284h123l-239 -313c27 -23 55 -61 94 -120c59 -93 84 -140 131 -140h10l-2 -93h-44c-71 0 -104 39 -176 152c-57 87 -81 140 -124 140h-32v-292h-113v292h-35
c-41 -2 -65 -54 -120 -140c-73 -113 -106 -152 -176 -152h-47z" />
    <glyph glyph-name="afii10025" unicode="&#x417;" horiz-adv-x="529" 
d="M228 -12c-88 0 -154 24 -200 60l52 81c32 -26 80 -48 151 -48c87 0 138 34 138 107c0 69 -53 114 -147 114h-70v85h57c83 0 134 35 134 103c0 57 -39 94 -115 94c-63 0 -109 -19 -143 -45l-43 79c36 30 96 60 188 60c129 0 226 -58 226 -174c0 -83 -42 -135 -115 -154v-2
c81 -13 143 -73 143 -166c0 -133 -110 -194 -256 -194z" />
    <glyph glyph-name="afii10026" unicode="&#x418;" horiz-adv-x="731" 
d="M89 0v666h104v-405c0 -51 -3 -88 -4 -98h2c9 15 31 53 67 105l271 398h113v-666h-105v434c0 38 3 71 4 82h-2c-9 -17 -30 -53 -58 -94l-289 -422h-103z" />
    <glyph glyph-name="afii10027" unicode="&#x419;" horiz-adv-x="731" 
d="M89 0v666h104v-405c0 -51 -3 -88 -4 -98h2c9 15 31 53 67 105l271 398h113v-666h-105v434c0 38 3 71 4 82h-2c-9 -17 -30 -53 -58 -94l-289 -422h-103zM367 711c-77 0 -148 44 -158 147h90c3 -45 27 -74 68 -74s64 29 68 74h89c-9 -103 -80 -147 -157 -147z" />
    <glyph glyph-name="afii10028" unicode="&#x41a;" horiz-adv-x="609" 
d="M89 0v666h112v-284h52l207 284h123l-238 -313c27 -23 54 -61 93 -120c60 -93 84 -140 131 -140h10l-1 -93h-45c-71 0 -104 39 -176 152c-57 87 -81 140 -124 140h-32v-292h-112z" />
    <glyph glyph-name="afii10029" unicode="&#x41b;" horiz-adv-x="679" 
d="M38 -10l-13 89c77 6 106 93 119 249l28 338h418v-666h-112v572h-204l-22 -269c-16 -213 -80 -313 -214 -313z" />
    <glyph glyph-name="afii10030" unicode="&#x41c;" horiz-adv-x="868" 
d="M47 0l91 666h109l148 -430c17 -51 29 -91 37 -118h2c8 26 20 67 38 118l150 430h109l91 -666h-115l-49 385c-6 48 -10 79 -11 95h-2c-5 -18 -14 -50 -29 -94l-133 -386h-110l-135 386c-14 43 -24 76 -30 94h-2c-1 -19 -4 -52 -9 -97l-47 -383h-103z" />
    <glyph glyph-name="afii10031" unicode="&#x41d;" horiz-adv-x="736" 
d="M89 0v666h113v-271h333v271h113v-666h-113v302h-333v-302h-113z" />
    <glyph glyph-name="afii10032" unicode="&#x41e;" horiz-adv-x="767" 
d="M386 -12c-215 0 -338 163 -338 344c0 182 120 346 335 346c216 0 337 -162 337 -343c0 -182 -119 -347 -334 -347zM383 80c146 0 218 117 218 252c0 136 -70 254 -215 254s-219 -115 -219 -251s72 -255 216 -255z" />
    <glyph glyph-name="afii10033" unicode="&#x41f;" horiz-adv-x="711" 
d="M89 0v666h534v-666h-113v572h-308v-572h-113z" />
    <glyph glyph-name="afii10034" unicode="&#x420;" horiz-adv-x="570" 
d="M89 0v666h195c140 0 246 -66 246 -202c0 -139 -99 -213 -259 -213h-69v-251h-113zM202 340h69c102 0 144 41 144 121c0 72 -40 116 -140 116h-73v-237z" />
    <glyph glyph-name="afii10035" unicode="&#x421;" horiz-adv-x="617" 
d="M382 -12c-219 0 -334 166 -334 346c0 181 119 344 336 344c86 0 143 -19 194 -52l-53 -83c-38 25 -82 41 -144 41c-140 0 -214 -114 -214 -246c0 -136 71 -255 217 -255c72 0 120 24 156 53l49 -79c-35 -32 -112 -69 -207 -69z" />
    <glyph glyph-name="afii10036" unicode="&#x422;" horiz-adv-x="519" 
d="M203 0v572h-186v94h485v-94h-185v-572h-114z" />
    <glyph glyph-name="afii10037" unicode="&#x423;" horiz-adv-x="570" 
d="M120 -3c-24 0 -44 4 -54 8l15 85c8 -2 20 -4 35 -4c53 0 83 33 111 96l14 32l-201 452h108l148 -336l147 336h109l-228 -514c-50 -111 -104 -155 -204 -155z" />
    <glyph glyph-name="afii10038" unicode="&#x424;" horiz-adv-x="756" 
d="M322 0v72c-175 3 -291 116 -291 267c0 148 115 265 291 269v58h112v-58c176 -4 291 -117 291 -266c0 -151 -113 -267 -291 -270v-72h-112zM427 156c112 2 186 78 186 183c0 107 -74 183 -186 185v-368zM330 156v368c-112 -2 -186 -77 -186 -182c0 -108 75 -184 186 -186z
" />
    <glyph glyph-name="afii10039" unicode="&#x425;" horiz-adv-x="593" 
d="M22 0l211 343l-201 323h129l141 -230l133 230h116l-194 -322l214 -344h-128l-156 253l-150 -253h-115z" />
    <glyph glyph-name="afii10040" unicode="&#x426;" horiz-adv-x="728" 
d="M589 -145l-9 145h-491v666h112v-572h301v572h113v-572h68l-20 -239h-74z" />
    <glyph glyph-name="afii10041" unicode="&#x427;" horiz-adv-x="646" 
d="M445 0v274c-28 -37 -102 -94 -197 -94c-118 0 -191 75 -191 193v293h112v-271c0 -84 49 -124 115 -124c74 0 138 56 161 87v308h112v-666h-112z" />
    <glyph glyph-name="afii10042" unicode="&#x428;" horiz-adv-x="1027" 
d="M89 0v666h112v-572h251v572h112v-572h251v572h113v-666h-839z" />
    <glyph glyph-name="afii10043" unicode="&#x429;" horiz-adv-x="1041" 
d="M902 -145l-9 145h-804v666h112v-572h251v572h112v-572h251v572h113v-572h68l-20 -239h-74z" />
    <glyph glyph-name="afii10044" unicode="&#x42a;" horiz-adv-x="663" 
d="M170 0v572h-153v94h266v-251h98c140 0 245 -66 245 -202c0 -139 -98 -213 -259 -213h-197zM283 89h85c101 0 144 41 144 121c0 72 -40 116 -141 116h-88v-237z" />
    <glyph glyph-name="afii10045" unicode="&#x42b;" horiz-adv-x="862" 
d="M660 0v666h113v-666h-113zM89 0v666h113v-251h97c140 0 246 -66 246 -202c0 -139 -99 -213 -259 -213h-197zM202 89h84c102 0 145 41 145 121c0 72 -41 116 -141 116h-88v-237z" />
    <glyph glyph-name="afii10046" unicode="&#x42c;" horiz-adv-x="582" 
d="M89 0v666h113v-251h97c140 0 246 -66 246 -202c0 -139 -99 -213 -259 -213h-197zM202 89h84c102 0 145 41 145 121c0 72 -41 116 -141 116h-88v-237z" />
    <glyph glyph-name="afii10047" unicode="&#x42d;" horiz-adv-x="617" 
d="M232 -12c-91 0 -154 22 -204 58l52 83c35 -26 85 -47 154 -47c125 0 203 93 212 205h-293v90h292c-9 111 -82 206 -212 206c-64 0 -110 -21 -146 -47l-48 80c37 29 105 62 197 62c218 0 333 -158 333 -344c0 -184 -121 -346 -337 -346z" />
    <glyph glyph-name="afii10048" unicode="&#x42e;" horiz-adv-x="1082" 
d="M701 -12c-202 0 -324 145 -337 314h-162v-302h-113v666h113v-271h166c24 155 140 283 330 283c215 0 337 -162 337 -343c0 -182 -119 -347 -334 -347zM698 80c146 0 218 117 218 252c0 136 -70 254 -215 254c-146 0 -219 -115 -219 -251s72 -255 216 -255z" />
    <glyph glyph-name="afii10049" unicode="&#x42f;" horiz-adv-x="607" 
d="M43 0l-1 93h10c44 0 69 45 123 126c25 37 52 73 73 85v2c-93 8 -169 67 -169 174c0 118 87 186 235 186h204v-666h-113v291h-21c-40 -4 -65 -55 -120 -139c-72 -113 -105 -152 -176 -152h-45zM318 373h87v204h-81c-90 0 -132 -34 -132 -100c0 -65 40 -104 126 -104z" />
    <glyph glyph-name="afii10065" unicode="&#x430;" horiz-adv-x="489" 
d="M180 -12c-81 0 -142 50 -142 134c0 126 135 169 258 169h19v35c0 58 -25 83 -87 83c-49 0 -89 -19 -124 -49l-50 68c43 39 104 68 185 68c120 0 182 -51 182 -171v-197c0 -57 6 -101 12 -128h-105c-3 13 -7 40 -8 55c-28 -36 -78 -67 -140 -67zM208 70c47 0 82 23 107 54
v97h-19c-89 0 -152 -25 -152 -93c0 -42 34 -58 64 -58z" />
    <glyph glyph-name="afii10066" unicode="&#x431;" horiz-adv-x="540" 
d="M278 -12c-178 0 -232 161 -232 344c0 192 60 324 253 364l159 34l16 -93l-158 -30c-99 -20 -159 -77 -163 -188c29 37 73 68 141 68c120 0 212 -91 212 -246s-105 -253 -228 -253zM280 72c69 0 113 62 113 167c0 99 -39 167 -111 167c-65 0 -98 -35 -124 -75
c-1 -6 -1 -24 -1 -29c0 -159 49 -230 123 -230z" />
    <glyph glyph-name="afii10067" unicode="&#x432;" horiz-adv-x="506" 
d="M77 0v484h193c96 0 176 -30 176 -122c0 -63 -36 -96 -89 -109v-2c59 -8 110 -47 110 -117c0 -98 -83 -134 -199 -134h-191zM182 80h83c67 0 96 16 96 63c0 46 -28 70 -91 70h-88v-133zM182 284h76c60 0 85 21 85 64c0 40 -28 58 -83 58h-78v-122z" />
    <glyph glyph-name="afii10068" unicode="&#x433;" horiz-adv-x="401" 
d="M77 0v484h307v-83h-201v-401h-106z" />
    <glyph glyph-name="afii10069" unicode="&#x434;" horiz-adv-x="575" 
d="M34 -145l-16 228h38c29 21 47 72 55 156l26 245h338v-401h60l-20 -228h-70l-10 145h-318l-13 -145h-70zM161 83h211v318h-148l-17 -177c-6 -66 -22 -113 -46 -141z" />
    <glyph glyph-name="afii10070" unicode="&#x435;" horiz-adv-x="506" 
d="M277 -12c-158 0 -242 108 -242 257c0 148 97 251 229 251c130 0 202 -86 202 -228c0 -13 -1 -28 -2 -42h-316c5 -86 43 -155 137 -155c66 0 107 26 129 38l37 -73c-28 -17 -80 -48 -174 -48zM149 302h212c-2 61 -28 113 -99 113c-65 0 -101 -45 -113 -113z" />
    <glyph glyph-name="afii10072" unicode="&#x436;" horiz-adv-x="759" 
d="M27 0l1 81h6c26 0 47 26 89 93c28 43 50 72 73 89l-178 221h118l155 -200h35v200h107v-200h34l156 200h118l-178 -221c22 -17 45 -46 73 -89c42 -67 63 -93 88 -93h8l-2 -81h-40c-59 0 -85 31 -138 112c-42 67 -66 96 -95 98h-24v-210h-107v210h-24
c-29 -2 -53 -31 -95 -98c-54 -81 -80 -112 -139 -112h-41z" />
    <glyph glyph-name="afii10073" unicode="&#x437;" horiz-adv-x="429" 
d="M26 34l41 70c29 -20 73 -33 122 -33c66 0 96 25 96 72c0 46 -56 71 -117 71h-31v68h30c55 0 100 23 100 66c0 40 -29 66 -83 66c-46 0 -84 -14 -111 -32l-38 69c34 23 86 44 152 44c98 0 184 -41 184 -133c0 -63 -37 -96 -90 -109v-2c59 -8 110 -47 110 -117
c0 -98 -87 -145 -203 -145c-67 0 -122 17 -162 45z" />
    <glyph glyph-name="afii10074" unicode="&#x438;" horiz-adv-x="591" 
d="M77 0v484h96v-264c0 -38 -3 -77 -3 -79h1c1 1 23 41 53 85l185 258h105v-484h-97v286c0 33 3 66 3 67h-2c0 -1 -20 -35 -48 -76l-199 -277h-94z" />
    <glyph glyph-name="afii10075" unicode="&#x439;" horiz-adv-x="591" 
d="M77 0v484h96v-264c0 -38 -3 -77 -3 -79h1c1 1 23 41 53 85l185 258h105v-484h-97v286c0 33 3 66 3 67h-2c0 -1 -20 -35 -48 -76l-199 -277h-94zM291 533c-77 0 -148 44 -158 147h90c3 -45 27 -74 68 -74s64 29 68 74h89c-9 -103 -80 -147 -157 -147z" />
    <glyph glyph-name="afii10076" unicode="&#x43a;" horiz-adv-x="510" 
d="M77 0v484h107v-200h34l156 200h118l-178 -221c22 -17 45 -46 73 -89c42 -67 63 -93 88 -93h8l-2 -81h-40c-59 0 -85 31 -138 112c-42 67 -66 96 -95 98h-24v-210h-107z" />
    <glyph glyph-name="afii10077" unicode="&#x43b;" horiz-adv-x="554" 
d="M36 -8l-15 80c50 4 77 56 87 167l22 245h347v-484h-106v401h-151l-15 -181c-12 -155 -68 -228 -169 -228z" />
    <glyph glyph-name="afii10078" unicode="&#x43c;" horiz-adv-x="684" 
d="M39 0l70 484h103l102 -299c13 -36 26 -83 26 -83h2s13 48 26 83l105 299h104l68 -484h-109l-32 250c-4 38 -7 71 -7 71h-2s-10 -34 -21 -69l-86 -252h-103l-87 252c-11 32 -20 69 -20 69h-2s-2 -38 -6 -71l-34 -250h-97z" />
    <glyph glyph-name="afii10079" unicode="&#x43d;" horiz-adv-x="584" 
d="M77 0v484h107v-190h216v190h107v-484h-107v208h-216v-208h-107z" />
    <glyph glyph-name="afii10080" unicode="&#x43e;" horiz-adv-x="540" 
d="M269 -12c-167 0 -234 134 -234 253s65 255 232 255c166 0 239 -133 239 -252c0 -118 -71 -256 -237 -256zM270 72c87 0 123 72 123 169c0 96 -41 172 -128 172c-86 0 -118 -73 -118 -169s37 -172 123 -172z" />
    <glyph glyph-name="afii10081" unicode="&#x43f;" horiz-adv-x="570" 
d="M77 0v484h416v-484h-107v399h-202v-399h-107z" />
    <glyph glyph-name="afii10082" unicode="&#x440;" horiz-adv-x="550" 
d="M77 -219v703h105v-51c26 31 69 63 137 63c120 0 196 -92 196 -253c0 -153 -89 -255 -215 -255c-64 0 -99 23 -117 38v-245h-106zM281 73c79 0 121 68 121 169c0 99 -36 166 -113 166c-57 0 -94 -42 -106 -58v-239c19 -17 48 -38 98 -38z" />
    <glyph glyph-name="afii10083" unicode="&#x441;" horiz-adv-x="450" 
d="M271 -12c-149 0 -236 111 -236 254c0 164 105 254 240 254c79 0 125 -27 148 -43l-39 -75c-24 16 -55 34 -107 34c-88 0 -130 -70 -130 -167c0 -96 42 -172 132 -172c58 0 96 25 111 34l35 -73c-20 -16 -67 -46 -154 -46z" />
    <glyph glyph-name="afii10084" unicode="&#x442;" horiz-adv-x="436" 
d="M164 0v400h-147v84h402v-84h-148v-400h-107z" />
    <glyph glyph-name="afii10085" unicode="&#x443;" horiz-adv-x="490" 
d="M64 -233c-34 0 -53 4 -63 7l15 85c7 -1 16 -4 43 -4c68 0 93 35 115 96l21 56l-182 477h115l122 -349h3l114 349h110l-202 -541c-39 -104 -85 -176 -211 -176z" />
    <glyph glyph-name="afii10086" unicode="&#x444;" horiz-adv-x="764" 
d="M434 -219h-104v239c-18 -14 -49 -32 -99 -32c-119 0 -196 104 -196 253c0 150 77 256 196 256c49 0 81 -19 99 -34v257h104v-257c17 15 49 34 99 34c119 0 196 -103 196 -253c0 -149 -77 -256 -196 -256c-50 0 -82 18 -99 32v-239zM147 244c0 -95 33 -171 103 -171
c40 0 66 19 85 37v266c-19 18 -45 36 -85 36c-70 0 -103 -73 -103 -168zM616 241c0 96 -32 171 -102 171c-40 0 -66 -18 -85 -36v-266c19 -18 45 -37 85 -37c70 0 102 73 102 168z" />
    <glyph glyph-name="afii10087" unicode="&#x445;" horiz-adv-x="489" 
d="M19 0l166 252l-158 232h120l100 -150l92 150h110l-151 -227l173 -257h-120l-116 175l-107 -175h-109z" />
    <glyph glyph-name="afii10088" unicode="&#x446;" horiz-adv-x="594" 
d="M464 -145l-10 145h-377v484h107v-399h203v399h106v-401h61l-20 -228h-70z" />
    <glyph glyph-name="afii10089" unicode="&#x447;" horiz-adv-x="544" 
d="M361 0v206c-25 -32 -76 -80 -157 -80c-105 0 -146 70 -146 156v202h106v-181c0 -53 20 -86 77 -86c61 0 110 61 120 75v192h107v-484h-107z" />
    <glyph glyph-name="afii10090" unicode="&#x448;" horiz-adv-x="832" 
d="M77 0v484h107v-399h179v399h106v-399h179v399h107v-484h-678z" />
    <glyph glyph-name="afii10091" unicode="&#x449;" horiz-adv-x="856" 
d="M725 -145l-9 145h-639v484h107v-399h179v399h106v-399h179v399h107v-401h61l-20 -228h-71z" />
    <glyph glyph-name="afii10092" unicode="&#x44a;" horiz-adv-x="547" 
d="M137 0v401h-120v83h226v-170h87c111 0 194 -48 194 -154c0 -107 -79 -160 -206 -160h-181zM243 79h75c68 0 100 25 100 79c0 52 -30 77 -97 77h-78v-156z" />
    <glyph glyph-name="afii10093" unicode="&#x44b;" horiz-adv-x="742" 
d="M557 0v484h107v-484h-107zM77 0v484h106v-170h87c111 0 194 -48 194 -154c0 -107 -79 -160 -206 -160h-181zM183 79h75c68 0 100 25 100 79c0 52 -30 77 -97 77h-78v-156z" />
    <glyph glyph-name="afii10094" unicode="&#x44c;" horiz-adv-x="487" 
d="M77 0v484h106v-170h87c111 0 194 -48 194 -154c0 -107 -79 -160 -206 -160h-181zM183 79h75c68 0 100 25 100 79c0 52 -30 77 -97 77h-78v-156z" />
    <glyph glyph-name="afii10095" unicode="&#x44d;" horiz-adv-x="479" 
d="M182 -7c-66 0 -118 14 -158 44l47 77c27 -21 65 -35 112 -35c83 0 139 53 145 126h-231v75h231c-7 73 -60 127 -145 127c-47 0 -83 -15 -108 -33l-42 76c30 21 82 44 153 44c172 0 258 -115 258 -250c0 -137 -91 -251 -262 -251z" />
    <glyph glyph-name="afii10096" unicode="&#x44e;" horiz-adv-x="811" 
d="M539 -12c-151 0 -220 112 -231 220h-124v-208h-107v484h107v-190h127c17 102 84 202 226 202c167 0 239 -133 239 -252c0 -118 -70 -256 -237 -256zM541 72c87 0 122 72 122 169c0 96 -40 172 -127 172s-118 -73 -118 -169s36 -172 123 -172z" />
    <glyph glyph-name="afii10097" unicode="&#x44f;" horiz-adv-x="514" 
d="M29 0v81h7c24 0 45 19 82 75c19 29 39 55 61 63v1c-56 6 -116 46 -116 123c0 92 69 141 189 141h185v-484h-106v198h-29c-29 0 -53 -27 -93 -91c-53 -82 -79 -107 -138 -107h-42zM254 272h77v132h-72c-61 0 -88 -20 -88 -66c0 -43 26 -66 83 -66z" />
    <glyph glyph-name="afii10071" unicode="&#x451;" horiz-adv-x="506" 
d="M159 540c-37 0 -65 29 -65 64c0 34 28 63 65 63s65 -29 65 -63c0 -35 -28 -64 -65 -64zM359 540c-37 0 -65 29 -65 64c0 34 28 63 65 63s65 -29 65 -63c0 -35 -28 -64 -65 -64zM277 -12c-158 0 -242 108 -242 257c0 148 97 251 229 251c130 0 202 -86 202 -228
c0 -13 -1 -28 -2 -42h-316c5 -86 43 -155 137 -155c66 0 107 26 129 38l37 -73c-28 -17 -80 -48 -174 -48zM149 302h212c-2 61 -28 113 -99 113c-65 0 -101 -45 -113 -113z" />
    <glyph glyph-name="afii10099" unicode="&#x452;" horiz-adv-x="544" 
d="M323 -139l-43 67c67 46 108 157 108 306c0 96 -31 165 -113 165c-37 0 -74 -22 -92 -42v-357h-106v569h-43v81h43v70h106v-70h157v-81h-157v-133c26 28 70 51 119 51c116 0 195 -85 195 -252c0 -179 -72 -323 -174 -374z" />
    <glyph glyph-name="afii10100" unicode="&#x453;" horiz-adv-x="401" 
d="M181 541l87 131h144l-138 -131h-93zM77 0v484h307v-83h-201v-401h-106z" />
    <glyph glyph-name="afii10101" unicode="&#x454;" horiz-adv-x="478" 
d="M293 -8c-171 0 -258 115 -258 250c0 136 90 251 262 251c65 0 112 -15 150 -40l-46 -77c-26 18 -58 31 -104 31c-85 0 -140 -54 -146 -126h225v-76h-226c8 -73 61 -127 146 -127c52 0 89 19 115 38l42 -76c-28 -22 -82 -48 -160 -48z" />
    <glyph glyph-name="afii10102" unicode="&#x455;" horiz-adv-x="415" 
d="M196 -13c-79 0 -133 26 -163 47l39 76c18 -13 64 -40 119 -40s88 20 88 56c0 38 -45 51 -115 83c-71 32 -119 68 -119 145c0 84 65 142 168 142c82 0 131 -30 150 -42l-42 -74c-18 12 -55 33 -105 33c-49 0 -73 -20 -73 -53c0 -39 42 -52 96 -74c78 -32 141 -67 141 -149
c0 -95 -71 -150 -184 -150z" />
    <glyph glyph-name="afii10103" unicode="&#x456;" horiz-adv-x="267" 
d="M133 559c-39 0 -69 31 -69 68s30 68 69 68c40 0 70 -31 70 -68s-30 -68 -70 -68zM80 0v484h107v-484h-107z" />
    <glyph glyph-name="afii10104" unicode="&#x457;" horiz-adv-x="267" 
d="M34 540c-37 0 -65 29 -65 64c0 34 28 63 65 63s65 -29 65 -63c0 -35 -28 -64 -65 -64zM234 540c-37 0 -65 29 -65 64c0 34 28 63 65 63s65 -29 65 -63c0 -35 -28 -64 -65 -64zM80 0v484h107v-484h-107z" />
    <glyph glyph-name="afii10105" unicode="&#x458;" horiz-adv-x="259" 
d="M30 -232c-42 0 -64 7 -72 10l18 84c6 -2 16 -5 36 -5c50 0 65 35 65 109v518h107v-532c0 -111 -44 -184 -154 -184zM129 559c-39 0 -69 31 -69 68s30 68 69 68c40 0 69 -31 69 -68s-29 -68 -69 -68z" />
    <glyph glyph-name="afii10106" unicode="&#x459;" horiz-adv-x="785" 
d="M36 -8l-15 80c50 4 77 56 87 167l22 245h351v-170h87c111 0 194 -48 194 -154c0 -107 -79 -160 -206 -160h-181v401h-157l-15 -181c-12 -155 -66 -228 -167 -228zM481 79h75c68 0 100 25 100 79c0 52 -30 77 -97 77h-78v-156z" />
    <glyph glyph-name="afii10107" unicode="&#x45a;" horiz-adv-x="823" 
d="M77 0v484h107v-175h228v175h107v-175h87c111 0 194 -46 194 -151c0 -108 -79 -158 -206 -158h-182v226h-228v-226h-107zM519 79h75c68 0 100 24 100 77c0 50 -30 74 -97 74h-78v-151z" />
    <glyph glyph-name="afii10108" unicode="&#x45b;" horiz-adv-x="546" 
d="M73 0v569h-43v81h43v70h107v-70h157v-81h-157v-153c22 27 72 75 153 75c105 0 144 -68 144 -154v-337h-106v315c0 54 -19 85 -74 85c-61 0 -107 -60 -117 -73v-327h-107z" />
    <glyph glyph-name="afii10109" unicode="&#x45c;" horiz-adv-x="510" 
d="M191 541l87 131h144l-138 -131h-93zM77 0v484h107v-200h34l156 200h118l-178 -221c22 -17 45 -46 73 -89c42 -67 63 -93 88 -93h8l-2 -81h-40c-59 0 -85 31 -138 112c-42 67 -66 96 -95 98h-24v-210h-107z" />
    <glyph glyph-name="afii10110" unicode="&#x45e;" horiz-adv-x="490" 
d="M64 -233c-34 0 -53 4 -63 7l15 85c7 -1 16 -4 43 -4c68 0 93 35 115 96l21 56l-182 477h115l122 -349h3l114 349h110l-202 -541c-39 -104 -85 -176 -211 -176zM251 533c-77 0 -148 44 -158 147h90c3 -45 27 -74 68 -74s64 29 68 74h89c-9 -103 -80 -147 -157 -147z" />
    <glyph glyph-name="afii10193" unicode="&#x45f;" horiz-adv-x="575" 
d="M252 -145l-8 145h-167v484h107v-399h207v399h107v-484h-168l-8 -145h-70z" />
    <glyph glyph-name="afii10050" unicode="&#x490;" horiz-adv-x="479" 
d="M89 0v666h278l12 146h74l13 -238h-264v-574h-113z" />
    <glyph glyph-name="afii10098" unicode="&#x491;" horiz-adv-x="401" 
d="M77 0v484h217l10 145h71l17 -228h-209v-401h-106z" />
    <glyph glyph-name="Wgrave" unicode="&#x1e80;" horiz-adv-x="896" 
d="M199 0l-180 666h121l97 -391c12 -52 23 -116 24 -120h2c1 4 15 71 28 122l108 389h112l106 -387c14 -53 26 -119 27 -122h2c1 3 10 66 24 120l99 389h109l-183 -666h-103l-111 405c-15 54 -27 123 -28 126h-2c-1 -3 -16 -71 -31 -126l-117 -405h-104zM408 718l-137 131
h143l87 -131h-93z" />
    <glyph glyph-name="wgrave" unicode="&#x1e81;" horiz-adv-x="723" 
d="M154 0l-140 484h114l87 -334h2l96 334h100l97 -335h2l88 335h106l-141 -484h-96l-108 347h-2l-109 -347h-96zM320 541l-137 131h143l87 -131h-93z" />
    <glyph glyph-name="Wacute" unicode="&#x1e82;" horiz-adv-x="896" 
d="M396 718l87 131h144l-138 -131h-93zM199 0l-180 666h121l97 -391c12 -52 23 -116 24 -120h2c1 4 15 71 28 122l108 389h112l106 -387c14 -53 26 -119 27 -122h2c1 3 10 66 24 120l99 389h109l-183 -666h-103l-111 405c-15 54 -27 123 -28 126h-2c-1 -3 -16 -71 -31 -126
l-117 -405h-104z" />
    <glyph glyph-name="wacute" unicode="&#x1e83;" horiz-adv-x="723" 
d="M308 541l87 131h144l-138 -131h-93zM154 0l-140 484h114l87 -334h2l96 334h100l97 -335h2l88 335h106l-141 -484h-96l-108 347h-2l-109 -347h-96z" />
    <glyph glyph-name="Wdieresis" unicode="&#x1e84;" horiz-adv-x="896" 
d="M348 717c-37 0 -65 29 -65 64c0 34 28 63 65 63s65 -29 65 -63c0 -35 -28 -64 -65 -64zM548 717c-37 0 -65 29 -65 64c0 34 28 63 65 63s65 -29 65 -63c0 -35 -28 -64 -65 -64zM199 0l-180 666h121l97 -391c12 -52 23 -116 24 -120h2c1 4 15 71 28 122l108 389h112
l106 -387c14 -53 26 -119 27 -122h2c1 3 10 66 24 120l99 389h109l-183 -666h-103l-111 405c-15 54 -27 123 -28 126h-2c-1 -3 -16 -71 -31 -126l-117 -405h-104z" />
    <glyph glyph-name="wdieresis" unicode="&#x1e85;" horiz-adv-x="723" 
d="M259 540c-37 0 -65 29 -65 64c0 34 28 63 65 63s65 -29 65 -63c0 -35 -28 -64 -65 -64zM459 540c-37 0 -65 29 -65 64c0 34 28 63 65 63s65 -29 65 -63c0 -35 -28 -64 -65 -64zM154 0l-140 484h114l87 -334h2l96 334h100l97 -335h2l88 335h106l-141 -484h-96l-108 347h-2
l-109 -347h-96z" />
    <glyph glyph-name="Ygrave" unicode="&#x1ef2;" horiz-adv-x="579" 
d="M236 0v252l-222 414h126l157 -309h1l157 309h110l-216 -414v-252h-113zM252 718l-137 131h143l87 -131h-93z" />
    <glyph glyph-name="ygrave" unicode="&#x1ef3;" horiz-adv-x="495" 
d="M69 -233c-34 0 -53 4 -63 7l15 85c7 -1 16 -4 43 -4c68 0 93 35 115 96l21 56l-182 477h115l122 -349h3l114 349h110l-202 -541c-39 -104 -85 -176 -211 -176zM213 541l-137 131h143l87 -131h-93z" />
    <glyph glyph-name="endash" unicode="&#x2013;" horiz-adv-x="539" 
d="M51 229v84h437v-84h-437z" />
    <glyph glyph-name="emdash" unicode="&#x2014;" horiz-adv-x="853" 
d="M51 229v84h751v-84h-751z" />
    <glyph glyph-name="afii00208" unicode="&#x2015;" horiz-adv-x="853" 
d="M51 229v84h751v-84h-751z" />
    <glyph glyph-name="quoteleft" unicode="&#x2018;" horiz-adv-x="215" 
d="M115 411c-42 0 -79 32 -79 86c0 66 42 138 67 169h70c-15 -21 -37 -59 -37 -94c0 -44 46 -49 46 -100c0 -36 -29 -61 -67 -61z" />
    <glyph glyph-name="quoteright" unicode="&#x2019;" horiz-adv-x="215" 
d="M42 423c16 21 37 58 37 93c0 45 -46 50 -46 101c0 35 29 61 67 61c42 0 80 -32 80 -86c0 -67 -43 -138 -68 -169h-70z" />
    <glyph glyph-name="quotesinglbase" unicode="&#x201a;" horiz-adv-x="231" 
d="M50 -122c15 21 37 58 37 93c0 45 -46 50 -46 101c0 35 29 61 67 61c42 0 80 -32 80 -86c0 -67 -43 -138 -68 -169h-70z" />
    <glyph glyph-name="quotedblleft" unicode="&#x201c;" horiz-adv-x="403" 
d="M108 411c-42 0 -79 32 -79 86c0 66 42 138 67 169h70c-15 -21 -37 -59 -37 -94c0 -44 46 -49 46 -100c0 -36 -29 -61 -67 -61zM303 411c-42 0 -79 32 -79 86c0 66 42 138 67 169h70c-15 -21 -37 -59 -37 -94c0 -44 46 -49 46 -100c0 -36 -29 -61 -67 -61z" />
    <glyph glyph-name="quotedblright" unicode="&#x201d;" horiz-adv-x="403" 
d="M42 423c16 21 37 58 37 93c0 45 -46 50 -46 101c0 35 29 61 67 61c42 0 80 -32 80 -86c0 -67 -43 -138 -68 -169h-70zM237 423c15 21 37 58 37 93c0 45 -46 50 -46 101c0 35 29 61 67 61c42 0 80 -32 80 -86c0 -67 -43 -138 -68 -169h-70z" />
    <glyph glyph-name="quotedblbase" unicode="&#x201e;" horiz-adv-x="410" 
d="M42 -122c16 21 37 58 37 93c0 45 -46 50 -46 101c0 35 29 61 67 61c42 0 80 -32 80 -86c0 -67 -43 -138 -68 -169h-70zM237 -122c15 21 37 58 37 93c0 45 -46 50 -46 101c0 35 29 61 67 61c42 0 80 -32 80 -86c0 -67 -43 -138 -68 -169h-70z" />
    <glyph glyph-name="dagger" unicode="&#x2020;" horiz-adv-x="551" 
d="M241 -170l-27 434l18 133l-77 -9h-110v96h110l77 -9l-14 108v137h115v-137l-13 -108l76 9h110v-96h-110l-76 9l17 -133l-27 -434h-69z" />
    <glyph glyph-name="daggerdbl" unicode="&#x2021;" horiz-adv-x="558" 
d="M218 -169v127l14 108l-77 -9h-110v96h110l77 -9l-18 127l18 126l-77 -9h-110v96h110l77 -9l-14 108v137h115v-137l-13 -108l76 9h110v-96h-110l-76 9l16 -126l-16 -127l76 9h110v-96h-110l-76 9l13 -108v-127h-115z" />
    <glyph glyph-name="bullet" unicode="&#x2022;" horiz-adv-x="404" 
d="M202 134c-84 0 -154 68 -154 152c0 85 70 154 154 154c85 0 154 -69 154 -154c0 -84 -69 -152 -154 -152z" />
    <glyph glyph-name="ellipsis" unicode="&#x2026;" horiz-adv-x="698" 
d="M128 -10c-43 0 -76 33 -76 75c0 41 33 73 76 73c41 0 75 -32 75 -73c0 -42 -34 -75 -75 -75zM348 -10c-41 0 -74 33 -74 75c0 41 33 73 74 73c43 0 76 -32 76 -73c0 -42 -33 -75 -76 -75zM570 -10c-42 0 -76 33 -76 75c0 41 34 73 76 73s75 -32 75 -73
c0 -42 -33 -75 -75 -75z" />
    <glyph glyph-name="perthousand" unicode="&#x2030;" horiz-adv-x="1169" 
d="M186 199c-108 0 -158 74 -158 148c0 72 52 149 160 149c107 0 156 -72 156 -146s-51 -151 -158 -151zM188 265c49 0 66 37 66 82s-20 83 -68 83s-68 -35 -68 -80s21 -85 70 -85zM627 -12c-107 0 -156 74 -156 148c0 73 51 149 158 149c108 0 157 -72 157 -146
s-51 -151 -159 -151zM629 54c49 0 67 37 67 82s-20 83 -68 83c-49 0 -68 -35 -68 -80s21 -85 69 -85zM982 -12c-107 0 -156 74 -156 148c0 73 51 149 158 149c108 0 157 -72 157 -146s-51 -151 -159 -151zM984 54c50 0 67 37 67 82s-20 83 -68 83s-68 -35 -68 -80
s21 -85 69 -85zM219 0l290 484h90l-290 -484h-90z" />
    <glyph glyph-name="guilsinglleft" unicode="&#x2039;" horiz-adv-x="310" 
d="M164 54l-126 191l126 192h111l-124 -192l124 -191h-111z" />
    <glyph glyph-name="guilsinglright" unicode="&#x203a;" horiz-adv-x="310" 
d="M35 54l125 191l-125 192h111l127 -192l-127 -191h-111z" />
    <glyph glyph-name="fraction" unicode="&#x2044;" horiz-adv-x="119" 
d="M-190 0l412 666h86l-412 -666h-86z" />
    <glyph glyph-name="uni2070" unicode="&#x2070;" horiz-adv-x="402" 
d="M201 328c-113 0 -164 83 -164 172s49 172 164 172c113 0 165 -83 165 -172s-52 -172 -165 -172zM201 394c43 0 71 37 71 106s-28 106 -71 106c-42 0 -71 -37 -71 -106s29 -106 71 -106z" />
    <glyph glyph-name="uni2074" unicode="&#x2074;" horiz-adv-x="343" 
d="M188 334v65h-172v53l176 214h80v-204h54v-63h-54v-65h-84zM101 460c9 1 25 2 44 2h45v108h-1z" />
    <glyph glyph-name="uni2075" unicode="&#x2075;" horiz-adv-x="307" 
d="M97 328c-30 0 -52 4 -66 8l13 66c11 -4 32 -9 52 -9c43 0 86 13 86 49c0 38 -42 48 -91 48c-17 0 -35 -2 -43 -3l12 179h200v-65h-125l-5 -54c79 -2 141 -32 141 -101c0 -78 -71 -118 -174 -118z" />
    <glyph glyph-name="uni2076" unicode="&#x2076;" horiz-adv-x="346" 
d="M179 328c-100 0 -141 68 -141 149c0 116 87 195 234 195l19 -61c-76 -2 -148 -23 -167 -90c19 12 48 20 77 20c63 0 113 -36 113 -102c0 -70 -58 -111 -135 -111zM180 389c30 0 50 19 50 46c0 32 -23 48 -53 48c-23 0 -44 -6 -56 -16v-6c0 -50 26 -72 59 -72z" />
    <glyph glyph-name="uni2077" unicode="&#x2077;" horiz-adv-x="309" 
d="M133 320l-76 28l117 249h-155v69h253v-42z" />
    <glyph glyph-name="uni2078" unicode="&#x2078;" horiz-adv-x="339" 
d="M169 328c-82 0 -136 34 -136 89c0 40 31 65 71 85c-35 20 -61 43 -61 80c0 56 60 90 128 90c72 0 126 -31 126 -86c0 -34 -29 -57 -65 -76c39 -18 74 -45 74 -89c0 -60 -61 -93 -137 -93zM168 385c33 0 54 15 54 35c0 22 -29 36 -60 51c-20 -11 -49 -28 -49 -51
c0 -22 23 -35 55 -35zM173 539c19 12 44 27 44 45c0 19 -18 32 -45 32s-47 -14 -47 -32c0 -20 26 -33 48 -45z" />
    <glyph glyph-name="uni2079" unicode="&#x2079;" horiz-adv-x="348" 
d="M76 326l-19 61c75 1 145 28 164 92c-19 -11 -48 -19 -77 -19c-64 0 -115 35 -115 101c0 70 61 111 136 111c101 0 143 -67 143 -149c0 -117 -83 -197 -232 -197zM168 517c24 0 43 6 56 16v6c0 47 -25 73 -58 73c-31 0 -51 -22 -51 -46c0 -32 23 -49 53 -49z" />
    <glyph glyph-name="uni207A" unicode="&#x207a;" horiz-adv-x="337" 
d="M134 385v83h-97v64h97v81h70v-81h96v-64h-96v-83h-70z" />
    <glyph glyph-name="uni207B" unicode="&#x207b;" horiz-adv-x="314" 
d="M54 468v63h206v-63h-206z" />
    <glyph glyph-name="uni207D" unicode="&#x207d;" horiz-adv-x="227" 
d="M145 279c-49 42 -101 115 -101 221c0 101 51 176 101 215h81c-44 -37 -93 -113 -93 -214s43 -176 93 -222h-81z" />
    <glyph glyph-name="uni207E" unicode="&#x207e;" horiz-adv-x="227" 
d="M1 279c46 41 94 113 94 218c0 101 -47 177 -94 218h82c50 -41 100 -112 100 -217c0 -107 -53 -180 -100 -219h-82z" />
    <glyph glyph-name="uni2080" unicode="&#x2080;" horiz-adv-x="402" 
d="M201 -206c-113 0 -164 83 -164 173c0 89 49 171 164 171c113 0 165 -82 165 -171c0 -90 -52 -173 -165 -173zM201 -140c43 0 71 37 71 107c0 69 -28 105 -71 105c-42 0 -71 -36 -71 -105c0 -70 29 -107 71 -107z" />
    <glyph glyph-name="uni2081" unicode="&#x2081;" horiz-adv-x="272" 
d="M106 -200v260l-72 -19l-19 65l112 26h64v-332h-85z" />
    <glyph glyph-name="uni2082" unicode="&#x2082;" horiz-adv-x="340" 
d="M29 -200v45c74 59 161 124 161 184c0 30 -21 43 -48 43c-30 0 -56 -14 -77 -32l-42 53c30 25 70 45 131 45c86 0 126 -41 126 -99c0 -66 -63 -123 -128 -174c4 0 28 1 45 1h100v-66h-268z" />
    <glyph glyph-name="uni2083" unicode="&#x2083;" horiz-adv-x="315" 
d="M101 -206c-33 0 -66 6 -78 11l16 64c12 -5 38 -10 59 -10c47 0 80 14 80 42c0 31 -38 43 -100 44v53c55 1 91 19 91 46c0 19 -18 30 -46 30c-25 0 -54 -14 -67 -24l-33 53c22 16 69 35 120 35c73 0 114 -29 114 -76c0 -45 -35 -68 -72 -78v-1c41 -4 84 -29 84 -82
c0 -68 -63 -107 -168 -107z" />
    <glyph glyph-name="uni2084" unicode="&#x2084;" horiz-adv-x="343" 
d="M188 -200v65h-172v53l176 214h80v-204h54v-63h-54v-65h-84zM101 -74c9 1 25 2 44 2h45v108h-1z" />
    <glyph glyph-name="uni2085" unicode="&#x2085;" horiz-adv-x="307" 
d="M97 -206c-30 0 -52 4 -66 9l13 65c11 -4 32 -8 52 -8c43 0 86 12 86 48c0 38 -42 48 -91 48c-17 0 -35 -2 -43 -3l12 179h200v-65h-125l-5 -54c79 -2 141 -32 141 -101c0 -77 -71 -118 -174 -118z" />
    <glyph glyph-name="uni2086" unicode="&#x2086;" horiz-adv-x="346" 
d="M179 -206c-100 0 -141 68 -141 150c0 115 87 194 234 194l19 -61c-76 -2 -148 -23 -167 -90c19 12 48 20 77 20c63 0 113 -35 113 -102c0 -70 -58 -111 -135 -111zM180 -145c30 0 50 19 50 46c0 32 -23 48 -53 48c-23 0 -44 -6 -56 -16v-6c0 -50 26 -72 59 -72z" />
    <glyph glyph-name="uni2087" unicode="&#x2087;" horiz-adv-x="309" 
d="M133 -214l-76 28l117 249h-155v69h253v-42z" />
    <glyph glyph-name="uni2088" unicode="&#x2088;" horiz-adv-x="339" 
d="M169 -206c-82 0 -136 35 -136 90c0 39 31 64 71 84c-35 20 -61 44 -61 80c0 56 60 90 128 90c72 0 126 -31 126 -86c0 -34 -29 -57 -65 -75c39 -19 74 -46 74 -90c0 -60 -61 -93 -137 -93zM168 -149c33 0 54 15 54 35c0 22 -29 36 -60 52c-20 -12 -49 -29 -49 -52
c0 -22 23 -35 55 -35zM173 5c19 12 44 27 44 45c0 19 -18 32 -45 32s-47 -14 -47 -32c0 -20 26 -33 48 -45z" />
    <glyph glyph-name="uni2089" unicode="&#x2089;" horiz-adv-x="348" 
d="M76 -208l-19 61c75 1 145 28 164 92c-19 -11 -48 -19 -77 -19c-64 0 -115 36 -115 101c0 70 61 111 136 111c101 0 143 -67 143 -149c0 -117 -83 -197 -232 -197zM168 -17c24 0 43 6 56 17v5c0 47 -25 73 -58 73c-31 0 -51 -22 -51 -46c0 -32 23 -49 53 -49z" />
    <glyph glyph-name="Euro" unicode="&#x20ac;" horiz-adv-x="585" 
d="M36 361v78h73c31 149 134 239 281 239c88 0 132 -19 167 -42l-46 -84c-22 12 -56 33 -120 33c-82 0 -142 -52 -166 -146h169v-78h-180v-24c0 -15 0 -30 1 -43h179v-78h-164c27 -90 86 -134 163 -134c60 0 100 22 125 40l46 -80c-31 -22 -80 -54 -175 -54
c-129 0 -240 73 -277 228h-76v78h64c-1 13 -1 27 -1 41v26h-63z" />
    <glyph glyph-name="afii61352" unicode="&#x2116;" horiz-adv-x="1125" 
d="M89 0v666h113l273 -392c36 -52 57 -91 66 -106h2c-1 11 -4 48 -4 98v400h103v-666h-103l-291 417c-29 40 -49 77 -58 93h-2c1 -10 4 -44 4 -81v-429h-103zM905 341c-118 0 -175 83 -175 165c0 79 59 165 177 165s175 -81 175 -163c0 -80 -59 -167 -177 -167zM907 415
c55 0 77 41 77 91c0 49 -26 92 -78 92c-54 0 -78 -40 -78 -90c0 -49 27 -93 79 -93z" />
    <glyph glyph-name="uni2117" unicode="&#x2117;" horiz-adv-x="849" 
d="M424 -14c-205 0 -372 167 -372 373s167 373 372 373c206 0 373 -167 373 -373s-167 -373 -373 -373zM424 52c174 0 302 125 302 307c0 181 -128 307 -302 307c-173 0 -302 -126 -302 -307c0 -182 129 -307 302 -307zM296 145v432h150c98 0 147 -65 147 -135
c0 -71 -48 -134 -169 -134h-47v-163h-81zM377 368h45c57 0 88 24 88 72c0 47 -23 72 -77 72h-56v-144z" />
    <glyph glyph-name="trademark" unicode="&#x2122;" horiz-adv-x="728" 
d="M306 372l36 294h73l59 -157c11 -28 18 -56 18 -58h2c1 2 7 28 19 59l59 156h74l36 -294h-71l-14 145c-3 26 -4 56 -4 57h-2c0 -1 -5 -30 -18 -65l-53 -137h-61l-48 133c-11 31 -21 68 -21 69h-2c0 -1 -1 -25 -4 -58l-14 -144h-64zM123 372v236h-85v58h240v-58h-85v-236
h-70z" />
    <glyph glyph-name="uni2126" unicode="&#x2126;" horiz-adv-x="725" 
d="M47 0v86h129c-74 51 -132 157 -132 273c0 199 156 319 318 319s318 -120 318 -319c0 -116 -58 -222 -132 -273h129v-86h-246v86c93 63 138 148 138 270s-86 230 -207 230s-207 -108 -207 -230s46 -207 139 -270v-86h-247z" />
    <glyph glyph-name="partialdiff" unicode="&#x2202;" horiz-adv-x="591" 
d="M257 -11c-121 0 -216 92 -216 206c0 135 98 233 228 233c65 0 139 -20 174 -42c-18 176 -136 229 -291 229l28 95h19c234 0 361 -139 361 -355c0 -213 -124 -366 -303 -366zM267 81c90 0 160 93 175 212c-32 23 -105 46 -162 46c-77 0 -124 -61 -124 -142
c0 -68 50 -116 111 -116z" />
    <glyph glyph-name="uni2206" unicode="&#x2206;" horiz-adv-x="786" 
d="M43 0l292 700h99l291 -700h-682zM191 99h386l-193 463z" />
    <glyph glyph-name="product" unicode="&#x220f;" horiz-adv-x="877" 
d="M173 -224v831h-109v93h730v-93h-109v-831h-107v831h-298v-831h-107z" />
    <glyph glyph-name="summation" unicode="&#x2211;" horiz-adv-x="636" 
d="M53 -146v73l275 413l-259 364v74h509v-93h-386l246 -341l-263 -397h418v-93h-540z" />
    <glyph glyph-name="minus" unicode="&#x2212;" horiz-adv-x="550" 
d="M86 235v84h369v-84h-369z" />
    <glyph glyph-name="uni2219" unicode="&#x2219;" horiz-adv-x="241" 
d="M121 216c-43 0 -77 33 -77 75c0 41 34 74 77 74c42 0 76 -33 76 -74c0 -42 -34 -75 -76 -75z" />
    <glyph glyph-name="radical" unicode="&#x221a;" horiz-adv-x="577" 
d="M222 0l-187 484h112l124 -345h2l182 581h108l-241 -720h-100z" />
    <glyph glyph-name="infinity" unicode="&#x221e;" horiz-adv-x="916" 
d="M227 92c-108 0 -187 70 -187 163c0 96 87 171 190 171c72 0 140 -40 229 -108c89 69 159 108 227 108c107 0 185 -70 185 -163c0 -96 -85 -170 -191 -170c-65 0 -134 35 -226 107c-98 -75 -159 -108 -227 -108zM232 181c35 0 82 25 149 76c-69 54 -113 80 -152 80
c-48 0 -93 -33 -93 -77c0 -48 45 -79 96 -79zM685 181c47 0 91 35 91 77c0 48 -46 79 -96 79c-37 0 -84 -27 -149 -77c73 -56 117 -79 154 -79z" />
    <glyph glyph-name="uni2224" unicode="&#x2224;" horiz-adv-x="241" 
d="M121 216c-43 0 -77 33 -77 75c0 41 34 74 77 74c42 0 76 -33 76 -74c0 -42 -34 -75 -76 -75z" />
    <glyph glyph-name="logicaland" unicode="&#x2227;" horiz-adv-x="241" 
d="M121 216c-43 0 -77 33 -77 75c0 41 34 74 77 74c42 0 76 -33 76 -74c0 -42 -34 -75 -76 -75z" />
    <glyph glyph-name="integral" unicode="&#x222b;" horiz-adv-x="350" 
d="M31 -235c-32 0 -73 15 -98 30l36 87c22 -10 52 -17 72 -17c65 0 86 56 86 129v575c0 112 69 204 202 204c37 0 71 -13 98 -30l-39 -87c-22 11 -47 18 -69 18c-61 0 -87 -57 -87 -128v-576c0 -112 -67 -205 -201 -205z" />
    <glyph glyph-name="approxequal" unicode="&#x2248;" horiz-adv-x="619" 
d="M109 113l-43 74c36 39 89 67 147 67c92 0 126 -58 197 -58c35 0 77 20 107 51l40 -76c-37 -42 -96 -66 -153 -66c-91 0 -128 58 -197 58c-37 0 -67 -16 -98 -50zM103 296l-43 74c33 37 87 68 148 68c92 0 125 -58 197 -58c34 0 76 20 107 50l39 -76
c-36 -42 -95 -66 -153 -66c-91 0 -128 58 -196 58c-36 0 -66 -15 -99 -50z" />
    <glyph glyph-name="notequal" unicode="&#x2260;" horiz-adv-x="645" 
d="M206 -25l-70 38l72 119h-147v80h196l51 84h-247v80h296l82 135l71 -40l-60 -95h135v-80h-184l-51 -84h235v-80h-284z" />
    <glyph glyph-name="lessequal" unicode="&#x2264;" horiz-adv-x="563" 
d="M511 11l-444 203v74l444 203v-98l-333 -142l333 -143v-97zM67 -136v86h444v-86h-444z" />
    <glyph glyph-name="greaterequal" unicode="&#x2265;" horiz-adv-x="580" 
d="M67 11v97l334 143l-334 142v98l444 -203v-74zM67 -136v86h444v-86h-444z" />
    <glyph glyph-name="dotmath" unicode="&#x22c5;" horiz-adv-x="241" 
d="M121 216c-43 0 -77 33 -77 75c0 41 34 74 77 74c42 0 76 -33 76 -74c0 -42 -34 -75 -76 -75z" />
    <glyph glyph-name="lozenge" unicode="&#x25ca;" horiz-adv-x="666" 
d="M297 -3l-255 327l252 350h81l256 -330l-251 -347h-83zM341 102l165 237l-173 224l-166 -236z" />
    <glyph glyph-name="numbersign.case" horiz-adv-x="566" 
d="M105 0l30 200h-117l13 80h116l18 117h-117l13 80h116l29 189h75l-28 -189h108l29 189h75l-28 -189h111l-13 -80h-110l-18 -117h111l-13 -80h-110l-30 -200h-76l31 200h-109l-31 -200h-75zM222 278h110l19 121h-111z" />
    <glyph glyph-name="dollar.case" horiz-adv-x="509" 
d="M299 -118h-84v107c-94 5 -154 43 -178 66l50 79c14 -13 61 -52 138 -55v216c-7 4 -14 7 -21 11c-82 40 -149 86 -149 194c0 96 69 158 160 174v110h84v-108c80 -7 126 -37 148 -53l-48 -80c-20 14 -59 37 -109 43v-200c86 -40 175 -85 175 -208c0 -96 -63 -164 -166 -184
v-112zM356 173c0 42 -28 68 -66 90v-176c41 15 66 47 66 86zM162 502c0 -42 25 -65 63 -85v164c-38 -11 -63 -39 -63 -79z" />
    <glyph glyph-name="percent.case" horiz-adv-x="849" 
d="M206 336c-123 0 -179 86 -179 170c0 82 57 171 178 171c124 0 180 -86 180 -169c0 -84 -57 -172 -179 -172zM207 406c57 0 87 45 87 100s-32 101 -88 101c-57 0 -88 -43 -88 -99s31 -102 89 -102zM644 -9c-124 0 -179 87 -179 171c0 81 56 170 178 170
c123 0 179 -86 179 -168c0 -84 -56 -173 -178 -173zM644 62c57 0 87 45 87 100s-31 100 -88 100c-56 0 -87 -43 -87 -98c0 -56 31 -102 88 -102zM171 0l415 666h91l-414 -666h-92z" />
    <glyph glyph-name="parenleft.case" horiz-adv-x="330" 
d="M227 -117c-97 105 -180 260 -180 453c0 188 86 346 180 439h101c-74 -78 -168 -229 -168 -436c0 -198 70 -342 168 -456h-101z" />
    <glyph glyph-name="parenright.case" horiz-adv-x="330" 
d="M2 -117c80 87 169 234 169 441c0 197 -77 346 -169 451h102c98 -104 180 -260 180 -449c0 -192 -87 -348 -180 -443h-102z" />
    <glyph glyph-name="hyphen.case" horiz-adv-x="320" 
d="M52 304v89h216v-89h-216z" />
    <glyph glyph-name="slash.case" horiz-adv-x="428" 
d="M4 -161l318 881h102l-318 -881h-102z" />
    <glyph glyph-name="less.case" horiz-adv-x="430" 
d="M307 -13l-258 254l257 257l62 -63l-195 -193l196 -191z" />
    <glyph glyph-name="equal.case" horiz-adv-x="545" 
d="M61 124v84h423v-84h-423zM61 301v84h423v-84h-423z" />
    <glyph glyph-name="greater.case" horiz-adv-x="430" 
d="M124 -13l-61 63l194 192l-196 191l62 65l258 -254z" />
    <glyph glyph-name="bracketleft.case" horiz-adv-x="326" 
d="M72 -109v881h228v-81h-126v-720h126v-80h-228z" />
    <glyph glyph-name="bracketright.case" horiz-adv-x="326" 
d="M26 -109v80h126v720h-126v81h228v-881h-228z" />
    <glyph glyph-name="braceleft.case" horiz-adv-x="384" 
d="M254 -109c-56 0 -115 37 -115 117v184c0 63 -38 103 -112 104v81c73 1 112 38 112 104v175c0 81 57 116 115 116h105v-81h-64c-44 0 -54 -28 -54 -73v-158c0 -73 -40 -105 -94 -120v-2c55 -17 94 -53 94 -127v-170c0 -47 9 -70 53 -70h65v-80h-105z" />
    <glyph glyph-name="braceright.case" horiz-adv-x="384" 
d="M26 -109v80h63c44 0 54 28 54 73v170c0 72 40 105 95 120v2c-56 17 -95 52 -95 127v158c0 48 -8 70 -53 70h-64v81h105c56 0 114 -37 114 -117v-174c0 -63 38 -103 113 -104v-81c-73 -1 -113 -38 -113 -104v-185c0 -81 -57 -116 -114 -116h-105z" />
    <glyph glyph-name="exclamdown.case" horiz-adv-x="288" 
d="M146 534c-41 0 -72 32 -72 70c0 39 31 71 72 71s72 -32 72 -71c0 -38 -31 -70 -72 -70zM82 0l21 452h85l21 -452h-127z" />
    <glyph glyph-name="guillemotleft.case" horiz-adv-x="511" 
d="M164 156l-126 191l126 191h109l-125 -191l125 -191h-109zM366 156l-126 191l126 191h110l-125 -191l125 -191h-110z" />
    <glyph glyph-name="uni00AD.case" horiz-adv-x="320" 
d="M52 304v89h216v-89h-216z" />
    <glyph glyph-name="guillemotright.case" horiz-adv-x="511" 
d="M35 156l125 191l-125 191h109l126 -191l-126 -191h-109zM237 156l125 191l-125 191h109l127 -191l-127 -191h-109z" />
    <glyph glyph-name="questiondown.case" horiz-adv-x="406" 
d="M243 -12c-136 0 -203 74 -203 171c0 93 62 138 108 167c42 27 63 43 63 84v47h95v-58c0 -57 -18 -88 -71 -121c-48 -29 -81 -54 -81 -111c0 -61 39 -90 104 -90c37 0 67 13 85 22l37 -80c-27 -14 -72 -31 -137 -31zM257 534c-41 0 -72 32 -72 70c0 39 31 71 72 71
s72 -32 72 -71c0 -38 -31 -70 -72 -70z" />
    <glyph glyph-name="endash.case" horiz-adv-x="539" 
d="M51 305v84h437v-84h-437z" />
    <glyph glyph-name="emdash.case" horiz-adv-x="853" 
d="M51 305v84h751v-84h-751z" />
    <glyph glyph-name="perthousand.case" horiz-adv-x="1256" 
d="M206 336c-123 0 -179 86 -179 170c0 82 57 171 178 171c124 0 180 -86 180 -169c0 -84 -57 -172 -179 -172zM207 406c57 0 87 45 87 100s-32 101 -88 101c-57 0 -88 -43 -88 -99s31 -102 89 -102zM644 -9c-124 0 -179 87 -179 171c0 81 56 170 178 170
c123 0 179 -86 179 -168c0 -84 -56 -173 -178 -173zM644 62c57 0 87 45 87 100s-31 100 -88 100c-56 0 -87 -43 -87 -98c0 -56 31 -102 88 -102zM1051 -9c-124 0 -180 87 -180 171c0 81 57 170 179 170c123 0 179 -86 179 -168c0 -84 -56 -173 -178 -173zM1051 62
c57 0 87 45 87 100s-31 100 -88 100c-56 0 -88 -43 -88 -98c0 -56 32 -102 89 -102zM171 0l415 666h91l-414 -666h-92z" />
    <glyph glyph-name="guilsinglleft.case" horiz-adv-x="310" 
d="M164 156l-126 191l126 191h111l-124 -191l124 -191h-111z" />
    <glyph glyph-name="guilsinglright.case" horiz-adv-x="310" 
d="M35 156l125 191l-125 191h111l127 -191l-127 -191h-111z" />
    <glyph glyph-name="zero.dnom" horiz-adv-x="402" 
d="M201 -6c-113 0 -164 83 -164 173c0 89 49 171 164 171c113 0 165 -82 165 -171c0 -90 -52 -173 -165 -173zM201 60c43 0 71 37 71 107c0 69 -28 105 -71 105c-42 0 -71 -36 -71 -105c0 -70 29 -107 71 -107z" />
    <glyph glyph-name="one.dnom" horiz-adv-x="272" 
d="M106 0v260l-72 -19l-19 65l112 26h64v-332h-85z" />
    <glyph glyph-name="two.dnom" horiz-adv-x="340" 
d="M29 0v45c74 59 161 124 161 184c0 30 -21 43 -48 43c-30 0 -56 -14 -77 -32l-42 53c30 25 70 45 131 45c86 0 126 -41 126 -99c0 -66 -63 -123 -128 -174c4 0 28 1 45 1h100v-66h-268z" />
    <glyph glyph-name="three.dnom" horiz-adv-x="315" 
d="M101 -6c-33 0 -66 6 -78 11l16 64c12 -5 38 -10 59 -10c47 0 80 14 80 42c0 31 -38 43 -100 44v53c55 1 91 19 91 46c0 19 -18 30 -46 30c-25 0 -54 -14 -67 -24l-33 53c22 16 69 35 120 35c73 0 114 -29 114 -76c0 -45 -35 -68 -72 -78v-1c41 -4 84 -29 84 -82
c0 -68 -63 -107 -168 -107z" />
    <glyph glyph-name="four.dnom" horiz-adv-x="343" 
d="M188 0v65h-172v53l176 214h80v-204h54v-63h-54v-65h-84zM101 126c9 1 25 2 44 2h45v108h-1z" />
    <glyph glyph-name="five.dnom" horiz-adv-x="307" 
d="M97 -6c-30 0 -52 4 -66 9l13 65c11 -4 32 -8 52 -8c43 0 86 12 86 48c0 38 -42 48 -91 48c-17 0 -35 -2 -43 -3l12 179h200v-65h-125l-5 -54c79 -2 141 -32 141 -101c0 -77 -71 -118 -174 -118z" />
    <glyph glyph-name="six.dnom" horiz-adv-x="346" 
d="M179 -6c-100 0 -141 68 -141 150c0 115 87 194 234 194l19 -61c-76 -2 -148 -23 -167 -90c19 12 48 20 77 20c63 0 113 -35 113 -102c0 -70 -58 -111 -135 -111zM180 55c30 0 50 19 50 46c0 32 -23 48 -53 48c-23 0 -44 -6 -56 -16v-6c0 -50 26 -72 59 -72z" />
    <glyph glyph-name="seven.dnom" horiz-adv-x="309" 
d="M133 -14l-76 28l117 249h-155v69h253v-42z" />
    <glyph glyph-name="eight.dnom" horiz-adv-x="339" 
d="M169 -6c-82 0 -136 35 -136 90c0 39 31 64 71 84c-35 20 -61 44 -61 80c0 56 60 90 128 90c72 0 126 -31 126 -86c0 -34 -29 -57 -65 -75c39 -19 74 -46 74 -90c0 -60 -61 -93 -137 -93zM168 51c33 0 54 15 54 35c0 22 -29 36 -60 52c-20 -12 -49 -29 -49 -52
c0 -22 23 -35 55 -35zM173 205c19 12 44 27 44 45c0 19 -18 32 -45 32s-47 -14 -47 -32c0 -20 26 -33 48 -45z" />
    <glyph glyph-name="nine.dnom" horiz-adv-x="348" 
d="M76 -8l-19 61c75 1 145 28 164 92c-19 -11 -48 -19 -77 -19c-64 0 -115 36 -115 101c0 70 61 111 136 111c101 0 143 -67 143 -149c0 -117 -83 -197 -232 -197zM168 183c24 0 43 6 56 17v5c0 47 -25 73 -58 73c-31 0 -51 -22 -51 -46c0 -32 23 -49 53 -49z" />
    <glyph glyph-name="zero.lf" horiz-adv-x="607" 
d="M303 -12c-188 0 -261 176 -261 345c0 171 69 345 260 345c189 0 263 -176 263 -345s-74 -345 -262 -345zM302 75c104 0 148 106 148 258s-44 258 -147 258s-147 -106 -147 -258s44 -258 146 -258z" />
    <glyph glyph-name="one.lf" horiz-adv-x="365" 
d="M166 0v571l-129 -41l-22 86l174 50h85v-666h-108z" />
    <glyph glyph-name="two.lf" horiz-adv-x="507" 
d="M29 0v59c122 115 300 281 300 422c0 75 -46 108 -103 108c-65 0 -109 -30 -143 -64l-53 68c46 45 110 85 207 85c129 0 208 -73 208 -183c0 -147 -140 -289 -266 -409c0 0 42 3 75 3h206v-89h-431z" />
    <glyph glyph-name="three.lf" horiz-adv-x="477" 
d="M143 -12c-59 0 -95 7 -107 11l16 87c12 -3 41 -10 88 -10c108 0 170 44 170 121c0 88 -77 118 -197 119v75c99 2 178 47 178 120c0 49 -35 77 -96 77c-57 0 -95 -20 -126 -44l-47 70c36 29 99 64 189 64c127 0 192 -64 192 -152c0 -85 -68 -137 -141 -158v-1
c82 -8 163 -71 163 -167c0 -136 -116 -212 -282 -212z" />
    <glyph glyph-name="four.lf" horiz-adv-x="561" 
d="M333 0v144h-309v77l310 445h103v-435h97v-87h-97v-144h-104zM132 228c16 2 48 3 80 3h121v290h-2z" />
    <glyph glyph-name="five.lf" horiz-adv-x="458" 
d="M113 -12c-43 0 -70 5 -81 8l15 88c9 -2 37 -8 68 -8c104 0 186 44 186 137c0 96 -73 127 -179 127c-24 0 -50 -2 -62 -4l20 330h316v-89h-218l-10 -151c155 -4 248 -78 248 -207c0 -149 -123 -231 -303 -231z" />
    <glyph glyph-name="six.lf" horiz-adv-x="540" 
d="M280 -12c-168 0 -237 145 -237 288c0 243 152 402 405 402l21 -86c-89 0 -172 -22 -226 -68c-43 -38 -71 -92 -82 -164c33 31 84 49 136 49c121 0 208 -81 208 -205c0 -126 -92 -216 -225 -216zM284 72c74 0 108 61 108 126c0 85 -41 128 -114 128
c-54 0 -92 -17 -124 -48v-10c0 -125 48 -196 130 -196z" />
    <glyph glyph-name="seven.lf" horiz-adv-x="464" 
d="M174 -25l-98 33l227 567h-284v91h403v-65z" />
    <glyph glyph-name="eight.lf" horiz-adv-x="510" 
d="M254 -12c-145 0 -217 78 -217 176c0 88 70 146 134 182c-62 38 -115 82 -115 163c0 100 89 169 202 169c121 0 199 -61 199 -163c0 -78 -64 -124 -125 -160c66 -34 141 -90 141 -185c0 -110 -88 -182 -219 -182zM255 72c68 0 105 42 105 98c0 62 -61 102 -117 133
c-44 -29 -96 -68 -96 -134c0 -58 37 -97 108 -97zM258 398c46 28 91 61 91 112c0 48 -31 85 -89 85c-59 0 -94 -36 -94 -83c0 -55 47 -88 92 -114z" />
    <glyph glyph-name="nine.lf" horiz-adv-x="539" 
d="M98 -18l-22 86c92 0 176 26 230 81c38 39 62 90 72 157c-33 -31 -84 -49 -137 -49c-121 0 -208 81 -208 205c0 126 93 216 225 216c169 0 238 -141 238 -288c0 -245 -137 -408 -398 -408zM261 340c54 0 92 17 124 48v10c0 123 -48 196 -129 196c-74 0 -110 -61 -110 -126
c0 -85 42 -128 115 -128z" />
    <glyph glyph-name="exclam.sc" horiz-adv-x="253" 
d="M127 -8c-39 0 -69 30 -69 67c0 35 30 65 69 65c38 0 68 -30 68 -65c0 -37 -30 -67 -68 -67zM87 179l-19 339h119l-18 -339h-82z" />
    <glyph glyph-name="ampersand.sc" horiz-adv-x="548" 
d="M222 -9c-123 0 -190 61 -190 144c0 74 45 113 113 149c-36 40 -58 75 -58 119c0 76 66 125 157 125c93 0 150 -50 150 -115c0 -58 -43 -98 -116 -139l105 -111c18 28 30 62 37 98l86 -15c-10 -54 -33 -104 -66 -146l94 -100h-121l-39 40c-44 -30 -95 -49 -152 -49z
M231 323c51 28 71 54 71 84c0 28 -23 50 -58 50c-36 0 -60 -21 -60 -53c0 -29 19 -52 47 -81zM230 68c35 0 65 11 91 30l-125 130c-39 -23 -59 -50 -59 -86c0 -44 35 -74 93 -74z" />
    <glyph glyph-name="question.sc" horiz-adv-x="349" 
d="M91 179v32c0 47 17 72 56 95c37 23 59 42 59 78c0 42 -29 61 -77 61c-30 0 -54 -10 -69 -18l-35 74c24 12 62 27 123 27c113 0 168 -59 168 -134c0 -65 -46 -99 -81 -123c-35 -22 -55 -34 -55 -70v-22h-89zM137 -8c-39 0 -69 30 -69 67c0 35 30 65 69 65
c38 0 67 -30 67 -65c0 -37 -29 -67 -67 -67z" />
    <glyph glyph-name="a.sc" horiz-adv-x="558" 
d="M190 184h169l-53 138c-17 46 -31 93 -31 93h-2s-15 -49 -31 -93zM17 0l208 518h104l212 -518h-113l-39 102h-228l-38 -102h-106z" />
    <glyph glyph-name="b.sc" horiz-adv-x="501" 
d="M74 0v518h175c102 0 187 -32 187 -131c0 -66 -39 -102 -96 -116v-1c65 -9 119 -52 119 -126c0 -105 -88 -144 -212 -144h-173zM180 81h64c74 0 108 17 108 71c0 51 -31 78 -103 78h-69v-149zM180 303h57c67 0 95 23 95 72c0 45 -32 64 -93 64h-59v-136z" />
    <glyph glyph-name="c.sc" horiz-adv-x="515" 
d="M317 -9c-182 0 -275 125 -275 268c0 144 97 269 278 269c70 0 119 -15 159 -42l-48 -79c-28 19 -61 32 -112 32c-107 0 -164 -73 -164 -176c0 -106 55 -184 165 -184c59 0 96 20 124 40l43 -76c-30 -24 -89 -52 -170 -52z" />
    <glyph glyph-name="d.sc" horiz-adv-x="584" 
d="M74 0v518h159c213 0 309 -100 309 -252s-97 -266 -313 -266h-155zM181 85h56c127 0 193 57 193 177c0 122 -63 171 -197 171h-52v-348z" />
    <glyph glyph-name="e.sc" horiz-adv-x="459" 
d="M74 0v518h327v-85h-221v-124h198v-81h-198v-143h227v-85h-333z" />
    <glyph glyph-name="f.sc" horiz-adv-x="437" 
d="M74 0v518h321v-86h-214v-132h190v-83h-190v-217h-107z" />
    <glyph glyph-name="g.sc" horiz-adv-x="589" 
d="M326 -9c-185 0 -284 126 -284 268c0 145 106 269 292 269c90 0 143 -24 176 -47l-47 -79c-29 19 -68 37 -131 37c-120 0 -177 -73 -177 -177s54 -185 172 -185c59 0 89 16 101 22v107h-102v79h205v-241c-21 -15 -79 -53 -205 -53z" />
    <glyph glyph-name="h.sc" horiz-adv-x="615" 
d="M74 0v518h107v-205h254v205h106v-518h-106v225h-254v-225h-107z" />
    <glyph glyph-name="i.sc" horiz-adv-x="265" 
d="M79 0v518h107v-518h-107z" />
    <glyph glyph-name="j.sc" horiz-adv-x="273" 
d="M50 -161c-38 0 -61 6 -75 12l16 86c7 -3 22 -8 37 -8c45 0 64 23 64 79v510h108v-524c0 -101 -57 -155 -150 -155z" />
    <glyph glyph-name="k.sc" horiz-adv-x="518" 
d="M74 0v518h107v-240l196 240h119l-199 -242l206 -276h-119l-203 267v-267h-107z" />
    <glyph glyph-name="l.sc" horiz-adv-x="430" 
d="M75 0v518h108v-432h214v-86h-322z" />
    <glyph glyph-name="m.sc" horiz-adv-x="730" 
d="M43 0l75 518h104l112 -325c15 -41 29 -91 29 -91h2s14 51 29 91l115 325h104l73 -518h-109l-36 279c-5 39 -8 75 -8 75h-2s-10 -37 -22 -74l-98 -280h-103l-99 280c-12 35 -23 74 -23 74h-2s-2 -40 -7 -76l-37 -278h-97z" />
    <glyph glyph-name="n.sc" horiz-adv-x="608" 
d="M73 0v518h108l203 -280c33 -45 56 -88 56 -89h2c0 1 -4 43 -4 83v286h97v-518h-97l-219 300c-29 41 -50 79 -50 80h-2c0 -1 3 -36 3 -71v-309h-97z" />
    <glyph glyph-name="o.sc" horiz-adv-x="639" 
d="M321 -9c-178 0 -279 125 -279 267c0 141 99 270 278 270c178 0 278 -125 278 -267s-97 -270 -277 -270zM320 77c112 0 165 84 165 181c0 99 -52 184 -164 184c-111 0 -166 -84 -166 -181c0 -99 54 -184 165 -184z" />
    <glyph glyph-name="p.sc" horiz-adv-x="488" 
d="M73 0v518h175c118 0 205 -51 205 -162c0 -114 -83 -170 -217 -170h-55v-186h-108zM181 267h55c76 0 111 26 111 87c0 56 -33 83 -108 83h-58v-170z" />
    <glyph glyph-name="q.sc" horiz-adv-x="639" 
d="M503 -138c-83 0 -149 29 -228 134c-149 17 -233 133 -233 262c0 141 99 270 278 270c178 0 278 -125 278 -267c0 -121 -70 -231 -201 -261c33 -40 62 -58 110 -58c31 0 55 14 65 21l35 -71c-17 -13 -55 -30 -104 -30zM320 76c112 0 165 84 165 182c0 99 -52 184 -164 184
c-111 0 -166 -84 -166 -181c0 -100 54 -185 165 -185z" />
    <glyph glyph-name="r.sc" horiz-adv-x="509" 
d="M74 0v518h176c126 0 199 -51 199 -148c0 -88 -63 -127 -133 -138v-1c13 -9 35 -31 65 -75l110 -156h-119l-100 148c-43 61 -55 67 -83 67h-8v-215h-107zM181 290h66c65 0 94 26 94 74c0 50 -30 73 -99 73h-61v-147z" />
    <glyph glyph-name="s.sc" horiz-adv-x="429" 
d="M198 -9c-88 0 -142 31 -165 50l45 75c15 -10 52 -40 117 -40c56 0 92 22 92 61c0 48 -49 60 -123 94c-67 31 -118 70 -118 152c0 94 80 145 174 145c86 0 131 -27 155 -42l-43 -75c-19 13 -58 32 -107 32c-45 0 -77 -18 -77 -56c0 -43 41 -56 100 -81
c73 -32 142 -70 142 -162c0 -96 -73 -153 -192 -153z" />
    <glyph glyph-name="t.sc" horiz-adv-x="454" 
d="M173 0v431h-156v87h420v-87h-156v-431h-108z" />
    <glyph glyph-name="u.sc" horiz-adv-x="589" 
d="M298 -9c-156 0 -229 82 -229 221v306h108v-297c0 -102 36 -143 124 -143c84 0 118 48 118 136v304h100v-296c0 -145 -73 -231 -221 -231z" />
    <glyph glyph-name="v.sc" horiz-adv-x="546" 
d="M225 0l-209 518h114l120 -319c15 -39 29 -87 29 -87h2s14 47 28 87l116 319h104l-201 -518h-103z" />
    <glyph glyph-name="w.sc" horiz-adv-x="749" 
d="M165 0l-147 518h112l76 -282c12 -44 20 -93 20 -94h2c0 1 11 52 24 98l78 278h103l77 -277c12 -45 22 -97 22 -98h2c0 1 9 53 21 95l76 280h100l-148 -518h-99l-81 298c-12 43 -24 98 -24 99h-2c0 -1 -12 -56 -25 -99l-88 -298h-99z" />
    <glyph glyph-name="x.sc" horiz-adv-x="507" 
d="M21 0l174 269l-163 249h118l108 -172l103 172h107l-159 -252l175 -266h-117l-122 190l-116 -190h-108z" />
    <glyph glyph-name="y.sc" horiz-adv-x="491" 
d="M194 0v196l-180 322h117l121 -229h2l118 229h105l-175 -322v-196h-108z" />
    <glyph glyph-name="z.sc" horiz-adv-x="476" 
d="M41 0v70l258 362h-247v86h377v-68l-260 -365h268v-85h-396z" />
    <glyph glyph-name="exclamdown.sc" horiz-adv-x="253" 
d="M126 394c-38 0 -67 30 -67 65c0 37 29 67 67 67c39 0 69 -30 69 -67c0 -35 -30 -65 -69 -65zM67 0l18 339h82l19 -339h-119z" />
    <glyph glyph-name="mu.sc" horiz-adv-x="730" 
d="M43 0l75 518h104l112 -325c15 -41 29 -91 29 -91h2s14 51 29 91l115 325h104l73 -518h-109l-36 279c-5 39 -8 75 -8 75h-2s-10 -37 -22 -74l-98 -280h-103l-99 280c-12 35 -23 74 -23 74h-2s-2 -40 -7 -76l-37 -278h-97z" />
    <glyph glyph-name="questiondown.sc" horiz-adv-x="349" 
d="M201 -9c-113 0 -168 58 -168 133c0 66 46 100 81 123c34 23 55 35 55 71v21h89v-32c0 -46 -17 -72 -56 -95c-37 -22 -59 -42 -59 -77c0 -42 29 -61 77 -61c30 0 54 9 69 17l35 -73c-24 -12 -62 -27 -123 -27zM212 395c-38 0 -67 29 -67 65s29 67 67 67
c39 0 69 -31 69 -67s-30 -65 -69 -65z" />
    <glyph glyph-name="germandbls.sc" horiz-adv-x="857" 
d="M198 -9c-88 0 -142 31 -165 50l45 75c15 -10 52 -40 117 -40c56 0 92 22 92 61c0 49 -49 61 -123 95c-67 31 -118 69 -118 151c0 94 80 145 174 145c86 0 131 -27 155 -42l-43 -75c-19 13 -58 32 -107 32c-45 0 -77 -18 -77 -56c0 -44 41 -56 100 -82
c73 -31 142 -69 142 -161c0 -96 -73 -153 -192 -153zM626 -9c-88 0 -142 31 -164 50l44 75c15 -10 52 -40 117 -40c56 0 92 22 92 61c0 49 -49 61 -123 95c-67 31 -118 69 -118 151c0 94 80 145 174 145c86 0 131 -27 155 -42l-42 -75c-20 13 -59 32 -108 32
c-44 0 -77 -18 -77 -56c0 -44 41 -56 100 -82c73 -31 142 -69 142 -161c0 -96 -73 -153 -192 -153z" />
    <glyph glyph-name="agrave.sc" horiz-adv-x="558" 
d="M190 184h169l-53 138c-17 46 -31 93 -31 93h-2s-15 -49 -31 -93zM17 0l208 518h104l212 -518h-113l-39 102h-228l-38 -102h-106zM240 565l-137 131h143l87 -131h-93z" />
    <glyph glyph-name="aacute.sc" horiz-adv-x="558" 
d="M227 565l87 131h144l-138 -131h-93zM190 184h169l-53 138c-17 46 -31 93 -31 93h-2s-15 -49 -31 -93zM17 0l208 518h104l212 -518h-113l-39 102h-228l-38 -102h-106z" />
    <glyph glyph-name="acircumflex.sc" horiz-adv-x="558" 
d="M114 566l125 156h80l124 -156h-94l-72 74l-70 -74h-93zM190 184h169l-53 138c-17 46 -31 93 -31 93h-2s-15 -49 -31 -93zM17 0l208 518h104l212 -518h-113l-39 102h-228l-38 -102h-106z" />
    <glyph glyph-name="atilde.sc" horiz-adv-x="558" 
d="M190 184h169l-53 138c-17 46 -31 93 -31 93h-2s-15 -49 -31 -93zM17 0l208 518h104l212 -518h-113l-39 102h-228l-38 -102h-106zM333 569c-55 0 -73 37 -113 37c-24 0 -42 -22 -52 -32l-51 46c19 30 54 69 104 69c56 0 74 -37 113 -37c28 0 45 21 54 31l51 -47
c-21 -30 -55 -67 -106 -67z" />
    <glyph glyph-name="adieresis.sc" horiz-adv-x="558" 
d="M178 564c-37 0 -65 29 -65 64c0 34 28 63 65 63s65 -29 65 -63c0 -35 -28 -64 -65 -64zM378 564c-37 0 -65 29 -65 64c0 34 28 63 65 63s65 -29 65 -63c0 -35 -28 -64 -65 -64zM190 184h169l-53 138c-17 46 -31 93 -31 93h-2s-15 -49 -31 -93zM17 0l208 518h104l212 -518
h-113l-39 102h-228l-38 -102h-106z" />
    <glyph glyph-name="aring.sc" horiz-adv-x="558" 
d="M278 566c-54 0 -103 44 -103 101s49 101 103 101s103 -44 103 -101s-49 -101 -103 -101zM278 615c30 0 48 25 48 52c0 29 -18 53 -48 53s-48 -24 -48 -53c0 -27 18 -52 48 -52zM190 184h169l-53 138c-17 46 -31 93 -31 93h-2s-15 -49 -31 -93zM17 0l208 518h104l212 -518
h-113l-39 102h-228l-38 -102h-106z" />
    <glyph glyph-name="ae.sc" horiz-adv-x="705" 
d="M-13 0l310 518h354v-86h-205v-123h180v-81h-180v-142h210v-86h-316v111h-173l-64 -111h-116zM213 192h127v221z" />
    <glyph glyph-name="ccedilla.sc" horiz-adv-x="515" 
d="M267 -225c-40 0 -63 8 -75 14l14 51c10 -5 28 -11 53 -11c29 0 48 13 48 37c0 35 -36 41 -71 39l33 89c-151 20 -227 135 -227 265c0 144 97 269 278 269c70 0 119 -15 159 -42l-48 -79c-28 19 -61 32 -112 32c-107 0 -164 -73 -164 -176c0 -106 55 -184 165 -184
c59 0 96 20 124 40l43 -76c-28 -23 -81 -48 -154 -51l-19 -52c42 -7 71 -35 71 -76c0 -55 -51 -89 -118 -89z" />
    <glyph glyph-name="egrave.sc" horiz-adv-x="459" 
d="M197 565l-137 131h143l87 -131h-93zM74 0v518h327v-85h-221v-124h198v-81h-198v-143h227v-85h-333z" />
    <glyph glyph-name="eacute.sc" horiz-adv-x="459" 
d="M184 565l87 131h144l-138 -131h-93zM74 0v518h327v-85h-221v-124h198v-81h-198v-143h227v-85h-333z" />
    <glyph glyph-name="ecircumflex.sc" horiz-adv-x="459" 
d="M72 566l125 156h80l124 -156h-94l-72 74l-70 -74h-93zM74 0v518h327v-85h-221v-124h198v-81h-198v-143h227v-85h-333z" />
    <glyph glyph-name="edieresis.sc" horiz-adv-x="459" 
d="M136 564c-37 0 -65 29 -65 64c0 34 28 63 65 63s65 -29 65 -63c0 -35 -28 -64 -65 -64zM336 564c-37 0 -65 29 -65 64c0 34 28 63 65 63s65 -29 65 -63c0 -35 -28 -64 -65 -64zM74 0v518h327v-85h-221v-124h198v-81h-198v-143h227v-85h-333z" />
    <glyph glyph-name="igrave.sc" horiz-adv-x="265" 
d="M79 0v518h107v-518h-107zM93 565l-137 131h143l87 -131h-93z" />
    <glyph glyph-name="iacute.sc" horiz-adv-x="265" 
d="M81 565l87 131h144l-138 -131h-93zM79 0v518h107v-518h-107z" />
    <glyph glyph-name="icircumflex.sc" horiz-adv-x="265" 
d="M-31 566l125 156h80l124 -156h-94l-72 74l-70 -74h-93zM79 0v518h107v-518h-107z" />
    <glyph glyph-name="idieresis.sc" horiz-adv-x="265" 
d="M33 564c-37 0 -65 29 -65 64c0 34 28 63 65 63s65 -29 65 -63c0 -35 -28 -64 -65 -64zM233 564c-37 0 -65 29 -65 64c0 34 28 63 65 63s65 -29 65 -63c0 -35 -28 -64 -65 -64zM79 0v518h107v-518h-107z" />
    <glyph glyph-name="eth.sc" horiz-adv-x="584" 
d="M74 0v217h-53v79h53v222h159c213 0 309 -100 309 -252s-97 -266 -313 -266h-155zM181 85h56c127 0 193 57 193 177c0 122 -63 171 -197 171h-52v-137h110v-79h-110v-132z" />
    <glyph glyph-name="ntilde.sc" horiz-adv-x="608" 
d="M73 0v518h108l203 -280c33 -45 56 -88 56 -89h2c0 1 -4 43 -4 83v286h97v-518h-97l-219 300c-29 41 -50 79 -50 80h-2c0 -1 3 -36 3 -71v-309h-97zM358 569c-55 0 -73 37 -113 37c-24 0 -42 -22 -52 -32l-51 46c19 30 54 69 104 69c56 0 74 -37 113 -37c28 0 45 21 54 31
l51 -47c-21 -30 -55 -67 -106 -67z" />
    <glyph glyph-name="ograve.sc" horiz-adv-x="639" 
d="M321 -9c-178 0 -279 125 -279 267c0 141 99 270 278 270c178 0 278 -125 278 -267s-97 -270 -277 -270zM320 77c112 0 165 84 165 181c0 99 -52 184 -164 184c-111 0 -166 -84 -166 -181c0 -99 54 -184 165 -184zM280 565l-137 131h143l87 -131h-93z" />
    <glyph glyph-name="oacute.sc" horiz-adv-x="639" 
d="M268 565l87 131h144l-138 -131h-93zM321 -9c-178 0 -279 125 -279 267c0 141 99 270 278 270c178 0 278 -125 278 -267s-97 -270 -277 -270zM320 77c112 0 165 84 165 181c0 99 -52 184 -164 184c-111 0 -166 -84 -166 -181c0 -99 54 -184 165 -184z" />
    <glyph glyph-name="ocircumflex.sc" horiz-adv-x="639" 
d="M155 566l125 156h80l124 -156h-94l-72 74l-70 -74h-93zM321 -9c-178 0 -279 125 -279 267c0 141 99 270 278 270c178 0 278 -125 278 -267s-97 -270 -277 -270zM320 77c112 0 165 84 165 181c0 99 -52 184 -164 184c-111 0 -166 -84 -166 -181c0 -99 54 -184 165 -184z
" />
    <glyph glyph-name="otilde.sc" horiz-adv-x="639" 
d="M321 -9c-178 0 -279 125 -279 267c0 141 99 270 278 270c178 0 278 -125 278 -267s-97 -270 -277 -270zM320 77c112 0 165 84 165 181c0 99 -52 184 -164 184c-111 0 -166 -84 -166 -181c0 -99 54 -184 165 -184zM374 569c-55 0 -73 37 -113 37c-24 0 -42 -22 -52 -32
l-51 46c19 30 54 69 104 69c56 0 74 -37 113 -37c28 0 45 21 54 31l51 -47c-21 -30 -55 -67 -106 -67z" />
    <glyph glyph-name="odieresis.sc" horiz-adv-x="639" 
d="M219 564c-37 0 -65 29 -65 64c0 34 28 63 65 63s65 -29 65 -63c0 -35 -28 -64 -65 -64zM419 564c-37 0 -65 29 -65 64c0 34 28 63 65 63s65 -29 65 -63c0 -35 -28 -64 -65 -64zM321 -9c-178 0 -279 125 -279 267c0 141 99 270 278 270c178 0 278 -125 278 -267
s-97 -270 -277 -270zM320 77c112 0 165 84 165 181c0 99 -52 184 -164 184c-111 0 -166 -84 -166 -181c0 -99 54 -184 165 -184z" />
    <glyph glyph-name="oslash.sc" horiz-adv-x="639" 
d="M141 -57l-63 44l51 70c-57 50 -87 123 -87 201c0 141 99 270 278 270c52 0 97 -11 136 -30l52 72l64 -46l-53 -70c51 -49 79 -119 79 -193c0 -142 -97 -270 -277 -270c-48 0 -91 9 -127 25zM155 261c0 -47 12 -91 37 -124l210 285c-22 12 -49 20 -81 20
c-111 0 -166 -84 -166 -181zM320 77c112 0 165 84 165 181c0 43 -10 83 -30 115l-208 -281c21 -10 45 -15 73 -15z" />
    <glyph glyph-name="ugrave.sc" horiz-adv-x="589" 
d="M256 565l-137 131h143l87 -131h-93zM298 -9c-156 0 -229 82 -229 221v306h108v-297c0 -102 36 -143 124 -143c84 0 118 48 118 136v304h100v-296c0 -145 -73 -231 -221 -231z" />
    <glyph glyph-name="uacute.sc" horiz-adv-x="589" 
d="M243 565l87 131h144l-138 -131h-93zM298 -9c-156 0 -229 82 -229 221v306h108v-297c0 -102 36 -143 124 -143c84 0 118 48 118 136v304h100v-296c0 -145 -73 -231 -221 -231z" />
    <glyph glyph-name="ucircumflex.sc" horiz-adv-x="589" 
d="M131 566l125 156h80l124 -156h-94l-72 74l-70 -74h-93zM298 -9c-156 0 -229 82 -229 221v306h108v-297c0 -102 36 -143 124 -143c84 0 118 48 118 136v304h100v-296c0 -145 -73 -231 -221 -231z" />
    <glyph glyph-name="udieresis.sc" horiz-adv-x="589" 
d="M195 564c-37 0 -65 29 -65 64c0 34 28 63 65 63s65 -29 65 -63c0 -35 -28 -64 -65 -64zM395 564c-37 0 -65 29 -65 64c0 34 28 63 65 63s65 -29 65 -63c0 -35 -28 -64 -65 -64zM298 -9c-156 0 -229 82 -229 221v306h108v-297c0 -102 36 -143 124 -143
c84 0 118 48 118 136v304h100v-296c0 -145 -73 -231 -221 -231z" />
    <glyph glyph-name="yacute.sc" horiz-adv-x="491" 
d="M195 565l87 131h144l-138 -131h-93zM194 0v196l-180 322h117l121 -229h2l118 229h105l-175 -322v-196h-108z" />
    <glyph glyph-name="thorn.sc" horiz-adv-x="489" 
d="M73 0v518h108v-83h70c118 0 205 -51 205 -162c0 -114 -83 -171 -217 -171h-58v-102h-108zM181 183h58c76 0 111 27 111 87c0 57 -33 84 -108 84h-61v-171z" />
    <glyph glyph-name="ydieresis.sc" horiz-adv-x="491" 
d="M147 564c-37 0 -65 29 -65 64c0 34 28 63 65 63s65 -29 65 -63c0 -35 -28 -64 -65 -64zM347 564c-37 0 -65 29 -65 64c0 34 28 63 65 63s65 -29 65 -63c0 -35 -28 -64 -65 -64zM194 0v196l-180 322h117l121 -229h2l118 229h105l-175 -322v-196h-108z" />
    <glyph glyph-name="amacron.sc" horiz-adv-x="558" 
d="M190 184h169l-53 138c-17 46 -31 93 -31 93h-2s-15 -49 -31 -93zM17 0l208 518h104l212 -518h-113l-39 102h-228l-38 -102h-106zM140 591v80h277v-80h-277z" />
    <glyph glyph-name="abreve.sc" horiz-adv-x="558" 
d="M190 184h169l-53 138c-17 46 -31 93 -31 93h-2s-15 -49 -31 -93zM17 0l208 518h104l212 -518h-113l-39 102h-228l-38 -102h-106zM279 557c-77 0 -148 44 -158 147h90c3 -45 27 -74 68 -74s64 29 68 74h89c-9 -103 -80 -147 -157 -147z" />
    <glyph glyph-name="aogonek.sc" horiz-adv-x="558" 
d="M470 -225c-68 0 -110 39 -110 96c0 56 40 103 68 129l-39 102h-228l-38 -102h-106l208 518h104l212 -518l-9 -1c-55 -4 -93 -66 -93 -115c0 -30 17 -46 49 -46c16 0 30 3 42 8l14 -54c-15 -8 -38 -17 -74 -17zM190 184h169l-53 138c-17 46 -31 93 -31 93h-2
s-15 -49 -31 -93z" />
    <glyph glyph-name="cacute.sc" horiz-adv-x="515" 
d="M247 565l87 131h144l-138 -131h-93zM317 -9c-182 0 -275 125 -275 268c0 144 97 269 278 269c70 0 119 -15 159 -42l-48 -79c-28 19 -61 32 -112 32c-107 0 -164 -73 -164 -176c0 -106 55 -184 165 -184c59 0 96 20 124 40l43 -76c-30 -24 -89 -52 -170 -52z" />
    <glyph glyph-name="ccircumflex.sc" horiz-adv-x="515" 
d="M135 566l125 156h80l124 -156h-94l-72 74l-70 -74h-93zM317 -9c-182 0 -275 125 -275 268c0 144 97 269 278 269c70 0 119 -15 159 -42l-48 -79c-28 19 -61 32 -112 32c-107 0 -164 -73 -164 -176c0 -106 55 -184 165 -184c59 0 96 20 124 40l43 -76
c-30 -24 -89 -52 -170 -52z" />
    <glyph glyph-name="cdotaccent.sc" horiz-adv-x="515" 
d="M317 -9c-182 0 -275 125 -275 268c0 144 97 269 278 269c70 0 119 -15 159 -42l-48 -79c-28 19 -61 32 -112 32c-107 0 -164 -73 -164 -176c0 -106 55 -184 165 -184c59 0 96 20 124 40l43 -76c-30 -24 -89 -52 -170 -52zM299 586c-37 0 -65 29 -65 64s28 64 65 64
s65 -29 65 -64s-28 -64 -65 -64z" />
    <glyph glyph-name="ccaron.sc" horiz-adv-x="515" 
d="M258 564l-123 156h93l72 -74l70 74h94l-126 -156h-80zM317 -9c-182 0 -275 125 -275 268c0 144 97 269 278 269c70 0 119 -15 159 -42l-48 -79c-28 19 -61 32 -112 32c-107 0 -164 -73 -164 -176c0 -106 55 -184 165 -184c59 0 96 20 124 40l43 -76
c-30 -24 -89 -52 -170 -52z" />
    <glyph glyph-name="dcaron.sc" horiz-adv-x="584" 
d="M241 564l-123 156h93l72 -74l70 74h94l-126 -156h-80zM74 0v518h159c213 0 309 -100 309 -252s-97 -266 -313 -266h-155zM181 85h56c127 0 193 57 193 177c0 122 -63 171 -197 171h-52v-348z" />
    <glyph glyph-name="dcroat.sc" horiz-adv-x="584" 
d="M74 0v217h-53v79h53v222h159c213 0 309 -100 309 -252s-97 -266 -313 -266h-155zM181 85h56c127 0 193 57 193 177c0 122 -63 171 -197 171h-52v-137h110v-79h-110v-132z" />
    <glyph glyph-name="emacron.sc" horiz-adv-x="459" 
d="M98 591v80h277v-80h-277zM74 0v518h327v-85h-221v-124h198v-81h-198v-143h227v-85h-333z" />
    <glyph glyph-name="ebreve.sc" horiz-adv-x="459" 
d="M237 557c-77 0 -148 44 -158 147h90c3 -45 27 -74 68 -74s64 29 68 74h89c-9 -103 -80 -147 -157 -147zM74 0v518h327v-85h-221v-124h198v-81h-198v-143h227v-85h-333z" />
    <glyph glyph-name="edotaccent.sc" horiz-adv-x="459" 
d="M236 586c-37 0 -65 29 -65 64s28 64 65 64s65 -29 65 -64s-28 -64 -65 -64zM74 0v518h327v-85h-221v-124h198v-81h-198v-143h227v-85h-333z" />
    <glyph glyph-name="eogonek.sc" horiz-adv-x="459" 
d="M326 -225c-68 0 -110 39 -110 96c0 55 40 110 81 129h-223v518h327v-85h-221v-124h198v-81h-198v-143h227v-85h-2c-67 0 -110 -56 -110 -116c0 -31 17 -46 49 -46c16 0 29 3 42 8l14 -54c-15 -8 -38 -17 -74 -17z" />
    <glyph glyph-name="ecaron.sc" horiz-adv-x="459" 
d="M195 564l-123 156h93l72 -74l70 74h94l-126 -156h-80zM74 0v518h327v-85h-221v-124h198v-81h-198v-143h227v-85h-333z" />
    <glyph glyph-name="gcircumflex.sc" horiz-adv-x="589" 
d="M156 566l125 156h80l124 -156h-94l-72 74l-70 -74h-93zM326 -9c-185 0 -284 126 -284 268c0 145 106 269 292 269c90 0 143 -24 176 -47l-47 -79c-29 19 -68 37 -131 37c-120 0 -177 -73 -177 -177s54 -185 172 -185c59 0 89 16 101 22v107h-102v79h205v-241
c-21 -15 -79 -53 -205 -53z" />
    <glyph glyph-name="gbreve.sc" horiz-adv-x="589" 
d="M326 -9c-185 0 -284 126 -284 268c0 145 106 269 292 269c90 0 143 -24 176 -47l-47 -79c-29 19 -68 37 -131 37c-120 0 -177 -73 -177 -177s54 -185 172 -185c59 0 89 16 101 22v107h-102v79h205v-241c-21 -15 -79 -53 -205 -53zM321 557c-77 0 -148 44 -158 147h90
c3 -45 27 -74 68 -74s64 29 68 74h89c-9 -103 -80 -147 -157 -147z" />
    <glyph glyph-name="gdotaccent.sc" horiz-adv-x="589" 
d="M326 -9c-185 0 -284 126 -284 268c0 145 106 269 292 269c90 0 143 -24 176 -47l-47 -79c-29 19 -68 37 -131 37c-120 0 -177 -73 -177 -177s54 -185 172 -185c59 0 89 16 101 22v107h-102v79h205v-241c-21 -15 -79 -53 -205 -53zM320 586c-37 0 -65 29 -65 64
s28 64 65 64s65 -29 65 -64s-28 -64 -65 -64z" />
    <glyph glyph-name="gcommaaccent.sc" horiz-adv-x="589" 
d="M263 -224c14 15 29 34 29 57c0 32 -36 37 -36 75c0 27 23 47 54 47c33 0 63 -24 63 -64c0 -48 -30 -89 -54 -115h-56zM326 -9c-185 0 -284 126 -284 268c0 145 106 269 292 269c90 0 143 -24 176 -47l-47 -79c-29 19 -68 37 -131 37c-120 0 -177 -73 -177 -177
s54 -185 172 -185c59 0 89 16 101 22v107h-102v79h205v-241c-21 -15 -79 -53 -205 -53z" />
    <glyph glyph-name="hcircumflex.sc" horiz-adv-x="615" 
d="M143 566l125 156h80l124 -156h-94l-72 74l-70 -74h-93zM74 0v518h107v-205h254v205h106v-518h-106v225h-254v-225h-107z" />
    <glyph glyph-name="hbar.sc" horiz-adv-x="629" 
d="M28 365v78h53v75h108v-75h253v75h107v-75h52v-78h-52v-365h-107v210h-253v-210h-108v365h-53zM189 298h253v67h-253v-67z" />
    <glyph glyph-name="itilde.sc" horiz-adv-x="265" 
d="M79 0v518h107v-518h-107zM188 569c-55 0 -73 37 -113 37c-24 0 -42 -22 -52 -32l-51 46c19 30 54 69 104 69c56 0 74 -37 113 -37c28 0 45 21 54 31l51 -47c-21 -30 -55 -67 -106 -67z" />
    <glyph glyph-name="imacron.sc" horiz-adv-x="265" 
d="M79 0v518h107v-518h-107zM-5 591v80h277v-80h-277z" />
    <glyph glyph-name="ibreve.sc" horiz-adv-x="265" 
d="M79 0v518h107v-518h-107zM133 557c-77 0 -148 44 -158 147h90c3 -45 27 -74 68 -74s64 29 68 74h89c-9 -103 -80 -147 -157 -147z" />
    <glyph glyph-name="iogonek.sc" horiz-adv-x="265" 
d="M130 -225c-68 0 -110 39 -110 96c0 55 40 106 73 129h-14v518h107v-518h-3c-40 0 -84 -62 -84 -116c0 -30 17 -46 49 -46c16 0 29 3 42 8l14 -54c-15 -8 -38 -17 -74 -17z" />
    <glyph glyph-name="dotlessi.sc" horiz-adv-x="265" 
d="M79 0v518h107v-518h-107z" />
    <glyph glyph-name="ij.sc" horiz-adv-x="539" 
d="M79 0v518h107v-518h-107zM315 -161c-38 0 -61 6 -75 12l16 86c7 -3 22 -8 37 -8c45 0 64 23 64 79v510h108v-524c0 -101 -57 -155 -150 -155z" />
    <glyph glyph-name="jcircumflex.sc" horiz-adv-x="273" 
d="M-19 566l125 156h80l124 -156h-94l-72 74l-70 -74h-93zM50 -161c-38 0 -61 6 -75 12l16 86c7 -3 22 -8 37 -8c45 0 64 23 64 79v510h108v-524c0 -101 -57 -155 -150 -155z" />
    <glyph glyph-name="kcommaaccent.sc" horiz-adv-x="518" 
d="M212 -224c14 15 29 34 29 57c0 32 -36 37 -36 75c0 27 23 47 54 47c33 0 63 -24 63 -64c0 -48 -30 -89 -54 -115h-56zM74 0v518h107v-240l196 240h119l-199 -242l206 -276h-119l-203 267v-267h-107z" />
    <glyph glyph-name="lacute.sc" horiz-adv-x="430" 
d="M75 0v518h108v-432h214v-86h-322zM78 565l87 131h144l-138 -131h-93z" />
    <glyph glyph-name="lcommaaccent.sc" horiz-adv-x="430" 
d="M173 -224c14 15 29 34 29 57c0 32 -36 37 -36 75c0 27 23 47 54 47c33 0 63 -24 63 -64c0 -48 -30 -89 -54 -115h-56zM75 0v518h108v-432h214v-86h-322z" />
    <glyph glyph-name="lcaron.sc" horiz-adv-x="435" 
d="M239 371l39 177h116l-79 -177h-76zM75 0v518h108v-432h214v-86h-322z" />
    <glyph glyph-name="ldot.sc" horiz-adv-x="430" 
d="M75 0v518h108v-432h214v-86h-322zM303 257c-37 0 -65 29 -65 64s28 64 65 64s65 -29 65 -64s-28 -64 -65 -64z" />
    <glyph glyph-name="lslash.sc" horiz-adv-x="435" 
d="M80 0v177l-46 -34l-39 59l85 62v254h108v-179l81 60l40 -59l-121 -88v-166h214v-86h-322z" />
    <glyph glyph-name="nacute.sc" horiz-adv-x="608" 
d="M251 565l87 131h144l-138 -131h-93zM73 0v518h108l203 -280c33 -45 56 -88 56 -89h2c0 1 -4 43 -4 83v286h97v-518h-97l-219 300c-29 41 -50 79 -50 80h-2c0 -1 3 -36 3 -71v-309h-97z" />
    <glyph glyph-name="ncommaaccent.sc" horiz-adv-x="608" 
d="M251 -224c14 15 29 34 29 57c0 32 -36 37 -36 75c0 27 23 47 54 47c33 0 63 -24 63 -64c0 -48 -30 -89 -54 -115h-56zM73 0v518h108l203 -280c33 -45 56 -88 56 -89h2c0 1 -4 43 -4 83v286h97v-518h-97l-219 300c-29 41 -50 79 -50 80h-2c0 -1 3 -36 3 -71v-309h-97z" />
    <glyph glyph-name="ncaron.sc" horiz-adv-x="608" 
d="M262 564l-123 156h93l72 -74l70 74h94l-126 -156h-80zM73 0v518h108l203 -280c33 -45 56 -88 56 -89h2c0 1 -4 43 -4 83v286h97v-518h-97l-219 300c-29 41 -50 79 -50 80h-2c0 -1 3 -36 3 -71v-309h-97z" />
    <glyph glyph-name="omacron.sc" horiz-adv-x="639" 
d="M321 -9c-178 0 -279 125 -279 267c0 141 99 270 278 270c178 0 278 -125 278 -267s-97 -270 -277 -270zM320 77c112 0 165 84 165 181c0 99 -52 184 -164 184c-111 0 -166 -84 -166 -181c0 -99 54 -184 165 -184zM181 591v80h277v-80h-277z" />
    <glyph glyph-name="obreve.sc" horiz-adv-x="639" 
d="M321 -9c-178 0 -279 125 -279 267c0 141 99 270 278 270c178 0 278 -125 278 -267s-97 -270 -277 -270zM320 77c112 0 165 84 165 181c0 99 -52 184 -164 184c-111 0 -166 -84 -166 -181c0 -99 54 -184 165 -184zM320 557c-77 0 -148 44 -158 147h90c3 -45 27 -74 68 -74
s64 29 68 74h89c-9 -103 -80 -147 -157 -147z" />
    <glyph glyph-name="ohungarumlaut.sc" horiz-adv-x="639" 
d="M321 -9c-178 0 -279 125 -279 267c0 141 99 270 278 270c178 0 278 -125 278 -267s-97 -270 -277 -270zM320 77c112 0 165 84 165 181c0 99 -52 184 -164 184c-111 0 -166 -84 -166 -181c0 -99 54 -184 165 -184zM167 565l92 131h132l-136 -131h-88zM352 565l92 131h132
l-136 -131h-88z" />
    <glyph glyph-name="oe.sc" horiz-adv-x="763" 
d="M321 -9c-179 0 -280 125 -280 267c0 141 99 270 277 270c34 0 62 -4 87 -10h302v-86h-206v-123h181v-81h-181v-142h212v-86h-309c-24 -6 -52 -9 -83 -9zM319 77c33 0 58 5 78 14v334c-19 10 -43 17 -76 17c-112 0 -167 -84 -167 -181c0 -99 54 -184 165 -184z" />
    <glyph glyph-name="racute.sc" horiz-adv-x="509" 
d="M199 565l87 131h144l-138 -131h-93zM74 0v518h176c126 0 199 -51 199 -148c0 -88 -63 -127 -133 -138v-1c13 -9 35 -31 65 -75l110 -156h-119l-100 148c-43 61 -55 67 -83 67h-8v-215h-107zM181 290h66c65 0 94 26 94 74c0 50 -30 73 -99 73h-61v-147z" />
    <glyph glyph-name="rcommaaccent.sc" horiz-adv-x="509" 
d="M213 -224c14 15 29 34 29 57c0 32 -36 37 -36 75c0 27 23 47 54 47c33 0 63 -24 63 -64c0 -48 -30 -89 -54 -115h-56zM74 0v518h176c126 0 199 -51 199 -148c0 -88 -63 -127 -133 -138v-1c13 -9 35 -31 65 -75l110 -156h-119l-100 148c-43 61 -55 67 -83 67h-8v-215h-107
zM181 290h66c65 0 94 26 94 74c0 50 -30 73 -99 73h-61v-147z" />
    <glyph glyph-name="rcaron.sc" horiz-adv-x="509" 
d="M210 564l-123 156h93l72 -74l70 74h94l-126 -156h-80zM74 0v518h176c126 0 199 -51 199 -148c0 -88 -63 -127 -133 -138v-1c13 -9 35 -31 65 -75l110 -156h-119l-100 148c-43 61 -55 67 -83 67h-8v-215h-107zM181 290h66c65 0 94 26 94 74c0 50 -30 73 -99 73h-61v-147z
" />
    <glyph glyph-name="sacute.sc" horiz-adv-x="429" 
d="M165 565l87 131h144l-138 -131h-93zM198 -9c-88 0 -142 31 -165 50l45 75c15 -10 52 -40 117 -40c56 0 92 22 92 61c0 48 -49 60 -123 94c-67 31 -118 70 -118 152c0 94 80 145 174 145c86 0 131 -27 155 -42l-43 -75c-19 13 -58 32 -107 32c-45 0 -77 -18 -77 -56
c0 -43 41 -56 100 -81c73 -32 142 -70 142 -162c0 -96 -73 -153 -192 -153z" />
    <glyph glyph-name="scircumflex.sc" horiz-adv-x="429" 
d="M53 566l125 156h80l124 -156h-94l-72 74l-70 -74h-93zM198 -9c-88 0 -142 31 -165 50l45 75c15 -10 52 -40 117 -40c56 0 92 22 92 61c0 48 -49 60 -123 94c-67 31 -118 70 -118 152c0 94 80 145 174 145c86 0 131 -27 155 -42l-43 -75c-19 13 -58 32 -107 32
c-45 0 -77 -18 -77 -56c0 -43 41 -56 100 -81c73 -32 142 -70 142 -162c0 -96 -73 -153 -192 -153z" />
    <glyph glyph-name="scedilla.sc" horiz-adv-x="429" 
d="M183 -225c-40 0 -63 8 -75 14l14 51c10 -5 28 -11 53 -11c29 0 48 13 48 37c0 35 -36 41 -71 39l32 86c-80 3 -129 32 -151 50l45 75c15 -10 52 -40 117 -40c56 0 92 22 92 61c0 48 -49 60 -123 94c-67 31 -118 70 -118 152c0 94 80 145 174 145c86 0 131 -27 155 -42
l-43 -75c-19 13 -58 32 -107 32c-45 0 -77 -18 -77 -56c0 -43 41 -56 100 -81c73 -32 142 -70 142 -162c0 -81 -52 -135 -140 -149l-20 -55c42 -7 71 -35 71 -76c0 -55 -51 -89 -118 -89z" />
    <glyph glyph-name="scaron.sc" horiz-adv-x="429" 
d="M176 564l-123 156h93l72 -74l70 74h94l-126 -156h-80zM198 -9c-88 0 -142 31 -165 50l45 75c15 -10 52 -40 117 -40c56 0 92 22 92 61c0 48 -49 60 -123 94c-67 31 -118 70 -118 152c0 94 80 145 174 145c86 0 131 -27 155 -42l-43 -75c-19 13 -58 32 -107 32
c-45 0 -77 -18 -77 -56c0 -43 41 -56 100 -81c73 -32 142 -70 142 -162c0 -96 -73 -153 -192 -153z" />
    <glyph glyph-name="tcommaaccent.sc" horiz-adv-x="454" 
d="M176 -224c14 15 29 34 29 57c0 32 -36 37 -36 75c0 27 23 47 54 47c33 0 63 -24 63 -64c0 -48 -30 -89 -54 -115h-56zM173 0v431h-156v87h420v-87h-156v-431h-108z" />
    <glyph glyph-name="tcaron.sc" horiz-adv-x="454" 
d="M186 565l-123 156h93l72 -74l70 74h94l-126 -156h-80zM173 0v431h-156v87h420v-87h-156v-431h-108z" />
    <glyph glyph-name="tbar.sc" horiz-adv-x="454" 
d="M39 227v79h134v125h-156v87h420v-87h-156v-125h133v-79h-133v-227h-108v227h-134z" />
    <glyph glyph-name="utilde.sc" horiz-adv-x="589" 
d="M350 569c-55 0 -73 37 -113 37c-24 0 -42 -22 -52 -32l-51 46c19 30 54 69 104 69c56 0 74 -37 113 -37c28 0 45 21 54 31l51 -47c-21 -30 -55 -67 -106 -67zM298 -9c-156 0 -229 82 -229 221v306h108v-297c0 -102 36 -143 124 -143c84 0 118 48 118 136v304h100v-296
c0 -145 -73 -231 -221 -231z" />
    <glyph glyph-name="umacron.sc" horiz-adv-x="589" 
d="M157 591v80h277v-80h-277zM298 -9c-156 0 -229 82 -229 221v306h108v-297c0 -102 36 -143 124 -143c84 0 118 48 118 136v304h100v-296c0 -145 -73 -231 -221 -231z" />
    <glyph glyph-name="ubreve.sc" horiz-adv-x="589" 
d="M295 557c-77 0 -148 44 -158 147h90c3 -45 27 -74 68 -74s64 29 68 74h89c-9 -103 -80 -147 -157 -147zM298 -9c-156 0 -229 82 -229 221v306h108v-297c0 -102 36 -143 124 -143c84 0 118 48 118 136v304h100v-296c0 -145 -73 -231 -221 -231z" />
    <glyph glyph-name="uring.sc" horiz-adv-x="589" 
d="M295 566c-54 0 -103 44 -103 101s49 101 103 101s103 -44 103 -101s-49 -101 -103 -101zM295 615c30 0 48 25 48 52c0 29 -18 53 -48 53s-48 -24 -48 -53c0 -27 18 -52 48 -52zM298 -9c-156 0 -229 82 -229 221v306h108v-297c0 -102 36 -143 124 -143
c84 0 118 48 118 136v304h100v-296c0 -145 -73 -231 -221 -231z" />
    <glyph glyph-name="uhungarumlaut.sc" horiz-adv-x="589" 
d="M142 565l92 131h132l-136 -131h-88zM327 565l92 131h132l-136 -131h-88zM298 -9c-156 0 -229 82 -229 221v306h108v-297c0 -102 36 -143 124 -143c84 0 118 48 118 136v304h100v-296c0 -145 -73 -231 -221 -231z" />
    <glyph glyph-name="uogonek.sc" horiz-adv-x="589" 
d="M399 -225c-69 0 -111 39 -111 96c0 53 40 105 70 129c-18 -6 -41 -9 -60 -9c-156 0 -229 82 -229 221v306h108v-297c0 -102 36 -143 124 -143c84 0 118 48 118 136v304h100v-296c0 -103 -36 -149 -98 -222c-26 -31 -53 -69 -53 -116c0 -31 17 -46 49 -46c16 0 29 3 41 8
l14 -54c-15 -8 -38 -17 -73 -17z" />
    <glyph glyph-name="wcircumflex.sc" horiz-adv-x="749" 
d="M210 566l125 156h80l124 -156h-94l-72 74l-70 -74h-93zM165 0l-147 518h112l76 -282c12 -44 20 -93 20 -94h2c0 1 11 52 24 98l78 278h103l77 -277c12 -45 22 -97 22 -98h2c0 1 9 53 21 95l76 280h100l-148 -518h-99l-81 298c-12 43 -24 98 -24 99h-2
c0 -1 -12 -56 -25 -99l-88 -298h-99z" />
    <glyph glyph-name="ycircumflex.sc" horiz-adv-x="491" 
d="M83 566l125 156h80l124 -156h-94l-72 74l-70 -74h-93zM194 0v196l-180 322h117l121 -229h2l118 229h105l-175 -322v-196h-108z" />
    <glyph glyph-name="zacute.sc" horiz-adv-x="476" 
d="M188 565l87 131h144l-138 -131h-93zM41 0v70l258 362h-247v86h377v-68l-260 -365h268v-85h-396z" />
    <glyph glyph-name="zdotaccent.sc" horiz-adv-x="476" 
d="M240 586c-37 0 -65 29 -65 64s28 64 65 64s65 -29 65 -64s-28 -64 -65 -64zM41 0v70l258 362h-247v86h377v-68l-260 -365h268v-85h-396z" />
    <glyph glyph-name="zcaron.sc" horiz-adv-x="476" 
d="M199 564l-123 156h93l72 -74l70 74h94l-126 -156h-80zM41 0v70l258 362h-247v86h377v-68l-260 -365h268v-85h-396z" />
    <glyph glyph-name="scommaaccent.sc" horiz-adv-x="429" 
d="M152 -224c14 15 29 34 29 57c0 32 -36 37 -36 75c0 27 23 47 54 47c33 0 63 -24 63 -64c0 -48 -30 -89 -54 -115h-56zM198 -9c-88 0 -142 31 -165 50l45 75c15 -10 52 -40 117 -40c56 0 92 22 92 61c0 48 -49 60 -123 94c-67 31 -118 70 -118 152c0 94 80 145 174 145
c86 0 131 -27 155 -42l-43 -75c-19 13 -58 32 -107 32c-45 0 -77 -18 -77 -56c0 -43 41 -56 100 -81c73 -32 142 -70 142 -162c0 -96 -73 -153 -192 -153z" />
    <glyph glyph-name="uni021B.sc" horiz-adv-x="454" 
d="M176 -224c14 15 29 34 29 57c0 32 -36 37 -36 75c0 27 23 47 54 47c33 0 63 -24 63 -64c0 -48 -30 -89 -54 -115h-56zM173 0v431h-156v87h420v-87h-156v-431h-108z" />
    <glyph glyph-name="Alphatonos.sc" horiz-adv-x="656" 
d="M215 235h216l-69 190c-20 56 -30 92 -38 115h-2c-7 -24 -18 -63 -37 -115zM18 0l254 666h109l259 -666h-123l-52 143h-283l-51 -143h-113z" />
    <glyph glyph-name="Epsilontonos.sc" horiz-adv-x="518" 
d="M89 0v666h365v-94h-253v-178h223v-90h-223v-210h260v-94h-372z" />
    <glyph glyph-name="Etatonos.sc" horiz-adv-x="736" 
d="M89 0v666h113v-271h333v271h113v-666h-113v302h-333v-302h-113z" />
    <glyph glyph-name="Iotatonos.sc" horiz-adv-x="305" 
d="M95 0v666h113v-666h-113z" />
    <glyph glyph-name="Omicrontonos.sc" horiz-adv-x="767" 
d="M386 -12c-215 0 -338 163 -338 344c0 182 120 346 335 346c216 0 337 -162 337 -343c0 -182 -119 -347 -334 -347zM383 80c146 0 218 117 218 252c0 136 -70 254 -215 254s-219 -115 -219 -251s72 -255 216 -255z" />
    <glyph glyph-name="Upsilontonos.sc" horiz-adv-x="579" 
d="M236 0v252l-222 414h126l157 -309h1l157 309h110l-216 -414v-252h-113z" />
    <glyph glyph-name="Omegatonos.sc" horiz-adv-x="755" 
d="M51 0v90h132c-73 50 -126 153 -126 269c0 193 150 319 321 319c170 0 321 -126 321 -319c0 -116 -54 -219 -127 -269h132v-90h-258v86c93 63 139 148 139 270s-87 230 -207 230c-121 0 -208 -108 -208 -230s47 -207 139 -270v-86h-258z" />
    <glyph glyph-name="iotadieresistonos.sc" horiz-adv-x="265" 
d="M79 0v518h107v-518h-107zM30 564c-37 0 -65 29 -65 64c0 34 28 63 65 63s65 -29 65 -63c0 -35 -28 -64 -65 -64zM230 564c-37 0 -65 29 -65 64c0 34 28 63 65 63s65 -29 65 -63c0 -35 -28 -64 -65 -64z" />
    <glyph glyph-name="alphatonos.sc" horiz-adv-x="558" 
d="M190 184h169l-53 138c-17 46 -31 93 -31 93h-2s-15 -49 -31 -93zM17 0l208 518h104l212 -518h-113l-39 102h-228l-38 -102h-106z" />
    <glyph glyph-name="epsilontonos.sc" horiz-adv-x="459" 
d="M74 0v518h327v-85h-221v-124h198v-81h-198v-143h227v-85h-333z" />
    <glyph glyph-name="etatonos.sc" horiz-adv-x="615" 
d="M74 0v518h107v-205h254v205h106v-518h-106v225h-254v-225h-107z" />
    <glyph glyph-name="iotatonos.sc" horiz-adv-x="265" 
d="M79 0v518h107v-518h-107z" />
    <glyph glyph-name="upsilondieresistonos.sc" horiz-adv-x="491" 
d="M194 0v196l-180 322h117l121 -229h2l118 229h105l-175 -322v-196h-108zM154 564c-37 0 -65 29 -65 64c0 34 28 63 65 63s65 -29 65 -63c0 -35 -28 -64 -65 -64zM354 564c-37 0 -65 29 -65 64c0 34 28 63 65 63s65 -29 65 -63c0 -35 -28 -64 -65 -64z" />
    <glyph glyph-name="alpha.sc" horiz-adv-x="558" 
d="M190 184h169l-53 138c-17 46 -31 93 -31 93h-2s-15 -49 -31 -93zM17 0l208 518h104l212 -518h-113l-39 102h-228l-38 -102h-106z" />
    <glyph glyph-name="beta.sc" horiz-adv-x="501" 
d="M74 0v518h175c102 0 187 -32 187 -131c0 -66 -39 -102 -96 -116v-1c65 -9 119 -52 119 -126c0 -105 -88 -144 -212 -144h-173zM180 81h64c74 0 108 17 108 71c0 51 -31 78 -103 78h-69v-149zM180 303h57c67 0 95 23 95 72c0 45 -32 64 -93 64h-59v-136z" />
    <glyph glyph-name="gamma.sc" horiz-adv-x="412" 
d="M74 0v518h321v-87h-214v-431h-107z" />
    <glyph glyph-name="delta.sc" horiz-adv-x="541" 
d="M142 85h248l-93 237c-16 41 -31 93 -31 93h-2s-15 -51 -31 -93zM32 0v63l185 455h103l189 -455v-63h-477z" />
    <glyph glyph-name="epsilon.sc" horiz-adv-x="459" 
d="M74 0v518h327v-85h-221v-124h198v-81h-198v-143h227v-85h-333z" />
    <glyph glyph-name="zeta.sc" horiz-adv-x="476" 
d="M41 0v70l258 362h-247v86h377v-68l-260 -365h268v-85h-396z" />
    <glyph glyph-name="eta.sc" horiz-adv-x="615" 
d="M74 0v518h107v-205h254v205h106v-518h-106v225h-254v-225h-107z" />
    <glyph glyph-name="theta.sc" horiz-adv-x="639" 
d="M321 -9c-178 0 -279 125 -279 267c0 141 99 270 278 270c178 0 278 -125 278 -267s-97 -270 -277 -270zM320 77c112 0 165 84 165 181c0 99 -52 184 -164 184c-111 0 -166 -84 -166 -181c0 -99 54 -184 165 -184zM224 221v80h192v-80h-192z" />
    <glyph glyph-name="iota.sc" horiz-adv-x="265" 
d="M79 0v518h107v-518h-107z" />
    <glyph glyph-name="kappa.sc" horiz-adv-x="518" 
d="M74 0v518h107v-240l196 240h119l-199 -242l206 -276h-119l-203 267v-267h-107z" />
    <glyph glyph-name="lambda.sc" horiz-adv-x="558" 
d="M18 0l207 518h104l212 -518h-113l-122 322c-16 41 -31 93 -31 93h-2s-15 -51 -31 -93l-119 -322h-105z" />
    <glyph glyph-name="nu.sc" horiz-adv-x="608" 
d="M73 0v518h108l203 -280c33 -45 56 -88 56 -89h2c0 1 -4 43 -4 83v286h97v-518h-97l-219 300c-29 41 -50 79 -50 80h-2c0 -1 3 -36 3 -71v-309h-97z" />
    <glyph glyph-name="xi.sc" horiz-adv-x="472" 
d="M47 0v91h378v-91h-378zM76 225v88h320v-88h-320zM53 427v91h367v-91h-367z" />
    <glyph glyph-name="omicron.sc" horiz-adv-x="639" 
d="M321 -9c-178 0 -279 125 -279 267c0 141 99 270 278 270c178 0 278 -125 278 -267s-97 -270 -277 -270zM320 77c112 0 165 84 165 181c0 99 -52 184 -164 184c-111 0 -166 -84 -166 -181c0 -99 54 -184 165 -184z" />
    <glyph glyph-name="pi.sc" horiz-adv-x="605" 
d="M74 0v518h457v-518h-106v430h-244v-430h-107z" />
    <glyph glyph-name="rho.sc" horiz-adv-x="488" 
d="M73 0v518h175c118 0 205 -51 205 -162c0 -114 -83 -170 -217 -170h-55v-186h-108zM181 267h55c76 0 111 26 111 87c0 56 -33 83 -108 83h-58v-170z" />
    <glyph glyph-name="sigma1.sc" horiz-adv-x="453" 
d="M39 0v73l142 200l-126 171v74h340v-86h-223l118 -155l-135 -192h256v-85h-372z" />
    <glyph glyph-name="sigma.sc" horiz-adv-x="453" 
d="M39 0v73l142 200l-126 171v74h340v-86h-223l118 -155l-135 -192h256v-85h-372z" />
    <glyph glyph-name="tau.sc" horiz-adv-x="454" 
d="M173 0v431h-156v87h420v-87h-156v-431h-108z" />
    <glyph glyph-name="upsilon.sc" horiz-adv-x="491" 
d="M194 0v196l-180 322h117l121 -229h2l118 229h105l-175 -322v-196h-108z" />
    <glyph glyph-name="phi.sc" horiz-adv-x="677" 
d="M285 0v40c-152 4 -247 97 -247 218s94 217 247 222v38h107v-38c153 -5 248 -98 248 -219c0 -120 -95 -217 -248 -221v-40h-107zM387 118c89 3 146 60 146 140c0 83 -57 140 -146 142v-282zM291 118v282c-90 -3 -147 -59 -147 -139c0 -83 58 -141 147 -143z" />
    <glyph glyph-name="chi.sc" horiz-adv-x="507" 
d="M21 0l174 269l-163 249h118l108 -172l103 172h107l-159 -252l175 -266h-117l-122 190l-116 -190h-108z" />
    <glyph glyph-name="psi.sc" horiz-adv-x="661" 
d="M281 0v121c-137 17 -230 108 -230 247v150h107v-140c0 -105 54 -160 130 -171v311h94v-313c75 12 129 72 129 165v148h100v-140c0 -145 -92 -239 -223 -256v-122h-107z" />
    <glyph glyph-name="omega.sc" horiz-adv-x="665" 
d="M47 0v85h113c-52 35 -101 111 -101 198c0 147 126 245 274 245s274 -98 274 -245c0 -87 -50 -163 -102 -198h113v-85h-233v81c69 46 107 109 107 196c0 95 -73 165 -159 165c-87 0 -160 -70 -160 -165c0 -87 38 -150 107 -196v-81h-233z" />
    <glyph glyph-name="iotadieresis.sc" horiz-adv-x="265" 
d="M33 564c-37 0 -65 29 -65 64c0 34 28 63 65 63s65 -29 65 -63c0 -35 -28 -64 -65 -64zM233 564c-37 0 -65 29 -65 64c0 34 28 63 65 63s65 -29 65 -63c0 -35 -28 -64 -65 -64zM79 0v518h107v-518h-107z" />
    <glyph glyph-name="upsilondieresis.sc" horiz-adv-x="491" 
d="M147 564c-37 0 -65 29 -65 64c0 34 28 63 65 63s65 -29 65 -63c0 -35 -28 -64 -65 -64zM347 564c-37 0 -65 29 -65 64c0 34 28 63 65 63s65 -29 65 -63c0 -35 -28 -64 -65 -64zM194 0v196l-180 322h117l121 -229h2l118 229h105l-175 -322v-196h-108z" />
    <glyph glyph-name="omicrontonos.sc" horiz-adv-x="639" 
d="M321 -9c-178 0 -279 125 -279 267c0 141 99 270 278 270c178 0 278 -125 278 -267s-97 -270 -277 -270zM320 77c112 0 165 84 165 181c0 99 -52 184 -164 184c-111 0 -166 -84 -166 -181c0 -99 54 -184 165 -184z" />
    <glyph glyph-name="upsilontonos.sc" horiz-adv-x="491" 
d="M194 0v196l-180 322h117l121 -229h2l118 229h105l-175 -322v-196h-108z" />
    <glyph glyph-name="omegatonos.sc" horiz-adv-x="665" 
d="M47 0v85h113c-52 35 -101 111 -101 198c0 147 126 245 274 245s274 -98 274 -245c0 -87 -50 -163 -102 -198h113v-85h-233v81c69 46 107 109 107 196c0 95 -73 165 -159 165c-87 0 -160 -70 -160 -165c0 -87 38 -150 107 -196v-81h-233z" />
    </font>
</defs>
</svg>
