<svg width="197" height="63" viewBox="0 0 197 63" fill="none" xmlns="http://www.w3.org/2000/svg">
<path fill-rule="evenodd" clip-rule="evenodd" d="M134.912 61.3661L141.913 62.9126L141.535 59.8854L141.913 56.8583L134.863 58.339C135.176 58.7832 135.341 59.3096 135.341 59.8854C135.357 60.4119 135.192 60.9219 134.912 61.3661ZM69.3341 48.3526H80.3874L70.8167 36.3261C75.0831 34.9935 77.7023 31.3247 77.7023 24.8426C77.5046 16.633 71.9039 13.3097 64.6723 13.3097H50.6539V48.3526H59.6316V37.2145H61.213L69.3341 48.3526ZM59.6151 29.5808V21.5686H64.8205C70.4213 21.5686 70.4213 29.5808 64.8205 29.5808H59.6151ZM192.534 0H196.109V3.5701V58.0757V61.6458H192.534H150.743V58.0757H192.551V3.5701C129.559 3.5701 66.5667 3.5701 3.59107 3.5701V58.0757H114.519V61.6458H3.5746H0V58.0757V3.5701V0H3.5746C66.5667 0 129.559 0 192.534 0ZM30.3265 48.7803C36.8332 48.7803 42.5328 45.3254 45.6791 40.1594L37.2615 36.9348C35.5648 38.8597 33.0774 40.0607 30.31 40.0607C25.1869 40.0607 21.0358 35.9148 21.0358 30.7982C21.0358 25.6816 25.1869 21.5357 30.31 21.5357C33.0445 21.5357 35.5154 22.7203 37.2121 24.6123L45.6627 21.4206C42.4999 16.2711 36.8168 12.8326 30.3265 12.8326C20.3934 12.8326 12.3381 20.8776 12.3381 30.7982C12.3381 40.7517 20.3934 48.7803 30.3265 48.7803ZM94.0598 21.618H109.528V13.3097H85.0986V48.3526H109.528V39.9949H94.0598V34.7303H108.292V27.0636H94.0598V21.618ZM132.623 49.0106C142.638 49.0106 150.743 40.8998 150.743 30.9134C150.743 20.9105 142.622 12.8161 132.623 12.8161C122.607 12.8161 114.503 20.927 114.503 30.9134C114.503 40.8998 122.607 49.0106 132.623 49.0106ZM123.316 30.9134C123.316 36.0464 127.483 40.1923 132.606 40.1923C137.746 40.1923 141.913 36.03 141.913 30.9134C141.913 25.7804 137.746 21.618 132.606 21.618C127.483 21.618 123.316 25.7804 123.316 30.9134ZM174.941 33.3977L164.251 13.2933H155.833V19.6766V48.3361H164.712V29.5479L174.826 48.3526H174.925H183.804V19.6931V13.3097H174.974L174.941 33.3977ZM132.623 57.9606C131.568 57.9606 130.712 58.8161 130.712 59.869C130.712 60.9219 131.568 61.7774 132.623 61.7774C133.677 61.7774 134.534 60.9219 134.534 59.869C134.534 58.8161 133.677 57.9606 132.623 57.9606ZM130.366 58.306L123.316 56.8254L123.694 59.8525L123.316 62.8797L130.316 61.3332C130.036 60.9055 129.872 60.3955 129.872 59.8361C129.888 59.2932 130.053 58.7503 130.366 58.306Z" fill="white"/>
</svg>
