<?xml version="1.0" encoding="utf-8"?>
<!-- Generator: Avocode 2.4.3-3630f5a - http://avocode.com -->
<svg height="15" width="15" xmlns:xlink="http://www.w3.org/1999/xlink" xmlns="http://www.w3.org/2000/svg"
     viewBox="0 0 15 15">
  <path fill="#808080"
        d="M6.9,11.8h1.2v-1.2H6.9V11.8zM9.6,3.7C9.1,3.2,8.4,3,7.6,3C6.8,3,6.1,3.2,5.6,3.7c-0.5,0.4-0.8,1-0.9,1.8l1.1,0.1C6,5,6.1,4.6,6.4,4.3C6.8,4,7.1,3.9,7.6,3.9C8,3.9,8.4,4,8.8,4.3C9.1,4.7,9.2,5,9.2,5.4c0,0.2-0.1,0.4-0.2,0.6C9,6.2,8.7,6.5,8.4,6.8C8,7.1,7.7,7.4,7.6,7.6C7.4,7.8,7.3,8,7.2,8.2C7.1,8.5,7,8.9,7,9.3c0,0.1,0,0.2,0,0.3h1c0-0.4,0-0.7,0.1-0.9c0.1-0.2,0.1-0.4,0.2-0.5C8.5,8.1,8.7,7.9,9,7.5c0.5-0.5,0.9-0.8,1-1.2c0.2-0.3,0.3-0.7,0.3-1C10.3,4.7,10.1,4.2,9.6,3.7z"/>
</svg>
