<?xml version="1.0" encoding="utf-8"?>
<!-- Generator: Adobe Illustrator 18.0.0, SVG Export Plug-In . SVG Version: 6.00 Build 0)  -->
<!DOCTYPE svg PUBLIC "-//W3C//DTD SVG 1.1//EN" "http://www.w3.org/Graphics/SVG/1.1/DTD/svg11.dtd">
<svg version="1.1" id="Layer_1" xmlns="http://www.w3.org/2000/svg" xmlns:xlink="http://www.w3.org/1999/xlink" x="0px" y="0px"
	 viewBox="0 0 2000 2000" enable-background="new 0 0 2000 2000" xml:space="preserve">
<g>
	<path d="M1448.1,0H551.9C247.7,0,0,247.7,0,551.9v896.3C0,1752.7,247.7,2000,551.9,2000h896.3c304.6,0,551.9-247.7,551.9-551.9
		V551.9C2000.4,247.7,1752.7,0,1448.1,0z M1822.8,1448.1c0,206.6-168.1,374.6-374.6,374.6H551.9c-206.6,0-374.6-168.1-374.6-374.6
		V551.9c0-206.6,168.1-374.6,374.6-374.6h896.3c206.6,0,374.6,168.1,374.6,374.6V1448.1L1822.8,1448.1z"/>
	<path d="M1000,484.9c-284,0-515.5,231.1-515.5,515.5c0,284,231.1,515.5,515.5,515.5s515.5-231.1,515.5-515.5
		S1284.5,484.9,1000,484.9z M1000,1337.9c-186.4,0-337.9-151.4-337.9-337.9S813.6,662.1,1000,662.1s337.9,151.4,337.9,337.9
		C1338.3,1186.4,1186.4,1337.9,1000,1337.9z"/>
	<path d="M1537,334.4c-34.1,0-67.8,14-91.9,38.1c-24.1,24.1-38.1,57.8-38.1,91.9s14,67.8,38.1,91.9c24.1,24.1,57.8,38.1,91.9,38.1
		s67.8-14,91.9-38.1c24.1-24.1,38.1-57.8,38.1-91.9s-14-67.8-38.1-91.9C1605.3,347.9,1571.6,334.4,1537,334.4z"/>
</g>
</svg>
