<svg xmlns="http://www.w3.org/2000/svg" viewBox="0 0 612.1 612.1"><path d="M454.5 228.1c-4.5 2.8-10.4 1.4-13.1-3.1-2.8-4.5-1.4-10.4 3.1-13.1l153-95.7c4.5-2.8 10.4-1.4 13.1 3.1 1 1.6 1.4 3.3 1.4 5v363.5c0 3.6-2 6.7-4.9 8.4L435.6 610.5c-2.9 1.9-6.4 2-9.3.7L182.6 498.7 14.9 610.5c-4.4 2.9-10.3 1.7-13.2-2.6-1.3-1.9-1.8-4.1-1.6-6.2l.1-360.1c0-3.5 1.9-6.5 4.7-8.2l133.7-79c4.5-2.7 10.4-1.2 13.1 3.3 2.7 4.5 1.2 10.4-3.4 13.1L19.2 247.1l-.1 337.6 157.2-104.9c2.7-1.8 6.2-2.2 9.3-.7l243.8 112.5 163.4-108.9V141.5l-138.3 86.6z"/><path d="M306 0c37 0 70.4 15 94.7 39.2 24.2 24.2 39.2 57.7 39.2 94.7 0 37.5-20.9 82-47.4 123.9-26.1 41.2-57.3 79.8-79.1 106.3-3.3 4.1-9.4 4.7-13.4 1.3-.7-.6-1.3-1.3-1.8-2-21.9-26.7-52.9-65-78.6-105.7-26.5-41.9-47.4-86.4-47.4-123.8 0-37 15-70.5 39.2-94.7C235.5 15 269 0 306 0zm81.2 52.7C366.4 32 337.7 19.1 306 19.1c-31.7 0-60.4 12.9-81.2 33.6s-33.6 49.5-33.6 81.1c0 33.3 19.6 74.4 44.4 113.7 22.6 35.7 49.5 69.8 70.4 95.4 20.9-25.6 47.9-59.8 70.4-95.4 24.8-39.2 44.4-80.4 44.4-113.7 0-31.6-12.8-60.3-33.6-81.1z"/><path d="M306 76.5c15.8 0 30.2 6.4 40.6 16.8 10.4 10.4 16.8 24.7 16.8 40.5s-6.4 30.2-16.8 40.5c-10.4 10.4-24.7 16.8-40.5 16.8s-30.2-6.4-40.6-16.8c-10.4-10.4-16.8-24.7-16.8-40.6 0-15.8 6.4-30.2 16.8-40.5C275.8 83 290.2 76.5 306 76.5zm27.1 30.3A38.24 38.24 0 0 0 306 95.6c-10.6 0-20.1 4.3-27.1 11.2a38.24 38.24 0 0 0-11.2 27.1c0 10.6 4.3 20.1 11.2 27.1 6.9 6.9 16.5 11.2 27.1 11.2 10.6 0 20.1-4.3 27.1-11.2 6.9-6.9 11.2-16.5 11.2-27.1 0-10.6-4.3-20.1-11.2-27.1zm106.8 495.7c0 5.3-4.3 9.5-9.5 9.5-5.3 0-9.5-4.3-9.5-9.5V258.2c0-5.3 4.3-9.5 9.5-9.5 5.3 0 9.5 4.3 9.5 9.5v344.3zM191.2 483.6c0 5.3-4.3 9.5-9.5 9.5-5.3 0-9.5-4.3-9.5-9.5l.1-225.4c0-5.3 4.3-9.5 9.5-9.5 5.3 0 9.5 4.3 9.5 9.5l-.1 225.4z"/></svg>