<?xml version="1.0" encoding="utf-8"?>
<!-- Generator: Adobe Illustrator 18.0.0, SVG Export Plug-In . SVG Version: 6.00 Build 0)  -->
<!DOCTYPE svg PUBLIC "-//W3C//DTD SVG 1.1//EN" "http://www.w3.org/Graphics/SVG/1.1/DTD/svg11.dtd">
<svg version="1.1" id="Capa_1" xmlns="http://www.w3.org/2000/svg" xmlns:xlink="http://www.w3.org/1999/xlink" x="0px" y="0px"
	 viewBox="0 0 612.1 612.1" enable-background="new 0 0 612.1 612.1" xml:space="preserve">
<g>
	<g>
		<g>
			<path d="M454.5,228.1c-4.5,2.8-10.4,1.4-13.1-3.1c-2.8-4.5-1.4-10.4,3.1-13.1l153-95.7c4.5-2.8,10.4-1.4,13.1,3.1
				c1,1.6,1.4,3.3,1.4,5h0v363.5c0,3.6-2,6.7-4.9,8.4L435.6,610.5c-2.9,1.9-6.4,2-9.3,0.7v0L182.6,498.7L14.9,610.5
				c-4.4,2.9-10.3,1.7-13.2-2.6c-1.3-1.9-1.8-4.1-1.6-6.2l0.1-360.1c0-3.5,1.9-6.5,4.7-8.2l0,0l133.7-79c4.5-2.7,10.4-1.2,13.1,3.3
				c2.7,4.5,1.2,10.4-3.4,13.1L19.2,247.1l-0.1,337.6l157.2-104.9l0,0c2.7-1.8,6.2-2.2,9.3-0.7l243.8,112.5l163.4-108.9V141.5
				L454.5,228.1z"/>
			<path d="M306,0c37,0,70.4,15,94.7,39.2l0,0l0,0c24.2,24.2,39.2,57.7,39.2,94.7c0,37.5-20.9,82-47.4,123.9
				c-26.1,41.2-57.3,79.8-79.1,106.3c-3.3,4.1-9.4,4.7-13.4,1.3c-0.7-0.6-1.3-1.3-1.8-2c-21.9-26.7-52.9-65-78.6-105.7
				c-26.5-41.9-47.4-86.4-47.4-123.8c0-37,15-70.5,39.2-94.7C235.5,15,269,0,306,0L306,0z M387.2,52.7C366.4,32,337.7,19.1,306,19.1
				c-31.7,0-60.4,12.9-81.2,33.6s-33.6,49.5-33.6,81.1c0,33.3,19.6,74.4,44.4,113.7c22.6,35.7,49.5,69.8,70.4,95.4
				c20.9-25.6,47.9-59.8,70.4-95.4c24.8-39.2,44.4-80.4,44.4-113.7C420.8,102.2,408,73.5,387.2,52.7L387.2,52.7L387.2,52.7z"/>
			<path d="M306,76.5c15.8,0,30.2,6.4,40.6,16.8v0c10.4,10.4,16.8,24.7,16.8,40.5c0,15.8-6.4,30.2-16.8,40.5l0,0
				c-10.4,10.4-24.7,16.8-40.5,16.8c-15.8,0-30.2-6.4-40.6-16.8c-10.4-10.4-16.8-24.7-16.8-40.6c0-15.8,6.4-30.2,16.8-40.5v0
				C275.8,83,290.2,76.5,306,76.5L306,76.5z M333.1,106.8L333.1,106.8c-6.9-6.9-16.5-11.2-27.1-11.2c-10.6,0-20.1,4.3-27.1,11.2l0,0
				c-6.9,6.9-11.2,16.5-11.2,27.1c0,10.6,4.3,20.1,11.2,27.1c6.9,6.9,16.5,11.2,27.1,11.2c10.6,0,20.1-4.3,27.1-11.2l0,0
				c6.9-6.9,11.2-16.5,11.2-27.1C344.3,123.3,340,113.8,333.1,106.8z"/>
			<path d="M439.9,602.5c0,5.3-4.3,9.5-9.5,9.5c-5.3,0-9.5-4.3-9.5-9.5l0-344.3c0-5.3,4.3-9.5,9.5-9.5c5.3,0,9.5,4.3,9.5,9.5
				L439.9,602.5z"/>
			<path d="M191.2,483.6c0,5.3-4.3,9.5-9.5,9.5c-5.3,0-9.5-4.3-9.5-9.5l0.1-225.4c0-5.3,4.3-9.5,9.5-9.5c5.3,0,9.5,4.3,9.5,9.5
				L191.2,483.6z"/>
		</g>
	</g>
</g>
</svg>
