<svg xmlns="http://www.w3.org/2000/svg" viewBox="0 66.9 612 478.2"><path d="M184.4 481c3.7-3.7 9.8-3.7 13.5 0 3.7 3.7 3.7 9.8 0 13.5l-47.8 47.9c-3.7 3.7-9.8 3.7-13.5 0-1.9-1.9-2.8-4.3-2.8-6.8v-153c0-3.6 2-6.8 4.9-8.4L482.4 145c4.4-2.9 10.3-1.8 13.2 2.6 2.9 4.4 1.8 10.3-2.6 13.2L153 387.6v124.9l31.4-31.5z"/><path d="M174.9 427.5c-3.7-3.7-3.7-9.8 0-13.5s9.8-3.7 13.5 0l106.7 106.7L592.9 92.6v-3.5L27.7 253.3l122.4 122.5c3.7 3.7 3.7 9.8 0 13.5-3.7 3.7-9.8 3.7-13.5 0L2.8 255.4c-1.1-1.1-2-2.5-2.4-4.1-1.5-5 1.5-10.3 6.5-11.8L599 67.5c1.1-.4 2.2-.6 3.5-.6 5.3 0 9.6 4.3 9.6 9.6v19.1c0 1.9-.6 3.8-1.7 5.5L304.3 541c-.3.5-.7.9-1.1 1.3-3.7 3.7-9.8 3.7-13.5 0L174.9 427.5z"/></svg>