<svg xmlns="http://www.w3.org/2000/svg" viewBox="0 0 612.4 612.4"><path d="M439.1 239.2c2.1 4.8-.2 10.5-5 12.5-4.8 2.1-10.5-.2-12.5-5-2.6-6.2-5.9-12.1-9.6-17.7-3.8-5.6-8.2-10.9-12.9-15.6-4.8-4.8-10-9.1-15.6-12.9-5.6-3.8-11.5-7.1-17.6-9.6-4.8-2-7.1-7.6-5.1-12.5 2-4.8 7.6-7.1 12.5-5.1 7.5 3.2 14.5 7 21 11.4 6.7 4.5 12.9 9.6 18.5 15.2s10.8 11.8 15.2 18.4c4.1 6.5 8 13.5 11.1 20.9zm60.8 1.3c1.4 5.1-1.7 10.3-6.8 11.7s-10.3-1.7-11.7-6.8c-3.7-13.7-9.2-26.7-16.2-38.9-7-12.1-15.7-23.4-25.8-33.6-10.1-10.1-21.4-18.8-33.5-25.9-12.1-7-25.2-12.5-38.9-16.2-5.1-1.4-8.1-6.6-6.8-11.7 1.4-5.1 6.6-8.1 11.7-6.8 15.3 4.1 29.9 10.3 43.5 18.1 13.7 8 26.4 17.7 37.5 28.8 11.2 11.2 20.9 23.8 28.8 37.5 7.9 13.9 14.1 28.5 18.2 43.8z"/><path d="M558.7 241.1c1 5.2-2.4 10.2-7.6 11.2-5.2 1-10.2-2.4-11.2-7.6-4.2-21.2-11.5-41.5-21.7-60.4l-.3-.5c-10.1-18.7-22.9-36-38.2-51.3-15.4-15.4-32.9-28.4-51.8-38.5-18.8-10.1-39.2-17.4-60.4-21.7-5.2-1-8.6-6-7.6-11.2 1-5.2 6-8.6 11.2-7.6 23 4.6 45.1 12.6 65.7 23.6 20.6 11 39.6 25.1 56.3 41.8 16.5 16.5 30.5 35.3 41.5 55.7l.3.5c11.2 20.8 19.2 43 23.8 66zm49.6 259.4c4.2 3.1 5.2 9.1 2.1 13.3-3.1 4.2-9.1 5.2-13.3 2.1L447.8 406.6l-9.7 9.7-15.4 15.5c-36.8 36.8-91.9 28.1-142.7-2.8-19-11.6-37.5-26.3-54-42.8-16.5-16.5-31.2-34.9-42.8-54-30.9-50.8-39.7-105.9-3.2-142.4l25.4-25.4L102.8 24.1l-46.4 46-.4.5C19.6 107 10 155.3 28.7 213.9c19.4 60.9 68.7 132.7 149.2 213.8l3.2 3.3c5.5 5.5 10 10 13.6 13.4 78.2 75.8 147.7 122.3 206.7 140.3 56.8 17.4 103.7 8 138.9-27.2l.5-.5 1.1-1.1 12.3-12.7c3.7-3.8 9.7-3.8 13.5-.2 3.8 3.7 3.8 9.7.2 13.5l-12.3 12.7-1.2 1.2-.5.6c-40.5 40.5-93.9 51.6-157.9 31.9C334 584 261.9 536 181.4 458c-5.5-5.4-10.1-9.9-13.8-13.5l-3.3-3.3C81.7 357.8 30.8 283.4 10.5 219.7c-21-66-9.8-120.8 32-162.6l.4-.4L97.2 2.8c.3-.3.7-.6 1.1-.9 4.2-3.1 10.2-2.2 13.3 2.1l113.7 155.2c3.2 3.7 3.1 9.4-.5 13l-31.2 31.2c-29.1 29.1-20.6 75.4 6 118.9 10.7 17.6 24.5 34.8 40 50.4 15.5 15.5 32.8 29.3 50.4 40 43.5 26.5 89.9 34.9 119.2 5.6l15.5-15.4 15.4-15.4c3.3-3.3 8.5-3.8 12.4-1l155.8 114z"/><path d="M566.7 542.1c4.2 3.1 5.2 9.1 2.1 13.3-3.1 4.2-9.1 5.2-13.3 2.1l-39-28.5-39-28.5-39-28.5c-4.2-3.1-5.2-9.1-2.1-13.3 3.1-4.2 9.1-5.2 13.3-2.1l39 28.5 39 28.5 39 28.5zM54.6 56.7c-3.1-4.2-2.2-10.2 2.1-13.3 4.2-3.1 10.2-2.2 13.3 2.1l28.5 39 28.5 38.9 28.5 39c3.1 4.2 2.2 10.2-2.1 13.3s-10.2 2.2-13.3-2.1l-28.5-39-28.4-38.9-28.6-39z"/></svg>