<?xml version="1.0" encoding="utf-8"?>
<!-- Generator: Adobe Illustrator 18.0.0, SVG Export Plug-In . SVG Version: 6.00 Build 0)  -->
<!DOCTYPE svg PUBLIC "-//W3C//DTD SVG 1.1//EN" "http://www.w3.org/Graphics/SVG/1.1/DTD/svg11.dtd">
<svg version="1.1" id="Capa_1" xmlns="http://www.w3.org/2000/svg" xmlns:xlink="http://www.w3.org/1999/xlink" x="0px" y="0px"
	 viewBox="0 0 612.4 612.4" enable-background="new 0 0 612.4 612.4" xml:space="preserve">
<g>
	<g>
		<g>
			<path d="M439.1,239.2c2.1,4.8-0.2,10.5-5,12.5c-4.8,2.1-10.5-0.2-12.5-5c-2.6-6.2-5.9-12.1-9.6-17.7c-3.8-5.6-8.2-10.9-12.9-15.6
				l0,0c-4.8-4.8-10-9.1-15.6-12.9c-5.6-3.8-11.5-7.1-17.6-9.6c-4.8-2-7.1-7.6-5.1-12.5c2-4.8,7.6-7.1,12.5-5.1
				c7.5,3.2,14.5,7,21,11.4c6.7,4.5,12.9,9.6,18.5,15.2l0,0l0,0c5.6,5.6,10.8,11.8,15.2,18.4C432.1,224.8,436,231.8,439.1,239.2z"/>
			<path d="M499.9,240.5c1.4,5.1-1.7,10.3-6.8,11.7s-10.3-1.7-11.7-6.8c-3.7-13.7-9.2-26.7-16.2-38.9c-7-12.1-15.7-23.4-25.8-33.6
				c-10.1-10.1-21.4-18.8-33.5-25.9c-12.1-7-25.2-12.5-38.9-16.2c-5.1-1.4-8.1-6.6-6.8-11.7c1.4-5.1,6.6-8.1,11.7-6.8
				c15.3,4.1,29.9,10.3,43.5,18.1c13.7,8,26.4,17.7,37.5,28.8c11.2,11.2,20.9,23.8,28.8,37.5C489.6,210.6,495.8,225.2,499.9,240.5z"
				/>
			<path d="M558.7,241.1c1,5.2-2.4,10.2-7.6,11.2c-5.2,1-10.2-2.4-11.2-7.6c-4.2-21.2-11.5-41.5-21.7-60.4l-0.3-0.5
				c-10.1-18.7-22.9-36-38.2-51.3l0,0c-15.4-15.4-32.9-28.4-51.8-38.5c-18.8-10.1-39.2-17.4-60.4-21.7c-5.2-1-8.6-6-7.6-11.2
				c1-5.2,6-8.6,11.2-7.6c23,4.6,45.1,12.6,65.7,23.6c20.6,11,39.6,25.1,56.3,41.8l0,0c16.5,16.5,30.5,35.3,41.5,55.7l0.3,0.5
				C546.1,195.9,554.1,218.1,558.7,241.1z"/>
			<path d="M608.3,500.5c4.2,3.1,5.2,9.1,2.1,13.3c-3.1,4.2-9.1,5.2-13.3,2.1L447.8,406.6l-9.7,9.7l-15.4,15.5
				c-36.8,36.8-91.9,28.1-142.7-2.8c-19-11.6-37.5-26.3-54-42.8c-16.5-16.5-31.2-34.9-42.8-54c-30.9-50.8-39.7-105.9-3.2-142.4
				l25.4-25.4L102.8,24.1l-46.4,46l0,0L56,70.6c-36.4,36.4-46,84.7-27.3,143.3c19.4,60.9,68.7,132.7,149.2,213.8l3.2,3.3l0,0
				c5.5,5.5,10,10,13.6,13.4c78.2,75.8,147.7,122.3,206.7,140.3c56.8,17.4,103.7,8,138.9-27.2l0.5-0.5l1.1-1.1l12.3-12.7
				c3.7-3.8,9.7-3.8,13.5-0.2c3.8,3.7,3.8,9.7,0.2,13.5l-12.3,12.7l0,0l-1.2,1.2l-0.5,0.6c-40.5,40.5-93.9,51.6-157.9,31.9
				C334,584,261.9,536,181.4,458c-5.5-5.4-10.1-9.9-13.8-13.5l0,0l0,0l-3.3-3.3C81.7,357.8,30.8,283.4,10.5,219.7
				c-21-66-9.8-120.8,32-162.6l0.4-0.4l0,0l0,0L97.2,2.8c0.3-0.3,0.7-0.6,1.1-0.9c4.2-3.1,10.2-2.2,13.3,2.1l113.7,155.2
				c3.2,3.7,3.1,9.4-0.5,13l-31.2,31.2c-29.1,29.1-20.6,75.4,6,118.9c10.7,17.6,24.5,34.8,40,50.4c15.5,15.5,32.8,29.3,50.4,40
				c43.5,26.5,89.9,34.9,119.2,5.6l15.5-15.4l15.4-15.4l0,0c3.3-3.3,8.5-3.8,12.4-1L608.3,500.5z"/>
			<path d="M566.7,542.1c4.2,3.1,5.2,9.1,2.1,13.3c-3.1,4.2-9.1,5.2-13.3,2.1l-39-28.5l-39-28.5l-39-28.5c-4.2-3.1-5.2-9.1-2.1-13.3
				c3.1-4.2,9.1-5.2,13.3-2.1l39,28.5l39,28.5L566.7,542.1z"/>
			<path d="M54.6,56.7c-3.1-4.2-2.2-10.2,2.1-13.3c4.2-3.1,10.2-2.2,13.3,2.1l28.5,39l28.5,38.9l28.5,39c3.1,4.2,2.2,10.2-2.1,13.3
				s-10.2,2.2-13.3-2.1l-28.5-39L83.2,95.7L54.6,56.7z"/>
		</g>
	</g>
</g>
</svg>
