<?xml version="1.0" encoding="utf-8"?>
<!-- Generator: Adobe Illustrator 18.0.0, SVG Export Plug-In . SVG Version: 6.00 Build 0)  -->
<!DOCTYPE svg PUBLIC "-//W3C//DTD SVG 1.1//EN" "http://www.w3.org/Graphics/SVG/1.1/DTD/svg11.dtd">
<svg version="1.1" id="Capa_1" xmlns="http://www.w3.org/2000/svg" xmlns:xlink="http://www.w3.org/1999/xlink" x="0px" y="0px"
	 viewBox="21.2 42.6 167.4 209.7" enable-background="new 21.2 42.6 167.4 209.7" xml:space="preserve">
<g>
	<g id="XMLID_1844_">
		<path id="XMLID_1845_" d="M104.9,95.4c-17.5,0-31.8,14.2-31.8,31.8c0,4.2,3.4,7.6,7.6,7.6c4.2,0,7.6-3.4,7.6-7.6
			c0-9.1,7.4-16.6,16.6-16.6c4.2,0,7.6-3.4,7.6-7.6S109.1,95.4,104.9,95.4z"/>
		<path id="XMLID_1995_" d="M188.6,126.2c0-47.2-39.1-85.3-86.7-83.6C60.2,44,25.6,76.6,21.6,118c-0.8,8.3-0.3,16.3,1.1,24l0,0
			c0,0,0.1,0.9,0.5,2.6c1.3,5.8,3.2,11.4,5.6,16.6c8.4,19.9,27.8,53.2,71.3,89.3c2.7,2.2,6.6,2.2,9.3,0
			c43.5-36.1,62.9-69.4,71.3-89.3c2.4-5.2,4.3-10.8,5.6-16.6c0.4-1.7,0.5-2.6,0.5-2.6l0,0C188,136.9,188.6,131.6,188.6,126.2z
			 M104.9,178.1c-28.1,0-50.9-22.8-50.9-50.9c0-28.1,22.8-50.9,50.9-50.9s50.9,22.8,50.9,50.9S133,178.1,104.9,178.1z"/>
	</g>
</g>
</svg>
