<svg xmlns="http://www.w3.org/2000/svg" viewBox="21.2 42.6 167.4 209.7"><path d="M104.9 95.4c-17.5 0-31.8 14.2-31.8 31.8 0 4.2 3.4 7.6 7.6 7.6 4.2 0 7.6-3.4 7.6-7.6 0-9.1 7.4-16.6 16.6-16.6 4.2 0 7.6-3.4 7.6-7.6s-3.4-7.6-7.6-7.6z"/><path d="M188.6 126.2c0-47.2-39.1-85.3-86.7-83.6-41.7 1.4-76.3 34-80.3 75.4-.8 8.3-.3 16.3 1.1 24 0 0 .1.9.5 2.6 1.3 5.8 3.2 11.4 5.6 16.6 8.4 19.9 27.8 53.2 71.3 89.3 2.7 2.2 6.6 2.2 9.3 0 43.5-36.1 62.9-69.4 71.3-89.3 2.4-5.2 4.3-10.8 5.6-16.6.4-1.7.5-2.6.5-2.6 1.2-5.1 1.8-10.4 1.8-15.8zm-83.7 51.9c-28.1 0-50.9-22.8-50.9-50.9 0-28.1 22.8-50.9 50.9-50.9s50.9 22.8 50.9 50.9-22.8 50.9-50.9 50.9z"/></svg>