<svg xmlns="http://www.w3.org/2000/svg" viewBox="0 42.5 209.8 209.8"><path d="M151.6 68.5c-16.8-16.8-39.1-26-62.8-26s-46 9.2-62.8 26C9.2 85.3 0 107.6 0 131.3c0 23.7 9.2 46 26 62.8 16.8 16.8 39.1 26 62.8 26s46-9.2 62.8-26c16.8-16.8 26-39.1 26-62.8 0-23.7-9.2-46-26-62.8zM88.8 203.2c-39.6 0-71.9-32.2-71.9-71.9s32.2-71.9 71.9-71.9 71.9 32.2 71.9 71.9-32.3 71.9-71.9 71.9z"/><path d="M207.3 237.8l-55.7-55.7c-3.3-3.3-8.7-3.3-12 0-3.3 3.3-3.3 8.7 0 12l55.7 55.7c1.7 1.7 3.8 2.5 6 2.5s4.3-.8 6-2.5c3.3-3.3 3.3-8.7 0-12z"/></svg>