<?xml version="1.0" encoding="utf-8"?>
<!-- Generator: Adobe Illustrator 18.0.0, SVG Export Plug-In . SVG Version: 6.00 Build 0)  -->
<!DOCTYPE svg PUBLIC "-//W3C//DTD SVG 1.1//EN" "http://www.w3.org/Graphics/SVG/1.1/DTD/svg11.dtd">
<svg version="1.1" id="Layer_1" xmlns="http://www.w3.org/2000/svg" xmlns:xlink="http://www.w3.org/1999/xlink" x="0px" y="0px"
	 viewBox="0 42.5 209.8 209.8" enable-background="new 0 42.5 209.8 209.8" xml:space="preserve">
<g>
	<g>
		<path d="M151.6,68.5c-16.8-16.8-39.1-26-62.8-26s-46,9.2-62.8,26C9.2,85.3,0,107.6,0,131.3c0,23.7,9.2,46,26,62.8
			c16.8,16.8,39.1,26,62.8,26s46-9.2,62.8-26c16.8-16.8,26-39.1,26-62.8C177.6,107.6,168.4,85.3,151.6,68.5z M88.8,203.2
			c-39.6,0-71.9-32.2-71.9-71.9s32.2-71.9,71.9-71.9s71.9,32.2,71.9,71.9S128.4,203.2,88.8,203.2z"/>
	</g>
</g>
<g>
	<g>
		<path d="M207.3,237.8l-55.7-55.7c-3.3-3.3-8.7-3.3-12,0c-3.3,3.3-3.3,8.7,0,12l55.7,55.7c1.7,1.7,3.8,2.5,6,2.5s4.3-0.8,6-2.5
			C210.6,246.5,210.6,241.1,207.3,237.8z"/>
	</g>
</g>
</svg>
