<?xml version="1.0" encoding="utf-8"?>
<!-- Generator: Adobe Illustrator 18.0.0, SVG Export Plug-In . SVG Version: 6.00 Build 0)  -->
<!DOCTYPE svg PUBLIC "-//W3C//DTD SVG 1.1//EN" "http://www.w3.org/Graphics/SVG/1.1/DTD/svg11.dtd">
<svg version="1.1" id="Capa_1" xmlns="http://www.w3.org/2000/svg" xmlns:xlink="http://www.w3.org/1999/xlink" x="0px" y="0px"
	 viewBox="18.1 42.5 173.6 209.8" enable-background="new 18.1 42.5 173.6 209.8" xml:space="preserve">
<path d="M191.6,243.5l-12.8-142.1c-0.3-3.9-3.6-6.9-7.5-6.9H145V82.6c0-22.1-18-40.1-40.1-40.1c-22.1,0-40.1,18-40.1,40.1v11.9H38.4
	c-3.9,0-7.2,3-7.5,6.9L18.1,244.1c-0.2,2.1,0.5,4.2,1.9,5.8c1.4,1.6,3.4,2.4,5.6,2.4h158.5c0,0,0,0,0,0c4.2,0,7.5-3.4,7.5-7.5
	C191.7,244.3,191.7,243.9,191.6,243.5z M79.8,82.6c0-13.8,11.2-25.1,25.1-25.1c13.8,0,25.1,11.2,25.1,25.1v11.9H79.8V82.6z
	 M33.8,237.2l11.5-127.6h19.5V123c0,4.2,3.4,7.5,7.5,7.5s7.5-3.4,7.5-7.5v-13.5h50.1V123c0,4.2,3.4,7.5,7.5,7.5s7.5-3.4,7.5-7.5
	v-13.5h19.4l11.5,127.6L33.8,237.2L33.8,237.2z"/>
</svg>
