<svg xmlns="http://www.w3.org/2000/svg" viewBox="18.1 42.5 173.6 209.8"><path d="M191.6 243.5l-12.8-142.1c-.3-3.9-3.6-6.9-7.5-6.9H145V82.6c0-22.1-18-40.1-40.1-40.1s-40.1 18-40.1 40.1v11.9H38.4c-3.9 0-7.2 3-7.5 6.9L18.1 244.1c-.2 2.1.5 4.2 1.9 5.8 1.4 1.6 3.4 2.4 5.6 2.4h158.5c4.2 0 7.5-3.4 7.5-7.5.1-.5.1-.9 0-1.3zM79.8 82.6c0-13.8 11.2-25.1 25.1-25.1 13.8 0 25.1 11.2 25.1 25.1v11.9H79.8V82.6zm-46 154.6l11.5-127.6h19.5V123c0 4.2 3.4 7.5 7.5 7.5s7.5-3.4 7.5-7.5v-13.5h50.1V123c0 4.2 3.4 7.5 7.5 7.5s7.5-3.4 7.5-7.5v-13.5h19.4l11.5 127.6-142 .1z"/></svg>