<svg xmlns="http://www.w3.org/2000/svg" viewBox="0 42.5 209.8 209.8"><path d="M200.6 183.7l-22.7-16.2c-8.8-6.3-20.7-5.3-28.3 2.3l-13.3 13.3c-17.1-12.1-54.9-50-67-67l13.3-13.3c7.6-7.6 8.6-19.5 2.3-28.3L68.5 51.7c-7.9-11-23.8-12.4-33.4-2.8l-21 21c-18.9 18.9-18.8 44.4 0 70 30 40.7 57.5 68.2 98.1 98.1 23.7 17.5 49.8 20.3 70 0l21-21c9.7-9.4 8.4-25.4-2.6-33.3zm-8.9 21.9l-21 21c-14.6 14.6-32.2 10.5-48.7-1.6-39.2-28.9-65.8-55.4-94.7-94.7-12.2-16.5-16.2-34.2-1.6-48.7l21-21c2.5-2.5 6.5-2.1 8.5.7L71.5 84c1.6 2.2 1.3 5.3-.6 7.2l-17.7 17.7c-2.2 2.2-3 5.6-1.9 8.5 5.6 15.9 67.7 78 83.6 83.6 3 1.1 6.3.3 8.5-1.9l17.7-17.7c1.9-1.9 5-2.2 7.2-.6L191 197c2.9 2.1 3.2 6.1.7 8.6z"/></svg>