<?xml version="1.0" encoding="utf-8"?>
<!-- Generator: Adobe Illustrator 18.0.0, SVG Export Plug-In . SVG Version: 6.00 Build 0)  -->
<!DOCTYPE svg PUBLIC "-//W3C//DTD SVG 1.1//EN" "http://www.w3.org/Graphics/SVG/1.1/DTD/svg11.dtd">
<svg version="1.1" id="Layer_1" xmlns="http://www.w3.org/2000/svg" xmlns:xlink="http://www.w3.org/1999/xlink" x="0px" y="0px"
	 viewBox="0 63.6 209.8 167.5" enable-background="new 0 63.6 209.8 167.5" xml:space="preserve">
<g transform="translate(1 1)">
	<g>
		<g>
			<path d="M205.6,120.9l-30.4-33.5c-2.4-2.4-5.6-3.8-8.7-3.8h-34.9v-7.3c0-7.7-5.9-13.6-13.3-13.6H12.6C4.9,62.6-1,68.6-1,76.2
				v84.1v7V197c0,6.6,5.6,12.2,12.2,12.2h5.5c1.7,11.9,11.8,20.9,24.2,20.9s22.5-9,24.2-20.9h59.6h7h10.7
				c1.7,11.9,11.8,20.9,24.2,20.9s22.5-9,24.2-20.9h17.7h0.3v-80.3C208.8,125.8,207.7,123,205.6,120.9z M200,125.5
				c1,0.7,1.4,2.1,1.4,3.1v10.8h-52.4v-34.9h31.8L200,125.5z M6,135.9h48.9c2.1,0,3.5-1.4,3.5-3.5s-1.4-3.5-3.5-3.5H6v-10.5h34.9
				c2.1,0,3.5-1.4,3.5-3.5c0-2.1-1.4-3.5-3.5-3.5H6V76.2c0-3.8,2.8-6.6,6.6-6.6H118c3.8,0,6.6,3.1,6.6,6.6v7.3v76.8H6V135.9z
				 M40.9,223.2c-9.8,0-17.5-7.7-17.5-17.5c0-9.8,7.7-17.5,17.5-17.5c9.8,0,17.5,7.7,17.5,17.5C58.3,215.5,50.7,223.2,40.9,223.2z
				 M124.6,202.2H65.1c-1.6-11.2-10.5-19.8-21.9-20.8c-0.1,0-0.2,0-0.3,0c-0.3,0-0.6,0-0.9-0.1c-0.4,0-0.8,0-1.2,0s-0.8,0-1.2,0
				c-0.3,0-0.6,0-0.9,0.1c-0.1,0-0.2,0-0.3,0c-11.4,1-20.3,9.7-21.9,20.8h-5.5c-2.8,0-5.2-2.4-5.2-5.2v-29.7h118.7V202.2z
				 M166.5,223.2c-9.8,0-17.5-7.7-17.5-17.5c0-9.8,7.7-17.5,17.5-17.5c9.8,0,17.5,7.7,17.5,17.5C184,215.5,176.3,223.2,166.5,223.2z
				 M190.7,202.2c-1.6-11.2-10.5-19.8-21.9-20.8c-0.1,0-0.2,0-0.3,0c-0.3,0-0.6,0-0.9-0.1c-0.4,0-0.8,0-1.2,0c-0.4,0-0.8,0-1.2,0
				c-0.3,0-0.6,0-0.9,0.1c-0.1,0-0.2,0-0.3,0c-11.4,1-20.3,9.7-21.9,20.8h-10.7v-34.9v-7V90.6h34.9c1,0,2.4,0.7,3.5,1.4l5,5.6h-27
				c-3.1,0-5.9,2.8-5.9,5.9v37c0,3.1,2.8,5.9,5.9,5.9h53.4v17.5H184c-2.1,0-3.5,1.4-3.5,3.5c0,2.1,1.4,3.5,3.5,3.5h17.5v31.4
				L190.7,202.2L190.7,202.2z"/>
			<path d="M40.9,198.8c-3.8,0-7,3.1-7,7c0,3.8,3.1,7,7,7s7-3.1,7-7C47.9,201.9,44.7,198.8,40.9,198.8z"/>
			<path d="M166.5,198.8c-3.8,0-7,3.1-7,7c0,3.8,3.1,7,7,7s7-3.1,7-7C173.5,201.9,170.4,198.8,166.5,198.8z"/>
		</g>
	</g>
</g>
</svg>
