<svg xmlns="http://www.w3.org/2000/svg" viewBox="0 63.6 209.8 167.5"><path d="M206.6 121.9l-30.4-33.5c-2.4-2.4-5.6-3.8-8.7-3.8h-34.9v-7.3c0-7.7-5.9-13.6-13.3-13.6H13.6C5.9 63.6 0 69.6 0 77.2V198c0 6.6 5.6 12.2 12.2 12.2h5.5c1.7 11.9 11.8 20.9 24.2 20.9s22.5-9 24.2-20.9h77.3c1.7 11.9 11.8 20.9 24.2 20.9s22.5-9 24.2-20.9h18v-80.3c0-3.1-1.1-5.9-3.2-8zm-5.6 4.6c1 .7 1.4 2.1 1.4 3.1v10.8H150v-34.9h31.8l19.2 21zM7 136.9h48.9c2.1 0 3.5-1.4 3.5-3.5s-1.4-3.5-3.5-3.5H7v-10.5h34.9c2.1 0 3.5-1.4 3.5-3.5s-1.4-3.5-3.5-3.5H7V77.2c0-3.8 2.8-6.6 6.6-6.6H119c3.8 0 6.6 3.1 6.6 6.6v84.1H7v-24.4zm34.9 87.3c-9.8 0-17.5-7.7-17.5-17.5s7.7-17.5 17.5-17.5 17.5 7.7 17.5 17.5c-.1 9.8-7.7 17.5-17.5 17.5zm83.7-21H66.1c-1.6-11.2-10.5-19.8-21.9-20.8h-.3c-.3 0-.6 0-.9-.1h-2.4c-.3 0-.6 0-.9.1h-.3c-11.4 1-20.3 9.7-21.9 20.8H12c-2.8 0-5.2-2.4-5.2-5.2v-29.7h118.7v34.9zm41.9 21c-9.8 0-17.5-7.7-17.5-17.5s7.7-17.5 17.5-17.5 17.5 7.7 17.5 17.5-7.7 17.5-17.5 17.5zm24.2-21c-1.6-11.2-10.5-19.8-21.9-20.8h-.3c-.3 0-.6 0-.9-.1h-2.4c-.3 0-.6 0-.9.1h-.3c-11.4 1-20.3 9.7-21.9 20.8h-10.7V91.6h34.9c1 0 2.4.7 3.5 1.4l5 5.6h-27c-3.1 0-5.9 2.8-5.9 5.9v37c0 3.1 2.8 5.9 5.9 5.9h53.4v17.5H185c-2.1 0-3.5 1.4-3.5 3.5s1.4 3.5 3.5 3.5h17.5v31.4l-10.8-.1z"/><path d="M41.9 199.8c-3.8 0-7 3.1-7 7 0 3.8 3.1 7 7 7s7-3.1 7-7-3.2-7-7-7zm125.6 0c-3.8 0-7 3.1-7 7 0 3.8 3.1 7 7 7s7-3.1 7-7-3.1-7-7-7z"/></svg>