<svg xmlns="http://www.w3.org/2000/svg" viewBox="0 187.7 2000 1624.6"><path fill="#010002" d="M2000 379.9c-73.6 32.6-152.6 54.7-235.6 64.6 84.7-50.7 149.6-131.2 180.3-226.8-79.5 47-167.2 81.1-260.7 99.6-74.9-79.9-181.3-129.6-299.4-129.6-226.6 0-410.3 183.7-410.3 410.2 0 32.1 3.6 63.5 10.6 93.5C644 674.2 341.7 510.9 139.3 262.7c-35.4 60.5-55.5 131-55.5 206.2 0 142.3 72.5 268 182.5 341.4-67.2-2.2-130.5-20.7-185.8-51.5v5.1c0 198.7 141.5 364.6 329.1 402.3-34.4 9.2-70.6 14.4-108.1 14.4-26.5 0-52.1-2.6-77.2-7.6 52.2 163.1 203.7 281.7 383.2 284.9C467 1568 290.1 1633.3 97.9 1633.3c-33.1 0-65.7-2-97.9-5.6 181.6 116.6 397.2 184.6 628.9 184.6 754.7 0 1167.3-625.1 1167.3-1167.3l-1.4-53.1c80.6-57.5 150.3-129.7 205.2-212z"/></svg>