<svg xmlns="http://www.w3.org/2000/svg" viewBox="0 434.1 2000 1131.8"><path d="M1721.3 1153.7c66.3 64.8 136.4 125.7 195.9 197 26.3 31.7 51.2 64.4 70.2 101.2 27 52.3 2.5 109.8-44.3 112.9l-291.4-.1c-75.1 6.2-135.1-24-185.5-75.4-40.3-41.1-77.7-84.8-116.5-127.3-15.9-17.4-32.5-33.7-52.4-46.6-39.8-25.8-74.3-17.9-97 23.6-23.2 42.2-28.4 88.9-30.7 135.9-3.1 68.6-23.9 86.6-92.8 89.8-147.3 6.9-287.1-15.3-416.9-89.6-114.5-65.5-203.3-158-280.5-262.7-150.5-203.8-265.8-427.8-369.3-658.1-23.3-51.9-6.3-79.7 51-80.7 95.1-1.8 190.1-1.7 285.3-.1 38.6.6 64.2 22.7 79.1 59.2C476.9 659.1 539.9 779.5 618.8 891c21 29.7 42.5 59.4 73 80.3 33.8 23.1 59.5 15.5 75.4-22.2 10.1-23.9 14.5-49.6 16.8-75.1 7.5-87.9 8.5-175.7-4.7-263.4-8.1-54.7-38.9-90.1-93.5-100.4-27.8-5.3-23.7-15.6-10.2-31.5 23.4-27.4 45.4-44.5 89.4-44.5h329.3c51.8 10.2 63.4 33.5 70.4 85.7l.3 365.8c-.6 20.2 10.1 80.1 46.5 93.5 29.1 9.5 48.3-13.8 65.8-32.2 78.8-83.7 135.1-182.6 185.4-285 22.3-45 41.5-91.8 60.1-138.5 13.8-34.7 35.4-51.7 74.4-51l316.9.3c9.4 0 18.9.1 28 1.7 53.4 9.1 68 32.1 51.5 84.2-26 81.8-76.6 150-126 218.5-52.9 73.1-109.4 143.8-161.8 217.3-48.2 67-44.3 100.9 15.5 159.2z"/></svg>