<?xml version="1.0" encoding="utf-8"?>
<!-- Generator: Adobe Illustrator 18.0.0, SVG Export Plug-In . SVG Version: 6.00 Build 0)  -->
<!DOCTYPE svg PUBLIC "-//W3C//DTD SVG 1.1//EN" "http://www.w3.org/Graphics/SVG/1.1/DTD/svg11.dtd">
<svg version="1.1" id="Layer_1" xmlns="http://www.w3.org/2000/svg" xmlns:xlink="http://www.w3.org/1999/xlink" x="0px" y="0px"
	 viewBox="0 434.1 2000 1131.8" enable-background="new 0 434.1 2000 1131.8" xml:space="preserve">
<g id="XMLID_1_">
	<path id="XMLID_807_" d="M1721.3,1153.7c66.3,64.8,136.4,125.7,195.9,197c26.3,31.7,51.2,64.4,70.2,101.2
		c27,52.3,2.5,109.8-44.3,112.9l-291.4-0.1c-75.1,6.2-135.1-24-185.5-75.4c-40.3-41.1-77.7-84.8-116.5-127.3
		c-15.9-17.4-32.5-33.7-52.4-46.6c-39.8-25.8-74.3-17.9-97,23.6c-23.2,42.2-28.4,88.9-30.7,135.9c-3.1,68.6-23.9,86.6-92.8,89.8
		c-147.3,6.9-287.1-15.3-416.9-89.6c-114.5-65.5-203.3-158-280.5-262.7C228.9,1008.6,113.6,784.6,10.1,554.3
		c-23.3-51.9-6.3-79.7,51-80.7c95.1-1.8,190.1-1.7,285.3-0.1c38.6,0.6,64.2,22.7,79.1,59.2c51.4,126.4,114.4,246.8,193.3,358.3
		c21,29.7,42.5,59.4,73,80.3c33.8,23.1,59.5,15.5,75.4-22.2c10.1-23.9,14.5-49.6,16.8-75.1c7.5-87.9,8.5-175.7-4.7-263.4
		c-8.1-54.7-38.9-90.1-93.5-100.4c-27.8-5.3-23.7-15.6-10.2-31.5c23.4-27.4,45.4-44.5,89.4-44.5h329.3
		c51.8,10.2,63.4,33.5,70.4,85.7l0.3,365.8c-0.6,20.2,10.1,80.1,46.5,93.5c29.1,9.5,48.3-13.8,65.8-32.2
		c78.8-83.7,135.1-182.6,185.4-285c22.3-45,41.5-91.8,60.1-138.5c13.8-34.7,35.4-51.7,74.4-51l316.9,0.3c9.4,0,18.9,0.1,28,1.7
		c53.4,9.1,68,32.1,51.5,84.2c-26,81.8-76.6,150-126,218.5c-52.9,73.1-109.4,143.8-161.8,217.3
		C1657.6,1061.5,1661.5,1095.4,1721.3,1153.7L1721.3,1153.7z"/>
</g>
</svg>
