<?xml version="1.0" encoding="iso-8859-1"?>
<!-- Generator: Adobe Illustrator 19.0.0, SVG Export Plug-In . SVG Version: 6.00 Build 0)  -->
<svg xmlns="http://www.w3.org/2000/svg" xmlns:xlink="http://www.w3.org/1999/xlink" version="1.1" id="Layer_1" x="0px" y="0px" viewBox="0 0 184.153 184.153" style="enable-background:new 0 0 184.153 184.153;" xml:space="preserve" width="512px" height="512px">
<g>
	<g>
		<g>
			<polygon points="24.323,55.593 45.17,55.593 45.17,76.441 52.12,76.441 52.12,55.593 72.967,55.593 72.967,48.644 52.12,48.644      52.12,27.797 45.17,27.797 45.17,48.644 24.323,48.644    " fill="#FFFFFF"/>
			<polygon points="32.85,154.676 47.592,139.935 64.79,157.133 69.703,152.22 52.505,135.022 67.245,120.28 62.333,115.367      47.592,130.108 35.307,117.824 30.393,122.737 42.678,135.022 27.936,149.763    " fill="#FFFFFF"/>
			
				<rect x="131.772" y="111.491" transform="matrix(0.7071 0.7071 -0.7071 0.7071 135.6452 -55.8552)" width="6.948" height="48.643" fill="#FFFFFF"/>
			<rect x="111.186" y="48.644" width="48.644" height="6.949" fill="#FFFFFF"/>
			<path d="M159.831,0H24.323C10.912,0,0.001,10.912,0.001,24.324v135.507c0,13.41,10.912,24.322,24.322,24.322h135.508     c13.41,0,24.322-10.912,24.322-24.322V24.324C184.154,10.912,173.24,0,159.831,0z M90.339,177.203H24.323     c-9.579,0-17.373-7.794-17.373-17.372V97.288h83.39V177.203z M90.339,90.339H6.949V24.324c0-9.581,7.794-17.375,17.373-17.375     h66.017V90.339z M177.204,159.83c0,9.579-7.794,17.373-17.372,17.373H97.289V97.288h79.915V159.83z M177.204,90.339H97.289V6.949     h62.542c9.579,0,17.373,7.794,17.373,17.375V90.339z" fill="#FFFFFF"/>
		</g>
	</g>
</g>
<g>
</g>
<g>
</g>
<g>
</g>
<g>
</g>
<g>
</g>
<g>
</g>
<g>
</g>
<g>
</g>
<g>
</g>
<g>
</g>
<g>
</g>
<g>
</g>
<g>
</g>
<g>
</g>
<g>
</g>
</svg>
