<?xml version="1.0" encoding="utf-8"?>
<!-- Generator: Adobe Illustrator 21.1.0, SVG Export Plug-In . SVG Version: 6.00 Build 0)  -->
<svg version="1.1"
	 id="svg2" xmlns:cc="http://creativecommons.org/ns#" xmlns:dc="http://purl.org/dc/elements/1.1/" xmlns:inkscape="http://www.inkscape.org/namespaces/inkscape" xmlns:rdf="http://www.w3.org/1999/02/22-rdf-syntax-ns#" xmlns:sodipodi="http://sodipodi.sourceforge.net/DTD/sodipodi-0.dtd" xmlns:svg="http://www.w3.org/2000/svg"
	 xmlns="http://www.w3.org/2000/svg" xmlns:xlink="http://www.w3.org/1999/xlink" x="0px" y="0px" viewBox="0 0 500 500"
	 style="enable-background:new 0 0 500 500;" xml:space="preserve">
<style type="text/css">
	.st0{fill:#537599;}
	.st1{fill:#FFFFFF;}
</style>
<g id="layer1" transform="translate(0,-552.36218)">
	<path id="rect2990-1" class="st0" d="M251,552.4L251,552.4c138.1,0,250,111.9,250,250l0,0c0,138.1-111.9,250-250,250l0,0
		c-138.1,0-250-111.9-250-250l0,0C1,664.3,112.9,552.4,251,552.4z"/>
	<g id="layer1-9" transform="translate(-549.00515,80.294372)">
	</g>
	<g id="layer1-6" transform="translate(-575.71429,39.999999)">
	</g>
	<g id="layer1-8" transform="translate(357.14286,-39.285715)">
	</g>
	<path id="rect2989" class="st1" d="M159.6,685.4v237H277c36.8,0,54.4-12,65.7-25.8c11.3-13.8,16.9-29.5,16.9-47.1
		c0-29.4-22.8-50-54.7-57.4c13.7-3.6,24.1-7.5,31-17.1c6.9-9.6,10.4-20.3,10.4-32.1c0-16.2-6-26-17.9-38.6
		c-11.9-12.6-30.9-18.9-56.9-18.9L159.6,685.4L159.6,685.4z M221.8,732.2h28c16.9,0,25.3,6,25.3,19.2c0,4.9-1.8,14-5.4,18.3
		c-3.6,4.3-9.8,6.4-18.6,6.4h-29.2V732.2z M221.5,826.5h34.3c11.1,0,18.7,2.3,22.9,6.9c4.2,4.6,6.2,9.6,6.2,15
		c0,5.4-2.1,10.3-6.4,14.7c-4.3,4.3-11,6.5-20.2,6.5h-36.8L221.5,826.5L221.5,826.5z"/>
</g>
</svg>
