<?xml version="1.0" encoding="utf-8"?>
<!-- Generator: Adobe Illustrator 18.0.0, SVG Export Plug-In . SVG Version: 6.00 Build 0)  -->
<!DOCTYPE svg PUBLIC "-//W3C//DTD SVG 1.1//EN" "http://www.w3.org/Graphics/SVG/1.1/DTD/svg11.dtd">
<svg version="1.1" id="Layer_1" xmlns="http://www.w3.org/2000/svg" xmlns:xlink="http://www.w3.org/1999/xlink" x="0px" y="0px"
	 viewBox="19.3 127.7 177 146.9" enable-background="new 19.3 127.7 177 146.9" xml:space="preserve">
<g>
	<g>
		<g>
			<path d="M29.8,274.6v-26.4h5.7v26.4H29.8z"/>
			<path d="M58.9,274.6l-12.7-17.3v17.2h-5.7V248h5.8l12.2,16.6V248h5.7v26.4L58.9,274.6L58.9,274.6z"/>
			<path d="M69.5,274.6v-26.4h18.7v4.9H75.1v5.6h12.8v4.9H75.1v10.9L69.5,274.6L69.5,274.6z"/>
			<path d="M108.6,274.6l-1.6-4.5H95.6l-1.6,4.5h-6.4l10.2-26.4h7l10.2,26.4H108.6z M101.4,253.8l-4.1,11.3h8.2L101.4,253.8z"/>
			<path d="M135.6,274.6l-12.6-17.2v17.2h-5.7v-26.4h5.8l12.2,16.6v-16.6h5.7v26.4H135.6z"/>
			<path d="M152.4,274.6v-21.5h-7.7v-4.9h21.1v4.9H158v21.5H152.4z"/>
			<path d="M185,274.6l-1.6-4.5H172l-1.6,4.5H164l10.2-26.4h7l10.2,26.4H185z M177.7,253.8l-4.1,11.3h8.2L177.7,253.8z"/>
		</g>
	</g>
</g>
<g>
	<g>
		<path d="M34.5,199.1c1.9,1.7,1.9,1.7,3.3,3.1c4.2,4.6,9,8.1,15.5,8.7c5.4,0.5,9.8-2.2,11.8-7.3c2.6-6.8,2.5-13.8,2.1-20.8
			c-0.1-2.3-0.2-4.7-0.2-7.7c1.3,2.3,2.8,4.4,3.9,6c4.1,5.7,7.4,11.1,13.6,14.6c7.3,4.1,13.5,1.9,16.9-5.7
			c3.4-7.7,4.3-15.9,5.3-24.1c0.3-3,0.9-6.6,1.7-9.6c0.6,4.1,1,8.5,1.6,12.4c0.9,8.5,2.1,16.8,6.3,24.6c3,5.4,7.4,6.7,12.8,3.9
			c6.6-3.4,10.3-9.4,14.6-15c1.5-1.9,2.3-3,3.7-5c0.6-0.7,0.6-0.9,1.7-1.9c-0.6,2.6-1.3,6.8-1.8,9.4c-1.4,7.3-1.6,14.5,2.9,20.9
			c3.6,5.1,9,6.9,15,5.1c6.6-1.8,10-4.7,15.5-8.9c0.5-0.4,2.3-1.7,3.7-2.6c-1.4,2.6-2.5,5.7-4,8.3c-4.7,8.5-9.6,16.9-14.1,25.5
			c-1.3,2.5-2.6,2.8-5,1.9c-18.8-6.3-38.1-9.1-57.8-8.4c-11,0.3-22,2.7-32.9,4.5c-6.6,1-13.1,2.9-19.8,4.3c-0.9,0.2-2.6-0.5-2.9-1.3
			c-4.9-11-9.3-22.3-14-33.4c-0.3-1.1-0.4-1.6-0.5-2.3C33.4,198,33.9,198.8,34.5,199.1z"/>
		<path d="M24.8,180.3c3.3,5,7.1,4.6,11.7,1.9c-4.1,4.8-3.1,8.6,2,11.8c-0.3,0.1-0.6,0.3-1,0.3c-2.2-0.3-4.6-1.5-6.3-0.8
			c-1.7,0.7-2.7,3.3-4.6,5.8c-0.1-5.1-0.7-9.3-7.3-8.9C24.5,188.8,25.8,185.3,24.8,180.3z"/>
		<path d="M101.8,146.9c2.6-5,1.8-8.9-3.6-11.9c2.8-0.2,5.9,0.2,7.2-1c1.4-1.2,1.7-3.7,2.7-6.3c1.1,2.6,1.5,5.6,3.1,6.7
			s4,0.6,6.7,0.9c-2.1,1.7-4.3,2.8-5,4.7c-0.7,1.8,0.6,4.5,0.9,7.1C110.3,143.4,106.4,142,101.8,146.9z"/>
		<path d="M72.7,159.7c-3.5,3.8-4.6,7.3-1,11c-1.8-0.3-4.1-1.2-5.6-0.6c-1.7,0.6-2.6,2.9-4.6,5.3c0.7-5.8-1-9.1-6.7-9.7
			c4.9-1.2,8.1-3.4,6.3-9.3c0.4,0.3,1,1,1.4,1.5c1.3,1.6,1.7,2.3,3.4,3C67.3,161.5,69.5,160.5,72.7,159.7z"/>
		<path d="M144.7,159.8c4.6,2.2,8.3,2.3,10.9-3.1c-1,5.4,1.2,8.1,6.3,9c-5.2,1-7.4,3.8-6.4,9.2c-2.4-5.5-6.3-5.6-11-3.6
			C148.4,167.5,148.9,164,144.7,159.8z"/>
		<path d="M180.6,193.6c4.1-3.1,4.3-6.2,1.4-9.7c6.4,1.4,5.6,0.8,10.4-2.7c-0.9,4.3-1.2,7.6,3.9,8.9c-4.8,0.8-6.3,3.3-5.9,7.9
			C188.5,193.3,185.8,191.6,180.6,193.6z"/>
	</g>
</g>
</svg>
