<svg width="59" height="75" viewBox="0 0 59 75" fill="none" xmlns="http://www.w3.org/2000/svg">
<path d="M17.4765 -0.367264C17.1037 -0.33327 16.7527 -0.173646 16.4793 0.0862832L0.524873 15.5338C0.357416 15.695 0.224398 15.8895 0.134107 16.1052C0.043815 16.321 -0.00181642 16.5533 5.53359e-05 16.7877V69.64C8.98445e-05 70.0928 0.177038 70.5271 0.491981 70.8473C0.806924 71.1675 1.23407 71.3474 1.67947 71.3475H34.4281V73.0549C34.4301 73.3537 34.5092 73.6467 34.6574 73.9046C34.8056 74.1626 35.0177 74.3765 35.2727 74.5251C35.5277 74.6736 35.8165 74.7514 36.1103 74.751C36.4042 74.7505 36.6927 74.6717 36.9472 74.5223L41.9855 71.5876L47.0237 74.5223C47.2782 74.6717 47.5668 74.7505 47.8607 74.751C48.1545 74.7514 48.4433 74.6736 48.6983 74.5251C48.9532 74.3765 49.1654 74.1626 49.3136 73.9046C49.4618 73.6467 49.5409 73.3537 49.5429 73.0549V71.3475H57.1003C57.5457 71.3474 57.9728 71.1675 58.2877 70.8473C58.6027 70.5271 58.7796 70.0928 58.7797 69.64V1.34022C58.7796 0.887379 58.6027 0.453121 58.2877 0.132914C57.9728 -0.187292 57.5457 -0.367219 57.1003 -0.367264H17.6339C17.5815 -0.369766 17.5289 -0.369766 17.4765 -0.367264ZM19.3134 3.0477H55.4208V67.9325H49.5429V57.6875C49.5435 57.6607 49.5435 57.634 49.5429 57.6073C51.1056 55.8012 52.062 53.4392 52.062 50.8572C52.062 45.2193 47.5307 40.6123 41.9855 40.6123C36.4403 40.6123 31.909 45.2193 31.909 50.8572C31.909 53.4392 32.8653 55.8012 34.4281 57.6073C34.4275 57.634 34.4275 57.6607 34.4281 57.6875V67.9325H3.35889V19.2689H17.6339C18.0793 19.2689 18.5065 19.0889 18.8214 18.7687C19.1364 18.4485 19.3133 18.0143 19.3134 17.5614H43.6649C43.8875 17.5646 44.1084 17.5228 44.3149 17.4385C44.5214 17.3541 44.7094 17.2288 44.8679 17.0699C45.0264 16.9111 45.1522 16.7217 45.2381 16.513C45.324 16.3042 45.3682 16.0802 45.3682 15.8539C45.3682 15.6276 45.324 15.4036 45.2381 15.1948C45.1522 14.9861 45.0264 14.7968 44.8679 14.6379C44.7094 14.4791 44.5214 14.3538 44.3149 14.2694C44.1084 14.185 43.8875 14.1433 43.6649 14.1465H19.3134V3.0477ZM15.9545 5.31549V15.8539H5.06455L15.9545 5.31549ZM14.9574 22.6839C14.7368 22.6943 14.5203 22.7488 14.3205 22.8443C14.1206 22.9398 13.9412 23.0744 13.7925 23.2404C13.6437 23.4064 13.5287 23.6005 13.4538 23.8118C13.3789 24.023 13.3457 24.2471 13.356 24.4714C13.3663 24.6957 13.42 24.9158 13.514 25.119C13.608 25.3221 13.7405 25.5045 13.9038 25.6556C14.0671 25.8067 14.2582 25.9237 14.4659 25.9997C14.6737 26.0758 14.8942 26.1095 15.1148 26.0989H43.6649C43.8875 26.1021 44.1084 26.0603 44.3149 25.9759C44.5214 25.8916 44.7094 25.7663 44.8679 25.6074C45.0264 25.4485 45.1522 25.2592 45.2381 25.0504C45.324 24.8417 45.3682 24.6177 45.3682 24.3914C45.3682 24.1651 45.324 23.9411 45.2381 23.7323C45.1522 23.5236 45.0264 23.3343 44.8679 23.1754C44.7094 23.0165 44.5214 22.8913 44.3149 22.8069C44.1084 22.7225 43.8875 22.6807 43.6649 22.6839H15.1148C15.0624 22.6814 15.0098 22.6814 14.9574 22.6839ZM14.9574 31.2213C14.7368 31.2318 14.5203 31.2863 14.3205 31.3818C14.1206 31.4772 13.9412 31.6118 13.7925 31.7778C13.6437 31.9438 13.5287 32.138 13.4538 32.3492C13.3789 32.5605 13.3457 32.7846 13.356 33.0089C13.3663 33.2332 13.42 33.4532 13.514 33.6564C13.608 33.8596 13.7405 34.0419 13.9038 34.1931C14.0671 34.3442 14.2582 34.4612 14.4659 34.5372C14.6737 34.6133 14.8942 34.647 15.1148 34.6364H43.6649C43.8875 34.6396 44.1084 34.5978 44.3149 34.5134C44.5214 34.429 44.7094 34.3038 44.8679 34.1449C45.0264 33.986 45.1522 33.7967 45.2381 33.5879C45.324 33.3792 45.3682 33.1552 45.3682 32.9289C45.3682 32.7026 45.324 32.4785 45.2381 32.2698C45.1522 32.061 45.0264 31.8717 44.8679 31.7129C44.7094 31.554 44.5214 31.4287 44.3149 31.3444C44.1084 31.26 43.8875 31.2181 43.6649 31.2213H15.1148C15.0624 31.2188 15.0098 31.2188 14.9574 31.2213ZM41.9855 44.0276C45.7155 44.0276 48.7032 47.0651 48.7032 50.8575C48.7032 54.6498 45.7155 57.6875 41.9855 57.6875C38.2555 57.6875 35.2678 54.6498 35.2678 50.8575C35.2678 47.0651 38.2555 44.0276 41.9855 44.0276ZM9.07941 45.735C8.63399 45.7562 8.2151 45.9565 7.91491 46.2917C7.61471 46.6269 7.45779 47.0697 7.47867 47.5226C7.49955 47.9754 7.69652 48.4013 8.02624 48.7065C8.35596 49.0117 8.79143 49.1713 9.23685 49.1501H26.031C26.2533 49.1529 26.474 49.1108 26.6802 49.0262C26.8864 48.9417 27.074 48.8164 27.2322 48.6576C27.3904 48.4987 27.5159 48.3095 27.6017 48.1009C27.6874 47.8924 27.7315 47.6686 27.7315 47.4425C27.7315 47.2165 27.6874 46.9927 27.6017 46.7841C27.5159 46.5756 27.3904 46.3864 27.2322 46.2276C27.074 46.0687 26.8864 45.9434 26.6802 45.8588C26.474 45.7743 26.2533 45.7322 26.031 45.735H9.23685C9.1844 45.7325 9.13186 45.7325 9.07941 45.735ZM9.07941 52.565C8.85852 52.5751 8.64174 52.6293 8.44149 52.7246C8.24124 52.8199 8.06145 52.9544 7.91241 53.1205C7.76337 53.2866 7.64801 53.4809 7.57294 53.6923C7.49786 53.9038 7.46455 54.1282 7.4749 54.3528C7.48525 54.5773 7.53907 54.7976 7.63327 55.001C7.72747 55.2043 7.8602 55.3869 8.02387 55.538C8.18753 55.6892 8.37892 55.806 8.58706 55.8818C8.7952 55.9577 9.01601 55.991 9.23685 55.98H26.031C26.2536 55.9832 26.4746 55.9415 26.6811 55.8572C26.8877 55.7728 27.0757 55.6475 27.2342 55.4886C27.3927 55.3298 27.5186 55.1404 27.6045 54.9317C27.6904 54.7229 27.7347 54.4988 27.7347 54.2725C27.7347 54.0462 27.6904 53.8222 27.6045 53.6134C27.5186 53.4046 27.3927 53.2153 27.2342 53.0564C27.0757 52.8975 26.8877 52.7723 26.6811 52.688C26.4746 52.6036 26.2536 52.5618 26.031 52.565H9.23685C9.1844 52.5625 9.13186 52.5625 9.07941 52.565ZM37.7869 60.142C39.0693 60.7458 40.485 61.1025 41.9855 61.1025C43.486 61.1025 44.9017 60.7458 46.184 60.142V70.0935L42.8252 68.1459C42.5699 67.9961 42.2803 67.9172 41.9855 67.9172C41.6907 67.9172 41.4011 67.9961 41.1458 68.1459L37.7869 70.0935V60.142Z" fill="#06222C"/>
</svg>
