<svg width="48" height="76" viewBox="0 0 48 76" fill="none" xmlns="http://www.w3.org/2000/svg">
<path d="M47.3631 66.6475C47.3599 66.6379 47.3662 66.6282 47.3631 66.6186C45.7911 57.9303 47.3537 46.7054 47.3693 46.5928C47.3725 46.5799 47.3662 46.567 47.3662 46.5541C48.0833 43.5861 47.3318 41.7062 46.552 40.6568C45.8975 39.7844 45.0708 39.2147 44.2347 38.8412L44.2316 11.8268L45.8506 7.69035C45.9476 7.44248 45.9664 7.17208 45.9101 6.91455L44.551 0.991472C44.4164 0.408821 43.9122 0 43.3297 0H41.2755H38.3382C37.7557 0 37.2516 0.408821 37.1169 0.991472L35.7579 6.91455C35.6984 7.17208 35.7171 7.4457 35.8173 7.69035L37.4332 11.8268V38.7543C36.5157 39.1342 35.7579 39.6879 35.1879 40.4121C34.0262 41.8961 33.7161 43.9724 34.2485 46.5799C34.2516 46.5831 34.2485 46.5895 34.2485 46.596C34.2641 46.7086 35.8236 57.8981 34.2579 66.5928C33.7443 68.389 33.2589 70.9385 34.6462 72.8539C35.7516 74.3797 37.7651 75.1201 40.8058 75.1201C43.6178 75.1201 45.5218 74.4441 46.624 73.0502C48.0426 71.2669 47.7702 68.7013 47.3631 66.6475ZM39.8475 11.0993L38.2881 7.11091L39.3277 2.57847H41.2724H42.3371L43.3767 7.11091L41.8141 11.0993C41.7515 11.2506 41.7233 11.4148 41.7233 11.579L41.7264 38.1974C41.3694 38.162 41.0438 38.1459 40.8058 38.1459C40.4989 38.1459 40.2296 38.1942 39.9415 38.2167V11.579C39.9415 11.4116 39.9102 11.2506 39.8475 11.0993ZM44.6825 71.4246C44.0938 72.1682 42.7911 72.5449 40.8058 72.5449C39.3183 72.5449 37.3893 72.3356 36.6566 71.3184C36.1054 70.5619 36.118 69.1841 36.6879 67.227C36.6973 67.1948 36.691 67.1658 36.6973 67.1368C36.7004 67.1175 36.7192 67.1111 36.7223 67.0918C38.3664 57.9754 36.7944 46.699 36.7286 46.2258C36.7255 46.2097 36.7161 46.2 36.7129 46.1839C36.7098 46.1678 36.7161 46.1517 36.7129 46.1356C36.3184 44.275 36.4624 42.894 37.142 42.0281C37.9906 40.9465 39.6033 40.7212 40.8089 40.7212C42.4529 40.7212 43.8621 41.2845 44.5667 42.2309C45.2337 43.1194 45.3495 44.4167 44.9174 46.0777C44.908 46.1099 44.9174 46.1421 44.9111 46.1711C44.908 46.1904 44.8955 46.2065 44.8923 46.2258C44.8266 46.699 43.2515 57.9754 44.8986 67.0918C44.8986 67.095 44.9017 67.095 44.9017 67.0982C44.9017 67.1046 44.9017 67.1111 44.9017 67.1175C45.3464 69.3451 45.2806 70.6714 44.6825 71.4246Z" fill="#06222C"/>
<path d="M29.8898 13.9004C29.821 13.9165 29.7677 13.9616 29.702 13.9873C29.4233 14.0292 29.154 14.1515 28.9504 14.3865L23.1321 21.0499L15.3129 19.3503L12.8359 11.544L18.6573 4.88057C18.9078 4.5973 18.9955 4.23032 18.9579 3.87623C18.9673 3.82794 18.9955 3.79253 19.0017 3.74424C19.0894 3.03927 18.604 2.39546 17.9183 2.3021C17.2544 2.21841 16.578 2.17334 15.8922 2.17334C7.13035 2.17334 0 9.49993 0 18.5101C0 24.1113 2.83084 29.3036 7.40905 32.2877V66.2553C7.40905 71.145 11.2138 75.1206 15.8922 75.1206C20.5706 75.1206 24.3722 71.145 24.3722 66.2553V32.2877C28.9473 29.3004 31.7844 24.1113 31.7844 18.5101C31.7844 17.2804 31.6497 16.0539 31.3867 14.8693C31.2332 14.1772 30.5788 13.7394 29.8898 13.9004ZM22.4777 30.4947C22.0079 30.7683 21.7856 31.3059 21.8702 31.8274V66.2553C21.8702 69.7222 19.1896 72.5421 15.8922 72.5421C12.5948 72.5421 9.91422 69.7222 9.91422 66.2553V31.7952C9.98625 31.2866 9.76078 30.7619 9.29732 30.4915C5.10742 28.0482 2.50517 23.4578 2.50517 18.5101C2.50517 11.1127 8.22949 5.09947 15.3567 4.80332L10.4873 10.3787C10.1898 10.72 10.0896 11.2028 10.2305 11.6374L13.1584 20.8568C13.2962 21.2946 13.6532 21.6229 14.0916 21.7195L23.3232 23.7218C23.4077 23.7379 23.4954 23.7475 23.5831 23.7475C23.9338 23.7475 24.2751 23.5962 24.5163 23.3194L29.2197 17.9339C29.226 18.1302 29.2823 18.3137 29.2823 18.5101C29.2761 23.461 26.6707 28.0546 22.4777 30.4947Z" fill="#06222C"/>
</svg>
