<svg width="62" height="75" viewBox="0 0 62 75" fill="none" xmlns="http://www.w3.org/2000/svg">
<path d="M61.1798 66.7624L48.2732 39.6C48.0244 38.9895 47.3357 38.6992 46.735 38.9523C46.1343 39.2054 45.8489 39.9054 46.0979 40.516L58.067 65.3778L50.013 63.0054C49.4844 62.8495 48.9197 63.0873 48.6543 63.5777L44.6093 71.0446L35.135 47.7921C46.0701 45.6483 54.3556 35.8474 54.3556 24.1147C54.3558 10.8179 43.7146 0 30.6347 0C17.5548 0 6.91344 10.8179 6.91344 24.1147C6.91344 29.5005 8.65958 34.4793 11.6062 38.4977L0.0896098 66.7624C-0.0835289 67.1876 -0.00174721 67.6758 0.300107 68.0186C0.601805 68.3614 1.07036 68.498 1.50501 68.37L11.0069 65.5709L15.7788 74.3805C15.9867 74.764 16.3827 75 16.8098 75C16.8315 75 16.8533 74.9994 16.8751 74.9982C17.327 74.9727 17.7245 74.6863 17.8978 74.2612L30.1628 48.6729C30.4116 48.0622 30.1264 47.3622 29.5257 47.1093C28.925 46.8563 28.2363 47.1463 27.9875 47.757L16.6597 71.0446L12.6151 63.5777C12.3495 63.0873 11.7846 62.8495 11.2562 63.0054L3.20234 65.3778L13.3108 40.5689C17.6429 45.2796 23.8058 48.2293 30.6347 48.2293C31.3396 48.2293 32.0369 48.196 32.7263 48.1345L43.3718 74.2612C43.5449 74.6863 43.9425 74.9727 44.3943 74.9981C44.4162 74.9994 44.4379 75 44.4597 75C44.8868 75 45.2829 74.764 45.4906 74.3805L50.2626 65.5709L59.7645 68.37C60.1995 68.4981 60.6676 68.3614 60.9694 68.0186C61.2713 67.6758 61.3529 67.1876 61.1798 66.7624ZM9.268 24.1147C9.268 12.1377 18.8531 2.39362 30.6347 2.39362C42.4163 2.39362 52.0012 12.1377 52.0012 24.1147C52.0012 36.0918 42.4163 45.8357 30.6347 45.8357C18.8531 45.8357 9.268 36.0918 9.268 24.1147Z" fill="#06222C"/>
</svg>
