<svg width="75" height="75" viewBox="0 0 75 75" fill="none" xmlns="http://www.w3.org/2000/svg">
<g clip-path="url(#clip0)">
<path d="M73.6132 34.9496H70.0455V18.2659C70.0455 14.2661 66.8446 11.0121 62.9101 11.0121H58.078L53.1332 1.97396C52.3795 0.592689 50.9453 -0.264648 49.3899 -0.264648C48.6649 -0.264648 47.9456 -0.0745804 47.3106 0.28366L28.3332 11.0119H7.13538C3.20086 11.0119 0 14.2659 0 18.2656V68.0745C0 72.0743 3.20086 75.3283 7.13538 75.3283H62.9101C66.8446 75.3283 70.0455 72.0743 70.0455 68.0745V53.4465H73.6132V34.9496ZM62.9101 13.9135C65.1077 13.9135 66.903 15.6108 67.1441 17.7826H61.7812L59.6661 13.9135H62.9101ZM48.6991 2.81956C49.3683 2.43807 50.269 2.70488 50.6384 3.38254L58.5159 17.7812H22.2311L48.6991 2.81956ZM67.1912 68.0745C67.1912 70.4741 65.2703 72.4269 62.9099 72.4269H7.13538C4.77498 72.4269 2.85402 70.4741 2.85402 68.0745V18.2659C2.85402 15.8663 4.77498 13.9135 7.13538 13.9135H23.2014L16.3571 17.7828H8.02736C7.23819 17.7828 6.60024 18.4327 6.60024 19.2336C6.60024 20.0345 7.23819 20.6844 8.02736 20.6844H11.224H63.3682H67.1912V34.951H56.7551C51.9086 34.951 47.9643 38.9609 47.9643 43.8876V44.5115C47.9643 49.4384 51.9088 53.4481 56.7551 53.4481H67.1912V68.0745ZM70.7589 50.5452H70.0455H56.7551C53.4814 50.5452 50.8183 47.8382 50.8183 44.5099V43.886C50.8183 40.558 53.4811 37.8508 56.7551 37.8508H70.0455H70.7589V50.5452ZM61.1261 44.3172C61.1261 46.0871 59.7161 47.5203 57.9752 47.5203C56.2341 47.5203 54.8243 46.0869 54.8243 44.3172C54.8243 42.5474 56.2343 41.114 57.9752 41.114C59.7163 41.1138 61.1261 42.5485 61.1261 44.3172Z" fill="#06222C"/>
<path fill-rule="evenodd" clip-rule="evenodd" d="M59.0109 47.5204C60.7518 47.5204 62.1618 46.0872 62.1618 44.3172C62.1618 42.5486 60.752 41.1138 59.0109 41.1141C57.2701 41.1141 55.86 42.5475 55.86 44.3172C55.86 46.087 57.2698 47.5204 59.0109 47.5204Z" fill="#06222C"/>
<path fill-rule="evenodd" clip-rule="evenodd" d="M74.6489 34.9497H71.0812L68.2269 34.9511H57.7908C52.9443 34.9511 49 38.961 49 43.8877V44.5116C49 49.4384 52.9445 53.4482 57.7908 53.4482H68.2269L71.0812 53.4466H74.6489V34.9497ZM71.0812 50.5452H71.7946V37.8508H71.0812H57.7908C54.5169 37.8508 51.854 40.5581 51.854 43.8861V44.51C51.854 47.8382 54.5171 50.5452 57.7908 50.5452H71.0812Z" fill="#06222C"/>
</g>
<defs>
<clipPath id="clip0">
<rect width="75" height="75" fill="white"/>
</clipPath>
</defs>
</svg>
