<svg width="74" height="75" viewBox="0 0 74 75" fill="none" xmlns="http://www.w3.org/2000/svg">
<path fill-rule="evenodd" clip-rule="evenodd" d="M73.2534 21.0848L37.5561 -0.201387C37.369 -0.311284 37.1567 -0.369141 36.9406 -0.369141C36.7245 -0.369141 36.5123 -0.311284 36.3251 -0.201387L0.627781 19.8327C0.439446 19.9403 0.282285 20.0965 0.172088 20.2855C0.0618913 20.4745 0.00254091 20.6897 0 20.9095V73.4988C0 73.8309 0.129688 74.1494 0.360535 74.3842C0.591382 74.619 0.904477 74.751 1.23094 74.751H7.38566C7.71213 74.751 8.02522 74.619 8.25607 74.3842C8.48692 74.1494 8.6166 73.8309 8.6166 73.4988V29.6744H65.24V39.6914V73.4988C65.24 73.8309 65.3697 74.1494 65.6005 74.3842C65.8314 74.619 66.1445 74.751 66.471 74.751H72.6257C72.9521 74.751 73.2652 74.619 73.4961 74.3842C73.7269 74.1494 73.8566 73.8309 73.8566 73.4988V22.1616C73.8566 21.9443 73.8009 21.7308 73.6952 21.542C73.5894 21.3532 73.4372 21.1956 73.2534 21.0848ZM67.7019 72.2467H71.3947V22.8753L36.9283 2.31539L2.46189 21.6482V72.2467H6.15472V28.4222C6.15472 28.0902 6.28441 27.7717 6.51525 27.5369C6.7461 27.302 7.0592 27.1701 7.38566 27.1701H66.471C66.7974 27.1701 67.1105 27.302 67.3414 27.5369C67.5722 27.7717 67.7019 28.0902 67.7019 28.4222V72.2467Z" fill="#06222C"/>
<path d="M46.7762 74.7504H61.5475C61.874 74.7504 62.1871 74.6185 62.4179 74.3836C62.6488 74.1488 62.7785 73.8303 62.7785 73.4983V43.4472C62.7785 43.1151 62.6488 42.7966 62.4179 42.5618C62.1871 42.327 61.874 42.1951 61.5475 42.1951H46.7762C46.4497 42.1951 46.1366 42.327 45.9058 42.5618C45.6749 42.7966 45.5452 43.1151 45.5452 43.4472V57.2206H32.0049C31.6784 57.2206 31.3653 57.3525 31.1345 57.5873C30.9036 57.8222 30.7739 58.1406 30.7739 58.4727V73.4983C30.7739 73.8303 30.9036 74.1488 31.1345 74.3836C31.3653 74.6185 31.6784 74.7504 32.0049 74.7504H46.7762ZM60.3166 72.2461H48.0071V59.7249H50.469V63.4812C50.469 63.8133 50.5987 64.1318 50.8296 64.3666C51.0604 64.6014 51.3735 64.7334 51.7 64.7334H56.6237C56.9502 64.7334 57.2633 64.6014 57.4942 64.3666C57.725 64.1318 57.8547 63.8133 57.8547 63.4812V59.7249H60.3166V72.2461ZM52.9309 59.7249H55.3928V62.2291H52.9309V59.7249ZM52.9309 44.6993H55.3928V47.2036H52.9309V44.6993ZM48.0071 44.6993H50.469V48.4557C50.469 48.7878 50.5987 49.1063 50.8296 49.3411C51.0604 49.5759 51.3735 49.7078 51.7 49.7078H56.6237C56.9502 49.7078 57.2633 49.5759 57.4942 49.3411C57.725 49.1063 57.8547 48.7878 57.8547 48.4557V44.6993H60.3166V57.2206H48.0071V44.6993ZM38.1596 59.7249H40.6215V62.2291H38.1596V59.7249ZM33.2358 59.7249H35.6977V63.4812C35.6977 63.8133 35.8274 64.1318 36.0582 64.3666C36.2891 64.6014 36.6022 64.7334 36.9286 64.7334H41.8524C42.1789 64.7334 42.492 64.6014 42.7228 64.3666C42.9537 64.1318 43.0834 63.8133 43.0834 63.4812V59.7249H45.5452V72.2461H33.2358V59.7249Z" fill="#06222C"/>
<path d="M29.5425 18.4054V23.414C29.5425 23.746 29.6722 24.0645 29.903 24.2993C30.1339 24.5342 30.447 24.6661 30.7734 24.6661H43.0829C43.4093 24.6661 43.7224 24.5342 43.9533 24.2993C44.1841 24.0645 44.3138 23.746 44.3138 23.414V18.4054C44.3138 18.0734 44.1841 17.7549 43.9533 17.5201C43.7224 17.2852 43.4093 17.1533 43.0829 17.1533H30.7734C30.447 17.1533 30.1339 17.2852 29.903 17.5201C29.6722 17.7549 29.5425 18.0734 29.5425 18.4054ZM32.0044 19.6576H41.8519V22.1618H32.0044V19.6576Z" fill="#06222C"/>
</svg>
