<svg width="74" height="75" viewBox="0 0 74 75" fill="none" xmlns="http://www.w3.org/2000/svg">
<path d="M72.3149 31.4941C71.8178 30.9855 71.2261 30.5825 70.5744 30.3085C69.9227 30.0344 69.2238 29.8948 68.5186 29.8978C68.1552 29.8921 67.8036 29.7662 67.5169 29.5392C67.2302 29.3121 67.0241 28.9963 66.9298 28.6396C66.301 26.4449 65.4401 24.3261 64.362 22.3201C64.1866 21.994 64.1206 21.6187 64.1739 21.251C64.2272 20.8833 64.397 20.5433 64.6576 20.2825C65.6582 19.2632 66.2202 17.882 66.2202 16.442C66.2202 15.002 65.6582 13.6208 64.6576 12.6015L61.554 9.44645C60.5498 8.42866 59.1896 7.85713 57.7715 7.85713C56.3535 7.85713 54.9933 8.42866 53.9891 9.44645C53.7279 9.70515 53.3907 9.86994 53.0288 9.91571C52.6669 9.96148 52.3003 9.88572 51.9847 9.69998C50.0117 8.60105 47.9274 7.72266 45.7683 7.08018C45.4144 6.98343 45.1015 6.7711 44.8778 6.47589C44.6542 6.18067 44.5322 5.81893 44.5306 5.44632C44.5318 4.72839 44.3932 4.01732 44.1227 3.35415C43.8521 2.69098 43.4551 2.08884 42.9544 1.5825C42.4538 1.07615 41.8594 0.675627 41.2057 0.404036C40.5519 0.132446 39.8517 -0.0048311 39.1455 0.000129811H34.7488C34.0457 0.00136002 33.3498 0.143517 32.7008 0.418468C32.0518 0.693419 31.4625 1.09577 30.9666 1.60249C30.4707 2.10921 30.078 2.71036 29.8109 3.37154C29.5438 4.03272 29.4075 4.74095 29.41 5.45571C29.4059 5.8255 29.2826 6.18371 29.059 6.47544C28.8355 6.76717 28.5239 6.9763 28.1722 7.07079C26.0131 7.71327 23.9288 8.59166 21.9559 9.69059C21.6379 9.87589 21.2691 9.95049 20.9056 9.90302C20.5421 9.85556 20.2038 9.68864 19.9422 9.42767C18.9396 8.41046 17.5809 7.83916 16.1644 7.83916C14.7479 7.83916 13.3892 8.41046 12.3865 9.42767L9.2368 12.6015C8.73995 13.1064 8.34581 13.7058 8.07691 14.3656C7.808 15.0254 7.66959 15.7325 7.66959 16.4467C7.66959 17.1608 7.808 17.868 8.07691 18.5278C8.34581 19.1875 8.73995 19.787 9.2368 20.2919C9.49128 20.5574 9.65338 20.9002 9.69841 21.2681C9.74343 21.6359 9.66891 22.0087 9.4862 22.3295C8.40812 24.3355 7.54714 26.4543 6.91837 28.649C6.82362 29.0073 6.61614 29.3242 6.32761 29.5514C6.03908 29.7786 5.68534 29.9035 5.3204 29.9072C3.91 29.9146 2.55958 30.4881 1.56312 31.5029C0.566667 32.5176 0.00486109 33.8914 8.0465e-06 35.3252V39.7949C-0.0012132 40.51 0.136592 41.2183 0.405505 41.8791C0.674418 42.5399 1.06914 43.1401 1.56698 43.6454C2.06482 44.1506 2.65596 44.5508 3.30644 44.823C3.95692 45.0953 4.65391 45.2341 5.35735 45.2317C5.7207 45.2374 6.07233 45.3633 6.359 45.5903C6.64566 45.8174 6.85176 46.1332 6.94608 46.4899C7.57528 48.6784 8.43627 50.791 9.51391 52.7906C9.69386 53.1158 9.76418 53.4919 9.71415 53.8615C9.66411 54.2311 9.49646 54.5739 9.2368 54.8376C8.23618 55.8569 7.67421 57.2381 7.67421 58.6781C7.67421 60.1181 8.23618 61.4994 9.2368 62.5186L12.3404 65.6737C13.343 66.6909 14.7017 67.2622 16.1182 67.2622C17.5347 67.2622 18.8934 66.6909 19.8961 65.6737C20.1573 65.415 20.4945 65.2502 20.8563 65.2044C21.2182 65.1586 21.5849 65.2344 21.9004 65.4201C23.8766 66.5192 25.964 67.3975 28.1261 68.0399C28.4785 68.1363 28.7903 68.3472 29.0137 68.6405C29.2372 68.9338 29.3602 69.2934 29.3638 69.6644C29.3613 70.3831 29.4991 71.0952 29.769 71.7595C30.039 72.4237 30.4359 73.027 30.9367 73.5343C31.4375 74.0417 32.0322 74.443 32.6866 74.7152C33.3409 74.9874 34.0418 75.125 34.7488 75.12H39.1455C40.5624 75.1175 41.9203 74.5436 42.9213 73.5243C43.9222 72.5049 44.4844 71.1235 44.4844 69.6832C44.49 69.3138 44.6139 68.9563 44.8372 68.6649C45.0605 68.3735 45.3712 68.164 45.7221 68.0681C47.8842 67.4257 49.9716 66.5473 51.9477 65.4483C52.2633 65.2626 52.63 65.1868 52.9919 65.2326C53.3537 65.2784 53.6909 65.4431 53.9521 65.7018C54.9548 66.719 56.3134 67.2903 57.73 67.2903C59.1465 67.2903 60.5052 66.719 61.5078 65.7018L64.6576 62.5186C65.1544 62.0137 65.5486 61.4143 65.8175 60.7545C66.0864 60.0948 66.2248 59.3876 66.2248 58.6734C66.2248 57.9593 66.0864 57.2521 65.8175 56.5923C65.5486 55.9326 65.1544 55.3331 64.6576 54.8282C64.4031 54.5627 64.241 54.2199 64.196 53.852C64.151 53.4842 64.2255 53.1114 64.4082 52.7906C65.4858 50.791 66.3468 48.6784 66.976 46.4899C67.0708 46.1316 67.2782 45.8147 67.5668 45.5875C67.8553 45.3603 68.209 45.2353 68.574 45.2317C69.986 45.2242 71.3378 44.6494 72.3345 43.6327C73.3312 42.6159 73.892 41.2397 73.8944 39.8043V35.3346C73.8942 34.6201 73.7545 33.9127 73.4833 33.2534C73.2122 32.5942 72.815 31.9962 72.3149 31.4941ZM70.1997 39.8043C70.1984 40.025 70.1545 40.2433 70.0703 40.4468C69.9861 40.6502 69.8633 40.8348 69.7089 40.99C69.5545 41.1452 69.3715 41.268 69.1705 41.3513C68.9694 41.4347 68.7542 41.4769 68.537 41.4757C67.3731 41.4768 66.2415 41.8646 65.3144 42.5799C64.3873 43.2952 63.7155 44.299 63.4014 45.4383C62.847 47.366 62.0882 49.2267 61.1384 50.9877C60.5723 52.0261 60.3562 53.2244 60.523 54.3994C60.6898 55.5744 61.2303 56.6616 62.062 57.495C62.3689 57.8098 62.541 58.235 62.541 58.6781C62.541 59.1213 62.3689 59.5465 62.062 59.8613L58.9585 63.0163C58.6488 63.3282 58.2306 63.5032 57.7946 63.5032C57.3587 63.5032 56.9404 63.3282 56.6308 63.0163C55.8125 62.1716 54.7446 61.6224 53.5904 61.4529C52.4361 61.2833 51.259 61.5026 50.2389 62.0773C48.4974 63.0462 46.6578 63.8207 44.7523 64.3872C43.6301 64.707 42.6416 65.3913 41.9378 66.3357C41.2339 67.2801 40.8534 68.4326 40.8544 69.6175C40.8634 69.8485 40.8254 70.0789 40.7429 70.2943C40.6603 70.5098 40.5349 70.7056 40.3745 70.8695C40.2142 71.0334 40.0222 71.1619 39.8108 71.247C39.5993 71.3321 39.3728 71.3719 39.1455 71.364H34.7488C34.3119 71.3615 33.8937 71.1833 33.5857 70.8684C33.2776 70.5534 33.1047 70.1273 33.1047 69.6832C33.1051 68.4996 32.7243 67.3484 32.0204 66.4056C31.3165 65.4628 30.3282 64.7803 29.2068 64.4624C27.3013 63.8958 25.4617 63.1214 23.7201 62.1524C22.9139 61.6999 22.0086 61.4609 21.0876 61.4576C20.3904 61.4575 19.7002 61.5976 19.0565 61.87C18.4129 62.1424 17.8287 62.5415 17.3375 63.0445C17.0278 63.3564 16.6096 63.5314 16.1736 63.5314C15.7377 63.5314 15.3194 63.3564 15.0098 63.0445L11.9062 59.8894C11.5966 59.5743 11.4226 59.147 11.4226 58.7016C11.4226 58.2562 11.5966 57.8289 11.9062 57.5138C12.7298 56.6763 13.2613 55.588 13.4197 54.4148C13.5781 53.2417 13.3548 52.048 12.7837 51.0159C11.8339 49.2549 11.0751 47.3941 10.5207 45.4664C10.2057 44.324 9.53121 43.318 8.60036 42.6024C7.66952 41.8867 6.53365 41.5009 5.36659 41.5038C5.14521 41.5077 4.92534 41.4661 4.72019 41.3814C4.51503 41.2968 4.3288 41.1709 4.17267 41.0113C4.01654 40.8517 3.89373 40.6617 3.8116 40.4527C3.72947 40.2436 3.68972 40.0199 3.69473 39.7949V35.3346C3.69594 35.1139 3.7399 34.8956 3.82411 34.6921C3.90832 34.4887 4.03113 34.3041 4.18552 34.1489C4.3399 33.9937 4.52285 33.8709 4.72392 33.7876C4.92498 33.7042 5.14022 33.662 5.35735 33.6632C6.52125 33.6621 7.65291 33.2743 8.58001 32.559C9.50712 31.8437 10.1789 30.8399 10.493 29.7006C11.0471 27.7669 11.8059 25.8999 12.756 24.1324C13.3221 23.094 13.5382 21.8958 13.3714 20.7207C13.2046 19.5457 12.6641 18.4585 11.8323 17.6251C11.5255 17.3104 11.3533 16.8851 11.3533 16.442C11.3533 15.9988 11.5255 15.5736 11.8323 15.2588L14.9359 12.1038C15.0896 11.9465 15.2723 11.8217 15.4737 11.7365C15.675 11.6513 15.8909 11.6075 16.109 11.6075C16.327 11.6075 16.543 11.6513 16.7443 11.7365C16.9456 11.8217 17.1284 11.9465 17.2821 12.1038C18.1059 12.941 19.1764 13.4813 20.3304 13.6424C21.4845 13.8034 22.6586 13.5764 23.6739 12.9959C25.4126 12.0301 27.2491 11.2588 29.1513 10.6953C30.2751 10.3751 31.2647 9.6894 31.9686 8.74312C32.6726 7.79684 33.0522 6.64213 33.0493 5.45571C33.0467 5.2294 33.0891 5.00489 33.174 4.79565C33.2588 4.58641 33.3843 4.39675 33.5431 4.23803C33.7018 4.07932 33.8904 3.95482 34.0976 3.87201C34.3048 3.7892 34.5263 3.74979 34.7488 3.75612H39.1455C39.3635 3.75735 39.579 3.80235 39.7797 3.88854C39.9805 3.97474 40.1625 4.10042 40.3153 4.25837C40.4681 4.41631 40.5886 4.60341 40.6701 4.80889C40.7515 5.01438 40.7921 5.2342 40.7897 5.45571C40.7908 6.63891 41.1722 7.78934 41.8759 8.73182C42.5796 9.6743 43.5669 10.3572 44.6876 10.6765C46.5898 11.24 48.4263 12.0113 50.165 12.9771C51.1861 13.5541 52.3651 13.7746 53.5214 13.605C54.6776 13.4354 55.7472 12.885 56.5661 12.0381C56.8758 11.7261 57.2941 11.5511 57.73 11.5511C58.1659 11.5511 58.5842 11.7261 58.8938 12.0381L61.9974 15.1931C62.1521 15.3493 62.2749 15.5351 62.3587 15.7398C62.4425 15.9445 62.4856 16.164 62.4856 16.3856C62.4856 16.6073 62.4425 16.8268 62.3587 17.0315C62.2749 17.2362 62.1521 17.422 61.9974 17.5782C61.1738 18.4156 60.6423 19.504 60.4839 20.6771C60.3255 21.8503 60.5488 23.0439 61.1199 24.076C62.07 25.8435 62.8288 27.7105 63.3829 29.6443C63.6979 30.7867 64.3724 31.7927 65.3033 32.5083C66.2341 33.224 67.37 33.6099 68.537 33.6069C68.7592 33.6042 68.9797 33.6474 69.185 33.7337C69.3903 33.8201 69.5763 33.9479 69.7317 34.1094C69.8871 34.2708 70.0087 34.4627 70.0891 34.6733C70.1696 34.8839 70.2072 35.1089 70.1997 35.3346V39.8043Z" fill="#06222C"/>
</svg>
